<?xml version="1.0" encoding="UTF-8" standalone="no"?>
<!DOCTYPE svg PUBLIC "-//W3C//DTD SVG 1.1//EN"
 "http://www.w3.org/Graphics/SVG/1.1/DTD/svg11.dtd">
<!-- Generated by graphviz version 2.40.1 (20161225.0304)
 -->
<!-- Title: twoDegreesRelationshipsDiagram Pages: 1 -->
<svg width="885pt" height="934pt"
 viewBox="0.00 0.00 885.00 933.70" xmlns="http://www.w3.org/2000/svg" xmlns:xlink="http://www.w3.org/1999/xlink">
<g id="graph0" class="graph" transform="scale(1 1) rotate(0) translate(4 929.7)">
<title>twoDegreesRelationshipsDiagram</title>
<polygon fill="#ffffff" stroke="transparent" points="-4,4 -4,-929.7 881,-929.7 881,4 -4,4"/>
<text text-anchor="middle" x="72.4936" y="-7.3" font-family="Helvetica,sans-Serif" font-size="11.00" fill="#000000">Generated by SchemaSpy</text>
<!-- accrual_events -->
<g id="node1" class="node">
<title>accrual_events</title>
<g id="a_node1"><a xlink:href="../../tables/accrual_events.html" xlink:title="accrual_events" target="_top">
<polygon fill="#ffffff" stroke="transparent" points="605,-655.7 605,-921.7 843,-921.7 843,-655.7 605,-655.7"/>
<polygon fill="#f5f5f5" stroke="transparent" points="607,-896.7 607,-919.7 841,-919.7 841,-896.7 607,-896.7"/>
<polygon fill="none" stroke="#000000" points="607,-896.7 607,-919.7 841,-919.7 841,-896.7 607,-896.7"/>
<text text-anchor="start" x="612" y="-905.3" font-family="Helvetica,sans-Serif" font-weight="bold" font-size="11.00" fill="#000000">accrual_events</text>
<text text-anchor="start" x="806.0437" y="-904.8" font-family="Helvetica,sans-Serif" font-size="11.00" fill="#000000">[table]</text>
<polygon fill="none" stroke="#000000" points="607,-874.7 607,-896.7 757,-896.7 757,-874.7 607,-874.7"/>
<image xlink:href="../../images/primaryKeys.png" width="11px" height="12px" preserveAspectRatio="xMinYMin meet" x="612" y="-891.7"/>
<text text-anchor="start" x="627" y="-881.8" font-family="Helvetica,sans-Serif" font-size="11.00" fill="#000000">id</text>
<polygon fill="none" stroke="#000000" points="757,-874.7 757,-896.7 841,-896.7 841,-874.7 757,-874.7"/>
<text text-anchor="start" x="760" y="-882.4" font-family="Helvetica,sans-Serif" font-size="11.00" fill="#000000">bigserial[19]</text>
<polygon fill="#ffffff" stroke="transparent" points="607,-852.7 607,-874.7 757,-874.7 757,-852.7 607,-852.7"/>
<polygon fill="none" stroke="#000000" points="607,-852.7 607,-874.7 757,-874.7 757,-852.7 607,-852.7"/>
<image xlink:href="../../images/foreignKeys.png" width="11px" height="12px" preserveAspectRatio="xMinYMin meet" x="612" y="-869.7"/>
<text text-anchor="start" x="627" y="-859.8" font-family="Helvetica,sans-Serif" font-size="11.00" fill="#000000">trade_id</text>
<polygon fill="none" stroke="#000000" points="757,-852.7 757,-874.7 841,-874.7 841,-852.7 757,-852.7"/>
<text text-anchor="start" x="760" y="-860.4" font-family="Helvetica,sans-Serif" font-size="11.00" fill="#000000">int8[19]</text>
<polygon fill="none" stroke="#000000" points="607,-830.7 607,-852.7 757,-852.7 757,-830.7 607,-830.7"/>
<image xlink:href="../../images/foreignKeys.png" width="11px" height="12px" preserveAspectRatio="xMinYMin meet" x="612" y="-847.7"/>
<text text-anchor="start" x="627" y="-837.8" font-family="Helvetica,sans-Serif" font-size="11.00" fill="#000000">coupon_period_id</text>
<polygon fill="none" stroke="#000000" points="757,-830.7 757,-852.7 841,-852.7 841,-830.7 757,-830.7"/>
<text text-anchor="start" x="760" y="-838.4" font-family="Helvetica,sans-Serif" font-size="11.00" fill="#000000">int8[19]</text>
<polygon fill="#ffffff" stroke="transparent" points="607,-808.7 607,-830.7 757,-830.7 757,-808.7 607,-808.7"/>
<polygon fill="none" stroke="#000000" points="607,-808.7 607,-830.7 757,-830.7 757,-808.7 607,-808.7"/>
<text text-anchor="start" x="627" y="-815.8" font-family="Helvetica,sans-Serif" font-size="11.00" fill="#000000">accrual_date</text>
<polygon fill="none" stroke="#000000" points="757,-808.7 757,-830.7 841,-830.7 841,-808.7 757,-808.7"/>
<text text-anchor="start" x="760" y="-816.4" font-family="Helvetica,sans-Serif" font-size="11.00" fill="#000000">date[13]</text>
<polygon fill="none" stroke="#000000" points="607,-786.7 607,-808.7 757,-808.7 757,-786.7 607,-786.7"/>
<text text-anchor="start" x="627" y="-793.8" font-family="Helvetica,sans-Serif" font-size="11.00" fill="#000000">accrual_amount</text>
<polygon fill="none" stroke="#000000" points="757,-786.7 757,-808.7 841,-808.7 841,-786.7 757,-786.7"/>
<text text-anchor="start" x="760" y="-794.4" font-family="Helvetica,sans-Serif" font-size="11.00" fill="#000000">numeric[15,2]</text>
<polygon fill="none" stroke="#000000" points="607,-764.7 607,-786.7 757,-786.7 757,-764.7 607,-764.7"/>
<text text-anchor="start" x="627" y="-771.8" font-family="Helvetica,sans-Serif" font-size="11.00" fill="#000000">cumulative_accrual</text>
<polygon fill="none" stroke="#000000" points="757,-764.7 757,-786.7 841,-786.7 841,-764.7 757,-764.7"/>
<text text-anchor="start" x="760" y="-772.4" font-family="Helvetica,sans-Serif" font-size="11.00" fill="#000000">numeric[15,2]</text>
<polygon fill="none" stroke="#000000" points="607,-742.7 607,-764.7 757,-764.7 757,-742.7 607,-742.7"/>
<text text-anchor="start" x="627" y="-749.8" font-family="Helvetica,sans-Serif" font-size="11.00" fill="#000000">day_count_fraction</text>
<polygon fill="none" stroke="#000000" points="757,-742.7 757,-764.7 841,-764.7 841,-742.7 757,-742.7"/>
<text text-anchor="start" x="760" y="-750.4" font-family="Helvetica,sans-Serif" font-size="11.00" fill="#000000">numeric[10,8]</text>
<polygon fill="none" stroke="#000000" points="607,-720.7 607,-742.7 757,-742.7 757,-720.7 607,-720.7"/>
<text text-anchor="start" x="627" y="-727.8" font-family="Helvetica,sans-Serif" font-size="11.00" fill="#000000">notional_amount</text>
<polygon fill="none" stroke="#000000" points="757,-720.7 757,-742.7 841,-742.7 841,-720.7 757,-720.7"/>
<text text-anchor="start" x="760" y="-728.4" font-family="Helvetica,sans-Serif" font-size="11.00" fill="#000000">numeric[15,2]</text>
<polygon fill="#ffffff" stroke="transparent" points="607,-698.7 607,-720.7 757,-720.7 757,-698.7 607,-698.7"/>
<polygon fill="none" stroke="#000000" points="607,-698.7 607,-720.7 757,-720.7 757,-698.7 607,-698.7"/>
<text text-anchor="start" x="627" y="-705.8" font-family="Helvetica,sans-Serif" font-size="11.00" fill="#000000">trade_version</text>
<polygon fill="none" stroke="#000000" points="757,-698.7 757,-720.7 841,-720.7 841,-698.7 757,-698.7"/>
<text text-anchor="start" x="760" y="-706.4" font-family="Helvetica,sans-Serif" font-size="11.00" fill="#000000">int4[10]</text>
<polygon fill="none" stroke="#000000" points="607,-676.7 607,-698.7 757,-698.7 757,-676.7 607,-676.7"/>
<text text-anchor="start" x="627" y="-683.8" font-family="Helvetica,sans-Serif" font-size="11.00" fill="#000000">posted_at</text>
<polygon fill="none" stroke="#000000" points="757,-676.7 757,-698.7 841,-698.7 841,-676.7 757,-676.7"/>
<text text-anchor="start" x="759.8807" y="-684.4" font-family="Helvetica,sans-Serif" font-size="11.00" fill="#000000">timestamp[29,6]</text>
<polygon fill="#ffffff" stroke="transparent" points="607,-657.7 607,-676.7 686,-676.7 686,-657.7 607,-657.7"/>
<polygon fill="none" stroke="#000000" points="607,-657.7 607,-676.7 686,-676.7 686,-657.7 607,-657.7"/>
<text text-anchor="start" x="610" y="-663.8" font-family="Helvetica,sans-Serif" font-size="11.00" fill="#000000">&lt; 2</text>
<polygon fill="#ffffff" stroke="transparent" points="686,-657.7 686,-676.7 757,-676.7 757,-657.7 686,-657.7"/>
<polygon fill="none" stroke="#000000" points="686,-657.7 686,-676.7 757,-676.7 757,-657.7 686,-657.7"/>
<text text-anchor="start" x="747.8862" y="-663.8" font-family="Helvetica,sans-Serif" font-size="11.00" fill="#000000"> &#160;</text>
<polygon fill="#ffffff" stroke="transparent" points="757,-657.7 757,-676.7 841,-676.7 841,-657.7 757,-657.7"/>
<polygon fill="none" stroke="#000000" points="757,-657.7 757,-676.7 841,-676.7 841,-657.7 757,-657.7"/>
<text text-anchor="start" x="822.4053" y="-663.8" font-family="Helvetica,sans-Serif" font-size="11.00" fill="#000000">0 &gt;</text>
<polygon fill="none" stroke="#000000" stroke-width="2" points="606,-656.7 606,-920.7 842,-920.7 842,-656.7 606,-656.7"/>
</a>
</g>
</g>
<!-- coupon_periods -->
<g id="node2" class="node">
<title>coupon_periods</title>
<g id="a_node2"><a xlink:href="../../tables/coupon_periods.html" xlink:title="coupon_periods" target="_top">
<polygon fill="#ffffff" stroke="transparent" points="341,-730.2 341,-791.2 486,-791.2 486,-730.2 341,-730.2"/>
<polygon fill="#f5f5f5" stroke="transparent" points="341.5,-767.7 341.5,-790.7 486.5,-790.7 486.5,-767.7 341.5,-767.7"/>
<polygon fill="none" stroke="#000000" points="341.5,-767.7 341.5,-790.7 486.5,-790.7 486.5,-767.7 341.5,-767.7"/>
<text text-anchor="start" x="346.5" y="-776.3" font-family="Helvetica,sans-Serif" font-weight="bold" font-size="11.00" fill="#000000">coupon_periods</text>
<text text-anchor="start" x="452.0219" y="-775.8" font-family="Helvetica,sans-Serif" font-size="11.00" fill="#000000">[table]</text>
<polygon fill="none" stroke="#000000" points="341.5,-748.7 341.5,-767.7 486.5,-767.7 486.5,-748.7 341.5,-748.7"/>
<text text-anchor="start" x="344.5" y="-754.8" font-family="Helvetica,sans-Serif" font-size="11.00" fill="#000000">...</text>
<polygon fill="#ffffff" stroke="transparent" points="341.5,-729.7 341.5,-748.7 407.5,-748.7 407.5,-729.7 341.5,-729.7"/>
<polygon fill="none" stroke="#000000" points="341.5,-729.7 341.5,-748.7 407.5,-748.7 407.5,-729.7 341.5,-729.7"/>
<text text-anchor="start" x="344.5" y="-735.8" font-family="Helvetica,sans-Serif" font-size="11.00" fill="#000000">&lt; 1</text>
<polygon fill="#ffffff" stroke="transparent" points="407.5,-729.7 407.5,-748.7 442.5,-748.7 442.5,-729.7 407.5,-729.7"/>
<polygon fill="none" stroke="#000000" points="407.5,-729.7 407.5,-748.7 442.5,-748.7 442.5,-729.7 407.5,-729.7"/>
<text text-anchor="start" x="433.3862" y="-735.8" font-family="Helvetica,sans-Serif" font-size="11.00" fill="#000000"> &#160;</text>
<polygon fill="#ffffff" stroke="transparent" points="442.5,-729.7 442.5,-748.7 486.5,-748.7 486.5,-729.7 442.5,-729.7"/>
<polygon fill="none" stroke="#000000" points="442.5,-729.7 442.5,-748.7 486.5,-748.7 486.5,-729.7 442.5,-729.7"/>
<text text-anchor="start" x="467.9053" y="-735.8" font-family="Helvetica,sans-Serif" font-size="11.00" fill="#000000">1 &gt;</text>
</a>
</g>
</g>
<!-- accrual_events&#45;&gt;coupon_periods -->
<g id="edge1" class="edge">
<title>accrual_events:w&#45;&gt;coupon_periods:e</title>
<path fill="none" stroke="#000000" d="M592.5678,-841.0788C545.9781,-837.1463 499.0131,-815.2378 464.8762,-795.2862"/>
<polygon fill="#000000" stroke="#000000" points="599.0074,-841.3559 606.8452,-845.2967 603.0037,-841.5279 607,-841.7 607,-841.7 607,-841.7 603.0037,-841.5279 607.1548,-838.1033 599.0074,-841.3559 599.0074,-841.3559"/>
<ellipse fill="none" stroke="#000000" cx="595.8104" cy="-841.2183" rx="3.2" ry="3.2"/>
</g>
<!-- cds_trades -->
<g id="node3" class="node">
<title>cds_trades</title>
<g id="a_node3"><a xlink:href="../../tables/cds_trades.html" xlink:title="cds_trades" target="_top">
<polygon fill="#ffffff" stroke="transparent" points="137,-404.2 137,-465.2 248,-465.2 248,-404.2 137,-404.2"/>
<polygon fill="#f5f5f5" stroke="transparent" points="137.5,-441.7 137.5,-464.7 248.5,-464.7 248.5,-441.7 137.5,-441.7"/>
<polygon fill="none" stroke="#000000" points="137.5,-441.7 137.5,-464.7 248.5,-464.7 248.5,-441.7 137.5,-441.7"/>
<text text-anchor="start" x="142.5" y="-450.3" font-family="Helvetica,sans-Serif" font-weight="bold" font-size="11.00" fill="#000000">cds_trades</text>
<text text-anchor="start" x="214.0219" y="-449.8" font-family="Helvetica,sans-Serif" font-size="11.00" fill="#000000">[table]</text>
<polygon fill="none" stroke="#000000" points="137.5,-422.7 137.5,-441.7 248.5,-441.7 248.5,-422.7 137.5,-422.7"/>
<text text-anchor="start" x="140.5" y="-428.8" font-family="Helvetica,sans-Serif" font-size="11.00" fill="#000000">...</text>
<polygon fill="#ffffff" stroke="transparent" points="137.5,-403.7 137.5,-422.7 183.5,-422.7 183.5,-403.7 137.5,-403.7"/>
<polygon fill="none" stroke="#000000" points="137.5,-403.7 137.5,-422.7 183.5,-422.7 183.5,-403.7 137.5,-403.7"/>
<text text-anchor="start" x="140.5" y="-409.8" font-family="Helvetica,sans-Serif" font-size="11.00" fill="#000000">&lt; 2</text>
<polygon fill="#ffffff" stroke="transparent" points="183.5,-403.7 183.5,-422.7 208.5,-422.7 208.5,-403.7 183.5,-403.7"/>
<polygon fill="none" stroke="#000000" points="183.5,-403.7 183.5,-422.7 208.5,-422.7 208.5,-403.7 183.5,-403.7"/>
<text text-anchor="start" x="199.3862" y="-409.8" font-family="Helvetica,sans-Serif" font-size="11.00" fill="#000000"> &#160;</text>
<polygon fill="#ffffff" stroke="transparent" points="208.5,-403.7 208.5,-422.7 248.5,-422.7 248.5,-403.7 208.5,-403.7"/>
<polygon fill="none" stroke="#000000" points="208.5,-403.7 208.5,-422.7 248.5,-422.7 248.5,-403.7 208.5,-403.7"/>
<text text-anchor="start" x="223.7904" y="-409.8" font-family="Helvetica,sans-Serif" font-size="11.00" fill="#000000">13 &gt;</text>
</a>
</g>
</g>
<!-- accrual_events&#45;&gt;cds_trades -->
<g id="edge2" class="edge">
<title>accrual_events:w&#45;&gt;cds_trades:e</title>
<path fill="none" stroke="#000000" d="M592.4935,-863.821C458.2498,-866.0361 390.4624,-896.8138 289,-801.7 240.2146,-755.9672 208.1207,-551.9944 196.9228,-469.4971"/>
<polygon fill="#000000" stroke="#000000" points="599.0003,-863.7668 607.0301,-867.2999 603.0001,-863.7334 607,-863.7 607,-863.7 607,-863.7 603.0001,-863.7334 606.9699,-860.1001 599.0003,-863.7668 599.0003,-863.7668"/>
<ellipse fill="none" stroke="#000000" cx="595.8004" cy="-863.7935" rx="3.2" ry="3.2"/>
</g>
<!-- coupon_periods&#45;&gt;cds_trades -->
<g id="edge11" class="edge">
<title>coupon_periods:w&#45;&gt;cds_trades:e</title>
<path fill="none" stroke="#000000" d="M352.2753,-717.2358C330.264,-699.4067 306.5614,-677.3882 289,-653.7 245.8218,-595.4578 216.6705,-514.8612 202.4855,-469.4469"/>
<polygon fill="#000000" stroke="#000000" points="357.3098,-721.2084 361.36,-728.9902 360.4499,-723.6862 363.59,-726.164 363.59,-726.164 363.59,-726.164 360.4499,-723.6862 365.8201,-723.3379 357.3098,-721.2084 357.3098,-721.2084"/>
<ellipse fill="none" stroke="#000000" cx="354.7976" cy="-719.2262" rx="3.2" ry="3.2"/>
</g>
<!-- bonds -->
<g id="node8" class="node">
<title>bonds</title>
<g id="a_node8"><a xlink:href="../../tables/bonds.html" xlink:title="bonds" target="_top">
<polygon fill="#ffffff" stroke="transparent" points="8,-407.2 8,-468.2 88,-468.2 88,-407.2 8,-407.2"/>
<polygon fill="#f5f5f5" stroke="transparent" points="8,-444.7 8,-467.7 88,-467.7 88,-444.7 8,-444.7"/>
<polygon fill="none" stroke="#000000" points="8,-444.7 8,-467.7 88,-467.7 88,-444.7 8,-444.7"/>
<text text-anchor="start" x="13" y="-453.3" font-family="Helvetica,sans-Serif" font-weight="bold" font-size="11.00" fill="#000000">bonds</text>
<text text-anchor="start" x="53.5219" y="-452.8" font-family="Helvetica,sans-Serif" font-size="11.00" fill="#000000">[table]</text>
<polygon fill="none" stroke="#000000" points="8,-425.7 8,-444.7 88,-444.7 88,-425.7 8,-425.7"/>
<text text-anchor="start" x="11" y="-431.8" font-family="Helvetica,sans-Serif" font-size="11.00" fill="#000000">...</text>
<polygon fill="#ffffff" stroke="transparent" points="8,-406.7 8,-425.7 37,-425.7 37,-406.7 8,-406.7"/>
<polygon fill="none" stroke="#000000" points="8,-406.7 8,-425.7 37,-425.7 37,-406.7 8,-406.7"/>
<text text-anchor="start" x="11" y="-412.8" font-family="Helvetica,sans-Serif" font-size="11.00" fill="#000000"> &#160;</text>
<polygon fill="#ffffff" stroke="transparent" points="37,-406.7 37,-425.7 58,-425.7 58,-406.7 37,-406.7"/>
<polygon fill="none" stroke="#000000" points="37,-406.7 37,-425.7 58,-425.7 58,-406.7 37,-406.7"/>
<text text-anchor="start" x="48.8862" y="-412.8" font-family="Helvetica,sans-Serif" font-size="11.00" fill="#000000"> &#160;</text>
<polygon fill="#ffffff" stroke="transparent" points="58,-406.7 58,-425.7 88,-425.7 88,-406.7 58,-406.7"/>
<polygon fill="none" stroke="#000000" points="58,-406.7 58,-425.7 88,-425.7 88,-406.7 58,-406.7"/>
<text text-anchor="start" x="69.4053" y="-412.8" font-family="Helvetica,sans-Serif" font-size="11.00" fill="#000000">2 &gt;</text>
</a>
</g>
</g>
<!-- cds_trades&#45;&gt;bonds -->
<g id="edge9" class="edge">
<title>cds_trades:w&#45;&gt;bonds:e</title>
<path fill="none" stroke="#000000" d="M114.5141,-434.7C105.5727,-434.7 96.5879,-434.7 88,-434.7"/>
<polygon fill="#000000" stroke="#000000" points="120.9488,-434.7001 128.9489,-438.3 124.9488,-434.7 128.9488,-434.7 128.9488,-434.7 128.9488,-434.7 124.9488,-434.7 128.9488,-431.1 120.9488,-434.7001 120.9488,-434.7001"/>
<ellipse fill="none" stroke="#000000" cx="117.7488" cy="-434.7001" rx="3.2" ry="3.2"/>
</g>
<!-- cds_cash_settlements -->
<g id="node4" class="node">
<title>cds_cash_settlements</title>
<g id="a_node4"><a xlink:href="../../tables/cds_cash_settlements.html" xlink:title="cds_cash_settlements" target="_top">
<polygon fill="#ffffff" stroke="transparent" points="631.5,-573.2 631.5,-634.2 816.5,-634.2 816.5,-573.2 631.5,-573.2"/>
<polygon fill="#f5f5f5" stroke="transparent" points="632,-610.7 632,-633.7 817,-633.7 817,-610.7 632,-610.7"/>
<polygon fill="none" stroke="#000000" points="632,-610.7 632,-633.7 817,-633.7 817,-610.7 632,-610.7"/>
<text text-anchor="start" x="637" y="-619.3" font-family="Helvetica,sans-Serif" font-weight="bold" font-size="11.00" fill="#000000">cds_cash_settlements</text>
<text text-anchor="start" x="782.5219" y="-618.8" font-family="Helvetica,sans-Serif" font-size="11.00" fill="#000000">[table]</text>
<polygon fill="none" stroke="#000000" points="632,-591.7 632,-610.7 817,-610.7 817,-591.7 632,-591.7"/>
<text text-anchor="start" x="635" y="-597.8" font-family="Helvetica,sans-Serif" font-size="11.00" fill="#000000">...</text>
<polygon fill="#ffffff" stroke="transparent" points="632,-572.7 632,-591.7 723,-591.7 723,-572.7 632,-572.7"/>
<polygon fill="none" stroke="#000000" points="632,-572.7 632,-591.7 723,-591.7 723,-572.7 632,-572.7"/>
<text text-anchor="start" x="635" y="-578.8" font-family="Helvetica,sans-Serif" font-size="11.00" fill="#000000">&lt; 2</text>
<polygon fill="#ffffff" stroke="transparent" points="723,-572.7 723,-591.7 770,-591.7 770,-572.7 723,-572.7"/>
<polygon fill="none" stroke="#000000" points="723,-572.7 723,-591.7 770,-591.7 770,-572.7 723,-572.7"/>
<text text-anchor="start" x="760.8862" y="-578.8" font-family="Helvetica,sans-Serif" font-size="11.00" fill="#000000"> &#160;</text>
<polygon fill="#ffffff" stroke="transparent" points="770,-572.7 770,-591.7 817,-591.7 817,-572.7 770,-572.7"/>
<polygon fill="none" stroke="#000000" points="770,-572.7 770,-591.7 817,-591.7 817,-572.7 770,-572.7"/>
<text text-anchor="start" x="807.8862" y="-578.8" font-family="Helvetica,sans-Serif" font-size="11.00" fill="#000000"> &#160;</text>
</a>
</g>
</g>
<!-- cds_cash_settlements&#45;&gt;cds_trades -->
<g id="edge4" class="edge">
<title>cds_cash_settlements:w&#45;&gt;cds_trades:e</title>
<path fill="none" stroke="#000000" d="M617.601,-601.6208C586.0419,-605.9109 575.9971,-623.9719 538,-629.7 428.5698,-646.1966 383.0189,-688.0743 289,-629.7 232.3602,-594.5336 207.9505,-515.1659 198.2521,-469.2626"/>
<polygon fill="#000000" stroke="#000000" points="624.0163,-601.2106 632.2298,-604.2927 628.0082,-600.9553 632,-600.7 632,-600.7 632,-600.7 628.0082,-600.9553 631.7702,-597.1073 624.0163,-601.2106 624.0163,-601.2106"/>
<ellipse fill="none" stroke="#000000" cx="620.8228" cy="-601.4148" rx="3.2" ry="3.2"/>
</g>
<!-- cds_credit_events -->
<g id="node5" class="node">
<title>cds_credit_events</title>
<g id="a_node5"><a xlink:href="../../tables/cds_credit_events.html" xlink:title="cds_credit_events" target="_top">
<polygon fill="#ffffff" stroke="transparent" points="334.5,-558.2 334.5,-619.2 492.5,-619.2 492.5,-558.2 334.5,-558.2"/>
<polygon fill="#f5f5f5" stroke="transparent" points="334.5,-595.7 334.5,-618.7 492.5,-618.7 492.5,-595.7 334.5,-595.7"/>
<polygon fill="none" stroke="#000000" points="334.5,-595.7 334.5,-618.7 492.5,-618.7 492.5,-595.7 334.5,-595.7"/>
<text text-anchor="start" x="339.5" y="-604.3" font-family="Helvetica,sans-Serif" font-weight="bold" font-size="11.00" fill="#000000">cds_credit_events</text>
<text text-anchor="start" x="458.0219" y="-603.8" font-family="Helvetica,sans-Serif" font-size="11.00" fill="#000000">[table]</text>
<polygon fill="none" stroke="#000000" points="334.5,-576.7 334.5,-595.7 492.5,-595.7 492.5,-576.7 334.5,-576.7"/>
<text text-anchor="start" x="337.5" y="-582.8" font-family="Helvetica,sans-Serif" font-size="11.00" fill="#000000">...</text>
<polygon fill="#ffffff" stroke="transparent" points="334.5,-557.7 334.5,-576.7 407.5,-576.7 407.5,-557.7 334.5,-557.7"/>
<polygon fill="none" stroke="#000000" points="334.5,-557.7 334.5,-576.7 407.5,-576.7 407.5,-557.7 334.5,-557.7"/>
<text text-anchor="start" x="337.5" y="-563.8" font-family="Helvetica,sans-Serif" font-size="11.00" fill="#000000">&lt; 1</text>
<polygon fill="#ffffff" stroke="transparent" points="407.5,-557.7 407.5,-576.7 445.5,-576.7 445.5,-557.7 407.5,-557.7"/>
<polygon fill="none" stroke="#000000" points="407.5,-557.7 407.5,-576.7 445.5,-576.7 445.5,-557.7 407.5,-557.7"/>
<text text-anchor="start" x="436.3862" y="-563.8" font-family="Helvetica,sans-Serif" font-size="11.00" fill="#000000"> &#160;</text>
<polygon fill="#ffffff" stroke="transparent" points="445.5,-557.7 445.5,-576.7 492.5,-576.7 492.5,-557.7 445.5,-557.7"/>
<polygon fill="none" stroke="#000000" points="445.5,-557.7 445.5,-576.7 492.5,-576.7 492.5,-557.7 445.5,-557.7"/>
<text text-anchor="start" x="473.9053" y="-563.8" font-family="Helvetica,sans-Serif" font-size="11.00" fill="#000000">2 &gt;</text>
</a>
</g>
</g>
<!-- cds_cash_settlements&#45;&gt;cds_credit_events -->
<g id="edge3" class="edge">
<title>cds_cash_settlements:w&#45;&gt;cds_credit_events:e</title>
<path fill="none" stroke="#000000" d="M621.5096,-600.5515C567.7466,-598.9937 551.2036,-585.7 492.5,-585.7"/>
<polygon fill="#000000" stroke="#000000" points="631.2567,-596.6891 631.1434,-604.6883 629.5436,-604.6656 629.6569,-596.6664 631.2567,-596.6891"/>
<polyline fill="none" stroke="#000000" points="632,-600.7 628.0004,-600.6434 "/>
<ellipse fill="none" stroke="#000000" cx="624.8007" cy="-600.598" rx="3.2" ry="3.2"/>
</g>
<!-- cds_credit_events&#45;&gt;cds_trades -->
<g id="edge5" class="edge">
<title>cds_credit_events:w&#45;&gt;cds_trades:e</title>
<path fill="none" stroke="#000000" d="M319.9825,-584.4329C264.336,-574.6508 225.9229,-510.44 206.7015,-469.3425"/>
<polygon fill="#000000" stroke="#000000" points="326.5303,-585.0044 334.187,-589.2864 330.5151,-585.3522 334.5,-585.7 334.5,-585.7 334.5,-585.7 330.5151,-585.3522 334.813,-582.1136 326.5303,-585.0044 326.5303,-585.0044"/>
<ellipse fill="none" stroke="#000000" cx="323.3424" cy="-584.7261" rx="3.2" ry="3.2"/>
</g>
<!-- cds_physical_settlement_instructions -->
<g id="node6" class="node">
<title>cds_physical_settlement_instructions</title>
<g id="a_node6"><a xlink:href="../../tables/cds_physical_settlement_instructions.html" xlink:title="cds_physical_settlement_instructions" target="_top">
<polygon fill="#ffffff" stroke="transparent" points="579,-491.2 579,-552.2 869,-552.2 869,-491.2 579,-491.2"/>
<polygon fill="#f5f5f5" stroke="transparent" points="579,-528.7 579,-551.7 869,-551.7 869,-528.7 579,-528.7"/>
<polygon fill="none" stroke="#000000" points="579,-528.7 579,-551.7 869,-551.7 869,-528.7 579,-528.7"/>
<text text-anchor="start" x="584" y="-537.3" font-family="Helvetica,sans-Serif" font-weight="bold" font-size="11.00" fill="#000000">cds_physical_settlement_instructions</text>
<text text-anchor="start" x="834.5219" y="-536.8" font-family="Helvetica,sans-Serif" font-size="11.00" fill="#000000">[table]</text>
<polygon fill="none" stroke="#000000" points="579,-509.7 579,-528.7 869,-528.7 869,-509.7 579,-509.7"/>
<text text-anchor="start" x="582" y="-515.8" font-family="Helvetica,sans-Serif" font-size="11.00" fill="#000000">...</text>
<polygon fill="#ffffff" stroke="transparent" points="579,-490.7 579,-509.7 722,-509.7 722,-490.7 579,-490.7"/>
<polygon fill="none" stroke="#000000" points="579,-490.7 579,-509.7 722,-509.7 722,-490.7 579,-490.7"/>
<text text-anchor="start" x="582" y="-496.8" font-family="Helvetica,sans-Serif" font-size="11.00" fill="#000000">&lt; 2</text>
<polygon fill="#ffffff" stroke="transparent" points="722,-490.7 722,-509.7 795,-509.7 795,-490.7 722,-490.7"/>
<polygon fill="none" stroke="#000000" points="722,-490.7 722,-509.7 795,-509.7 795,-490.7 722,-490.7"/>
<text text-anchor="start" x="785.8862" y="-496.8" font-family="Helvetica,sans-Serif" font-size="11.00" fill="#000000"> &#160;</text>
<polygon fill="#ffffff" stroke="transparent" points="795,-490.7 795,-509.7 869,-509.7 869,-490.7 795,-490.7"/>
<polygon fill="none" stroke="#000000" points="795,-490.7 795,-509.7 869,-509.7 869,-490.7 795,-490.7"/>
<text text-anchor="start" x="859.8862" y="-496.8" font-family="Helvetica,sans-Serif" font-size="11.00" fill="#000000"> &#160;</text>
</a>
</g>
</g>
<!-- cds_physical_settlement_instructions&#45;&gt;cds_trades -->
<g id="edge7" class="edge">
<title>cds_physical_settlement_instructions:w&#45;&gt;cds_trades:e</title>
<path fill="none" stroke="#000000" d="M564.2902,-518.9047C446.8217,-522.1949 404.8691,-563.4538 289,-519.7 262.2654,-509.6046 238.1404,-488.3546 220.6991,-469.6285"/>
<polygon fill="#000000" stroke="#000000" points="571.0008,-518.8114 579.0501,-522.2997 575.0004,-518.7557 579,-518.7 579,-518.7 579,-518.7 575.0004,-518.7557 578.9499,-515.1003 571.0008,-518.8114 571.0008,-518.8114"/>
<ellipse fill="none" stroke="#000000" cx="567.8011" cy="-518.856" rx="3.2" ry="3.2"/>
</g>
<!-- cds_physical_settlement_instructions&#45;&gt;cds_credit_events -->
<g id="edge6" class="edge">
<title>cds_physical_settlement_instructions:w&#45;&gt;cds_credit_events:e</title>
<path fill="none" stroke="#000000" d="M568.6335,-519.8629C531.6901,-528.7598 537.329,-585.7 492.5,-585.7"/>
<polygon fill="#000000" stroke="#000000" points="577.759,-514.8141 578.6509,-522.7643 577.0609,-522.9426 576.169,-514.9925 577.759,-514.8141"/>
<polyline fill="none" stroke="#000000" points="579,-518.7 575.0249,-519.146 "/>
<ellipse fill="none" stroke="#000000" cx="571.8449" cy="-519.5027" rx="3.2" ry="3.2"/>
</g>
<!-- cds_portfolio_constituents -->
<g id="node7" class="node">
<title>cds_portfolio_constituents</title>
<g id="a_node7"><a xlink:href="../../tables/cds_portfolio_constituents.html" xlink:title="cds_portfolio_constituents" target="_top">
<polygon fill="#ffffff" stroke="transparent" points="305,-448.2 305,-509.2 522,-509.2 522,-448.2 305,-448.2"/>
<polygon fill="#f5f5f5" stroke="transparent" points="305.5,-485.7 305.5,-508.7 522.5,-508.7 522.5,-485.7 305.5,-485.7"/>
<polygon fill="none" stroke="#000000" points="305.5,-485.7 305.5,-508.7 522.5,-508.7 522.5,-485.7 305.5,-485.7"/>
<text text-anchor="start" x="310.5" y="-494.3" font-family="Helvetica,sans-Serif" font-weight="bold" font-size="11.00" fill="#000000">cds_portfolio_constituents</text>
<text text-anchor="start" x="488.0219" y="-493.8" font-family="Helvetica,sans-Serif" font-size="11.00" fill="#000000">[table]</text>
<polygon fill="none" stroke="#000000" points="305.5,-466.7 305.5,-485.7 522.5,-485.7 522.5,-466.7 305.5,-466.7"/>
<text text-anchor="start" x="308.5" y="-472.8" font-family="Helvetica,sans-Serif" font-size="11.00" fill="#000000">...</text>
<polygon fill="#ffffff" stroke="transparent" points="305.5,-447.7 305.5,-466.7 412.5,-466.7 412.5,-447.7 305.5,-447.7"/>
<polygon fill="none" stroke="#000000" points="305.5,-447.7 305.5,-466.7 412.5,-466.7 412.5,-447.7 305.5,-447.7"/>
<text text-anchor="start" x="308.5" y="-453.8" font-family="Helvetica,sans-Serif" font-size="11.00" fill="#000000">&lt; 2</text>
<polygon fill="#ffffff" stroke="transparent" points="412.5,-447.7 412.5,-466.7 467.5,-466.7 467.5,-447.7 412.5,-447.7"/>
<polygon fill="none" stroke="#000000" points="412.5,-447.7 412.5,-466.7 467.5,-466.7 467.5,-447.7 412.5,-447.7"/>
<text text-anchor="start" x="458.3862" y="-453.8" font-family="Helvetica,sans-Serif" font-size="11.00" fill="#000000"> &#160;</text>
<polygon fill="#ffffff" stroke="transparent" points="467.5,-447.7 467.5,-466.7 522.5,-466.7 522.5,-447.7 467.5,-447.7"/>
<polygon fill="none" stroke="#000000" points="467.5,-447.7 467.5,-466.7 522.5,-466.7 522.5,-447.7 467.5,-447.7"/>
<text text-anchor="start" x="513.3862" y="-453.8" font-family="Helvetica,sans-Serif" font-size="11.00" fill="#000000"> &#160;</text>
</a>
</g>
</g>
<!-- cds_portfolio_constituents&#45;&gt;cds_trades -->
<g id="edge8" class="edge">
<title>cds_portfolio_constituents:w&#45;&gt;cds_trades:e</title>
<path fill="none" stroke="#000000" d="M291.1027,-474.7795C279.2556,-473.3179 267.3948,-470.2349 256.2143,-466.3965"/>
<polygon fill="#000000" stroke="#000000" points="297.5163,-475.1895 305.2703,-479.2927 301.5082,-475.4447 305.5,-475.7 305.5,-475.7 305.5,-475.7 301.5082,-475.4447 305.7297,-472.1073 297.5163,-475.1895 297.5163,-475.1895"/>
<ellipse fill="none" stroke="#000000" cx="294.3228" cy="-474.9853" rx="3.2" ry="3.2"/>
</g>
<!-- compression_proposal_items -->
<g id="node9" class="node">
<title>compression_proposal_items</title>
<g id="a_node9"><a xlink:href="../../tables/compression_proposal_items.html" xlink:title="compression_proposal_items" target="_top">
<polygon fill="#ffffff" stroke="transparent" points="297,-366.2 297,-427.2 530,-427.2 530,-366.2 297,-366.2"/>
<polygon fill="#f5f5f5" stroke="transparent" points="297.5,-403.7 297.5,-426.7 530.5,-426.7 530.5,-403.7 297.5,-403.7"/>
<polygon fill="none" stroke="#000000" points="297.5,-403.7 297.5,-426.7 530.5,-426.7 530.5,-403.7 297.5,-403.7"/>
<text text-anchor="start" x="302.5" y="-412.3" font-family="Helvetica,sans-Serif" font-weight="bold" font-size="11.00" fill="#000000">compression_proposal_items</text>
<text text-anchor="start" x="496.0219" y="-411.8" font-family="Helvetica,sans-Serif" font-size="11.00" fill="#000000">[table]</text>
<polygon fill="none" stroke="#000000" points="297.5,-384.7 297.5,-403.7 530.5,-403.7 530.5,-384.7 297.5,-384.7"/>
<text text-anchor="start" x="300.5" y="-390.8" font-family="Helvetica,sans-Serif" font-size="11.00" fill="#000000">...</text>
<polygon fill="#ffffff" stroke="transparent" points="297.5,-365.7 297.5,-384.7 412.5,-384.7 412.5,-365.7 297.5,-365.7"/>
<polygon fill="none" stroke="#000000" points="297.5,-365.7 297.5,-384.7 412.5,-384.7 412.5,-365.7 297.5,-365.7"/>
<text text-anchor="start" x="300.5" y="-371.8" font-family="Helvetica,sans-Serif" font-size="11.00" fill="#000000">&lt; 2</text>
<polygon fill="#ffffff" stroke="transparent" points="412.5,-365.7 412.5,-384.7 471.5,-384.7 471.5,-365.7 412.5,-365.7"/>
<polygon fill="none" stroke="#000000" points="412.5,-365.7 412.5,-384.7 471.5,-384.7 471.5,-365.7 412.5,-365.7"/>
<text text-anchor="start" x="462.3862" y="-371.8" font-family="Helvetica,sans-Serif" font-size="11.00" fill="#000000"> &#160;</text>
<polygon fill="#ffffff" stroke="transparent" points="471.5,-365.7 471.5,-384.7 530.5,-384.7 530.5,-365.7 471.5,-365.7"/>
<polygon fill="none" stroke="#000000" points="471.5,-365.7 471.5,-384.7 530.5,-384.7 530.5,-365.7 471.5,-365.7"/>
<text text-anchor="start" x="521.3862" y="-371.8" font-family="Helvetica,sans-Serif" font-size="11.00" fill="#000000"> &#160;</text>
</a>
</g>
</g>
<!-- compression_proposal_items&#45;&gt;cds_trades -->
<g id="edge10" class="edge">
<title>compression_proposal_items:w&#45;&gt;cds_trades:e</title>
<path fill="none" stroke="#000000" d="M282.868,-394.7785C273.8557,-396.059 264.8744,-398.3937 256.2644,-401.3157"/>
<polygon fill="#000000" stroke="#000000" points="289.5216,-394.2881 297.7647,-397.2903 293.5108,-393.9941 297.5,-393.7 297.5,-393.7 297.5,-393.7 293.5108,-393.9941 297.2353,-390.1097 289.5216,-394.2881 289.5216,-394.2881"/>
<ellipse fill="none" stroke="#000000" cx="286.3303" cy="-394.5234" rx="3.2" ry="3.2"/>
</g>
<!-- notional_adjustments -->
<g id="node10" class="node">
<title>notional_adjustments</title>
<g id="a_node10"><a xlink:href="../../tables/notional_adjustments.html" xlink:title="notional_adjustments" target="_top">
<polygon fill="#ffffff" stroke="transparent" points="321.5,-284.2 321.5,-345.2 505.5,-345.2 505.5,-284.2 321.5,-284.2"/>
<polygon fill="#f5f5f5" stroke="transparent" points="321.5,-321.7 321.5,-344.7 505.5,-344.7 505.5,-321.7 321.5,-321.7"/>
<polygon fill="none" stroke="#000000" points="321.5,-321.7 321.5,-344.7 505.5,-344.7 505.5,-321.7 321.5,-321.7"/>
<text text-anchor="start" x="326.5" y="-330.3" font-family="Helvetica,sans-Serif" font-weight="bold" font-size="11.00" fill="#000000">notional_adjustments</text>
<text text-anchor="start" x="471.0219" y="-329.8" font-family="Helvetica,sans-Serif" font-size="11.00" fill="#000000">[table]</text>
<polygon fill="none" stroke="#000000" points="321.5,-302.7 321.5,-321.7 505.5,-321.7 505.5,-302.7 321.5,-302.7"/>
<text text-anchor="start" x="324.5" y="-308.8" font-family="Helvetica,sans-Serif" font-size="11.00" fill="#000000">...</text>
<polygon fill="#ffffff" stroke="transparent" points="321.5,-283.7 321.5,-302.7 411.5,-302.7 411.5,-283.7 321.5,-283.7"/>
<polygon fill="none" stroke="#000000" points="321.5,-283.7 321.5,-302.7 411.5,-302.7 411.5,-283.7 321.5,-283.7"/>
<text text-anchor="start" x="324.5" y="-289.8" font-family="Helvetica,sans-Serif" font-size="11.00" fill="#000000">&lt; 1</text>
<polygon fill="#ffffff" stroke="transparent" points="411.5,-283.7 411.5,-302.7 458.5,-302.7 458.5,-283.7 411.5,-283.7"/>
<polygon fill="none" stroke="#000000" points="411.5,-283.7 411.5,-302.7 458.5,-302.7 458.5,-283.7 411.5,-283.7"/>
<text text-anchor="start" x="449.3862" y="-289.8" font-family="Helvetica,sans-Serif" font-size="11.00" fill="#000000"> &#160;</text>
<polygon fill="#ffffff" stroke="transparent" points="458.5,-283.7 458.5,-302.7 505.5,-302.7 505.5,-283.7 458.5,-283.7"/>
<polygon fill="none" stroke="#000000" points="458.5,-283.7 458.5,-302.7 505.5,-302.7 505.5,-283.7 458.5,-283.7"/>
<text text-anchor="start" x="496.3862" y="-289.8" font-family="Helvetica,sans-Serif" font-size="11.00" fill="#000000"> &#160;</text>
</a>
</g>
</g>
<!-- notional_adjustments&#45;&gt;cds_trades -->
<g id="edge12" class="edge">
<title>notional_adjustments:w&#45;&gt;cds_trades:e</title>
<path fill="none" stroke="#000000" d="M307.0543,-313.0703C262.664,-321.5155 228.8944,-367.2117 209.8846,-400.1103"/>
<polygon fill="#000000" stroke="#000000" points="313.5358,-312.4555 321.84,-315.2839 317.5179,-312.0778 321.5,-311.7 321.5,-311.7 321.5,-311.7 317.5179,-312.0778 321.16,-308.1161 313.5358,-312.4555 313.5358,-312.4555"/>
<ellipse fill="none" stroke="#000000" cx="310.3501" cy="-312.7578" rx="3.2" ry="3.2"/>
</g>
<!-- sa_ccr_trade_mappings -->
<g id="node11" class="node">
<title>sa_ccr_trade_mappings</title>
<g id="a_node11"><a xlink:href="../../tables/sa_ccr_trade_mappings.html" xlink:title="sa_ccr_trade_mappings" target="_top">
<polygon fill="#ffffff" stroke="transparent" points="316,-202.2 316,-263.2 511,-263.2 511,-202.2 316,-202.2"/>
<polygon fill="#f5f5f5" stroke="transparent" points="316.5,-239.7 316.5,-262.7 511.5,-262.7 511.5,-239.7 316.5,-239.7"/>
<polygon fill="none" stroke="#000000" points="316.5,-239.7 316.5,-262.7 511.5,-262.7 511.5,-239.7 316.5,-239.7"/>
<text text-anchor="start" x="321.5" y="-248.3" font-family="Helvetica,sans-Serif" font-weight="bold" font-size="11.00" fill="#000000">sa_ccr_trade_mappings</text>
<text text-anchor="start" x="477.0219" y="-247.8" font-family="Helvetica,sans-Serif" font-size="11.00" fill="#000000">[table]</text>
<polygon fill="none" stroke="#000000" points="316.5,-220.7 316.5,-239.7 511.5,-239.7 511.5,-220.7 316.5,-220.7"/>
<text text-anchor="start" x="319.5" y="-226.8" font-family="Helvetica,sans-Serif" font-size="11.00" fill="#000000">...</text>
<polygon fill="#ffffff" stroke="transparent" points="316.5,-201.7 316.5,-220.7 412.5,-220.7 412.5,-201.7 316.5,-201.7"/>
<polygon fill="none" stroke="#000000" points="316.5,-201.7 316.5,-220.7 412.5,-220.7 412.5,-201.7 316.5,-201.7"/>
<text text-anchor="start" x="319.5" y="-207.8" font-family="Helvetica,sans-Serif" font-size="11.00" fill="#000000">&lt; 3</text>
<polygon fill="#ffffff" stroke="transparent" points="412.5,-201.7 412.5,-220.7 461.5,-220.7 461.5,-201.7 412.5,-201.7"/>
<polygon fill="none" stroke="#000000" points="412.5,-201.7 412.5,-220.7 461.5,-220.7 461.5,-201.7 412.5,-201.7"/>
<text text-anchor="start" x="452.3862" y="-207.8" font-family="Helvetica,sans-Serif" font-size="11.00" fill="#000000"> &#160;</text>
<polygon fill="#ffffff" stroke="transparent" points="461.5,-201.7 461.5,-220.7 511.5,-220.7 511.5,-201.7 461.5,-201.7"/>
<polygon fill="none" stroke="#000000" points="461.5,-201.7 461.5,-220.7 511.5,-220.7 511.5,-201.7 461.5,-201.7"/>
<text text-anchor="start" x="502.3862" y="-207.8" font-family="Helvetica,sans-Serif" font-size="11.00" fill="#000000"> &#160;</text>
</a>
</g>
</g>
<!-- sa_ccr_trade_mappings&#45;&gt;cds_trades -->
<g id="edge13" class="edge">
<title>sa_ccr_trade_mappings:w&#45;&gt;cds_trades:e</title>
<path fill="none" stroke="#000000" d="M301.8959,-231.0484C234.0851,-243.8824 207.094,-345.2068 197.3805,-399.9245"/>
<polygon fill="#000000" stroke="#000000" points="308.5339,-230.4355 316.831,-233.2848 312.5169,-230.0678 316.5,-229.7 316.5,-229.7 316.5,-229.7 312.5169,-230.0678 316.169,-226.1152 308.5339,-230.4355 308.5339,-230.4355"/>
<ellipse fill="none" stroke="#000000" cx="305.3474" cy="-230.7298" rx="3.2" ry="3.2"/>
</g>
<!-- trade_amendments -->
<g id="node12" class="node">
<title>trade_amendments</title>
<g id="a_node12"><a xlink:href="../../tables/trade_amendments.html" xlink:title="trade_amendments" target="_top">
<polygon fill="#ffffff" stroke="transparent" points="329,-120.2 329,-181.2 498,-181.2 498,-120.2 329,-120.2"/>
<polygon fill="#f5f5f5" stroke="transparent" points="329.5,-157.7 329.5,-180.7 498.5,-180.7 498.5,-157.7 329.5,-157.7"/>
<polygon fill="none" stroke="#000000" points="329.5,-157.7 329.5,-180.7 498.5,-180.7 498.5,-157.7 329.5,-157.7"/>
<text text-anchor="start" x="334.5" y="-166.3" font-family="Helvetica,sans-Serif" font-weight="bold" font-size="11.00" fill="#000000">trade_amendments</text>
<text text-anchor="start" x="464.0219" y="-165.8" font-family="Helvetica,sans-Serif" font-size="11.00" fill="#000000">[table]</text>
<polygon fill="none" stroke="#000000" points="329.5,-138.7 329.5,-157.7 498.5,-157.7 498.5,-138.7 329.5,-138.7"/>
<text text-anchor="start" x="332.5" y="-144.8" font-family="Helvetica,sans-Serif" font-size="11.00" fill="#000000">...</text>
<polygon fill="#ffffff" stroke="transparent" points="329.5,-119.7 329.5,-138.7 412.5,-138.7 412.5,-119.7 329.5,-119.7"/>
<polygon fill="none" stroke="#000000" points="329.5,-119.7 329.5,-138.7 412.5,-138.7 412.5,-119.7 329.5,-119.7"/>
<text text-anchor="start" x="332.5" y="-125.8" font-family="Helvetica,sans-Serif" font-size="11.00" fill="#000000">&lt; 1</text>
<polygon fill="#ffffff" stroke="transparent" points="412.5,-119.7 412.5,-138.7 455.5,-138.7 455.5,-119.7 412.5,-119.7"/>
<polygon fill="none" stroke="#000000" points="412.5,-119.7 412.5,-138.7 455.5,-138.7 455.5,-119.7 412.5,-119.7"/>
<text text-anchor="start" x="446.3862" y="-125.8" font-family="Helvetica,sans-Serif" font-size="11.00" fill="#000000"> &#160;</text>
<polygon fill="#ffffff" stroke="transparent" points="455.5,-119.7 455.5,-138.7 498.5,-138.7 498.5,-119.7 455.5,-119.7"/>
<polygon fill="none" stroke="#000000" points="455.5,-119.7 455.5,-138.7 498.5,-138.7 498.5,-119.7 455.5,-119.7"/>
<text text-anchor="start" x="489.3862" y="-125.8" font-family="Helvetica,sans-Serif" font-size="11.00" fill="#000000"> &#160;</text>
</a>
</g>
</g>
<!-- trade_amendments&#45;&gt;cds_trades -->
<g id="edge14" class="edge">
<title>trade_amendments:w&#45;&gt;cds_trades:e</title>
<path fill="none" stroke="#000000" d="M315.308,-151.4255C265.334,-177.2218 219.7241,-330.3077 201.2209,-400.0811"/>
<polygon fill="#000000" stroke="#000000" points="321.7622,-149.7312 330.4141,-151.182 325.6311,-148.7156 329.5,-147.7 329.5,-147.7 329.5,-147.7 325.6311,-148.7156 328.5859,-144.218 321.7622,-149.7312 321.7622,-149.7312"/>
<ellipse fill="none" stroke="#000000" cx="318.667" cy="-150.5437" rx="3.2" ry="3.2"/>
</g>
<!-- trade_novations -->
<g id="node13" class="node">
<title>trade_novations</title>
<g id="a_node13"><a xlink:href="../../tables/trade_novations.html" xlink:title="trade_novations" target="_top">
<polygon fill="#ffffff" stroke="transparent" points="340,-38.2 340,-99.2 487,-99.2 487,-38.2 340,-38.2"/>
<polygon fill="#f5f5f5" stroke="transparent" points="340.5,-75.7 340.5,-98.7 487.5,-98.7 487.5,-75.7 340.5,-75.7"/>
<polygon fill="none" stroke="#000000" points="340.5,-75.7 340.5,-98.7 487.5,-98.7 487.5,-75.7 340.5,-75.7"/>
<text text-anchor="start" x="345.5" y="-84.3" font-family="Helvetica,sans-Serif" font-weight="bold" font-size="11.00" fill="#000000">trade_novations</text>
<text text-anchor="start" x="453.0219" y="-83.8" font-family="Helvetica,sans-Serif" font-size="11.00" fill="#000000">[table]</text>
<polygon fill="none" stroke="#000000" points="340.5,-56.7 340.5,-75.7 487.5,-75.7 487.5,-56.7 340.5,-56.7"/>
<text text-anchor="start" x="343.5" y="-62.8" font-family="Helvetica,sans-Serif" font-size="11.00" fill="#000000">...</text>
<polygon fill="#ffffff" stroke="transparent" points="340.5,-37.7 340.5,-56.7 412.5,-56.7 412.5,-37.7 340.5,-37.7"/>
<polygon fill="none" stroke="#000000" points="340.5,-37.7 340.5,-56.7 412.5,-56.7 412.5,-37.7 340.5,-37.7"/>
<text text-anchor="start" x="343.5" y="-43.8" font-family="Helvetica,sans-Serif" font-size="11.00" fill="#000000">&lt; 2</text>
<polygon fill="#ffffff" stroke="transparent" points="412.5,-37.7 412.5,-56.7 449.5,-56.7 449.5,-37.7 412.5,-37.7"/>
<polygon fill="none" stroke="#000000" points="412.5,-37.7 412.5,-56.7 449.5,-56.7 449.5,-37.7 412.5,-37.7"/>
<text text-anchor="start" x="440.3862" y="-43.8" font-family="Helvetica,sans-Serif" font-size="11.00" fill="#000000"> &#160;</text>
<polygon fill="#ffffff" stroke="transparent" points="449.5,-37.7 449.5,-56.7 487.5,-56.7 487.5,-37.7 449.5,-37.7"/>
<polygon fill="none" stroke="#000000" points="449.5,-37.7 449.5,-56.7 487.5,-56.7 487.5,-37.7 449.5,-37.7"/>
<text text-anchor="start" x="478.3862" y="-43.8" font-family="Helvetica,sans-Serif" font-size="11.00" fill="#000000"> &#160;</text>
</a>
</g>
</g>
<!-- trade_novations&#45;&gt;cds_trades -->
<g id="edge15" class="edge">
<title>trade_novations:w&#45;&gt;cds_trades:e</title>
<path fill="none" stroke="#000000" d="M325.9473,-68.0846C261.11,-93.7378 213.9616,-313.3724 198.2187,-399.9235"/>
<polygon fill="#000000" stroke="#000000" points="332.6053,-66.9937 341.0822,-69.2526 336.5526,-66.3468 340.5,-65.7 340.5,-65.7 340.5,-65.7 336.5526,-66.3468 339.9178,-62.1474 332.6053,-66.9937 332.6053,-66.9937"/>
<ellipse fill="none" stroke="#000000" cx="329.4474" cy="-67.5111" rx="3.2" ry="3.2"/>
</g>
<!-- trade_novations&#45;&gt;cds_trades -->
<g id="edge16" class="edge">
<title>trade_novations:w&#45;&gt;cds_trades:e</title>
<path fill="none" stroke="#000000" d="M326.6536,-69.7767C262.9503,-102.2326 216.2074,-315.0804 199.3575,-399.9505"/>
<polygon fill="#000000" stroke="#000000" points="332.8257,-67.9595 341.5168,-69.1534 336.6629,-66.8298 340.5,-65.7 340.5,-65.7 340.5,-65.7 336.6629,-66.8298 339.4832,-62.2466 332.8257,-67.9595 332.8257,-67.9595"/>
<ellipse fill="none" stroke="#000000" cx="329.756" cy="-68.8634" rx="3.2" ry="3.2"/>
</g>
</g>
</svg>
