<?xml version="1.0" encoding="UTF-8" standalone="no"?>
<!DOCTYPE svg PUBLIC "-//W3C//DTD SVG 1.1//EN"
 "http://www.w3.org/Graphics/SVG/1.1/DTD/svg11.dtd">
<!-- Generated by graphviz version 2.40.1 (20161225.0304)
 -->
<!-- Title: oneDegreeRelationshipsDiagram Pages: 1 -->
<svg width="723pt" height="487pt"
 viewBox="0.00 0.00 723.00 486.70" xmlns="http://www.w3.org/2000/svg" xmlns:xlink="http://www.w3.org/1999/xlink">
<g id="graph0" class="graph" transform="scale(1 1) rotate(0) translate(4 482.7)">
<title>oneDegreeRelationshipsDiagram</title>
<polygon fill="#ffffff" stroke="transparent" points="-4,4 -4,-482.7 719,-482.7 719,4 -4,4"/>
<text text-anchor="middle" x="72.4936" y="-7.3" font-family="Helvetica,sans-Serif" font-size="11.00" fill="#000000">Generated by SchemaSpy</text>
<!-- accrual_events -->
<g id="node1" class="node">
<title>accrual_events</title>
<g id="a_node1"><a xlink:href="../../tables/accrual_events.html" xlink:title="accrual_events" target="_top">
<polygon fill="#ffffff" stroke="transparent" points="469,-208.7 469,-474.7 707,-474.7 707,-208.7 469,-208.7"/>
<polygon fill="#f5f5f5" stroke="transparent" points="471,-449.7 471,-472.7 705,-472.7 705,-449.7 471,-449.7"/>
<polygon fill="none" stroke="#000000" points="471,-449.7 471,-472.7 705,-472.7 705,-449.7 471,-449.7"/>
<text text-anchor="start" x="476" y="-458.3" font-family="Helvetica,sans-Serif" font-weight="bold" font-size="11.00" fill="#000000">accrual_events</text>
<text text-anchor="start" x="670.0437" y="-457.8" font-family="Helvetica,sans-Serif" font-size="11.00" fill="#000000">[table]</text>
<polygon fill="none" stroke="#000000" points="471,-427.7 471,-449.7 621,-449.7 621,-427.7 471,-427.7"/>
<image xlink:href="../../images/primaryKeys.png" width="11px" height="12px" preserveAspectRatio="xMinYMin meet" x="476" y="-444.7"/>
<text text-anchor="start" x="491" y="-434.8" font-family="Helvetica,sans-Serif" font-size="11.00" fill="#000000">id</text>
<polygon fill="none" stroke="#000000" points="621,-427.7 621,-449.7 705,-449.7 705,-427.7 621,-427.7"/>
<text text-anchor="start" x="624" y="-435.4" font-family="Helvetica,sans-Serif" font-size="11.00" fill="#000000">bigserial[19]</text>
<polygon fill="#ffffff" stroke="transparent" points="471,-405.7 471,-427.7 621,-427.7 621,-405.7 471,-405.7"/>
<polygon fill="none" stroke="#000000" points="471,-405.7 471,-427.7 621,-427.7 621,-405.7 471,-405.7"/>
<image xlink:href="../../images/foreignKeys.png" width="11px" height="12px" preserveAspectRatio="xMinYMin meet" x="476" y="-422.7"/>
<text text-anchor="start" x="491" y="-412.8" font-family="Helvetica,sans-Serif" font-size="11.00" fill="#000000">trade_id</text>
<polygon fill="none" stroke="#000000" points="621,-405.7 621,-427.7 705,-427.7 705,-405.7 621,-405.7"/>
<text text-anchor="start" x="624" y="-413.4" font-family="Helvetica,sans-Serif" font-size="11.00" fill="#000000">int8[19]</text>
<polygon fill="none" stroke="#000000" points="471,-383.7 471,-405.7 621,-405.7 621,-383.7 471,-383.7"/>
<image xlink:href="../../images/foreignKeys.png" width="11px" height="12px" preserveAspectRatio="xMinYMin meet" x="476" y="-400.7"/>
<text text-anchor="start" x="491" y="-390.8" font-family="Helvetica,sans-Serif" font-size="11.00" fill="#000000">coupon_period_id</text>
<polygon fill="none" stroke="#000000" points="621,-383.7 621,-405.7 705,-405.7 705,-383.7 621,-383.7"/>
<text text-anchor="start" x="624" y="-391.4" font-family="Helvetica,sans-Serif" font-size="11.00" fill="#000000">int8[19]</text>
<polygon fill="#ffffff" stroke="transparent" points="471,-361.7 471,-383.7 621,-383.7 621,-361.7 471,-361.7"/>
<polygon fill="none" stroke="#000000" points="471,-361.7 471,-383.7 621,-383.7 621,-361.7 471,-361.7"/>
<text text-anchor="start" x="491" y="-368.8" font-family="Helvetica,sans-Serif" font-size="11.00" fill="#000000">accrual_date</text>
<polygon fill="none" stroke="#000000" points="621,-361.7 621,-383.7 705,-383.7 705,-361.7 621,-361.7"/>
<text text-anchor="start" x="624" y="-369.4" font-family="Helvetica,sans-Serif" font-size="11.00" fill="#000000">date[13]</text>
<polygon fill="none" stroke="#000000" points="471,-339.7 471,-361.7 621,-361.7 621,-339.7 471,-339.7"/>
<text text-anchor="start" x="491" y="-346.8" font-family="Helvetica,sans-Serif" font-size="11.00" fill="#000000">accrual_amount</text>
<polygon fill="none" stroke="#000000" points="621,-339.7 621,-361.7 705,-361.7 705,-339.7 621,-339.7"/>
<text text-anchor="start" x="624" y="-347.4" font-family="Helvetica,sans-Serif" font-size="11.00" fill="#000000">numeric[15,2]</text>
<polygon fill="none" stroke="#000000" points="471,-317.7 471,-339.7 621,-339.7 621,-317.7 471,-317.7"/>
<text text-anchor="start" x="491" y="-324.8" font-family="Helvetica,sans-Serif" font-size="11.00" fill="#000000">cumulative_accrual</text>
<polygon fill="none" stroke="#000000" points="621,-317.7 621,-339.7 705,-339.7 705,-317.7 621,-317.7"/>
<text text-anchor="start" x="624" y="-325.4" font-family="Helvetica,sans-Serif" font-size="11.00" fill="#000000">numeric[15,2]</text>
<polygon fill="none" stroke="#000000" points="471,-295.7 471,-317.7 621,-317.7 621,-295.7 471,-295.7"/>
<text text-anchor="start" x="491" y="-302.8" font-family="Helvetica,sans-Serif" font-size="11.00" fill="#000000">day_count_fraction</text>
<polygon fill="none" stroke="#000000" points="621,-295.7 621,-317.7 705,-317.7 705,-295.7 621,-295.7"/>
<text text-anchor="start" x="624" y="-303.4" font-family="Helvetica,sans-Serif" font-size="11.00" fill="#000000">numeric[10,8]</text>
<polygon fill="none" stroke="#000000" points="471,-273.7 471,-295.7 621,-295.7 621,-273.7 471,-273.7"/>
<text text-anchor="start" x="491" y="-280.8" font-family="Helvetica,sans-Serif" font-size="11.00" fill="#000000">notional_amount</text>
<polygon fill="none" stroke="#000000" points="621,-273.7 621,-295.7 705,-295.7 705,-273.7 621,-273.7"/>
<text text-anchor="start" x="624" y="-281.4" font-family="Helvetica,sans-Serif" font-size="11.00" fill="#000000">numeric[15,2]</text>
<polygon fill="#ffffff" stroke="transparent" points="471,-251.7 471,-273.7 621,-273.7 621,-251.7 471,-251.7"/>
<polygon fill="none" stroke="#000000" points="471,-251.7 471,-273.7 621,-273.7 621,-251.7 471,-251.7"/>
<text text-anchor="start" x="491" y="-258.8" font-family="Helvetica,sans-Serif" font-size="11.00" fill="#000000">trade_version</text>
<polygon fill="none" stroke="#000000" points="621,-251.7 621,-273.7 705,-273.7 705,-251.7 621,-251.7"/>
<text text-anchor="start" x="624" y="-259.4" font-family="Helvetica,sans-Serif" font-size="11.00" fill="#000000">int4[10]</text>
<polygon fill="none" stroke="#000000" points="471,-229.7 471,-251.7 621,-251.7 621,-229.7 471,-229.7"/>
<text text-anchor="start" x="491" y="-236.8" font-family="Helvetica,sans-Serif" font-size="11.00" fill="#000000">posted_at</text>
<polygon fill="none" stroke="#000000" points="621,-229.7 621,-251.7 705,-251.7 705,-229.7 621,-229.7"/>
<text text-anchor="start" x="623.8807" y="-237.4" font-family="Helvetica,sans-Serif" font-size="11.00" fill="#000000">timestamp[29,6]</text>
<polygon fill="#ffffff" stroke="transparent" points="471,-210.7 471,-229.7 550,-229.7 550,-210.7 471,-210.7"/>
<polygon fill="none" stroke="#000000" points="471,-210.7 471,-229.7 550,-229.7 550,-210.7 471,-210.7"/>
<text text-anchor="start" x="474" y="-216.8" font-family="Helvetica,sans-Serif" font-size="11.00" fill="#000000">&lt; 2</text>
<polygon fill="#ffffff" stroke="transparent" points="550,-210.7 550,-229.7 621,-229.7 621,-210.7 550,-210.7"/>
<polygon fill="none" stroke="#000000" points="550,-210.7 550,-229.7 621,-229.7 621,-210.7 550,-210.7"/>
<text text-anchor="start" x="611.8862" y="-216.8" font-family="Helvetica,sans-Serif" font-size="11.00" fill="#000000"> &#160;</text>
<polygon fill="#ffffff" stroke="transparent" points="621,-210.7 621,-229.7 705,-229.7 705,-210.7 621,-210.7"/>
<polygon fill="none" stroke="#000000" points="621,-210.7 621,-229.7 705,-229.7 705,-210.7 621,-210.7"/>
<text text-anchor="start" x="686.4053" y="-216.8" font-family="Helvetica,sans-Serif" font-size="11.00" fill="#000000">0 &gt;</text>
<polygon fill="none" stroke="#000000" stroke-width="2" points="470,-209.7 470,-473.7 706,-473.7 706,-209.7 470,-209.7"/>
</a>
</g>
</g>
<!-- coupon_periods -->
<g id="node2" class="node">
<title>coupon_periods</title>
<g id="a_node2"><a xlink:href="../../tables/coupon_periods.html" xlink:title="coupon_periods" target="_top">
<polygon fill="#ffffff" stroke="transparent" points="229,-240.2 229,-411.2 420,-411.2 420,-240.2 229,-240.2"/>
<polygon fill="#f5f5f5" stroke="transparent" points="229.5,-387.7 229.5,-410.7 420.5,-410.7 420.5,-387.7 229.5,-387.7"/>
<polygon fill="none" stroke="#000000" points="229.5,-387.7 229.5,-410.7 420.5,-410.7 420.5,-387.7 229.5,-387.7"/>
<text text-anchor="start" x="234.5" y="-396.3" font-family="Helvetica,sans-Serif" font-weight="bold" font-size="11.00" fill="#000000">coupon_periods</text>
<text text-anchor="start" x="385.5437" y="-395.8" font-family="Helvetica,sans-Serif" font-size="11.00" fill="#000000">[table]</text>
<polygon fill="none" stroke="#000000" points="229.5,-365.7 229.5,-387.7 420.5,-387.7 420.5,-365.7 229.5,-365.7"/>
<image xlink:href="../../images/primaryKeys.png" width="11px" height="12px" preserveAspectRatio="xMinYMin meet" x="234.5" y="-382.7"/>
<text text-anchor="start" x="249.5" y="-372.8" font-family="Helvetica,sans-Serif" font-size="11.00" fill="#000000">id</text>
<polygon fill="#ffffff" stroke="transparent" points="229.5,-343.7 229.5,-365.7 420.5,-365.7 420.5,-343.7 229.5,-343.7"/>
<polygon fill="none" stroke="#000000" points="229.5,-343.7 229.5,-365.7 420.5,-365.7 420.5,-343.7 229.5,-343.7"/>
<image xlink:href="../../images/foreignKeys.png" width="11px" height="12px" preserveAspectRatio="xMinYMin meet" x="234.5" y="-360.7"/>
<text text-anchor="start" x="249.5" y="-350.8" font-family="Helvetica,sans-Serif" font-size="11.00" fill="#000000">trade_id</text>
<polygon fill="#ffffff" stroke="transparent" points="229.5,-321.7 229.5,-343.7 420.5,-343.7 420.5,-321.7 229.5,-321.7"/>
<polygon fill="none" stroke="#000000" points="229.5,-321.7 229.5,-343.7 420.5,-343.7 420.5,-321.7 229.5,-321.7"/>
<text text-anchor="start" x="249.5" y="-328.8" font-family="Helvetica,sans-Serif" font-size="11.00" fill="#000000">period_start_date</text>
<polygon fill="#ffffff" stroke="transparent" points="229.5,-299.7 229.5,-321.7 420.5,-321.7 420.5,-299.7 229.5,-299.7"/>
<polygon fill="none" stroke="#000000" points="229.5,-299.7 229.5,-321.7 420.5,-321.7 420.5,-299.7 229.5,-299.7"/>
<text text-anchor="start" x="249.5" y="-306.8" font-family="Helvetica,sans-Serif" font-size="11.00" fill="#000000">payment_date</text>
<polygon fill="#ffffff" stroke="transparent" points="229.5,-277.7 229.5,-299.7 420.5,-299.7 420.5,-277.7 229.5,-277.7"/>
<polygon fill="none" stroke="#000000" points="229.5,-277.7 229.5,-299.7 420.5,-299.7 420.5,-277.7 229.5,-277.7"/>
<text text-anchor="start" x="249.5" y="-284.8" font-family="Helvetica,sans-Serif" font-size="11.00" fill="#000000">paid</text>
<polygon fill="none" stroke="#000000" points="229.5,-258.7 229.5,-277.7 420.5,-277.7 420.5,-258.7 229.5,-258.7"/>
<text text-anchor="start" x="232.5" y="-264.8" font-family="Helvetica,sans-Serif" font-size="11.00" fill="#000000">...</text>
<polygon fill="#ffffff" stroke="transparent" points="229.5,-239.7 229.5,-258.7 318.5,-258.7 318.5,-239.7 229.5,-239.7"/>
<polygon fill="none" stroke="#000000" points="229.5,-239.7 229.5,-258.7 318.5,-258.7 318.5,-239.7 229.5,-239.7"/>
<text text-anchor="start" x="232.5" y="-245.8" font-family="Helvetica,sans-Serif" font-size="11.00" fill="#000000">&lt; 1</text>
<polygon fill="#ffffff" stroke="transparent" points="318.5,-239.7 318.5,-258.7 364.5,-258.7 364.5,-239.7 318.5,-239.7"/>
<polygon fill="none" stroke="#000000" points="318.5,-239.7 318.5,-258.7 364.5,-258.7 364.5,-239.7 318.5,-239.7"/>
<text text-anchor="start" x="355.3862" y="-245.8" font-family="Helvetica,sans-Serif" font-size="11.00" fill="#000000"> &#160;</text>
<polygon fill="#ffffff" stroke="transparent" points="364.5,-239.7 364.5,-258.7 420.5,-258.7 420.5,-239.7 364.5,-239.7"/>
<polygon fill="none" stroke="#000000" points="364.5,-239.7 364.5,-258.7 420.5,-258.7 420.5,-239.7 364.5,-239.7"/>
<text text-anchor="start" x="401.9053" y="-245.8" font-family="Helvetica,sans-Serif" font-size="11.00" fill="#000000">1 &gt;</text>
</a>
</g>
</g>
<!-- accrual_events&#45;&gt;coupon_periods -->
<g id="edge1" class="edge">
<title>accrual_events:w&#45;&gt;coupon_periods:e</title>
<path fill="none" stroke="#000000" d="M456.7839,-392.044C444.5637,-387.037 438.5568,-376.7 420.5,-376.7"/>
<polygon fill="#000000" stroke="#000000" points="463.1361,-393.2308 470.3388,-398.2388 467.068,-393.9654 471,-394.7 471,-394.7 471,-394.7 467.068,-393.9654 471.6612,-391.1612 463.1361,-393.2308 463.1361,-393.2308"/>
<ellipse fill="none" stroke="#000000" cx="459.9905" cy="-392.6431" rx="3.2" ry="3.2"/>
</g>
<!-- cds_trades -->
<g id="node3" class="node">
<title>cds_trades</title>
<g id="a_node3"><a xlink:href="../../tables/cds_trades.html" xlink:title="cds_trades" target="_top">
<polygon fill="#ffffff" stroke="transparent" points="8,-38.2 8,-429.2 180,-429.2 180,-38.2 8,-38.2"/>
<polygon fill="#f5f5f5" stroke="transparent" points="8,-405.7 8,-428.7 180,-428.7 180,-405.7 8,-405.7"/>
<polygon fill="none" stroke="#000000" points="8,-405.7 8,-428.7 180,-428.7 180,-405.7 8,-405.7"/>
<text text-anchor="start" x="13" y="-414.3" font-family="Helvetica,sans-Serif" font-weight="bold" font-size="11.00" fill="#000000">cds_trades</text>
<text text-anchor="start" x="145.0437" y="-413.8" font-family="Helvetica,sans-Serif" font-size="11.00" fill="#000000">[table]</text>
<polygon fill="none" stroke="#000000" points="8,-383.7 8,-405.7 180,-405.7 180,-383.7 8,-383.7"/>
<image xlink:href="../../images/primaryKeys.png" width="11px" height="12px" preserveAspectRatio="xMinYMin meet" x="13" y="-400.7"/>
<text text-anchor="start" x="28" y="-390.8" font-family="Helvetica,sans-Serif" font-size="11.00" fill="#000000">id</text>
<polygon fill="#ffffff" stroke="transparent" points="8,-361.7 8,-383.7 180,-383.7 180,-361.7 8,-361.7"/>
<polygon fill="none" stroke="#000000" points="8,-361.7 8,-383.7 180,-383.7 180,-361.7 8,-361.7"/>
<text text-anchor="start" x="28" y="-368.8" font-family="Helvetica,sans-Serif" font-size="11.00" fill="#000000">reference_entity</text>
<polygon fill="#ffffff" stroke="transparent" points="8,-339.7 8,-361.7 180,-361.7 180,-339.7 8,-339.7"/>
<polygon fill="none" stroke="#000000" points="8,-339.7 8,-361.7 180,-361.7 180,-339.7 8,-339.7"/>
<text text-anchor="start" x="28" y="-346.8" font-family="Helvetica,sans-Serif" font-size="11.00" fill="#000000">counterparty</text>
<polygon fill="#ffffff" stroke="transparent" points="8,-317.7 8,-339.7 180,-339.7 180,-317.7 8,-317.7"/>
<polygon fill="none" stroke="#000000" points="8,-317.7 8,-339.7 180,-339.7 180,-317.7 8,-317.7"/>
<text text-anchor="start" x="28" y="-324.8" font-family="Helvetica,sans-Serif" font-size="11.00" fill="#000000">trade_date</text>
<polygon fill="#ffffff" stroke="transparent" points="8,-295.7 8,-317.7 180,-317.7 180,-295.7 8,-295.7"/>
<polygon fill="none" stroke="#000000" points="8,-295.7 8,-317.7 180,-317.7 180,-295.7 8,-295.7"/>
<text text-anchor="start" x="28" y="-302.8" font-family="Helvetica,sans-Serif" font-size="11.00" fill="#000000">created_at</text>
<polygon fill="#ffffff" stroke="transparent" points="8,-273.7 8,-295.7 180,-295.7 180,-273.7 8,-273.7"/>
<polygon fill="none" stroke="#000000" points="8,-273.7 8,-295.7 180,-295.7 180,-273.7 8,-273.7"/>
<image xlink:href="../../images/foreignKeys.png" width="11px" height="12px" preserveAspectRatio="xMinYMin meet" x="13" y="-290.7"/>
<text text-anchor="start" x="28" y="-280.8" font-family="Helvetica,sans-Serif" font-size="11.00" fill="#000000">obligation_id</text>
<polygon fill="#ffffff" stroke="transparent" points="8,-251.7 8,-273.7 180,-273.7 180,-251.7 8,-251.7"/>
<polygon fill="none" stroke="#000000" points="8,-251.7 8,-273.7 180,-273.7 180,-251.7 8,-251.7"/>
<text text-anchor="start" x="28" y="-258.8" font-family="Helvetica,sans-Serif" font-size="11.00" fill="#000000">settlement_type</text>
<polygon fill="#ffffff" stroke="transparent" points="8,-229.7 8,-251.7 180,-251.7 180,-229.7 8,-229.7"/>
<polygon fill="none" stroke="#000000" points="8,-229.7 8,-251.7 180,-251.7 180,-229.7 8,-229.7"/>
<text text-anchor="start" x="28" y="-236.8" font-family="Helvetica,sans-Serif" font-size="11.00" fill="#000000">ccp_name</text>
<polygon fill="#ffffff" stroke="transparent" points="8,-207.7 8,-229.7 180,-229.7 180,-207.7 8,-207.7"/>
<polygon fill="none" stroke="#000000" points="8,-207.7 8,-229.7 180,-229.7 180,-207.7 8,-207.7"/>
<image xlink:href="../../images/foreignKeys.png" width="11px" height="12px" preserveAspectRatio="xMinYMin meet" x="13" y="-224.7"/>
<text text-anchor="start" x="28" y="-214.8" font-family="Helvetica,sans-Serif" font-size="11.00" fill="#000000">original_trade_id</text>
<polygon fill="#ffffff" stroke="transparent" points="8,-185.7 8,-207.7 180,-207.7 180,-185.7 8,-185.7"/>
<polygon fill="none" stroke="#000000" points="8,-185.7 8,-207.7 180,-207.7 180,-185.7 8,-185.7"/>
<text text-anchor="start" x="28" y="-192.8" font-family="Helvetica,sans-Serif" font-size="11.00" fill="#000000">novation_timestamp</text>
<polygon fill="#ffffff" stroke="transparent" points="8,-163.7 8,-185.7 180,-185.7 180,-163.7 8,-163.7"/>
<polygon fill="none" stroke="#000000" points="8,-163.7 8,-185.7 180,-185.7 180,-163.7 8,-163.7"/>
<text text-anchor="start" x="28" y="-170.8" font-family="Helvetica,sans-Serif" font-size="11.00" fill="#000000">novation_reference</text>
<polygon fill="#ffffff" stroke="transparent" points="8,-141.7 8,-163.7 180,-163.7 180,-141.7 8,-141.7"/>
<polygon fill="none" stroke="#000000" points="8,-141.7 8,-163.7 180,-163.7 180,-141.7 8,-141.7"/>
<text text-anchor="start" x="28" y="-148.8" font-family="Helvetica,sans-Serif" font-size="11.00" fill="#000000">uti</text>
<polygon fill="#ffffff" stroke="transparent" points="8,-119.7 8,-141.7 180,-141.7 180,-119.7 8,-119.7"/>
<polygon fill="none" stroke="#000000" points="8,-119.7 8,-141.7 180,-141.7 180,-119.7 8,-119.7"/>
<text text-anchor="start" x="28" y="-126.8" font-family="Helvetica,sans-Serif" font-size="11.00" fill="#000000">usi</text>
<polygon fill="#ffffff" stroke="transparent" points="8,-97.7 8,-119.7 180,-119.7 180,-97.7 8,-97.7"/>
<polygon fill="none" stroke="#000000" points="8,-97.7 8,-119.7 180,-119.7 180,-97.7 8,-97.7"/>
<text text-anchor="start" x="28" y="-104.8" font-family="Helvetica,sans-Serif" font-size="11.00" fill="#000000">is_cleared</text>
<polygon fill="#ffffff" stroke="transparent" points="8,-75.7 8,-97.7 180,-97.7 180,-75.7 8,-75.7"/>
<polygon fill="none" stroke="#000000" points="8,-75.7 8,-97.7 180,-97.7 180,-75.7 8,-75.7"/>
<text text-anchor="start" x="28" y="-82.8" font-family="Helvetica,sans-Serif" font-size="11.00" fill="#000000">mark_to_market_value</text>
<polygon fill="none" stroke="#000000" points="8,-56.7 8,-75.7 180,-75.7 180,-56.7 8,-56.7"/>
<text text-anchor="start" x="11" y="-62.8" font-family="Helvetica,sans-Serif" font-size="11.00" fill="#000000">...</text>
<polygon fill="#ffffff" stroke="transparent" points="8,-37.7 8,-56.7 85,-56.7 85,-37.7 8,-37.7"/>
<polygon fill="none" stroke="#000000" points="8,-37.7 8,-56.7 85,-56.7 85,-37.7 8,-37.7"/>
<text text-anchor="start" x="11" y="-43.8" font-family="Helvetica,sans-Serif" font-size="11.00" fill="#000000">&lt; 2</text>
<polygon fill="#ffffff" stroke="transparent" points="85,-37.7 85,-56.7 125,-56.7 125,-37.7 85,-37.7"/>
<polygon fill="none" stroke="#000000" points="85,-37.7 85,-56.7 125,-56.7 125,-37.7 85,-37.7"/>
<text text-anchor="start" x="115.8862" y="-43.8" font-family="Helvetica,sans-Serif" font-size="11.00" fill="#000000"> &#160;</text>
<polygon fill="#ffffff" stroke="transparent" points="125,-37.7 125,-56.7 180,-56.7 180,-37.7 125,-37.7"/>
<polygon fill="none" stroke="#000000" points="125,-37.7 125,-56.7 180,-56.7 180,-37.7 125,-37.7"/>
<text text-anchor="start" x="155.2904" y="-43.8" font-family="Helvetica,sans-Serif" font-size="11.00" fill="#000000">13 &gt;</text>
</a>
</g>
</g>
<!-- accrual_events&#45;&gt;cds_trades -->
<g id="edge2" class="edge">
<title>accrual_events:w&#45;&gt;cds_trades:e</title>
<path fill="none" stroke="#000000" d="M456.3701,-417.6355C447.4837,-418.8585 441.2053,-420.9348 428,-421.7 336.1541,-427.022 309.1274,-448.1113 221,-421.7 200.0999,-415.4363 201.8186,-394.7 180,-394.7"/>
<polygon fill="#000000" stroke="#000000" points="463.0163,-417.2106 471.2298,-420.2927 467.0082,-416.9553 471,-416.7 471,-416.7 471,-416.7 467.0082,-416.9553 470.7702,-413.1073 463.0163,-417.2106 463.0163,-417.2106"/>
<ellipse fill="none" stroke="#000000" cx="459.8228" cy="-417.4148" rx="3.2" ry="3.2"/>
</g>
<!-- coupon_periods&#45;&gt;cds_trades -->
<g id="edge3" class="edge">
<title>coupon_periods:w&#45;&gt;cds_trades:e</title>
<path fill="none" stroke="#000000" d="M215.6565,-359.2885C202.6245,-369.7952 202.3187,-394.7 180,-394.7"/>
<polygon fill="#000000" stroke="#000000" points="221.9063,-357.217 230.6327,-358.1172 225.7031,-355.9585 229.5,-354.7 229.5,-354.7 229.5,-354.7 225.7031,-355.9585 228.3673,-351.2828 221.9063,-357.217 221.9063,-357.217"/>
<ellipse fill="none" stroke="#000000" cx="218.8688" cy="-358.2238" rx="3.2" ry="3.2"/>
</g>
</g>
</svg>
