<?xml version="1.0" encoding="UTF-8" standalone="no"?>
<!DOCTYPE svg PUBLIC "-//W3C//DTD SVG 1.1//EN"
 "http://www.w3.org/Graphics/SVG/1.1/DTD/svg11.dtd">
<!-- Generated by graphviz version 2.40.1 (20161225.0304)
 -->
<!-- Title: twoDegreesRelationshipsDiagram Pages: 1 -->
<svg width="555pt" height="530pt"
 viewBox="0.00 0.00 555.00 529.70" xmlns="http://www.w3.org/2000/svg" xmlns:xlink="http://www.w3.org/1999/xlink">
<g id="graph0" class="graph" transform="scale(1 1) rotate(0) translate(4 525.7)">
<title>twoDegreesRelationshipsDiagram</title>
<polygon fill="#ffffff" stroke="transparent" points="-4,4 -4,-525.7 551,-525.7 551,4 -4,4"/>
<text text-anchor="middle" x="72.4936" y="-7.3" font-family="Helvetica,sans-Serif" font-size="11.00" fill="#000000">Generated by SchemaSpy</text>
<!-- basket_constituents -->
<g id="node1" class="node">
<title>basket_constituents</title>
<g id="a_node1"><a xlink:href="../../tables/basket_constituents.html" xlink:title="basket_constituents" target="_top">
<polygon fill="#ffffff" stroke="transparent" points="332,-198.7 332,-347.7 507,-347.7 507,-198.7 332,-198.7"/>
<polygon fill="#f5f5f5" stroke="transparent" points="332.5,-324.2 332.5,-347.2 507.5,-347.2 507.5,-324.2 332.5,-324.2"/>
<polygon fill="none" stroke="#000000" points="332.5,-324.2 332.5,-347.2 507.5,-347.2 507.5,-324.2 332.5,-324.2"/>
<text text-anchor="start" x="337.5" y="-332.8" font-family="Helvetica,sans-Serif" font-weight="bold" font-size="11.00" fill="#000000">basket_constituents</text>
<text text-anchor="start" x="473.0219" y="-332.3" font-family="Helvetica,sans-Serif" font-size="11.00" fill="#000000">[table]</text>
<polygon fill="none" stroke="#000000" points="332.5,-302.2 332.5,-324.2 507.5,-324.2 507.5,-302.2 332.5,-302.2"/>
<image xlink:href="../../images/primaryKeys.png" width="11px" height="12px" preserveAspectRatio="xMinYMin meet" x="337.5" y="-319.2"/>
<text text-anchor="start" x="361.5" y="-309.3" font-family="Helvetica,sans-Serif" font-size="11.00" fill="#000000">id</text>
<polygon fill="#ffffff" stroke="transparent" points="332.5,-280.2 332.5,-302.2 507.5,-302.2 507.5,-280.2 332.5,-280.2"/>
<polygon fill="none" stroke="#000000" points="332.5,-280.2 332.5,-302.2 507.5,-302.2 507.5,-280.2 332.5,-280.2"/>
<image xlink:href="../../images/foreignKeys.png" width="11px" height="12px" preserveAspectRatio="xMinYMin meet" x="337.5" y="-297.2"/>
<text text-anchor="start" x="361.5" y="-287.3" font-family="Helvetica,sans-Serif" font-size="11.00" fill="#000000">basket_id</text>
<polygon fill="#ffffff" stroke="transparent" points="332.5,-258.2 332.5,-280.2 507.5,-280.2 507.5,-258.2 332.5,-258.2"/>
<polygon fill="none" stroke="#000000" points="332.5,-258.2 332.5,-280.2 507.5,-280.2 507.5,-258.2 332.5,-258.2"/>
<text text-anchor="start" x="361.5" y="-265.3" font-family="Helvetica,sans-Serif" font-size="11.00" fill="#000000">issuer</text>
<polygon fill="#ffffff" stroke="transparent" points="332.5,-236.2 332.5,-258.2 507.5,-258.2 507.5,-236.2 332.5,-236.2"/>
<polygon fill="none" stroke="#000000" points="332.5,-236.2 332.5,-258.2 507.5,-258.2 507.5,-236.2 332.5,-236.2"/>
<text text-anchor="start" x="361.5" y="-243.3" font-family="Helvetica,sans-Serif" font-size="11.00" fill="#000000">sector</text>
<polygon fill="none" stroke="#000000" points="332.5,-217.2 332.5,-236.2 507.5,-236.2 507.5,-217.2 332.5,-217.2"/>
<text text-anchor="start" x="335.5" y="-223.3" font-family="Helvetica,sans-Serif" font-size="11.00" fill="#000000">...</text>
<polygon fill="#ffffff" stroke="transparent" points="332.5,-198.2 332.5,-217.2 418.5,-217.2 418.5,-198.2 332.5,-198.2"/>
<polygon fill="none" stroke="#000000" points="332.5,-198.2 332.5,-217.2 418.5,-217.2 418.5,-198.2 332.5,-198.2"/>
<text text-anchor="start" x="335.5" y="-204.3" font-family="Helvetica,sans-Serif" font-size="11.00" fill="#000000">&lt; 1</text>
<polygon fill="#ffffff" stroke="transparent" points="418.5,-198.2 418.5,-217.2 462.5,-217.2 462.5,-198.2 418.5,-198.2"/>
<polygon fill="none" stroke="#000000" points="418.5,-198.2 418.5,-217.2 462.5,-217.2 462.5,-198.2 418.5,-198.2"/>
<text text-anchor="start" x="453.3862" y="-204.3" font-family="Helvetica,sans-Serif" font-size="11.00" fill="#000000"> &#160;</text>
<polygon fill="#ffffff" stroke="transparent" points="462.5,-198.2 462.5,-217.2 507.5,-217.2 507.5,-198.2 462.5,-198.2"/>
<polygon fill="none" stroke="#000000" points="462.5,-198.2 462.5,-217.2 507.5,-217.2 507.5,-198.2 462.5,-198.2"/>
<text text-anchor="start" x="498.3862" y="-204.3" font-family="Helvetica,sans-Serif" font-size="11.00" fill="#000000"> &#160;</text>
</a>
</g>
</g>
<!-- basket_definitions -->
<g id="node2" class="node">
<title>basket_definitions</title>
<g id="a_node2"><a xlink:href="../../tables/basket_definitions.html" xlink:title="basket_definitions" target="_top">
<polygon fill="#ffffff" stroke="transparent" points="8,-38.2 8,-370.2 251,-370.2 251,-38.2 8,-38.2"/>
<polygon fill="#f5f5f5" stroke="transparent" points="10.5,-345.2 10.5,-368.2 249.5,-368.2 249.5,-345.2 10.5,-345.2"/>
<polygon fill="none" stroke="#000000" points="10.5,-345.2 10.5,-368.2 249.5,-368.2 249.5,-345.2 10.5,-345.2"/>
<text text-anchor="start" x="15.5" y="-353.8" font-family="Helvetica,sans-Serif" font-weight="bold" font-size="11.00" fill="#000000">basket_definitions</text>
<text text-anchor="start" x="214.5437" y="-353.3" font-family="Helvetica,sans-Serif" font-size="11.00" fill="#000000">[table]</text>
<polygon fill="none" stroke="#000000" points="10.5,-323.2 10.5,-345.2 165.5,-345.2 165.5,-323.2 10.5,-323.2"/>
<image xlink:href="../../images/primaryKeys.png" width="11px" height="12px" preserveAspectRatio="xMinYMin meet" x="15.5" y="-340.2"/>
<text text-anchor="start" x="30.5" y="-330.3" font-family="Helvetica,sans-Serif" font-size="11.00" fill="#000000">id</text>
<polygon fill="none" stroke="#000000" points="165.5,-323.2 165.5,-345.2 249.5,-345.2 249.5,-323.2 165.5,-323.2"/>
<text text-anchor="start" x="168.5" y="-330.9" font-family="Helvetica,sans-Serif" font-size="11.00" fill="#000000">bigserial[19]</text>
<polygon fill="#ffffff" stroke="transparent" points="10.5,-301.2 10.5,-323.2 165.5,-323.2 165.5,-301.2 10.5,-301.2"/>
<polygon fill="none" stroke="#000000" points="10.5,-301.2 10.5,-323.2 165.5,-323.2 165.5,-301.2 10.5,-301.2"/>
<text text-anchor="start" x="30.5" y="-308.3" font-family="Helvetica,sans-Serif" font-size="11.00" fill="#000000">name</text>
<polygon fill="none" stroke="#000000" points="165.5,-301.2 165.5,-323.2 249.5,-323.2 249.5,-301.2 165.5,-301.2"/>
<text text-anchor="start" x="168.5" y="-308.9" font-family="Helvetica,sans-Serif" font-size="11.00" fill="#000000">varchar[80]</text>
<polygon fill="#ffffff" stroke="transparent" points="10.5,-279.2 10.5,-301.2 165.5,-301.2 165.5,-279.2 10.5,-279.2"/>
<polygon fill="none" stroke="#000000" points="10.5,-279.2 10.5,-301.2 165.5,-301.2 165.5,-279.2 10.5,-279.2"/>
<text text-anchor="start" x="30.5" y="-286.3" font-family="Helvetica,sans-Serif" font-size="11.00" fill="#000000">type</text>
<polygon fill="none" stroke="#000000" points="165.5,-279.2 165.5,-301.2 249.5,-301.2 249.5,-279.2 165.5,-279.2"/>
<text text-anchor="start" x="168.5" y="-286.9" font-family="Helvetica,sans-Serif" font-size="11.00" fill="#000000">varchar[20]</text>
<polygon fill="none" stroke="#000000" points="10.5,-257.2 10.5,-279.2 165.5,-279.2 165.5,-257.2 10.5,-257.2"/>
<text text-anchor="start" x="30.5" y="-264.3" font-family="Helvetica,sans-Serif" font-size="11.00" fill="#000000">nth</text>
<polygon fill="none" stroke="#000000" points="165.5,-257.2 165.5,-279.2 249.5,-279.2 249.5,-257.2 165.5,-257.2"/>
<text text-anchor="start" x="168.5" y="-264.9" font-family="Helvetica,sans-Serif" font-size="11.00" fill="#000000">int4[10]</text>
<polygon fill="none" stroke="#000000" points="10.5,-235.2 10.5,-257.2 165.5,-257.2 165.5,-235.2 10.5,-235.2"/>
<text text-anchor="start" x="30.5" y="-242.3" font-family="Helvetica,sans-Serif" font-size="11.00" fill="#000000">attachment_point</text>
<polygon fill="none" stroke="#000000" points="165.5,-235.2 165.5,-257.2 249.5,-257.2 249.5,-235.2 165.5,-235.2"/>
<text text-anchor="start" x="168.5" y="-242.9" font-family="Helvetica,sans-Serif" font-size="11.00" fill="#000000">numeric[9,6]</text>
<polygon fill="none" stroke="#000000" points="10.5,-213.2 10.5,-235.2 165.5,-235.2 165.5,-213.2 10.5,-213.2"/>
<text text-anchor="start" x="30.5" y="-220.3" font-family="Helvetica,sans-Serif" font-size="11.00" fill="#000000">detachment_point</text>
<polygon fill="none" stroke="#000000" points="165.5,-213.2 165.5,-235.2 249.5,-235.2 249.5,-213.2 165.5,-213.2"/>
<text text-anchor="start" x="168.5" y="-220.9" font-family="Helvetica,sans-Serif" font-size="11.00" fill="#000000">numeric[9,6]</text>
<polygon fill="none" stroke="#000000" points="10.5,-191.2 10.5,-213.2 165.5,-213.2 165.5,-191.2 10.5,-191.2"/>
<text text-anchor="start" x="30.5" y="-198.3" font-family="Helvetica,sans-Serif" font-size="11.00" fill="#000000">premium_frequency</text>
<polygon fill="none" stroke="#000000" points="165.5,-191.2 165.5,-213.2 249.5,-213.2 249.5,-191.2 165.5,-191.2"/>
<text text-anchor="start" x="168.5" y="-198.9" font-family="Helvetica,sans-Serif" font-size="11.00" fill="#000000">varchar[20]</text>
<polygon fill="none" stroke="#000000" points="10.5,-169.2 10.5,-191.2 165.5,-191.2 165.5,-169.2 10.5,-169.2"/>
<text text-anchor="start" x="30.5" y="-176.3" font-family="Helvetica,sans-Serif" font-size="11.00" fill="#000000">day_count</text>
<polygon fill="none" stroke="#000000" points="165.5,-169.2 165.5,-191.2 249.5,-191.2 249.5,-169.2 165.5,-169.2"/>
<text text-anchor="start" x="168.5" y="-176.9" font-family="Helvetica,sans-Serif" font-size="11.00" fill="#000000">varchar[20]</text>
<polygon fill="#ffffff" stroke="transparent" points="10.5,-147.2 10.5,-169.2 165.5,-169.2 165.5,-147.2 10.5,-147.2"/>
<polygon fill="none" stroke="#000000" points="10.5,-147.2 10.5,-169.2 165.5,-169.2 165.5,-147.2 10.5,-147.2"/>
<text text-anchor="start" x="30.5" y="-154.3" font-family="Helvetica,sans-Serif" font-size="11.00" fill="#000000">currency</text>
<polygon fill="none" stroke="#000000" points="165.5,-147.2 165.5,-169.2 249.5,-169.2 249.5,-147.2 165.5,-147.2"/>
<text text-anchor="start" x="168.5" y="-154.9" font-family="Helvetica,sans-Serif" font-size="11.00" fill="#000000">varchar[3]</text>
<polygon fill="none" stroke="#000000" points="10.5,-125.2 10.5,-147.2 165.5,-147.2 165.5,-125.2 10.5,-125.2"/>
<text text-anchor="start" x="30.5" y="-132.3" font-family="Helvetica,sans-Serif" font-size="11.00" fill="#000000">notional</text>
<polygon fill="none" stroke="#000000" points="165.5,-125.2 165.5,-147.2 249.5,-147.2 249.5,-125.2 165.5,-125.2"/>
<text text-anchor="start" x="168.5" y="-132.9" font-family="Helvetica,sans-Serif" font-size="11.00" fill="#000000">numeric[18,2]</text>
<polygon fill="#ffffff" stroke="transparent" points="10.5,-103.2 10.5,-125.2 165.5,-125.2 165.5,-103.2 10.5,-103.2"/>
<polygon fill="none" stroke="#000000" points="10.5,-103.2 10.5,-125.2 165.5,-125.2 165.5,-103.2 10.5,-103.2"/>
<text text-anchor="start" x="30.5" y="-110.3" font-family="Helvetica,sans-Serif" font-size="11.00" fill="#000000">maturity_date</text>
<polygon fill="none" stroke="#000000" points="165.5,-103.2 165.5,-125.2 249.5,-125.2 249.5,-103.2 165.5,-103.2"/>
<text text-anchor="start" x="168.5" y="-110.9" font-family="Helvetica,sans-Serif" font-size="11.00" fill="#000000">date[13]</text>
<polygon fill="none" stroke="#000000" points="10.5,-81.2 10.5,-103.2 165.5,-103.2 165.5,-81.2 10.5,-81.2"/>
<text text-anchor="start" x="30.5" y="-88.3" font-family="Helvetica,sans-Serif" font-size="11.00" fill="#000000">created_at</text>
<polygon fill="none" stroke="#000000" points="165.5,-81.2 165.5,-103.2 249.5,-103.2 249.5,-81.2 165.5,-81.2"/>
<text text-anchor="start" x="168.3807" y="-88.9" font-family="Helvetica,sans-Serif" font-size="11.00" fill="#000000">timestamp[29,6]</text>
<polygon fill="none" stroke="#000000" points="10.5,-59.2 10.5,-81.2 165.5,-81.2 165.5,-59.2 10.5,-59.2"/>
<text text-anchor="start" x="30.5" y="-66.3" font-family="Helvetica,sans-Serif" font-size="11.00" fill="#000000">updated_at</text>
<polygon fill="none" stroke="#000000" points="165.5,-59.2 165.5,-81.2 249.5,-81.2 249.5,-59.2 165.5,-59.2"/>
<text text-anchor="start" x="168.3807" y="-66.9" font-family="Helvetica,sans-Serif" font-size="11.00" fill="#000000">timestamp[29,6]</text>
<polygon fill="#ffffff" stroke="transparent" points="10.5,-40.2 10.5,-59.2 92.5,-59.2 92.5,-40.2 10.5,-40.2"/>
<polygon fill="none" stroke="#000000" points="10.5,-40.2 10.5,-59.2 92.5,-59.2 92.5,-40.2 10.5,-40.2"/>
<text text-anchor="start" x="13.5" y="-46.3" font-family="Helvetica,sans-Serif" font-size="11.00" fill="#000000">&lt; 0</text>
<polygon fill="#ffffff" stroke="transparent" points="92.5,-40.2 92.5,-59.2 165.5,-59.2 165.5,-40.2 92.5,-40.2"/>
<polygon fill="none" stroke="#000000" points="92.5,-40.2 92.5,-59.2 165.5,-59.2 165.5,-40.2 92.5,-40.2"/>
<text text-anchor="start" x="156.3862" y="-46.3" font-family="Helvetica,sans-Serif" font-size="11.00" fill="#000000"> &#160;</text>
<polygon fill="#ffffff" stroke="transparent" points="165.5,-40.2 165.5,-59.2 249.5,-59.2 249.5,-40.2 165.5,-40.2"/>
<polygon fill="none" stroke="#000000" points="165.5,-40.2 165.5,-59.2 249.5,-59.2 249.5,-40.2 165.5,-40.2"/>
<text text-anchor="start" x="230.9053" y="-46.3" font-family="Helvetica,sans-Serif" font-size="11.00" fill="#000000">2 &gt;</text>
<polygon fill="none" stroke="#000000" stroke-width="2" points="9,-39.2 9,-369.2 250,-369.2 250,-39.2 9,-39.2"/>
</a>
</g>
</g>
<!-- basket_constituents&#45;&gt;basket_definitions -->
<g id="edge1" class="edge">
<title>basket_constituents:w&#45;&gt;basket_definitions:e</title>
<path fill="none" stroke="#000000" d="M317.9549,-293.274C290.2443,-301.8634 285.5277,-334.2 249.5,-334.2"/>
<polygon fill="#000000" stroke="#000000" points="324.5801,-292.3293 333.0082,-294.764 328.5401,-291.7647 332.5,-291.2 332.5,-291.2 332.5,-291.2 328.5401,-291.7647 331.9918,-287.636 324.5801,-292.3293 324.5801,-292.3293"/>
<ellipse fill="none" stroke="#000000" cx="321.4122" cy="-292.7811" rx="3.2" ry="3.2"/>
</g>
<!-- basket_portfolio_constituents -->
<g id="node3" class="node">
<title>basket_portfolio_constituents</title>
<g id="a_node3"><a xlink:href="../../tables/basket_portfolio_constituents.html" xlink:title="basket_portfolio_constituents" target="_top">
<polygon fill="#ffffff" stroke="transparent" points="300,-368.7 300,-517.7 539,-517.7 539,-368.7 300,-368.7"/>
<polygon fill="#f5f5f5" stroke="transparent" points="300.5,-494.2 300.5,-517.2 539.5,-517.2 539.5,-494.2 300.5,-494.2"/>
<polygon fill="none" stroke="#000000" points="300.5,-494.2 300.5,-517.2 539.5,-517.2 539.5,-494.2 300.5,-494.2"/>
<text text-anchor="start" x="305.5" y="-502.8" font-family="Helvetica,sans-Serif" font-weight="bold" font-size="11.00" fill="#000000">basket_portfolio_constituents</text>
<text text-anchor="start" x="505.0219" y="-502.3" font-family="Helvetica,sans-Serif" font-size="11.00" fill="#000000">[table]</text>
<polygon fill="none" stroke="#000000" points="300.5,-472.2 300.5,-494.2 539.5,-494.2 539.5,-472.2 300.5,-472.2"/>
<image xlink:href="../../images/primaryKeys.png" width="11px" height="12px" preserveAspectRatio="xMinYMin meet" x="305.5" y="-489.2"/>
<text text-anchor="start" x="329.5" y="-479.3" font-family="Helvetica,sans-Serif" font-size="11.00" fill="#000000">id</text>
<polygon fill="#ffffff" stroke="transparent" points="300.5,-450.2 300.5,-472.2 539.5,-472.2 539.5,-450.2 300.5,-450.2"/>
<polygon fill="none" stroke="#000000" points="300.5,-450.2 300.5,-472.2 539.5,-472.2 539.5,-450.2 300.5,-450.2"/>
<image xlink:href="../../images/foreignKeys.png" width="11px" height="12px" preserveAspectRatio="xMinYMin meet" x="305.5" y="-467.2"/>
<text text-anchor="start" x="329.5" y="-457.3" font-family="Helvetica,sans-Serif" font-size="11.00" fill="#000000">portfolio_id</text>
<polygon fill="#ffffff" stroke="transparent" points="300.5,-428.2 300.5,-450.2 539.5,-450.2 539.5,-428.2 300.5,-428.2"/>
<polygon fill="none" stroke="#000000" points="300.5,-428.2 300.5,-450.2 539.5,-450.2 539.5,-428.2 300.5,-428.2"/>
<image xlink:href="../../images/foreignKeys.png" width="11px" height="12px" preserveAspectRatio="xMinYMin meet" x="305.5" y="-445.2"/>
<text text-anchor="start" x="329.5" y="-435.3" font-family="Helvetica,sans-Serif" font-size="11.00" fill="#000000">basket_id</text>
<polygon fill="#ffffff" stroke="transparent" points="300.5,-406.2 300.5,-428.2 539.5,-428.2 539.5,-406.2 300.5,-406.2"/>
<polygon fill="none" stroke="#000000" points="300.5,-406.2 300.5,-428.2 539.5,-428.2 539.5,-406.2 300.5,-406.2"/>
<text text-anchor="start" x="329.5" y="-413.3" font-family="Helvetica,sans-Serif" font-size="11.00" fill="#000000">active</text>
<polygon fill="none" stroke="#000000" points="300.5,-387.2 300.5,-406.2 539.5,-406.2 539.5,-387.2 300.5,-387.2"/>
<text text-anchor="start" x="303.5" y="-393.3" font-family="Helvetica,sans-Serif" font-size="11.00" fill="#000000">...</text>
<polygon fill="#ffffff" stroke="transparent" points="300.5,-368.2 300.5,-387.2 418.5,-387.2 418.5,-368.2 300.5,-368.2"/>
<polygon fill="none" stroke="#000000" points="300.5,-368.2 300.5,-387.2 418.5,-387.2 418.5,-368.2 300.5,-368.2"/>
<text text-anchor="start" x="303.5" y="-374.3" font-family="Helvetica,sans-Serif" font-size="11.00" fill="#000000">&lt; 2</text>
<polygon fill="#ffffff" stroke="transparent" points="418.5,-368.2 418.5,-387.2 478.5,-387.2 478.5,-368.2 418.5,-368.2"/>
<polygon fill="none" stroke="#000000" points="418.5,-368.2 418.5,-387.2 478.5,-387.2 478.5,-368.2 418.5,-368.2"/>
<text text-anchor="start" x="469.3862" y="-374.3" font-family="Helvetica,sans-Serif" font-size="11.00" fill="#000000"> &#160;</text>
<polygon fill="#ffffff" stroke="transparent" points="478.5,-368.2 478.5,-387.2 539.5,-387.2 539.5,-368.2 478.5,-368.2"/>
<polygon fill="none" stroke="#000000" points="478.5,-368.2 478.5,-387.2 539.5,-387.2 539.5,-368.2 478.5,-368.2"/>
<text text-anchor="start" x="530.3862" y="-374.3" font-family="Helvetica,sans-Serif" font-size="11.00" fill="#000000"> &#160;</text>
</a>
</g>
</g>
<!-- basket_portfolio_constituents&#45;&gt;basket_definitions -->
<g id="edge2" class="edge">
<title>basket_portfolio_constituents:w&#45;&gt;basket_definitions:e</title>
<path fill="none" stroke="#000000" d="M286.5931,-435.463C259.2305,-416.7584 295.5031,-334.2 249.5,-334.2"/>
<polygon fill="#000000" stroke="#000000" points="292.7741,-437.1239 299.5657,-442.6767 296.637,-438.1619 300.5,-439.2 300.5,-439.2 300.5,-439.2 296.637,-438.1619 301.4343,-435.7233 292.7741,-437.1239 292.7741,-437.1239"/>
<ellipse fill="none" stroke="#000000" cx="289.6837" cy="-436.2934" rx="3.2" ry="3.2"/>
</g>
<!-- cds_portfolios -->
<g id="node4" class="node">
<title>cds_portfolios</title>
<g id="a_node4"><a xlink:href="../../tables/cds_portfolios.html" xlink:title="cds_portfolios" target="_top">
<polygon fill="#ffffff" stroke="transparent" points="63,-433.7 63,-494.7 196,-494.7 196,-433.7 63,-433.7"/>
<polygon fill="#f5f5f5" stroke="transparent" points="63.5,-471.2 63.5,-494.2 196.5,-494.2 196.5,-471.2 63.5,-471.2"/>
<polygon fill="none" stroke="#000000" points="63.5,-471.2 63.5,-494.2 196.5,-494.2 196.5,-471.2 63.5,-471.2"/>
<text text-anchor="start" x="68.5" y="-479.8" font-family="Helvetica,sans-Serif" font-weight="bold" font-size="11.00" fill="#000000">cds_portfolios</text>
<text text-anchor="start" x="162.0219" y="-479.3" font-family="Helvetica,sans-Serif" font-size="11.00" fill="#000000">[table]</text>
<polygon fill="none" stroke="#000000" points="63.5,-452.2 63.5,-471.2 196.5,-471.2 196.5,-452.2 63.5,-452.2"/>
<text text-anchor="start" x="66.5" y="-458.3" font-family="Helvetica,sans-Serif" font-size="11.00" fill="#000000">...</text>
<polygon fill="#ffffff" stroke="transparent" points="63.5,-433.2 63.5,-452.2 119.5,-452.2 119.5,-433.2 63.5,-433.2"/>
<polygon fill="none" stroke="#000000" points="63.5,-433.2 63.5,-452.2 119.5,-452.2 119.5,-433.2 63.5,-433.2"/>
<text text-anchor="start" x="66.5" y="-439.3" font-family="Helvetica,sans-Serif" font-size="11.00" fill="#000000"> &#160;</text>
<polygon fill="#ffffff" stroke="transparent" points="119.5,-433.2 119.5,-452.2 153.5,-452.2 153.5,-433.2 119.5,-433.2"/>
<polygon fill="none" stroke="#000000" points="119.5,-433.2 119.5,-452.2 153.5,-452.2 153.5,-433.2 119.5,-433.2"/>
<text text-anchor="start" x="144.3862" y="-439.3" font-family="Helvetica,sans-Serif" font-size="11.00" fill="#000000"> &#160;</text>
<polygon fill="#ffffff" stroke="transparent" points="153.5,-433.2 153.5,-452.2 196.5,-452.2 196.5,-433.2 153.5,-433.2"/>
<polygon fill="none" stroke="#000000" points="153.5,-433.2 153.5,-452.2 196.5,-452.2 196.5,-433.2 153.5,-433.2"/>
<text text-anchor="start" x="177.9053" y="-439.3" font-family="Helvetica,sans-Serif" font-size="11.00" fill="#000000">5 &gt;</text>
</a>
</g>
</g>
<!-- basket_portfolio_constituents&#45;&gt;cds_portfolios -->
<g id="edge3" class="edge">
<title>basket_portfolio_constituents:w&#45;&gt;cds_portfolios:e</title>
<path fill="none" stroke="#000000" d="M286.0255,-461.2C251.2149,-461.2 237.4861,-461.2 196.5,-461.2"/>
<polygon fill="#000000" stroke="#000000" points="292.5,-461.2001 300.5,-464.8 296.5,-461.2 300.5,-461.2 300.5,-461.2 300.5,-461.2 296.5,-461.2 300.5,-457.6 292.5,-461.2001 292.5,-461.2001"/>
<ellipse fill="none" stroke="#000000" cx="289.3" cy="-461.2001" rx="3.2" ry="3.2"/>
</g>
</g>
</svg>
