<?xml version="1.0" encoding="UTF-8" standalone="no"?>
<!DOCTYPE svg PUBLIC "-//W3C//DTD SVG 1.1//EN"
 "http://www.w3.org/Graphics/SVG/1.1/DTD/svg11.dtd">
<!-- Generated by graphviz version 2.40.1 (20161225.0304)
 -->
<!-- Title: oneDegreeRelationshipsDiagram Pages: 1 -->
<svg width="555pt" height="499pt"
 viewBox="0.00 0.00 555.00 498.70" xmlns="http://www.w3.org/2000/svg" xmlns:xlink="http://www.w3.org/1999/xlink">
<g id="graph0" class="graph" transform="scale(1 1) rotate(0) translate(4 494.7)">
<title>oneDegreeRelationshipsDiagram</title>
<polygon fill="#ffffff" stroke="transparent" points="-4,4 -4,-494.7 551,-494.7 551,4 -4,4"/>
<text text-anchor="middle" x="72.4936" y="-7.3" font-family="Helvetica,sans-Serif" font-size="11.00" fill="#000000">Generated by SchemaSpy</text>
<!-- basket_constituents -->
<g id="node1" class="node">
<title>basket_constituents</title>
<g id="a_node1"><a xlink:href="../../tables/basket_constituents.html" xlink:title="basket_constituents" target="_top">
<polygon fill="#ffffff" stroke="transparent" points="332,-337.7 332,-486.7 507,-486.7 507,-337.7 332,-337.7"/>
<polygon fill="#f5f5f5" stroke="transparent" points="332.5,-463.2 332.5,-486.2 507.5,-486.2 507.5,-463.2 332.5,-463.2"/>
<polygon fill="none" stroke="#000000" points="332.5,-463.2 332.5,-486.2 507.5,-486.2 507.5,-463.2 332.5,-463.2"/>
<text text-anchor="start" x="337.5" y="-471.8" font-family="Helvetica,sans-Serif" font-weight="bold" font-size="11.00" fill="#000000">basket_constituents</text>
<text text-anchor="start" x="473.0219" y="-471.3" font-family="Helvetica,sans-Serif" font-size="11.00" fill="#000000">[table]</text>
<polygon fill="none" stroke="#000000" points="332.5,-441.2 332.5,-463.2 507.5,-463.2 507.5,-441.2 332.5,-441.2"/>
<image xlink:href="../../images/primaryKeys.png" width="11px" height="12px" preserveAspectRatio="xMinYMin meet" x="337.5" y="-458.2"/>
<text text-anchor="start" x="361.5" y="-448.3" font-family="Helvetica,sans-Serif" font-size="11.00" fill="#000000">id</text>
<polygon fill="#ffffff" stroke="transparent" points="332.5,-419.2 332.5,-441.2 507.5,-441.2 507.5,-419.2 332.5,-419.2"/>
<polygon fill="none" stroke="#000000" points="332.5,-419.2 332.5,-441.2 507.5,-441.2 507.5,-419.2 332.5,-419.2"/>
<image xlink:href="../../images/foreignKeys.png" width="11px" height="12px" preserveAspectRatio="xMinYMin meet" x="337.5" y="-436.2"/>
<text text-anchor="start" x="361.5" y="-426.3" font-family="Helvetica,sans-Serif" font-size="11.00" fill="#000000">basket_id</text>
<polygon fill="#ffffff" stroke="transparent" points="332.5,-397.2 332.5,-419.2 507.5,-419.2 507.5,-397.2 332.5,-397.2"/>
<polygon fill="none" stroke="#000000" points="332.5,-397.2 332.5,-419.2 507.5,-419.2 507.5,-397.2 332.5,-397.2"/>
<text text-anchor="start" x="361.5" y="-404.3" font-family="Helvetica,sans-Serif" font-size="11.00" fill="#000000">issuer</text>
<polygon fill="#ffffff" stroke="transparent" points="332.5,-375.2 332.5,-397.2 507.5,-397.2 507.5,-375.2 332.5,-375.2"/>
<polygon fill="none" stroke="#000000" points="332.5,-375.2 332.5,-397.2 507.5,-397.2 507.5,-375.2 332.5,-375.2"/>
<text text-anchor="start" x="361.5" y="-382.3" font-family="Helvetica,sans-Serif" font-size="11.00" fill="#000000">sector</text>
<polygon fill="none" stroke="#000000" points="332.5,-356.2 332.5,-375.2 507.5,-375.2 507.5,-356.2 332.5,-356.2"/>
<text text-anchor="start" x="335.5" y="-362.3" font-family="Helvetica,sans-Serif" font-size="11.00" fill="#000000">...</text>
<polygon fill="#ffffff" stroke="transparent" points="332.5,-337.2 332.5,-356.2 418.5,-356.2 418.5,-337.2 332.5,-337.2"/>
<polygon fill="none" stroke="#000000" points="332.5,-337.2 332.5,-356.2 418.5,-356.2 418.5,-337.2 332.5,-337.2"/>
<text text-anchor="start" x="335.5" y="-343.3" font-family="Helvetica,sans-Serif" font-size="11.00" fill="#000000">&lt; 1</text>
<polygon fill="#ffffff" stroke="transparent" points="418.5,-337.2 418.5,-356.2 462.5,-356.2 462.5,-337.2 418.5,-337.2"/>
<polygon fill="none" stroke="#000000" points="418.5,-337.2 418.5,-356.2 462.5,-356.2 462.5,-337.2 418.5,-337.2"/>
<text text-anchor="start" x="453.3862" y="-343.3" font-family="Helvetica,sans-Serif" font-size="11.00" fill="#000000"> &#160;</text>
<polygon fill="#ffffff" stroke="transparent" points="462.5,-337.2 462.5,-356.2 507.5,-356.2 507.5,-337.2 462.5,-337.2"/>
<polygon fill="none" stroke="#000000" points="462.5,-337.2 462.5,-356.2 507.5,-356.2 507.5,-337.2 462.5,-337.2"/>
<text text-anchor="start" x="498.3862" y="-343.3" font-family="Helvetica,sans-Serif" font-size="11.00" fill="#000000"> &#160;</text>
</a>
</g>
</g>
<!-- basket_definitions -->
<g id="node2" class="node">
<title>basket_definitions</title>
<g id="a_node2"><a xlink:href="../../tables/basket_definitions.html" xlink:title="basket_definitions" target="_top">
<polygon fill="#ffffff" stroke="transparent" points="8,-38.2 8,-370.2 251,-370.2 251,-38.2 8,-38.2"/>
<polygon fill="#f5f5f5" stroke="transparent" points="10.5,-345.2 10.5,-368.2 249.5,-368.2 249.5,-345.2 10.5,-345.2"/>
<polygon fill="none" stroke="#000000" points="10.5,-345.2 10.5,-368.2 249.5,-368.2 249.5,-345.2 10.5,-345.2"/>
<text text-anchor="start" x="15.5" y="-353.8" font-family="Helvetica,sans-Serif" font-weight="bold" font-size="11.00" fill="#000000">basket_definitions</text>
<text text-anchor="start" x="214.5437" y="-353.3" font-family="Helvetica,sans-Serif" font-size="11.00" fill="#000000">[table]</text>
<polygon fill="none" stroke="#000000" points="10.5,-323.2 10.5,-345.2 165.5,-345.2 165.5,-323.2 10.5,-323.2"/>
<image xlink:href="../../images/primaryKeys.png" width="11px" height="12px" preserveAspectRatio="xMinYMin meet" x="15.5" y="-340.2"/>
<text text-anchor="start" x="30.5" y="-330.3" font-family="Helvetica,sans-Serif" font-size="11.00" fill="#000000">id</text>
<polygon fill="none" stroke="#000000" points="165.5,-323.2 165.5,-345.2 249.5,-345.2 249.5,-323.2 165.5,-323.2"/>
<text text-anchor="start" x="168.5" y="-330.9" font-family="Helvetica,sans-Serif" font-size="11.00" fill="#000000">bigserial[19]</text>
<polygon fill="#ffffff" stroke="transparent" points="10.5,-301.2 10.5,-323.2 165.5,-323.2 165.5,-301.2 10.5,-301.2"/>
<polygon fill="none" stroke="#000000" points="10.5,-301.2 10.5,-323.2 165.5,-323.2 165.5,-301.2 10.5,-301.2"/>
<text text-anchor="start" x="30.5" y="-308.3" font-family="Helvetica,sans-Serif" font-size="11.00" fill="#000000">name</text>
<polygon fill="none" stroke="#000000" points="165.5,-301.2 165.5,-323.2 249.5,-323.2 249.5,-301.2 165.5,-301.2"/>
<text text-anchor="start" x="168.5" y="-308.9" font-family="Helvetica,sans-Serif" font-size="11.00" fill="#000000">varchar[80]</text>
<polygon fill="#ffffff" stroke="transparent" points="10.5,-279.2 10.5,-301.2 165.5,-301.2 165.5,-279.2 10.5,-279.2"/>
<polygon fill="none" stroke="#000000" points="10.5,-279.2 10.5,-301.2 165.5,-301.2 165.5,-279.2 10.5,-279.2"/>
<text text-anchor="start" x="30.5" y="-286.3" font-family="Helvetica,sans-Serif" font-size="11.00" fill="#000000">type</text>
<polygon fill="none" stroke="#000000" points="165.5,-279.2 165.5,-301.2 249.5,-301.2 249.5,-279.2 165.5,-279.2"/>
<text text-anchor="start" x="168.5" y="-286.9" font-family="Helvetica,sans-Serif" font-size="11.00" fill="#000000">varchar[20]</text>
<polygon fill="none" stroke="#000000" points="10.5,-257.2 10.5,-279.2 165.5,-279.2 165.5,-257.2 10.5,-257.2"/>
<text text-anchor="start" x="30.5" y="-264.3" font-family="Helvetica,sans-Serif" font-size="11.00" fill="#000000">nth</text>
<polygon fill="none" stroke="#000000" points="165.5,-257.2 165.5,-279.2 249.5,-279.2 249.5,-257.2 165.5,-257.2"/>
<text text-anchor="start" x="168.5" y="-264.9" font-family="Helvetica,sans-Serif" font-size="11.00" fill="#000000">int4[10]</text>
<polygon fill="none" stroke="#000000" points="10.5,-235.2 10.5,-257.2 165.5,-257.2 165.5,-235.2 10.5,-235.2"/>
<text text-anchor="start" x="30.5" y="-242.3" font-family="Helvetica,sans-Serif" font-size="11.00" fill="#000000">attachment_point</text>
<polygon fill="none" stroke="#000000" points="165.5,-235.2 165.5,-257.2 249.5,-257.2 249.5,-235.2 165.5,-235.2"/>
<text text-anchor="start" x="168.5" y="-242.9" font-family="Helvetica,sans-Serif" font-size="11.00" fill="#000000">numeric[9,6]</text>
<polygon fill="none" stroke="#000000" points="10.5,-213.2 10.5,-235.2 165.5,-235.2 165.5,-213.2 10.5,-213.2"/>
<text text-anchor="start" x="30.5" y="-220.3" font-family="Helvetica,sans-Serif" font-size="11.00" fill="#000000">detachment_point</text>
<polygon fill="none" stroke="#000000" points="165.5,-213.2 165.5,-235.2 249.5,-235.2 249.5,-213.2 165.5,-213.2"/>
<text text-anchor="start" x="168.5" y="-220.9" font-family="Helvetica,sans-Serif" font-size="11.00" fill="#000000">numeric[9,6]</text>
<polygon fill="none" stroke="#000000" points="10.5,-191.2 10.5,-213.2 165.5,-213.2 165.5,-191.2 10.5,-191.2"/>
<text text-anchor="start" x="30.5" y="-198.3" font-family="Helvetica,sans-Serif" font-size="11.00" fill="#000000">premium_frequency</text>
<polygon fill="none" stroke="#000000" points="165.5,-191.2 165.5,-213.2 249.5,-213.2 249.5,-191.2 165.5,-191.2"/>
<text text-anchor="start" x="168.5" y="-198.9" font-family="Helvetica,sans-Serif" font-size="11.00" fill="#000000">varchar[20]</text>
<polygon fill="none" stroke="#000000" points="10.5,-169.2 10.5,-191.2 165.5,-191.2 165.5,-169.2 10.5,-169.2"/>
<text text-anchor="start" x="30.5" y="-176.3" font-family="Helvetica,sans-Serif" font-size="11.00" fill="#000000">day_count</text>
<polygon fill="none" stroke="#000000" points="165.5,-169.2 165.5,-191.2 249.5,-191.2 249.5,-169.2 165.5,-169.2"/>
<text text-anchor="start" x="168.5" y="-176.9" font-family="Helvetica,sans-Serif" font-size="11.00" fill="#000000">varchar[20]</text>
<polygon fill="#ffffff" stroke="transparent" points="10.5,-147.2 10.5,-169.2 165.5,-169.2 165.5,-147.2 10.5,-147.2"/>
<polygon fill="none" stroke="#000000" points="10.5,-147.2 10.5,-169.2 165.5,-169.2 165.5,-147.2 10.5,-147.2"/>
<text text-anchor="start" x="30.5" y="-154.3" font-family="Helvetica,sans-Serif" font-size="11.00" fill="#000000">currency</text>
<polygon fill="none" stroke="#000000" points="165.5,-147.2 165.5,-169.2 249.5,-169.2 249.5,-147.2 165.5,-147.2"/>
<text text-anchor="start" x="168.5" y="-154.9" font-family="Helvetica,sans-Serif" font-size="11.00" fill="#000000">varchar[3]</text>
<polygon fill="none" stroke="#000000" points="10.5,-125.2 10.5,-147.2 165.5,-147.2 165.5,-125.2 10.5,-125.2"/>
<text text-anchor="start" x="30.5" y="-132.3" font-family="Helvetica,sans-Serif" font-size="11.00" fill="#000000">notional</text>
<polygon fill="none" stroke="#000000" points="165.5,-125.2 165.5,-147.2 249.5,-147.2 249.5,-125.2 165.5,-125.2"/>
<text text-anchor="start" x="168.5" y="-132.9" font-family="Helvetica,sans-Serif" font-size="11.00" fill="#000000">numeric[18,2]</text>
<polygon fill="#ffffff" stroke="transparent" points="10.5,-103.2 10.5,-125.2 165.5,-125.2 165.5,-103.2 10.5,-103.2"/>
<polygon fill="none" stroke="#000000" points="10.5,-103.2 10.5,-125.2 165.5,-125.2 165.5,-103.2 10.5,-103.2"/>
<text text-anchor="start" x="30.5" y="-110.3" font-family="Helvetica,sans-Serif" font-size="11.00" fill="#000000">maturity_date</text>
<polygon fill="none" stroke="#000000" points="165.5,-103.2 165.5,-125.2 249.5,-125.2 249.5,-103.2 165.5,-103.2"/>
<text text-anchor="start" x="168.5" y="-110.9" font-family="Helvetica,sans-Serif" font-size="11.00" fill="#000000">date[13]</text>
<polygon fill="none" stroke="#000000" points="10.5,-81.2 10.5,-103.2 165.5,-103.2 165.5,-81.2 10.5,-81.2"/>
<text text-anchor="start" x="30.5" y="-88.3" font-family="Helvetica,sans-Serif" font-size="11.00" fill="#000000">created_at</text>
<polygon fill="none" stroke="#000000" points="165.5,-81.2 165.5,-103.2 249.5,-103.2 249.5,-81.2 165.5,-81.2"/>
<text text-anchor="start" x="168.3807" y="-88.9" font-family="Helvetica,sans-Serif" font-size="11.00" fill="#000000">timestamp[29,6]</text>
<polygon fill="none" stroke="#000000" points="10.5,-59.2 10.5,-81.2 165.5,-81.2 165.5,-59.2 10.5,-59.2"/>
<text text-anchor="start" x="30.5" y="-66.3" font-family="Helvetica,sans-Serif" font-size="11.00" fill="#000000">updated_at</text>
<polygon fill="none" stroke="#000000" points="165.5,-59.2 165.5,-81.2 249.5,-81.2 249.5,-59.2 165.5,-59.2"/>
<text text-anchor="start" x="168.3807" y="-66.9" font-family="Helvetica,sans-Serif" font-size="11.00" fill="#000000">timestamp[29,6]</text>
<polygon fill="#ffffff" stroke="transparent" points="10.5,-40.2 10.5,-59.2 92.5,-59.2 92.5,-40.2 10.5,-40.2"/>
<polygon fill="none" stroke="#000000" points="10.5,-40.2 10.5,-59.2 92.5,-59.2 92.5,-40.2 10.5,-40.2"/>
<text text-anchor="start" x="13.5" y="-46.3" font-family="Helvetica,sans-Serif" font-size="11.00" fill="#000000">&lt; 0</text>
<polygon fill="#ffffff" stroke="transparent" points="92.5,-40.2 92.5,-59.2 165.5,-59.2 165.5,-40.2 92.5,-40.2"/>
<polygon fill="none" stroke="#000000" points="92.5,-40.2 92.5,-59.2 165.5,-59.2 165.5,-40.2 92.5,-40.2"/>
<text text-anchor="start" x="156.3862" y="-46.3" font-family="Helvetica,sans-Serif" font-size="11.00" fill="#000000"> &#160;</text>
<polygon fill="#ffffff" stroke="transparent" points="165.5,-40.2 165.5,-59.2 249.5,-59.2 249.5,-40.2 165.5,-40.2"/>
<polygon fill="none" stroke="#000000" points="165.5,-40.2 165.5,-59.2 249.5,-59.2 249.5,-40.2 165.5,-40.2"/>
<text text-anchor="start" x="230.9053" y="-46.3" font-family="Helvetica,sans-Serif" font-size="11.00" fill="#000000">2 &gt;</text>
<polygon fill="none" stroke="#000000" stroke-width="2" points="9,-39.2 9,-369.2 250,-369.2 250,-39.2 9,-39.2"/>
</a>
</g>
</g>
<!-- basket_constituents&#45;&gt;basket_definitions -->
<g id="edge1" class="edge">
<title>basket_constituents:w&#45;&gt;basket_definitions:e</title>
<path fill="none" stroke="#000000" d="M318.2817,-427.6322C281.0967,-412.3655 300.3944,-334.2 249.5,-334.2"/>
<polygon fill="#000000" stroke="#000000" points="324.6274,-428.7782 331.8602,-433.7427 328.5637,-429.4891 332.5,-430.2 332.5,-430.2 332.5,-430.2 328.5637,-429.4891 333.1398,-426.6573 324.6274,-428.7782 324.6274,-428.7782"/>
<ellipse fill="none" stroke="#000000" cx="321.4783" cy="-428.2095" rx="3.2" ry="3.2"/>
</g>
<!-- basket_portfolio_constituents -->
<g id="node3" class="node">
<title>basket_portfolio_constituents</title>
<g id="a_node3"><a xlink:href="../../tables/basket_portfolio_constituents.html" xlink:title="basket_portfolio_constituents" target="_top">
<polygon fill="#ffffff" stroke="transparent" points="300,-167.7 300,-316.7 539,-316.7 539,-167.7 300,-167.7"/>
<polygon fill="#f5f5f5" stroke="transparent" points="300.5,-293.2 300.5,-316.2 539.5,-316.2 539.5,-293.2 300.5,-293.2"/>
<polygon fill="none" stroke="#000000" points="300.5,-293.2 300.5,-316.2 539.5,-316.2 539.5,-293.2 300.5,-293.2"/>
<text text-anchor="start" x="305.5" y="-301.8" font-family="Helvetica,sans-Serif" font-weight="bold" font-size="11.00" fill="#000000">basket_portfolio_constituents</text>
<text text-anchor="start" x="505.0219" y="-301.3" font-family="Helvetica,sans-Serif" font-size="11.00" fill="#000000">[table]</text>
<polygon fill="none" stroke="#000000" points="300.5,-271.2 300.5,-293.2 539.5,-293.2 539.5,-271.2 300.5,-271.2"/>
<image xlink:href="../../images/primaryKeys.png" width="11px" height="12px" preserveAspectRatio="xMinYMin meet" x="305.5" y="-288.2"/>
<text text-anchor="start" x="329.5" y="-278.3" font-family="Helvetica,sans-Serif" font-size="11.00" fill="#000000">id</text>
<polygon fill="#ffffff" stroke="transparent" points="300.5,-249.2 300.5,-271.2 539.5,-271.2 539.5,-249.2 300.5,-249.2"/>
<polygon fill="none" stroke="#000000" points="300.5,-249.2 300.5,-271.2 539.5,-271.2 539.5,-249.2 300.5,-249.2"/>
<image xlink:href="../../images/foreignKeys.png" width="11px" height="12px" preserveAspectRatio="xMinYMin meet" x="305.5" y="-266.2"/>
<text text-anchor="start" x="329.5" y="-256.3" font-family="Helvetica,sans-Serif" font-size="11.00" fill="#000000">portfolio_id</text>
<polygon fill="#ffffff" stroke="transparent" points="300.5,-227.2 300.5,-249.2 539.5,-249.2 539.5,-227.2 300.5,-227.2"/>
<polygon fill="none" stroke="#000000" points="300.5,-227.2 300.5,-249.2 539.5,-249.2 539.5,-227.2 300.5,-227.2"/>
<image xlink:href="../../images/foreignKeys.png" width="11px" height="12px" preserveAspectRatio="xMinYMin meet" x="305.5" y="-244.2"/>
<text text-anchor="start" x="329.5" y="-234.3" font-family="Helvetica,sans-Serif" font-size="11.00" fill="#000000">basket_id</text>
<polygon fill="#ffffff" stroke="transparent" points="300.5,-205.2 300.5,-227.2 539.5,-227.2 539.5,-205.2 300.5,-205.2"/>
<polygon fill="none" stroke="#000000" points="300.5,-205.2 300.5,-227.2 539.5,-227.2 539.5,-205.2 300.5,-205.2"/>
<text text-anchor="start" x="329.5" y="-212.3" font-family="Helvetica,sans-Serif" font-size="11.00" fill="#000000">active</text>
<polygon fill="none" stroke="#000000" points="300.5,-186.2 300.5,-205.2 539.5,-205.2 539.5,-186.2 300.5,-186.2"/>
<text text-anchor="start" x="303.5" y="-192.3" font-family="Helvetica,sans-Serif" font-size="11.00" fill="#000000">...</text>
<polygon fill="#ffffff" stroke="transparent" points="300.5,-167.2 300.5,-186.2 418.5,-186.2 418.5,-167.2 300.5,-167.2"/>
<polygon fill="none" stroke="#000000" points="300.5,-167.2 300.5,-186.2 418.5,-186.2 418.5,-167.2 300.5,-167.2"/>
<text text-anchor="start" x="303.5" y="-173.3" font-family="Helvetica,sans-Serif" font-size="11.00" fill="#000000">&lt; 2</text>
<polygon fill="#ffffff" stroke="transparent" points="418.5,-167.2 418.5,-186.2 478.5,-186.2 478.5,-167.2 418.5,-167.2"/>
<polygon fill="none" stroke="#000000" points="418.5,-167.2 418.5,-186.2 478.5,-186.2 478.5,-167.2 418.5,-167.2"/>
<text text-anchor="start" x="469.3862" y="-173.3" font-family="Helvetica,sans-Serif" font-size="11.00" fill="#000000"> &#160;</text>
<polygon fill="#ffffff" stroke="transparent" points="478.5,-167.2 478.5,-186.2 539.5,-186.2 539.5,-167.2 478.5,-167.2"/>
<polygon fill="none" stroke="#000000" points="478.5,-167.2 478.5,-186.2 539.5,-186.2 539.5,-167.2 478.5,-167.2"/>
<text text-anchor="start" x="530.3862" y="-173.3" font-family="Helvetica,sans-Serif" font-size="11.00" fill="#000000"> &#160;</text>
</a>
</g>
</g>
<!-- basket_portfolio_constituents&#45;&gt;basket_definitions -->
<g id="edge2" class="edge">
<title>basket_portfolio_constituents:w&#45;&gt;basket_definitions:e</title>
<path fill="none" stroke="#000000" d="M286.4189,-242.325C262.1253,-260.7 291.7746,-334.2 249.5,-334.2"/>
<polygon fill="#000000" stroke="#000000" points="292.8226,-240.4491 301.5121,-241.6548 296.6613,-239.3245 300.5,-238.2 300.5,-238.2 300.5,-238.2 296.6613,-239.3245 299.4879,-234.7452 292.8226,-240.4491 292.8226,-240.4491"/>
<ellipse fill="none" stroke="#000000" cx="289.7517" cy="-241.3487" rx="3.2" ry="3.2"/>
</g>
</g>
</svg>
