<?xml version="1.0" encoding="UTF-8" standalone="no"?>
<!DOCTYPE svg PUBLIC "-//W3C//DTD SVG 1.1//EN"
 "http://www.w3.org/Graphics/SVG/1.1/DTD/svg11.dtd">
<!-- Generated by graphviz version 2.40.1 (20161225.0304)
 -->
<!-- Title: twoDegreesRelationshipsDiagram Pages: 1 -->
<svg width="545pt" height="661pt"
 viewBox="0.00 0.00 545.00 661.20" xmlns="http://www.w3.org/2000/svg" xmlns:xlink="http://www.w3.org/1999/xlink">
<g id="graph0" class="graph" transform="scale(1 1) rotate(0) translate(4 657.2)">
<title>twoDegreesRelationshipsDiagram</title>
<polygon fill="#ffffff" stroke="transparent" points="-4,4 -4,-657.2 541,-657.2 541,4 -4,4"/>
<text text-anchor="middle" x="72.4936" y="-7.3" font-family="Helvetica,sans-Serif" font-size="11.00" fill="#000000">Generated by SchemaSpy</text>
<!-- basket_constituents -->
<g id="node1" class="node">
<title>basket_constituents</title>
<g id="a_node1"><a xlink:href="../../tables/basket_constituents.html" xlink:title="basket_constituents" target="_top">
<polygon fill="#ffffff" stroke="transparent" points="287,-588.2 287,-649.2 462,-649.2 462,-588.2 287,-588.2"/>
<polygon fill="#f5f5f5" stroke="transparent" points="287.5,-625.7 287.5,-648.7 462.5,-648.7 462.5,-625.7 287.5,-625.7"/>
<polygon fill="none" stroke="#000000" points="287.5,-625.7 287.5,-648.7 462.5,-648.7 462.5,-625.7 287.5,-625.7"/>
<text text-anchor="start" x="292.5" y="-634.3" font-family="Helvetica,sans-Serif" font-weight="bold" font-size="11.00" fill="#000000">basket_constituents</text>
<text text-anchor="start" x="428.0219" y="-633.8" font-family="Helvetica,sans-Serif" font-size="11.00" fill="#000000">[table]</text>
<polygon fill="none" stroke="#000000" points="287.5,-606.7 287.5,-625.7 462.5,-625.7 462.5,-606.7 287.5,-606.7"/>
<text text-anchor="start" x="290.5" y="-612.8" font-family="Helvetica,sans-Serif" font-size="11.00" fill="#000000">...</text>
<polygon fill="#ffffff" stroke="transparent" points="287.5,-587.7 287.5,-606.7 373.5,-606.7 373.5,-587.7 287.5,-587.7"/>
<polygon fill="none" stroke="#000000" points="287.5,-587.7 287.5,-606.7 373.5,-606.7 373.5,-587.7 287.5,-587.7"/>
<text text-anchor="start" x="290.5" y="-593.8" font-family="Helvetica,sans-Serif" font-size="11.00" fill="#000000">&lt; 1</text>
<polygon fill="#ffffff" stroke="transparent" points="373.5,-587.7 373.5,-606.7 417.5,-606.7 417.5,-587.7 373.5,-587.7"/>
<polygon fill="none" stroke="#000000" points="373.5,-587.7 373.5,-606.7 417.5,-606.7 417.5,-587.7 373.5,-587.7"/>
<text text-anchor="start" x="408.3862" y="-593.8" font-family="Helvetica,sans-Serif" font-size="11.00" fill="#000000"> &#160;</text>
<polygon fill="#ffffff" stroke="transparent" points="417.5,-587.7 417.5,-606.7 462.5,-606.7 462.5,-587.7 417.5,-587.7"/>
<polygon fill="none" stroke="#000000" points="417.5,-587.7 417.5,-606.7 462.5,-606.7 462.5,-587.7 417.5,-587.7"/>
<text text-anchor="start" x="453.3862" y="-593.8" font-family="Helvetica,sans-Serif" font-size="11.00" fill="#000000"> &#160;</text>
</a>
</g>
</g>
<!-- basket_definitions -->
<g id="node2" class="node">
<title>basket_definitions</title>
<g id="a_node2"><a xlink:href="../../tables/basket_definitions.html" xlink:title="basket_definitions" target="_top">
<polygon fill="#ffffff" stroke="transparent" points="8,-414.2 8,-585.2 171,-585.2 171,-414.2 8,-414.2"/>
<polygon fill="#f5f5f5" stroke="transparent" points="8.5,-561.7 8.5,-584.7 171.5,-584.7 171.5,-561.7 8.5,-561.7"/>
<polygon fill="none" stroke="#000000" points="8.5,-561.7 8.5,-584.7 171.5,-584.7 171.5,-561.7 8.5,-561.7"/>
<text text-anchor="start" x="13.5" y="-570.3" font-family="Helvetica,sans-Serif" font-weight="bold" font-size="11.00" fill="#000000">basket_definitions</text>
<text text-anchor="start" x="137.0219" y="-569.8" font-family="Helvetica,sans-Serif" font-size="11.00" fill="#000000">[table]</text>
<polygon fill="none" stroke="#000000" points="8.5,-539.7 8.5,-561.7 171.5,-561.7 171.5,-539.7 8.5,-539.7"/>
<image xlink:href="../../images/primaryKeys.png" width="11px" height="12px" preserveAspectRatio="xMinYMin meet" x="13.5" y="-556.7"/>
<text text-anchor="start" x="32.5" y="-546.8" font-family="Helvetica,sans-Serif" font-size="11.00" fill="#000000">id</text>
<polygon fill="#ffffff" stroke="transparent" points="8.5,-517.7 8.5,-539.7 171.5,-539.7 171.5,-517.7 8.5,-517.7"/>
<polygon fill="none" stroke="#000000" points="8.5,-517.7 8.5,-539.7 171.5,-539.7 171.5,-517.7 8.5,-517.7"/>
<text text-anchor="start" x="32.5" y="-524.8" font-family="Helvetica,sans-Serif" font-size="11.00" fill="#000000">name</text>
<polygon fill="#ffffff" stroke="transparent" points="8.5,-495.7 8.5,-517.7 171.5,-517.7 171.5,-495.7 8.5,-495.7"/>
<polygon fill="none" stroke="#000000" points="8.5,-495.7 8.5,-517.7 171.5,-517.7 171.5,-495.7 8.5,-495.7"/>
<text text-anchor="start" x="32.5" y="-502.8" font-family="Helvetica,sans-Serif" font-size="11.00" fill="#000000">type</text>
<polygon fill="#ffffff" stroke="transparent" points="8.5,-473.7 8.5,-495.7 171.5,-495.7 171.5,-473.7 8.5,-473.7"/>
<polygon fill="none" stroke="#000000" points="8.5,-473.7 8.5,-495.7 171.5,-495.7 171.5,-473.7 8.5,-473.7"/>
<text text-anchor="start" x="32.5" y="-480.8" font-family="Helvetica,sans-Serif" font-size="11.00" fill="#000000">currency</text>
<polygon fill="#ffffff" stroke="transparent" points="8.5,-451.7 8.5,-473.7 171.5,-473.7 171.5,-451.7 8.5,-451.7"/>
<polygon fill="none" stroke="#000000" points="8.5,-451.7 8.5,-473.7 171.5,-473.7 171.5,-451.7 8.5,-451.7"/>
<text text-anchor="start" x="32.5" y="-458.8" font-family="Helvetica,sans-Serif" font-size="11.00" fill="#000000">maturity_date</text>
<polygon fill="none" stroke="#000000" points="8.5,-432.7 8.5,-451.7 171.5,-451.7 171.5,-432.7 8.5,-432.7"/>
<text text-anchor="start" x="11.5" y="-438.8" font-family="Helvetica,sans-Serif" font-size="11.00" fill="#000000">...</text>
<polygon fill="#ffffff" stroke="transparent" points="8.5,-413.7 8.5,-432.7 79.5,-432.7 79.5,-413.7 8.5,-413.7"/>
<polygon fill="none" stroke="#000000" points="8.5,-413.7 8.5,-432.7 79.5,-432.7 79.5,-413.7 8.5,-413.7"/>
<text text-anchor="start" x="11.5" y="-419.8" font-family="Helvetica,sans-Serif" font-size="11.00" fill="#000000"> &#160;</text>
<polygon fill="#ffffff" stroke="transparent" points="79.5,-413.7 79.5,-432.7 120.5,-432.7 120.5,-413.7 79.5,-413.7"/>
<polygon fill="none" stroke="#000000" points="79.5,-413.7 79.5,-432.7 120.5,-432.7 120.5,-413.7 79.5,-413.7"/>
<text text-anchor="start" x="111.3862" y="-419.8" font-family="Helvetica,sans-Serif" font-size="11.00" fill="#000000"> &#160;</text>
<polygon fill="#ffffff" stroke="transparent" points="120.5,-413.7 120.5,-432.7 171.5,-432.7 171.5,-413.7 120.5,-413.7"/>
<polygon fill="none" stroke="#000000" points="120.5,-413.7 120.5,-432.7 171.5,-432.7 171.5,-413.7 120.5,-413.7"/>
<text text-anchor="start" x="152.9053" y="-419.8" font-family="Helvetica,sans-Serif" font-size="11.00" fill="#000000">2 &gt;</text>
</a>
</g>
</g>
<!-- basket_constituents&#45;&gt;basket_definitions -->
<g id="edge1" class="edge">
<title>basket_constituents:w&#45;&gt;basket_definitions:e</title>
<path fill="none" stroke="#000000" d="M273.0447,-614.5612C247.7895,-610.1827 239.7739,-593.867 212,-577.7 193.3035,-566.8169 193.1333,-550.7 171.5,-550.7"/>
<polygon fill="#000000" stroke="#000000" points="279.5247,-615.0717 287.2172,-619.2889 283.5124,-615.3858 287.5,-615.7 287.5,-615.7 287.5,-615.7 283.5124,-615.3858 287.7828,-612.1111 279.5247,-615.0717 279.5247,-615.0717"/>
<ellipse fill="none" stroke="#000000" cx="276.3346" cy="-614.8203" rx="3.2" ry="3.2"/>
</g>
<!-- basket_portfolio_constituents -->
<g id="node3" class="node">
<title>basket_portfolio_constituents</title>
<g id="a_node3"><a xlink:href="../../tables/basket_portfolio_constituents.html" xlink:title="basket_portfolio_constituents" target="_top">
<polygon fill="#ffffff" stroke="transparent" points="220,-366.7 220,-566.7 529,-566.7 529,-366.7 220,-366.7"/>
<polygon fill="#f5f5f5" stroke="transparent" points="222.5,-541.7 222.5,-564.7 527.5,-564.7 527.5,-541.7 222.5,-541.7"/>
<polygon fill="none" stroke="#000000" points="222.5,-541.7 222.5,-564.7 527.5,-564.7 527.5,-541.7 222.5,-541.7"/>
<text text-anchor="start" x="227.5" y="-550.3" font-family="Helvetica,sans-Serif" font-weight="bold" font-size="11.00" fill="#000000">basket_portfolio_constituents</text>
<text text-anchor="start" x="492.5437" y="-549.8" font-family="Helvetica,sans-Serif" font-size="11.00" fill="#000000">[table]</text>
<polygon fill="none" stroke="#000000" points="222.5,-519.7 222.5,-541.7 443.5,-541.7 443.5,-519.7 222.5,-519.7"/>
<image xlink:href="../../images/primaryKeys.png" width="11px" height="12px" preserveAspectRatio="xMinYMin meet" x="227.5" y="-536.7"/>
<text text-anchor="start" x="242.5" y="-526.8" font-family="Helvetica,sans-Serif" font-size="11.00" fill="#000000">id</text>
<polygon fill="none" stroke="#000000" points="443.5,-519.7 443.5,-541.7 527.5,-541.7 527.5,-519.7 443.5,-519.7"/>
<text text-anchor="start" x="446.5" y="-527.4" font-family="Helvetica,sans-Serif" font-size="11.00" fill="#000000">bigserial[19]</text>
<polygon fill="#ffffff" stroke="transparent" points="222.5,-497.7 222.5,-519.7 443.5,-519.7 443.5,-497.7 222.5,-497.7"/>
<polygon fill="none" stroke="#000000" points="222.5,-497.7 222.5,-519.7 443.5,-519.7 443.5,-497.7 222.5,-497.7"/>
<image xlink:href="../../images/foreignKeys.png" width="11px" height="12px" preserveAspectRatio="xMinYMin meet" x="227.5" y="-514.7"/>
<text text-anchor="start" x="242.5" y="-504.8" font-family="Helvetica,sans-Serif" font-size="11.00" fill="#000000">portfolio_id</text>
<polygon fill="none" stroke="#000000" points="443.5,-497.7 443.5,-519.7 527.5,-519.7 527.5,-497.7 443.5,-497.7"/>
<text text-anchor="start" x="446.5" y="-505.4" font-family="Helvetica,sans-Serif" font-size="11.00" fill="#000000">int8[19]</text>
<polygon fill="#ffffff" stroke="transparent" points="222.5,-475.7 222.5,-497.7 443.5,-497.7 443.5,-475.7 222.5,-475.7"/>
<polygon fill="none" stroke="#000000" points="222.5,-475.7 222.5,-497.7 443.5,-497.7 443.5,-475.7 222.5,-475.7"/>
<image xlink:href="../../images/foreignKeys.png" width="11px" height="12px" preserveAspectRatio="xMinYMin meet" x="227.5" y="-492.7"/>
<text text-anchor="start" x="242.5" y="-482.8" font-family="Helvetica,sans-Serif" font-size="11.00" fill="#000000">basket_id</text>
<polygon fill="none" stroke="#000000" points="443.5,-475.7 443.5,-497.7 527.5,-497.7 527.5,-475.7 443.5,-475.7"/>
<text text-anchor="start" x="446.5" y="-483.4" font-family="Helvetica,sans-Serif" font-size="11.00" fill="#000000">int8[19]</text>
<polygon fill="none" stroke="#000000" points="222.5,-453.7 222.5,-475.7 443.5,-475.7 443.5,-453.7 222.5,-453.7"/>
<text text-anchor="start" x="242.5" y="-460.8" font-family="Helvetica,sans-Serif" font-size="11.00" fill="#000000">weight_type</text>
<polygon fill="none" stroke="#000000" points="443.5,-453.7 443.5,-475.7 527.5,-475.7 527.5,-453.7 443.5,-453.7"/>
<text text-anchor="start" x="446.5" y="-461.4" font-family="Helvetica,sans-Serif" font-size="11.00" fill="#000000">varchar[20]</text>
<polygon fill="none" stroke="#000000" points="222.5,-431.7 222.5,-453.7 443.5,-453.7 443.5,-431.7 222.5,-431.7"/>
<text text-anchor="start" x="242.5" y="-438.8" font-family="Helvetica,sans-Serif" font-size="11.00" fill="#000000">weight_value</text>
<polygon fill="none" stroke="#000000" points="443.5,-431.7 443.5,-453.7 527.5,-453.7 527.5,-431.7 443.5,-431.7"/>
<text text-anchor="start" x="446.5" y="-439.4" font-family="Helvetica,sans-Serif" font-size="11.00" fill="#000000">numeric[20,4]</text>
<polygon fill="#ffffff" stroke="transparent" points="222.5,-409.7 222.5,-431.7 443.5,-431.7 443.5,-409.7 222.5,-409.7"/>
<polygon fill="none" stroke="#000000" points="222.5,-409.7 222.5,-431.7 443.5,-431.7 443.5,-409.7 222.5,-409.7"/>
<text text-anchor="start" x="242.5" y="-416.8" font-family="Helvetica,sans-Serif" font-size="11.00" fill="#000000">active</text>
<polygon fill="none" stroke="#000000" points="443.5,-409.7 443.5,-431.7 527.5,-431.7 527.5,-409.7 443.5,-409.7"/>
<text text-anchor="start" x="446.5" y="-417.4" font-family="Helvetica,sans-Serif" font-size="11.00" fill="#000000">bool[1]</text>
<polygon fill="none" stroke="#000000" points="222.5,-387.7 222.5,-409.7 443.5,-409.7 443.5,-387.7 222.5,-387.7"/>
<text text-anchor="start" x="242.5" y="-394.8" font-family="Helvetica,sans-Serif" font-size="11.00" fill="#000000">added_at</text>
<polygon fill="none" stroke="#000000" points="443.5,-387.7 443.5,-409.7 527.5,-409.7 527.5,-387.7 443.5,-387.7"/>
<text text-anchor="start" x="446.3807" y="-395.4" font-family="Helvetica,sans-Serif" font-size="11.00" fill="#000000">timestamp[29,6]</text>
<polygon fill="#ffffff" stroke="transparent" points="222.5,-368.7 222.5,-387.7 337.5,-387.7 337.5,-368.7 222.5,-368.7"/>
<polygon fill="none" stroke="#000000" points="222.5,-368.7 222.5,-387.7 337.5,-387.7 337.5,-368.7 222.5,-368.7"/>
<text text-anchor="start" x="225.5" y="-374.8" font-family="Helvetica,sans-Serif" font-size="11.00" fill="#000000">&lt; 2</text>
<polygon fill="#ffffff" stroke="transparent" points="337.5,-368.7 337.5,-387.7 443.5,-387.7 443.5,-368.7 337.5,-368.7"/>
<polygon fill="none" stroke="#000000" points="337.5,-368.7 337.5,-387.7 443.5,-387.7 443.5,-368.7 337.5,-368.7"/>
<text text-anchor="start" x="434.3862" y="-374.8" font-family="Helvetica,sans-Serif" font-size="11.00" fill="#000000"> &#160;</text>
<polygon fill="#ffffff" stroke="transparent" points="443.5,-368.7 443.5,-387.7 527.5,-387.7 527.5,-368.7 443.5,-368.7"/>
<polygon fill="none" stroke="#000000" points="443.5,-368.7 443.5,-387.7 527.5,-387.7 527.5,-368.7 443.5,-368.7"/>
<text text-anchor="start" x="508.9053" y="-374.8" font-family="Helvetica,sans-Serif" font-size="11.00" fill="#000000">0 &gt;</text>
<polygon fill="none" stroke="#000000" stroke-width="2" points="221,-367.7 221,-565.7 528,-565.7 528,-367.7 221,-367.7"/>
</a>
</g>
</g>
<!-- basket_portfolio_constituents&#45;&gt;basket_definitions -->
<g id="edge2" class="edge">
<title>basket_portfolio_constituents:w&#45;&gt;basket_definitions:e</title>
<path fill="none" stroke="#000000" d="M208.7779,-491.3027C191.6988,-505.9773 201.9041,-550.7 171.5,-550.7"/>
<polygon fill="#000000" stroke="#000000" points="214.9153,-489.2441 223.6449,-490.1131 218.7077,-487.9721 222.5,-486.7 222.5,-486.7 222.5,-486.7 218.7077,-487.9721 221.3551,-483.2869 214.9153,-489.2441 214.9153,-489.2441"/>
<ellipse fill="none" stroke="#000000" cx="211.8814" cy="-490.2618" rx="3.2" ry="3.2"/>
</g>
<!-- cds_portfolios -->
<g id="node4" class="node">
<title>cds_portfolios</title>
<g id="a_node4"><a xlink:href="../../tables/cds_portfolios.html" xlink:title="cds_portfolios" target="_top">
<polygon fill="#ffffff" stroke="transparent" points="23,-181.2 23,-264.2 156,-264.2 156,-181.2 23,-181.2"/>
<polygon fill="#f5f5f5" stroke="transparent" points="23.5,-240.7 23.5,-263.7 156.5,-263.7 156.5,-240.7 23.5,-240.7"/>
<polygon fill="none" stroke="#000000" points="23.5,-240.7 23.5,-263.7 156.5,-263.7 156.5,-240.7 23.5,-240.7"/>
<text text-anchor="start" x="28.5" y="-249.3" font-family="Helvetica,sans-Serif" font-weight="bold" font-size="11.00" fill="#000000">cds_portfolios</text>
<text text-anchor="start" x="122.0219" y="-248.8" font-family="Helvetica,sans-Serif" font-size="11.00" fill="#000000">[table]</text>
<polygon fill="none" stroke="#000000" points="23.5,-218.7 23.5,-240.7 156.5,-240.7 156.5,-218.7 23.5,-218.7"/>
<image xlink:href="../../images/primaryKeys.png" width="11px" height="12px" preserveAspectRatio="xMinYMin meet" x="28.5" y="-235.7"/>
<text text-anchor="start" x="52.5" y="-225.8" font-family="Helvetica,sans-Serif" font-size="11.00" fill="#000000">id</text>
<polygon fill="none" stroke="#000000" points="23.5,-199.7 23.5,-218.7 156.5,-218.7 156.5,-199.7 23.5,-199.7"/>
<text text-anchor="start" x="26.5" y="-205.8" font-family="Helvetica,sans-Serif" font-size="11.00" fill="#000000">...</text>
<polygon fill="#ffffff" stroke="transparent" points="23.5,-180.7 23.5,-199.7 79.5,-199.7 79.5,-180.7 23.5,-180.7"/>
<polygon fill="none" stroke="#000000" points="23.5,-180.7 23.5,-199.7 79.5,-199.7 79.5,-180.7 23.5,-180.7"/>
<text text-anchor="start" x="26.5" y="-186.8" font-family="Helvetica,sans-Serif" font-size="11.00" fill="#000000"> &#160;</text>
<polygon fill="#ffffff" stroke="transparent" points="79.5,-180.7 79.5,-199.7 113.5,-199.7 113.5,-180.7 79.5,-180.7"/>
<polygon fill="none" stroke="#000000" points="79.5,-180.7 79.5,-199.7 113.5,-199.7 113.5,-180.7 79.5,-180.7"/>
<text text-anchor="start" x="104.3862" y="-186.8" font-family="Helvetica,sans-Serif" font-size="11.00" fill="#000000"> &#160;</text>
<polygon fill="#ffffff" stroke="transparent" points="113.5,-180.7 113.5,-199.7 156.5,-199.7 156.5,-180.7 113.5,-180.7"/>
<polygon fill="none" stroke="#000000" points="113.5,-180.7 113.5,-199.7 156.5,-199.7 156.5,-180.7 113.5,-180.7"/>
<text text-anchor="start" x="137.9053" y="-186.8" font-family="Helvetica,sans-Serif" font-size="11.00" fill="#000000">5 &gt;</text>
</a>
</g>
</g>
<!-- basket_portfolio_constituents&#45;&gt;cds_portfolios -->
<g id="edge3" class="edge">
<title>basket_portfolio_constituents:w&#45;&gt;cds_portfolios:e</title>
<path fill="none" stroke="#000000" d="M208.9474,-503.1269C168.2233,-463.8046 214.8604,-229.7 156.5,-229.7"/>
<polygon fill="#000000" stroke="#000000" points="215.1012,-505.6574 221.1308,-512.0295 218.8006,-507.1787 222.5,-508.7 222.5,-508.7 222.5,-508.7 218.8006,-507.1787 223.8692,-505.3705 215.1012,-505.6574 215.1012,-505.6574"/>
<ellipse fill="none" stroke="#000000" cx="212.1416" cy="-504.4404" rx="3.2" ry="3.2"/>
</g>
<!-- bond_portfolio_constituents -->
<g id="node5" class="node">
<title>bond_portfolio_constituents</title>
<g id="a_node5"><a xlink:href="../../tables/bond_portfolio_constituents.html" xlink:title="bond_portfolio_constituents" target="_top">
<polygon fill="#ffffff" stroke="transparent" points="260.5,-120.2 260.5,-181.2 488.5,-181.2 488.5,-120.2 260.5,-120.2"/>
<polygon fill="#f5f5f5" stroke="transparent" points="260.5,-157.7 260.5,-180.7 488.5,-180.7 488.5,-157.7 260.5,-157.7"/>
<polygon fill="none" stroke="#000000" points="260.5,-157.7 260.5,-180.7 488.5,-180.7 488.5,-157.7 260.5,-157.7"/>
<text text-anchor="start" x="265.5" y="-166.3" font-family="Helvetica,sans-Serif" font-weight="bold" font-size="11.00" fill="#000000">bond_portfolio_constituents</text>
<text text-anchor="start" x="454.0219" y="-165.8" font-family="Helvetica,sans-Serif" font-size="11.00" fill="#000000">[table]</text>
<polygon fill="none" stroke="#000000" points="260.5,-138.7 260.5,-157.7 488.5,-157.7 488.5,-138.7 260.5,-138.7"/>
<text text-anchor="start" x="263.5" y="-144.8" font-family="Helvetica,sans-Serif" font-size="11.00" fill="#000000">...</text>
<polygon fill="#ffffff" stroke="transparent" points="260.5,-119.7 260.5,-138.7 372.5,-138.7 372.5,-119.7 260.5,-119.7"/>
<polygon fill="none" stroke="#000000" points="260.5,-119.7 260.5,-138.7 372.5,-138.7 372.5,-119.7 260.5,-119.7"/>
<text text-anchor="start" x="263.5" y="-125.8" font-family="Helvetica,sans-Serif" font-size="11.00" fill="#000000">&lt; 2</text>
<polygon fill="#ffffff" stroke="transparent" points="372.5,-119.7 372.5,-138.7 430.5,-138.7 430.5,-119.7 372.5,-119.7"/>
<polygon fill="none" stroke="#000000" points="372.5,-119.7 372.5,-138.7 430.5,-138.7 430.5,-119.7 372.5,-119.7"/>
<text text-anchor="start" x="421.3862" y="-125.8" font-family="Helvetica,sans-Serif" font-size="11.00" fill="#000000"> &#160;</text>
<polygon fill="#ffffff" stroke="transparent" points="430.5,-119.7 430.5,-138.7 488.5,-138.7 488.5,-119.7 430.5,-119.7"/>
<polygon fill="none" stroke="#000000" points="430.5,-119.7 430.5,-138.7 488.5,-138.7 488.5,-119.7 430.5,-119.7"/>
<text text-anchor="start" x="479.3862" y="-125.8" font-family="Helvetica,sans-Serif" font-size="11.00" fill="#000000"> &#160;</text>
</a>
</g>
</g>
<!-- bond_portfolio_constituents&#45;&gt;cds_portfolios -->
<g id="edge4" class="edge">
<title>bond_portfolio_constituents:w&#45;&gt;cds_portfolios:e</title>
<path fill="none" stroke="#000000" d="M246.0127,-149.6461C203.5462,-162.0637 209.9583,-229.7 156.5,-229.7"/>
<polygon fill="#000000" stroke="#000000" points="252.5712,-148.7651 260.9793,-151.268 256.5356,-148.2326 260.5,-147.7 260.5,-147.7 260.5,-147.7 256.5356,-148.2326 260.0207,-144.132 252.5712,-148.7651 252.5712,-148.7651"/>
<ellipse fill="none" stroke="#000000" cx="249.3997" cy="-149.1912" rx="3.2" ry="3.2"/>
</g>
<!-- cds_portfolio_constituents -->
<g id="node6" class="node">
<title>cds_portfolio_constituents</title>
<g id="a_node6"><a xlink:href="../../tables/cds_portfolio_constituents.html" xlink:title="cds_portfolio_constituents" target="_top">
<polygon fill="#ffffff" stroke="transparent" points="266,-38.2 266,-99.2 483,-99.2 483,-38.2 266,-38.2"/>
<polygon fill="#f5f5f5" stroke="transparent" points="266.5,-75.7 266.5,-98.7 483.5,-98.7 483.5,-75.7 266.5,-75.7"/>
<polygon fill="none" stroke="#000000" points="266.5,-75.7 266.5,-98.7 483.5,-98.7 483.5,-75.7 266.5,-75.7"/>
<text text-anchor="start" x="271.5" y="-84.3" font-family="Helvetica,sans-Serif" font-weight="bold" font-size="11.00" fill="#000000">cds_portfolio_constituents</text>
<text text-anchor="start" x="449.0219" y="-83.8" font-family="Helvetica,sans-Serif" font-size="11.00" fill="#000000">[table]</text>
<polygon fill="none" stroke="#000000" points="266.5,-56.7 266.5,-75.7 483.5,-75.7 483.5,-56.7 266.5,-56.7"/>
<text text-anchor="start" x="269.5" y="-62.8" font-family="Helvetica,sans-Serif" font-size="11.00" fill="#000000">...</text>
<polygon fill="#ffffff" stroke="transparent" points="266.5,-37.7 266.5,-56.7 373.5,-56.7 373.5,-37.7 266.5,-37.7"/>
<polygon fill="none" stroke="#000000" points="266.5,-37.7 266.5,-56.7 373.5,-56.7 373.5,-37.7 266.5,-37.7"/>
<text text-anchor="start" x="269.5" y="-43.8" font-family="Helvetica,sans-Serif" font-size="11.00" fill="#000000">&lt; 2</text>
<polygon fill="#ffffff" stroke="transparent" points="373.5,-37.7 373.5,-56.7 428.5,-56.7 428.5,-37.7 373.5,-37.7"/>
<polygon fill="none" stroke="#000000" points="373.5,-37.7 373.5,-56.7 428.5,-56.7 428.5,-37.7 373.5,-37.7"/>
<text text-anchor="start" x="419.3862" y="-43.8" font-family="Helvetica,sans-Serif" font-size="11.00" fill="#000000"> &#160;</text>
<polygon fill="#ffffff" stroke="transparent" points="428.5,-37.7 428.5,-56.7 483.5,-56.7 483.5,-37.7 428.5,-37.7"/>
<polygon fill="none" stroke="#000000" points="428.5,-37.7 428.5,-56.7 483.5,-56.7 483.5,-37.7 428.5,-37.7"/>
<text text-anchor="start" x="474.3862" y="-43.8" font-family="Helvetica,sans-Serif" font-size="11.00" fill="#000000"> &#160;</text>
</a>
</g>
</g>
<!-- cds_portfolio_constituents&#45;&gt;cds_portfolios -->
<g id="edge5" class="edge">
<title>cds_portfolio_constituents:w&#45;&gt;cds_portfolios:e</title>
<path fill="none" stroke="#000000" d="M252.0821,-67.5009C233.3695,-72.8553 227.7056,-89.5635 212,-109.7 175.8612,-156.0344 215.2613,-229.7 156.5,-229.7"/>
<polygon fill="#000000" stroke="#000000" points="258.5617,-66.6916 266.9462,-69.2722 262.5308,-66.1958 266.5,-65.7 266.5,-65.7 266.5,-65.7 262.5308,-66.1958 266.0538,-62.1278 258.5617,-66.6916 258.5617,-66.6916"/>
<ellipse fill="none" stroke="#000000" cx="255.3864" cy="-67.0883" rx="3.2" ry="3.2"/>
</g>
<!-- portfolio_risk_cache -->
<g id="node7" class="node">
<title>portfolio_risk_cache</title>
<g id="a_node7"><a xlink:href="../../tables/portfolio_risk_cache.html" xlink:title="portfolio_risk_cache" target="_top">
<polygon fill="#ffffff" stroke="transparent" points="288,-284.2 288,-345.2 461,-345.2 461,-284.2 288,-284.2"/>
<polygon fill="#f5f5f5" stroke="transparent" points="288.5,-321.7 288.5,-344.7 461.5,-344.7 461.5,-321.7 288.5,-321.7"/>
<polygon fill="none" stroke="#000000" points="288.5,-321.7 288.5,-344.7 461.5,-344.7 461.5,-321.7 288.5,-321.7"/>
<text text-anchor="start" x="293.5" y="-330.3" font-family="Helvetica,sans-Serif" font-weight="bold" font-size="11.00" fill="#000000">portfolio_risk_cache</text>
<text text-anchor="start" x="427.0219" y="-329.8" font-family="Helvetica,sans-Serif" font-size="11.00" fill="#000000">[table]</text>
<polygon fill="none" stroke="#000000" points="288.5,-302.7 288.5,-321.7 461.5,-321.7 461.5,-302.7 288.5,-302.7"/>
<text text-anchor="start" x="291.5" y="-308.8" font-family="Helvetica,sans-Serif" font-size="11.00" fill="#000000">...</text>
<polygon fill="#ffffff" stroke="transparent" points="288.5,-283.7 288.5,-302.7 373.5,-302.7 373.5,-283.7 288.5,-283.7"/>
<polygon fill="none" stroke="#000000" points="288.5,-283.7 288.5,-302.7 373.5,-302.7 373.5,-283.7 288.5,-283.7"/>
<text text-anchor="start" x="291.5" y="-289.8" font-family="Helvetica,sans-Serif" font-size="11.00" fill="#000000">&lt; 1</text>
<polygon fill="#ffffff" stroke="transparent" points="373.5,-283.7 373.5,-302.7 417.5,-302.7 417.5,-283.7 373.5,-283.7"/>
<polygon fill="none" stroke="#000000" points="373.5,-283.7 373.5,-302.7 417.5,-302.7 417.5,-283.7 373.5,-283.7"/>
<text text-anchor="start" x="408.3862" y="-289.8" font-family="Helvetica,sans-Serif" font-size="11.00" fill="#000000"> &#160;</text>
<polygon fill="#ffffff" stroke="transparent" points="417.5,-283.7 417.5,-302.7 461.5,-302.7 461.5,-283.7 417.5,-283.7"/>
<polygon fill="none" stroke="#000000" points="417.5,-283.7 417.5,-302.7 461.5,-302.7 461.5,-283.7 417.5,-283.7"/>
<text text-anchor="start" x="452.3862" y="-289.8" font-family="Helvetica,sans-Serif" font-size="11.00" fill="#000000"> &#160;</text>
</a>
</g>
</g>
<!-- portfolio_risk_cache&#45;&gt;cds_portfolios -->
<g id="edge6" class="edge">
<title>portfolio_risk_cache:w&#45;&gt;cds_portfolios:e</title>
<path fill="none" stroke="#000000" d="M273.8396,-310.6389C248.1274,-306.5412 239.4176,-291.1072 212,-273.7 185.4255,-256.8281 187.978,-229.7 156.5,-229.7"/>
<polygon fill="#000000" stroke="#000000" points="280.5209,-311.1225 288.2401,-315.2906 284.5104,-311.4112 288.5,-311.7 288.5,-311.7 288.5,-311.7 284.5104,-311.4112 288.7599,-308.1094 280.5209,-311.1225 280.5209,-311.1225"/>
<ellipse fill="none" stroke="#000000" cx="277.3292" cy="-310.8914" rx="3.2" ry="3.2"/>
</g>
<!-- simulation_runs -->
<g id="node8" class="node">
<title>simulation_runs</title>
<g id="a_node8"><a xlink:href="../../tables/simulation_runs.html" xlink:title="simulation_runs" target="_top">
<polygon fill="#ffffff" stroke="transparent" points="301.5,-202.2 301.5,-263.2 447.5,-263.2 447.5,-202.2 301.5,-202.2"/>
<polygon fill="#f5f5f5" stroke="transparent" points="301.5,-239.7 301.5,-262.7 447.5,-262.7 447.5,-239.7 301.5,-239.7"/>
<polygon fill="none" stroke="#000000" points="301.5,-239.7 301.5,-262.7 447.5,-262.7 447.5,-239.7 301.5,-239.7"/>
<text text-anchor="start" x="306.5" y="-248.3" font-family="Helvetica,sans-Serif" font-weight="bold" font-size="11.00" fill="#000000">simulation_runs</text>
<text text-anchor="start" x="413.0219" y="-247.8" font-family="Helvetica,sans-Serif" font-size="11.00" fill="#000000">[table]</text>
<polygon fill="none" stroke="#000000" points="301.5,-220.7 301.5,-239.7 447.5,-239.7 447.5,-220.7 301.5,-220.7"/>
<text text-anchor="start" x="304.5" y="-226.8" font-family="Helvetica,sans-Serif" font-size="11.00" fill="#000000">...</text>
<polygon fill="#ffffff" stroke="transparent" points="301.5,-201.7 301.5,-220.7 368.5,-220.7 368.5,-201.7 301.5,-201.7"/>
<polygon fill="none" stroke="#000000" points="301.5,-201.7 301.5,-220.7 368.5,-220.7 368.5,-201.7 301.5,-201.7"/>
<text text-anchor="start" x="304.5" y="-207.8" font-family="Helvetica,sans-Serif" font-size="11.00" fill="#000000">&lt; 1</text>
<polygon fill="#ffffff" stroke="transparent" points="368.5,-201.7 368.5,-220.7 403.5,-220.7 403.5,-201.7 368.5,-201.7"/>
<polygon fill="none" stroke="#000000" points="368.5,-201.7 368.5,-220.7 403.5,-220.7 403.5,-201.7 368.5,-201.7"/>
<text text-anchor="start" x="394.3862" y="-207.8" font-family="Helvetica,sans-Serif" font-size="11.00" fill="#000000"> &#160;</text>
<polygon fill="#ffffff" stroke="transparent" points="403.5,-201.7 403.5,-220.7 447.5,-220.7 447.5,-201.7 403.5,-201.7"/>
<polygon fill="none" stroke="#000000" points="403.5,-201.7 403.5,-220.7 447.5,-220.7 447.5,-201.7 403.5,-201.7"/>
<text text-anchor="start" x="428.9053" y="-207.8" font-family="Helvetica,sans-Serif" font-size="11.00" fill="#000000">3 &gt;</text>
</a>
</g>
</g>
<!-- simulation_runs&#45;&gt;cds_portfolios -->
<g id="edge7" class="edge">
<title>simulation_runs:w&#45;&gt;cds_portfolios:e</title>
<path fill="none" stroke="#000000" d="M286.8984,-229.7C234.1653,-229.7 215.7839,-229.7 156.5,-229.7"/>
<polygon fill="#000000" stroke="#000000" points="293.5,-229.7001 301.5,-233.3 297.5,-229.7 301.5,-229.7 301.5,-229.7 301.5,-229.7 297.5,-229.7 301.5,-226.1 293.5,-229.7001 293.5,-229.7001"/>
<ellipse fill="none" stroke="#000000" cx="290.3" cy="-229.7001" rx="3.2" ry="3.2"/>
</g>
</g>
</svg>
