<?xml version="1.0" encoding="UTF-8" standalone="no"?>
<!DOCTYPE svg PUBLIC "-//W3C//DTD SVG 1.1//EN"
 "http://www.w3.org/Graphics/SVG/1.1/DTD/svg11.dtd">
<!-- Generated by graphviz version 2.40.1 (20161225.0304)
 -->
<!-- Title: oneDegreeRelationshipsDiagram Pages: 1 -->
<svg width="545pt" height="325pt"
 viewBox="0.00 0.00 545.00 325.20" xmlns="http://www.w3.org/2000/svg" xmlns:xlink="http://www.w3.org/1999/xlink">
<g id="graph0" class="graph" transform="scale(1 1) rotate(0) translate(4 321.2)">
<title>oneDegreeRelationshipsDiagram</title>
<polygon fill="#ffffff" stroke="transparent" points="-4,4 -4,-321.2 541,-321.2 541,4 -4,4"/>
<text text-anchor="middle" x="72.4936" y="-7.3" font-family="Helvetica,sans-Serif" font-size="11.00" fill="#000000">Generated by SchemaSpy</text>
<!-- basket_portfolio_constituents -->
<g id="node1" class="node">
<title>basket_portfolio_constituents</title>
<g id="a_node1"><a xlink:href="../../tables/basket_portfolio_constituents.html" xlink:title="basket_portfolio_constituents" target="_top">
<polygon fill="#ffffff" stroke="transparent" points="220,-95.7 220,-295.7 529,-295.7 529,-95.7 220,-95.7"/>
<polygon fill="#f5f5f5" stroke="transparent" points="222.5,-270.7 222.5,-293.7 527.5,-293.7 527.5,-270.7 222.5,-270.7"/>
<polygon fill="none" stroke="#000000" points="222.5,-270.7 222.5,-293.7 527.5,-293.7 527.5,-270.7 222.5,-270.7"/>
<text text-anchor="start" x="227.5" y="-279.3" font-family="Helvetica,sans-Serif" font-weight="bold" font-size="11.00" fill="#000000">basket_portfolio_constituents</text>
<text text-anchor="start" x="492.5437" y="-278.8" font-family="Helvetica,sans-Serif" font-size="11.00" fill="#000000">[table]</text>
<polygon fill="none" stroke="#000000" points="222.5,-248.7 222.5,-270.7 443.5,-270.7 443.5,-248.7 222.5,-248.7"/>
<image xlink:href="../../images/primaryKeys.png" width="11px" height="12px" preserveAspectRatio="xMinYMin meet" x="227.5" y="-265.7"/>
<text text-anchor="start" x="242.5" y="-255.8" font-family="Helvetica,sans-Serif" font-size="11.00" fill="#000000">id</text>
<polygon fill="none" stroke="#000000" points="443.5,-248.7 443.5,-270.7 527.5,-270.7 527.5,-248.7 443.5,-248.7"/>
<text text-anchor="start" x="446.5" y="-256.4" font-family="Helvetica,sans-Serif" font-size="11.00" fill="#000000">bigserial[19]</text>
<polygon fill="#ffffff" stroke="transparent" points="222.5,-226.7 222.5,-248.7 443.5,-248.7 443.5,-226.7 222.5,-226.7"/>
<polygon fill="none" stroke="#000000" points="222.5,-226.7 222.5,-248.7 443.5,-248.7 443.5,-226.7 222.5,-226.7"/>
<image xlink:href="../../images/foreignKeys.png" width="11px" height="12px" preserveAspectRatio="xMinYMin meet" x="227.5" y="-243.7"/>
<text text-anchor="start" x="242.5" y="-233.8" font-family="Helvetica,sans-Serif" font-size="11.00" fill="#000000">portfolio_id</text>
<polygon fill="none" stroke="#000000" points="443.5,-226.7 443.5,-248.7 527.5,-248.7 527.5,-226.7 443.5,-226.7"/>
<text text-anchor="start" x="446.5" y="-234.4" font-family="Helvetica,sans-Serif" font-size="11.00" fill="#000000">int8[19]</text>
<polygon fill="#ffffff" stroke="transparent" points="222.5,-204.7 222.5,-226.7 443.5,-226.7 443.5,-204.7 222.5,-204.7"/>
<polygon fill="none" stroke="#000000" points="222.5,-204.7 222.5,-226.7 443.5,-226.7 443.5,-204.7 222.5,-204.7"/>
<image xlink:href="../../images/foreignKeys.png" width="11px" height="12px" preserveAspectRatio="xMinYMin meet" x="227.5" y="-221.7"/>
<text text-anchor="start" x="242.5" y="-211.8" font-family="Helvetica,sans-Serif" font-size="11.00" fill="#000000">basket_id</text>
<polygon fill="none" stroke="#000000" points="443.5,-204.7 443.5,-226.7 527.5,-226.7 527.5,-204.7 443.5,-204.7"/>
<text text-anchor="start" x="446.5" y="-212.4" font-family="Helvetica,sans-Serif" font-size="11.00" fill="#000000">int8[19]</text>
<polygon fill="none" stroke="#000000" points="222.5,-182.7 222.5,-204.7 443.5,-204.7 443.5,-182.7 222.5,-182.7"/>
<text text-anchor="start" x="242.5" y="-189.8" font-family="Helvetica,sans-Serif" font-size="11.00" fill="#000000">weight_type</text>
<polygon fill="none" stroke="#000000" points="443.5,-182.7 443.5,-204.7 527.5,-204.7 527.5,-182.7 443.5,-182.7"/>
<text text-anchor="start" x="446.5" y="-190.4" font-family="Helvetica,sans-Serif" font-size="11.00" fill="#000000">varchar[20]</text>
<polygon fill="none" stroke="#000000" points="222.5,-160.7 222.5,-182.7 443.5,-182.7 443.5,-160.7 222.5,-160.7"/>
<text text-anchor="start" x="242.5" y="-167.8" font-family="Helvetica,sans-Serif" font-size="11.00" fill="#000000">weight_value</text>
<polygon fill="none" stroke="#000000" points="443.5,-160.7 443.5,-182.7 527.5,-182.7 527.5,-160.7 443.5,-160.7"/>
<text text-anchor="start" x="446.5" y="-168.4" font-family="Helvetica,sans-Serif" font-size="11.00" fill="#000000">numeric[20,4]</text>
<polygon fill="#ffffff" stroke="transparent" points="222.5,-138.7 222.5,-160.7 443.5,-160.7 443.5,-138.7 222.5,-138.7"/>
<polygon fill="none" stroke="#000000" points="222.5,-138.7 222.5,-160.7 443.5,-160.7 443.5,-138.7 222.5,-138.7"/>
<text text-anchor="start" x="242.5" y="-145.8" font-family="Helvetica,sans-Serif" font-size="11.00" fill="#000000">active</text>
<polygon fill="none" stroke="#000000" points="443.5,-138.7 443.5,-160.7 527.5,-160.7 527.5,-138.7 443.5,-138.7"/>
<text text-anchor="start" x="446.5" y="-146.4" font-family="Helvetica,sans-Serif" font-size="11.00" fill="#000000">bool[1]</text>
<polygon fill="none" stroke="#000000" points="222.5,-116.7 222.5,-138.7 443.5,-138.7 443.5,-116.7 222.5,-116.7"/>
<text text-anchor="start" x="242.5" y="-123.8" font-family="Helvetica,sans-Serif" font-size="11.00" fill="#000000">added_at</text>
<polygon fill="none" stroke="#000000" points="443.5,-116.7 443.5,-138.7 527.5,-138.7 527.5,-116.7 443.5,-116.7"/>
<text text-anchor="start" x="446.3807" y="-124.4" font-family="Helvetica,sans-Serif" font-size="11.00" fill="#000000">timestamp[29,6]</text>
<polygon fill="#ffffff" stroke="transparent" points="222.5,-97.7 222.5,-116.7 337.5,-116.7 337.5,-97.7 222.5,-97.7"/>
<polygon fill="none" stroke="#000000" points="222.5,-97.7 222.5,-116.7 337.5,-116.7 337.5,-97.7 222.5,-97.7"/>
<text text-anchor="start" x="225.5" y="-103.8" font-family="Helvetica,sans-Serif" font-size="11.00" fill="#000000">&lt; 2</text>
<polygon fill="#ffffff" stroke="transparent" points="337.5,-97.7 337.5,-116.7 443.5,-116.7 443.5,-97.7 337.5,-97.7"/>
<polygon fill="none" stroke="#000000" points="337.5,-97.7 337.5,-116.7 443.5,-116.7 443.5,-97.7 337.5,-97.7"/>
<text text-anchor="start" x="434.3862" y="-103.8" font-family="Helvetica,sans-Serif" font-size="11.00" fill="#000000"> &#160;</text>
<polygon fill="#ffffff" stroke="transparent" points="443.5,-97.7 443.5,-116.7 527.5,-116.7 527.5,-97.7 443.5,-97.7"/>
<polygon fill="none" stroke="#000000" points="443.5,-97.7 443.5,-116.7 527.5,-116.7 527.5,-97.7 443.5,-97.7"/>
<text text-anchor="start" x="508.9053" y="-103.8" font-family="Helvetica,sans-Serif" font-size="11.00" fill="#000000">0 &gt;</text>
<polygon fill="none" stroke="#000000" stroke-width="2" points="221,-96.7 221,-294.7 528,-294.7 528,-96.7 221,-96.7"/>
</a>
</g>
</g>
<!-- basket_definitions -->
<g id="node2" class="node">
<title>basket_definitions</title>
<g id="a_node2"><a xlink:href="../../tables/basket_definitions.html" xlink:title="basket_definitions" target="_top">
<polygon fill="#ffffff" stroke="transparent" points="8,-38.2 8,-209.2 171,-209.2 171,-38.2 8,-38.2"/>
<polygon fill="#f5f5f5" stroke="transparent" points="8.5,-185.7 8.5,-208.7 171.5,-208.7 171.5,-185.7 8.5,-185.7"/>
<polygon fill="none" stroke="#000000" points="8.5,-185.7 8.5,-208.7 171.5,-208.7 171.5,-185.7 8.5,-185.7"/>
<text text-anchor="start" x="13.5" y="-194.3" font-family="Helvetica,sans-Serif" font-weight="bold" font-size="11.00" fill="#000000">basket_definitions</text>
<text text-anchor="start" x="137.0219" y="-193.8" font-family="Helvetica,sans-Serif" font-size="11.00" fill="#000000">[table]</text>
<polygon fill="none" stroke="#000000" points="8.5,-163.7 8.5,-185.7 171.5,-185.7 171.5,-163.7 8.5,-163.7"/>
<image xlink:href="../../images/primaryKeys.png" width="11px" height="12px" preserveAspectRatio="xMinYMin meet" x="13.5" y="-180.7"/>
<text text-anchor="start" x="32.5" y="-170.8" font-family="Helvetica,sans-Serif" font-size="11.00" fill="#000000">id</text>
<polygon fill="#ffffff" stroke="transparent" points="8.5,-141.7 8.5,-163.7 171.5,-163.7 171.5,-141.7 8.5,-141.7"/>
<polygon fill="none" stroke="#000000" points="8.5,-141.7 8.5,-163.7 171.5,-163.7 171.5,-141.7 8.5,-141.7"/>
<text text-anchor="start" x="32.5" y="-148.8" font-family="Helvetica,sans-Serif" font-size="11.00" fill="#000000">name</text>
<polygon fill="#ffffff" stroke="transparent" points="8.5,-119.7 8.5,-141.7 171.5,-141.7 171.5,-119.7 8.5,-119.7"/>
<polygon fill="none" stroke="#000000" points="8.5,-119.7 8.5,-141.7 171.5,-141.7 171.5,-119.7 8.5,-119.7"/>
<text text-anchor="start" x="32.5" y="-126.8" font-family="Helvetica,sans-Serif" font-size="11.00" fill="#000000">type</text>
<polygon fill="#ffffff" stroke="transparent" points="8.5,-97.7 8.5,-119.7 171.5,-119.7 171.5,-97.7 8.5,-97.7"/>
<polygon fill="none" stroke="#000000" points="8.5,-97.7 8.5,-119.7 171.5,-119.7 171.5,-97.7 8.5,-97.7"/>
<text text-anchor="start" x="32.5" y="-104.8" font-family="Helvetica,sans-Serif" font-size="11.00" fill="#000000">currency</text>
<polygon fill="#ffffff" stroke="transparent" points="8.5,-75.7 8.5,-97.7 171.5,-97.7 171.5,-75.7 8.5,-75.7"/>
<polygon fill="none" stroke="#000000" points="8.5,-75.7 8.5,-97.7 171.5,-97.7 171.5,-75.7 8.5,-75.7"/>
<text text-anchor="start" x="32.5" y="-82.8" font-family="Helvetica,sans-Serif" font-size="11.00" fill="#000000">maturity_date</text>
<polygon fill="none" stroke="#000000" points="8.5,-56.7 8.5,-75.7 171.5,-75.7 171.5,-56.7 8.5,-56.7"/>
<text text-anchor="start" x="11.5" y="-62.8" font-family="Helvetica,sans-Serif" font-size="11.00" fill="#000000">...</text>
<polygon fill="#ffffff" stroke="transparent" points="8.5,-37.7 8.5,-56.7 79.5,-56.7 79.5,-37.7 8.5,-37.7"/>
<polygon fill="none" stroke="#000000" points="8.5,-37.7 8.5,-56.7 79.5,-56.7 79.5,-37.7 8.5,-37.7"/>
<text text-anchor="start" x="11.5" y="-43.8" font-family="Helvetica,sans-Serif" font-size="11.00" fill="#000000"> &#160;</text>
<polygon fill="#ffffff" stroke="transparent" points="79.5,-37.7 79.5,-56.7 120.5,-56.7 120.5,-37.7 79.5,-37.7"/>
<polygon fill="none" stroke="#000000" points="79.5,-37.7 79.5,-56.7 120.5,-56.7 120.5,-37.7 79.5,-37.7"/>
<text text-anchor="start" x="111.3862" y="-43.8" font-family="Helvetica,sans-Serif" font-size="11.00" fill="#000000"> &#160;</text>
<polygon fill="#ffffff" stroke="transparent" points="120.5,-37.7 120.5,-56.7 171.5,-56.7 171.5,-37.7 120.5,-37.7"/>
<polygon fill="none" stroke="#000000" points="120.5,-37.7 120.5,-56.7 171.5,-56.7 171.5,-37.7 120.5,-37.7"/>
<text text-anchor="start" x="152.9053" y="-43.8" font-family="Helvetica,sans-Serif" font-size="11.00" fill="#000000">2 &gt;</text>
</a>
</g>
</g>
<!-- basket_portfolio_constituents&#45;&gt;basket_definitions -->
<g id="edge1" class="edge">
<title>basket_portfolio_constituents:w&#45;&gt;basket_definitions:e</title>
<path fill="none" stroke="#000000" d="M208.6568,-211.3123C194.8325,-200.7354 194.6756,-174.7 171.5,-174.7"/>
<polygon fill="#000000" stroke="#000000" points="214.8739,-213.2828 221.4123,-219.1317 218.6869,-214.4914 222.5,-215.7 222.5,-215.7 222.5,-215.7 218.6869,-214.4914 223.5877,-212.2683 214.8739,-213.2828 214.8739,-213.2828"/>
<ellipse fill="none" stroke="#000000" cx="211.8235" cy="-212.3159" rx="3.2" ry="3.2"/>
</g>
<!-- cds_portfolios -->
<g id="node3" class="node">
<title>cds_portfolios</title>
<g id="a_node3"><a xlink:href="../../tables/cds_portfolios.html" xlink:title="cds_portfolios" target="_top">
<polygon fill="#ffffff" stroke="transparent" points="23,-230.2 23,-313.2 156,-313.2 156,-230.2 23,-230.2"/>
<polygon fill="#f5f5f5" stroke="transparent" points="23.5,-289.7 23.5,-312.7 156.5,-312.7 156.5,-289.7 23.5,-289.7"/>
<polygon fill="none" stroke="#000000" points="23.5,-289.7 23.5,-312.7 156.5,-312.7 156.5,-289.7 23.5,-289.7"/>
<text text-anchor="start" x="28.5" y="-298.3" font-family="Helvetica,sans-Serif" font-weight="bold" font-size="11.00" fill="#000000">cds_portfolios</text>
<text text-anchor="start" x="122.0219" y="-297.8" font-family="Helvetica,sans-Serif" font-size="11.00" fill="#000000">[table]</text>
<polygon fill="none" stroke="#000000" points="23.5,-267.7 23.5,-289.7 156.5,-289.7 156.5,-267.7 23.5,-267.7"/>
<image xlink:href="../../images/primaryKeys.png" width="11px" height="12px" preserveAspectRatio="xMinYMin meet" x="28.5" y="-284.7"/>
<text text-anchor="start" x="52.5" y="-274.8" font-family="Helvetica,sans-Serif" font-size="11.00" fill="#000000">id</text>
<polygon fill="none" stroke="#000000" points="23.5,-248.7 23.5,-267.7 156.5,-267.7 156.5,-248.7 23.5,-248.7"/>
<text text-anchor="start" x="26.5" y="-254.8" font-family="Helvetica,sans-Serif" font-size="11.00" fill="#000000">...</text>
<polygon fill="#ffffff" stroke="transparent" points="23.5,-229.7 23.5,-248.7 79.5,-248.7 79.5,-229.7 23.5,-229.7"/>
<polygon fill="none" stroke="#000000" points="23.5,-229.7 23.5,-248.7 79.5,-248.7 79.5,-229.7 23.5,-229.7"/>
<text text-anchor="start" x="26.5" y="-235.8" font-family="Helvetica,sans-Serif" font-size="11.00" fill="#000000"> &#160;</text>
<polygon fill="#ffffff" stroke="transparent" points="79.5,-229.7 79.5,-248.7 113.5,-248.7 113.5,-229.7 79.5,-229.7"/>
<polygon fill="none" stroke="#000000" points="79.5,-229.7 79.5,-248.7 113.5,-248.7 113.5,-229.7 79.5,-229.7"/>
<text text-anchor="start" x="104.3862" y="-235.8" font-family="Helvetica,sans-Serif" font-size="11.00" fill="#000000"> &#160;</text>
<polygon fill="#ffffff" stroke="transparent" points="113.5,-229.7 113.5,-248.7 156.5,-248.7 156.5,-229.7 113.5,-229.7"/>
<polygon fill="none" stroke="#000000" points="113.5,-229.7 113.5,-248.7 156.5,-248.7 156.5,-229.7 113.5,-229.7"/>
<text text-anchor="start" x="137.9053" y="-235.8" font-family="Helvetica,sans-Serif" font-size="11.00" fill="#000000">5 &gt;</text>
</a>
</g>
</g>
<!-- basket_portfolio_constituents&#45;&gt;cds_portfolios -->
<g id="edge2" class="edge">
<title>basket_portfolio_constituents:w&#45;&gt;cds_portfolios:e</title>
<path fill="none" stroke="#000000" d="M208.2075,-240.6486C187.9612,-250.0495 185.367,-278.7 156.5,-278.7"/>
<polygon fill="#000000" stroke="#000000" points="214.665,-239.3164 223.2274,-241.2258 218.5825,-238.5082 222.5,-237.7 222.5,-237.7 222.5,-237.7 218.5825,-238.5082 221.7726,-234.1742 214.665,-239.3164 214.665,-239.3164"/>
<ellipse fill="none" stroke="#000000" cx="211.531" cy="-239.963" rx="3.2" ry="3.2"/>
</g>
</g>
</svg>
