<?xml version="1.0" encoding="UTF-8" standalone="no"?>
<!DOCTYPE svg PUBLIC "-//W3C//DTD SVG 1.1//EN"
 "http://www.w3.org/Graphics/SVG/1.1/DTD/svg11.dtd">
<!-- Generated by graphviz version 2.40.1 (20161225.0304)
 -->
<!-- Title: oneDegreeRelationshipsDiagram Pages: 1 -->
<svg width="481pt" height="294pt"
 viewBox="0.00 0.00 481.00 294.20" xmlns="http://www.w3.org/2000/svg" xmlns:xlink="http://www.w3.org/1999/xlink">
<g id="graph0" class="graph" transform="scale(1 1) rotate(0) translate(4 290.2)">
<title>oneDegreeRelationshipsDiagram</title>
<polygon fill="#ffffff" stroke="transparent" points="-4,4 -4,-290.2 477,-290.2 477,4 -4,4"/>
<text text-anchor="middle" x="72.4936" y="-7.3" font-family="Helvetica,sans-Serif" font-size="11.00" fill="#000000">Generated by SchemaSpy</text>
<!-- basket_constituents -->
<g id="node1" class="node">
<title>basket_constituents</title>
<g id="a_node1"><a xlink:href="../../tables/basket_constituents.html" xlink:title="basket_constituents" target="_top">
<polygon fill="#ffffff" stroke="transparent" points="220,-38.2 220,-282.2 465,-282.2 465,-38.2 220,-38.2"/>
<polygon fill="#f5f5f5" stroke="transparent" points="222.5,-257.2 222.5,-280.2 463.5,-280.2 463.5,-257.2 222.5,-257.2"/>
<polygon fill="none" stroke="#000000" points="222.5,-257.2 222.5,-280.2 463.5,-280.2 463.5,-257.2 222.5,-257.2"/>
<text text-anchor="start" x="227.5" y="-265.8" font-family="Helvetica,sans-Serif" font-weight="bold" font-size="11.00" fill="#000000">basket_constituents</text>
<text text-anchor="start" x="428.5437" y="-265.3" font-family="Helvetica,sans-Serif" font-size="11.00" fill="#000000">[table]</text>
<polygon fill="none" stroke="#000000" points="222.5,-235.2 222.5,-257.2 379.5,-257.2 379.5,-235.2 222.5,-235.2"/>
<image xlink:href="../../images/primaryKeys.png" width="11px" height="12px" preserveAspectRatio="xMinYMin meet" x="227.5" y="-252.2"/>
<text text-anchor="start" x="242.5" y="-242.3" font-family="Helvetica,sans-Serif" font-size="11.00" fill="#000000">id</text>
<polygon fill="none" stroke="#000000" points="379.5,-235.2 379.5,-257.2 463.5,-257.2 463.5,-235.2 379.5,-235.2"/>
<text text-anchor="start" x="382.5" y="-242.9" font-family="Helvetica,sans-Serif" font-size="11.00" fill="#000000">bigserial[19]</text>
<polygon fill="#ffffff" stroke="transparent" points="222.5,-213.2 222.5,-235.2 379.5,-235.2 379.5,-213.2 222.5,-213.2"/>
<polygon fill="none" stroke="#000000" points="222.5,-213.2 222.5,-235.2 379.5,-235.2 379.5,-213.2 222.5,-213.2"/>
<image xlink:href="../../images/foreignKeys.png" width="11px" height="12px" preserveAspectRatio="xMinYMin meet" x="227.5" y="-230.2"/>
<text text-anchor="start" x="242.5" y="-220.3" font-family="Helvetica,sans-Serif" font-size="11.00" fill="#000000">basket_id</text>
<polygon fill="none" stroke="#000000" points="379.5,-213.2 379.5,-235.2 463.5,-235.2 463.5,-213.2 379.5,-213.2"/>
<text text-anchor="start" x="382.5" y="-220.9" font-family="Helvetica,sans-Serif" font-size="11.00" fill="#000000">int8[19]</text>
<polygon fill="#ffffff" stroke="transparent" points="222.5,-191.2 222.5,-213.2 379.5,-213.2 379.5,-191.2 222.5,-191.2"/>
<polygon fill="none" stroke="#000000" points="222.5,-191.2 222.5,-213.2 379.5,-213.2 379.5,-191.2 222.5,-191.2"/>
<text text-anchor="start" x="242.5" y="-198.3" font-family="Helvetica,sans-Serif" font-size="11.00" fill="#000000">issuer</text>
<polygon fill="none" stroke="#000000" points="379.5,-191.2 379.5,-213.2 463.5,-213.2 463.5,-191.2 379.5,-191.2"/>
<text text-anchor="start" x="382.5" y="-198.9" font-family="Helvetica,sans-Serif" font-size="11.00" fill="#000000">varchar[40]</text>
<polygon fill="none" stroke="#000000" points="222.5,-169.2 222.5,-191.2 379.5,-191.2 379.5,-169.2 222.5,-169.2"/>
<text text-anchor="start" x="242.5" y="-176.3" font-family="Helvetica,sans-Serif" font-size="11.00" fill="#000000">weight</text>
<polygon fill="none" stroke="#000000" points="379.5,-169.2 379.5,-191.2 463.5,-191.2 463.5,-169.2 379.5,-169.2"/>
<text text-anchor="start" x="382.5" y="-176.9" font-family="Helvetica,sans-Serif" font-size="11.00" fill="#000000">numeric[18,10]</text>
<polygon fill="none" stroke="#000000" points="222.5,-147.2 222.5,-169.2 379.5,-169.2 379.5,-147.2 222.5,-147.2"/>
<text text-anchor="start" x="242.5" y="-154.3" font-family="Helvetica,sans-Serif" font-size="11.00" fill="#000000">recovery_override</text>
<polygon fill="none" stroke="#000000" points="379.5,-147.2 379.5,-169.2 463.5,-169.2 463.5,-147.2 379.5,-147.2"/>
<text text-anchor="start" x="382.5" y="-154.9" font-family="Helvetica,sans-Serif" font-size="11.00" fill="#000000">numeric[5,4]</text>
<polygon fill="none" stroke="#000000" points="222.5,-125.2 222.5,-147.2 379.5,-147.2 379.5,-125.2 222.5,-125.2"/>
<text text-anchor="start" x="242.5" y="-132.3" font-family="Helvetica,sans-Serif" font-size="11.00" fill="#000000">seniority</text>
<polygon fill="none" stroke="#000000" points="379.5,-125.2 379.5,-147.2 463.5,-147.2 463.5,-125.2 379.5,-125.2"/>
<text text-anchor="start" x="382.5" y="-132.9" font-family="Helvetica,sans-Serif" font-size="11.00" fill="#000000">varchar[20]</text>
<polygon fill="#ffffff" stroke="transparent" points="222.5,-103.2 222.5,-125.2 379.5,-125.2 379.5,-103.2 222.5,-103.2"/>
<polygon fill="none" stroke="#000000" points="222.5,-103.2 222.5,-125.2 379.5,-125.2 379.5,-103.2 222.5,-103.2"/>
<text text-anchor="start" x="242.5" y="-110.3" font-family="Helvetica,sans-Serif" font-size="11.00" fill="#000000">sector</text>
<polygon fill="none" stroke="#000000" points="379.5,-103.2 379.5,-125.2 463.5,-125.2 463.5,-103.2 379.5,-103.2"/>
<text text-anchor="start" x="382.5" y="-110.9" font-family="Helvetica,sans-Serif" font-size="11.00" fill="#000000">varchar[30]</text>
<polygon fill="none" stroke="#000000" points="222.5,-81.2 222.5,-103.2 379.5,-103.2 379.5,-81.2 222.5,-81.2"/>
<text text-anchor="start" x="242.5" y="-88.3" font-family="Helvetica,sans-Serif" font-size="11.00" fill="#000000">sequence_order</text>
<polygon fill="none" stroke="#000000" points="379.5,-81.2 379.5,-103.2 463.5,-103.2 463.5,-81.2 379.5,-81.2"/>
<text text-anchor="start" x="382.5" y="-88.9" font-family="Helvetica,sans-Serif" font-size="11.00" fill="#000000">int4[10]</text>
<polygon fill="none" stroke="#000000" points="222.5,-59.2 222.5,-81.2 379.5,-81.2 379.5,-59.2 222.5,-59.2"/>
<text text-anchor="start" x="242.5" y="-66.3" font-family="Helvetica,sans-Serif" font-size="11.00" fill="#000000">created_at</text>
<polygon fill="none" stroke="#000000" points="379.5,-59.2 379.5,-81.2 463.5,-81.2 463.5,-59.2 379.5,-59.2"/>
<text text-anchor="start" x="382.3807" y="-66.9" font-family="Helvetica,sans-Serif" font-size="11.00" fill="#000000">timestamp[29,6]</text>
<polygon fill="#ffffff" stroke="transparent" points="222.5,-40.2 222.5,-59.2 305.5,-59.2 305.5,-40.2 222.5,-40.2"/>
<polygon fill="none" stroke="#000000" points="222.5,-40.2 222.5,-59.2 305.5,-59.2 305.5,-40.2 222.5,-40.2"/>
<text text-anchor="start" x="225.5" y="-46.3" font-family="Helvetica,sans-Serif" font-size="11.00" fill="#000000">&lt; 1</text>
<polygon fill="#ffffff" stroke="transparent" points="305.5,-40.2 305.5,-59.2 379.5,-59.2 379.5,-40.2 305.5,-40.2"/>
<polygon fill="none" stroke="#000000" points="305.5,-40.2 305.5,-59.2 379.5,-59.2 379.5,-40.2 305.5,-40.2"/>
<text text-anchor="start" x="370.3862" y="-46.3" font-family="Helvetica,sans-Serif" font-size="11.00" fill="#000000"> &#160;</text>
<polygon fill="#ffffff" stroke="transparent" points="379.5,-40.2 379.5,-59.2 463.5,-59.2 463.5,-40.2 379.5,-40.2"/>
<polygon fill="none" stroke="#000000" points="379.5,-40.2 379.5,-59.2 463.5,-59.2 463.5,-40.2 379.5,-40.2"/>
<text text-anchor="start" x="444.9053" y="-46.3" font-family="Helvetica,sans-Serif" font-size="11.00" fill="#000000">0 &gt;</text>
<polygon fill="none" stroke="#000000" stroke-width="2" points="221,-39.2 221,-281.2 464,-281.2 464,-39.2 221,-39.2"/>
</a>
</g>
</g>
<!-- basket_definitions -->
<g id="node2" class="node">
<title>basket_definitions</title>
<g id="a_node2"><a xlink:href="../../tables/basket_definitions.html" xlink:title="basket_definitions" target="_top">
<polygon fill="#ffffff" stroke="transparent" points="8,-87.7 8,-258.7 171,-258.7 171,-87.7 8,-87.7"/>
<polygon fill="#f5f5f5" stroke="transparent" points="8.5,-235.2 8.5,-258.2 171.5,-258.2 171.5,-235.2 8.5,-235.2"/>
<polygon fill="none" stroke="#000000" points="8.5,-235.2 8.5,-258.2 171.5,-258.2 171.5,-235.2 8.5,-235.2"/>
<text text-anchor="start" x="13.5" y="-243.8" font-family="Helvetica,sans-Serif" font-weight="bold" font-size="11.00" fill="#000000">basket_definitions</text>
<text text-anchor="start" x="137.0219" y="-243.3" font-family="Helvetica,sans-Serif" font-size="11.00" fill="#000000">[table]</text>
<polygon fill="none" stroke="#000000" points="8.5,-213.2 8.5,-235.2 171.5,-235.2 171.5,-213.2 8.5,-213.2"/>
<image xlink:href="../../images/primaryKeys.png" width="11px" height="12px" preserveAspectRatio="xMinYMin meet" x="13.5" y="-230.2"/>
<text text-anchor="start" x="32.5" y="-220.3" font-family="Helvetica,sans-Serif" font-size="11.00" fill="#000000">id</text>
<polygon fill="#ffffff" stroke="transparent" points="8.5,-191.2 8.5,-213.2 171.5,-213.2 171.5,-191.2 8.5,-191.2"/>
<polygon fill="none" stroke="#000000" points="8.5,-191.2 8.5,-213.2 171.5,-213.2 171.5,-191.2 8.5,-191.2"/>
<text text-anchor="start" x="32.5" y="-198.3" font-family="Helvetica,sans-Serif" font-size="11.00" fill="#000000">name</text>
<polygon fill="#ffffff" stroke="transparent" points="8.5,-169.2 8.5,-191.2 171.5,-191.2 171.5,-169.2 8.5,-169.2"/>
<polygon fill="none" stroke="#000000" points="8.5,-169.2 8.5,-191.2 171.5,-191.2 171.5,-169.2 8.5,-169.2"/>
<text text-anchor="start" x="32.5" y="-176.3" font-family="Helvetica,sans-Serif" font-size="11.00" fill="#000000">type</text>
<polygon fill="#ffffff" stroke="transparent" points="8.5,-147.2 8.5,-169.2 171.5,-169.2 171.5,-147.2 8.5,-147.2"/>
<polygon fill="none" stroke="#000000" points="8.5,-147.2 8.5,-169.2 171.5,-169.2 171.5,-147.2 8.5,-147.2"/>
<text text-anchor="start" x="32.5" y="-154.3" font-family="Helvetica,sans-Serif" font-size="11.00" fill="#000000">currency</text>
<polygon fill="#ffffff" stroke="transparent" points="8.5,-125.2 8.5,-147.2 171.5,-147.2 171.5,-125.2 8.5,-125.2"/>
<polygon fill="none" stroke="#000000" points="8.5,-125.2 8.5,-147.2 171.5,-147.2 171.5,-125.2 8.5,-125.2"/>
<text text-anchor="start" x="32.5" y="-132.3" font-family="Helvetica,sans-Serif" font-size="11.00" fill="#000000">maturity_date</text>
<polygon fill="none" stroke="#000000" points="8.5,-106.2 8.5,-125.2 171.5,-125.2 171.5,-106.2 8.5,-106.2"/>
<text text-anchor="start" x="11.5" y="-112.3" font-family="Helvetica,sans-Serif" font-size="11.00" fill="#000000">...</text>
<polygon fill="#ffffff" stroke="transparent" points="8.5,-87.2 8.5,-106.2 79.5,-106.2 79.5,-87.2 8.5,-87.2"/>
<polygon fill="none" stroke="#000000" points="8.5,-87.2 8.5,-106.2 79.5,-106.2 79.5,-87.2 8.5,-87.2"/>
<text text-anchor="start" x="11.5" y="-93.3" font-family="Helvetica,sans-Serif" font-size="11.00" fill="#000000"> &#160;</text>
<polygon fill="#ffffff" stroke="transparent" points="79.5,-87.2 79.5,-106.2 120.5,-106.2 120.5,-87.2 79.5,-87.2"/>
<polygon fill="none" stroke="#000000" points="79.5,-87.2 79.5,-106.2 120.5,-106.2 120.5,-87.2 79.5,-87.2"/>
<text text-anchor="start" x="111.3862" y="-93.3" font-family="Helvetica,sans-Serif" font-size="11.00" fill="#000000"> &#160;</text>
<polygon fill="#ffffff" stroke="transparent" points="120.5,-87.2 120.5,-106.2 171.5,-106.2 171.5,-87.2 120.5,-87.2"/>
<polygon fill="none" stroke="#000000" points="120.5,-87.2 120.5,-106.2 171.5,-106.2 171.5,-87.2 120.5,-87.2"/>
<text text-anchor="start" x="152.9053" y="-93.3" font-family="Helvetica,sans-Serif" font-size="11.00" fill="#000000">2 &gt;</text>
</a>
</g>
</g>
<!-- basket_constituents&#45;&gt;basket_definitions -->
<g id="edge1" class="edge">
<title>basket_constituents:w&#45;&gt;basket_definitions:e</title>
<path fill="none" stroke="#000000" d="M207.776,-224.2C195.7815,-224.2 188.3229,-224.2 171.5,-224.2"/>
<polygon fill="#000000" stroke="#000000" points="214.5,-224.2001 222.5,-227.8 218.5,-224.2 222.5,-224.2 222.5,-224.2 222.5,-224.2 218.5,-224.2 222.5,-220.6 214.5,-224.2001 214.5,-224.2001"/>
<ellipse fill="none" stroke="#000000" cx="211.3" cy="-224.2001" rx="3.2" ry="3.2"/>
</g>
</g>
</svg>
