<?xml version="1.0" encoding="UTF-8" standalone="no"?>
<!DOCTYPE svg PUBLIC "-//W3C//DTD SVG 1.1//EN"
 "http://www.w3.org/Graphics/SVG/1.1/DTD/svg11.dtd">
<!-- Generated by graphviz version 2.40.1 (20161225.0304)
 -->
<!-- Title: twoDegreesRelationshipsDiagram Pages: 1 -->
<svg width="481pt" height="377pt"
 viewBox="0.00 0.00 481.00 376.70" xmlns="http://www.w3.org/2000/svg" xmlns:xlink="http://www.w3.org/1999/xlink">
<g id="graph0" class="graph" transform="scale(1 1) rotate(0) translate(4 372.7)">
<title>twoDegreesRelationshipsDiagram</title>
<polygon fill="#ffffff" stroke="transparent" points="-4,4 -4,-372.7 477,-372.7 477,4 -4,4"/>
<text text-anchor="middle" x="72.4936" y="-7.3" font-family="Helvetica,sans-Serif" font-size="11.00" fill="#000000">Generated by SchemaSpy</text>
<!-- basket_constituents -->
<g id="node1" class="node">
<title>basket_constituents</title>
<g id="a_node1"><a xlink:href="../../tables/basket_constituents.html" xlink:title="basket_constituents" target="_top">
<polygon fill="#ffffff" stroke="transparent" points="220,-120.7 220,-364.7 465,-364.7 465,-120.7 220,-120.7"/>
<polygon fill="#f5f5f5" stroke="transparent" points="222.5,-339.7 222.5,-362.7 463.5,-362.7 463.5,-339.7 222.5,-339.7"/>
<polygon fill="none" stroke="#000000" points="222.5,-339.7 222.5,-362.7 463.5,-362.7 463.5,-339.7 222.5,-339.7"/>
<text text-anchor="start" x="227.5" y="-348.3" font-family="Helvetica,sans-Serif" font-weight="bold" font-size="11.00" fill="#000000">basket_constituents</text>
<text text-anchor="start" x="428.5437" y="-347.8" font-family="Helvetica,sans-Serif" font-size="11.00" fill="#000000">[table]</text>
<polygon fill="none" stroke="#000000" points="222.5,-317.7 222.5,-339.7 379.5,-339.7 379.5,-317.7 222.5,-317.7"/>
<image xlink:href="../../images/primaryKeys.png" width="11px" height="12px" preserveAspectRatio="xMinYMin meet" x="227.5" y="-334.7"/>
<text text-anchor="start" x="242.5" y="-324.8" font-family="Helvetica,sans-Serif" font-size="11.00" fill="#000000">id</text>
<polygon fill="none" stroke="#000000" points="379.5,-317.7 379.5,-339.7 463.5,-339.7 463.5,-317.7 379.5,-317.7"/>
<text text-anchor="start" x="382.5" y="-325.4" font-family="Helvetica,sans-Serif" font-size="11.00" fill="#000000">bigserial[19]</text>
<polygon fill="#ffffff" stroke="transparent" points="222.5,-295.7 222.5,-317.7 379.5,-317.7 379.5,-295.7 222.5,-295.7"/>
<polygon fill="none" stroke="#000000" points="222.5,-295.7 222.5,-317.7 379.5,-317.7 379.5,-295.7 222.5,-295.7"/>
<image xlink:href="../../images/foreignKeys.png" width="11px" height="12px" preserveAspectRatio="xMinYMin meet" x="227.5" y="-312.7"/>
<text text-anchor="start" x="242.5" y="-302.8" font-family="Helvetica,sans-Serif" font-size="11.00" fill="#000000">basket_id</text>
<polygon fill="none" stroke="#000000" points="379.5,-295.7 379.5,-317.7 463.5,-317.7 463.5,-295.7 379.5,-295.7"/>
<text text-anchor="start" x="382.5" y="-303.4" font-family="Helvetica,sans-Serif" font-size="11.00" fill="#000000">int8[19]</text>
<polygon fill="#ffffff" stroke="transparent" points="222.5,-273.7 222.5,-295.7 379.5,-295.7 379.5,-273.7 222.5,-273.7"/>
<polygon fill="none" stroke="#000000" points="222.5,-273.7 222.5,-295.7 379.5,-295.7 379.5,-273.7 222.5,-273.7"/>
<text text-anchor="start" x="242.5" y="-280.8" font-family="Helvetica,sans-Serif" font-size="11.00" fill="#000000">issuer</text>
<polygon fill="none" stroke="#000000" points="379.5,-273.7 379.5,-295.7 463.5,-295.7 463.5,-273.7 379.5,-273.7"/>
<text text-anchor="start" x="382.5" y="-281.4" font-family="Helvetica,sans-Serif" font-size="11.00" fill="#000000">varchar[40]</text>
<polygon fill="none" stroke="#000000" points="222.5,-251.7 222.5,-273.7 379.5,-273.7 379.5,-251.7 222.5,-251.7"/>
<text text-anchor="start" x="242.5" y="-258.8" font-family="Helvetica,sans-Serif" font-size="11.00" fill="#000000">weight</text>
<polygon fill="none" stroke="#000000" points="379.5,-251.7 379.5,-273.7 463.5,-273.7 463.5,-251.7 379.5,-251.7"/>
<text text-anchor="start" x="382.5" y="-259.4" font-family="Helvetica,sans-Serif" font-size="11.00" fill="#000000">numeric[18,10]</text>
<polygon fill="none" stroke="#000000" points="222.5,-229.7 222.5,-251.7 379.5,-251.7 379.5,-229.7 222.5,-229.7"/>
<text text-anchor="start" x="242.5" y="-236.8" font-family="Helvetica,sans-Serif" font-size="11.00" fill="#000000">recovery_override</text>
<polygon fill="none" stroke="#000000" points="379.5,-229.7 379.5,-251.7 463.5,-251.7 463.5,-229.7 379.5,-229.7"/>
<text text-anchor="start" x="382.5" y="-237.4" font-family="Helvetica,sans-Serif" font-size="11.00" fill="#000000">numeric[5,4]</text>
<polygon fill="none" stroke="#000000" points="222.5,-207.7 222.5,-229.7 379.5,-229.7 379.5,-207.7 222.5,-207.7"/>
<text text-anchor="start" x="242.5" y="-214.8" font-family="Helvetica,sans-Serif" font-size="11.00" fill="#000000">seniority</text>
<polygon fill="none" stroke="#000000" points="379.5,-207.7 379.5,-229.7 463.5,-229.7 463.5,-207.7 379.5,-207.7"/>
<text text-anchor="start" x="382.5" y="-215.4" font-family="Helvetica,sans-Serif" font-size="11.00" fill="#000000">varchar[20]</text>
<polygon fill="#ffffff" stroke="transparent" points="222.5,-185.7 222.5,-207.7 379.5,-207.7 379.5,-185.7 222.5,-185.7"/>
<polygon fill="none" stroke="#000000" points="222.5,-185.7 222.5,-207.7 379.5,-207.7 379.5,-185.7 222.5,-185.7"/>
<text text-anchor="start" x="242.5" y="-192.8" font-family="Helvetica,sans-Serif" font-size="11.00" fill="#000000">sector</text>
<polygon fill="none" stroke="#000000" points="379.5,-185.7 379.5,-207.7 463.5,-207.7 463.5,-185.7 379.5,-185.7"/>
<text text-anchor="start" x="382.5" y="-193.4" font-family="Helvetica,sans-Serif" font-size="11.00" fill="#000000">varchar[30]</text>
<polygon fill="none" stroke="#000000" points="222.5,-163.7 222.5,-185.7 379.5,-185.7 379.5,-163.7 222.5,-163.7"/>
<text text-anchor="start" x="242.5" y="-170.8" font-family="Helvetica,sans-Serif" font-size="11.00" fill="#000000">sequence_order</text>
<polygon fill="none" stroke="#000000" points="379.5,-163.7 379.5,-185.7 463.5,-185.7 463.5,-163.7 379.5,-163.7"/>
<text text-anchor="start" x="382.5" y="-171.4" font-family="Helvetica,sans-Serif" font-size="11.00" fill="#000000">int4[10]</text>
<polygon fill="none" stroke="#000000" points="222.5,-141.7 222.5,-163.7 379.5,-163.7 379.5,-141.7 222.5,-141.7"/>
<text text-anchor="start" x="242.5" y="-148.8" font-family="Helvetica,sans-Serif" font-size="11.00" fill="#000000">created_at</text>
<polygon fill="none" stroke="#000000" points="379.5,-141.7 379.5,-163.7 463.5,-163.7 463.5,-141.7 379.5,-141.7"/>
<text text-anchor="start" x="382.3807" y="-149.4" font-family="Helvetica,sans-Serif" font-size="11.00" fill="#000000">timestamp[29,6]</text>
<polygon fill="#ffffff" stroke="transparent" points="222.5,-122.7 222.5,-141.7 305.5,-141.7 305.5,-122.7 222.5,-122.7"/>
<polygon fill="none" stroke="#000000" points="222.5,-122.7 222.5,-141.7 305.5,-141.7 305.5,-122.7 222.5,-122.7"/>
<text text-anchor="start" x="225.5" y="-128.8" font-family="Helvetica,sans-Serif" font-size="11.00" fill="#000000">&lt; 1</text>
<polygon fill="#ffffff" stroke="transparent" points="305.5,-122.7 305.5,-141.7 379.5,-141.7 379.5,-122.7 305.5,-122.7"/>
<polygon fill="none" stroke="#000000" points="305.5,-122.7 305.5,-141.7 379.5,-141.7 379.5,-122.7 305.5,-122.7"/>
<text text-anchor="start" x="370.3862" y="-128.8" font-family="Helvetica,sans-Serif" font-size="11.00" fill="#000000"> &#160;</text>
<polygon fill="#ffffff" stroke="transparent" points="379.5,-122.7 379.5,-141.7 463.5,-141.7 463.5,-122.7 379.5,-122.7"/>
<polygon fill="none" stroke="#000000" points="379.5,-122.7 379.5,-141.7 463.5,-141.7 463.5,-122.7 379.5,-122.7"/>
<text text-anchor="start" x="444.9053" y="-128.8" font-family="Helvetica,sans-Serif" font-size="11.00" fill="#000000">0 &gt;</text>
<polygon fill="none" stroke="#000000" stroke-width="2" points="221,-121.7 221,-363.7 464,-363.7 464,-121.7 221,-121.7"/>
</a>
</g>
</g>
<!-- basket_definitions -->
<g id="node2" class="node">
<title>basket_definitions</title>
<g id="a_node2"><a xlink:href="../../tables/basket_definitions.html" xlink:title="basket_definitions" target="_top">
<polygon fill="#ffffff" stroke="transparent" points="8,-49.2 8,-220.2 171,-220.2 171,-49.2 8,-49.2"/>
<polygon fill="#f5f5f5" stroke="transparent" points="8.5,-196.7 8.5,-219.7 171.5,-219.7 171.5,-196.7 8.5,-196.7"/>
<polygon fill="none" stroke="#000000" points="8.5,-196.7 8.5,-219.7 171.5,-219.7 171.5,-196.7 8.5,-196.7"/>
<text text-anchor="start" x="13.5" y="-205.3" font-family="Helvetica,sans-Serif" font-weight="bold" font-size="11.00" fill="#000000">basket_definitions</text>
<text text-anchor="start" x="137.0219" y="-204.8" font-family="Helvetica,sans-Serif" font-size="11.00" fill="#000000">[table]</text>
<polygon fill="none" stroke="#000000" points="8.5,-174.7 8.5,-196.7 171.5,-196.7 171.5,-174.7 8.5,-174.7"/>
<image xlink:href="../../images/primaryKeys.png" width="11px" height="12px" preserveAspectRatio="xMinYMin meet" x="13.5" y="-191.7"/>
<text text-anchor="start" x="32.5" y="-181.8" font-family="Helvetica,sans-Serif" font-size="11.00" fill="#000000">id</text>
<polygon fill="#ffffff" stroke="transparent" points="8.5,-152.7 8.5,-174.7 171.5,-174.7 171.5,-152.7 8.5,-152.7"/>
<polygon fill="none" stroke="#000000" points="8.5,-152.7 8.5,-174.7 171.5,-174.7 171.5,-152.7 8.5,-152.7"/>
<text text-anchor="start" x="32.5" y="-159.8" font-family="Helvetica,sans-Serif" font-size="11.00" fill="#000000">name</text>
<polygon fill="#ffffff" stroke="transparent" points="8.5,-130.7 8.5,-152.7 171.5,-152.7 171.5,-130.7 8.5,-130.7"/>
<polygon fill="none" stroke="#000000" points="8.5,-130.7 8.5,-152.7 171.5,-152.7 171.5,-130.7 8.5,-130.7"/>
<text text-anchor="start" x="32.5" y="-137.8" font-family="Helvetica,sans-Serif" font-size="11.00" fill="#000000">type</text>
<polygon fill="#ffffff" stroke="transparent" points="8.5,-108.7 8.5,-130.7 171.5,-130.7 171.5,-108.7 8.5,-108.7"/>
<polygon fill="none" stroke="#000000" points="8.5,-108.7 8.5,-130.7 171.5,-130.7 171.5,-108.7 8.5,-108.7"/>
<text text-anchor="start" x="32.5" y="-115.8" font-family="Helvetica,sans-Serif" font-size="11.00" fill="#000000">currency</text>
<polygon fill="#ffffff" stroke="transparent" points="8.5,-86.7 8.5,-108.7 171.5,-108.7 171.5,-86.7 8.5,-86.7"/>
<polygon fill="none" stroke="#000000" points="8.5,-86.7 8.5,-108.7 171.5,-108.7 171.5,-86.7 8.5,-86.7"/>
<text text-anchor="start" x="32.5" y="-93.8" font-family="Helvetica,sans-Serif" font-size="11.00" fill="#000000">maturity_date</text>
<polygon fill="none" stroke="#000000" points="8.5,-67.7 8.5,-86.7 171.5,-86.7 171.5,-67.7 8.5,-67.7"/>
<text text-anchor="start" x="11.5" y="-73.8" font-family="Helvetica,sans-Serif" font-size="11.00" fill="#000000">...</text>
<polygon fill="#ffffff" stroke="transparent" points="8.5,-48.7 8.5,-67.7 79.5,-67.7 79.5,-48.7 8.5,-48.7"/>
<polygon fill="none" stroke="#000000" points="8.5,-48.7 8.5,-67.7 79.5,-67.7 79.5,-48.7 8.5,-48.7"/>
<text text-anchor="start" x="11.5" y="-54.8" font-family="Helvetica,sans-Serif" font-size="11.00" fill="#000000"> &#160;</text>
<polygon fill="#ffffff" stroke="transparent" points="79.5,-48.7 79.5,-67.7 120.5,-67.7 120.5,-48.7 79.5,-48.7"/>
<polygon fill="none" stroke="#000000" points="79.5,-48.7 79.5,-67.7 120.5,-67.7 120.5,-48.7 79.5,-48.7"/>
<text text-anchor="start" x="111.3862" y="-54.8" font-family="Helvetica,sans-Serif" font-size="11.00" fill="#000000"> &#160;</text>
<polygon fill="#ffffff" stroke="transparent" points="120.5,-48.7 120.5,-67.7 171.5,-67.7 171.5,-48.7 120.5,-48.7"/>
<polygon fill="none" stroke="#000000" points="120.5,-48.7 120.5,-67.7 171.5,-67.7 171.5,-48.7 120.5,-48.7"/>
<text text-anchor="start" x="152.9053" y="-54.8" font-family="Helvetica,sans-Serif" font-size="11.00" fill="#000000">2 &gt;</text>
</a>
</g>
</g>
<!-- basket_constituents&#45;&gt;basket_definitions -->
<g id="edge1" class="edge">
<title>basket_constituents:w&#45;&gt;basket_definitions:e</title>
<path fill="none" stroke="#000000" d="M208.2982,-303.2092C176.2098,-283.37 223.9323,-185.7 171.5,-185.7"/>
<polygon fill="#000000" stroke="#000000" points="214.7312,-304.7904 221.6407,-310.1959 218.6156,-305.7452 222.5,-306.7 222.5,-306.7 222.5,-306.7 218.6156,-305.7452 223.3593,-303.2041 214.7312,-304.7904 214.7312,-304.7904"/>
<ellipse fill="none" stroke="#000000" cx="211.6237" cy="-304.0266" rx="3.2" ry="3.2"/>
</g>
<!-- basket_portfolio_constituents -->
<g id="node3" class="node">
<title>basket_portfolio_constituents</title>
<g id="a_node3"><a xlink:href="../../tables/basket_portfolio_constituents.html" xlink:title="basket_portfolio_constituents" target="_top">
<polygon fill="#ffffff" stroke="transparent" points="223,-38.2 223,-99.2 462,-99.2 462,-38.2 223,-38.2"/>
<polygon fill="#f5f5f5" stroke="transparent" points="223.5,-75.7 223.5,-98.7 462.5,-98.7 462.5,-75.7 223.5,-75.7"/>
<polygon fill="none" stroke="#000000" points="223.5,-75.7 223.5,-98.7 462.5,-98.7 462.5,-75.7 223.5,-75.7"/>
<text text-anchor="start" x="228.5" y="-84.3" font-family="Helvetica,sans-Serif" font-weight="bold" font-size="11.00" fill="#000000">basket_portfolio_constituents</text>
<text text-anchor="start" x="428.0219" y="-83.8" font-family="Helvetica,sans-Serif" font-size="11.00" fill="#000000">[table]</text>
<polygon fill="none" stroke="#000000" points="223.5,-56.7 223.5,-75.7 462.5,-75.7 462.5,-56.7 223.5,-56.7"/>
<text text-anchor="start" x="226.5" y="-62.8" font-family="Helvetica,sans-Serif" font-size="11.00" fill="#000000">...</text>
<polygon fill="#ffffff" stroke="transparent" points="223.5,-37.7 223.5,-56.7 341.5,-56.7 341.5,-37.7 223.5,-37.7"/>
<polygon fill="none" stroke="#000000" points="223.5,-37.7 223.5,-56.7 341.5,-56.7 341.5,-37.7 223.5,-37.7"/>
<text text-anchor="start" x="226.5" y="-43.8" font-family="Helvetica,sans-Serif" font-size="11.00" fill="#000000">&lt; 2</text>
<polygon fill="#ffffff" stroke="transparent" points="341.5,-37.7 341.5,-56.7 401.5,-56.7 401.5,-37.7 341.5,-37.7"/>
<polygon fill="none" stroke="#000000" points="341.5,-37.7 341.5,-56.7 401.5,-56.7 401.5,-37.7 341.5,-37.7"/>
<text text-anchor="start" x="392.3862" y="-43.8" font-family="Helvetica,sans-Serif" font-size="11.00" fill="#000000"> &#160;</text>
<polygon fill="#ffffff" stroke="transparent" points="401.5,-37.7 401.5,-56.7 462.5,-56.7 462.5,-37.7 401.5,-37.7"/>
<polygon fill="none" stroke="#000000" points="401.5,-37.7 401.5,-56.7 462.5,-56.7 462.5,-37.7 401.5,-37.7"/>
<text text-anchor="start" x="453.3862" y="-43.8" font-family="Helvetica,sans-Serif" font-size="11.00" fill="#000000"> &#160;</text>
</a>
</g>
</g>
<!-- basket_portfolio_constituents&#45;&gt;basket_definitions -->
<g id="edge2" class="edge">
<title>basket_portfolio_constituents:w&#45;&gt;basket_definitions:e</title>
<path fill="none" stroke="#000000" d="M209.3204,-69.162C177.1632,-88.8372 223.7221,-185.7 171.5,-185.7"/>
<polygon fill="#000000" stroke="#000000" points="215.7283,-67.5975 224.3539,-69.1973 219.6141,-66.6488 223.5,-65.7 223.5,-65.7 223.5,-65.7 219.6141,-66.6488 222.6461,-62.2027 215.7283,-67.5975 215.7283,-67.5975"/>
<ellipse fill="none" stroke="#000000" cx="212.6196" cy="-68.3565" rx="3.2" ry="3.2"/>
</g>
</g>
</svg>
