<?xml version="1.0" encoding="UTF-8" standalone="no"?>
<!DOCTYPE svg PUBLIC "-//W3C//DTD SVG 1.1//EN"
 "http://www.w3.org/Graphics/SVG/1.1/DTD/svg11.dtd">
<!-- Generated by graphviz version 2.40.1 (20161225.0304)
 -->
<!-- Title: oneDegreeRelationshipsDiagram Pages: 1 -->
<svg width="533pt" height="631pt"
 viewBox="0.00 0.00 533.00 630.70" xmlns="http://www.w3.org/2000/svg" xmlns:xlink="http://www.w3.org/1999/xlink">
<g id="graph0" class="graph" transform="scale(1 1) rotate(0) translate(4 626.7)">
<title>oneDegreeRelationshipsDiagram</title>
<polygon fill="#ffffff" stroke="transparent" points="-4,4 -4,-626.7 529,-626.7 529,4 -4,4"/>
<text text-anchor="middle" x="72.4936" y="-7.3" font-family="Helvetica,sans-Serif" font-size="11.00" fill="#000000">Generated by SchemaSpy</text>
<!-- bond_portfolio_constituents -->
<g id="node1" class="node">
<title>bond_portfolio_constituents</title>
<g id="a_node1"><a xlink:href="../../tables/bond_portfolio_constituents.html" xlink:title="bond_portfolio_constituents" target="_top">
<polygon fill="#ffffff" stroke="transparent" points="289,-469.7 289,-618.7 517,-618.7 517,-469.7 289,-469.7"/>
<polygon fill="#f5f5f5" stroke="transparent" points="289,-595.2 289,-618.2 517,-618.2 517,-595.2 289,-595.2"/>
<polygon fill="none" stroke="#000000" points="289,-595.2 289,-618.2 517,-618.2 517,-595.2 289,-595.2"/>
<text text-anchor="start" x="294" y="-603.8" font-family="Helvetica,sans-Serif" font-weight="bold" font-size="11.00" fill="#000000">bond_portfolio_constituents</text>
<text text-anchor="start" x="482.5219" y="-603.3" font-family="Helvetica,sans-Serif" font-size="11.00" fill="#000000">[table]</text>
<polygon fill="none" stroke="#000000" points="289,-573.2 289,-595.2 517,-595.2 517,-573.2 289,-573.2"/>
<image xlink:href="../../images/primaryKeys.png" width="11px" height="12px" preserveAspectRatio="xMinYMin meet" x="294" y="-590.2"/>
<text text-anchor="start" x="318" y="-580.3" font-family="Helvetica,sans-Serif" font-size="11.00" fill="#000000">id</text>
<polygon fill="#ffffff" stroke="transparent" points="289,-551.2 289,-573.2 517,-573.2 517,-551.2 289,-551.2"/>
<polygon fill="none" stroke="#000000" points="289,-551.2 289,-573.2 517,-573.2 517,-551.2 289,-551.2"/>
<image xlink:href="../../images/foreignKeys.png" width="11px" height="12px" preserveAspectRatio="xMinYMin meet" x="294" y="-568.2"/>
<text text-anchor="start" x="318" y="-558.3" font-family="Helvetica,sans-Serif" font-size="11.00" fill="#000000">portfolio_id</text>
<polygon fill="#ffffff" stroke="transparent" points="289,-529.2 289,-551.2 517,-551.2 517,-529.2 289,-529.2"/>
<polygon fill="none" stroke="#000000" points="289,-529.2 289,-551.2 517,-551.2 517,-529.2 289,-529.2"/>
<image xlink:href="../../images/foreignKeys.png" width="11px" height="12px" preserveAspectRatio="xMinYMin meet" x="294" y="-546.2"/>
<text text-anchor="start" x="318" y="-536.3" font-family="Helvetica,sans-Serif" font-size="11.00" fill="#000000">bond_id</text>
<polygon fill="#ffffff" stroke="transparent" points="289,-507.2 289,-529.2 517,-529.2 517,-507.2 289,-507.2"/>
<polygon fill="none" stroke="#000000" points="289,-507.2 289,-529.2 517,-529.2 517,-507.2 289,-507.2"/>
<text text-anchor="start" x="318" y="-514.3" font-family="Helvetica,sans-Serif" font-size="11.00" fill="#000000">active</text>
<polygon fill="none" stroke="#000000" points="289,-488.2 289,-507.2 517,-507.2 517,-488.2 289,-488.2"/>
<text text-anchor="start" x="292" y="-494.3" font-family="Helvetica,sans-Serif" font-size="11.00" fill="#000000">...</text>
<polygon fill="#ffffff" stroke="transparent" points="289,-469.2 289,-488.2 401,-488.2 401,-469.2 289,-469.2"/>
<polygon fill="none" stroke="#000000" points="289,-469.2 289,-488.2 401,-488.2 401,-469.2 289,-469.2"/>
<text text-anchor="start" x="292" y="-475.3" font-family="Helvetica,sans-Serif" font-size="11.00" fill="#000000">&lt; 2</text>
<polygon fill="#ffffff" stroke="transparent" points="401,-469.2 401,-488.2 459,-488.2 459,-469.2 401,-469.2"/>
<polygon fill="none" stroke="#000000" points="401,-469.2 401,-488.2 459,-488.2 459,-469.2 401,-469.2"/>
<text text-anchor="start" x="449.8862" y="-475.3" font-family="Helvetica,sans-Serif" font-size="11.00" fill="#000000"> &#160;</text>
<polygon fill="#ffffff" stroke="transparent" points="459,-469.2 459,-488.2 517,-488.2 517,-469.2 459,-469.2"/>
<polygon fill="none" stroke="#000000" points="459,-469.2 459,-488.2 517,-488.2 517,-469.2 459,-469.2"/>
<text text-anchor="start" x="507.8862" y="-475.3" font-family="Helvetica,sans-Serif" font-size="11.00" fill="#000000"> &#160;</text>
</a>
</g>
</g>
<!-- bonds -->
<g id="node2" class="node">
<title>bonds</title>
<g id="a_node2"><a xlink:href="../../tables/bonds.html" xlink:title="bonds" target="_top">
<polygon fill="#ffffff" stroke="transparent" points="8,-38.2 8,-458.2 240,-458.2 240,-38.2 8,-38.2"/>
<polygon fill="#f5f5f5" stroke="transparent" points="10,-433.2 10,-456.2 238,-456.2 238,-433.2 10,-433.2"/>
<polygon fill="none" stroke="#000000" points="10,-433.2 10,-456.2 238,-456.2 238,-433.2 10,-433.2"/>
<text text-anchor="start" x="15" y="-441.8" font-family="Helvetica,sans-Serif" font-weight="bold" font-size="11.00" fill="#000000">bonds</text>
<text text-anchor="start" x="203.0437" y="-441.3" font-family="Helvetica,sans-Serif" font-size="11.00" fill="#000000">[table]</text>
<polygon fill="none" stroke="#000000" points="10,-411.2 10,-433.2 154,-433.2 154,-411.2 10,-411.2"/>
<image xlink:href="../../images/primaryKeys.png" width="11px" height="12px" preserveAspectRatio="xMinYMin meet" x="15" y="-428.2"/>
<text text-anchor="start" x="30" y="-418.3" font-family="Helvetica,sans-Serif" font-size="11.00" fill="#000000">id</text>
<polygon fill="none" stroke="#000000" points="154,-411.2 154,-433.2 238,-433.2 238,-411.2 154,-411.2"/>
<text text-anchor="start" x="157" y="-418.9" font-family="Helvetica,sans-Serif" font-size="11.00" fill="#000000">bigserial[19]</text>
<polygon fill="#ffffff" stroke="transparent" points="10,-389.2 10,-411.2 154,-411.2 154,-389.2 10,-389.2"/>
<polygon fill="none" stroke="#000000" points="10,-389.2 10,-411.2 154,-411.2 154,-389.2 10,-389.2"/>
<text text-anchor="start" x="30" y="-396.3" font-family="Helvetica,sans-Serif" font-size="11.00" fill="#000000">isin</text>
<polygon fill="none" stroke="#000000" points="154,-389.2 154,-411.2 238,-411.2 238,-389.2 154,-389.2"/>
<text text-anchor="start" x="157" y="-396.9" font-family="Helvetica,sans-Serif" font-size="11.00" fill="#000000">varchar[12]</text>
<polygon fill="#ffffff" stroke="transparent" points="10,-367.2 10,-389.2 154,-389.2 154,-367.2 10,-367.2"/>
<polygon fill="none" stroke="#000000" points="10,-367.2 10,-389.2 154,-389.2 154,-367.2 10,-367.2"/>
<text text-anchor="start" x="30" y="-374.3" font-family="Helvetica,sans-Serif" font-size="11.00" fill="#000000">issuer</text>
<polygon fill="none" stroke="#000000" points="154,-367.2 154,-389.2 238,-389.2 238,-367.2 154,-367.2"/>
<text text-anchor="start" x="157" y="-374.9" font-family="Helvetica,sans-Serif" font-size="11.00" fill="#000000">varchar[40]</text>
<polygon fill="none" stroke="#000000" points="10,-345.2 10,-367.2 154,-367.2 154,-345.2 10,-345.2"/>
<text text-anchor="start" x="30" y="-352.3" font-family="Helvetica,sans-Serif" font-size="11.00" fill="#000000">seniority</text>
<polygon fill="none" stroke="#000000" points="154,-345.2 154,-367.2 238,-367.2 238,-345.2 154,-345.2"/>
<text text-anchor="start" x="157" y="-352.9" font-family="Helvetica,sans-Serif" font-size="11.00" fill="#000000">varchar[20]</text>
<polygon fill="#ffffff" stroke="transparent" points="10,-323.2 10,-345.2 154,-345.2 154,-323.2 10,-323.2"/>
<polygon fill="none" stroke="#000000" points="10,-323.2 10,-345.2 154,-345.2 154,-323.2 10,-323.2"/>
<text text-anchor="start" x="30" y="-330.3" font-family="Helvetica,sans-Serif" font-size="11.00" fill="#000000">sector</text>
<polygon fill="none" stroke="#000000" points="154,-323.2 154,-345.2 238,-345.2 238,-323.2 154,-323.2"/>
<text text-anchor="start" x="157" y="-330.9" font-family="Helvetica,sans-Serif" font-size="11.00" fill="#000000">varchar[30]</text>
<polygon fill="#ffffff" stroke="transparent" points="10,-301.2 10,-323.2 154,-323.2 154,-301.2 10,-301.2"/>
<polygon fill="none" stroke="#000000" points="10,-301.2 10,-323.2 154,-323.2 154,-301.2 10,-301.2"/>
<text text-anchor="start" x="30" y="-308.3" font-family="Helvetica,sans-Serif" font-size="11.00" fill="#000000">currency</text>
<polygon fill="none" stroke="#000000" points="154,-301.2 154,-323.2 238,-323.2 238,-301.2 154,-301.2"/>
<text text-anchor="start" x="157" y="-308.9" font-family="Helvetica,sans-Serif" font-size="11.00" fill="#000000">varchar[3]</text>
<polygon fill="none" stroke="#000000" points="10,-279.2 10,-301.2 154,-301.2 154,-279.2 10,-279.2"/>
<text text-anchor="start" x="30" y="-286.3" font-family="Helvetica,sans-Serif" font-size="11.00" fill="#000000">notional</text>
<polygon fill="none" stroke="#000000" points="154,-279.2 154,-301.2 238,-301.2 238,-279.2 154,-279.2"/>
<text text-anchor="start" x="157" y="-286.9" font-family="Helvetica,sans-Serif" font-size="11.00" fill="#000000">numeric[18,2]</text>
<polygon fill="none" stroke="#000000" points="10,-257.2 10,-279.2 154,-279.2 154,-257.2 10,-257.2"/>
<text text-anchor="start" x="30" y="-264.3" font-family="Helvetica,sans-Serif" font-size="11.00" fill="#000000">coupon_rate</text>
<polygon fill="none" stroke="#000000" points="154,-257.2 154,-279.2 238,-279.2 238,-257.2 154,-257.2"/>
<text text-anchor="start" x="157" y="-264.9" font-family="Helvetica,sans-Serif" font-size="11.00" fill="#000000">numeric[9,6]</text>
<polygon fill="none" stroke="#000000" points="10,-235.2 10,-257.2 154,-257.2 154,-235.2 10,-235.2"/>
<text text-anchor="start" x="30" y="-242.3" font-family="Helvetica,sans-Serif" font-size="11.00" fill="#000000">coupon_frequency</text>
<polygon fill="none" stroke="#000000" points="154,-235.2 154,-257.2 238,-257.2 238,-235.2 154,-235.2"/>
<text text-anchor="start" x="157" y="-242.9" font-family="Helvetica,sans-Serif" font-size="11.00" fill="#000000">varchar[20]</text>
<polygon fill="none" stroke="#000000" points="10,-213.2 10,-235.2 154,-235.2 154,-213.2 10,-213.2"/>
<text text-anchor="start" x="30" y="-220.3" font-family="Helvetica,sans-Serif" font-size="11.00" fill="#000000">day_count</text>
<polygon fill="none" stroke="#000000" points="154,-213.2 154,-235.2 238,-235.2 238,-213.2 154,-213.2"/>
<text text-anchor="start" x="157" y="-220.9" font-family="Helvetica,sans-Serif" font-size="11.00" fill="#000000">varchar[20]</text>
<polygon fill="none" stroke="#000000" points="10,-191.2 10,-213.2 154,-213.2 154,-191.2 10,-191.2"/>
<text text-anchor="start" x="30" y="-198.3" font-family="Helvetica,sans-Serif" font-size="11.00" fill="#000000">issue_date</text>
<polygon fill="none" stroke="#000000" points="154,-191.2 154,-213.2 238,-213.2 238,-191.2 154,-191.2"/>
<text text-anchor="start" x="157" y="-198.9" font-family="Helvetica,sans-Serif" font-size="11.00" fill="#000000">date[13]</text>
<polygon fill="#ffffff" stroke="transparent" points="10,-169.2 10,-191.2 154,-191.2 154,-169.2 10,-169.2"/>
<polygon fill="none" stroke="#000000" points="10,-169.2 10,-191.2 154,-191.2 154,-169.2 10,-169.2"/>
<text text-anchor="start" x="30" y="-176.3" font-family="Helvetica,sans-Serif" font-size="11.00" fill="#000000">maturity_date</text>
<polygon fill="none" stroke="#000000" points="154,-169.2 154,-191.2 238,-191.2 238,-169.2 154,-169.2"/>
<text text-anchor="start" x="157" y="-176.9" font-family="Helvetica,sans-Serif" font-size="11.00" fill="#000000">date[13]</text>
<polygon fill="none" stroke="#000000" points="10,-147.2 10,-169.2 154,-169.2 154,-147.2 10,-147.2"/>
<text text-anchor="start" x="30" y="-154.3" font-family="Helvetica,sans-Serif" font-size="11.00" fill="#000000">settlement_days</text>
<polygon fill="none" stroke="#000000" points="154,-147.2 154,-169.2 238,-169.2 238,-147.2 154,-147.2"/>
<text text-anchor="start" x="157" y="-154.9" font-family="Helvetica,sans-Serif" font-size="11.00" fill="#000000">int4[10]</text>
<polygon fill="none" stroke="#000000" points="10,-125.2 10,-147.2 154,-147.2 154,-125.2 10,-125.2"/>
<text text-anchor="start" x="30" y="-132.3" font-family="Helvetica,sans-Serif" font-size="11.00" fill="#000000">face_value</text>
<polygon fill="none" stroke="#000000" points="154,-125.2 154,-147.2 238,-147.2 238,-125.2 154,-125.2"/>
<text text-anchor="start" x="157" y="-132.9" font-family="Helvetica,sans-Serif" font-size="11.00" fill="#000000">numeric[18,2]</text>
<polygon fill="none" stroke="#000000" points="10,-103.2 10,-125.2 154,-125.2 154,-103.2 10,-103.2"/>
<text text-anchor="start" x="30" y="-110.3" font-family="Helvetica,sans-Serif" font-size="11.00" fill="#000000">price_convention</text>
<polygon fill="none" stroke="#000000" points="154,-103.2 154,-125.2 238,-125.2 238,-103.2 154,-103.2"/>
<text text-anchor="start" x="157" y="-110.9" font-family="Helvetica,sans-Serif" font-size="11.00" fill="#000000">varchar[10]</text>
<polygon fill="none" stroke="#000000" points="10,-81.2 10,-103.2 154,-103.2 154,-81.2 10,-81.2"/>
<text text-anchor="start" x="30" y="-88.3" font-family="Helvetica,sans-Serif" font-size="11.00" fill="#000000">created_at</text>
<polygon fill="none" stroke="#000000" points="154,-81.2 154,-103.2 238,-103.2 238,-81.2 154,-81.2"/>
<text text-anchor="start" x="156.8807" y="-88.9" font-family="Helvetica,sans-Serif" font-size="11.00" fill="#000000">timestamp[29,6]</text>
<polygon fill="none" stroke="#000000" points="10,-59.2 10,-81.2 154,-81.2 154,-59.2 10,-59.2"/>
<text text-anchor="start" x="30" y="-66.3" font-family="Helvetica,sans-Serif" font-size="11.00" fill="#000000">updated_at</text>
<polygon fill="none" stroke="#000000" points="154,-59.2 154,-81.2 238,-81.2 238,-59.2 154,-59.2"/>
<text text-anchor="start" x="156.8807" y="-66.9" font-family="Helvetica,sans-Serif" font-size="11.00" fill="#000000">timestamp[29,6]</text>
<polygon fill="#ffffff" stroke="transparent" points="10,-40.2 10,-59.2 86,-59.2 86,-40.2 10,-40.2"/>
<polygon fill="none" stroke="#000000" points="10,-40.2 10,-59.2 86,-59.2 86,-40.2 10,-40.2"/>
<text text-anchor="start" x="13" y="-46.3" font-family="Helvetica,sans-Serif" font-size="11.00" fill="#000000">&lt; 0</text>
<polygon fill="#ffffff" stroke="transparent" points="86,-40.2 86,-59.2 154,-59.2 154,-40.2 86,-40.2"/>
<polygon fill="none" stroke="#000000" points="86,-40.2 86,-59.2 154,-59.2 154,-40.2 86,-40.2"/>
<text text-anchor="start" x="144.8862" y="-46.3" font-family="Helvetica,sans-Serif" font-size="11.00" fill="#000000"> &#160;</text>
<polygon fill="#ffffff" stroke="transparent" points="154,-40.2 154,-59.2 238,-59.2 238,-40.2 154,-40.2"/>
<polygon fill="none" stroke="#000000" points="154,-40.2 154,-59.2 238,-59.2 238,-40.2 154,-40.2"/>
<text text-anchor="start" x="219.4053" y="-46.3" font-family="Helvetica,sans-Serif" font-size="11.00" fill="#000000">2 &gt;</text>
<polygon fill="none" stroke="#000000" stroke-width="2" points="9,-39.2 9,-457.2 239,-457.2 239,-39.2 9,-39.2"/>
</a>
</g>
</g>
<!-- bond_portfolio_constituents&#45;&gt;bonds -->
<g id="edge1" class="edge">
<title>bond_portfolio_constituents:w&#45;&gt;bonds:e</title>
<path fill="none" stroke="#000000" d="M274.6581,-536.5391C243.8728,-516.622 289.1074,-422.2 238,-422.2"/>
<polygon fill="#000000" stroke="#000000" points="281.2485,-538.2213 288.1096,-543.6882 285.1243,-539.2107 289,-540.2 289,-540.2 289,-540.2 285.1243,-539.2107 289.8904,-536.7118 281.2485,-538.2213 281.2485,-538.2213"/>
<ellipse fill="none" stroke="#000000" cx="278.148" cy="-537.4299" rx="3.2" ry="3.2"/>
</g>
<!-- cds_trades -->
<g id="node3" class="node">
<title>cds_trades</title>
<g id="a_node3"><a xlink:href="../../tables/cds_trades.html" xlink:title="cds_trades" target="_top">
<polygon fill="#ffffff" stroke="transparent" points="317,-57.7 317,-448.7 489,-448.7 489,-57.7 317,-57.7"/>
<polygon fill="#f5f5f5" stroke="transparent" points="317,-425.2 317,-448.2 489,-448.2 489,-425.2 317,-425.2"/>
<polygon fill="none" stroke="#000000" points="317,-425.2 317,-448.2 489,-448.2 489,-425.2 317,-425.2"/>
<text text-anchor="start" x="322" y="-433.8" font-family="Helvetica,sans-Serif" font-weight="bold" font-size="11.00" fill="#000000">cds_trades</text>
<text text-anchor="start" x="454.0437" y="-433.3" font-family="Helvetica,sans-Serif" font-size="11.00" fill="#000000">[table]</text>
<polygon fill="none" stroke="#000000" points="317,-403.2 317,-425.2 489,-425.2 489,-403.2 317,-403.2"/>
<image xlink:href="../../images/primaryKeys.png" width="11px" height="12px" preserveAspectRatio="xMinYMin meet" x="322" y="-420.2"/>
<text text-anchor="start" x="337" y="-410.3" font-family="Helvetica,sans-Serif" font-size="11.00" fill="#000000">id</text>
<polygon fill="#ffffff" stroke="transparent" points="317,-381.2 317,-403.2 489,-403.2 489,-381.2 317,-381.2"/>
<polygon fill="none" stroke="#000000" points="317,-381.2 317,-403.2 489,-403.2 489,-381.2 317,-381.2"/>
<text text-anchor="start" x="337" y="-388.3" font-family="Helvetica,sans-Serif" font-size="11.00" fill="#000000">reference_entity</text>
<polygon fill="#ffffff" stroke="transparent" points="317,-359.2 317,-381.2 489,-381.2 489,-359.2 317,-359.2"/>
<polygon fill="none" stroke="#000000" points="317,-359.2 317,-381.2 489,-381.2 489,-359.2 317,-359.2"/>
<text text-anchor="start" x="337" y="-366.3" font-family="Helvetica,sans-Serif" font-size="11.00" fill="#000000">counterparty</text>
<polygon fill="#ffffff" stroke="transparent" points="317,-337.2 317,-359.2 489,-359.2 489,-337.2 317,-337.2"/>
<polygon fill="none" stroke="#000000" points="317,-337.2 317,-359.2 489,-359.2 489,-337.2 317,-337.2"/>
<text text-anchor="start" x="337" y="-344.3" font-family="Helvetica,sans-Serif" font-size="11.00" fill="#000000">trade_date</text>
<polygon fill="#ffffff" stroke="transparent" points="317,-315.2 317,-337.2 489,-337.2 489,-315.2 317,-315.2"/>
<polygon fill="none" stroke="#000000" points="317,-315.2 317,-337.2 489,-337.2 489,-315.2 317,-315.2"/>
<text text-anchor="start" x="337" y="-322.3" font-family="Helvetica,sans-Serif" font-size="11.00" fill="#000000">created_at</text>
<polygon fill="#ffffff" stroke="transparent" points="317,-293.2 317,-315.2 489,-315.2 489,-293.2 317,-293.2"/>
<polygon fill="none" stroke="#000000" points="317,-293.2 317,-315.2 489,-315.2 489,-293.2 317,-293.2"/>
<image xlink:href="../../images/foreignKeys.png" width="11px" height="12px" preserveAspectRatio="xMinYMin meet" x="322" y="-310.2"/>
<text text-anchor="start" x="337" y="-300.3" font-family="Helvetica,sans-Serif" font-size="11.00" fill="#000000">obligation_id</text>
<polygon fill="#ffffff" stroke="transparent" points="317,-271.2 317,-293.2 489,-293.2 489,-271.2 317,-271.2"/>
<polygon fill="none" stroke="#000000" points="317,-271.2 317,-293.2 489,-293.2 489,-271.2 317,-271.2"/>
<text text-anchor="start" x="337" y="-278.3" font-family="Helvetica,sans-Serif" font-size="11.00" fill="#000000">settlement_type</text>
<polygon fill="#ffffff" stroke="transparent" points="317,-249.2 317,-271.2 489,-271.2 489,-249.2 317,-249.2"/>
<polygon fill="none" stroke="#000000" points="317,-249.2 317,-271.2 489,-271.2 489,-249.2 317,-249.2"/>
<text text-anchor="start" x="337" y="-256.3" font-family="Helvetica,sans-Serif" font-size="11.00" fill="#000000">ccp_name</text>
<polygon fill="#ffffff" stroke="transparent" points="317,-227.2 317,-249.2 489,-249.2 489,-227.2 317,-227.2"/>
<polygon fill="none" stroke="#000000" points="317,-227.2 317,-249.2 489,-249.2 489,-227.2 317,-227.2"/>
<image xlink:href="../../images/foreignKeys.png" width="11px" height="12px" preserveAspectRatio="xMinYMin meet" x="322" y="-244.2"/>
<text text-anchor="start" x="337" y="-234.3" font-family="Helvetica,sans-Serif" font-size="11.00" fill="#000000">original_trade_id</text>
<polygon fill="#ffffff" stroke="transparent" points="317,-205.2 317,-227.2 489,-227.2 489,-205.2 317,-205.2"/>
<polygon fill="none" stroke="#000000" points="317,-205.2 317,-227.2 489,-227.2 489,-205.2 317,-205.2"/>
<text text-anchor="start" x="337" y="-212.3" font-family="Helvetica,sans-Serif" font-size="11.00" fill="#000000">novation_timestamp</text>
<polygon fill="#ffffff" stroke="transparent" points="317,-183.2 317,-205.2 489,-205.2 489,-183.2 317,-183.2"/>
<polygon fill="none" stroke="#000000" points="317,-183.2 317,-205.2 489,-205.2 489,-183.2 317,-183.2"/>
<text text-anchor="start" x="337" y="-190.3" font-family="Helvetica,sans-Serif" font-size="11.00" fill="#000000">novation_reference</text>
<polygon fill="#ffffff" stroke="transparent" points="317,-161.2 317,-183.2 489,-183.2 489,-161.2 317,-161.2"/>
<polygon fill="none" stroke="#000000" points="317,-161.2 317,-183.2 489,-183.2 489,-161.2 317,-161.2"/>
<text text-anchor="start" x="337" y="-168.3" font-family="Helvetica,sans-Serif" font-size="11.00" fill="#000000">uti</text>
<polygon fill="#ffffff" stroke="transparent" points="317,-139.2 317,-161.2 489,-161.2 489,-139.2 317,-139.2"/>
<polygon fill="none" stroke="#000000" points="317,-139.2 317,-161.2 489,-161.2 489,-139.2 317,-139.2"/>
<text text-anchor="start" x="337" y="-146.3" font-family="Helvetica,sans-Serif" font-size="11.00" fill="#000000">usi</text>
<polygon fill="#ffffff" stroke="transparent" points="317,-117.2 317,-139.2 489,-139.2 489,-117.2 317,-117.2"/>
<polygon fill="none" stroke="#000000" points="317,-117.2 317,-139.2 489,-139.2 489,-117.2 317,-117.2"/>
<text text-anchor="start" x="337" y="-124.3" font-family="Helvetica,sans-Serif" font-size="11.00" fill="#000000">is_cleared</text>
<polygon fill="#ffffff" stroke="transparent" points="317,-95.2 317,-117.2 489,-117.2 489,-95.2 317,-95.2"/>
<polygon fill="none" stroke="#000000" points="317,-95.2 317,-117.2 489,-117.2 489,-95.2 317,-95.2"/>
<text text-anchor="start" x="337" y="-102.3" font-family="Helvetica,sans-Serif" font-size="11.00" fill="#000000">mark_to_market_value</text>
<polygon fill="none" stroke="#000000" points="317,-76.2 317,-95.2 489,-95.2 489,-76.2 317,-76.2"/>
<text text-anchor="start" x="320" y="-82.3" font-family="Helvetica,sans-Serif" font-size="11.00" fill="#000000">...</text>
<polygon fill="#ffffff" stroke="transparent" points="317,-57.2 317,-76.2 394,-76.2 394,-57.2 317,-57.2"/>
<polygon fill="none" stroke="#000000" points="317,-57.2 317,-76.2 394,-76.2 394,-57.2 317,-57.2"/>
<text text-anchor="start" x="320" y="-63.3" font-family="Helvetica,sans-Serif" font-size="11.00" fill="#000000">&lt; 2</text>
<polygon fill="#ffffff" stroke="transparent" points="394,-57.2 394,-76.2 434,-76.2 434,-57.2 394,-57.2"/>
<polygon fill="none" stroke="#000000" points="394,-57.2 394,-76.2 434,-76.2 434,-57.2 394,-57.2"/>
<text text-anchor="start" x="424.8862" y="-63.3" font-family="Helvetica,sans-Serif" font-size="11.00" fill="#000000"> &#160;</text>
<polygon fill="#ffffff" stroke="transparent" points="434,-57.2 434,-76.2 489,-76.2 489,-57.2 434,-57.2"/>
<polygon fill="none" stroke="#000000" points="434,-57.2 434,-76.2 489,-76.2 489,-57.2 434,-57.2"/>
<text text-anchor="start" x="464.2904" y="-63.3" font-family="Helvetica,sans-Serif" font-size="11.00" fill="#000000">13 &gt;</text>
</a>
</g>
</g>
<!-- cds_trades&#45;&gt;bonds -->
<g id="edge2" class="edge">
<title>cds_trades:w&#45;&gt;bonds:e</title>
<path fill="none" stroke="#000000" d="M302.7661,-306.7743C261.3363,-324.0307 295.5657,-422.2 238,-422.2"/>
<polygon fill="#000000" stroke="#000000" points="309.1277,-305.6238 317.6407,-307.7425 313.0639,-304.9119 317,-304.2 317,-304.2 317,-304.2 313.0639,-304.9119 316.3593,-300.6575 309.1277,-305.6238 309.1277,-305.6238"/>
<ellipse fill="none" stroke="#000000" cx="305.9788" cy="-306.1934" rx="3.2" ry="3.2"/>
</g>
</g>
</svg>
