<?xml version="1.0" encoding="UTF-8" standalone="no"?>
<!DOCTYPE svg PUBLIC "-//W3C//DTD SVG 1.1//EN"
 "http://www.w3.org/Graphics/SVG/1.1/DTD/svg11.dtd">
<!-- Generated by graphviz version 2.40.1 (20161225.0304)
 -->
<!-- Title: oneDegreeRelationshipsDiagram Pages: 1 -->
<svg width="515pt" height="347pt"
 viewBox="0.00 0.00 515.00 347.20" xmlns="http://www.w3.org/2000/svg" xmlns:xlink="http://www.w3.org/1999/xlink">
<g id="graph0" class="graph" transform="scale(1 1) rotate(0) translate(4 343.2)">
<title>oneDegreeRelationshipsDiagram</title>
<polygon fill="#ffffff" stroke="transparent" points="-4,4 -4,-343.2 511,-343.2 511,4 -4,4"/>
<text text-anchor="middle" x="72.4936" y="-7.3" font-family="Helvetica,sans-Serif" font-size="11.00" fill="#000000">Generated by SchemaSpy</text>
<!-- bond_portfolio_constituents -->
<g id="node1" class="node">
<title>bond_portfolio_constituents</title>
<g id="a_node1"><a xlink:href="../../tables/bond_portfolio_constituents.html" xlink:title="bond_portfolio_constituents" target="_top">
<polygon fill="#ffffff" stroke="transparent" points="201,-117.7 201,-317.7 499,-317.7 499,-117.7 201,-117.7"/>
<polygon fill="#f5f5f5" stroke="transparent" points="203,-292.7 203,-315.7 497,-315.7 497,-292.7 203,-292.7"/>
<polygon fill="none" stroke="#000000" points="203,-292.7 203,-315.7 497,-315.7 497,-292.7 203,-292.7"/>
<text text-anchor="start" x="208" y="-301.3" font-family="Helvetica,sans-Serif" font-weight="bold" font-size="11.00" fill="#000000">bond_portfolio_constituents</text>
<text text-anchor="start" x="462.0437" y="-300.8" font-family="Helvetica,sans-Serif" font-size="11.00" fill="#000000">[table]</text>
<polygon fill="none" stroke="#000000" points="203,-270.7 203,-292.7 413,-292.7 413,-270.7 203,-270.7"/>
<image xlink:href="../../images/primaryKeys.png" width="11px" height="12px" preserveAspectRatio="xMinYMin meet" x="208" y="-287.7"/>
<text text-anchor="start" x="223" y="-277.8" font-family="Helvetica,sans-Serif" font-size="11.00" fill="#000000">id</text>
<polygon fill="none" stroke="#000000" points="413,-270.7 413,-292.7 497,-292.7 497,-270.7 413,-270.7"/>
<text text-anchor="start" x="416" y="-278.4" font-family="Helvetica,sans-Serif" font-size="11.00" fill="#000000">bigserial[19]</text>
<polygon fill="#ffffff" stroke="transparent" points="203,-248.7 203,-270.7 413,-270.7 413,-248.7 203,-248.7"/>
<polygon fill="none" stroke="#000000" points="203,-248.7 203,-270.7 413,-270.7 413,-248.7 203,-248.7"/>
<image xlink:href="../../images/foreignKeys.png" width="11px" height="12px" preserveAspectRatio="xMinYMin meet" x="208" y="-265.7"/>
<text text-anchor="start" x="223" y="-255.8" font-family="Helvetica,sans-Serif" font-size="11.00" fill="#000000">portfolio_id</text>
<polygon fill="none" stroke="#000000" points="413,-248.7 413,-270.7 497,-270.7 497,-248.7 413,-248.7"/>
<text text-anchor="start" x="416" y="-256.4" font-family="Helvetica,sans-Serif" font-size="11.00" fill="#000000">int8[19]</text>
<polygon fill="#ffffff" stroke="transparent" points="203,-226.7 203,-248.7 413,-248.7 413,-226.7 203,-226.7"/>
<polygon fill="none" stroke="#000000" points="203,-226.7 203,-248.7 413,-248.7 413,-226.7 203,-226.7"/>
<image xlink:href="../../images/foreignKeys.png" width="11px" height="12px" preserveAspectRatio="xMinYMin meet" x="208" y="-243.7"/>
<text text-anchor="start" x="223" y="-233.8" font-family="Helvetica,sans-Serif" font-size="11.00" fill="#000000">bond_id</text>
<polygon fill="none" stroke="#000000" points="413,-226.7 413,-248.7 497,-248.7 497,-226.7 413,-226.7"/>
<text text-anchor="start" x="416" y="-234.4" font-family="Helvetica,sans-Serif" font-size="11.00" fill="#000000">int8[19]</text>
<polygon fill="none" stroke="#000000" points="203,-204.7 203,-226.7 413,-226.7 413,-204.7 203,-204.7"/>
<text text-anchor="start" x="223" y="-211.8" font-family="Helvetica,sans-Serif" font-size="11.00" fill="#000000">weight_type</text>
<polygon fill="none" stroke="#000000" points="413,-204.7 413,-226.7 497,-226.7 497,-204.7 413,-204.7"/>
<text text-anchor="start" x="416" y="-212.4" font-family="Helvetica,sans-Serif" font-size="11.00" fill="#000000">varchar[20]</text>
<polygon fill="none" stroke="#000000" points="203,-182.7 203,-204.7 413,-204.7 413,-182.7 203,-182.7"/>
<text text-anchor="start" x="223" y="-189.8" font-family="Helvetica,sans-Serif" font-size="11.00" fill="#000000">weight_value</text>
<polygon fill="none" stroke="#000000" points="413,-182.7 413,-204.7 497,-204.7 497,-182.7 413,-182.7"/>
<text text-anchor="start" x="416" y="-190.4" font-family="Helvetica,sans-Serif" font-size="11.00" fill="#000000">numeric[20,4]</text>
<polygon fill="#ffffff" stroke="transparent" points="203,-160.7 203,-182.7 413,-182.7 413,-160.7 203,-160.7"/>
<polygon fill="none" stroke="#000000" points="203,-160.7 203,-182.7 413,-182.7 413,-160.7 203,-160.7"/>
<text text-anchor="start" x="223" y="-167.8" font-family="Helvetica,sans-Serif" font-size="11.00" fill="#000000">active</text>
<polygon fill="none" stroke="#000000" points="413,-160.7 413,-182.7 497,-182.7 497,-160.7 413,-160.7"/>
<text text-anchor="start" x="416" y="-168.4" font-family="Helvetica,sans-Serif" font-size="11.00" fill="#000000">bool[1]</text>
<polygon fill="none" stroke="#000000" points="203,-138.7 203,-160.7 413,-160.7 413,-138.7 203,-138.7"/>
<text text-anchor="start" x="223" y="-145.8" font-family="Helvetica,sans-Serif" font-size="11.00" fill="#000000">added_at</text>
<polygon fill="none" stroke="#000000" points="413,-138.7 413,-160.7 497,-160.7 497,-138.7 413,-138.7"/>
<text text-anchor="start" x="415.8807" y="-146.4" font-family="Helvetica,sans-Serif" font-size="11.00" fill="#000000">timestamp[29,6]</text>
<polygon fill="#ffffff" stroke="transparent" points="203,-119.7 203,-138.7 312,-138.7 312,-119.7 203,-119.7"/>
<polygon fill="none" stroke="#000000" points="203,-119.7 203,-138.7 312,-138.7 312,-119.7 203,-119.7"/>
<text text-anchor="start" x="206" y="-125.8" font-family="Helvetica,sans-Serif" font-size="11.00" fill="#000000">&lt; 2</text>
<polygon fill="#ffffff" stroke="transparent" points="312,-119.7 312,-138.7 413,-138.7 413,-119.7 312,-119.7"/>
<polygon fill="none" stroke="#000000" points="312,-119.7 312,-138.7 413,-138.7 413,-119.7 312,-119.7"/>
<text text-anchor="start" x="403.8862" y="-125.8" font-family="Helvetica,sans-Serif" font-size="11.00" fill="#000000"> &#160;</text>
<polygon fill="#ffffff" stroke="transparent" points="413,-119.7 413,-138.7 497,-138.7 497,-119.7 413,-119.7"/>
<polygon fill="none" stroke="#000000" points="413,-119.7 413,-138.7 497,-138.7 497,-119.7 413,-119.7"/>
<text text-anchor="start" x="478.4053" y="-125.8" font-family="Helvetica,sans-Serif" font-size="11.00" fill="#000000">0 &gt;</text>
<polygon fill="none" stroke="#000000" stroke-width="2" points="202,-118.7 202,-316.7 498,-316.7 498,-118.7 202,-118.7"/>
</a>
</g>
</g>
<!-- bonds -->
<g id="node2" class="node">
<title>bonds</title>
<g id="a_node2"><a xlink:href="../../tables/bonds.html" xlink:title="bonds" target="_top">
<polygon fill="#ffffff" stroke="transparent" points="8,-38.2 8,-231.2 152,-231.2 152,-38.2 8,-38.2"/>
<polygon fill="#f5f5f5" stroke="transparent" points="8,-207.7 8,-230.7 152,-230.7 152,-207.7 8,-207.7"/>
<polygon fill="none" stroke="#000000" points="8,-207.7 8,-230.7 152,-230.7 152,-207.7 8,-207.7"/>
<text text-anchor="start" x="13" y="-216.3" font-family="Helvetica,sans-Serif" font-weight="bold" font-size="11.00" fill="#000000">bonds</text>
<text text-anchor="start" x="117.0437" y="-215.8" font-family="Helvetica,sans-Serif" font-size="11.00" fill="#000000">[table]</text>
<polygon fill="none" stroke="#000000" points="8,-185.7 8,-207.7 152,-207.7 152,-185.7 8,-185.7"/>
<image xlink:href="../../images/primaryKeys.png" width="11px" height="12px" preserveAspectRatio="xMinYMin meet" x="13" y="-202.7"/>
<text text-anchor="start" x="28" y="-192.8" font-family="Helvetica,sans-Serif" font-size="11.00" fill="#000000">id</text>
<polygon fill="#ffffff" stroke="transparent" points="8,-163.7 8,-185.7 152,-185.7 152,-163.7 8,-163.7"/>
<polygon fill="none" stroke="#000000" points="8,-163.7 8,-185.7 152,-185.7 152,-163.7 8,-163.7"/>
<text text-anchor="start" x="28" y="-170.8" font-family="Helvetica,sans-Serif" font-size="11.00" fill="#000000">isin</text>
<polygon fill="#ffffff" stroke="transparent" points="8,-141.7 8,-163.7 152,-163.7 152,-141.7 8,-141.7"/>
<polygon fill="none" stroke="#000000" points="8,-141.7 8,-163.7 152,-163.7 152,-141.7 8,-141.7"/>
<text text-anchor="start" x="28" y="-148.8" font-family="Helvetica,sans-Serif" font-size="11.00" fill="#000000">issuer</text>
<polygon fill="#ffffff" stroke="transparent" points="8,-119.7 8,-141.7 152,-141.7 152,-119.7 8,-119.7"/>
<polygon fill="none" stroke="#000000" points="8,-119.7 8,-141.7 152,-141.7 152,-119.7 8,-119.7"/>
<text text-anchor="start" x="28" y="-126.8" font-family="Helvetica,sans-Serif" font-size="11.00" fill="#000000">sector</text>
<polygon fill="#ffffff" stroke="transparent" points="8,-97.7 8,-119.7 152,-119.7 152,-97.7 8,-97.7"/>
<polygon fill="none" stroke="#000000" points="8,-97.7 8,-119.7 152,-119.7 152,-97.7 8,-97.7"/>
<text text-anchor="start" x="28" y="-104.8" font-family="Helvetica,sans-Serif" font-size="11.00" fill="#000000">currency</text>
<polygon fill="#ffffff" stroke="transparent" points="8,-75.7 8,-97.7 152,-97.7 152,-75.7 8,-75.7"/>
<polygon fill="none" stroke="#000000" points="8,-75.7 8,-97.7 152,-97.7 152,-75.7 8,-75.7"/>
<text text-anchor="start" x="28" y="-82.8" font-family="Helvetica,sans-Serif" font-size="11.00" fill="#000000">maturity_date</text>
<polygon fill="none" stroke="#000000" points="8,-56.7 8,-75.7 152,-75.7 152,-56.7 8,-56.7"/>
<text text-anchor="start" x="11" y="-62.8" font-family="Helvetica,sans-Serif" font-size="11.00" fill="#000000">...</text>
<polygon fill="#ffffff" stroke="transparent" points="8,-37.7 8,-56.7 69,-56.7 69,-37.7 8,-37.7"/>
<polygon fill="none" stroke="#000000" points="8,-37.7 8,-56.7 69,-56.7 69,-37.7 8,-37.7"/>
<text text-anchor="start" x="11" y="-43.8" font-family="Helvetica,sans-Serif" font-size="11.00" fill="#000000"> &#160;</text>
<polygon fill="#ffffff" stroke="transparent" points="69,-37.7 69,-56.7 106,-56.7 106,-37.7 69,-37.7"/>
<polygon fill="none" stroke="#000000" points="69,-37.7 69,-56.7 106,-56.7 106,-37.7 69,-37.7"/>
<text text-anchor="start" x="96.8862" y="-43.8" font-family="Helvetica,sans-Serif" font-size="11.00" fill="#000000"> &#160;</text>
<polygon fill="#ffffff" stroke="transparent" points="106,-37.7 106,-56.7 152,-56.7 152,-37.7 106,-37.7"/>
<polygon fill="none" stroke="#000000" points="106,-37.7 106,-56.7 152,-56.7 152,-37.7 106,-37.7"/>
<text text-anchor="start" x="133.4053" y="-43.8" font-family="Helvetica,sans-Serif" font-size="11.00" fill="#000000">2 &gt;</text>
</a>
</g>
</g>
<!-- bond_portfolio_constituents&#45;&gt;bonds -->
<g id="edge1" class="edge">
<title>bond_portfolio_constituents:w&#45;&gt;bonds:e</title>
<path fill="none" stroke="#000000" d="M189.1568,-233.3123C175.3325,-222.7354 175.1756,-196.7 152,-196.7"/>
<polygon fill="#000000" stroke="#000000" points="195.3739,-235.2828 201.9123,-241.1317 199.1869,-236.4914 203,-237.7 203,-237.7 203,-237.7 199.1869,-236.4914 204.0877,-234.2683 195.3739,-235.2828 195.3739,-235.2828"/>
<ellipse fill="none" stroke="#000000" cx="192.3235" cy="-234.3159" rx="3.2" ry="3.2"/>
</g>
<!-- cds_portfolios -->
<g id="node3" class="node">
<title>cds_portfolios</title>
<g id="a_node3"><a xlink:href="../../tables/cds_portfolios.html" xlink:title="cds_portfolios" target="_top">
<polygon fill="#ffffff" stroke="transparent" points="13.5,-252.2 13.5,-335.2 146.5,-335.2 146.5,-252.2 13.5,-252.2"/>
<polygon fill="#f5f5f5" stroke="transparent" points="14,-311.7 14,-334.7 147,-334.7 147,-311.7 14,-311.7"/>
<polygon fill="none" stroke="#000000" points="14,-311.7 14,-334.7 147,-334.7 147,-311.7 14,-311.7"/>
<text text-anchor="start" x="19" y="-320.3" font-family="Helvetica,sans-Serif" font-weight="bold" font-size="11.00" fill="#000000">cds_portfolios</text>
<text text-anchor="start" x="112.5219" y="-319.8" font-family="Helvetica,sans-Serif" font-size="11.00" fill="#000000">[table]</text>
<polygon fill="none" stroke="#000000" points="14,-289.7 14,-311.7 147,-311.7 147,-289.7 14,-289.7"/>
<image xlink:href="../../images/primaryKeys.png" width="11px" height="12px" preserveAspectRatio="xMinYMin meet" x="19" y="-306.7"/>
<text text-anchor="start" x="43" y="-296.8" font-family="Helvetica,sans-Serif" font-size="11.00" fill="#000000">id</text>
<polygon fill="none" stroke="#000000" points="14,-270.7 14,-289.7 147,-289.7 147,-270.7 14,-270.7"/>
<text text-anchor="start" x="17" y="-276.8" font-family="Helvetica,sans-Serif" font-size="11.00" fill="#000000">...</text>
<polygon fill="#ffffff" stroke="transparent" points="14,-251.7 14,-270.7 70,-270.7 70,-251.7 14,-251.7"/>
<polygon fill="none" stroke="#000000" points="14,-251.7 14,-270.7 70,-270.7 70,-251.7 14,-251.7"/>
<text text-anchor="start" x="17" y="-257.8" font-family="Helvetica,sans-Serif" font-size="11.00" fill="#000000"> &#160;</text>
<polygon fill="#ffffff" stroke="transparent" points="70,-251.7 70,-270.7 104,-270.7 104,-251.7 70,-251.7"/>
<polygon fill="none" stroke="#000000" points="70,-251.7 70,-270.7 104,-270.7 104,-251.7 70,-251.7"/>
<text text-anchor="start" x="94.8862" y="-257.8" font-family="Helvetica,sans-Serif" font-size="11.00" fill="#000000"> &#160;</text>
<polygon fill="#ffffff" stroke="transparent" points="104,-251.7 104,-270.7 147,-270.7 147,-251.7 104,-251.7"/>
<polygon fill="none" stroke="#000000" points="104,-251.7 104,-270.7 147,-270.7 147,-251.7 104,-251.7"/>
<text text-anchor="start" x="128.4053" y="-257.8" font-family="Helvetica,sans-Serif" font-size="11.00" fill="#000000">5 &gt;</text>
</a>
</g>
</g>
<!-- bond_portfolio_constituents&#45;&gt;cds_portfolios -->
<g id="edge2" class="edge">
<title>bond_portfolio_constituents:w&#45;&gt;cds_portfolios:e</title>
<path fill="none" stroke="#000000" d="M189.0209,-263.4837C173.0038,-273.6336 172.0628,-300.7 147,-300.7"/>
<polygon fill="#000000" stroke="#000000" points="195.2779,-261.7902 203.9406,-263.175 199.1389,-260.7451 203,-259.7 203,-259.7 203,-259.7 199.1389,-260.7451 202.0594,-256.225 195.2779,-261.7902 195.2779,-261.7902"/>
<ellipse fill="none" stroke="#000000" cx="192.189" cy="-262.6262" rx="3.2" ry="3.2"/>
</g>
</g>
</svg>
