<?xml version="1.0" encoding="UTF-8" standalone="no"?>
<!DOCTYPE svg PUBLIC "-//W3C//DTD SVG 1.1//EN"
 "http://www.w3.org/Graphics/SVG/1.1/DTD/svg11.dtd">
<!-- Generated by graphviz version 2.40.1 (20161225.0304)
 -->
<!-- Title: twoDegreesRelationshipsDiagram Pages: 1 -->
<svg width="697pt" height="579pt"
 viewBox="0.00 0.00 697.00 578.70" xmlns="http://www.w3.org/2000/svg" xmlns:xlink="http://www.w3.org/1999/xlink">
<g id="graph0" class="graph" transform="scale(1 1) rotate(0) translate(4 574.7)">
<title>twoDegreesRelationshipsDiagram</title>
<polygon fill="#ffffff" stroke="transparent" points="-4,4 -4,-574.7 693,-574.7 693,4 -4,4"/>
<text text-anchor="middle" x="72.4936" y="-7.3" font-family="Helvetica,sans-Serif" font-size="11.00" fill="#000000">Generated by SchemaSpy</text>
<!-- basket_portfolio_constituents -->
<g id="node1" class="node">
<title>basket_portfolio_constituents</title>
<g id="a_node1"><a xlink:href="../../tables/basket_portfolio_constituents.html" xlink:title="basket_portfolio_constituents" target="_top">
<polygon fill="#ffffff" stroke="transparent" points="412.5,-505.7 412.5,-566.7 651.5,-566.7 651.5,-505.7 412.5,-505.7"/>
<polygon fill="#f5f5f5" stroke="transparent" points="413,-543.2 413,-566.2 652,-566.2 652,-543.2 413,-543.2"/>
<polygon fill="none" stroke="#000000" points="413,-543.2 413,-566.2 652,-566.2 652,-543.2 413,-543.2"/>
<text text-anchor="start" x="418" y="-551.8" font-family="Helvetica,sans-Serif" font-weight="bold" font-size="11.00" fill="#000000">basket_portfolio_constituents</text>
<text text-anchor="start" x="617.5219" y="-551.3" font-family="Helvetica,sans-Serif" font-size="11.00" fill="#000000">[table]</text>
<polygon fill="none" stroke="#000000" points="413,-524.2 413,-543.2 652,-543.2 652,-524.2 413,-524.2"/>
<text text-anchor="start" x="416" y="-530.3" font-family="Helvetica,sans-Serif" font-size="11.00" fill="#000000">...</text>
<polygon fill="#ffffff" stroke="transparent" points="413,-505.2 413,-524.2 531,-524.2 531,-505.2 413,-505.2"/>
<polygon fill="none" stroke="#000000" points="413,-505.2 413,-524.2 531,-524.2 531,-505.2 413,-505.2"/>
<text text-anchor="start" x="416" y="-511.3" font-family="Helvetica,sans-Serif" font-size="11.00" fill="#000000">&lt; 2</text>
<polygon fill="#ffffff" stroke="transparent" points="531,-505.2 531,-524.2 591,-524.2 591,-505.2 531,-505.2"/>
<polygon fill="none" stroke="#000000" points="531,-505.2 531,-524.2 591,-524.2 591,-505.2 531,-505.2"/>
<text text-anchor="start" x="581.8862" y="-511.3" font-family="Helvetica,sans-Serif" font-size="11.00" fill="#000000"> &#160;</text>
<polygon fill="#ffffff" stroke="transparent" points="591,-505.2 591,-524.2 652,-524.2 652,-505.2 591,-505.2"/>
<polygon fill="none" stroke="#000000" points="591,-505.2 591,-524.2 652,-524.2 652,-505.2 591,-505.2"/>
<text text-anchor="start" x="642.8862" y="-511.3" font-family="Helvetica,sans-Serif" font-size="11.00" fill="#000000"> &#160;</text>
</a>
</g>
</g>
<!-- cds_portfolios -->
<g id="node2" class="node">
<title>cds_portfolios</title>
<g id="a_node2"><a xlink:href="../../tables/cds_portfolios.html" xlink:title="cds_portfolios" target="_top">
<polygon fill="#ffffff" stroke="transparent" points="201,-320.7 201,-403.7 334,-403.7 334,-320.7 201,-320.7"/>
<polygon fill="#f5f5f5" stroke="transparent" points="201.5,-380.2 201.5,-403.2 334.5,-403.2 334.5,-380.2 201.5,-380.2"/>
<polygon fill="none" stroke="#000000" points="201.5,-380.2 201.5,-403.2 334.5,-403.2 334.5,-380.2 201.5,-380.2"/>
<text text-anchor="start" x="206.5" y="-388.8" font-family="Helvetica,sans-Serif" font-weight="bold" font-size="11.00" fill="#000000">cds_portfolios</text>
<text text-anchor="start" x="300.0219" y="-388.3" font-family="Helvetica,sans-Serif" font-size="11.00" fill="#000000">[table]</text>
<polygon fill="none" stroke="#000000" points="201.5,-358.2 201.5,-380.2 334.5,-380.2 334.5,-358.2 201.5,-358.2"/>
<image xlink:href="../../images/primaryKeys.png" width="11px" height="12px" preserveAspectRatio="xMinYMin meet" x="206.5" y="-375.2"/>
<text text-anchor="start" x="230.5" y="-365.3" font-family="Helvetica,sans-Serif" font-size="11.00" fill="#000000">id</text>
<polygon fill="none" stroke="#000000" points="201.5,-339.2 201.5,-358.2 334.5,-358.2 334.5,-339.2 201.5,-339.2"/>
<text text-anchor="start" x="204.5" y="-345.3" font-family="Helvetica,sans-Serif" font-size="11.00" fill="#000000">...</text>
<polygon fill="#ffffff" stroke="transparent" points="201.5,-320.2 201.5,-339.2 257.5,-339.2 257.5,-320.2 201.5,-320.2"/>
<polygon fill="none" stroke="#000000" points="201.5,-320.2 201.5,-339.2 257.5,-339.2 257.5,-320.2 201.5,-320.2"/>
<text text-anchor="start" x="204.5" y="-326.3" font-family="Helvetica,sans-Serif" font-size="11.00" fill="#000000"> &#160;</text>
<polygon fill="#ffffff" stroke="transparent" points="257.5,-320.2 257.5,-339.2 291.5,-339.2 291.5,-320.2 257.5,-320.2"/>
<polygon fill="none" stroke="#000000" points="257.5,-320.2 257.5,-339.2 291.5,-339.2 291.5,-320.2 257.5,-320.2"/>
<text text-anchor="start" x="282.3862" y="-326.3" font-family="Helvetica,sans-Serif" font-size="11.00" fill="#000000"> &#160;</text>
<polygon fill="#ffffff" stroke="transparent" points="291.5,-320.2 291.5,-339.2 334.5,-339.2 334.5,-320.2 291.5,-320.2"/>
<polygon fill="none" stroke="#000000" points="291.5,-320.2 291.5,-339.2 334.5,-339.2 334.5,-320.2 291.5,-320.2"/>
<text text-anchor="start" x="315.9053" y="-326.3" font-family="Helvetica,sans-Serif" font-size="11.00" fill="#000000">5 &gt;</text>
</a>
</g>
</g>
<!-- basket_portfolio_constituents&#45;&gt;cds_portfolios -->
<g id="edge1" class="edge">
<title>basket_portfolio_constituents:w&#45;&gt;cds_portfolios:e</title>
<path fill="none" stroke="#000000" d="M398.7366,-530.1291C387.6078,-524.2192 384.3356,-510.4884 375,-495.2 344.345,-444.9977 393.3218,-369.2 334.5,-369.2"/>
<polygon fill="#000000" stroke="#000000" points="405.1792,-531.5161 412.2423,-536.7194 409.0896,-532.3581 413,-533.2 413,-533.2 413,-533.2 409.0896,-532.3581 413.7577,-529.6806 405.1792,-531.5161 405.1792,-531.5161"/>
<ellipse fill="none" stroke="#000000" cx="402.0509" cy="-530.8426" rx="3.2" ry="3.2"/>
</g>
<!-- bond_portfolio_constituents -->
<g id="node3" class="node">
<title>bond_portfolio_constituents</title>
<g id="a_node3"><a xlink:href="../../tables/bond_portfolio_constituents.html" xlink:title="bond_portfolio_constituents" target="_top">
<polygon fill="#ffffff" stroke="transparent" points="383,-38.2 383,-238.2 681,-238.2 681,-38.2 383,-38.2"/>
<polygon fill="#f5f5f5" stroke="transparent" points="385,-213.2 385,-236.2 679,-236.2 679,-213.2 385,-213.2"/>
<polygon fill="none" stroke="#000000" points="385,-213.2 385,-236.2 679,-236.2 679,-213.2 385,-213.2"/>
<text text-anchor="start" x="390" y="-221.8" font-family="Helvetica,sans-Serif" font-weight="bold" font-size="11.00" fill="#000000">bond_portfolio_constituents</text>
<text text-anchor="start" x="644.0437" y="-221.3" font-family="Helvetica,sans-Serif" font-size="11.00" fill="#000000">[table]</text>
<polygon fill="none" stroke="#000000" points="385,-191.2 385,-213.2 595,-213.2 595,-191.2 385,-191.2"/>
<image xlink:href="../../images/primaryKeys.png" width="11px" height="12px" preserveAspectRatio="xMinYMin meet" x="390" y="-208.2"/>
<text text-anchor="start" x="405" y="-198.3" font-family="Helvetica,sans-Serif" font-size="11.00" fill="#000000">id</text>
<polygon fill="none" stroke="#000000" points="595,-191.2 595,-213.2 679,-213.2 679,-191.2 595,-191.2"/>
<text text-anchor="start" x="598" y="-198.9" font-family="Helvetica,sans-Serif" font-size="11.00" fill="#000000">bigserial[19]</text>
<polygon fill="#ffffff" stroke="transparent" points="385,-169.2 385,-191.2 595,-191.2 595,-169.2 385,-169.2"/>
<polygon fill="none" stroke="#000000" points="385,-169.2 385,-191.2 595,-191.2 595,-169.2 385,-169.2"/>
<image xlink:href="../../images/foreignKeys.png" width="11px" height="12px" preserveAspectRatio="xMinYMin meet" x="390" y="-186.2"/>
<text text-anchor="start" x="405" y="-176.3" font-family="Helvetica,sans-Serif" font-size="11.00" fill="#000000">portfolio_id</text>
<polygon fill="none" stroke="#000000" points="595,-169.2 595,-191.2 679,-191.2 679,-169.2 595,-169.2"/>
<text text-anchor="start" x="598" y="-176.9" font-family="Helvetica,sans-Serif" font-size="11.00" fill="#000000">int8[19]</text>
<polygon fill="#ffffff" stroke="transparent" points="385,-147.2 385,-169.2 595,-169.2 595,-147.2 385,-147.2"/>
<polygon fill="none" stroke="#000000" points="385,-147.2 385,-169.2 595,-169.2 595,-147.2 385,-147.2"/>
<image xlink:href="../../images/foreignKeys.png" width="11px" height="12px" preserveAspectRatio="xMinYMin meet" x="390" y="-164.2"/>
<text text-anchor="start" x="405" y="-154.3" font-family="Helvetica,sans-Serif" font-size="11.00" fill="#000000">bond_id</text>
<polygon fill="none" stroke="#000000" points="595,-147.2 595,-169.2 679,-169.2 679,-147.2 595,-147.2"/>
<text text-anchor="start" x="598" y="-154.9" font-family="Helvetica,sans-Serif" font-size="11.00" fill="#000000">int8[19]</text>
<polygon fill="none" stroke="#000000" points="385,-125.2 385,-147.2 595,-147.2 595,-125.2 385,-125.2"/>
<text text-anchor="start" x="405" y="-132.3" font-family="Helvetica,sans-Serif" font-size="11.00" fill="#000000">weight_type</text>
<polygon fill="none" stroke="#000000" points="595,-125.2 595,-147.2 679,-147.2 679,-125.2 595,-125.2"/>
<text text-anchor="start" x="598" y="-132.9" font-family="Helvetica,sans-Serif" font-size="11.00" fill="#000000">varchar[20]</text>
<polygon fill="none" stroke="#000000" points="385,-103.2 385,-125.2 595,-125.2 595,-103.2 385,-103.2"/>
<text text-anchor="start" x="405" y="-110.3" font-family="Helvetica,sans-Serif" font-size="11.00" fill="#000000">weight_value</text>
<polygon fill="none" stroke="#000000" points="595,-103.2 595,-125.2 679,-125.2 679,-103.2 595,-103.2"/>
<text text-anchor="start" x="598" y="-110.9" font-family="Helvetica,sans-Serif" font-size="11.00" fill="#000000">numeric[20,4]</text>
<polygon fill="#ffffff" stroke="transparent" points="385,-81.2 385,-103.2 595,-103.2 595,-81.2 385,-81.2"/>
<polygon fill="none" stroke="#000000" points="385,-81.2 385,-103.2 595,-103.2 595,-81.2 385,-81.2"/>
<text text-anchor="start" x="405" y="-88.3" font-family="Helvetica,sans-Serif" font-size="11.00" fill="#000000">active</text>
<polygon fill="none" stroke="#000000" points="595,-81.2 595,-103.2 679,-103.2 679,-81.2 595,-81.2"/>
<text text-anchor="start" x="598" y="-88.9" font-family="Helvetica,sans-Serif" font-size="11.00" fill="#000000">bool[1]</text>
<polygon fill="none" stroke="#000000" points="385,-59.2 385,-81.2 595,-81.2 595,-59.2 385,-59.2"/>
<text text-anchor="start" x="405" y="-66.3" font-family="Helvetica,sans-Serif" font-size="11.00" fill="#000000">added_at</text>
<polygon fill="none" stroke="#000000" points="595,-59.2 595,-81.2 679,-81.2 679,-59.2 595,-59.2"/>
<text text-anchor="start" x="597.8807" y="-66.9" font-family="Helvetica,sans-Serif" font-size="11.00" fill="#000000">timestamp[29,6]</text>
<polygon fill="#ffffff" stroke="transparent" points="385,-40.2 385,-59.2 494,-59.2 494,-40.2 385,-40.2"/>
<polygon fill="none" stroke="#000000" points="385,-40.2 385,-59.2 494,-59.2 494,-40.2 385,-40.2"/>
<text text-anchor="start" x="388" y="-46.3" font-family="Helvetica,sans-Serif" font-size="11.00" fill="#000000">&lt; 2</text>
<polygon fill="#ffffff" stroke="transparent" points="494,-40.2 494,-59.2 595,-59.2 595,-40.2 494,-40.2"/>
<polygon fill="none" stroke="#000000" points="494,-40.2 494,-59.2 595,-59.2 595,-40.2 494,-40.2"/>
<text text-anchor="start" x="585.8862" y="-46.3" font-family="Helvetica,sans-Serif" font-size="11.00" fill="#000000"> &#160;</text>
<polygon fill="#ffffff" stroke="transparent" points="595,-40.2 595,-59.2 679,-59.2 679,-40.2 595,-40.2"/>
<polygon fill="none" stroke="#000000" points="595,-40.2 595,-59.2 679,-59.2 679,-40.2 595,-40.2"/>
<text text-anchor="start" x="660.4053" y="-46.3" font-family="Helvetica,sans-Serif" font-size="11.00" fill="#000000">0 &gt;</text>
<polygon fill="none" stroke="#000000" stroke-width="2" points="384,-39.2 384,-237.2 680,-237.2 680,-39.2 384,-39.2"/>
</a>
</g>
</g>
<!-- bond_portfolio_constituents&#45;&gt;cds_portfolios -->
<g id="edge3" class="edge">
<title>bond_portfolio_constituents:w&#45;&gt;cds_portfolios:e</title>
<path fill="none" stroke="#000000" d="M370.6968,-182.4542C313.0856,-203.7781 415.8428,-369.2 334.5,-369.2"/>
<polygon fill="#000000" stroke="#000000" points="377.0975,-181.4455 385.5605,-183.7561 381.0488,-180.8227 385,-180.2 385,-180.2 385,-180.2 381.0488,-180.8227 384.4395,-176.6439 377.0975,-181.4455 377.0975,-181.4455"/>
<ellipse fill="none" stroke="#000000" cx="373.9366" cy="-181.9437" rx="3.2" ry="3.2"/>
</g>
<!-- bonds -->
<g id="node4" class="node">
<title>bonds</title>
<g id="a_node4"><a xlink:href="../../tables/bonds.html" xlink:title="bonds" target="_top">
<polygon fill="#ffffff" stroke="transparent" points="8,-39.7 8,-232.7 152,-232.7 152,-39.7 8,-39.7"/>
<polygon fill="#f5f5f5" stroke="transparent" points="8,-209.2 8,-232.2 152,-232.2 152,-209.2 8,-209.2"/>
<polygon fill="none" stroke="#000000" points="8,-209.2 8,-232.2 152,-232.2 152,-209.2 8,-209.2"/>
<text text-anchor="start" x="13" y="-217.8" font-family="Helvetica,sans-Serif" font-weight="bold" font-size="11.00" fill="#000000">bonds</text>
<text text-anchor="start" x="117.0437" y="-217.3" font-family="Helvetica,sans-Serif" font-size="11.00" fill="#000000">[table]</text>
<polygon fill="none" stroke="#000000" points="8,-187.2 8,-209.2 152,-209.2 152,-187.2 8,-187.2"/>
<image xlink:href="../../images/primaryKeys.png" width="11px" height="12px" preserveAspectRatio="xMinYMin meet" x="13" y="-204.2"/>
<text text-anchor="start" x="28" y="-194.3" font-family="Helvetica,sans-Serif" font-size="11.00" fill="#000000">id</text>
<polygon fill="#ffffff" stroke="transparent" points="8,-165.2 8,-187.2 152,-187.2 152,-165.2 8,-165.2"/>
<polygon fill="none" stroke="#000000" points="8,-165.2 8,-187.2 152,-187.2 152,-165.2 8,-165.2"/>
<text text-anchor="start" x="28" y="-172.3" font-family="Helvetica,sans-Serif" font-size="11.00" fill="#000000">isin</text>
<polygon fill="#ffffff" stroke="transparent" points="8,-143.2 8,-165.2 152,-165.2 152,-143.2 8,-143.2"/>
<polygon fill="none" stroke="#000000" points="8,-143.2 8,-165.2 152,-165.2 152,-143.2 8,-143.2"/>
<text text-anchor="start" x="28" y="-150.3" font-family="Helvetica,sans-Serif" font-size="11.00" fill="#000000">issuer</text>
<polygon fill="#ffffff" stroke="transparent" points="8,-121.2 8,-143.2 152,-143.2 152,-121.2 8,-121.2"/>
<polygon fill="none" stroke="#000000" points="8,-121.2 8,-143.2 152,-143.2 152,-121.2 8,-121.2"/>
<text text-anchor="start" x="28" y="-128.3" font-family="Helvetica,sans-Serif" font-size="11.00" fill="#000000">sector</text>
<polygon fill="#ffffff" stroke="transparent" points="8,-99.2 8,-121.2 152,-121.2 152,-99.2 8,-99.2"/>
<polygon fill="none" stroke="#000000" points="8,-99.2 8,-121.2 152,-121.2 152,-99.2 8,-99.2"/>
<text text-anchor="start" x="28" y="-106.3" font-family="Helvetica,sans-Serif" font-size="11.00" fill="#000000">currency</text>
<polygon fill="#ffffff" stroke="transparent" points="8,-77.2 8,-99.2 152,-99.2 152,-77.2 8,-77.2"/>
<polygon fill="none" stroke="#000000" points="8,-77.2 8,-99.2 152,-99.2 152,-77.2 8,-77.2"/>
<text text-anchor="start" x="28" y="-84.3" font-family="Helvetica,sans-Serif" font-size="11.00" fill="#000000">maturity_date</text>
<polygon fill="none" stroke="#000000" points="8,-58.2 8,-77.2 152,-77.2 152,-58.2 8,-58.2"/>
<text text-anchor="start" x="11" y="-64.3" font-family="Helvetica,sans-Serif" font-size="11.00" fill="#000000">...</text>
<polygon fill="#ffffff" stroke="transparent" points="8,-39.2 8,-58.2 69,-58.2 69,-39.2 8,-39.2"/>
<polygon fill="none" stroke="#000000" points="8,-39.2 8,-58.2 69,-58.2 69,-39.2 8,-39.2"/>
<text text-anchor="start" x="11" y="-45.3" font-family="Helvetica,sans-Serif" font-size="11.00" fill="#000000"> &#160;</text>
<polygon fill="#ffffff" stroke="transparent" points="69,-39.2 69,-58.2 106,-58.2 106,-39.2 69,-39.2"/>
<polygon fill="none" stroke="#000000" points="69,-39.2 69,-58.2 106,-58.2 106,-39.2 69,-39.2"/>
<text text-anchor="start" x="96.8862" y="-45.3" font-family="Helvetica,sans-Serif" font-size="11.00" fill="#000000"> &#160;</text>
<polygon fill="#ffffff" stroke="transparent" points="106,-39.2 106,-58.2 152,-58.2 152,-39.2 106,-39.2"/>
<polygon fill="none" stroke="#000000" points="106,-39.2 106,-58.2 152,-58.2 152,-39.2 106,-39.2"/>
<text text-anchor="start" x="133.4053" y="-45.3" font-family="Helvetica,sans-Serif" font-size="11.00" fill="#000000">2 &gt;</text>
</a>
</g>
</g>
<!-- bond_portfolio_constituents&#45;&gt;bonds -->
<g id="edge2" class="edge">
<title>bond_portfolio_constituents:w&#45;&gt;bonds:e</title>
<path fill="none" stroke="#000000" d="M370.4634,-158.466C277.5536,-161.9365 252.0427,-198.2 152,-198.2"/>
<polygon fill="#000000" stroke="#000000" points="377.0013,-158.3464 385.0659,-161.7994 381.0007,-158.2732 385,-158.2 385,-158.2 385,-158.2 381.0007,-158.2732 384.9341,-154.6006 377.0013,-158.3464 377.0013,-158.3464"/>
<ellipse fill="none" stroke="#000000" cx="373.8019" cy="-158.405" rx="3.2" ry="3.2"/>
</g>
<!-- cds_portfolio_constituents -->
<g id="node5" class="node">
<title>cds_portfolio_constituents</title>
<g id="a_node5"><a xlink:href="../../tables/cds_portfolio_constituents.html" xlink:title="cds_portfolio_constituents" target="_top">
<polygon fill="#ffffff" stroke="transparent" points="423.5,-259.7 423.5,-320.7 640.5,-320.7 640.5,-259.7 423.5,-259.7"/>
<polygon fill="#f5f5f5" stroke="transparent" points="424,-297.2 424,-320.2 641,-320.2 641,-297.2 424,-297.2"/>
<polygon fill="none" stroke="#000000" points="424,-297.2 424,-320.2 641,-320.2 641,-297.2 424,-297.2"/>
<text text-anchor="start" x="429" y="-305.8" font-family="Helvetica,sans-Serif" font-weight="bold" font-size="11.00" fill="#000000">cds_portfolio_constituents</text>
<text text-anchor="start" x="606.5219" y="-305.3" font-family="Helvetica,sans-Serif" font-size="11.00" fill="#000000">[table]</text>
<polygon fill="none" stroke="#000000" points="424,-278.2 424,-297.2 641,-297.2 641,-278.2 424,-278.2"/>
<text text-anchor="start" x="427" y="-284.3" font-family="Helvetica,sans-Serif" font-size="11.00" fill="#000000">...</text>
<polygon fill="#ffffff" stroke="transparent" points="424,-259.2 424,-278.2 531,-278.2 531,-259.2 424,-259.2"/>
<polygon fill="none" stroke="#000000" points="424,-259.2 424,-278.2 531,-278.2 531,-259.2 424,-259.2"/>
<text text-anchor="start" x="427" y="-265.3" font-family="Helvetica,sans-Serif" font-size="11.00" fill="#000000">&lt; 2</text>
<polygon fill="#ffffff" stroke="transparent" points="531,-259.2 531,-278.2 586,-278.2 586,-259.2 531,-259.2"/>
<polygon fill="none" stroke="#000000" points="531,-259.2 531,-278.2 586,-278.2 586,-259.2 531,-259.2"/>
<text text-anchor="start" x="576.8862" y="-265.3" font-family="Helvetica,sans-Serif" font-size="11.00" fill="#000000"> &#160;</text>
<polygon fill="#ffffff" stroke="transparent" points="586,-259.2 586,-278.2 641,-278.2 641,-259.2 586,-259.2"/>
<polygon fill="none" stroke="#000000" points="586,-259.2 586,-278.2 641,-278.2 641,-259.2 586,-259.2"/>
<text text-anchor="start" x="631.8862" y="-265.3" font-family="Helvetica,sans-Serif" font-size="11.00" fill="#000000"> &#160;</text>
</a>
</g>
</g>
<!-- cds_portfolio_constituents&#45;&gt;cds_portfolios -->
<g id="edge4" class="edge">
<title>cds_portfolio_constituents:w&#45;&gt;cds_portfolios:e</title>
<path fill="none" stroke="#000000" d="M409.557,-289.9565C394.5097,-296.8521 392.1827,-315.4278 375,-331.2 356.8164,-347.891 359.1827,-369.2 334.5,-369.2"/>
<polygon fill="#000000" stroke="#000000" points="416.1418,-288.6998 424.6749,-290.7362 420.0709,-287.9499 424,-287.2 424,-287.2 424,-287.2 420.0709,-287.9499 423.3251,-283.6638 416.1418,-288.6998 416.1418,-288.6998"/>
<ellipse fill="none" stroke="#000000" cx="412.9986" cy="-289.2997" rx="3.2" ry="3.2"/>
</g>
<!-- cds_trades -->
<g id="node6" class="node">
<title>cds_trades</title>
<g id="a_node6"><a xlink:href="../../tables/cds_trades.html" xlink:title="cds_trades" target="_top">
<polygon fill="#ffffff" stroke="transparent" points="212,-224.7 212,-285.7 323,-285.7 323,-224.7 212,-224.7"/>
<polygon fill="#f5f5f5" stroke="transparent" points="212.5,-262.2 212.5,-285.2 323.5,-285.2 323.5,-262.2 212.5,-262.2"/>
<polygon fill="none" stroke="#000000" points="212.5,-262.2 212.5,-285.2 323.5,-285.2 323.5,-262.2 212.5,-262.2"/>
<text text-anchor="start" x="217.5" y="-270.8" font-family="Helvetica,sans-Serif" font-weight="bold" font-size="11.00" fill="#000000">cds_trades</text>
<text text-anchor="start" x="289.0219" y="-270.3" font-family="Helvetica,sans-Serif" font-size="11.00" fill="#000000">[table]</text>
<polygon fill="none" stroke="#000000" points="212.5,-243.2 212.5,-262.2 323.5,-262.2 323.5,-243.2 212.5,-243.2"/>
<text text-anchor="start" x="215.5" y="-249.3" font-family="Helvetica,sans-Serif" font-size="11.00" fill="#000000">...</text>
<polygon fill="#ffffff" stroke="transparent" points="212.5,-224.2 212.5,-243.2 258.5,-243.2 258.5,-224.2 212.5,-224.2"/>
<polygon fill="none" stroke="#000000" points="212.5,-224.2 212.5,-243.2 258.5,-243.2 258.5,-224.2 212.5,-224.2"/>
<text text-anchor="start" x="215.5" y="-230.3" font-family="Helvetica,sans-Serif" font-size="11.00" fill="#000000">&lt; 2</text>
<polygon fill="#ffffff" stroke="transparent" points="258.5,-224.2 258.5,-243.2 283.5,-243.2 283.5,-224.2 258.5,-224.2"/>
<polygon fill="none" stroke="#000000" points="258.5,-224.2 258.5,-243.2 283.5,-243.2 283.5,-224.2 258.5,-224.2"/>
<text text-anchor="start" x="274.3862" y="-230.3" font-family="Helvetica,sans-Serif" font-size="11.00" fill="#000000"> &#160;</text>
<polygon fill="#ffffff" stroke="transparent" points="283.5,-224.2 283.5,-243.2 323.5,-243.2 323.5,-224.2 283.5,-224.2"/>
<polygon fill="none" stroke="#000000" points="283.5,-224.2 283.5,-243.2 323.5,-243.2 323.5,-224.2 283.5,-224.2"/>
<text text-anchor="start" x="298.7904" y="-230.3" font-family="Helvetica,sans-Serif" font-size="11.00" fill="#000000">13 &gt;</text>
</a>
</g>
</g>
<!-- cds_portfolio_constituents&#45;&gt;cds_trades -->
<g id="edge5" class="edge">
<title>cds_portfolio_constituents:w&#45;&gt;cds_trades:e</title>
<path fill="none" stroke="#000000" d="M409.3993,-285.9543C374.8333,-279.7195 365.4399,-252.2 323.5,-252.2"/>
<polygon fill="#000000" stroke="#000000" points="416.029,-286.5199 423.694,-290.787 420.0145,-286.8599 424,-287.2 424,-287.2 424,-287.2 420.0145,-286.8599 424.306,-283.613 416.029,-286.5199 416.029,-286.5199"/>
<ellipse fill="none" stroke="#000000" cx="412.8405" cy="-286.2479" rx="3.2" ry="3.2"/>
</g>
<!-- cds_trades&#45;&gt;bonds -->
<g id="edge6" class="edge">
<title>cds_trades:w&#45;&gt;bonds:e</title>
<path fill="none" stroke="#000000" d="M198.4565,-248.4884C178.947,-236.2882 182.2695,-198.2 152,-198.2"/>
<polygon fill="#000000" stroke="#000000" points="204.7656,-250.1558 211.5801,-255.6805 208.6328,-251.1779 212.5,-252.2 212.5,-252.2 212.5,-252.2 208.6328,-251.1779 213.4199,-248.7195 204.7656,-250.1558 204.7656,-250.1558"/>
<ellipse fill="none" stroke="#000000" cx="201.6718" cy="-249.3381" rx="3.2" ry="3.2"/>
</g>
<!-- portfolio_risk_cache -->
<g id="node7" class="node">
<title>portfolio_risk_cache</title>
<g id="a_node7"><a xlink:href="../../tables/portfolio_risk_cache.html" xlink:title="portfolio_risk_cache" target="_top">
<polygon fill="#ffffff" stroke="transparent" points="445.5,-423.7 445.5,-484.7 618.5,-484.7 618.5,-423.7 445.5,-423.7"/>
<polygon fill="#f5f5f5" stroke="transparent" points="446,-461.2 446,-484.2 619,-484.2 619,-461.2 446,-461.2"/>
<polygon fill="none" stroke="#000000" points="446,-461.2 446,-484.2 619,-484.2 619,-461.2 446,-461.2"/>
<text text-anchor="start" x="451" y="-469.8" font-family="Helvetica,sans-Serif" font-weight="bold" font-size="11.00" fill="#000000">portfolio_risk_cache</text>
<text text-anchor="start" x="584.5219" y="-469.3" font-family="Helvetica,sans-Serif" font-size="11.00" fill="#000000">[table]</text>
<polygon fill="none" stroke="#000000" points="446,-442.2 446,-461.2 619,-461.2 619,-442.2 446,-442.2"/>
<text text-anchor="start" x="449" y="-448.3" font-family="Helvetica,sans-Serif" font-size="11.00" fill="#000000">...</text>
<polygon fill="#ffffff" stroke="transparent" points="446,-423.2 446,-442.2 531,-442.2 531,-423.2 446,-423.2"/>
<polygon fill="none" stroke="#000000" points="446,-423.2 446,-442.2 531,-442.2 531,-423.2 446,-423.2"/>
<text text-anchor="start" x="449" y="-429.3" font-family="Helvetica,sans-Serif" font-size="11.00" fill="#000000">&lt; 1</text>
<polygon fill="#ffffff" stroke="transparent" points="531,-423.2 531,-442.2 575,-442.2 575,-423.2 531,-423.2"/>
<polygon fill="none" stroke="#000000" points="531,-423.2 531,-442.2 575,-442.2 575,-423.2 531,-423.2"/>
<text text-anchor="start" x="565.8862" y="-429.3" font-family="Helvetica,sans-Serif" font-size="11.00" fill="#000000"> &#160;</text>
<polygon fill="#ffffff" stroke="transparent" points="575,-423.2 575,-442.2 619,-442.2 619,-423.2 575,-423.2"/>
<polygon fill="none" stroke="#000000" points="575,-423.2 575,-442.2 619,-442.2 619,-423.2 575,-423.2"/>
<text text-anchor="start" x="609.8862" y="-429.3" font-family="Helvetica,sans-Serif" font-size="11.00" fill="#000000"> &#160;</text>
</a>
</g>
</g>
<!-- portfolio_risk_cache&#45;&gt;cds_portfolios -->
<g id="edge7" class="edge">
<title>portfolio_risk_cache:w&#45;&gt;cds_portfolios:e</title>
<path fill="none" stroke="#000000" d="M431.4753,-450.1165C407.606,-446.1648 398.9837,-431.7795 375,-413.2 353.9886,-396.923 361.0786,-369.2 334.5,-369.2"/>
<polygon fill="#000000" stroke="#000000" points="438.0222,-450.6049 445.7322,-454.79 442.0111,-450.9024 446,-451.2 446,-451.2 446,-451.2 442.0111,-450.9024 446.2678,-447.61 438.0222,-450.6049 438.0222,-450.6049"/>
<ellipse fill="none" stroke="#000000" cx="434.831" cy="-450.3668" rx="3.2" ry="3.2"/>
</g>
<!-- simulation_runs -->
<g id="node8" class="node">
<title>simulation_runs</title>
<g id="a_node8"><a xlink:href="../../tables/simulation_runs.html" xlink:title="simulation_runs" target="_top">
<polygon fill="#ffffff" stroke="transparent" points="459,-341.7 459,-402.7 605,-402.7 605,-341.7 459,-341.7"/>
<polygon fill="#f5f5f5" stroke="transparent" points="459,-379.2 459,-402.2 605,-402.2 605,-379.2 459,-379.2"/>
<polygon fill="none" stroke="#000000" points="459,-379.2 459,-402.2 605,-402.2 605,-379.2 459,-379.2"/>
<text text-anchor="start" x="464" y="-387.8" font-family="Helvetica,sans-Serif" font-weight="bold" font-size="11.00" fill="#000000">simulation_runs</text>
<text text-anchor="start" x="570.5219" y="-387.3" font-family="Helvetica,sans-Serif" font-size="11.00" fill="#000000">[table]</text>
<polygon fill="none" stroke="#000000" points="459,-360.2 459,-379.2 605,-379.2 605,-360.2 459,-360.2"/>
<text text-anchor="start" x="462" y="-366.3" font-family="Helvetica,sans-Serif" font-size="11.00" fill="#000000">...</text>
<polygon fill="#ffffff" stroke="transparent" points="459,-341.2 459,-360.2 526,-360.2 526,-341.2 459,-341.2"/>
<polygon fill="none" stroke="#000000" points="459,-341.2 459,-360.2 526,-360.2 526,-341.2 459,-341.2"/>
<text text-anchor="start" x="462" y="-347.3" font-family="Helvetica,sans-Serif" font-size="11.00" fill="#000000">&lt; 1</text>
<polygon fill="#ffffff" stroke="transparent" points="526,-341.2 526,-360.2 561,-360.2 561,-341.2 526,-341.2"/>
<polygon fill="none" stroke="#000000" points="526,-341.2 526,-360.2 561,-360.2 561,-341.2 526,-341.2"/>
<text text-anchor="start" x="551.8862" y="-347.3" font-family="Helvetica,sans-Serif" font-size="11.00" fill="#000000"> &#160;</text>
<polygon fill="#ffffff" stroke="transparent" points="561,-341.2 561,-360.2 605,-360.2 605,-341.2 561,-341.2"/>
<polygon fill="none" stroke="#000000" points="561,-341.2 561,-360.2 605,-360.2 605,-341.2 561,-341.2"/>
<text text-anchor="start" x="586.4053" y="-347.3" font-family="Helvetica,sans-Serif" font-size="11.00" fill="#000000">3 &gt;</text>
</a>
</g>
</g>
<!-- simulation_runs&#45;&gt;cds_portfolios -->
<g id="edge8" class="edge">
<title>simulation_runs:w&#45;&gt;cds_portfolios:e</title>
<path fill="none" stroke="#000000" d="M444.4633,-369.2C400.7082,-369.2 384.6458,-369.2 334.5,-369.2"/>
<polygon fill="#000000" stroke="#000000" points="451,-369.2001 459,-372.8 455,-369.2 459,-369.2 459,-369.2 459,-369.2 455,-369.2 459,-365.6 451,-369.2001 451,-369.2001"/>
<ellipse fill="none" stroke="#000000" cx="447.8" cy="-369.2001" rx="3.2" ry="3.2"/>
</g>
</g>
</svg>
