<?xml version="1.0" encoding="UTF-8" standalone="no"?>
<!DOCTYPE svg PUBLIC "-//W3C//DTD SVG 1.1//EN"
 "http://www.w3.org/Graphics/SVG/1.1/DTD/svg11.dtd">
<!-- Generated by graphviz version 2.40.1 (20161225.0304)
 -->
<!-- Title: oneDegreeRelationshipsDiagram Pages: 1 -->
<svg width="542pt" height="316pt"
 viewBox="0.00 0.00 542.00 316.20" xmlns="http://www.w3.org/2000/svg" xmlns:xlink="http://www.w3.org/1999/xlink">
<g id="graph0" class="graph" transform="scale(1 1) rotate(0) translate(4 312.2)">
<title>oneDegreeRelationshipsDiagram</title>
<polygon fill="#ffffff" stroke="transparent" points="-4,4 -4,-312.2 538,-312.2 538,4 -4,4"/>
<text text-anchor="middle" x="72.4936" y="-7.3" font-family="Helvetica,sans-Serif" font-size="11.00" fill="#000000">Generated by SchemaSpy</text>
<!-- ccp_account_product_eligibility -->
<g id="node1" class="node">
<title>ccp_account_product_eligibility</title>
<g id="a_node1"><a xlink:href="../../tables/ccp_account_product_eligibility.html" xlink:title="ccp_account_product_eligibility" target="_top">
<polygon fill="#ffffff" stroke="transparent" points="277,-216.2 277,-302.2 526,-302.2 526,-216.2 277,-216.2"/>
<polygon fill="#f5f5f5" stroke="transparent" points="277.5,-279.2 277.5,-302.2 526.5,-302.2 526.5,-279.2 277.5,-279.2"/>
<polygon fill="none" stroke="#000000" points="277.5,-279.2 277.5,-302.2 526.5,-302.2 526.5,-279.2 277.5,-279.2"/>
<text text-anchor="start" x="282.5" y="-287.8" font-family="Helvetica,sans-Serif" font-weight="bold" font-size="11.00" fill="#000000">ccp_account_product_eligibility</text>
<text text-anchor="start" x="492.0219" y="-287.3" font-family="Helvetica,sans-Serif" font-size="11.00" fill="#000000">[table]</text>
<polygon fill="none" stroke="#000000" points="277.5,-257.2 277.5,-279.2 526.5,-279.2 526.5,-257.2 277.5,-257.2"/>
<image xlink:href="../../images/primaryKeys.png" width="11px" height="12px" preserveAspectRatio="xMinYMin meet" x="282.5" y="-274.2"/>
<text text-anchor="start" x="306.5" y="-264.3" font-family="Helvetica,sans-Serif" font-size="11.00" fill="#000000">ccp_account_id</text>
<polygon fill="none" stroke="#000000" points="277.5,-235.2 277.5,-257.2 526.5,-257.2 526.5,-235.2 277.5,-235.2"/>
<image xlink:href="../../images/primaryKeys.png" width="11px" height="12px" preserveAspectRatio="xMinYMin meet" x="282.5" y="-252.2"/>
<text text-anchor="start" x="306.5" y="-242.3" font-family="Helvetica,sans-Serif" font-size="11.00" fill="#000000">product_type</text>
<polygon fill="#ffffff" stroke="transparent" points="277.5,-216.2 277.5,-235.2 400.5,-235.2 400.5,-216.2 277.5,-216.2"/>
<polygon fill="none" stroke="#000000" points="277.5,-216.2 277.5,-235.2 400.5,-235.2 400.5,-216.2 277.5,-216.2"/>
<text text-anchor="start" x="280.5" y="-222.3" font-family="Helvetica,sans-Serif" font-size="11.00" fill="#000000">&lt; 1</text>
<polygon fill="#ffffff" stroke="transparent" points="400.5,-216.2 400.5,-235.2 463.5,-235.2 463.5,-216.2 400.5,-216.2"/>
<polygon fill="none" stroke="#000000" points="400.5,-216.2 400.5,-235.2 463.5,-235.2 463.5,-216.2 400.5,-216.2"/>
<text text-anchor="start" x="454.3862" y="-222.3" font-family="Helvetica,sans-Serif" font-size="11.00" fill="#000000"> &#160;</text>
<polygon fill="#ffffff" stroke="transparent" points="463.5,-216.2 463.5,-235.2 526.5,-235.2 526.5,-216.2 463.5,-216.2"/>
<polygon fill="none" stroke="#000000" points="463.5,-216.2 463.5,-235.2 526.5,-235.2 526.5,-216.2 463.5,-216.2"/>
<text text-anchor="start" x="517.3862" y="-222.3" font-family="Helvetica,sans-Serif" font-size="11.00" fill="#000000"> &#160;</text>
</a>
</g>
</g>
<!-- ccp_accounts -->
<g id="node2" class="node">
<title>ccp_accounts</title>
<g id="a_node2"><a xlink:href="../../tables/ccp_accounts.html" xlink:title="ccp_accounts" target="_top">
<polygon fill="#ffffff" stroke="transparent" points="8,-38.2 8,-304.2 228,-304.2 228,-38.2 8,-38.2"/>
<polygon fill="#f5f5f5" stroke="transparent" points="10,-279.2 10,-302.2 226,-302.2 226,-279.2 10,-279.2"/>
<polygon fill="none" stroke="#000000" points="10,-279.2 10,-302.2 226,-302.2 226,-279.2 10,-279.2"/>
<text text-anchor="start" x="15" y="-287.8" font-family="Helvetica,sans-Serif" font-weight="bold" font-size="11.00" fill="#000000">ccp_accounts</text>
<text text-anchor="start" x="191.0437" y="-287.3" font-family="Helvetica,sans-Serif" font-size="11.00" fill="#000000">[table]</text>
<polygon fill="none" stroke="#000000" points="10,-257.2 10,-279.2 142,-279.2 142,-257.2 10,-257.2"/>
<image xlink:href="../../images/primaryKeys.png" width="11px" height="12px" preserveAspectRatio="xMinYMin meet" x="15" y="-274.2"/>
<text text-anchor="start" x="30" y="-264.3" font-family="Helvetica,sans-Serif" font-size="11.00" fill="#000000">id</text>
<polygon fill="none" stroke="#000000" points="142,-257.2 142,-279.2 226,-279.2 226,-257.2 142,-257.2"/>
<text text-anchor="start" x="145" y="-264.9" font-family="Helvetica,sans-Serif" font-size="11.00" fill="#000000">bigserial[19]</text>
<polygon fill="#ffffff" stroke="transparent" points="10,-235.2 10,-257.2 142,-257.2 142,-235.2 10,-235.2"/>
<polygon fill="none" stroke="#000000" points="10,-235.2 10,-257.2 142,-257.2 142,-235.2 10,-235.2"/>
<text text-anchor="start" x="30" y="-242.3" font-family="Helvetica,sans-Serif" font-size="11.00" fill="#000000">ccp_name</text>
<polygon fill="none" stroke="#000000" points="142,-235.2 142,-257.2 226,-257.2 226,-235.2 142,-235.2"/>
<text text-anchor="start" x="145" y="-242.9" font-family="Helvetica,sans-Serif" font-size="11.00" fill="#000000">varchar[50]</text>
<polygon fill="#ffffff" stroke="transparent" points="10,-213.2 10,-235.2 142,-235.2 142,-213.2 10,-213.2"/>
<polygon fill="none" stroke="#000000" points="10,-213.2 10,-235.2 142,-235.2 142,-213.2 10,-213.2"/>
<text text-anchor="start" x="30" y="-220.3" font-family="Helvetica,sans-Serif" font-size="11.00" fill="#000000">member_firm</text>
<polygon fill="none" stroke="#000000" points="142,-213.2 142,-235.2 226,-235.2 226,-213.2 142,-213.2"/>
<text text-anchor="start" x="145" y="-220.9" font-family="Helvetica,sans-Serif" font-size="11.00" fill="#000000">varchar[100]</text>
<polygon fill="none" stroke="#000000" points="10,-191.2 10,-213.2 142,-213.2 142,-191.2 10,-191.2"/>
<text text-anchor="start" x="30" y="-198.3" font-family="Helvetica,sans-Serif" font-size="11.00" fill="#000000">member_id</text>
<polygon fill="none" stroke="#000000" points="142,-191.2 142,-213.2 226,-213.2 226,-191.2 142,-191.2"/>
<text text-anchor="start" x="145" y="-198.9" font-family="Helvetica,sans-Serif" font-size="11.00" fill="#000000">varchar[50]</text>
<polygon fill="#ffffff" stroke="transparent" points="10,-169.2 10,-191.2 142,-191.2 142,-169.2 10,-169.2"/>
<polygon fill="none" stroke="#000000" points="10,-169.2 10,-191.2 142,-191.2 142,-169.2 10,-169.2"/>
<text text-anchor="start" x="30" y="-176.3" font-family="Helvetica,sans-Serif" font-size="11.00" fill="#000000">account_number</text>
<polygon fill="none" stroke="#000000" points="142,-169.2 142,-191.2 226,-191.2 226,-169.2 142,-169.2"/>
<text text-anchor="start" x="145" y="-176.9" font-family="Helvetica,sans-Serif" font-size="11.00" fill="#000000">varchar[50]</text>
<polygon fill="none" stroke="#000000" points="10,-147.2 10,-169.2 142,-169.2 142,-147.2 10,-147.2"/>
<text text-anchor="start" x="30" y="-154.3" font-family="Helvetica,sans-Serif" font-size="11.00" fill="#000000">account_name</text>
<polygon fill="none" stroke="#000000" points="142,-147.2 142,-169.2 226,-169.2 226,-147.2 142,-147.2"/>
<text text-anchor="start" x="145" y="-154.9" font-family="Helvetica,sans-Serif" font-size="11.00" fill="#000000">varchar[100]</text>
<polygon fill="none" stroke="#000000" points="10,-125.2 10,-147.2 142,-147.2 142,-125.2 10,-125.2"/>
<text text-anchor="start" x="30" y="-132.3" font-family="Helvetica,sans-Serif" font-size="11.00" fill="#000000">account_type</text>
<polygon fill="none" stroke="#000000" points="142,-125.2 142,-147.2 226,-147.2 226,-125.2 142,-125.2"/>
<text text-anchor="start" x="145" y="-132.9" font-family="Helvetica,sans-Serif" font-size="11.00" fill="#000000">varchar[20]</text>
<polygon fill="#ffffff" stroke="transparent" points="10,-103.2 10,-125.2 142,-125.2 142,-103.2 10,-103.2"/>
<polygon fill="none" stroke="#000000" points="10,-103.2 10,-125.2 142,-125.2 142,-103.2 10,-103.2"/>
<text text-anchor="start" x="30" y="-110.3" font-family="Helvetica,sans-Serif" font-size="11.00" fill="#000000">status</text>
<polygon fill="none" stroke="#000000" points="142,-103.2 142,-125.2 226,-125.2 226,-103.2 142,-103.2"/>
<text text-anchor="start" x="145" y="-110.9" font-family="Helvetica,sans-Serif" font-size="11.00" fill="#000000">varchar[20]</text>
<polygon fill="#ffffff" stroke="transparent" points="10,-81.2 10,-103.2 142,-103.2 142,-81.2 10,-81.2"/>
<polygon fill="none" stroke="#000000" points="10,-81.2 10,-103.2 142,-103.2 142,-81.2 10,-81.2"/>
<text text-anchor="start" x="30" y="-88.3" font-family="Helvetica,sans-Serif" font-size="11.00" fill="#000000">created_at</text>
<polygon fill="none" stroke="#000000" points="142,-81.2 142,-103.2 226,-103.2 226,-81.2 142,-81.2"/>
<text text-anchor="start" x="144.8807" y="-88.9" font-family="Helvetica,sans-Serif" font-size="11.00" fill="#000000">timestamp[29,6]</text>
<polygon fill="none" stroke="#000000" points="10,-59.2 10,-81.2 142,-81.2 142,-59.2 10,-59.2"/>
<text text-anchor="start" x="30" y="-66.3" font-family="Helvetica,sans-Serif" font-size="11.00" fill="#000000">updated_at</text>
<polygon fill="none" stroke="#000000" points="142,-59.2 142,-81.2 226,-81.2 226,-59.2 142,-59.2"/>
<text text-anchor="start" x="144.8807" y="-66.9" font-family="Helvetica,sans-Serif" font-size="11.00" fill="#000000">timestamp[29,6]</text>
<polygon fill="#ffffff" stroke="transparent" points="10,-40.2 10,-59.2 80,-59.2 80,-40.2 10,-40.2"/>
<polygon fill="none" stroke="#000000" points="10,-40.2 10,-59.2 80,-59.2 80,-40.2 10,-40.2"/>
<text text-anchor="start" x="13" y="-46.3" font-family="Helvetica,sans-Serif" font-size="11.00" fill="#000000">&lt; 0</text>
<polygon fill="#ffffff" stroke="transparent" points="80,-40.2 80,-59.2 142,-59.2 142,-40.2 80,-40.2"/>
<polygon fill="none" stroke="#000000" points="80,-40.2 80,-59.2 142,-59.2 142,-40.2 80,-40.2"/>
<text text-anchor="start" x="132.8862" y="-46.3" font-family="Helvetica,sans-Serif" font-size="11.00" fill="#000000"> &#160;</text>
<polygon fill="#ffffff" stroke="transparent" points="142,-40.2 142,-59.2 226,-59.2 226,-40.2 142,-40.2"/>
<polygon fill="none" stroke="#000000" points="142,-40.2 142,-59.2 226,-59.2 226,-40.2 142,-40.2"/>
<text text-anchor="start" x="207.4053" y="-46.3" font-family="Helvetica,sans-Serif" font-size="11.00" fill="#000000">1 &gt;</text>
<polygon fill="none" stroke="#000000" stroke-width="2" points="9,-39.2 9,-303.2 227,-303.2 227,-39.2 9,-39.2"/>
</a>
</g>
</g>
<!-- ccp_account_product_eligibility&#45;&gt;ccp_accounts -->
<g id="edge1" class="edge">
<title>ccp_account_product_eligibility:w&#45;&gt;ccp_accounts:e</title>
<path fill="none" stroke="#000000" d="M263.0156,-268.2C250.6771,-268.2 243.1667,-268.2 226,-268.2"/>
<polygon fill="#000000" stroke="#000000" points="269.5,-268.2001 277.5,-271.8 273.5,-268.2 277.5,-268.2 277.5,-268.2 277.5,-268.2 273.5,-268.2 277.5,-264.6 269.5,-268.2001 269.5,-268.2001"/>
<ellipse fill="none" stroke="#000000" cx="266.3" cy="-268.2001" rx="3.2" ry="3.2"/>
</g>
</g>
</svg>
