<?xml version="1.0" encoding="UTF-8" standalone="no"?>
<!DOCTYPE svg PUBLIC "-//W3C//DTD SVG 1.1//EN"
 "http://www.w3.org/Graphics/SVG/1.1/DTD/svg11.dtd">
<!-- Generated by graphviz version 2.40.1 (20161225.0304)
 -->
<!-- Title: oneDegreeRelationshipsDiagram Pages: 1 -->
<svg width="501pt" height="245pt"
 viewBox="0.00 0.00 501.00 244.70" xmlns="http://www.w3.org/2000/svg" xmlns:xlink="http://www.w3.org/1999/xlink">
<g id="graph0" class="graph" transform="scale(1 1) rotate(0) translate(4 240.7)">
<title>oneDegreeRelationshipsDiagram</title>
<polygon fill="#ffffff" stroke="transparent" points="-4,4 -4,-240.7 497,-240.7 497,4 -4,4"/>
<text text-anchor="middle" x="72.4936" y="-7.3" font-family="Helvetica,sans-Serif" font-size="11.00" fill="#000000">Generated by SchemaSpy</text>
<!-- ccp_account_product_eligibility -->
<g id="node1" class="node">
<title>ccp_account_product_eligibility</title>
<g id="a_node1"><a xlink:href="../../tables/ccp_account_product_eligibility.html" xlink:title="ccp_account_product_eligibility" target="_top">
<polygon fill="#ffffff" stroke="transparent" points="189,-142.7 189,-232.7 485,-232.7 485,-142.7 189,-142.7"/>
<polygon fill="#f5f5f5" stroke="transparent" points="191,-207.7 191,-230.7 483,-230.7 483,-207.7 191,-207.7"/>
<polygon fill="none" stroke="#000000" points="191,-207.7 191,-230.7 483,-230.7 483,-207.7 191,-207.7"/>
<text text-anchor="start" x="196" y="-216.3" font-family="Helvetica,sans-Serif" font-weight="bold" font-size="11.00" fill="#000000">ccp_account_product_eligibility</text>
<text text-anchor="start" x="448.0437" y="-215.8" font-family="Helvetica,sans-Serif" font-size="11.00" fill="#000000">[table]</text>
<polygon fill="none" stroke="#000000" points="191,-185.7 191,-207.7 422,-207.7 422,-185.7 191,-185.7"/>
<image xlink:href="../../images/primaryKeys.png" width="11px" height="12px" preserveAspectRatio="xMinYMin meet" x="196" y="-202.7"/>
<text text-anchor="start" x="211" y="-192.8" font-family="Helvetica,sans-Serif" font-size="11.00" fill="#000000">ccp_account_id</text>
<polygon fill="none" stroke="#000000" points="422,-185.7 422,-207.7 483,-207.7 483,-185.7 422,-185.7"/>
<text text-anchor="start" x="425" y="-193.4" font-family="Helvetica,sans-Serif" font-size="11.00" fill="#000000">int8[19]</text>
<polygon fill="none" stroke="#000000" points="191,-163.7 191,-185.7 422,-185.7 422,-163.7 191,-163.7"/>
<image xlink:href="../../images/primaryKeys.png" width="11px" height="12px" preserveAspectRatio="xMinYMin meet" x="196" y="-180.7"/>
<text text-anchor="start" x="211" y="-170.8" font-family="Helvetica,sans-Serif" font-size="11.00" fill="#000000">product_type</text>
<polygon fill="none" stroke="#000000" points="422,-163.7 422,-185.7 483,-185.7 483,-163.7 422,-163.7"/>
<text text-anchor="start" x="424.994" y="-171.4" font-family="Helvetica,sans-Serif" font-size="11.00" fill="#000000">varchar[50]</text>
<polygon fill="#ffffff" stroke="transparent" points="191,-144.7 191,-163.7 311,-163.7 311,-144.7 191,-144.7"/>
<polygon fill="none" stroke="#000000" points="191,-144.7 191,-163.7 311,-163.7 311,-144.7 191,-144.7"/>
<text text-anchor="start" x="194" y="-150.8" font-family="Helvetica,sans-Serif" font-size="11.00" fill="#000000">&lt; 1</text>
<polygon fill="#ffffff" stroke="transparent" points="311,-144.7 311,-163.7 422,-163.7 422,-144.7 311,-144.7"/>
<polygon fill="none" stroke="#000000" points="311,-144.7 311,-163.7 422,-163.7 422,-144.7 311,-144.7"/>
<text text-anchor="start" x="412.8862" y="-150.8" font-family="Helvetica,sans-Serif" font-size="11.00" fill="#000000"> &#160;</text>
<polygon fill="#ffffff" stroke="transparent" points="422,-144.7 422,-163.7 483,-163.7 483,-144.7 422,-144.7"/>
<polygon fill="none" stroke="#000000" points="422,-144.7 422,-163.7 483,-163.7 483,-144.7 422,-144.7"/>
<text text-anchor="start" x="464.4053" y="-150.8" font-family="Helvetica,sans-Serif" font-size="11.00" fill="#000000">0 &gt;</text>
<polygon fill="none" stroke="#000000" stroke-width="2" points="190,-143.7 190,-231.7 484,-231.7 484,-143.7 190,-143.7"/>
</a>
</g>
</g>
<!-- ccp_accounts -->
<g id="node2" class="node">
<title>ccp_accounts</title>
<g id="a_node2"><a xlink:href="../../tables/ccp_accounts.html" xlink:title="ccp_accounts" target="_top">
<polygon fill="#ffffff" stroke="transparent" points="8,-38.2 8,-231.2 140,-231.2 140,-38.2 8,-38.2"/>
<polygon fill="#f5f5f5" stroke="transparent" points="8,-207.7 8,-230.7 140,-230.7 140,-207.7 8,-207.7"/>
<polygon fill="none" stroke="#000000" points="8,-207.7 8,-230.7 140,-230.7 140,-207.7 8,-207.7"/>
<text text-anchor="start" x="13" y="-216.3" font-family="Helvetica,sans-Serif" font-weight="bold" font-size="11.00" fill="#000000">ccp_accounts</text>
<text text-anchor="start" x="105.0437" y="-215.8" font-family="Helvetica,sans-Serif" font-size="11.00" fill="#000000">[table]</text>
<polygon fill="none" stroke="#000000" points="8,-185.7 8,-207.7 140,-207.7 140,-185.7 8,-185.7"/>
<image xlink:href="../../images/primaryKeys.png" width="11px" height="12px" preserveAspectRatio="xMinYMin meet" x="13" y="-202.7"/>
<text text-anchor="start" x="28" y="-192.8" font-family="Helvetica,sans-Serif" font-size="11.00" fill="#000000">id</text>
<polygon fill="#ffffff" stroke="transparent" points="8,-163.7 8,-185.7 140,-185.7 140,-163.7 8,-163.7"/>
<polygon fill="none" stroke="#000000" points="8,-163.7 8,-185.7 140,-185.7 140,-163.7 8,-163.7"/>
<text text-anchor="start" x="28" y="-170.8" font-family="Helvetica,sans-Serif" font-size="11.00" fill="#000000">ccp_name</text>
<polygon fill="#ffffff" stroke="transparent" points="8,-141.7 8,-163.7 140,-163.7 140,-141.7 8,-141.7"/>
<polygon fill="none" stroke="#000000" points="8,-141.7 8,-163.7 140,-163.7 140,-141.7 8,-141.7"/>
<text text-anchor="start" x="28" y="-148.8" font-family="Helvetica,sans-Serif" font-size="11.00" fill="#000000">member_firm</text>
<polygon fill="#ffffff" stroke="transparent" points="8,-119.7 8,-141.7 140,-141.7 140,-119.7 8,-119.7"/>
<polygon fill="none" stroke="#000000" points="8,-119.7 8,-141.7 140,-141.7 140,-119.7 8,-119.7"/>
<text text-anchor="start" x="28" y="-126.8" font-family="Helvetica,sans-Serif" font-size="11.00" fill="#000000">account_number</text>
<polygon fill="#ffffff" stroke="transparent" points="8,-97.7 8,-119.7 140,-119.7 140,-97.7 8,-97.7"/>
<polygon fill="none" stroke="#000000" points="8,-97.7 8,-119.7 140,-119.7 140,-97.7 8,-97.7"/>
<text text-anchor="start" x="28" y="-104.8" font-family="Helvetica,sans-Serif" font-size="11.00" fill="#000000">status</text>
<polygon fill="#ffffff" stroke="transparent" points="8,-75.7 8,-97.7 140,-97.7 140,-75.7 8,-75.7"/>
<polygon fill="none" stroke="#000000" points="8,-75.7 8,-97.7 140,-97.7 140,-75.7 8,-75.7"/>
<text text-anchor="start" x="28" y="-82.8" font-family="Helvetica,sans-Serif" font-size="11.00" fill="#000000">created_at</text>
<polygon fill="none" stroke="#000000" points="8,-56.7 8,-75.7 140,-75.7 140,-56.7 8,-56.7"/>
<text text-anchor="start" x="11" y="-62.8" font-family="Helvetica,sans-Serif" font-size="11.00" fill="#000000">...</text>
<polygon fill="#ffffff" stroke="transparent" points="8,-37.7 8,-56.7 63,-56.7 63,-37.7 8,-37.7"/>
<polygon fill="none" stroke="#000000" points="8,-37.7 8,-56.7 63,-56.7 63,-37.7 8,-37.7"/>
<text text-anchor="start" x="11" y="-43.8" font-family="Helvetica,sans-Serif" font-size="11.00" fill="#000000"> &#160;</text>
<polygon fill="#ffffff" stroke="transparent" points="63,-37.7 63,-56.7 97,-56.7 97,-37.7 63,-37.7"/>
<polygon fill="none" stroke="#000000" points="63,-37.7 63,-56.7 97,-56.7 97,-37.7 63,-37.7"/>
<text text-anchor="start" x="87.8862" y="-43.8" font-family="Helvetica,sans-Serif" font-size="11.00" fill="#000000"> &#160;</text>
<polygon fill="#ffffff" stroke="transparent" points="97,-37.7 97,-56.7 140,-56.7 140,-37.7 97,-37.7"/>
<polygon fill="none" stroke="#000000" points="97,-37.7 97,-56.7 140,-56.7 140,-37.7 97,-37.7"/>
<text text-anchor="start" x="121.4053" y="-43.8" font-family="Helvetica,sans-Serif" font-size="11.00" fill="#000000">1 &gt;</text>
</a>
</g>
</g>
<!-- ccp_account_product_eligibility&#45;&gt;ccp_accounts -->
<g id="edge1" class="edge">
<title>ccp_account_product_eligibility:w&#45;&gt;ccp_accounts:e</title>
<path fill="none" stroke="#000000" d="M176.276,-196.7C164.2815,-196.7 156.8229,-196.7 140,-196.7"/>
<polygon fill="#000000" stroke="#000000" points="183,-196.7001 191,-200.3 187,-196.7 191,-196.7 191,-196.7 191,-196.7 187,-196.7 191,-193.1 183,-196.7001 183,-196.7001"/>
<ellipse fill="none" stroke="#000000" cx="179.8" cy="-196.7001" rx="3.2" ry="3.2"/>
</g>
</g>
</svg>
