<?xml version="1.0" encoding="UTF-8" standalone="no"?>
<!DOCTYPE svg PUBLIC "-//W3C//DTD SVG 1.1//EN"
 "http://www.w3.org/Graphics/SVG/1.1/DTD/svg11.dtd">
<!-- Generated by graphviz version 2.40.1 (20161225.0304)
 -->
<!-- Title: oneDegreeRelationshipsDiagram Pages: 1 -->
<svg width="521pt" height="879pt"
 viewBox="0.00 0.00 521.00 879.20" xmlns="http://www.w3.org/2000/svg" xmlns:xlink="http://www.w3.org/1999/xlink">
<g id="graph0" class="graph" transform="scale(1 1) rotate(0) translate(4 875.2)">
<title>oneDegreeRelationshipsDiagram</title>
<polygon fill="#ffffff" stroke="transparent" points="-4,4 -4,-875.2 517,-875.2 517,4 -4,4"/>
<text text-anchor="middle" x="72.4936" y="-7.3" font-family="Helvetica,sans-Serif" font-size="11.00" fill="#000000">Generated by SchemaSpy</text>
<!-- basket_portfolio_constituents -->
<g id="node1" class="node">
<title>basket_portfolio_constituents</title>
<g id="a_node1"><a xlink:href="../../tables/basket_portfolio_constituents.html" xlink:title="basket_portfolio_constituents" target="_top">
<polygon fill="#ffffff" stroke="transparent" points="266,-718.2 266,-867.2 505,-867.2 505,-718.2 266,-718.2"/>
<polygon fill="#f5f5f5" stroke="transparent" points="266.5,-843.7 266.5,-866.7 505.5,-866.7 505.5,-843.7 266.5,-843.7"/>
<polygon fill="none" stroke="#000000" points="266.5,-843.7 266.5,-866.7 505.5,-866.7 505.5,-843.7 266.5,-843.7"/>
<text text-anchor="start" x="271.5" y="-852.3" font-family="Helvetica,sans-Serif" font-weight="bold" font-size="11.00" fill="#000000">basket_portfolio_constituents</text>
<text text-anchor="start" x="471.0219" y="-851.8" font-family="Helvetica,sans-Serif" font-size="11.00" fill="#000000">[table]</text>
<polygon fill="none" stroke="#000000" points="266.5,-821.7 266.5,-843.7 505.5,-843.7 505.5,-821.7 266.5,-821.7"/>
<image xlink:href="../../images/primaryKeys.png" width="11px" height="12px" preserveAspectRatio="xMinYMin meet" x="271.5" y="-838.7"/>
<text text-anchor="start" x="295.5" y="-828.8" font-family="Helvetica,sans-Serif" font-size="11.00" fill="#000000">id</text>
<polygon fill="#ffffff" stroke="transparent" points="266.5,-799.7 266.5,-821.7 505.5,-821.7 505.5,-799.7 266.5,-799.7"/>
<polygon fill="none" stroke="#000000" points="266.5,-799.7 266.5,-821.7 505.5,-821.7 505.5,-799.7 266.5,-799.7"/>
<image xlink:href="../../images/foreignKeys.png" width="11px" height="12px" preserveAspectRatio="xMinYMin meet" x="271.5" y="-816.7"/>
<text text-anchor="start" x="295.5" y="-806.8" font-family="Helvetica,sans-Serif" font-size="11.00" fill="#000000">portfolio_id</text>
<polygon fill="#ffffff" stroke="transparent" points="266.5,-777.7 266.5,-799.7 505.5,-799.7 505.5,-777.7 266.5,-777.7"/>
<polygon fill="none" stroke="#000000" points="266.5,-777.7 266.5,-799.7 505.5,-799.7 505.5,-777.7 266.5,-777.7"/>
<image xlink:href="../../images/foreignKeys.png" width="11px" height="12px" preserveAspectRatio="xMinYMin meet" x="271.5" y="-794.7"/>
<text text-anchor="start" x="295.5" y="-784.8" font-family="Helvetica,sans-Serif" font-size="11.00" fill="#000000">basket_id</text>
<polygon fill="#ffffff" stroke="transparent" points="266.5,-755.7 266.5,-777.7 505.5,-777.7 505.5,-755.7 266.5,-755.7"/>
<polygon fill="none" stroke="#000000" points="266.5,-755.7 266.5,-777.7 505.5,-777.7 505.5,-755.7 266.5,-755.7"/>
<text text-anchor="start" x="295.5" y="-762.8" font-family="Helvetica,sans-Serif" font-size="11.00" fill="#000000">active</text>
<polygon fill="none" stroke="#000000" points="266.5,-736.7 266.5,-755.7 505.5,-755.7 505.5,-736.7 266.5,-736.7"/>
<text text-anchor="start" x="269.5" y="-742.8" font-family="Helvetica,sans-Serif" font-size="11.00" fill="#000000">...</text>
<polygon fill="#ffffff" stroke="transparent" points="266.5,-717.7 266.5,-736.7 384.5,-736.7 384.5,-717.7 266.5,-717.7"/>
<polygon fill="none" stroke="#000000" points="266.5,-717.7 266.5,-736.7 384.5,-736.7 384.5,-717.7 266.5,-717.7"/>
<text text-anchor="start" x="269.5" y="-723.8" font-family="Helvetica,sans-Serif" font-size="11.00" fill="#000000">&lt; 2</text>
<polygon fill="#ffffff" stroke="transparent" points="384.5,-717.7 384.5,-736.7 444.5,-736.7 444.5,-717.7 384.5,-717.7"/>
<polygon fill="none" stroke="#000000" points="384.5,-717.7 384.5,-736.7 444.5,-736.7 444.5,-717.7 384.5,-717.7"/>
<text text-anchor="start" x="435.3862" y="-723.8" font-family="Helvetica,sans-Serif" font-size="11.00" fill="#000000"> &#160;</text>
<polygon fill="#ffffff" stroke="transparent" points="444.5,-717.7 444.5,-736.7 505.5,-736.7 505.5,-717.7 444.5,-717.7"/>
<polygon fill="none" stroke="#000000" points="444.5,-717.7 444.5,-736.7 505.5,-736.7 505.5,-717.7 444.5,-717.7"/>
<text text-anchor="start" x="496.3862" y="-723.8" font-family="Helvetica,sans-Serif" font-size="11.00" fill="#000000"> &#160;</text>
</a>
</g>
</g>
<!-- cds_portfolios -->
<g id="node2" class="node">
<title>cds_portfolios</title>
<g id="a_node2"><a xlink:href="../../tables/cds_portfolios.html" xlink:title="cds_portfolios" target="_top">
<polygon fill="#ffffff" stroke="transparent" points="8,-350.7 8,-506.7 217,-506.7 217,-350.7 8,-350.7"/>
<polygon fill="#f5f5f5" stroke="transparent" points="10.5,-481.7 10.5,-504.7 215.5,-504.7 215.5,-481.7 10.5,-481.7"/>
<polygon fill="none" stroke="#000000" points="10.5,-481.7 10.5,-504.7 215.5,-504.7 215.5,-481.7 10.5,-481.7"/>
<text text-anchor="start" x="15.5" y="-490.3" font-family="Helvetica,sans-Serif" font-weight="bold" font-size="11.00" fill="#000000">cds_portfolios</text>
<text text-anchor="start" x="180.5437" y="-489.8" font-family="Helvetica,sans-Serif" font-size="11.00" fill="#000000">[table]</text>
<polygon fill="none" stroke="#000000" points="10.5,-459.7 10.5,-481.7 125.5,-481.7 125.5,-459.7 10.5,-459.7"/>
<image xlink:href="../../images/primaryKeys.png" width="11px" height="12px" preserveAspectRatio="xMinYMin meet" x="15.5" y="-476.7"/>
<text text-anchor="start" x="30.5" y="-466.8" font-family="Helvetica,sans-Serif" font-size="11.00" fill="#000000">id</text>
<polygon fill="none" stroke="#000000" points="125.5,-459.7 125.5,-481.7 215.5,-481.7 215.5,-459.7 125.5,-459.7"/>
<text text-anchor="start" x="128.5" y="-467.4" font-family="Helvetica,sans-Serif" font-size="11.00" fill="#000000">bigserial[19]</text>
<polygon fill="none" stroke="#000000" points="10.5,-437.7 10.5,-459.7 125.5,-459.7 125.5,-437.7 10.5,-437.7"/>
<text text-anchor="start" x="30.5" y="-444.8" font-family="Helvetica,sans-Serif" font-size="11.00" fill="#000000">name</text>
<polygon fill="none" stroke="#000000" points="125.5,-437.7 125.5,-459.7 215.5,-459.7 215.5,-437.7 125.5,-437.7"/>
<text text-anchor="start" x="128.5" y="-445.4" font-family="Helvetica,sans-Serif" font-size="11.00" fill="#000000">varchar[60]</text>
<polygon fill="none" stroke="#000000" points="10.5,-415.7 10.5,-437.7 125.5,-437.7 125.5,-415.7 10.5,-415.7"/>
<text text-anchor="start" x="30.5" y="-422.8" font-family="Helvetica,sans-Serif" font-size="11.00" fill="#000000">description</text>
<polygon fill="none" stroke="#000000" points="125.5,-415.7 125.5,-437.7 215.5,-437.7 215.5,-415.7 125.5,-415.7"/>
<text text-anchor="start" x="128.0042" y="-423.4" font-family="Helvetica,sans-Serif" font-size="11.00" fill="#000000">text[2147483647]</text>
<polygon fill="none" stroke="#000000" points="10.5,-393.7 10.5,-415.7 125.5,-415.7 125.5,-393.7 10.5,-393.7"/>
<text text-anchor="start" x="30.5" y="-400.8" font-family="Helvetica,sans-Serif" font-size="11.00" fill="#000000">created_at</text>
<polygon fill="none" stroke="#000000" points="125.5,-393.7 125.5,-415.7 215.5,-415.7 215.5,-393.7 125.5,-393.7"/>
<text text-anchor="start" x="128.5" y="-401.4" font-family="Helvetica,sans-Serif" font-size="11.00" fill="#000000">timestamp[29,6]</text>
<polygon fill="none" stroke="#000000" points="10.5,-371.7 10.5,-393.7 125.5,-393.7 125.5,-371.7 10.5,-371.7"/>
<text text-anchor="start" x="30.5" y="-378.8" font-family="Helvetica,sans-Serif" font-size="11.00" fill="#000000">updated_at</text>
<polygon fill="none" stroke="#000000" points="125.5,-371.7 125.5,-393.7 215.5,-393.7 215.5,-371.7 125.5,-371.7"/>
<text text-anchor="start" x="128.5" y="-379.4" font-family="Helvetica,sans-Serif" font-size="11.00" fill="#000000">timestamp[29,6]</text>
<polygon fill="#ffffff" stroke="transparent" points="10.5,-352.7 10.5,-371.7 72.5,-371.7 72.5,-352.7 10.5,-352.7"/>
<polygon fill="none" stroke="#000000" points="10.5,-352.7 10.5,-371.7 72.5,-371.7 72.5,-352.7 10.5,-352.7"/>
<text text-anchor="start" x="13.5" y="-358.8" font-family="Helvetica,sans-Serif" font-size="11.00" fill="#000000">&lt; 0</text>
<polygon fill="#ffffff" stroke="transparent" points="72.5,-352.7 72.5,-371.7 125.5,-371.7 125.5,-352.7 72.5,-352.7"/>
<polygon fill="none" stroke="#000000" points="72.5,-352.7 72.5,-371.7 125.5,-371.7 125.5,-352.7 72.5,-352.7"/>
<text text-anchor="start" x="116.3862" y="-358.8" font-family="Helvetica,sans-Serif" font-size="11.00" fill="#000000"> &#160;</text>
<polygon fill="#ffffff" stroke="transparent" points="125.5,-352.7 125.5,-371.7 215.5,-371.7 215.5,-352.7 125.5,-352.7"/>
<polygon fill="none" stroke="#000000" points="125.5,-352.7 125.5,-371.7 215.5,-371.7 215.5,-352.7 125.5,-352.7"/>
<text text-anchor="start" x="196.9053" y="-358.8" font-family="Helvetica,sans-Serif" font-size="11.00" fill="#000000">5 &gt;</text>
<polygon fill="none" stroke="#000000" stroke-width="2" points="9,-351.7 9,-505.7 216,-505.7 216,-351.7 9,-351.7"/>
</a>
</g>
</g>
<!-- basket_portfolio_constituents&#45;&gt;cds_portfolios -->
<g id="edge1" class="edge">
<title>basket_portfolio_constituents:w&#45;&gt;cds_portfolios:e</title>
<path fill="none" stroke="#000000" d="M252.9033,-805.8937C203.534,-764.5684 286.5289,-470.7 215.5,-470.7"/>
<polygon fill="#000000" stroke="#000000" points="258.9574,-808.0337 265.3002,-814.0942 262.7287,-809.3668 266.5,-810.7 266.5,-810.7 266.5,-810.7 262.7287,-809.3668 267.6998,-807.3058 258.9574,-808.0337 258.9574,-808.0337"/>
<ellipse fill="none" stroke="#000000" cx="255.9403" cy="-806.9672" rx="3.2" ry="3.2"/>
</g>
<!-- bond_portfolio_constituents -->
<g id="node3" class="node">
<title>bond_portfolio_constituents</title>
<g id="a_node3"><a xlink:href="../../tables/bond_portfolio_constituents.html" xlink:title="bond_portfolio_constituents" target="_top">
<polygon fill="#ffffff" stroke="transparent" points="271.5,-548.2 271.5,-697.2 499.5,-697.2 499.5,-548.2 271.5,-548.2"/>
<polygon fill="#f5f5f5" stroke="transparent" points="271.5,-673.7 271.5,-696.7 499.5,-696.7 499.5,-673.7 271.5,-673.7"/>
<polygon fill="none" stroke="#000000" points="271.5,-673.7 271.5,-696.7 499.5,-696.7 499.5,-673.7 271.5,-673.7"/>
<text text-anchor="start" x="276.5" y="-682.3" font-family="Helvetica,sans-Serif" font-weight="bold" font-size="11.00" fill="#000000">bond_portfolio_constituents</text>
<text text-anchor="start" x="465.0219" y="-681.8" font-family="Helvetica,sans-Serif" font-size="11.00" fill="#000000">[table]</text>
<polygon fill="none" stroke="#000000" points="271.5,-651.7 271.5,-673.7 499.5,-673.7 499.5,-651.7 271.5,-651.7"/>
<image xlink:href="../../images/primaryKeys.png" width="11px" height="12px" preserveAspectRatio="xMinYMin meet" x="276.5" y="-668.7"/>
<text text-anchor="start" x="300.5" y="-658.8" font-family="Helvetica,sans-Serif" font-size="11.00" fill="#000000">id</text>
<polygon fill="#ffffff" stroke="transparent" points="271.5,-629.7 271.5,-651.7 499.5,-651.7 499.5,-629.7 271.5,-629.7"/>
<polygon fill="none" stroke="#000000" points="271.5,-629.7 271.5,-651.7 499.5,-651.7 499.5,-629.7 271.5,-629.7"/>
<image xlink:href="../../images/foreignKeys.png" width="11px" height="12px" preserveAspectRatio="xMinYMin meet" x="276.5" y="-646.7"/>
<text text-anchor="start" x="300.5" y="-636.8" font-family="Helvetica,sans-Serif" font-size="11.00" fill="#000000">portfolio_id</text>
<polygon fill="#ffffff" stroke="transparent" points="271.5,-607.7 271.5,-629.7 499.5,-629.7 499.5,-607.7 271.5,-607.7"/>
<polygon fill="none" stroke="#000000" points="271.5,-607.7 271.5,-629.7 499.5,-629.7 499.5,-607.7 271.5,-607.7"/>
<image xlink:href="../../images/foreignKeys.png" width="11px" height="12px" preserveAspectRatio="xMinYMin meet" x="276.5" y="-624.7"/>
<text text-anchor="start" x="300.5" y="-614.8" font-family="Helvetica,sans-Serif" font-size="11.00" fill="#000000">bond_id</text>
<polygon fill="#ffffff" stroke="transparent" points="271.5,-585.7 271.5,-607.7 499.5,-607.7 499.5,-585.7 271.5,-585.7"/>
<polygon fill="none" stroke="#000000" points="271.5,-585.7 271.5,-607.7 499.5,-607.7 499.5,-585.7 271.5,-585.7"/>
<text text-anchor="start" x="300.5" y="-592.8" font-family="Helvetica,sans-Serif" font-size="11.00" fill="#000000">active</text>
<polygon fill="none" stroke="#000000" points="271.5,-566.7 271.5,-585.7 499.5,-585.7 499.5,-566.7 271.5,-566.7"/>
<text text-anchor="start" x="274.5" y="-572.8" font-family="Helvetica,sans-Serif" font-size="11.00" fill="#000000">...</text>
<polygon fill="#ffffff" stroke="transparent" points="271.5,-547.7 271.5,-566.7 383.5,-566.7 383.5,-547.7 271.5,-547.7"/>
<polygon fill="none" stroke="#000000" points="271.5,-547.7 271.5,-566.7 383.5,-566.7 383.5,-547.7 271.5,-547.7"/>
<text text-anchor="start" x="274.5" y="-553.8" font-family="Helvetica,sans-Serif" font-size="11.00" fill="#000000">&lt; 2</text>
<polygon fill="#ffffff" stroke="transparent" points="383.5,-547.7 383.5,-566.7 441.5,-566.7 441.5,-547.7 383.5,-547.7"/>
<polygon fill="none" stroke="#000000" points="383.5,-547.7 383.5,-566.7 441.5,-566.7 441.5,-547.7 383.5,-547.7"/>
<text text-anchor="start" x="432.3862" y="-553.8" font-family="Helvetica,sans-Serif" font-size="11.00" fill="#000000"> &#160;</text>
<polygon fill="#ffffff" stroke="transparent" points="441.5,-547.7 441.5,-566.7 499.5,-566.7 499.5,-547.7 441.5,-547.7"/>
<polygon fill="none" stroke="#000000" points="441.5,-547.7 441.5,-566.7 499.5,-566.7 499.5,-547.7 441.5,-547.7"/>
<text text-anchor="start" x="490.3862" y="-553.8" font-family="Helvetica,sans-Serif" font-size="11.00" fill="#000000"> &#160;</text>
</a>
</g>
</g>
<!-- bond_portfolio_constituents&#45;&gt;cds_portfolios -->
<g id="edge2" class="edge">
<title>bond_portfolio_constituents:w&#45;&gt;cds_portfolios:e</title>
<path fill="none" stroke="#000000" d="M256.9776,-638.1649C205.8978,-617.0175 289.3007,-470.7 215.5,-470.7"/>
<polygon fill="#000000" stroke="#000000" points="263.6192,-639.3243 270.8809,-644.2464 267.5596,-640.0121 271.5,-640.7 271.5,-640.7 271.5,-640.7 267.5596,-640.0121 272.1191,-637.1536 263.6192,-639.3243 263.6192,-639.3243"/>
<ellipse fill="none" stroke="#000000" cx="260.4668" cy="-638.774" rx="3.2" ry="3.2"/>
</g>
<!-- cds_portfolio_constituents -->
<g id="node4" class="node">
<title>cds_portfolio_constituents</title>
<g id="a_node4"><a xlink:href="../../tables/cds_portfolio_constituents.html" xlink:title="cds_portfolio_constituents" target="_top">
<polygon fill="#ffffff" stroke="transparent" points="277,-378.2 277,-527.2 494,-527.2 494,-378.2 277,-378.2"/>
<polygon fill="#f5f5f5" stroke="transparent" points="277.5,-503.7 277.5,-526.7 494.5,-526.7 494.5,-503.7 277.5,-503.7"/>
<polygon fill="none" stroke="#000000" points="277.5,-503.7 277.5,-526.7 494.5,-526.7 494.5,-503.7 277.5,-503.7"/>
<text text-anchor="start" x="282.5" y="-512.3" font-family="Helvetica,sans-Serif" font-weight="bold" font-size="11.00" fill="#000000">cds_portfolio_constituents</text>
<text text-anchor="start" x="460.0219" y="-511.8" font-family="Helvetica,sans-Serif" font-size="11.00" fill="#000000">[table]</text>
<polygon fill="none" stroke="#000000" points="277.5,-481.7 277.5,-503.7 494.5,-503.7 494.5,-481.7 277.5,-481.7"/>
<image xlink:href="../../images/primaryKeys.png" width="11px" height="12px" preserveAspectRatio="xMinYMin meet" x="282.5" y="-498.7"/>
<text text-anchor="start" x="306.5" y="-488.8" font-family="Helvetica,sans-Serif" font-size="11.00" fill="#000000">id</text>
<polygon fill="#ffffff" stroke="transparent" points="277.5,-459.7 277.5,-481.7 494.5,-481.7 494.5,-459.7 277.5,-459.7"/>
<polygon fill="none" stroke="#000000" points="277.5,-459.7 277.5,-481.7 494.5,-481.7 494.5,-459.7 277.5,-459.7"/>
<image xlink:href="../../images/foreignKeys.png" width="11px" height="12px" preserveAspectRatio="xMinYMin meet" x="282.5" y="-476.7"/>
<text text-anchor="start" x="306.5" y="-466.8" font-family="Helvetica,sans-Serif" font-size="11.00" fill="#000000">portfolio_id</text>
<polygon fill="#ffffff" stroke="transparent" points="277.5,-437.7 277.5,-459.7 494.5,-459.7 494.5,-437.7 277.5,-437.7"/>
<polygon fill="none" stroke="#000000" points="277.5,-437.7 277.5,-459.7 494.5,-459.7 494.5,-437.7 277.5,-437.7"/>
<image xlink:href="../../images/foreignKeys.png" width="11px" height="12px" preserveAspectRatio="xMinYMin meet" x="282.5" y="-454.7"/>
<text text-anchor="start" x="306.5" y="-444.8" font-family="Helvetica,sans-Serif" font-size="11.00" fill="#000000">trade_id</text>
<polygon fill="#ffffff" stroke="transparent" points="277.5,-415.7 277.5,-437.7 494.5,-437.7 494.5,-415.7 277.5,-415.7"/>
<polygon fill="none" stroke="#000000" points="277.5,-415.7 277.5,-437.7 494.5,-437.7 494.5,-415.7 277.5,-415.7"/>
<text text-anchor="start" x="306.5" y="-422.8" font-family="Helvetica,sans-Serif" font-size="11.00" fill="#000000">active</text>
<polygon fill="none" stroke="#000000" points="277.5,-396.7 277.5,-415.7 494.5,-415.7 494.5,-396.7 277.5,-396.7"/>
<text text-anchor="start" x="280.5" y="-402.8" font-family="Helvetica,sans-Serif" font-size="11.00" fill="#000000">...</text>
<polygon fill="#ffffff" stroke="transparent" points="277.5,-377.7 277.5,-396.7 384.5,-396.7 384.5,-377.7 277.5,-377.7"/>
<polygon fill="none" stroke="#000000" points="277.5,-377.7 277.5,-396.7 384.5,-396.7 384.5,-377.7 277.5,-377.7"/>
<text text-anchor="start" x="280.5" y="-383.8" font-family="Helvetica,sans-Serif" font-size="11.00" fill="#000000">&lt; 2</text>
<polygon fill="#ffffff" stroke="transparent" points="384.5,-377.7 384.5,-396.7 439.5,-396.7 439.5,-377.7 384.5,-377.7"/>
<polygon fill="none" stroke="#000000" points="384.5,-377.7 384.5,-396.7 439.5,-396.7 439.5,-377.7 384.5,-377.7"/>
<text text-anchor="start" x="430.3862" y="-383.8" font-family="Helvetica,sans-Serif" font-size="11.00" fill="#000000"> &#160;</text>
<polygon fill="#ffffff" stroke="transparent" points="439.5,-377.7 439.5,-396.7 494.5,-396.7 494.5,-377.7 439.5,-377.7"/>
<polygon fill="none" stroke="#000000" points="439.5,-377.7 439.5,-396.7 494.5,-396.7 494.5,-377.7 439.5,-377.7"/>
<text text-anchor="start" x="485.3862" y="-383.8" font-family="Helvetica,sans-Serif" font-size="11.00" fill="#000000"> &#160;</text>
</a>
</g>
</g>
<!-- cds_portfolio_constituents&#45;&gt;cds_portfolios -->
<g id="edge3" class="edge">
<title>cds_portfolio_constituents:w&#45;&gt;cds_portfolios:e</title>
<path fill="none" stroke="#000000" d="M262.92,-470.7C246.2931,-470.7 237.4583,-470.7 215.5,-470.7"/>
<polygon fill="#000000" stroke="#000000" points="269.5,-470.7001 277.5,-474.3 273.5,-470.7 277.5,-470.7 277.5,-470.7 277.5,-470.7 273.5,-470.7 277.5,-467.1 269.5,-470.7001 269.5,-470.7001"/>
<ellipse fill="none" stroke="#000000" cx="266.3" cy="-470.7001" rx="3.2" ry="3.2"/>
</g>
<!-- portfolio_risk_cache -->
<g id="node5" class="node">
<title>portfolio_risk_cache</title>
<g id="a_node5"><a xlink:href="../../tables/portfolio_risk_cache.html" xlink:title="portfolio_risk_cache" target="_top">
<polygon fill="#ffffff" stroke="transparent" points="283,-230.2 283,-357.2 488,-357.2 488,-230.2 283,-230.2"/>
<polygon fill="#f5f5f5" stroke="transparent" points="283.5,-333.7 283.5,-356.7 488.5,-356.7 488.5,-333.7 283.5,-333.7"/>
<polygon fill="none" stroke="#000000" points="283.5,-333.7 283.5,-356.7 488.5,-356.7 488.5,-333.7 283.5,-333.7"/>
<text text-anchor="start" x="288.5" y="-342.3" font-family="Helvetica,sans-Serif" font-weight="bold" font-size="11.00" fill="#000000">portfolio_risk_cache</text>
<text text-anchor="start" x="453.5437" y="-341.8" font-family="Helvetica,sans-Serif" font-size="11.00" fill="#000000">[table]</text>
<polygon fill="none" stroke="#000000" points="283.5,-311.7 283.5,-333.7 488.5,-333.7 488.5,-311.7 283.5,-311.7"/>
<image xlink:href="../../images/primaryKeys.png" width="11px" height="12px" preserveAspectRatio="xMinYMin meet" x="288.5" y="-328.7"/>
<text text-anchor="start" x="303.5" y="-318.8" font-family="Helvetica,sans-Serif" font-size="11.00" fill="#000000">id</text>
<polygon fill="#ffffff" stroke="transparent" points="283.5,-289.7 283.5,-311.7 488.5,-311.7 488.5,-289.7 283.5,-289.7"/>
<polygon fill="none" stroke="#000000" points="283.5,-289.7 283.5,-311.7 488.5,-311.7 488.5,-289.7 283.5,-289.7"/>
<image xlink:href="../../images/foreignKeys.png" width="11px" height="12px" preserveAspectRatio="xMinYMin meet" x="288.5" y="-306.7"/>
<text text-anchor="start" x="303.5" y="-296.8" font-family="Helvetica,sans-Serif" font-size="11.00" fill="#000000">portfolio_id</text>
<polygon fill="#ffffff" stroke="transparent" points="283.5,-267.7 283.5,-289.7 488.5,-289.7 488.5,-267.7 283.5,-267.7"/>
<polygon fill="none" stroke="#000000" points="283.5,-267.7 283.5,-289.7 488.5,-289.7 488.5,-267.7 283.5,-267.7"/>
<text text-anchor="start" x="303.5" y="-274.8" font-family="Helvetica,sans-Serif" font-size="11.00" fill="#000000">valuation_date</text>
<polygon fill="none" stroke="#000000" points="283.5,-248.7 283.5,-267.7 488.5,-267.7 488.5,-248.7 283.5,-248.7"/>
<text text-anchor="start" x="286.5" y="-254.8" font-family="Helvetica,sans-Serif" font-size="11.00" fill="#000000">...</text>
<polygon fill="#ffffff" stroke="transparent" points="283.5,-229.7 283.5,-248.7 384.5,-248.7 384.5,-229.7 283.5,-229.7"/>
<polygon fill="none" stroke="#000000" points="283.5,-229.7 283.5,-248.7 384.5,-248.7 384.5,-229.7 283.5,-229.7"/>
<text text-anchor="start" x="286.5" y="-235.8" font-family="Helvetica,sans-Serif" font-size="11.00" fill="#000000">&lt; 1</text>
<polygon fill="#ffffff" stroke="transparent" points="384.5,-229.7 384.5,-248.7 436.5,-248.7 436.5,-229.7 384.5,-229.7"/>
<polygon fill="none" stroke="#000000" points="384.5,-229.7 384.5,-248.7 436.5,-248.7 436.5,-229.7 384.5,-229.7"/>
<text text-anchor="start" x="427.3862" y="-235.8" font-family="Helvetica,sans-Serif" font-size="11.00" fill="#000000"> &#160;</text>
<polygon fill="#ffffff" stroke="transparent" points="436.5,-229.7 436.5,-248.7 488.5,-248.7 488.5,-229.7 436.5,-229.7"/>
<polygon fill="none" stroke="#000000" points="436.5,-229.7 436.5,-248.7 488.5,-248.7 488.5,-229.7 436.5,-229.7"/>
<text text-anchor="start" x="479.3862" y="-235.8" font-family="Helvetica,sans-Serif" font-size="11.00" fill="#000000"> &#160;</text>
</a>
</g>
</g>
<!-- portfolio_risk_cache&#45;&gt;cds_portfolios -->
<g id="edge4" class="edge">
<title>portfolio_risk_cache:w&#45;&gt;cds_portfolios:e</title>
<path fill="none" stroke="#000000" d="M269.1682,-302.9746C214.2555,-323.1478 291.313,-470.7 215.5,-470.7"/>
<polygon fill="#000000" stroke="#000000" points="275.5989,-301.954 284.0643,-304.2555 279.5494,-301.327 283.5,-300.7 283.5,-300.7 283.5,-300.7 279.5494,-301.327 282.9357,-297.1445 275.5989,-301.954 275.5989,-301.954"/>
<ellipse fill="none" stroke="#000000" cx="272.4384" cy="-302.4557" rx="3.2" ry="3.2"/>
</g>
<!-- simulation_runs -->
<g id="node6" class="node">
<title>simulation_runs</title>
<g id="a_node6"><a xlink:href="../../tables/simulation_runs.html" xlink:title="simulation_runs" target="_top">
<polygon fill="#ffffff" stroke="transparent" points="312.5,-38.2 312.5,-209.2 458.5,-209.2 458.5,-38.2 312.5,-38.2"/>
<polygon fill="#f5f5f5" stroke="transparent" points="312.5,-185.7 312.5,-208.7 458.5,-208.7 458.5,-185.7 312.5,-185.7"/>
<polygon fill="none" stroke="#000000" points="312.5,-185.7 312.5,-208.7 458.5,-208.7 458.5,-185.7 312.5,-185.7"/>
<text text-anchor="start" x="317.5" y="-194.3" font-family="Helvetica,sans-Serif" font-weight="bold" font-size="11.00" fill="#000000">simulation_runs</text>
<text text-anchor="start" x="424.0219" y="-193.8" font-family="Helvetica,sans-Serif" font-size="11.00" fill="#000000">[table]</text>
<polygon fill="none" stroke="#000000" points="312.5,-163.7 312.5,-185.7 458.5,-185.7 458.5,-163.7 312.5,-163.7"/>
<image xlink:href="../../images/primaryKeys.png" width="11px" height="12px" preserveAspectRatio="xMinYMin meet" x="317.5" y="-180.7"/>
<text text-anchor="start" x="339.5" y="-170.8" font-family="Helvetica,sans-Serif" font-size="11.00" fill="#000000">id</text>
<polygon fill="#ffffff" stroke="transparent" points="312.5,-141.7 312.5,-163.7 458.5,-163.7 458.5,-141.7 312.5,-141.7"/>
<polygon fill="none" stroke="#000000" points="312.5,-141.7 312.5,-163.7 458.5,-163.7 458.5,-141.7 312.5,-141.7"/>
<text text-anchor="start" x="339.5" y="-148.8" font-family="Helvetica,sans-Serif" font-size="11.00" fill="#000000">run_id</text>
<polygon fill="#ffffff" stroke="transparent" points="312.5,-119.7 312.5,-141.7 458.5,-141.7 458.5,-119.7 312.5,-119.7"/>
<polygon fill="none" stroke="#000000" points="312.5,-119.7 312.5,-141.7 458.5,-141.7 458.5,-119.7 312.5,-119.7"/>
<image xlink:href="../../images/foreignKeys.png" width="11px" height="12px" preserveAspectRatio="xMinYMin meet" x="317.5" y="-136.7"/>
<text text-anchor="start" x="339.5" y="-126.8" font-family="Helvetica,sans-Serif" font-size="11.00" fill="#000000">portfolio_id</text>
<polygon fill="#ffffff" stroke="transparent" points="312.5,-97.7 312.5,-119.7 458.5,-119.7 458.5,-97.7 312.5,-97.7"/>
<polygon fill="none" stroke="#000000" points="312.5,-97.7 312.5,-119.7 458.5,-119.7 458.5,-97.7 312.5,-97.7"/>
<text text-anchor="start" x="339.5" y="-104.8" font-family="Helvetica,sans-Serif" font-size="11.00" fill="#000000">status</text>
<polygon fill="#ffffff" stroke="transparent" points="312.5,-75.7 312.5,-97.7 458.5,-97.7 458.5,-75.7 312.5,-75.7"/>
<polygon fill="none" stroke="#000000" points="312.5,-75.7 312.5,-97.7 458.5,-97.7 458.5,-75.7 312.5,-75.7"/>
<text text-anchor="start" x="339.5" y="-82.8" font-family="Helvetica,sans-Serif" font-size="11.00" fill="#000000">created_at</text>
<polygon fill="none" stroke="#000000" points="312.5,-56.7 312.5,-75.7 458.5,-75.7 458.5,-56.7 312.5,-56.7"/>
<text text-anchor="start" x="315.5" y="-62.8" font-family="Helvetica,sans-Serif" font-size="11.00" fill="#000000">...</text>
<polygon fill="#ffffff" stroke="transparent" points="312.5,-37.7 312.5,-56.7 379.5,-56.7 379.5,-37.7 312.5,-37.7"/>
<polygon fill="none" stroke="#000000" points="312.5,-37.7 312.5,-56.7 379.5,-56.7 379.5,-37.7 312.5,-37.7"/>
<text text-anchor="start" x="315.5" y="-43.8" font-family="Helvetica,sans-Serif" font-size="11.00" fill="#000000">&lt; 1</text>
<polygon fill="#ffffff" stroke="transparent" points="379.5,-37.7 379.5,-56.7 414.5,-56.7 414.5,-37.7 379.5,-37.7"/>
<polygon fill="none" stroke="#000000" points="379.5,-37.7 379.5,-56.7 414.5,-56.7 414.5,-37.7 379.5,-37.7"/>
<text text-anchor="start" x="405.3862" y="-43.8" font-family="Helvetica,sans-Serif" font-size="11.00" fill="#000000"> &#160;</text>
<polygon fill="#ffffff" stroke="transparent" points="414.5,-37.7 414.5,-56.7 458.5,-56.7 458.5,-37.7 414.5,-37.7"/>
<polygon fill="none" stroke="#000000" points="414.5,-37.7 414.5,-56.7 458.5,-56.7 458.5,-37.7 414.5,-37.7"/>
<text text-anchor="start" x="439.9053" y="-43.8" font-family="Helvetica,sans-Serif" font-size="11.00" fill="#000000">3 &gt;</text>
</a>
</g>
</g>
<!-- simulation_runs&#45;&gt;cds_portfolios -->
<g id="edge5" class="edge">
<title>simulation_runs:w&#45;&gt;cds_portfolios:e</title>
<path fill="none" stroke="#000000" d="M297.9092,-132.6199C267.7354,-141.7046 272.3072,-181.527 258,-219.7 238.1457,-272.6732 272.0717,-470.7 215.5,-470.7"/>
<polygon fill="#000000" stroke="#000000" points="304.5684,-131.7437 312.9697,-134.2692 308.5342,-131.2218 312.5,-130.7 312.5,-130.7 312.5,-130.7 308.5342,-131.2218 312.0303,-127.1308 304.5684,-131.7437 304.5684,-131.7437"/>
<ellipse fill="none" stroke="#000000" cx="301.3957" cy="-132.1612" rx="3.2" ry="3.2"/>
</g>
</g>
</svg>
