<?xml version="1.0" encoding="UTF-8" standalone="no"?>
<!DOCTYPE svg PUBLIC "-//W3C//DTD SVG 1.1//EN"
 "http://www.w3.org/Graphics/SVG/1.1/DTD/svg11.dtd">
<!-- Generated by graphviz version 2.40.1 (20161225.0304)
 -->
<!-- Title: oneDegreeRelationshipsDiagram Pages: 1 -->
<svg width="834pt" height="526pt"
 viewBox="0.00 0.00 834.00 526.20" xmlns="http://www.w3.org/2000/svg" xmlns:xlink="http://www.w3.org/1999/xlink">
<g id="graph0" class="graph" transform="scale(1 1) rotate(0) translate(4 522.2)">
<title>oneDegreeRelationshipsDiagram</title>
<polygon fill="#ffffff" stroke="transparent" points="-4,4 -4,-522.2 830,-522.2 830,4 -4,4"/>
<text text-anchor="middle" x="72.4936" y="-7.3" font-family="Helvetica,sans-Serif" font-size="11.00" fill="#000000">Generated by SchemaSpy</text>
<!-- cds_cash_settlements -->
<g id="node1" class="node">
<title>cds_cash_settlements</title>
<g id="a_node1"><a xlink:href="../../tables/cds_cash_settlements.html" xlink:title="cds_cash_settlements" target="_top">
<polygon fill="#ffffff" stroke="transparent" points="580.5,-387.2 580.5,-514.2 765.5,-514.2 765.5,-387.2 580.5,-387.2"/>
<polygon fill="#f5f5f5" stroke="transparent" points="581,-490.7 581,-513.7 766,-513.7 766,-490.7 581,-490.7"/>
<polygon fill="none" stroke="#000000" points="581,-490.7 581,-513.7 766,-513.7 766,-490.7 581,-490.7"/>
<text text-anchor="start" x="586" y="-499.3" font-family="Helvetica,sans-Serif" font-weight="bold" font-size="11.00" fill="#000000">cds_cash_settlements</text>
<text text-anchor="start" x="731.5219" y="-498.8" font-family="Helvetica,sans-Serif" font-size="11.00" fill="#000000">[table]</text>
<polygon fill="none" stroke="#000000" points="581,-468.7 581,-490.7 766,-490.7 766,-468.7 581,-468.7"/>
<image xlink:href="../../images/primaryKeys.png" width="11px" height="12px" preserveAspectRatio="xMinYMin meet" x="586" y="-485.7"/>
<text text-anchor="start" x="610" y="-475.8" font-family="Helvetica,sans-Serif" font-size="11.00" fill="#000000">id</text>
<polygon fill="#ffffff" stroke="transparent" points="581,-446.7 581,-468.7 766,-468.7 766,-446.7 581,-446.7"/>
<polygon fill="none" stroke="#000000" points="581,-446.7 581,-468.7 766,-468.7 766,-446.7 581,-446.7"/>
<image xlink:href="../../images/foreignKeys.png" width="11px" height="12px" preserveAspectRatio="xMinYMin meet" x="586" y="-463.7"/>
<text text-anchor="start" x="610" y="-453.8" font-family="Helvetica,sans-Serif" font-size="11.00" fill="#000000">credit_event_id</text>
<polygon fill="#ffffff" stroke="transparent" points="581,-424.7 581,-446.7 766,-446.7 766,-424.7 581,-424.7"/>
<polygon fill="none" stroke="#000000" points="581,-424.7 581,-446.7 766,-446.7 766,-424.7 581,-424.7"/>
<image xlink:href="../../images/foreignKeys.png" width="11px" height="12px" preserveAspectRatio="xMinYMin meet" x="586" y="-441.7"/>
<text text-anchor="start" x="610" y="-431.8" font-family="Helvetica,sans-Serif" font-size="11.00" fill="#000000">trade_id</text>
<polygon fill="none" stroke="#000000" points="581,-405.7 581,-424.7 766,-424.7 766,-405.7 581,-405.7"/>
<text text-anchor="start" x="584" y="-411.8" font-family="Helvetica,sans-Serif" font-size="11.00" fill="#000000">...</text>
<polygon fill="#ffffff" stroke="transparent" points="581,-386.7 581,-405.7 672,-405.7 672,-386.7 581,-386.7"/>
<polygon fill="none" stroke="#000000" points="581,-386.7 581,-405.7 672,-405.7 672,-386.7 581,-386.7"/>
<text text-anchor="start" x="584" y="-392.8" font-family="Helvetica,sans-Serif" font-size="11.00" fill="#000000">&lt; 2</text>
<polygon fill="#ffffff" stroke="transparent" points="672,-386.7 672,-405.7 719,-405.7 719,-386.7 672,-386.7"/>
<polygon fill="none" stroke="#000000" points="672,-386.7 672,-405.7 719,-405.7 719,-386.7 672,-386.7"/>
<text text-anchor="start" x="709.8862" y="-392.8" font-family="Helvetica,sans-Serif" font-size="11.00" fill="#000000"> &#160;</text>
<polygon fill="#ffffff" stroke="transparent" points="719,-386.7 719,-405.7 766,-405.7 766,-386.7 719,-386.7"/>
<polygon fill="none" stroke="#000000" points="719,-386.7 719,-405.7 766,-405.7 766,-386.7 719,-386.7"/>
<text text-anchor="start" x="756.8862" y="-392.8" font-family="Helvetica,sans-Serif" font-size="11.00" fill="#000000"> &#160;</text>
</a>
</g>
</g>
<!-- cds_credit_events -->
<g id="node2" class="node">
<title>cds_credit_events</title>
<g id="a_node2"><a xlink:href="../../tables/cds_credit_events.html" xlink:title="cds_credit_events" target="_top">
<polygon fill="#ffffff" stroke="transparent" points="229,-208.7 229,-452.7 479,-452.7 479,-208.7 229,-208.7"/>
<polygon fill="#f5f5f5" stroke="transparent" points="231,-427.7 231,-450.7 477,-450.7 477,-427.7 231,-427.7"/>
<polygon fill="none" stroke="#000000" points="231,-427.7 231,-450.7 477,-450.7 477,-427.7 231,-427.7"/>
<text text-anchor="start" x="236" y="-436.3" font-family="Helvetica,sans-Serif" font-weight="bold" font-size="11.00" fill="#000000">cds_credit_events</text>
<text text-anchor="start" x="442.0437" y="-435.8" font-family="Helvetica,sans-Serif" font-size="11.00" fill="#000000">[table]</text>
<polygon fill="none" stroke="#000000" points="231,-405.7 231,-427.7 383,-427.7 383,-405.7 231,-405.7"/>
<image xlink:href="../../images/primaryKeys.png" width="11px" height="12px" preserveAspectRatio="xMinYMin meet" x="236" y="-422.7"/>
<text text-anchor="start" x="251" y="-412.8" font-family="Helvetica,sans-Serif" font-size="11.00" fill="#000000">id</text>
<polygon fill="none" stroke="#000000" points="383,-405.7 383,-427.7 477,-427.7 477,-405.7 383,-405.7"/>
<text text-anchor="start" x="385.9758" y="-413.4" font-family="Helvetica,sans-Serif" font-size="11.00" fill="#000000">uuid[2147483647]</text>
<polygon fill="#ffffff" stroke="transparent" points="231,-383.7 231,-405.7 383,-405.7 383,-383.7 231,-383.7"/>
<polygon fill="none" stroke="#000000" points="231,-383.7 231,-405.7 383,-405.7 383,-383.7 231,-383.7"/>
<image xlink:href="../../images/foreignKeys.png" width="11px" height="12px" preserveAspectRatio="xMinYMin meet" x="236" y="-400.7"/>
<text text-anchor="start" x="251" y="-390.8" font-family="Helvetica,sans-Serif" font-size="11.00" fill="#000000">trade_id</text>
<polygon fill="none" stroke="#000000" points="383,-383.7 383,-405.7 477,-405.7 477,-383.7 383,-383.7"/>
<text text-anchor="start" x="386" y="-391.4" font-family="Helvetica,sans-Serif" font-size="11.00" fill="#000000">int8[19]</text>
<polygon fill="#ffffff" stroke="transparent" points="231,-361.7 231,-383.7 383,-383.7 383,-361.7 231,-361.7"/>
<polygon fill="none" stroke="#000000" points="231,-361.7 231,-383.7 383,-383.7 383,-361.7 231,-361.7"/>
<text text-anchor="start" x="251" y="-368.8" font-family="Helvetica,sans-Serif" font-size="11.00" fill="#000000">event_type</text>
<polygon fill="none" stroke="#000000" points="383,-361.7 383,-383.7 477,-383.7 477,-361.7 383,-361.7"/>
<text text-anchor="start" x="386" y="-369.4" font-family="Helvetica,sans-Serif" font-size="11.00" fill="#000000">varchar[50]</text>
<polygon fill="#ffffff" stroke="transparent" points="231,-339.7 231,-361.7 383,-361.7 383,-339.7 231,-339.7"/>
<polygon fill="none" stroke="#000000" points="231,-339.7 231,-361.7 383,-361.7 383,-339.7 231,-339.7"/>
<text text-anchor="start" x="251" y="-346.8" font-family="Helvetica,sans-Serif" font-size="11.00" fill="#000000">event_date</text>
<polygon fill="none" stroke="#000000" points="383,-339.7 383,-361.7 477,-361.7 477,-339.7 383,-339.7"/>
<text text-anchor="start" x="386" y="-347.4" font-family="Helvetica,sans-Serif" font-size="11.00" fill="#000000">date[13]</text>
<polygon fill="none" stroke="#000000" points="231,-317.7 231,-339.7 383,-339.7 383,-317.7 231,-317.7"/>
<text text-anchor="start" x="251" y="-324.8" font-family="Helvetica,sans-Serif" font-size="11.00" fill="#000000">notice_date</text>
<polygon fill="none" stroke="#000000" points="383,-317.7 383,-339.7 477,-339.7 477,-317.7 383,-317.7"/>
<text text-anchor="start" x="386" y="-325.4" font-family="Helvetica,sans-Serif" font-size="11.00" fill="#000000">date[13]</text>
<polygon fill="none" stroke="#000000" points="231,-295.7 231,-317.7 383,-317.7 383,-295.7 231,-295.7"/>
<text text-anchor="start" x="251" y="-302.8" font-family="Helvetica,sans-Serif" font-size="11.00" fill="#000000">settlement_method</text>
<polygon fill="none" stroke="#000000" points="383,-295.7 383,-317.7 477,-317.7 477,-295.7 383,-295.7"/>
<text text-anchor="start" x="386" y="-303.4" font-family="Helvetica,sans-Serif" font-size="11.00" fill="#000000">varchar[20]</text>
<polygon fill="none" stroke="#000000" points="231,-273.7 231,-295.7 383,-295.7 383,-273.7 231,-273.7"/>
<text text-anchor="start" x="251" y="-280.8" font-family="Helvetica,sans-Serif" font-size="11.00" fill="#000000">comments</text>
<polygon fill="none" stroke="#000000" points="383,-273.7 383,-295.7 477,-295.7 477,-273.7 383,-273.7"/>
<text text-anchor="start" x="386" y="-281.4" font-family="Helvetica,sans-Serif" font-size="11.00" fill="#000000">text[2147483647]</text>
<polygon fill="none" stroke="#000000" points="231,-251.7 231,-273.7 383,-273.7 383,-251.7 231,-251.7"/>
<text text-anchor="start" x="251" y="-258.8" font-family="Helvetica,sans-Serif" font-size="11.00" fill="#000000">created_at</text>
<polygon fill="none" stroke="#000000" points="383,-251.7 383,-273.7 477,-273.7 477,-251.7 383,-251.7"/>
<text text-anchor="start" x="386" y="-259.4" font-family="Helvetica,sans-Serif" font-size="11.00" fill="#000000">timestamp[29,6]</text>
<polygon fill="none" stroke="#000000" points="231,-229.7 231,-251.7 383,-251.7 383,-229.7 231,-229.7"/>
<text text-anchor="start" x="251" y="-236.8" font-family="Helvetica,sans-Serif" font-size="11.00" fill="#000000">updated_at</text>
<polygon fill="none" stroke="#000000" points="383,-229.7 383,-251.7 477,-251.7 477,-229.7 383,-229.7"/>
<text text-anchor="start" x="386" y="-237.4" font-family="Helvetica,sans-Serif" font-size="11.00" fill="#000000">timestamp[29,6]</text>
<polygon fill="#ffffff" stroke="transparent" points="231,-210.7 231,-229.7 311,-229.7 311,-210.7 231,-210.7"/>
<polygon fill="none" stroke="#000000" points="231,-210.7 231,-229.7 311,-229.7 311,-210.7 231,-210.7"/>
<text text-anchor="start" x="234" y="-216.8" font-family="Helvetica,sans-Serif" font-size="11.00" fill="#000000">&lt; 1</text>
<polygon fill="#ffffff" stroke="transparent" points="311,-210.7 311,-229.7 383,-229.7 383,-210.7 311,-210.7"/>
<polygon fill="none" stroke="#000000" points="311,-210.7 311,-229.7 383,-229.7 383,-210.7 311,-210.7"/>
<text text-anchor="start" x="373.8862" y="-216.8" font-family="Helvetica,sans-Serif" font-size="11.00" fill="#000000"> &#160;</text>
<polygon fill="#ffffff" stroke="transparent" points="383,-210.7 383,-229.7 477,-229.7 477,-210.7 383,-210.7"/>
<polygon fill="none" stroke="#000000" points="383,-210.7 383,-229.7 477,-229.7 477,-210.7 383,-210.7"/>
<text text-anchor="start" x="458.4053" y="-216.8" font-family="Helvetica,sans-Serif" font-size="11.00" fill="#000000">2 &gt;</text>
<polygon fill="none" stroke="#000000" stroke-width="2" points="230,-209.7 230,-451.7 478,-451.7 478,-209.7 230,-209.7"/>
</a>
</g>
</g>
<!-- cds_cash_settlements&#45;&gt;cds_credit_events -->
<g id="edge1" class="edge">
<title>cds_cash_settlements:w&#45;&gt;cds_credit_events:e</title>
<path fill="none" stroke="#000000" d="M570.3907,-457.0226C530.3486,-451.6918 522.8999,-416.7 477,-416.7"/>
<polygon fill="#000000" stroke="#000000" points="580.4566,-453.6571 579.9467,-461.6409 578.35,-461.5389 578.8598,-453.5552 580.4566,-453.6571"/>
<polyline fill="none" stroke="#000000" points="581,-457.7 577.0081,-457.4451 "/>
<ellipse fill="none" stroke="#000000" cx="573.8146" cy="-457.2411" rx="3.2" ry="3.2"/>
</g>
<!-- cds_trades -->
<g id="node3" class="node">
<title>cds_trades</title>
<g id="a_node3"><a xlink:href="../../tables/cds_trades.html" xlink:title="cds_trades" target="_top">
<polygon fill="#ffffff" stroke="transparent" points="8,-38.2 8,-429.2 180,-429.2 180,-38.2 8,-38.2"/>
<polygon fill="#f5f5f5" stroke="transparent" points="8,-405.7 8,-428.7 180,-428.7 180,-405.7 8,-405.7"/>
<polygon fill="none" stroke="#000000" points="8,-405.7 8,-428.7 180,-428.7 180,-405.7 8,-405.7"/>
<text text-anchor="start" x="13" y="-414.3" font-family="Helvetica,sans-Serif" font-weight="bold" font-size="11.00" fill="#000000">cds_trades</text>
<text text-anchor="start" x="145.0437" y="-413.8" font-family="Helvetica,sans-Serif" font-size="11.00" fill="#000000">[table]</text>
<polygon fill="none" stroke="#000000" points="8,-383.7 8,-405.7 180,-405.7 180,-383.7 8,-383.7"/>
<image xlink:href="../../images/primaryKeys.png" width="11px" height="12px" preserveAspectRatio="xMinYMin meet" x="13" y="-400.7"/>
<text text-anchor="start" x="28" y="-390.8" font-family="Helvetica,sans-Serif" font-size="11.00" fill="#000000">id</text>
<polygon fill="#ffffff" stroke="transparent" points="8,-361.7 8,-383.7 180,-383.7 180,-361.7 8,-361.7"/>
<polygon fill="none" stroke="#000000" points="8,-361.7 8,-383.7 180,-383.7 180,-361.7 8,-361.7"/>
<text text-anchor="start" x="28" y="-368.8" font-family="Helvetica,sans-Serif" font-size="11.00" fill="#000000">reference_entity</text>
<polygon fill="#ffffff" stroke="transparent" points="8,-339.7 8,-361.7 180,-361.7 180,-339.7 8,-339.7"/>
<polygon fill="none" stroke="#000000" points="8,-339.7 8,-361.7 180,-361.7 180,-339.7 8,-339.7"/>
<text text-anchor="start" x="28" y="-346.8" font-family="Helvetica,sans-Serif" font-size="11.00" fill="#000000">counterparty</text>
<polygon fill="#ffffff" stroke="transparent" points="8,-317.7 8,-339.7 180,-339.7 180,-317.7 8,-317.7"/>
<polygon fill="none" stroke="#000000" points="8,-317.7 8,-339.7 180,-339.7 180,-317.7 8,-317.7"/>
<text text-anchor="start" x="28" y="-324.8" font-family="Helvetica,sans-Serif" font-size="11.00" fill="#000000">trade_date</text>
<polygon fill="#ffffff" stroke="transparent" points="8,-295.7 8,-317.7 180,-317.7 180,-295.7 8,-295.7"/>
<polygon fill="none" stroke="#000000" points="8,-295.7 8,-317.7 180,-317.7 180,-295.7 8,-295.7"/>
<text text-anchor="start" x="28" y="-302.8" font-family="Helvetica,sans-Serif" font-size="11.00" fill="#000000">created_at</text>
<polygon fill="#ffffff" stroke="transparent" points="8,-273.7 8,-295.7 180,-295.7 180,-273.7 8,-273.7"/>
<polygon fill="none" stroke="#000000" points="8,-273.7 8,-295.7 180,-295.7 180,-273.7 8,-273.7"/>
<image xlink:href="../../images/foreignKeys.png" width="11px" height="12px" preserveAspectRatio="xMinYMin meet" x="13" y="-290.7"/>
<text text-anchor="start" x="28" y="-280.8" font-family="Helvetica,sans-Serif" font-size="11.00" fill="#000000">obligation_id</text>
<polygon fill="#ffffff" stroke="transparent" points="8,-251.7 8,-273.7 180,-273.7 180,-251.7 8,-251.7"/>
<polygon fill="none" stroke="#000000" points="8,-251.7 8,-273.7 180,-273.7 180,-251.7 8,-251.7"/>
<text text-anchor="start" x="28" y="-258.8" font-family="Helvetica,sans-Serif" font-size="11.00" fill="#000000">settlement_type</text>
<polygon fill="#ffffff" stroke="transparent" points="8,-229.7 8,-251.7 180,-251.7 180,-229.7 8,-229.7"/>
<polygon fill="none" stroke="#000000" points="8,-229.7 8,-251.7 180,-251.7 180,-229.7 8,-229.7"/>
<text text-anchor="start" x="28" y="-236.8" font-family="Helvetica,sans-Serif" font-size="11.00" fill="#000000">ccp_name</text>
<polygon fill="#ffffff" stroke="transparent" points="8,-207.7 8,-229.7 180,-229.7 180,-207.7 8,-207.7"/>
<polygon fill="none" stroke="#000000" points="8,-207.7 8,-229.7 180,-229.7 180,-207.7 8,-207.7"/>
<image xlink:href="../../images/foreignKeys.png" width="11px" height="12px" preserveAspectRatio="xMinYMin meet" x="13" y="-224.7"/>
<text text-anchor="start" x="28" y="-214.8" font-family="Helvetica,sans-Serif" font-size="11.00" fill="#000000">original_trade_id</text>
<polygon fill="#ffffff" stroke="transparent" points="8,-185.7 8,-207.7 180,-207.7 180,-185.7 8,-185.7"/>
<polygon fill="none" stroke="#000000" points="8,-185.7 8,-207.7 180,-207.7 180,-185.7 8,-185.7"/>
<text text-anchor="start" x="28" y="-192.8" font-family="Helvetica,sans-Serif" font-size="11.00" fill="#000000">novation_timestamp</text>
<polygon fill="#ffffff" stroke="transparent" points="8,-163.7 8,-185.7 180,-185.7 180,-163.7 8,-163.7"/>
<polygon fill="none" stroke="#000000" points="8,-163.7 8,-185.7 180,-185.7 180,-163.7 8,-163.7"/>
<text text-anchor="start" x="28" y="-170.8" font-family="Helvetica,sans-Serif" font-size="11.00" fill="#000000">novation_reference</text>
<polygon fill="#ffffff" stroke="transparent" points="8,-141.7 8,-163.7 180,-163.7 180,-141.7 8,-141.7"/>
<polygon fill="none" stroke="#000000" points="8,-141.7 8,-163.7 180,-163.7 180,-141.7 8,-141.7"/>
<text text-anchor="start" x="28" y="-148.8" font-family="Helvetica,sans-Serif" font-size="11.00" fill="#000000">uti</text>
<polygon fill="#ffffff" stroke="transparent" points="8,-119.7 8,-141.7 180,-141.7 180,-119.7 8,-119.7"/>
<polygon fill="none" stroke="#000000" points="8,-119.7 8,-141.7 180,-141.7 180,-119.7 8,-119.7"/>
<text text-anchor="start" x="28" y="-126.8" font-family="Helvetica,sans-Serif" font-size="11.00" fill="#000000">usi</text>
<polygon fill="#ffffff" stroke="transparent" points="8,-97.7 8,-119.7 180,-119.7 180,-97.7 8,-97.7"/>
<polygon fill="none" stroke="#000000" points="8,-97.7 8,-119.7 180,-119.7 180,-97.7 8,-97.7"/>
<text text-anchor="start" x="28" y="-104.8" font-family="Helvetica,sans-Serif" font-size="11.00" fill="#000000">is_cleared</text>
<polygon fill="#ffffff" stroke="transparent" points="8,-75.7 8,-97.7 180,-97.7 180,-75.7 8,-75.7"/>
<polygon fill="none" stroke="#000000" points="8,-75.7 8,-97.7 180,-97.7 180,-75.7 8,-75.7"/>
<text text-anchor="start" x="28" y="-82.8" font-family="Helvetica,sans-Serif" font-size="11.00" fill="#000000">mark_to_market_value</text>
<polygon fill="none" stroke="#000000" points="8,-56.7 8,-75.7 180,-75.7 180,-56.7 8,-56.7"/>
<text text-anchor="start" x="11" y="-62.8" font-family="Helvetica,sans-Serif" font-size="11.00" fill="#000000">...</text>
<polygon fill="#ffffff" stroke="transparent" points="8,-37.7 8,-56.7 85,-56.7 85,-37.7 8,-37.7"/>
<polygon fill="none" stroke="#000000" points="8,-37.7 8,-56.7 85,-56.7 85,-37.7 8,-37.7"/>
<text text-anchor="start" x="11" y="-43.8" font-family="Helvetica,sans-Serif" font-size="11.00" fill="#000000">&lt; 2</text>
<polygon fill="#ffffff" stroke="transparent" points="85,-37.7 85,-56.7 125,-56.7 125,-37.7 85,-37.7"/>
<polygon fill="none" stroke="#000000" points="85,-37.7 85,-56.7 125,-56.7 125,-37.7 85,-37.7"/>
<text text-anchor="start" x="115.8862" y="-43.8" font-family="Helvetica,sans-Serif" font-size="11.00" fill="#000000"> &#160;</text>
<polygon fill="#ffffff" stroke="transparent" points="125,-37.7 125,-56.7 180,-56.7 180,-37.7 125,-37.7"/>
<polygon fill="none" stroke="#000000" points="125,-37.7 125,-56.7 180,-56.7 180,-37.7 125,-37.7"/>
<text text-anchor="start" x="155.2904" y="-43.8" font-family="Helvetica,sans-Serif" font-size="11.00" fill="#000000">13 &gt;</text>
</a>
</g>
</g>
<!-- cds_cash_settlements&#45;&gt;cds_trades -->
<g id="edge2" class="edge">
<title>cds_cash_settlements:w&#45;&gt;cds_trades:e</title>
<path fill="none" stroke="#000000" d="M566.2146,-436.6452C535.0297,-440.887 524.7439,-458.198 487,-463.7 370.0142,-480.7532 323.7523,-522.1676 221,-463.7 189.9958,-446.0581 215.672,-394.7 180,-394.7"/>
<polygon fill="#000000" stroke="#000000" points="573.0163,-436.2104 581.2297,-439.2927 577.0081,-435.9552 581,-435.7 581,-435.7 581,-435.7 577.0081,-435.9552 580.7703,-432.1073 573.0163,-436.2104 573.0163,-436.2104"/>
<ellipse fill="none" stroke="#000000" cx="569.8228" cy="-436.4146" rx="3.2" ry="3.2"/>
</g>
<!-- cds_credit_events&#45;&gt;cds_trades -->
<g id="edge3" class="edge">
<title>cds_credit_events:w&#45;&gt;cds_trades:e</title>
<path fill="none" stroke="#000000" d="M216.276,-394.7C204.2815,-394.7 196.8229,-394.7 180,-394.7"/>
<polygon fill="#000000" stroke="#000000" points="223,-394.7001 231,-398.3 227,-394.7 231,-394.7 231,-394.7 231,-394.7 227,-394.7 231,-391.1 223,-394.7001 223,-394.7001"/>
<ellipse fill="none" stroke="#000000" cx="219.8" cy="-394.7001" rx="3.2" ry="3.2"/>
</g>
<!-- cds_physical_settlement_instructions -->
<g id="node4" class="node">
<title>cds_physical_settlement_instructions</title>
<g id="a_node4"><a xlink:href="../../tables/cds_physical_settlement_instructions.html" xlink:title="cds_physical_settlement_instructions" target="_top">
<polygon fill="#ffffff" stroke="transparent" points="528,-208.2 528,-335.2 818,-335.2 818,-208.2 528,-208.2"/>
<polygon fill="#f5f5f5" stroke="transparent" points="528,-311.7 528,-334.7 818,-334.7 818,-311.7 528,-311.7"/>
<polygon fill="none" stroke="#000000" points="528,-311.7 528,-334.7 818,-334.7 818,-311.7 528,-311.7"/>
<text text-anchor="start" x="533" y="-320.3" font-family="Helvetica,sans-Serif" font-weight="bold" font-size="11.00" fill="#000000">cds_physical_settlement_instructions</text>
<text text-anchor="start" x="783.5219" y="-319.8" font-family="Helvetica,sans-Serif" font-size="11.00" fill="#000000">[table]</text>
<polygon fill="none" stroke="#000000" points="528,-289.7 528,-311.7 818,-311.7 818,-289.7 528,-289.7"/>
<image xlink:href="../../images/primaryKeys.png" width="11px" height="12px" preserveAspectRatio="xMinYMin meet" x="533" y="-306.7"/>
<text text-anchor="start" x="557" y="-296.8" font-family="Helvetica,sans-Serif" font-size="11.00" fill="#000000">id</text>
<polygon fill="#ffffff" stroke="transparent" points="528,-267.7 528,-289.7 818,-289.7 818,-267.7 528,-267.7"/>
<polygon fill="none" stroke="#000000" points="528,-267.7 528,-289.7 818,-289.7 818,-267.7 528,-267.7"/>
<image xlink:href="../../images/foreignKeys.png" width="11px" height="12px" preserveAspectRatio="xMinYMin meet" x="533" y="-284.7"/>
<text text-anchor="start" x="557" y="-274.8" font-family="Helvetica,sans-Serif" font-size="11.00" fill="#000000">credit_event_id</text>
<polygon fill="#ffffff" stroke="transparent" points="528,-245.7 528,-267.7 818,-267.7 818,-245.7 528,-245.7"/>
<polygon fill="none" stroke="#000000" points="528,-245.7 528,-267.7 818,-267.7 818,-245.7 528,-245.7"/>
<image xlink:href="../../images/foreignKeys.png" width="11px" height="12px" preserveAspectRatio="xMinYMin meet" x="533" y="-262.7"/>
<text text-anchor="start" x="557" y="-252.8" font-family="Helvetica,sans-Serif" font-size="11.00" fill="#000000">trade_id</text>
<polygon fill="none" stroke="#000000" points="528,-226.7 528,-245.7 818,-245.7 818,-226.7 528,-226.7"/>
<text text-anchor="start" x="531" y="-232.8" font-family="Helvetica,sans-Serif" font-size="11.00" fill="#000000">...</text>
<polygon fill="#ffffff" stroke="transparent" points="528,-207.7 528,-226.7 671,-226.7 671,-207.7 528,-207.7"/>
<polygon fill="none" stroke="#000000" points="528,-207.7 528,-226.7 671,-226.7 671,-207.7 528,-207.7"/>
<text text-anchor="start" x="531" y="-213.8" font-family="Helvetica,sans-Serif" font-size="11.00" fill="#000000">&lt; 2</text>
<polygon fill="#ffffff" stroke="transparent" points="671,-207.7 671,-226.7 744,-226.7 744,-207.7 671,-207.7"/>
<polygon fill="none" stroke="#000000" points="671,-207.7 671,-226.7 744,-226.7 744,-207.7 671,-207.7"/>
<text text-anchor="start" x="734.8862" y="-213.8" font-family="Helvetica,sans-Serif" font-size="11.00" fill="#000000"> &#160;</text>
<polygon fill="#ffffff" stroke="transparent" points="744,-207.7 744,-226.7 818,-226.7 818,-207.7 744,-207.7"/>
<polygon fill="none" stroke="#000000" points="744,-207.7 744,-226.7 818,-226.7 818,-207.7 744,-207.7"/>
<text text-anchor="start" x="808.8862" y="-213.8" font-family="Helvetica,sans-Serif" font-size="11.00" fill="#000000"> &#160;</text>
</a>
</g>
</g>
<!-- cds_physical_settlement_instructions&#45;&gt;cds_credit_events -->
<g id="edge4" class="edge">
<title>cds_physical_settlement_instructions:w&#45;&gt;cds_credit_events:e</title>
<path fill="none" stroke="#000000" d="M517.655,-280.1564C471.7404,-294.905 538.4287,-416.7 477,-416.7"/>
<polygon fill="#000000" stroke="#000000" points="526.6501,-274.8506 527.7655,-282.7725 526.1811,-282.9955 525.0658,-275.0737 526.6501,-274.8506"/>
<polyline fill="none" stroke="#000000" points="528,-278.7 524.0391,-279.2577 "/>
<ellipse fill="none" stroke="#000000" cx="520.8703" cy="-279.7038" rx="3.2" ry="3.2"/>
</g>
<!-- cds_physical_settlement_instructions&#45;&gt;cds_trades -->
<g id="edge5" class="edge">
<title>cds_physical_settlement_instructions:w&#45;&gt;cds_trades:e</title>
<path fill="none" stroke="#000000" d="M514.1619,-251.9246C502.0647,-240.2291 509.3394,-210.2657 487,-198.7 382.0137,-144.3458 312.7557,-124.1521 221,-198.7 151.9272,-254.819 268.9966,-394.7 180,-394.7"/>
<polygon fill="#000000" stroke="#000000" points="520.4376,-254.0903 526.8256,-260.1031 524.2188,-255.3951 528,-256.7 528,-256.7 528,-256.7 524.2188,-255.3951 529.1744,-253.2969 520.4376,-254.0903 520.4376,-254.0903"/>
<ellipse fill="none" stroke="#000000" cx="517.4127" cy="-253.0464" rx="3.2" ry="3.2"/>
</g>
</g>
</svg>
