<?xml version="1.0" encoding="UTF-8" standalone="no"?>
<!DOCTYPE svg PUBLIC "-//W3C//DTD SVG 1.1//EN"
 "http://www.w3.org/Graphics/SVG/1.1/DTD/svg11.dtd">
<!-- Generated by graphviz version 2.40.1 (20161225.0304)
 -->
<!-- Title: twoDegreesRelationshipsDiagram Pages: 1 -->
<svg width="885pt" height="811pt"
 viewBox="0.00 0.00 885.00 811.20" xmlns="http://www.w3.org/2000/svg" xmlns:xlink="http://www.w3.org/1999/xlink">
<g id="graph0" class="graph" transform="scale(1 1) rotate(0) translate(4 807.2)">
<title>twoDegreesRelationshipsDiagram</title>
<polygon fill="#ffffff" stroke="transparent" points="-4,4 -4,-807.2 881,-807.2 881,4 -4,4"/>
<text text-anchor="middle" x="72.4936" y="-7.3" font-family="Helvetica,sans-Serif" font-size="11.00" fill="#000000">Generated by SchemaSpy</text>
<!-- accrual_events -->
<g id="node1" class="node">
<title>accrual_events</title>
<g id="a_node1"><a xlink:href="../../tables/accrual_events.html" xlink:title="accrual_events" target="_top">
<polygon fill="#ffffff" stroke="transparent" points="654.5,-738.2 654.5,-799.2 793.5,-799.2 793.5,-738.2 654.5,-738.2"/>
<polygon fill="#f5f5f5" stroke="transparent" points="655,-775.7 655,-798.7 794,-798.7 794,-775.7 655,-775.7"/>
<polygon fill="none" stroke="#000000" points="655,-775.7 655,-798.7 794,-798.7 794,-775.7 655,-775.7"/>
<text text-anchor="start" x="660" y="-784.3" font-family="Helvetica,sans-Serif" font-weight="bold" font-size="11.00" fill="#000000">accrual_events</text>
<text text-anchor="start" x="759.5219" y="-783.8" font-family="Helvetica,sans-Serif" font-size="11.00" fill="#000000">[table]</text>
<polygon fill="none" stroke="#000000" points="655,-756.7 655,-775.7 794,-775.7 794,-756.7 655,-756.7"/>
<text text-anchor="start" x="658" y="-762.8" font-family="Helvetica,sans-Serif" font-size="11.00" fill="#000000">...</text>
<polygon fill="#ffffff" stroke="transparent" points="655,-737.7 655,-756.7 723,-756.7 723,-737.7 655,-737.7"/>
<polygon fill="none" stroke="#000000" points="655,-737.7 655,-756.7 723,-756.7 723,-737.7 655,-737.7"/>
<text text-anchor="start" x="658" y="-743.8" font-family="Helvetica,sans-Serif" font-size="11.00" fill="#000000">&lt; 2</text>
<polygon fill="#ffffff" stroke="transparent" points="723,-737.7 723,-756.7 758,-756.7 758,-737.7 723,-737.7"/>
<polygon fill="none" stroke="#000000" points="723,-737.7 723,-756.7 758,-756.7 758,-737.7 723,-737.7"/>
<text text-anchor="start" x="748.8862" y="-743.8" font-family="Helvetica,sans-Serif" font-size="11.00" fill="#000000"> &#160;</text>
<polygon fill="#ffffff" stroke="transparent" points="758,-737.7 758,-756.7 794,-756.7 794,-737.7 758,-737.7"/>
<polygon fill="none" stroke="#000000" points="758,-737.7 758,-756.7 794,-756.7 794,-737.7 758,-737.7"/>
<text text-anchor="start" x="784.8862" y="-743.8" font-family="Helvetica,sans-Serif" font-size="11.00" fill="#000000"> &#160;</text>
</a>
</g>
</g>
<!-- coupon_periods -->
<g id="node2" class="node">
<title>coupon_periods</title>
<g id="a_node2"><a xlink:href="../../tables/coupon_periods.html" xlink:title="coupon_periods" target="_top">
<polygon fill="#ffffff" stroke="transparent" points="341,-732.2 341,-793.2 486,-793.2 486,-732.2 341,-732.2"/>
<polygon fill="#f5f5f5" stroke="transparent" points="341.5,-769.7 341.5,-792.7 486.5,-792.7 486.5,-769.7 341.5,-769.7"/>
<polygon fill="none" stroke="#000000" points="341.5,-769.7 341.5,-792.7 486.5,-792.7 486.5,-769.7 341.5,-769.7"/>
<text text-anchor="start" x="346.5" y="-778.3" font-family="Helvetica,sans-Serif" font-weight="bold" font-size="11.00" fill="#000000">coupon_periods</text>
<text text-anchor="start" x="452.0219" y="-777.8" font-family="Helvetica,sans-Serif" font-size="11.00" fill="#000000">[table]</text>
<polygon fill="none" stroke="#000000" points="341.5,-750.7 341.5,-769.7 486.5,-769.7 486.5,-750.7 341.5,-750.7"/>
<text text-anchor="start" x="344.5" y="-756.8" font-family="Helvetica,sans-Serif" font-size="11.00" fill="#000000">...</text>
<polygon fill="#ffffff" stroke="transparent" points="341.5,-731.7 341.5,-750.7 407.5,-750.7 407.5,-731.7 341.5,-731.7"/>
<polygon fill="none" stroke="#000000" points="341.5,-731.7 341.5,-750.7 407.5,-750.7 407.5,-731.7 341.5,-731.7"/>
<text text-anchor="start" x="344.5" y="-737.8" font-family="Helvetica,sans-Serif" font-size="11.00" fill="#000000">&lt; 1</text>
<polygon fill="#ffffff" stroke="transparent" points="407.5,-731.7 407.5,-750.7 442.5,-750.7 442.5,-731.7 407.5,-731.7"/>
<polygon fill="none" stroke="#000000" points="407.5,-731.7 407.5,-750.7 442.5,-750.7 442.5,-731.7 407.5,-731.7"/>
<text text-anchor="start" x="433.3862" y="-737.8" font-family="Helvetica,sans-Serif" font-size="11.00" fill="#000000"> &#160;</text>
<polygon fill="#ffffff" stroke="transparent" points="442.5,-731.7 442.5,-750.7 486.5,-750.7 486.5,-731.7 442.5,-731.7"/>
<polygon fill="none" stroke="#000000" points="442.5,-731.7 442.5,-750.7 486.5,-750.7 486.5,-731.7 442.5,-731.7"/>
<text text-anchor="start" x="467.9053" y="-737.8" font-family="Helvetica,sans-Serif" font-size="11.00" fill="#000000">1 &gt;</text>
</a>
</g>
</g>
<!-- accrual_events&#45;&gt;coupon_periods -->
<g id="edge1" class="edge">
<title>accrual_events:w&#45;&gt;coupon_periods:e</title>
<path fill="none" stroke="#000000" d="M640.3856,-765.6197C577.2538,-764.9077 556.3137,-759.7 486.5,-759.7"/>
<polygon fill="#000000" stroke="#000000" points="647.0001,-765.656 654.9802,-769.2999 651.0001,-765.678 655,-765.7 655,-765.7 655,-765.7 651.0001,-765.678 655.0198,-762.1001 647.0001,-765.656 647.0001,-765.656"/>
<ellipse fill="none" stroke="#000000" cx="643.8002" cy="-765.6384" rx="3.2" ry="3.2"/>
</g>
<!-- cds_trades -->
<g id="node3" class="node">
<title>cds_trades</title>
<g id="a_node3"><a xlink:href="../../tables/cds_trades.html" xlink:title="cds_trades" target="_top">
<polygon fill="#ffffff" stroke="transparent" points="137,-404.2 137,-465.2 248,-465.2 248,-404.2 137,-404.2"/>
<polygon fill="#f5f5f5" stroke="transparent" points="137.5,-441.7 137.5,-464.7 248.5,-464.7 248.5,-441.7 137.5,-441.7"/>
<polygon fill="none" stroke="#000000" points="137.5,-441.7 137.5,-464.7 248.5,-464.7 248.5,-441.7 137.5,-441.7"/>
<text text-anchor="start" x="142.5" y="-450.3" font-family="Helvetica,sans-Serif" font-weight="bold" font-size="11.00" fill="#000000">cds_trades</text>
<text text-anchor="start" x="214.0219" y="-449.8" font-family="Helvetica,sans-Serif" font-size="11.00" fill="#000000">[table]</text>
<polygon fill="none" stroke="#000000" points="137.5,-422.7 137.5,-441.7 248.5,-441.7 248.5,-422.7 137.5,-422.7"/>
<text text-anchor="start" x="140.5" y="-428.8" font-family="Helvetica,sans-Serif" font-size="11.00" fill="#000000">...</text>
<polygon fill="#ffffff" stroke="transparent" points="137.5,-403.7 137.5,-422.7 183.5,-422.7 183.5,-403.7 137.5,-403.7"/>
<polygon fill="none" stroke="#000000" points="137.5,-403.7 137.5,-422.7 183.5,-422.7 183.5,-403.7 137.5,-403.7"/>
<text text-anchor="start" x="140.5" y="-409.8" font-family="Helvetica,sans-Serif" font-size="11.00" fill="#000000">&lt; 2</text>
<polygon fill="#ffffff" stroke="transparent" points="183.5,-403.7 183.5,-422.7 208.5,-422.7 208.5,-403.7 183.5,-403.7"/>
<polygon fill="none" stroke="#000000" points="183.5,-403.7 183.5,-422.7 208.5,-422.7 208.5,-403.7 183.5,-403.7"/>
<text text-anchor="start" x="199.3862" y="-409.8" font-family="Helvetica,sans-Serif" font-size="11.00" fill="#000000"> &#160;</text>
<polygon fill="#ffffff" stroke="transparent" points="208.5,-403.7 208.5,-422.7 248.5,-422.7 248.5,-403.7 208.5,-403.7"/>
<polygon fill="none" stroke="#000000" points="208.5,-403.7 208.5,-422.7 248.5,-422.7 248.5,-403.7 208.5,-403.7"/>
<text text-anchor="start" x="223.7904" y="-409.8" font-family="Helvetica,sans-Serif" font-size="11.00" fill="#000000">13 &gt;</text>
</a>
</g>
</g>
<!-- accrual_events&#45;&gt;cds_trades -->
<g id="edge2" class="edge">
<title>accrual_events:w&#45;&gt;cds_trades:e</title>
<path fill="none" stroke="#000000" d="M640.5404,-765.0142C597.4609,-760.6943 585.9852,-736.9402 538,-721.7 428.9907,-687.0784 375.8831,-731.0842 289,-656.7 231.8562,-607.7769 207.4449,-518.7323 197.9298,-469.5926"/>
<polygon fill="#000000" stroke="#000000" points="647.009,-765.3209 654.8294,-769.296 651.0045,-765.5105 655,-765.7 655,-765.7 655,-765.7 651.0045,-765.5105 655.1706,-762.104 647.009,-765.3209 647.009,-765.3209"/>
<ellipse fill="none" stroke="#000000" cx="643.8126" cy="-765.1693" rx="3.2" ry="3.2"/>
</g>
<!-- coupon_periods&#45;&gt;cds_trades -->
<g id="edge11" class="edge">
<title>coupon_periods:w&#45;&gt;cds_trades:e</title>
<path fill="none" stroke="#000000" d="M327.155,-756.2531C269.712,-728.9706 219.5973,-546.9355 200.6089,-469.4807"/>
<polygon fill="#000000" stroke="#000000" points="333.7214,-757.8309 340.6589,-763.2004 337.6107,-758.7654 341.5,-759.7 341.5,-759.7 341.5,-759.7 337.6107,-758.7654 342.3411,-756.1996 333.7214,-757.8309 333.7214,-757.8309"/>
<ellipse fill="none" stroke="#000000" cx="330.61" cy="-757.0832" rx="3.2" ry="3.2"/>
</g>
<!-- bonds -->
<g id="node8" class="node">
<title>bonds</title>
<g id="a_node8"><a xlink:href="../../tables/bonds.html" xlink:title="bonds" target="_top">
<polygon fill="#ffffff" stroke="transparent" points="8,-407.2 8,-468.2 88,-468.2 88,-407.2 8,-407.2"/>
<polygon fill="#f5f5f5" stroke="transparent" points="8,-444.7 8,-467.7 88,-467.7 88,-444.7 8,-444.7"/>
<polygon fill="none" stroke="#000000" points="8,-444.7 8,-467.7 88,-467.7 88,-444.7 8,-444.7"/>
<text text-anchor="start" x="13" y="-453.3" font-family="Helvetica,sans-Serif" font-weight="bold" font-size="11.00" fill="#000000">bonds</text>
<text text-anchor="start" x="53.5219" y="-452.8" font-family="Helvetica,sans-Serif" font-size="11.00" fill="#000000">[table]</text>
<polygon fill="none" stroke="#000000" points="8,-425.7 8,-444.7 88,-444.7 88,-425.7 8,-425.7"/>
<text text-anchor="start" x="11" y="-431.8" font-family="Helvetica,sans-Serif" font-size="11.00" fill="#000000">...</text>
<polygon fill="#ffffff" stroke="transparent" points="8,-406.7 8,-425.7 37,-425.7 37,-406.7 8,-406.7"/>
<polygon fill="none" stroke="#000000" points="8,-406.7 8,-425.7 37,-425.7 37,-406.7 8,-406.7"/>
<text text-anchor="start" x="11" y="-412.8" font-family="Helvetica,sans-Serif" font-size="11.00" fill="#000000"> &#160;</text>
<polygon fill="#ffffff" stroke="transparent" points="37,-406.7 37,-425.7 58,-425.7 58,-406.7 37,-406.7"/>
<polygon fill="none" stroke="#000000" points="37,-406.7 37,-425.7 58,-425.7 58,-406.7 37,-406.7"/>
<text text-anchor="start" x="48.8862" y="-412.8" font-family="Helvetica,sans-Serif" font-size="11.00" fill="#000000"> &#160;</text>
<polygon fill="#ffffff" stroke="transparent" points="58,-406.7 58,-425.7 88,-425.7 88,-406.7 58,-406.7"/>
<polygon fill="none" stroke="#000000" points="58,-406.7 58,-425.7 88,-425.7 88,-406.7 58,-406.7"/>
<text text-anchor="start" x="69.4053" y="-412.8" font-family="Helvetica,sans-Serif" font-size="11.00" fill="#000000">2 &gt;</text>
</a>
</g>
</g>
<!-- cds_trades&#45;&gt;bonds -->
<g id="edge9" class="edge">
<title>cds_trades:w&#45;&gt;bonds:e</title>
<path fill="none" stroke="#000000" d="M114.5141,-434.7C105.5727,-434.7 96.5879,-434.7 88,-434.7"/>
<polygon fill="#000000" stroke="#000000" points="120.9488,-434.7001 128.9489,-438.3 124.9488,-434.7 128.9488,-434.7 128.9488,-434.7 128.9488,-434.7 124.9488,-434.7 128.9488,-431.1 120.9488,-434.7001 120.9488,-434.7001"/>
<ellipse fill="none" stroke="#000000" cx="117.7488" cy="-434.7001" rx="3.2" ry="3.2"/>
</g>
<!-- cds_cash_settlements -->
<g id="node4" class="node">
<title>cds_cash_settlements</title>
<g id="a_node4"><a xlink:href="../../tables/cds_cash_settlements.html" xlink:title="cds_cash_settlements" target="_top">
<polygon fill="#ffffff" stroke="transparent" points="591.5,-516.7 591.5,-716.7 856.5,-716.7 856.5,-516.7 591.5,-516.7"/>
<polygon fill="#f5f5f5" stroke="transparent" points="594,-691.7 594,-714.7 855,-714.7 855,-691.7 594,-691.7"/>
<polygon fill="none" stroke="#000000" points="594,-691.7 594,-714.7 855,-714.7 855,-691.7 594,-691.7"/>
<text text-anchor="start" x="599" y="-700.3" font-family="Helvetica,sans-Serif" font-weight="bold" font-size="11.00" fill="#000000">cds_cash_settlements</text>
<text text-anchor="start" x="820.0437" y="-699.8" font-family="Helvetica,sans-Serif" font-size="11.00" fill="#000000">[table]</text>
<polygon fill="none" stroke="#000000" points="594,-669.7 594,-691.7 761,-691.7 761,-669.7 594,-669.7"/>
<image xlink:href="../../images/primaryKeys.png" width="11px" height="12px" preserveAspectRatio="xMinYMin meet" x="599" y="-686.7"/>
<text text-anchor="start" x="614" y="-676.8" font-family="Helvetica,sans-Serif" font-size="11.00" fill="#000000">id</text>
<polygon fill="none" stroke="#000000" points="761,-669.7 761,-691.7 855,-691.7 855,-669.7 761,-669.7"/>
<text text-anchor="start" x="763.9758" y="-677.4" font-family="Helvetica,sans-Serif" font-size="11.00" fill="#000000">uuid[2147483647]</text>
<polygon fill="#ffffff" stroke="transparent" points="594,-647.7 594,-669.7 761,-669.7 761,-647.7 594,-647.7"/>
<polygon fill="none" stroke="#000000" points="594,-647.7 594,-669.7 761,-669.7 761,-647.7 594,-647.7"/>
<image xlink:href="../../images/foreignKeys.png" width="11px" height="12px" preserveAspectRatio="xMinYMin meet" x="599" y="-664.7"/>
<text text-anchor="start" x="614" y="-654.8" font-family="Helvetica,sans-Serif" font-size="11.00" fill="#000000">credit_event_id</text>
<polygon fill="none" stroke="#000000" points="761,-647.7 761,-669.7 855,-669.7 855,-647.7 761,-647.7"/>
<text text-anchor="start" x="763.9758" y="-655.4" font-family="Helvetica,sans-Serif" font-size="11.00" fill="#000000">uuid[2147483647]</text>
<polygon fill="#ffffff" stroke="transparent" points="594,-625.7 594,-647.7 761,-647.7 761,-625.7 594,-625.7"/>
<polygon fill="none" stroke="#000000" points="594,-625.7 594,-647.7 761,-647.7 761,-625.7 594,-625.7"/>
<image xlink:href="../../images/foreignKeys.png" width="11px" height="12px" preserveAspectRatio="xMinYMin meet" x="599" y="-642.7"/>
<text text-anchor="start" x="614" y="-632.8" font-family="Helvetica,sans-Serif" font-size="11.00" fill="#000000">trade_id</text>
<polygon fill="none" stroke="#000000" points="761,-625.7 761,-647.7 855,-647.7 855,-625.7 761,-625.7"/>
<text text-anchor="start" x="764" y="-633.4" font-family="Helvetica,sans-Serif" font-size="11.00" fill="#000000">int8[19]</text>
<polygon fill="none" stroke="#000000" points="594,-603.7 594,-625.7 761,-625.7 761,-603.7 594,-603.7"/>
<text text-anchor="start" x="614" y="-610.8" font-family="Helvetica,sans-Serif" font-size="11.00" fill="#000000">notional</text>
<polygon fill="none" stroke="#000000" points="761,-603.7 761,-625.7 855,-625.7 855,-603.7 761,-603.7"/>
<text text-anchor="start" x="764" y="-611.4" font-family="Helvetica,sans-Serif" font-size="11.00" fill="#000000">numeric[15,2]</text>
<polygon fill="none" stroke="#000000" points="594,-581.7 594,-603.7 761,-603.7 761,-581.7 594,-581.7"/>
<text text-anchor="start" x="614" y="-588.8" font-family="Helvetica,sans-Serif" font-size="11.00" fill="#000000">recovery_rate</text>
<polygon fill="none" stroke="#000000" points="761,-581.7 761,-603.7 855,-603.7 855,-581.7 761,-581.7"/>
<text text-anchor="start" x="764" y="-589.4" font-family="Helvetica,sans-Serif" font-size="11.00" fill="#000000">numeric[5,4]</text>
<polygon fill="none" stroke="#000000" points="594,-559.7 594,-581.7 761,-581.7 761,-559.7 594,-559.7"/>
<text text-anchor="start" x="614" y="-566.8" font-family="Helvetica,sans-Serif" font-size="11.00" fill="#000000">payout_amount</text>
<polygon fill="none" stroke="#000000" points="761,-559.7 761,-581.7 855,-581.7 855,-559.7 761,-559.7"/>
<text text-anchor="start" x="764" y="-567.4" font-family="Helvetica,sans-Serif" font-size="11.00" fill="#000000">numeric[15,2]</text>
<polygon fill="none" stroke="#000000" points="594,-537.7 594,-559.7 761,-559.7 761,-537.7 594,-537.7"/>
<text text-anchor="start" x="614" y="-544.8" font-family="Helvetica,sans-Serif" font-size="11.00" fill="#000000">calculated_at</text>
<polygon fill="none" stroke="#000000" points="761,-537.7 761,-559.7 855,-559.7 855,-537.7 761,-537.7"/>
<text text-anchor="start" x="764" y="-545.4" font-family="Helvetica,sans-Serif" font-size="11.00" fill="#000000">timestamp[29,6]</text>
<polygon fill="#ffffff" stroke="transparent" points="594,-518.7 594,-537.7 682,-537.7 682,-518.7 594,-518.7"/>
<polygon fill="none" stroke="#000000" points="594,-518.7 594,-537.7 682,-537.7 682,-518.7 594,-518.7"/>
<text text-anchor="start" x="597" y="-524.8" font-family="Helvetica,sans-Serif" font-size="11.00" fill="#000000">&lt; 2</text>
<polygon fill="#ffffff" stroke="transparent" points="682,-518.7 682,-537.7 761,-537.7 761,-518.7 682,-518.7"/>
<polygon fill="none" stroke="#000000" points="682,-518.7 682,-537.7 761,-537.7 761,-518.7 682,-518.7"/>
<text text-anchor="start" x="751.8862" y="-524.8" font-family="Helvetica,sans-Serif" font-size="11.00" fill="#000000"> &#160;</text>
<polygon fill="#ffffff" stroke="transparent" points="761,-518.7 761,-537.7 855,-537.7 855,-518.7 761,-518.7"/>
<polygon fill="none" stroke="#000000" points="761,-518.7 761,-537.7 855,-537.7 855,-518.7 761,-518.7"/>
<text text-anchor="start" x="836.4053" y="-524.8" font-family="Helvetica,sans-Serif" font-size="11.00" fill="#000000">0 &gt;</text>
<polygon fill="none" stroke="#000000" stroke-width="2" points="592.5,-517.7 592.5,-715.7 855.5,-715.7 855.5,-517.7 592.5,-517.7"/>
</a>
</g>
</g>
<!-- cds_cash_settlements&#45;&gt;cds_trades -->
<g id="edge4" class="edge">
<title>cds_cash_settlements:w&#45;&gt;cds_trades:e</title>
<path fill="none" stroke="#000000" d="M579.2305,-636.9615C454.2418,-641.3955 399.1218,-699.8354 289,-629.7 232.9266,-593.9875 208.3428,-515.2117 198.4539,-469.4644"/>
<polygon fill="#000000" stroke="#000000" points="586.0013,-636.8417 594.0638,-640.2994 590.0006,-636.7709 594,-636.7 594,-636.7 594,-636.7 590.0006,-636.7709 593.9362,-633.1006 586.0013,-636.8417 586.0013,-636.8417"/>
<ellipse fill="none" stroke="#000000" cx="582.8018" cy="-636.8984" rx="3.2" ry="3.2"/>
</g>
<!-- cds_credit_events -->
<g id="node5" class="node">
<title>cds_credit_events</title>
<g id="a_node5"><a xlink:href="../../tables/cds_credit_events.html" xlink:title="cds_credit_events" target="_top">
<polygon fill="#ffffff" stroke="transparent" points="334.5,-558.2 334.5,-619.2 492.5,-619.2 492.5,-558.2 334.5,-558.2"/>
<polygon fill="#f5f5f5" stroke="transparent" points="334.5,-595.7 334.5,-618.7 492.5,-618.7 492.5,-595.7 334.5,-595.7"/>
<polygon fill="none" stroke="#000000" points="334.5,-595.7 334.5,-618.7 492.5,-618.7 492.5,-595.7 334.5,-595.7"/>
<text text-anchor="start" x="339.5" y="-604.3" font-family="Helvetica,sans-Serif" font-weight="bold" font-size="11.00" fill="#000000">cds_credit_events</text>
<text text-anchor="start" x="458.0219" y="-603.8" font-family="Helvetica,sans-Serif" font-size="11.00" fill="#000000">[table]</text>
<polygon fill="none" stroke="#000000" points="334.5,-576.7 334.5,-595.7 492.5,-595.7 492.5,-576.7 334.5,-576.7"/>
<text text-anchor="start" x="337.5" y="-582.8" font-family="Helvetica,sans-Serif" font-size="11.00" fill="#000000">...</text>
<polygon fill="#ffffff" stroke="transparent" points="334.5,-557.7 334.5,-576.7 407.5,-576.7 407.5,-557.7 334.5,-557.7"/>
<polygon fill="none" stroke="#000000" points="334.5,-557.7 334.5,-576.7 407.5,-576.7 407.5,-557.7 334.5,-557.7"/>
<text text-anchor="start" x="337.5" y="-563.8" font-family="Helvetica,sans-Serif" font-size="11.00" fill="#000000">&lt; 1</text>
<polygon fill="#ffffff" stroke="transparent" points="407.5,-557.7 407.5,-576.7 445.5,-576.7 445.5,-557.7 407.5,-557.7"/>
<polygon fill="none" stroke="#000000" points="407.5,-557.7 407.5,-576.7 445.5,-576.7 445.5,-557.7 407.5,-557.7"/>
<text text-anchor="start" x="436.3862" y="-563.8" font-family="Helvetica,sans-Serif" font-size="11.00" fill="#000000"> &#160;</text>
<polygon fill="#ffffff" stroke="transparent" points="445.5,-557.7 445.5,-576.7 492.5,-576.7 492.5,-557.7 445.5,-557.7"/>
<polygon fill="none" stroke="#000000" points="445.5,-557.7 445.5,-576.7 492.5,-576.7 492.5,-557.7 445.5,-557.7"/>
<text text-anchor="start" x="473.9053" y="-563.8" font-family="Helvetica,sans-Serif" font-size="11.00" fill="#000000">2 &gt;</text>
</a>
</g>
</g>
<!-- cds_cash_settlements&#45;&gt;cds_credit_events -->
<g id="edge3" class="edge">
<title>cds_cash_settlements:w&#45;&gt;cds_credit_events:e</title>
<path fill="none" stroke="#000000" d="M583.2858,-657.7849C565.2341,-654.4063 559.5258,-642.3816 538,-633.7 525.9571,-628.843 513.1656,-623.9379 500.5426,-619.2426"/>
<polygon fill="#000000" stroke="#000000" points="593.5433,-654.6464 592.8625,-662.6174 591.2683,-662.4812 591.9492,-654.5102 593.5433,-654.6464"/>
<polyline fill="none" stroke="#000000" points="594,-658.7 590.0145,-658.3596 "/>
<ellipse fill="none" stroke="#000000" cx="586.8261" cy="-658.0872" rx="3.2" ry="3.2"/>
</g>
<!-- cds_credit_events&#45;&gt;cds_trades -->
<g id="edge5" class="edge">
<title>cds_credit_events:w&#45;&gt;cds_trades:e</title>
<path fill="none" stroke="#000000" d="M313.0125,-557.4863C304.6159,-553.3679 296.4868,-548.7836 289,-543.7 259.7266,-523.8234 233.6105,-493.0879 215.9533,-469.315"/>
<polygon fill="#000000" stroke="#000000" points="319.0947,-560.26 324.8799,-566.8549 322.7342,-561.9197 326.3736,-563.5794 326.3736,-563.5794 326.3736,-563.5794 322.7342,-561.9197 327.8673,-560.304 319.0947,-560.26 319.0947,-560.26"/>
<ellipse fill="none" stroke="#000000" cx="316.1832" cy="-558.9322" rx="3.2" ry="3.2"/>
</g>
<!-- cds_physical_settlement_instructions -->
<g id="node6" class="node">
<title>cds_physical_settlement_instructions</title>
<g id="a_node6"><a xlink:href="../../tables/cds_physical_settlement_instructions.html" xlink:title="cds_physical_settlement_instructions" target="_top">
<polygon fill="#ffffff" stroke="transparent" points="579,-434.2 579,-495.2 869,-495.2 869,-434.2 579,-434.2"/>
<polygon fill="#f5f5f5" stroke="transparent" points="579,-471.7 579,-494.7 869,-494.7 869,-471.7 579,-471.7"/>
<polygon fill="none" stroke="#000000" points="579,-471.7 579,-494.7 869,-494.7 869,-471.7 579,-471.7"/>
<text text-anchor="start" x="584" y="-480.3" font-family="Helvetica,sans-Serif" font-weight="bold" font-size="11.00" fill="#000000">cds_physical_settlement_instructions</text>
<text text-anchor="start" x="834.5219" y="-479.8" font-family="Helvetica,sans-Serif" font-size="11.00" fill="#000000">[table]</text>
<polygon fill="none" stroke="#000000" points="579,-452.7 579,-471.7 869,-471.7 869,-452.7 579,-452.7"/>
<text text-anchor="start" x="582" y="-458.8" font-family="Helvetica,sans-Serif" font-size="11.00" fill="#000000">...</text>
<polygon fill="#ffffff" stroke="transparent" points="579,-433.7 579,-452.7 722,-452.7 722,-433.7 579,-433.7"/>
<polygon fill="none" stroke="#000000" points="579,-433.7 579,-452.7 722,-452.7 722,-433.7 579,-433.7"/>
<text text-anchor="start" x="582" y="-439.8" font-family="Helvetica,sans-Serif" font-size="11.00" fill="#000000">&lt; 2</text>
<polygon fill="#ffffff" stroke="transparent" points="722,-433.7 722,-452.7 795,-452.7 795,-433.7 722,-433.7"/>
<polygon fill="none" stroke="#000000" points="722,-433.7 722,-452.7 795,-452.7 795,-433.7 722,-433.7"/>
<text text-anchor="start" x="785.8862" y="-439.8" font-family="Helvetica,sans-Serif" font-size="11.00" fill="#000000"> &#160;</text>
<polygon fill="#ffffff" stroke="transparent" points="795,-433.7 795,-452.7 869,-452.7 869,-433.7 795,-433.7"/>
<polygon fill="none" stroke="#000000" points="795,-433.7 795,-452.7 869,-452.7 869,-433.7 795,-433.7"/>
<text text-anchor="start" x="859.8862" y="-439.8" font-family="Helvetica,sans-Serif" font-size="11.00" fill="#000000"> &#160;</text>
</a>
</g>
</g>
<!-- cds_physical_settlement_instructions&#45;&gt;cds_trades -->
<g id="edge7" class="edge">
<title>cds_physical_settlement_instructions:w&#45;&gt;cds_trades:e</title>
<path fill="none" stroke="#000000" d="M565.1619,-466.4754C553.0647,-478.1709 560.3394,-508.1343 538,-519.7 488.8617,-545.1402 340.7656,-539.2474 289,-519.7 262.2654,-509.6046 238.1404,-488.3546 220.6991,-469.6285"/>
<polygon fill="#000000" stroke="#000000" points="571.4376,-464.3097 580.1744,-465.1031 575.2188,-463.0049 579,-461.7 579,-461.7 579,-461.7 575.2188,-463.0049 577.8256,-458.2969 571.4376,-464.3097 571.4376,-464.3097"/>
<ellipse fill="none" stroke="#000000" cx="568.4127" cy="-465.3536" rx="3.2" ry="3.2"/>
</g>
<!-- cds_physical_settlement_instructions&#45;&gt;cds_credit_events -->
<g id="edge6" class="edge">
<title>cds_physical_settlement_instructions:w&#45;&gt;cds_credit_events:e</title>
<path fill="none" stroke="#000000" d="M568.6425,-463.3128C543.7609,-472.5683 565.3525,-519.3695 538,-543.7 527.1813,-553.3234 514.1475,-560.9355 500.644,-566.9436"/>
<polygon fill="#000000" stroke="#000000" points="577.5941,-457.8707 578.825,-465.7755 577.244,-466.0216 576.0131,-458.1169 577.5941,-457.8707"/>
<polyline fill="none" stroke="#000000" points="579,-461.7 575.0476,-462.3155 "/>
<ellipse fill="none" stroke="#000000" cx="571.8857" cy="-462.8078" rx="3.2" ry="3.2"/>
</g>
<!-- cds_portfolio_constituents -->
<g id="node7" class="node">
<title>cds_portfolio_constituents</title>
<g id="a_node7"><a xlink:href="../../tables/cds_portfolio_constituents.html" xlink:title="cds_portfolio_constituents" target="_top">
<polygon fill="#ffffff" stroke="transparent" points="305,-448.2 305,-509.2 522,-509.2 522,-448.2 305,-448.2"/>
<polygon fill="#f5f5f5" stroke="transparent" points="305.5,-485.7 305.5,-508.7 522.5,-508.7 522.5,-485.7 305.5,-485.7"/>
<polygon fill="none" stroke="#000000" points="305.5,-485.7 305.5,-508.7 522.5,-508.7 522.5,-485.7 305.5,-485.7"/>
<text text-anchor="start" x="310.5" y="-494.3" font-family="Helvetica,sans-Serif" font-weight="bold" font-size="11.00" fill="#000000">cds_portfolio_constituents</text>
<text text-anchor="start" x="488.0219" y="-493.8" font-family="Helvetica,sans-Serif" font-size="11.00" fill="#000000">[table]</text>
<polygon fill="none" stroke="#000000" points="305.5,-466.7 305.5,-485.7 522.5,-485.7 522.5,-466.7 305.5,-466.7"/>
<text text-anchor="start" x="308.5" y="-472.8" font-family="Helvetica,sans-Serif" font-size="11.00" fill="#000000">...</text>
<polygon fill="#ffffff" stroke="transparent" points="305.5,-447.7 305.5,-466.7 412.5,-466.7 412.5,-447.7 305.5,-447.7"/>
<polygon fill="none" stroke="#000000" points="305.5,-447.7 305.5,-466.7 412.5,-466.7 412.5,-447.7 305.5,-447.7"/>
<text text-anchor="start" x="308.5" y="-453.8" font-family="Helvetica,sans-Serif" font-size="11.00" fill="#000000">&lt; 2</text>
<polygon fill="#ffffff" stroke="transparent" points="412.5,-447.7 412.5,-466.7 467.5,-466.7 467.5,-447.7 412.5,-447.7"/>
<polygon fill="none" stroke="#000000" points="412.5,-447.7 412.5,-466.7 467.5,-466.7 467.5,-447.7 412.5,-447.7"/>
<text text-anchor="start" x="458.3862" y="-453.8" font-family="Helvetica,sans-Serif" font-size="11.00" fill="#000000"> &#160;</text>
<polygon fill="#ffffff" stroke="transparent" points="467.5,-447.7 467.5,-466.7 522.5,-466.7 522.5,-447.7 467.5,-447.7"/>
<polygon fill="none" stroke="#000000" points="467.5,-447.7 467.5,-466.7 522.5,-466.7 522.5,-447.7 467.5,-447.7"/>
<text text-anchor="start" x="513.3862" y="-453.8" font-family="Helvetica,sans-Serif" font-size="11.00" fill="#000000"> &#160;</text>
</a>
</g>
</g>
<!-- cds_portfolio_constituents&#45;&gt;cds_trades -->
<g id="edge8" class="edge">
<title>cds_portfolio_constituents:w&#45;&gt;cds_trades:e</title>
<path fill="none" stroke="#000000" d="M291.1027,-474.7795C279.2556,-473.3179 267.3948,-470.2349 256.2143,-466.3965"/>
<polygon fill="#000000" stroke="#000000" points="297.5163,-475.1895 305.2703,-479.2927 301.5082,-475.4447 305.5,-475.7 305.5,-475.7 305.5,-475.7 301.5082,-475.4447 305.7297,-472.1073 297.5163,-475.1895 297.5163,-475.1895"/>
<ellipse fill="none" stroke="#000000" cx="294.3228" cy="-474.9853" rx="3.2" ry="3.2"/>
</g>
<!-- compression_proposal_items -->
<g id="node9" class="node">
<title>compression_proposal_items</title>
<g id="a_node9"><a xlink:href="../../tables/compression_proposal_items.html" xlink:title="compression_proposal_items" target="_top">
<polygon fill="#ffffff" stroke="transparent" points="297,-366.2 297,-427.2 530,-427.2 530,-366.2 297,-366.2"/>
<polygon fill="#f5f5f5" stroke="transparent" points="297.5,-403.7 297.5,-426.7 530.5,-426.7 530.5,-403.7 297.5,-403.7"/>
<polygon fill="none" stroke="#000000" points="297.5,-403.7 297.5,-426.7 530.5,-426.7 530.5,-403.7 297.5,-403.7"/>
<text text-anchor="start" x="302.5" y="-412.3" font-family="Helvetica,sans-Serif" font-weight="bold" font-size="11.00" fill="#000000">compression_proposal_items</text>
<text text-anchor="start" x="496.0219" y="-411.8" font-family="Helvetica,sans-Serif" font-size="11.00" fill="#000000">[table]</text>
<polygon fill="none" stroke="#000000" points="297.5,-384.7 297.5,-403.7 530.5,-403.7 530.5,-384.7 297.5,-384.7"/>
<text text-anchor="start" x="300.5" y="-390.8" font-family="Helvetica,sans-Serif" font-size="11.00" fill="#000000">...</text>
<polygon fill="#ffffff" stroke="transparent" points="297.5,-365.7 297.5,-384.7 412.5,-384.7 412.5,-365.7 297.5,-365.7"/>
<polygon fill="none" stroke="#000000" points="297.5,-365.7 297.5,-384.7 412.5,-384.7 412.5,-365.7 297.5,-365.7"/>
<text text-anchor="start" x="300.5" y="-371.8" font-family="Helvetica,sans-Serif" font-size="11.00" fill="#000000">&lt; 2</text>
<polygon fill="#ffffff" stroke="transparent" points="412.5,-365.7 412.5,-384.7 471.5,-384.7 471.5,-365.7 412.5,-365.7"/>
<polygon fill="none" stroke="#000000" points="412.5,-365.7 412.5,-384.7 471.5,-384.7 471.5,-365.7 412.5,-365.7"/>
<text text-anchor="start" x="462.3862" y="-371.8" font-family="Helvetica,sans-Serif" font-size="11.00" fill="#000000"> &#160;</text>
<polygon fill="#ffffff" stroke="transparent" points="471.5,-365.7 471.5,-384.7 530.5,-384.7 530.5,-365.7 471.5,-365.7"/>
<polygon fill="none" stroke="#000000" points="471.5,-365.7 471.5,-384.7 530.5,-384.7 530.5,-365.7 471.5,-365.7"/>
<text text-anchor="start" x="521.3862" y="-371.8" font-family="Helvetica,sans-Serif" font-size="11.00" fill="#000000"> &#160;</text>
</a>
</g>
</g>
<!-- compression_proposal_items&#45;&gt;cds_trades -->
<g id="edge10" class="edge">
<title>compression_proposal_items:w&#45;&gt;cds_trades:e</title>
<path fill="none" stroke="#000000" d="M282.868,-394.7785C273.8557,-396.059 264.8744,-398.3937 256.2644,-401.3157"/>
<polygon fill="#000000" stroke="#000000" points="289.5216,-394.2881 297.7647,-397.2903 293.5108,-393.9941 297.5,-393.7 297.5,-393.7 297.5,-393.7 293.5108,-393.9941 297.2353,-390.1097 289.5216,-394.2881 289.5216,-394.2881"/>
<ellipse fill="none" stroke="#000000" cx="286.3303" cy="-394.5234" rx="3.2" ry="3.2"/>
</g>
<!-- notional_adjustments -->
<g id="node10" class="node">
<title>notional_adjustments</title>
<g id="a_node10"><a xlink:href="../../tables/notional_adjustments.html" xlink:title="notional_adjustments" target="_top">
<polygon fill="#ffffff" stroke="transparent" points="321.5,-284.2 321.5,-345.2 505.5,-345.2 505.5,-284.2 321.5,-284.2"/>
<polygon fill="#f5f5f5" stroke="transparent" points="321.5,-321.7 321.5,-344.7 505.5,-344.7 505.5,-321.7 321.5,-321.7"/>
<polygon fill="none" stroke="#000000" points="321.5,-321.7 321.5,-344.7 505.5,-344.7 505.5,-321.7 321.5,-321.7"/>
<text text-anchor="start" x="326.5" y="-330.3" font-family="Helvetica,sans-Serif" font-weight="bold" font-size="11.00" fill="#000000">notional_adjustments</text>
<text text-anchor="start" x="471.0219" y="-329.8" font-family="Helvetica,sans-Serif" font-size="11.00" fill="#000000">[table]</text>
<polygon fill="none" stroke="#000000" points="321.5,-302.7 321.5,-321.7 505.5,-321.7 505.5,-302.7 321.5,-302.7"/>
<text text-anchor="start" x="324.5" y="-308.8" font-family="Helvetica,sans-Serif" font-size="11.00" fill="#000000">...</text>
<polygon fill="#ffffff" stroke="transparent" points="321.5,-283.7 321.5,-302.7 411.5,-302.7 411.5,-283.7 321.5,-283.7"/>
<polygon fill="none" stroke="#000000" points="321.5,-283.7 321.5,-302.7 411.5,-302.7 411.5,-283.7 321.5,-283.7"/>
<text text-anchor="start" x="324.5" y="-289.8" font-family="Helvetica,sans-Serif" font-size="11.00" fill="#000000">&lt; 1</text>
<polygon fill="#ffffff" stroke="transparent" points="411.5,-283.7 411.5,-302.7 458.5,-302.7 458.5,-283.7 411.5,-283.7"/>
<polygon fill="none" stroke="#000000" points="411.5,-283.7 411.5,-302.7 458.5,-302.7 458.5,-283.7 411.5,-283.7"/>
<text text-anchor="start" x="449.3862" y="-289.8" font-family="Helvetica,sans-Serif" font-size="11.00" fill="#000000"> &#160;</text>
<polygon fill="#ffffff" stroke="transparent" points="458.5,-283.7 458.5,-302.7 505.5,-302.7 505.5,-283.7 458.5,-283.7"/>
<polygon fill="none" stroke="#000000" points="458.5,-283.7 458.5,-302.7 505.5,-302.7 505.5,-283.7 458.5,-283.7"/>
<text text-anchor="start" x="496.3862" y="-289.8" font-family="Helvetica,sans-Serif" font-size="11.00" fill="#000000"> &#160;</text>
</a>
</g>
</g>
<!-- notional_adjustments&#45;&gt;cds_trades -->
<g id="edge12" class="edge">
<title>notional_adjustments:w&#45;&gt;cds_trades:e</title>
<path fill="none" stroke="#000000" d="M307.0543,-313.0703C262.664,-321.5155 228.8944,-367.2117 209.8846,-400.1103"/>
<polygon fill="#000000" stroke="#000000" points="313.5358,-312.4555 321.84,-315.2839 317.5179,-312.0778 321.5,-311.7 321.5,-311.7 321.5,-311.7 317.5179,-312.0778 321.16,-308.1161 313.5358,-312.4555 313.5358,-312.4555"/>
<ellipse fill="none" stroke="#000000" cx="310.3501" cy="-312.7578" rx="3.2" ry="3.2"/>
</g>
<!-- sa_ccr_trade_mappings -->
<g id="node11" class="node">
<title>sa_ccr_trade_mappings</title>
<g id="a_node11"><a xlink:href="../../tables/sa_ccr_trade_mappings.html" xlink:title="sa_ccr_trade_mappings" target="_top">
<polygon fill="#ffffff" stroke="transparent" points="316,-202.2 316,-263.2 511,-263.2 511,-202.2 316,-202.2"/>
<polygon fill="#f5f5f5" stroke="transparent" points="316.5,-239.7 316.5,-262.7 511.5,-262.7 511.5,-239.7 316.5,-239.7"/>
<polygon fill="none" stroke="#000000" points="316.5,-239.7 316.5,-262.7 511.5,-262.7 511.5,-239.7 316.5,-239.7"/>
<text text-anchor="start" x="321.5" y="-248.3" font-family="Helvetica,sans-Serif" font-weight="bold" font-size="11.00" fill="#000000">sa_ccr_trade_mappings</text>
<text text-anchor="start" x="477.0219" y="-247.8" font-family="Helvetica,sans-Serif" font-size="11.00" fill="#000000">[table]</text>
<polygon fill="none" stroke="#000000" points="316.5,-220.7 316.5,-239.7 511.5,-239.7 511.5,-220.7 316.5,-220.7"/>
<text text-anchor="start" x="319.5" y="-226.8" font-family="Helvetica,sans-Serif" font-size="11.00" fill="#000000">...</text>
<polygon fill="#ffffff" stroke="transparent" points="316.5,-201.7 316.5,-220.7 412.5,-220.7 412.5,-201.7 316.5,-201.7"/>
<polygon fill="none" stroke="#000000" points="316.5,-201.7 316.5,-220.7 412.5,-220.7 412.5,-201.7 316.5,-201.7"/>
<text text-anchor="start" x="319.5" y="-207.8" font-family="Helvetica,sans-Serif" font-size="11.00" fill="#000000">&lt; 3</text>
<polygon fill="#ffffff" stroke="transparent" points="412.5,-201.7 412.5,-220.7 461.5,-220.7 461.5,-201.7 412.5,-201.7"/>
<polygon fill="none" stroke="#000000" points="412.5,-201.7 412.5,-220.7 461.5,-220.7 461.5,-201.7 412.5,-201.7"/>
<text text-anchor="start" x="452.3862" y="-207.8" font-family="Helvetica,sans-Serif" font-size="11.00" fill="#000000"> &#160;</text>
<polygon fill="#ffffff" stroke="transparent" points="461.5,-201.7 461.5,-220.7 511.5,-220.7 511.5,-201.7 461.5,-201.7"/>
<polygon fill="none" stroke="#000000" points="461.5,-201.7 461.5,-220.7 511.5,-220.7 511.5,-201.7 461.5,-201.7"/>
<text text-anchor="start" x="502.3862" y="-207.8" font-family="Helvetica,sans-Serif" font-size="11.00" fill="#000000"> &#160;</text>
</a>
</g>
</g>
<!-- sa_ccr_trade_mappings&#45;&gt;cds_trades -->
<g id="edge13" class="edge">
<title>sa_ccr_trade_mappings:w&#45;&gt;cds_trades:e</title>
<path fill="none" stroke="#000000" d="M301.8959,-231.0484C234.0851,-243.8824 207.094,-345.2068 197.3805,-399.9245"/>
<polygon fill="#000000" stroke="#000000" points="308.5339,-230.4355 316.831,-233.2848 312.5169,-230.0678 316.5,-229.7 316.5,-229.7 316.5,-229.7 312.5169,-230.0678 316.169,-226.1152 308.5339,-230.4355 308.5339,-230.4355"/>
<ellipse fill="none" stroke="#000000" cx="305.3474" cy="-230.7298" rx="3.2" ry="3.2"/>
</g>
<!-- trade_amendments -->
<g id="node12" class="node">
<title>trade_amendments</title>
<g id="a_node12"><a xlink:href="../../tables/trade_amendments.html" xlink:title="trade_amendments" target="_top">
<polygon fill="#ffffff" stroke="transparent" points="329,-120.2 329,-181.2 498,-181.2 498,-120.2 329,-120.2"/>
<polygon fill="#f5f5f5" stroke="transparent" points="329.5,-157.7 329.5,-180.7 498.5,-180.7 498.5,-157.7 329.5,-157.7"/>
<polygon fill="none" stroke="#000000" points="329.5,-157.7 329.5,-180.7 498.5,-180.7 498.5,-157.7 329.5,-157.7"/>
<text text-anchor="start" x="334.5" y="-166.3" font-family="Helvetica,sans-Serif" font-weight="bold" font-size="11.00" fill="#000000">trade_amendments</text>
<text text-anchor="start" x="464.0219" y="-165.8" font-family="Helvetica,sans-Serif" font-size="11.00" fill="#000000">[table]</text>
<polygon fill="none" stroke="#000000" points="329.5,-138.7 329.5,-157.7 498.5,-157.7 498.5,-138.7 329.5,-138.7"/>
<text text-anchor="start" x="332.5" y="-144.8" font-family="Helvetica,sans-Serif" font-size="11.00" fill="#000000">...</text>
<polygon fill="#ffffff" stroke="transparent" points="329.5,-119.7 329.5,-138.7 412.5,-138.7 412.5,-119.7 329.5,-119.7"/>
<polygon fill="none" stroke="#000000" points="329.5,-119.7 329.5,-138.7 412.5,-138.7 412.5,-119.7 329.5,-119.7"/>
<text text-anchor="start" x="332.5" y="-125.8" font-family="Helvetica,sans-Serif" font-size="11.00" fill="#000000">&lt; 1</text>
<polygon fill="#ffffff" stroke="transparent" points="412.5,-119.7 412.5,-138.7 455.5,-138.7 455.5,-119.7 412.5,-119.7"/>
<polygon fill="none" stroke="#000000" points="412.5,-119.7 412.5,-138.7 455.5,-138.7 455.5,-119.7 412.5,-119.7"/>
<text text-anchor="start" x="446.3862" y="-125.8" font-family="Helvetica,sans-Serif" font-size="11.00" fill="#000000"> &#160;</text>
<polygon fill="#ffffff" stroke="transparent" points="455.5,-119.7 455.5,-138.7 498.5,-138.7 498.5,-119.7 455.5,-119.7"/>
<polygon fill="none" stroke="#000000" points="455.5,-119.7 455.5,-138.7 498.5,-138.7 498.5,-119.7 455.5,-119.7"/>
<text text-anchor="start" x="489.3862" y="-125.8" font-family="Helvetica,sans-Serif" font-size="11.00" fill="#000000"> &#160;</text>
</a>
</g>
</g>
<!-- trade_amendments&#45;&gt;cds_trades -->
<g id="edge14" class="edge">
<title>trade_amendments:w&#45;&gt;cds_trades:e</title>
<path fill="none" stroke="#000000" d="M315.308,-151.4255C265.334,-177.2218 219.7241,-330.3077 201.2209,-400.0811"/>
<polygon fill="#000000" stroke="#000000" points="321.7622,-149.7312 330.4141,-151.182 325.6311,-148.7156 329.5,-147.7 329.5,-147.7 329.5,-147.7 325.6311,-148.7156 328.5859,-144.218 321.7622,-149.7312 321.7622,-149.7312"/>
<ellipse fill="none" stroke="#000000" cx="318.667" cy="-150.5437" rx="3.2" ry="3.2"/>
</g>
<!-- trade_novations -->
<g id="node13" class="node">
<title>trade_novations</title>
<g id="a_node13"><a xlink:href="../../tables/trade_novations.html" xlink:title="trade_novations" target="_top">
<polygon fill="#ffffff" stroke="transparent" points="340,-38.2 340,-99.2 487,-99.2 487,-38.2 340,-38.2"/>
<polygon fill="#f5f5f5" stroke="transparent" points="340.5,-75.7 340.5,-98.7 487.5,-98.7 487.5,-75.7 340.5,-75.7"/>
<polygon fill="none" stroke="#000000" points="340.5,-75.7 340.5,-98.7 487.5,-98.7 487.5,-75.7 340.5,-75.7"/>
<text text-anchor="start" x="345.5" y="-84.3" font-family="Helvetica,sans-Serif" font-weight="bold" font-size="11.00" fill="#000000">trade_novations</text>
<text text-anchor="start" x="453.0219" y="-83.8" font-family="Helvetica,sans-Serif" font-size="11.00" fill="#000000">[table]</text>
<polygon fill="none" stroke="#000000" points="340.5,-56.7 340.5,-75.7 487.5,-75.7 487.5,-56.7 340.5,-56.7"/>
<text text-anchor="start" x="343.5" y="-62.8" font-family="Helvetica,sans-Serif" font-size="11.00" fill="#000000">...</text>
<polygon fill="#ffffff" stroke="transparent" points="340.5,-37.7 340.5,-56.7 412.5,-56.7 412.5,-37.7 340.5,-37.7"/>
<polygon fill="none" stroke="#000000" points="340.5,-37.7 340.5,-56.7 412.5,-56.7 412.5,-37.7 340.5,-37.7"/>
<text text-anchor="start" x="343.5" y="-43.8" font-family="Helvetica,sans-Serif" font-size="11.00" fill="#000000">&lt; 2</text>
<polygon fill="#ffffff" stroke="transparent" points="412.5,-37.7 412.5,-56.7 449.5,-56.7 449.5,-37.7 412.5,-37.7"/>
<polygon fill="none" stroke="#000000" points="412.5,-37.7 412.5,-56.7 449.5,-56.7 449.5,-37.7 412.5,-37.7"/>
<text text-anchor="start" x="440.3862" y="-43.8" font-family="Helvetica,sans-Serif" font-size="11.00" fill="#000000"> &#160;</text>
<polygon fill="#ffffff" stroke="transparent" points="449.5,-37.7 449.5,-56.7 487.5,-56.7 487.5,-37.7 449.5,-37.7"/>
<polygon fill="none" stroke="#000000" points="449.5,-37.7 449.5,-56.7 487.5,-56.7 487.5,-37.7 449.5,-37.7"/>
<text text-anchor="start" x="478.3862" y="-43.8" font-family="Helvetica,sans-Serif" font-size="11.00" fill="#000000"> &#160;</text>
</a>
</g>
</g>
<!-- trade_novations&#45;&gt;cds_trades -->
<g id="edge15" class="edge">
<title>trade_novations:w&#45;&gt;cds_trades:e</title>
<path fill="none" stroke="#000000" d="M325.9473,-68.0846C261.11,-93.7378 213.9616,-313.3724 198.2187,-399.9235"/>
<polygon fill="#000000" stroke="#000000" points="332.6053,-66.9937 341.0822,-69.2526 336.5526,-66.3468 340.5,-65.7 340.5,-65.7 340.5,-65.7 336.5526,-66.3468 339.9178,-62.1474 332.6053,-66.9937 332.6053,-66.9937"/>
<ellipse fill="none" stroke="#000000" cx="329.4474" cy="-67.5111" rx="3.2" ry="3.2"/>
</g>
<!-- trade_novations&#45;&gt;cds_trades -->
<g id="edge16" class="edge">
<title>trade_novations:w&#45;&gt;cds_trades:e</title>
<path fill="none" stroke="#000000" d="M326.6536,-69.7767C262.9503,-102.2326 216.2074,-315.0804 199.3575,-399.9505"/>
<polygon fill="#000000" stroke="#000000" points="332.8257,-67.9595 341.5168,-69.1534 336.6629,-66.8298 340.5,-65.7 340.5,-65.7 340.5,-65.7 336.6629,-66.8298 339.4832,-62.2466 332.8257,-67.9595 332.8257,-67.9595"/>
<ellipse fill="none" stroke="#000000" cx="329.756" cy="-68.8634" rx="3.2" ry="3.2"/>
</g>
</g>
</svg>
