<?xml version="1.0" encoding="UTF-8" standalone="no"?>
<!DOCTYPE svg PUBLIC "-//W3C//DTD SVG 1.1//EN"
 "http://www.w3.org/Graphics/SVG/1.1/DTD/svg11.dtd">
<!-- Generated by graphviz version 2.40.1 (20161225.0304)
 -->
<!-- Title: twoDegreesRelationshipsDiagram Pages: 1 -->
<svg width="922pt" height="879pt"
 viewBox="0.00 0.00 922.00 879.20" xmlns="http://www.w3.org/2000/svg" xmlns:xlink="http://www.w3.org/1999/xlink">
<g id="graph0" class="graph" transform="scale(1 1) rotate(0) translate(4 875.2)">
<title>twoDegreesRelationshipsDiagram</title>
<polygon fill="#ffffff" stroke="transparent" points="-4,4 -4,-875.2 918,-875.2 918,4 -4,4"/>
<text text-anchor="middle" x="72.4936" y="-7.3" font-family="Helvetica,sans-Serif" font-size="11.00" fill="#000000">Generated by SchemaSpy</text>
<!-- basket_portfolio_constituents -->
<g id="node1" class="node">
<title>basket_portfolio_constituents</title>
<g id="a_node1"><a xlink:href="../../tables/basket_portfolio_constituents.html" xlink:title="basket_portfolio_constituents" target="_top">
<polygon fill="#ffffff" stroke="transparent" points="395,-718.2 395,-867.2 634,-867.2 634,-718.2 395,-718.2"/>
<polygon fill="#f5f5f5" stroke="transparent" points="395.5,-843.7 395.5,-866.7 634.5,-866.7 634.5,-843.7 395.5,-843.7"/>
<polygon fill="none" stroke="#000000" points="395.5,-843.7 395.5,-866.7 634.5,-866.7 634.5,-843.7 395.5,-843.7"/>
<text text-anchor="start" x="400.5" y="-852.3" font-family="Helvetica,sans-Serif" font-weight="bold" font-size="11.00" fill="#000000">basket_portfolio_constituents</text>
<text text-anchor="start" x="600.0219" y="-851.8" font-family="Helvetica,sans-Serif" font-size="11.00" fill="#000000">[table]</text>
<polygon fill="none" stroke="#000000" points="395.5,-821.7 395.5,-843.7 634.5,-843.7 634.5,-821.7 395.5,-821.7"/>
<image xlink:href="../../images/primaryKeys.png" width="11px" height="12px" preserveAspectRatio="xMinYMin meet" x="400.5" y="-838.7"/>
<text text-anchor="start" x="424.5" y="-828.8" font-family="Helvetica,sans-Serif" font-size="11.00" fill="#000000">id</text>
<polygon fill="#ffffff" stroke="transparent" points="395.5,-799.7 395.5,-821.7 634.5,-821.7 634.5,-799.7 395.5,-799.7"/>
<polygon fill="none" stroke="#000000" points="395.5,-799.7 395.5,-821.7 634.5,-821.7 634.5,-799.7 395.5,-799.7"/>
<image xlink:href="../../images/foreignKeys.png" width="11px" height="12px" preserveAspectRatio="xMinYMin meet" x="400.5" y="-816.7"/>
<text text-anchor="start" x="424.5" y="-806.8" font-family="Helvetica,sans-Serif" font-size="11.00" fill="#000000">portfolio_id</text>
<polygon fill="#ffffff" stroke="transparent" points="395.5,-777.7 395.5,-799.7 634.5,-799.7 634.5,-777.7 395.5,-777.7"/>
<polygon fill="none" stroke="#000000" points="395.5,-777.7 395.5,-799.7 634.5,-799.7 634.5,-777.7 395.5,-777.7"/>
<image xlink:href="../../images/foreignKeys.png" width="11px" height="12px" preserveAspectRatio="xMinYMin meet" x="400.5" y="-794.7"/>
<text text-anchor="start" x="424.5" y="-784.8" font-family="Helvetica,sans-Serif" font-size="11.00" fill="#000000">basket_id</text>
<polygon fill="#ffffff" stroke="transparent" points="395.5,-755.7 395.5,-777.7 634.5,-777.7 634.5,-755.7 395.5,-755.7"/>
<polygon fill="none" stroke="#000000" points="395.5,-755.7 395.5,-777.7 634.5,-777.7 634.5,-755.7 395.5,-755.7"/>
<text text-anchor="start" x="424.5" y="-762.8" font-family="Helvetica,sans-Serif" font-size="11.00" fill="#000000">active</text>
<polygon fill="none" stroke="#000000" points="395.5,-736.7 395.5,-755.7 634.5,-755.7 634.5,-736.7 395.5,-736.7"/>
<text text-anchor="start" x="398.5" y="-742.8" font-family="Helvetica,sans-Serif" font-size="11.00" fill="#000000">...</text>
<polygon fill="#ffffff" stroke="transparent" points="395.5,-717.7 395.5,-736.7 513.5,-736.7 513.5,-717.7 395.5,-717.7"/>
<polygon fill="none" stroke="#000000" points="395.5,-717.7 395.5,-736.7 513.5,-736.7 513.5,-717.7 395.5,-717.7"/>
<text text-anchor="start" x="398.5" y="-723.8" font-family="Helvetica,sans-Serif" font-size="11.00" fill="#000000">&lt; 2</text>
<polygon fill="#ffffff" stroke="transparent" points="513.5,-717.7 513.5,-736.7 573.5,-736.7 573.5,-717.7 513.5,-717.7"/>
<polygon fill="none" stroke="#000000" points="513.5,-717.7 513.5,-736.7 573.5,-736.7 573.5,-717.7 513.5,-717.7"/>
<text text-anchor="start" x="564.3862" y="-723.8" font-family="Helvetica,sans-Serif" font-size="11.00" fill="#000000"> &#160;</text>
<polygon fill="#ffffff" stroke="transparent" points="573.5,-717.7 573.5,-736.7 634.5,-736.7 634.5,-717.7 573.5,-717.7"/>
<polygon fill="none" stroke="#000000" points="573.5,-717.7 573.5,-736.7 634.5,-736.7 634.5,-717.7 573.5,-717.7"/>
<text text-anchor="start" x="625.3862" y="-723.8" font-family="Helvetica,sans-Serif" font-size="11.00" fill="#000000"> &#160;</text>
</a>
</g>
</g>
<!-- basket_definitions -->
<g id="node2" class="node">
<title>basket_definitions</title>
<g id="a_node2"><a xlink:href="../../tables/basket_definitions.html" xlink:title="basket_definitions" target="_top">
<polygon fill="#ffffff" stroke="transparent" points="160,-761.2 160,-822.2 323,-822.2 323,-761.2 160,-761.2"/>
<polygon fill="#f5f5f5" stroke="transparent" points="160.5,-798.7 160.5,-821.7 323.5,-821.7 323.5,-798.7 160.5,-798.7"/>
<polygon fill="none" stroke="#000000" points="160.5,-798.7 160.5,-821.7 323.5,-821.7 323.5,-798.7 160.5,-798.7"/>
<text text-anchor="start" x="165.5" y="-807.3" font-family="Helvetica,sans-Serif" font-weight="bold" font-size="11.00" fill="#000000">basket_definitions</text>
<text text-anchor="start" x="289.0219" y="-806.8" font-family="Helvetica,sans-Serif" font-size="11.00" fill="#000000">[table]</text>
<polygon fill="none" stroke="#000000" points="160.5,-779.7 160.5,-798.7 323.5,-798.7 323.5,-779.7 160.5,-779.7"/>
<text text-anchor="start" x="163.5" y="-785.8" font-family="Helvetica,sans-Serif" font-size="11.00" fill="#000000">...</text>
<polygon fill="#ffffff" stroke="transparent" points="160.5,-760.7 160.5,-779.7 231.5,-779.7 231.5,-760.7 160.5,-760.7"/>
<polygon fill="none" stroke="#000000" points="160.5,-760.7 160.5,-779.7 231.5,-779.7 231.5,-760.7 160.5,-760.7"/>
<text text-anchor="start" x="163.5" y="-766.8" font-family="Helvetica,sans-Serif" font-size="11.00" fill="#000000"> &#160;</text>
<polygon fill="#ffffff" stroke="transparent" points="231.5,-760.7 231.5,-779.7 272.5,-779.7 272.5,-760.7 231.5,-760.7"/>
<polygon fill="none" stroke="#000000" points="231.5,-760.7 231.5,-779.7 272.5,-779.7 272.5,-760.7 231.5,-760.7"/>
<text text-anchor="start" x="263.3862" y="-766.8" font-family="Helvetica,sans-Serif" font-size="11.00" fill="#000000"> &#160;</text>
<polygon fill="#ffffff" stroke="transparent" points="272.5,-760.7 272.5,-779.7 323.5,-779.7 323.5,-760.7 272.5,-760.7"/>
<polygon fill="none" stroke="#000000" points="272.5,-760.7 272.5,-779.7 323.5,-779.7 323.5,-760.7 272.5,-760.7"/>
<text text-anchor="start" x="304.9053" y="-766.8" font-family="Helvetica,sans-Serif" font-size="11.00" fill="#000000">2 &gt;</text>
</a>
</g>
</g>
<!-- basket_portfolio_constituents&#45;&gt;basket_definitions -->
<g id="edge1" class="edge">
<title>basket_portfolio_constituents:w&#45;&gt;basket_definitions:e</title>
<path fill="none" stroke="#000000" d="M380.8832,-788.7C360.041,-788.7 350,-788.7 323.5,-788.7"/>
<polygon fill="#000000" stroke="#000000" points="387.5,-788.7001 395.5,-792.3 391.5,-788.7 395.5,-788.7 395.5,-788.7 395.5,-788.7 391.5,-788.7 395.5,-785.1 387.5,-788.7001 387.5,-788.7001"/>
<ellipse fill="none" stroke="#000000" cx="384.3" cy="-788.7001" rx="3.2" ry="3.2"/>
</g>
<!-- cds_portfolios -->
<g id="node3" class="node">
<title>cds_portfolios</title>
<g id="a_node3"><a xlink:href="../../tables/cds_portfolios.html" xlink:title="cds_portfolios" target="_top">
<polygon fill="#ffffff" stroke="transparent" points="137,-328.7 137,-484.7 346,-484.7 346,-328.7 137,-328.7"/>
<polygon fill="#f5f5f5" stroke="transparent" points="139.5,-459.7 139.5,-482.7 344.5,-482.7 344.5,-459.7 139.5,-459.7"/>
<polygon fill="none" stroke="#000000" points="139.5,-459.7 139.5,-482.7 344.5,-482.7 344.5,-459.7 139.5,-459.7"/>
<text text-anchor="start" x="144.5" y="-468.3" font-family="Helvetica,sans-Serif" font-weight="bold" font-size="11.00" fill="#000000">cds_portfolios</text>
<text text-anchor="start" x="309.5437" y="-467.8" font-family="Helvetica,sans-Serif" font-size="11.00" fill="#000000">[table]</text>
<polygon fill="none" stroke="#000000" points="139.5,-437.7 139.5,-459.7 254.5,-459.7 254.5,-437.7 139.5,-437.7"/>
<image xlink:href="../../images/primaryKeys.png" width="11px" height="12px" preserveAspectRatio="xMinYMin meet" x="144.5" y="-454.7"/>
<text text-anchor="start" x="159.5" y="-444.8" font-family="Helvetica,sans-Serif" font-size="11.00" fill="#000000">id</text>
<polygon fill="none" stroke="#000000" points="254.5,-437.7 254.5,-459.7 344.5,-459.7 344.5,-437.7 254.5,-437.7"/>
<text text-anchor="start" x="257.5" y="-445.4" font-family="Helvetica,sans-Serif" font-size="11.00" fill="#000000">bigserial[19]</text>
<polygon fill="none" stroke="#000000" points="139.5,-415.7 139.5,-437.7 254.5,-437.7 254.5,-415.7 139.5,-415.7"/>
<text text-anchor="start" x="159.5" y="-422.8" font-family="Helvetica,sans-Serif" font-size="11.00" fill="#000000">name</text>
<polygon fill="none" stroke="#000000" points="254.5,-415.7 254.5,-437.7 344.5,-437.7 344.5,-415.7 254.5,-415.7"/>
<text text-anchor="start" x="257.5" y="-423.4" font-family="Helvetica,sans-Serif" font-size="11.00" fill="#000000">varchar[60]</text>
<polygon fill="none" stroke="#000000" points="139.5,-393.7 139.5,-415.7 254.5,-415.7 254.5,-393.7 139.5,-393.7"/>
<text text-anchor="start" x="159.5" y="-400.8" font-family="Helvetica,sans-Serif" font-size="11.00" fill="#000000">description</text>
<polygon fill="none" stroke="#000000" points="254.5,-393.7 254.5,-415.7 344.5,-415.7 344.5,-393.7 254.5,-393.7"/>
<text text-anchor="start" x="257.0043" y="-401.4" font-family="Helvetica,sans-Serif" font-size="11.00" fill="#000000">text[2147483647]</text>
<polygon fill="none" stroke="#000000" points="139.5,-371.7 139.5,-393.7 254.5,-393.7 254.5,-371.7 139.5,-371.7"/>
<text text-anchor="start" x="159.5" y="-378.8" font-family="Helvetica,sans-Serif" font-size="11.00" fill="#000000">created_at</text>
<polygon fill="none" stroke="#000000" points="254.5,-371.7 254.5,-393.7 344.5,-393.7 344.5,-371.7 254.5,-371.7"/>
<text text-anchor="start" x="257.5" y="-379.4" font-family="Helvetica,sans-Serif" font-size="11.00" fill="#000000">timestamp[29,6]</text>
<polygon fill="none" stroke="#000000" points="139.5,-349.7 139.5,-371.7 254.5,-371.7 254.5,-349.7 139.5,-349.7"/>
<text text-anchor="start" x="159.5" y="-356.8" font-family="Helvetica,sans-Serif" font-size="11.00" fill="#000000">updated_at</text>
<polygon fill="none" stroke="#000000" points="254.5,-349.7 254.5,-371.7 344.5,-371.7 344.5,-349.7 254.5,-349.7"/>
<text text-anchor="start" x="257.5" y="-357.4" font-family="Helvetica,sans-Serif" font-size="11.00" fill="#000000">timestamp[29,6]</text>
<polygon fill="#ffffff" stroke="transparent" points="139.5,-330.7 139.5,-349.7 201.5,-349.7 201.5,-330.7 139.5,-330.7"/>
<polygon fill="none" stroke="#000000" points="139.5,-330.7 139.5,-349.7 201.5,-349.7 201.5,-330.7 139.5,-330.7"/>
<text text-anchor="start" x="142.5" y="-336.8" font-family="Helvetica,sans-Serif" font-size="11.00" fill="#000000">&lt; 0</text>
<polygon fill="#ffffff" stroke="transparent" points="201.5,-330.7 201.5,-349.7 254.5,-349.7 254.5,-330.7 201.5,-330.7"/>
<polygon fill="none" stroke="#000000" points="201.5,-330.7 201.5,-349.7 254.5,-349.7 254.5,-330.7 201.5,-330.7"/>
<text text-anchor="start" x="245.3862" y="-336.8" font-family="Helvetica,sans-Serif" font-size="11.00" fill="#000000"> &#160;</text>
<polygon fill="#ffffff" stroke="transparent" points="254.5,-330.7 254.5,-349.7 344.5,-349.7 344.5,-330.7 254.5,-330.7"/>
<polygon fill="none" stroke="#000000" points="254.5,-330.7 254.5,-349.7 344.5,-349.7 344.5,-330.7 254.5,-330.7"/>
<text text-anchor="start" x="325.9053" y="-336.8" font-family="Helvetica,sans-Serif" font-size="11.00" fill="#000000">5 &gt;</text>
<polygon fill="none" stroke="#000000" stroke-width="2" points="138,-329.7 138,-483.7 345,-483.7 345,-329.7 138,-329.7"/>
</a>
</g>
</g>
<!-- basket_portfolio_constituents&#45;&gt;cds_portfolios -->
<g id="edge2" class="edge">
<title>basket_portfolio_constituents:w&#45;&gt;cds_portfolios:e</title>
<path fill="none" stroke="#000000" d="M381.7523,-806.123C328.2169,-764.2182 420.3441,-448.7 344.5,-448.7"/>
<polygon fill="#000000" stroke="#000000" points="387.9096,-808.1729 394.3628,-814.1157 391.7048,-809.4364 395.5,-810.7 395.5,-810.7 395.5,-810.7 391.7048,-809.4364 396.6372,-807.2843 387.9096,-808.1729 387.9096,-808.1729"/>
<ellipse fill="none" stroke="#000000" cx="384.8735" cy="-807.162" rx="3.2" ry="3.2"/>
</g>
<!-- bond_portfolio_constituents -->
<g id="node4" class="node">
<title>bond_portfolio_constituents</title>
<g id="a_node4"><a xlink:href="../../tables/bond_portfolio_constituents.html" xlink:title="bond_portfolio_constituents" target="_top">
<polygon fill="#ffffff" stroke="transparent" points="400.5,-208.2 400.5,-357.2 628.5,-357.2 628.5,-208.2 400.5,-208.2"/>
<polygon fill="#f5f5f5" stroke="transparent" points="400.5,-333.7 400.5,-356.7 628.5,-356.7 628.5,-333.7 400.5,-333.7"/>
<polygon fill="none" stroke="#000000" points="400.5,-333.7 400.5,-356.7 628.5,-356.7 628.5,-333.7 400.5,-333.7"/>
<text text-anchor="start" x="405.5" y="-342.3" font-family="Helvetica,sans-Serif" font-weight="bold" font-size="11.00" fill="#000000">bond_portfolio_constituents</text>
<text text-anchor="start" x="594.0219" y="-341.8" font-family="Helvetica,sans-Serif" font-size="11.00" fill="#000000">[table]</text>
<polygon fill="none" stroke="#000000" points="400.5,-311.7 400.5,-333.7 628.5,-333.7 628.5,-311.7 400.5,-311.7"/>
<image xlink:href="../../images/primaryKeys.png" width="11px" height="12px" preserveAspectRatio="xMinYMin meet" x="405.5" y="-328.7"/>
<text text-anchor="start" x="429.5" y="-318.8" font-family="Helvetica,sans-Serif" font-size="11.00" fill="#000000">id</text>
<polygon fill="#ffffff" stroke="transparent" points="400.5,-289.7 400.5,-311.7 628.5,-311.7 628.5,-289.7 400.5,-289.7"/>
<polygon fill="none" stroke="#000000" points="400.5,-289.7 400.5,-311.7 628.5,-311.7 628.5,-289.7 400.5,-289.7"/>
<image xlink:href="../../images/foreignKeys.png" width="11px" height="12px" preserveAspectRatio="xMinYMin meet" x="405.5" y="-306.7"/>
<text text-anchor="start" x="429.5" y="-296.8" font-family="Helvetica,sans-Serif" font-size="11.00" fill="#000000">portfolio_id</text>
<polygon fill="#ffffff" stroke="transparent" points="400.5,-267.7 400.5,-289.7 628.5,-289.7 628.5,-267.7 400.5,-267.7"/>
<polygon fill="none" stroke="#000000" points="400.5,-267.7 400.5,-289.7 628.5,-289.7 628.5,-267.7 400.5,-267.7"/>
<image xlink:href="../../images/foreignKeys.png" width="11px" height="12px" preserveAspectRatio="xMinYMin meet" x="405.5" y="-284.7"/>
<text text-anchor="start" x="429.5" y="-274.8" font-family="Helvetica,sans-Serif" font-size="11.00" fill="#000000">bond_id</text>
<polygon fill="#ffffff" stroke="transparent" points="400.5,-245.7 400.5,-267.7 628.5,-267.7 628.5,-245.7 400.5,-245.7"/>
<polygon fill="none" stroke="#000000" points="400.5,-245.7 400.5,-267.7 628.5,-267.7 628.5,-245.7 400.5,-245.7"/>
<text text-anchor="start" x="429.5" y="-252.8" font-family="Helvetica,sans-Serif" font-size="11.00" fill="#000000">active</text>
<polygon fill="none" stroke="#000000" points="400.5,-226.7 400.5,-245.7 628.5,-245.7 628.5,-226.7 400.5,-226.7"/>
<text text-anchor="start" x="403.5" y="-232.8" font-family="Helvetica,sans-Serif" font-size="11.00" fill="#000000">...</text>
<polygon fill="#ffffff" stroke="transparent" points="400.5,-207.7 400.5,-226.7 512.5,-226.7 512.5,-207.7 400.5,-207.7"/>
<polygon fill="none" stroke="#000000" points="400.5,-207.7 400.5,-226.7 512.5,-226.7 512.5,-207.7 400.5,-207.7"/>
<text text-anchor="start" x="403.5" y="-213.8" font-family="Helvetica,sans-Serif" font-size="11.00" fill="#000000">&lt; 2</text>
<polygon fill="#ffffff" stroke="transparent" points="512.5,-207.7 512.5,-226.7 570.5,-226.7 570.5,-207.7 512.5,-207.7"/>
<polygon fill="none" stroke="#000000" points="512.5,-207.7 512.5,-226.7 570.5,-226.7 570.5,-207.7 512.5,-207.7"/>
<text text-anchor="start" x="561.3862" y="-213.8" font-family="Helvetica,sans-Serif" font-size="11.00" fill="#000000"> &#160;</text>
<polygon fill="#ffffff" stroke="transparent" points="570.5,-207.7 570.5,-226.7 628.5,-226.7 628.5,-207.7 570.5,-207.7"/>
<polygon fill="none" stroke="#000000" points="570.5,-207.7 570.5,-226.7 628.5,-226.7 628.5,-207.7 570.5,-207.7"/>
<text text-anchor="start" x="619.3862" y="-213.8" font-family="Helvetica,sans-Serif" font-size="11.00" fill="#000000"> &#160;</text>
</a>
</g>
</g>
<!-- bond_portfolio_constituents&#45;&gt;cds_portfolios -->
<g id="edge4" class="edge">
<title>bond_portfolio_constituents:w&#45;&gt;cds_portfolios:e</title>
<path fill="none" stroke="#000000" d="M386.1501,-303.5243C343.0173,-323.9853 409.0599,-448.7 344.5,-448.7"/>
<polygon fill="#000000" stroke="#000000" points="392.6506,-302.245 401.1952,-304.2322 396.5753,-301.4725 400.5,-300.7 400.5,-300.7 400.5,-300.7 396.5753,-301.4725 399.8048,-297.1678 392.6506,-302.245 392.6506,-302.245"/>
<ellipse fill="none" stroke="#000000" cx="389.5108" cy="-302.863" rx="3.2" ry="3.2"/>
</g>
<!-- bonds -->
<g id="node5" class="node">
<title>bonds</title>
<g id="a_node5"><a xlink:href="../../tables/bonds.html" xlink:title="bonds" target="_top">
<polygon fill="#ffffff" stroke="transparent" points="8,-152.2 8,-213.2 88,-213.2 88,-152.2 8,-152.2"/>
<polygon fill="#f5f5f5" stroke="transparent" points="8,-189.7 8,-212.7 88,-212.7 88,-189.7 8,-189.7"/>
<polygon fill="none" stroke="#000000" points="8,-189.7 8,-212.7 88,-212.7 88,-189.7 8,-189.7"/>
<text text-anchor="start" x="13" y="-198.3" font-family="Helvetica,sans-Serif" font-weight="bold" font-size="11.00" fill="#000000">bonds</text>
<text text-anchor="start" x="53.5219" y="-197.8" font-family="Helvetica,sans-Serif" font-size="11.00" fill="#000000">[table]</text>
<polygon fill="none" stroke="#000000" points="8,-170.7 8,-189.7 88,-189.7 88,-170.7 8,-170.7"/>
<text text-anchor="start" x="11" y="-176.8" font-family="Helvetica,sans-Serif" font-size="11.00" fill="#000000">...</text>
<polygon fill="#ffffff" stroke="transparent" points="8,-151.7 8,-170.7 37,-170.7 37,-151.7 8,-151.7"/>
<polygon fill="none" stroke="#000000" points="8,-151.7 8,-170.7 37,-170.7 37,-151.7 8,-151.7"/>
<text text-anchor="start" x="11" y="-157.8" font-family="Helvetica,sans-Serif" font-size="11.00" fill="#000000"> &#160;</text>
<polygon fill="#ffffff" stroke="transparent" points="37,-151.7 37,-170.7 58,-170.7 58,-151.7 37,-151.7"/>
<polygon fill="none" stroke="#000000" points="37,-151.7 37,-170.7 58,-170.7 58,-151.7 37,-151.7"/>
<text text-anchor="start" x="48.8862" y="-157.8" font-family="Helvetica,sans-Serif" font-size="11.00" fill="#000000"> &#160;</text>
<polygon fill="#ffffff" stroke="transparent" points="58,-151.7 58,-170.7 88,-170.7 88,-151.7 58,-151.7"/>
<polygon fill="none" stroke="#000000" points="58,-151.7 58,-170.7 88,-170.7 88,-151.7 58,-151.7"/>
<text text-anchor="start" x="69.4053" y="-157.8" font-family="Helvetica,sans-Serif" font-size="11.00" fill="#000000">2 &gt;</text>
</a>
</g>
</g>
<!-- bond_portfolio_constituents&#45;&gt;bonds -->
<g id="edge3" class="edge">
<title>bond_portfolio_constituents:w&#45;&gt;bonds:e</title>
<path fill="none" stroke="#000000" d="M385.9875,-278.3609C253.2191,-272.0481 228.7122,-179.7 88,-179.7"/>
<polygon fill="#000000" stroke="#000000" points="392.5022,-278.5131 400.4159,-282.299 396.5011,-278.6065 400.5,-278.7 400.5,-278.7 400.5,-278.7 396.5011,-278.6065 400.5841,-275.101 392.5022,-278.5131 392.5022,-278.5131"/>
<ellipse fill="none" stroke="#000000" cx="389.3031" cy="-278.4383" rx="3.2" ry="3.2"/>
</g>
<!-- cds_portfolio_constituents -->
<g id="node6" class="node">
<title>cds_portfolio_constituents</title>
<g id="a_node6"><a xlink:href="../../tables/cds_portfolio_constituents.html" xlink:title="cds_portfolio_constituents" target="_top">
<polygon fill="#ffffff" stroke="transparent" points="406,-38.2 406,-187.2 623,-187.2 623,-38.2 406,-38.2"/>
<polygon fill="#f5f5f5" stroke="transparent" points="406.5,-163.7 406.5,-186.7 623.5,-186.7 623.5,-163.7 406.5,-163.7"/>
<polygon fill="none" stroke="#000000" points="406.5,-163.7 406.5,-186.7 623.5,-186.7 623.5,-163.7 406.5,-163.7"/>
<text text-anchor="start" x="411.5" y="-172.3" font-family="Helvetica,sans-Serif" font-weight="bold" font-size="11.00" fill="#000000">cds_portfolio_constituents</text>
<text text-anchor="start" x="589.0219" y="-171.8" font-family="Helvetica,sans-Serif" font-size="11.00" fill="#000000">[table]</text>
<polygon fill="none" stroke="#000000" points="406.5,-141.7 406.5,-163.7 623.5,-163.7 623.5,-141.7 406.5,-141.7"/>
<image xlink:href="../../images/primaryKeys.png" width="11px" height="12px" preserveAspectRatio="xMinYMin meet" x="411.5" y="-158.7"/>
<text text-anchor="start" x="435.5" y="-148.8" font-family="Helvetica,sans-Serif" font-size="11.00" fill="#000000">id</text>
<polygon fill="#ffffff" stroke="transparent" points="406.5,-119.7 406.5,-141.7 623.5,-141.7 623.5,-119.7 406.5,-119.7"/>
<polygon fill="none" stroke="#000000" points="406.5,-119.7 406.5,-141.7 623.5,-141.7 623.5,-119.7 406.5,-119.7"/>
<image xlink:href="../../images/foreignKeys.png" width="11px" height="12px" preserveAspectRatio="xMinYMin meet" x="411.5" y="-136.7"/>
<text text-anchor="start" x="435.5" y="-126.8" font-family="Helvetica,sans-Serif" font-size="11.00" fill="#000000">portfolio_id</text>
<polygon fill="#ffffff" stroke="transparent" points="406.5,-97.7 406.5,-119.7 623.5,-119.7 623.5,-97.7 406.5,-97.7"/>
<polygon fill="none" stroke="#000000" points="406.5,-97.7 406.5,-119.7 623.5,-119.7 623.5,-97.7 406.5,-97.7"/>
<image xlink:href="../../images/foreignKeys.png" width="11px" height="12px" preserveAspectRatio="xMinYMin meet" x="411.5" y="-114.7"/>
<text text-anchor="start" x="435.5" y="-104.8" font-family="Helvetica,sans-Serif" font-size="11.00" fill="#000000">trade_id</text>
<polygon fill="#ffffff" stroke="transparent" points="406.5,-75.7 406.5,-97.7 623.5,-97.7 623.5,-75.7 406.5,-75.7"/>
<polygon fill="none" stroke="#000000" points="406.5,-75.7 406.5,-97.7 623.5,-97.7 623.5,-75.7 406.5,-75.7"/>
<text text-anchor="start" x="435.5" y="-82.8" font-family="Helvetica,sans-Serif" font-size="11.00" fill="#000000">active</text>
<polygon fill="none" stroke="#000000" points="406.5,-56.7 406.5,-75.7 623.5,-75.7 623.5,-56.7 406.5,-56.7"/>
<text text-anchor="start" x="409.5" y="-62.8" font-family="Helvetica,sans-Serif" font-size="11.00" fill="#000000">...</text>
<polygon fill="#ffffff" stroke="transparent" points="406.5,-37.7 406.5,-56.7 513.5,-56.7 513.5,-37.7 406.5,-37.7"/>
<polygon fill="none" stroke="#000000" points="406.5,-37.7 406.5,-56.7 513.5,-56.7 513.5,-37.7 406.5,-37.7"/>
<text text-anchor="start" x="409.5" y="-43.8" font-family="Helvetica,sans-Serif" font-size="11.00" fill="#000000">&lt; 2</text>
<polygon fill="#ffffff" stroke="transparent" points="513.5,-37.7 513.5,-56.7 568.5,-56.7 568.5,-37.7 513.5,-37.7"/>
<polygon fill="none" stroke="#000000" points="513.5,-37.7 513.5,-56.7 568.5,-56.7 568.5,-37.7 513.5,-37.7"/>
<text text-anchor="start" x="559.3862" y="-43.8" font-family="Helvetica,sans-Serif" font-size="11.00" fill="#000000"> &#160;</text>
<polygon fill="#ffffff" stroke="transparent" points="568.5,-37.7 568.5,-56.7 623.5,-56.7 623.5,-37.7 568.5,-37.7"/>
<polygon fill="none" stroke="#000000" points="568.5,-37.7 568.5,-56.7 623.5,-56.7 623.5,-37.7 568.5,-37.7"/>
<text text-anchor="start" x="614.3862" y="-43.8" font-family="Helvetica,sans-Serif" font-size="11.00" fill="#000000"> &#160;</text>
</a>
</g>
</g>
<!-- cds_portfolio_constituents&#45;&gt;cds_portfolios -->
<g id="edge5" class="edge">
<title>cds_portfolio_constituents:w&#45;&gt;cds_portfolios:e</title>
<path fill="none" stroke="#000000" d="M392.8882,-135.695C345.8256,-176.1514 411.1537,-448.7 344.5,-448.7"/>
<polygon fill="#000000" stroke="#000000" points="398.9897,-133.456 407.7402,-134.0796 402.7449,-132.078 406.5,-130.7 406.5,-130.7 406.5,-130.7 402.7449,-132.078 405.2598,-127.3204 398.9897,-133.456 398.9897,-133.456"/>
<ellipse fill="none" stroke="#000000" cx="395.9856" cy="-134.5584" rx="3.2" ry="3.2"/>
</g>
<!-- cds_trades -->
<g id="node7" class="node">
<title>cds_trades</title>
<g id="a_node7"><a xlink:href="../../tables/cds_trades.html" xlink:title="cds_trades" target="_top">
<polygon fill="#ffffff" stroke="transparent" points="186,-109.2 186,-170.2 297,-170.2 297,-109.2 186,-109.2"/>
<polygon fill="#f5f5f5" stroke="transparent" points="186.5,-146.7 186.5,-169.7 297.5,-169.7 297.5,-146.7 186.5,-146.7"/>
<polygon fill="none" stroke="#000000" points="186.5,-146.7 186.5,-169.7 297.5,-169.7 297.5,-146.7 186.5,-146.7"/>
<text text-anchor="start" x="191.5" y="-155.3" font-family="Helvetica,sans-Serif" font-weight="bold" font-size="11.00" fill="#000000">cds_trades</text>
<text text-anchor="start" x="263.0219" y="-154.8" font-family="Helvetica,sans-Serif" font-size="11.00" fill="#000000">[table]</text>
<polygon fill="none" stroke="#000000" points="186.5,-127.7 186.5,-146.7 297.5,-146.7 297.5,-127.7 186.5,-127.7"/>
<text text-anchor="start" x="189.5" y="-133.8" font-family="Helvetica,sans-Serif" font-size="11.00" fill="#000000">...</text>
<polygon fill="#ffffff" stroke="transparent" points="186.5,-108.7 186.5,-127.7 232.5,-127.7 232.5,-108.7 186.5,-108.7"/>
<polygon fill="none" stroke="#000000" points="186.5,-108.7 186.5,-127.7 232.5,-127.7 232.5,-108.7 186.5,-108.7"/>
<text text-anchor="start" x="189.5" y="-114.8" font-family="Helvetica,sans-Serif" font-size="11.00" fill="#000000">&lt; 2</text>
<polygon fill="#ffffff" stroke="transparent" points="232.5,-108.7 232.5,-127.7 257.5,-127.7 257.5,-108.7 232.5,-108.7"/>
<polygon fill="none" stroke="#000000" points="232.5,-108.7 232.5,-127.7 257.5,-127.7 257.5,-108.7 232.5,-108.7"/>
<text text-anchor="start" x="248.3862" y="-114.8" font-family="Helvetica,sans-Serif" font-size="11.00" fill="#000000"> &#160;</text>
<polygon fill="#ffffff" stroke="transparent" points="257.5,-108.7 257.5,-127.7 297.5,-127.7 297.5,-108.7 257.5,-108.7"/>
<polygon fill="none" stroke="#000000" points="257.5,-108.7 257.5,-127.7 297.5,-127.7 297.5,-108.7 257.5,-108.7"/>
<text text-anchor="start" x="272.7904" y="-114.8" font-family="Helvetica,sans-Serif" font-size="11.00" fill="#000000">13 &gt;</text>
</a>
</g>
</g>
<!-- cds_portfolio_constituents&#45;&gt;cds_trades -->
<g id="edge6" class="edge">
<title>cds_portfolio_constituents:w&#45;&gt;cds_trades:e</title>
<path fill="none" stroke="#000000" d="M391.9478,-109.5687C354.1349,-114.2948 342.242,-136.7 297.5,-136.7"/>
<polygon fill="#000000" stroke="#000000" points="398.5142,-109.1768 406.7145,-112.2936 402.5071,-108.9384 406.5,-108.7 406.5,-108.7 406.5,-108.7 402.5071,-108.9384 406.2855,-105.1064 398.5142,-109.1768 398.5142,-109.1768"/>
<ellipse fill="none" stroke="#000000" cx="395.3199" cy="-109.3675" rx="3.2" ry="3.2"/>
</g>
<!-- cds_trades&#45;&gt;bonds -->
<g id="edge7" class="edge">
<title>cds_trades:w&#45;&gt;bonds:e</title>
<path fill="none" stroke="#000000" d="M171.8611,-138.2304C137.4858,-145.8904 130.3563,-179.7 88,-179.7"/>
<polygon fill="#000000" stroke="#000000" points="178.5434,-137.5319 186.8743,-140.2805 182.5217,-137.1159 186.5,-136.7 186.5,-136.7 186.5,-136.7 182.5217,-137.1159 186.1257,-133.1195 178.5434,-137.5319 178.5434,-137.5319"/>
<ellipse fill="none" stroke="#000000" cx="175.3607" cy="-137.8646" rx="3.2" ry="3.2"/>
</g>
<!-- portfolio_risk_cache -->
<g id="node8" class="node">
<title>portfolio_risk_cache</title>
<g id="a_node8"><a xlink:href="../../tables/portfolio_risk_cache.html" xlink:title="portfolio_risk_cache" target="_top">
<polygon fill="#ffffff" stroke="transparent" points="412,-378.2 412,-505.2 617,-505.2 617,-378.2 412,-378.2"/>
<polygon fill="#f5f5f5" stroke="transparent" points="412.5,-481.7 412.5,-504.7 617.5,-504.7 617.5,-481.7 412.5,-481.7"/>
<polygon fill="none" stroke="#000000" points="412.5,-481.7 412.5,-504.7 617.5,-504.7 617.5,-481.7 412.5,-481.7"/>
<text text-anchor="start" x="417.5" y="-490.3" font-family="Helvetica,sans-Serif" font-weight="bold" font-size="11.00" fill="#000000">portfolio_risk_cache</text>
<text text-anchor="start" x="582.5437" y="-489.8" font-family="Helvetica,sans-Serif" font-size="11.00" fill="#000000">[table]</text>
<polygon fill="none" stroke="#000000" points="412.5,-459.7 412.5,-481.7 617.5,-481.7 617.5,-459.7 412.5,-459.7"/>
<image xlink:href="../../images/primaryKeys.png" width="11px" height="12px" preserveAspectRatio="xMinYMin meet" x="417.5" y="-476.7"/>
<text text-anchor="start" x="432.5" y="-466.8" font-family="Helvetica,sans-Serif" font-size="11.00" fill="#000000">id</text>
<polygon fill="#ffffff" stroke="transparent" points="412.5,-437.7 412.5,-459.7 617.5,-459.7 617.5,-437.7 412.5,-437.7"/>
<polygon fill="none" stroke="#000000" points="412.5,-437.7 412.5,-459.7 617.5,-459.7 617.5,-437.7 412.5,-437.7"/>
<image xlink:href="../../images/foreignKeys.png" width="11px" height="12px" preserveAspectRatio="xMinYMin meet" x="417.5" y="-454.7"/>
<text text-anchor="start" x="432.5" y="-444.8" font-family="Helvetica,sans-Serif" font-size="11.00" fill="#000000">portfolio_id</text>
<polygon fill="#ffffff" stroke="transparent" points="412.5,-415.7 412.5,-437.7 617.5,-437.7 617.5,-415.7 412.5,-415.7"/>
<polygon fill="none" stroke="#000000" points="412.5,-415.7 412.5,-437.7 617.5,-437.7 617.5,-415.7 412.5,-415.7"/>
<text text-anchor="start" x="432.5" y="-422.8" font-family="Helvetica,sans-Serif" font-size="11.00" fill="#000000">valuation_date</text>
<polygon fill="none" stroke="#000000" points="412.5,-396.7 412.5,-415.7 617.5,-415.7 617.5,-396.7 412.5,-396.7"/>
<text text-anchor="start" x="415.5" y="-402.8" font-family="Helvetica,sans-Serif" font-size="11.00" fill="#000000">...</text>
<polygon fill="#ffffff" stroke="transparent" points="412.5,-377.7 412.5,-396.7 513.5,-396.7 513.5,-377.7 412.5,-377.7"/>
<polygon fill="none" stroke="#000000" points="412.5,-377.7 412.5,-396.7 513.5,-396.7 513.5,-377.7 412.5,-377.7"/>
<text text-anchor="start" x="415.5" y="-383.8" font-family="Helvetica,sans-Serif" font-size="11.00" fill="#000000">&lt; 1</text>
<polygon fill="#ffffff" stroke="transparent" points="513.5,-377.7 513.5,-396.7 565.5,-396.7 565.5,-377.7 513.5,-377.7"/>
<polygon fill="none" stroke="#000000" points="513.5,-377.7 513.5,-396.7 565.5,-396.7 565.5,-377.7 513.5,-377.7"/>
<text text-anchor="start" x="556.3862" y="-383.8" font-family="Helvetica,sans-Serif" font-size="11.00" fill="#000000"> &#160;</text>
<polygon fill="#ffffff" stroke="transparent" points="565.5,-377.7 565.5,-396.7 617.5,-396.7 617.5,-377.7 565.5,-377.7"/>
<polygon fill="none" stroke="#000000" points="565.5,-377.7 565.5,-396.7 617.5,-396.7 617.5,-377.7 565.5,-377.7"/>
<text text-anchor="start" x="608.3862" y="-383.8" font-family="Helvetica,sans-Serif" font-size="11.00" fill="#000000"> &#160;</text>
</a>
</g>
</g>
<!-- portfolio_risk_cache&#45;&gt;cds_portfolios -->
<g id="edge8" class="edge">
<title>portfolio_risk_cache:w&#45;&gt;cds_portfolios:e</title>
<path fill="none" stroke="#000000" d="M397.8657,-448.7C378.7395,-448.7 369.1736,-448.7 344.5,-448.7"/>
<polygon fill="#000000" stroke="#000000" points="404.5,-448.7001 412.5,-452.3 408.5,-448.7 412.5,-448.7 412.5,-448.7 412.5,-448.7 408.5,-448.7 412.5,-445.1 404.5,-448.7001 404.5,-448.7001"/>
<ellipse fill="none" stroke="#000000" cx="401.3" cy="-448.7001" rx="3.2" ry="3.2"/>
</g>
<!-- simulation_audit -->
<g id="node9" class="node">
<title>simulation_audit</title>
<g id="a_node9"><a xlink:href="../../tables/simulation_audit.html" xlink:title="simulation_audit" target="_top">
<polygon fill="#ffffff" stroke="transparent" points="719,-695.2 719,-756.2 870,-756.2 870,-695.2 719,-695.2"/>
<polygon fill="#f5f5f5" stroke="transparent" points="719.5,-732.7 719.5,-755.7 870.5,-755.7 870.5,-732.7 719.5,-732.7"/>
<polygon fill="none" stroke="#000000" points="719.5,-732.7 719.5,-755.7 870.5,-755.7 870.5,-732.7 719.5,-732.7"/>
<text text-anchor="start" x="724.5" y="-741.3" font-family="Helvetica,sans-Serif" font-weight="bold" font-size="11.00" fill="#000000">simulation_audit</text>
<text text-anchor="start" x="836.0219" y="-740.8" font-family="Helvetica,sans-Serif" font-size="11.00" fill="#000000">[table]</text>
<polygon fill="none" stroke="#000000" points="719.5,-713.7 719.5,-732.7 870.5,-732.7 870.5,-713.7 719.5,-713.7"/>
<text text-anchor="start" x="722.5" y="-719.8" font-family="Helvetica,sans-Serif" font-size="11.00" fill="#000000">...</text>
<polygon fill="#ffffff" stroke="transparent" points="719.5,-694.7 719.5,-713.7 793.5,-713.7 793.5,-694.7 719.5,-694.7"/>
<polygon fill="none" stroke="#000000" points="719.5,-694.7 719.5,-713.7 793.5,-713.7 793.5,-694.7 719.5,-694.7"/>
<text text-anchor="start" x="722.5" y="-700.8" font-family="Helvetica,sans-Serif" font-size="11.00" fill="#000000">&lt; 1</text>
<polygon fill="#ffffff" stroke="transparent" points="793.5,-694.7 793.5,-713.7 831.5,-713.7 831.5,-694.7 793.5,-694.7"/>
<polygon fill="none" stroke="#000000" points="793.5,-694.7 793.5,-713.7 831.5,-713.7 831.5,-694.7 793.5,-694.7"/>
<text text-anchor="start" x="822.3862" y="-700.8" font-family="Helvetica,sans-Serif" font-size="11.00" fill="#000000"> &#160;</text>
<polygon fill="#ffffff" stroke="transparent" points="831.5,-694.7 831.5,-713.7 870.5,-713.7 870.5,-694.7 831.5,-694.7"/>
<polygon fill="none" stroke="#000000" points="831.5,-694.7 831.5,-713.7 870.5,-713.7 870.5,-694.7 831.5,-694.7"/>
<text text-anchor="start" x="861.3862" y="-700.8" font-family="Helvetica,sans-Serif" font-size="11.00" fill="#000000"> &#160;</text>
</a>
</g>
</g>
<!-- simulation_runs -->
<g id="node10" class="node">
<title>simulation_runs</title>
<g id="a_node10"><a xlink:href="../../tables/simulation_runs.html" xlink:title="simulation_runs" target="_top">
<polygon fill="#ffffff" stroke="transparent" points="441.5,-526.2 441.5,-697.2 587.5,-697.2 587.5,-526.2 441.5,-526.2"/>
<polygon fill="#f5f5f5" stroke="transparent" points="441.5,-673.7 441.5,-696.7 587.5,-696.7 587.5,-673.7 441.5,-673.7"/>
<polygon fill="none" stroke="#000000" points="441.5,-673.7 441.5,-696.7 587.5,-696.7 587.5,-673.7 441.5,-673.7"/>
<text text-anchor="start" x="446.5" y="-682.3" font-family="Helvetica,sans-Serif" font-weight="bold" font-size="11.00" fill="#000000">simulation_runs</text>
<text text-anchor="start" x="553.0219" y="-681.8" font-family="Helvetica,sans-Serif" font-size="11.00" fill="#000000">[table]</text>
<polygon fill="none" stroke="#000000" points="441.5,-651.7 441.5,-673.7 587.5,-673.7 587.5,-651.7 441.5,-651.7"/>
<image xlink:href="../../images/primaryKeys.png" width="11px" height="12px" preserveAspectRatio="xMinYMin meet" x="446.5" y="-668.7"/>
<text text-anchor="start" x="468.5" y="-658.8" font-family="Helvetica,sans-Serif" font-size="11.00" fill="#000000">id</text>
<polygon fill="#ffffff" stroke="transparent" points="441.5,-629.7 441.5,-651.7 587.5,-651.7 587.5,-629.7 441.5,-629.7"/>
<polygon fill="none" stroke="#000000" points="441.5,-629.7 441.5,-651.7 587.5,-651.7 587.5,-629.7 441.5,-629.7"/>
<text text-anchor="start" x="468.5" y="-636.8" font-family="Helvetica,sans-Serif" font-size="11.00" fill="#000000">run_id</text>
<polygon fill="#ffffff" stroke="transparent" points="441.5,-607.7 441.5,-629.7 587.5,-629.7 587.5,-607.7 441.5,-607.7"/>
<polygon fill="none" stroke="#000000" points="441.5,-607.7 441.5,-629.7 587.5,-629.7 587.5,-607.7 441.5,-607.7"/>
<image xlink:href="../../images/foreignKeys.png" width="11px" height="12px" preserveAspectRatio="xMinYMin meet" x="446.5" y="-624.7"/>
<text text-anchor="start" x="468.5" y="-614.8" font-family="Helvetica,sans-Serif" font-size="11.00" fill="#000000">portfolio_id</text>
<polygon fill="#ffffff" stroke="transparent" points="441.5,-585.7 441.5,-607.7 587.5,-607.7 587.5,-585.7 441.5,-585.7"/>
<polygon fill="none" stroke="#000000" points="441.5,-585.7 441.5,-607.7 587.5,-607.7 587.5,-585.7 441.5,-585.7"/>
<text text-anchor="start" x="468.5" y="-592.8" font-family="Helvetica,sans-Serif" font-size="11.00" fill="#000000">status</text>
<polygon fill="#ffffff" stroke="transparent" points="441.5,-563.7 441.5,-585.7 587.5,-585.7 587.5,-563.7 441.5,-563.7"/>
<polygon fill="none" stroke="#000000" points="441.5,-563.7 441.5,-585.7 587.5,-585.7 587.5,-563.7 441.5,-563.7"/>
<text text-anchor="start" x="468.5" y="-570.8" font-family="Helvetica,sans-Serif" font-size="11.00" fill="#000000">created_at</text>
<polygon fill="none" stroke="#000000" points="441.5,-544.7 441.5,-563.7 587.5,-563.7 587.5,-544.7 441.5,-544.7"/>
<text text-anchor="start" x="444.5" y="-550.8" font-family="Helvetica,sans-Serif" font-size="11.00" fill="#000000">...</text>
<polygon fill="#ffffff" stroke="transparent" points="441.5,-525.7 441.5,-544.7 508.5,-544.7 508.5,-525.7 441.5,-525.7"/>
<polygon fill="none" stroke="#000000" points="441.5,-525.7 441.5,-544.7 508.5,-544.7 508.5,-525.7 441.5,-525.7"/>
<text text-anchor="start" x="444.5" y="-531.8" font-family="Helvetica,sans-Serif" font-size="11.00" fill="#000000">&lt; 1</text>
<polygon fill="#ffffff" stroke="transparent" points="508.5,-525.7 508.5,-544.7 543.5,-544.7 543.5,-525.7 508.5,-525.7"/>
<polygon fill="none" stroke="#000000" points="508.5,-525.7 508.5,-544.7 543.5,-544.7 543.5,-525.7 508.5,-525.7"/>
<text text-anchor="start" x="534.3862" y="-531.8" font-family="Helvetica,sans-Serif" font-size="11.00" fill="#000000"> &#160;</text>
<polygon fill="#ffffff" stroke="transparent" points="543.5,-525.7 543.5,-544.7 587.5,-544.7 587.5,-525.7 543.5,-525.7"/>
<polygon fill="none" stroke="#000000" points="543.5,-525.7 543.5,-544.7 587.5,-544.7 587.5,-525.7 543.5,-525.7"/>
<text text-anchor="start" x="568.9053" y="-531.8" font-family="Helvetica,sans-Serif" font-size="11.00" fill="#000000">3 &gt;</text>
</a>
</g>
</g>
<!-- simulation_audit&#45;&gt;simulation_runs -->
<g id="edge9" class="edge">
<title>simulation_audit:w&#45;&gt;simulation_runs:e</title>
<path fill="none" stroke="#000000" d="M704.96,-721.3452C650.9326,-710.6836 651.3042,-640.7 587.5,-640.7"/>
<polygon fill="#000000" stroke="#000000" points="711.5345,-721.9577 719.166,-726.2845 715.5173,-722.3289 719.5,-722.7 719.5,-722.7 719.5,-722.7 715.5173,-722.3289 719.834,-719.1155 711.5345,-721.9577 711.5345,-721.9577"/>
<ellipse fill="none" stroke="#000000" cx="708.3483" cy="-721.6608" rx="3.2" ry="3.2"/>
</g>
<!-- simulation_runs&#45;&gt;cds_portfolios -->
<g id="edge12" class="edge">
<title>simulation_runs:w&#45;&gt;cds_portfolios:e</title>
<path fill="none" stroke="#000000" d="M430.272,-609.073C404.9496,-573.1106 363.1042,-448.7 344.5,-448.7"/>
<polygon fill="#000000" stroke="#000000" points="435.4267,-613.4927 439.1567,-621.433 438.4634,-616.0964 441.5,-618.7 441.5,-618.7 441.5,-618.7 438.4634,-616.0964 443.8433,-615.967 435.4267,-613.4927 435.4267,-613.4927"/>
<ellipse fill="none" stroke="#000000" cx="432.9974" cy="-611.4098" rx="3.2" ry="3.2"/>
</g>
<!-- simulation_contributors -->
<g id="node11" class="node">
<title>simulation_contributors</title>
<g id="a_node11"><a xlink:href="../../tables/simulation_contributors.html" xlink:title="simulation_contributors" target="_top">
<polygon fill="#ffffff" stroke="transparent" points="695,-613.2 695,-674.2 894,-674.2 894,-613.2 695,-613.2"/>
<polygon fill="#f5f5f5" stroke="transparent" points="695.5,-650.7 695.5,-673.7 894.5,-673.7 894.5,-650.7 695.5,-650.7"/>
<polygon fill="none" stroke="#000000" points="695.5,-650.7 695.5,-673.7 894.5,-673.7 894.5,-650.7 695.5,-650.7"/>
<text text-anchor="start" x="700.5" y="-659.3" font-family="Helvetica,sans-Serif" font-weight="bold" font-size="11.00" fill="#000000">simulation_contributors</text>
<text text-anchor="start" x="860.0219" y="-658.8" font-family="Helvetica,sans-Serif" font-size="11.00" fill="#000000">[table]</text>
<polygon fill="none" stroke="#000000" points="695.5,-631.7 695.5,-650.7 894.5,-650.7 894.5,-631.7 695.5,-631.7"/>
<text text-anchor="start" x="698.5" y="-637.8" font-family="Helvetica,sans-Serif" font-size="11.00" fill="#000000">...</text>
<polygon fill="#ffffff" stroke="transparent" points="695.5,-612.7 695.5,-631.7 793.5,-631.7 793.5,-612.7 695.5,-612.7"/>
<polygon fill="none" stroke="#000000" points="695.5,-612.7 695.5,-631.7 793.5,-631.7 793.5,-612.7 695.5,-612.7"/>
<text text-anchor="start" x="698.5" y="-618.8" font-family="Helvetica,sans-Serif" font-size="11.00" fill="#000000">&lt; 1</text>
<polygon fill="#ffffff" stroke="transparent" points="793.5,-612.7 793.5,-631.7 843.5,-631.7 843.5,-612.7 793.5,-612.7"/>
<polygon fill="none" stroke="#000000" points="793.5,-612.7 793.5,-631.7 843.5,-631.7 843.5,-612.7 793.5,-612.7"/>
<text text-anchor="start" x="834.3862" y="-618.8" font-family="Helvetica,sans-Serif" font-size="11.00" fill="#000000"> &#160;</text>
<polygon fill="#ffffff" stroke="transparent" points="843.5,-612.7 843.5,-631.7 894.5,-631.7 894.5,-612.7 843.5,-612.7"/>
<polygon fill="none" stroke="#000000" points="843.5,-612.7 843.5,-631.7 894.5,-631.7 894.5,-612.7 843.5,-612.7"/>
<text text-anchor="start" x="885.3862" y="-618.8" font-family="Helvetica,sans-Serif" font-size="11.00" fill="#000000"> &#160;</text>
</a>
</g>
</g>
<!-- simulation_contributors&#45;&gt;simulation_runs -->
<g id="edge10" class="edge">
<title>simulation_contributors:w&#45;&gt;simulation_runs:e</title>
<path fill="none" stroke="#000000" d="M680.9478,-640.7C644.4443,-640.7 630.25,-640.7 587.5,-640.7"/>
<polygon fill="#000000" stroke="#000000" points="687.5,-640.7001 695.5,-644.3 691.5,-640.7 695.5,-640.7 695.5,-640.7 695.5,-640.7 691.5,-640.7 695.5,-637.1 687.5,-640.7001 687.5,-640.7001"/>
<ellipse fill="none" stroke="#000000" cx="684.3" cy="-640.7001" rx="3.2" ry="3.2"/>
</g>
<!-- simulation_horizon_metrics -->
<g id="node12" class="node">
<title>simulation_horizon_metrics</title>
<g id="a_node12"><a xlink:href="../../tables/simulation_horizon_metrics.html" xlink:title="simulation_horizon_metrics" target="_top">
<polygon fill="#ffffff" stroke="transparent" points="683,-531.2 683,-592.2 906,-592.2 906,-531.2 683,-531.2"/>
<polygon fill="#f5f5f5" stroke="transparent" points="683.5,-568.7 683.5,-591.7 906.5,-591.7 906.5,-568.7 683.5,-568.7"/>
<polygon fill="none" stroke="#000000" points="683.5,-568.7 683.5,-591.7 906.5,-591.7 906.5,-568.7 683.5,-568.7"/>
<text text-anchor="start" x="688.5" y="-577.3" font-family="Helvetica,sans-Serif" font-weight="bold" font-size="11.00" fill="#000000">simulation_horizon_metrics</text>
<text text-anchor="start" x="872.0219" y="-576.8" font-family="Helvetica,sans-Serif" font-size="11.00" fill="#000000">[table]</text>
<polygon fill="none" stroke="#000000" points="683.5,-549.7 683.5,-568.7 906.5,-568.7 906.5,-549.7 683.5,-549.7"/>
<text text-anchor="start" x="686.5" y="-555.8" font-family="Helvetica,sans-Serif" font-size="11.00" fill="#000000">...</text>
<polygon fill="#ffffff" stroke="transparent" points="683.5,-530.7 683.5,-549.7 793.5,-549.7 793.5,-530.7 683.5,-530.7"/>
<polygon fill="none" stroke="#000000" points="683.5,-530.7 683.5,-549.7 793.5,-549.7 793.5,-530.7 683.5,-530.7"/>
<text text-anchor="start" x="686.5" y="-536.8" font-family="Helvetica,sans-Serif" font-size="11.00" fill="#000000">&lt; 1</text>
<polygon fill="#ffffff" stroke="transparent" points="793.5,-530.7 793.5,-549.7 849.5,-549.7 849.5,-530.7 793.5,-530.7"/>
<polygon fill="none" stroke="#000000" points="793.5,-530.7 793.5,-549.7 849.5,-549.7 849.5,-530.7 793.5,-530.7"/>
<text text-anchor="start" x="840.3862" y="-536.8" font-family="Helvetica,sans-Serif" font-size="11.00" fill="#000000"> &#160;</text>
<polygon fill="#ffffff" stroke="transparent" points="849.5,-530.7 849.5,-549.7 906.5,-549.7 906.5,-530.7 849.5,-530.7"/>
<polygon fill="none" stroke="#000000" points="849.5,-530.7 849.5,-549.7 906.5,-549.7 906.5,-530.7 849.5,-530.7"/>
<text text-anchor="start" x="897.3862" y="-536.8" font-family="Helvetica,sans-Serif" font-size="11.00" fill="#000000"> &#160;</text>
</a>
</g>
</g>
<!-- simulation_horizon_metrics&#45;&gt;simulation_runs -->
<g id="edge11" class="edge">
<title>simulation_horizon_metrics:w&#45;&gt;simulation_runs:e</title>
<path fill="none" stroke="#000000" d="M669.2503,-560.8094C629.8304,-573.6443 638.2426,-640.7 587.5,-640.7"/>
<polygon fill="#000000" stroke="#000000" points="675.5862,-559.8715 684.0272,-562.2612 679.5431,-559.2858 683.5,-558.7 683.5,-558.7 683.5,-558.7 679.5431,-559.2858 682.9728,-555.1388 675.5862,-559.8715 675.5862,-559.8715"/>
<ellipse fill="none" stroke="#000000" cx="672.4207" cy="-560.3401" rx="3.2" ry="3.2"/>
</g>
</g>
</svg>
