<?xml version="1.0" encoding="UTF-8" standalone="no"?>
<!DOCTYPE svg PUBLIC "-//W3C//DTD SVG 1.1//EN"
 "http://www.w3.org/Graphics/SVG/1.1/DTD/svg11.dtd">
<!-- Generated by graphviz version 2.40.1 (20161225.0304)
 -->
<!-- Title: twoDegreesRelationshipsDiagram Pages: 1 -->
<svg width="902pt" height="950pt"
 viewBox="0.00 0.00 902.00 950.20" xmlns="http://www.w3.org/2000/svg" xmlns:xlink="http://www.w3.org/1999/xlink">
<g id="graph0" class="graph" transform="scale(1 1) rotate(0) translate(4 946.2)">
<title>twoDegreesRelationshipsDiagram</title>
<polygon fill="#ffffff" stroke="transparent" points="-4,4 -4,-946.2 898,-946.2 898,4 -4,4"/>
<text text-anchor="middle" x="72.4936" y="-7.3" font-family="Helvetica,sans-Serif" font-size="11.00" fill="#000000">Generated by SchemaSpy</text>
<!-- accrual_events -->
<g id="node1" class="node">
<title>accrual_events</title>
<g id="a_node1"><a xlink:href="../../tables/accrual_events.html" xlink:title="accrual_events" target="_top">
<polygon fill="#ffffff" stroke="transparent" points="671.5,-851.2 671.5,-912.2 810.5,-912.2 810.5,-851.2 671.5,-851.2"/>
<polygon fill="#f5f5f5" stroke="transparent" points="672,-888.7 672,-911.7 811,-911.7 811,-888.7 672,-888.7"/>
<polygon fill="none" stroke="#000000" points="672,-888.7 672,-911.7 811,-911.7 811,-888.7 672,-888.7"/>
<text text-anchor="start" x="677" y="-897.3" font-family="Helvetica,sans-Serif" font-weight="bold" font-size="11.00" fill="#000000">accrual_events</text>
<text text-anchor="start" x="776.5219" y="-896.8" font-family="Helvetica,sans-Serif" font-size="11.00" fill="#000000">[table]</text>
<polygon fill="none" stroke="#000000" points="672,-869.7 672,-888.7 811,-888.7 811,-869.7 672,-869.7"/>
<text text-anchor="start" x="675" y="-875.8" font-family="Helvetica,sans-Serif" font-size="11.00" fill="#000000">...</text>
<polygon fill="#ffffff" stroke="transparent" points="672,-850.7 672,-869.7 740,-869.7 740,-850.7 672,-850.7"/>
<polygon fill="none" stroke="#000000" points="672,-850.7 672,-869.7 740,-869.7 740,-850.7 672,-850.7"/>
<text text-anchor="start" x="675" y="-856.8" font-family="Helvetica,sans-Serif" font-size="11.00" fill="#000000">&lt; 2</text>
<polygon fill="#ffffff" stroke="transparent" points="740,-850.7 740,-869.7 775,-869.7 775,-850.7 740,-850.7"/>
<polygon fill="none" stroke="#000000" points="740,-850.7 740,-869.7 775,-869.7 775,-850.7 740,-850.7"/>
<text text-anchor="start" x="765.8862" y="-856.8" font-family="Helvetica,sans-Serif" font-size="11.00" fill="#000000"> &#160;</text>
<polygon fill="#ffffff" stroke="transparent" points="775,-850.7 775,-869.7 811,-869.7 811,-850.7 775,-850.7"/>
<polygon fill="none" stroke="#000000" points="775,-850.7 775,-869.7 811,-869.7 811,-850.7 775,-850.7"/>
<text text-anchor="start" x="801.8862" y="-856.8" font-family="Helvetica,sans-Serif" font-size="11.00" fill="#000000"> &#160;</text>
</a>
</g>
</g>
<!-- coupon_periods -->
<g id="node2" class="node">
<title>coupon_periods</title>
<g id="a_node2"><a xlink:href="../../tables/coupon_periods.html" xlink:title="coupon_periods" target="_top">
<polygon fill="#ffffff" stroke="transparent" points="349.5,-877.2 349.5,-938.2 494.5,-938.2 494.5,-877.2 349.5,-877.2"/>
<polygon fill="#f5f5f5" stroke="transparent" points="350,-914.7 350,-937.7 495,-937.7 495,-914.7 350,-914.7"/>
<polygon fill="none" stroke="#000000" points="350,-914.7 350,-937.7 495,-937.7 495,-914.7 350,-914.7"/>
<text text-anchor="start" x="355" y="-923.3" font-family="Helvetica,sans-Serif" font-weight="bold" font-size="11.00" fill="#000000">coupon_periods</text>
<text text-anchor="start" x="460.5219" y="-922.8" font-family="Helvetica,sans-Serif" font-size="11.00" fill="#000000">[table]</text>
<polygon fill="none" stroke="#000000" points="350,-895.7 350,-914.7 495,-914.7 495,-895.7 350,-895.7"/>
<text text-anchor="start" x="353" y="-901.8" font-family="Helvetica,sans-Serif" font-size="11.00" fill="#000000">...</text>
<polygon fill="#ffffff" stroke="transparent" points="350,-876.7 350,-895.7 416,-895.7 416,-876.7 350,-876.7"/>
<polygon fill="none" stroke="#000000" points="350,-876.7 350,-895.7 416,-895.7 416,-876.7 350,-876.7"/>
<text text-anchor="start" x="353" y="-882.8" font-family="Helvetica,sans-Serif" font-size="11.00" fill="#000000">&lt; 1</text>
<polygon fill="#ffffff" stroke="transparent" points="416,-876.7 416,-895.7 451,-895.7 451,-876.7 416,-876.7"/>
<polygon fill="none" stroke="#000000" points="416,-876.7 416,-895.7 451,-895.7 451,-876.7 416,-876.7"/>
<text text-anchor="start" x="441.8862" y="-882.8" font-family="Helvetica,sans-Serif" font-size="11.00" fill="#000000"> &#160;</text>
<polygon fill="#ffffff" stroke="transparent" points="451,-876.7 451,-895.7 495,-895.7 495,-876.7 451,-876.7"/>
<polygon fill="none" stroke="#000000" points="451,-876.7 451,-895.7 495,-895.7 495,-876.7 451,-876.7"/>
<text text-anchor="start" x="476.4053" y="-882.8" font-family="Helvetica,sans-Serif" font-size="11.00" fill="#000000">1 &gt;</text>
</a>
</g>
</g>
<!-- accrual_events&#45;&gt;coupon_periods -->
<g id="edge1" class="edge">
<title>accrual_events:w&#45;&gt;coupon_periods:e</title>
<path fill="none" stroke="#000000" d="M657.3597,-879.0101C589.916,-881.9436 569.3861,-904.7 495,-904.7"/>
<polygon fill="#000000" stroke="#000000" points="664.0018,-878.8695 672.0763,-882.2992 668.0009,-878.7847 672,-878.7 672,-878.7 672,-878.7 668.0009,-878.7847 671.9237,-875.1008 664.0018,-878.8695 664.0018,-878.8695"/>
<ellipse fill="none" stroke="#000000" cx="660.8025" cy="-878.9373" rx="3.2" ry="3.2"/>
</g>
<!-- cds_trades -->
<g id="node3" class="node">
<title>cds_trades</title>
<g id="a_node3"><a xlink:href="../../tables/cds_trades.html" xlink:title="cds_trades" target="_top">
<polygon fill="#ffffff" stroke="transparent" points="137,-404.2 137,-465.2 248,-465.2 248,-404.2 137,-404.2"/>
<polygon fill="#f5f5f5" stroke="transparent" points="137.5,-441.7 137.5,-464.7 248.5,-464.7 248.5,-441.7 137.5,-441.7"/>
<polygon fill="none" stroke="#000000" points="137.5,-441.7 137.5,-464.7 248.5,-464.7 248.5,-441.7 137.5,-441.7"/>
<text text-anchor="start" x="142.5" y="-450.3" font-family="Helvetica,sans-Serif" font-weight="bold" font-size="11.00" fill="#000000">cds_trades</text>
<text text-anchor="start" x="214.0219" y="-449.8" font-family="Helvetica,sans-Serif" font-size="11.00" fill="#000000">[table]</text>
<polygon fill="none" stroke="#000000" points="137.5,-422.7 137.5,-441.7 248.5,-441.7 248.5,-422.7 137.5,-422.7"/>
<text text-anchor="start" x="140.5" y="-428.8" font-family="Helvetica,sans-Serif" font-size="11.00" fill="#000000">...</text>
<polygon fill="#ffffff" stroke="transparent" points="137.5,-403.7 137.5,-422.7 183.5,-422.7 183.5,-403.7 137.5,-403.7"/>
<polygon fill="none" stroke="#000000" points="137.5,-403.7 137.5,-422.7 183.5,-422.7 183.5,-403.7 137.5,-403.7"/>
<text text-anchor="start" x="140.5" y="-409.8" font-family="Helvetica,sans-Serif" font-size="11.00" fill="#000000">&lt; 2</text>
<polygon fill="#ffffff" stroke="transparent" points="183.5,-403.7 183.5,-422.7 208.5,-422.7 208.5,-403.7 183.5,-403.7"/>
<polygon fill="none" stroke="#000000" points="183.5,-403.7 183.5,-422.7 208.5,-422.7 208.5,-403.7 183.5,-403.7"/>
<text text-anchor="start" x="199.3862" y="-409.8" font-family="Helvetica,sans-Serif" font-size="11.00" fill="#000000"> &#160;</text>
<polygon fill="#ffffff" stroke="transparent" points="208.5,-403.7 208.5,-422.7 248.5,-422.7 248.5,-403.7 208.5,-403.7"/>
<polygon fill="none" stroke="#000000" points="208.5,-403.7 208.5,-422.7 248.5,-422.7 248.5,-403.7 208.5,-403.7"/>
<text text-anchor="start" x="223.7904" y="-409.8" font-family="Helvetica,sans-Serif" font-size="11.00" fill="#000000">13 &gt;</text>
</a>
</g>
</g>
<!-- accrual_events&#45;&gt;cds_trades -->
<g id="edge2" class="edge">
<title>accrual_events:w&#45;&gt;cds_trades:e</title>
<path fill="none" stroke="#000000" d="M657.5355,-877.2341C588.031,-869.7319 292.5599,-835.8617 289,-832.7 234.3783,-784.1879 205.2671,-557.0962 195.9074,-469.3893"/>
<polygon fill="#000000" stroke="#000000" points="664.0408,-877.8933 671.637,-882.2817 668.0204,-878.2967 672,-878.7 672,-878.7 672,-878.7 668.0204,-878.2967 672.363,-875.1183 664.0408,-877.8933 664.0408,-877.8933"/>
<ellipse fill="none" stroke="#000000" cx="660.8571" cy="-877.5707" rx="3.2" ry="3.2"/>
</g>
<!-- coupon_periods&#45;&gt;cds_trades -->
<g id="edge11" class="edge">
<title>coupon_periods:w&#45;&gt;cds_trades:e</title>
<path fill="none" stroke="#000000" d="M335.537,-903.5198C313.6839,-899.5273 304.4179,-885.4903 289,-862.7 244.9319,-797.5597 209.1685,-559.0227 196.9857,-469.2114"/>
<polygon fill="#000000" stroke="#000000" points="342.0265,-904.0493 349.7072,-908.2881 346.0133,-904.3746 350,-904.7 350,-904.7 350,-904.7 346.0133,-904.3746 350.2928,-901.1119 342.0265,-904.0493 342.0265,-904.0493"/>
<ellipse fill="none" stroke="#000000" cx="338.8371" cy="-903.789" rx="3.2" ry="3.2"/>
</g>
<!-- bonds -->
<g id="node8" class="node">
<title>bonds</title>
<g id="a_node8"><a xlink:href="../../tables/bonds.html" xlink:title="bonds" target="_top">
<polygon fill="#ffffff" stroke="transparent" points="8,-407.2 8,-468.2 88,-468.2 88,-407.2 8,-407.2"/>
<polygon fill="#f5f5f5" stroke="transparent" points="8,-444.7 8,-467.7 88,-467.7 88,-444.7 8,-444.7"/>
<polygon fill="none" stroke="#000000" points="8,-444.7 8,-467.7 88,-467.7 88,-444.7 8,-444.7"/>
<text text-anchor="start" x="13" y="-453.3" font-family="Helvetica,sans-Serif" font-weight="bold" font-size="11.00" fill="#000000">bonds</text>
<text text-anchor="start" x="53.5219" y="-452.8" font-family="Helvetica,sans-Serif" font-size="11.00" fill="#000000">[table]</text>
<polygon fill="none" stroke="#000000" points="8,-425.7 8,-444.7 88,-444.7 88,-425.7 8,-425.7"/>
<text text-anchor="start" x="11" y="-431.8" font-family="Helvetica,sans-Serif" font-size="11.00" fill="#000000">...</text>
<polygon fill="#ffffff" stroke="transparent" points="8,-406.7 8,-425.7 37,-425.7 37,-406.7 8,-406.7"/>
<polygon fill="none" stroke="#000000" points="8,-406.7 8,-425.7 37,-425.7 37,-406.7 8,-406.7"/>
<text text-anchor="start" x="11" y="-412.8" font-family="Helvetica,sans-Serif" font-size="11.00" fill="#000000"> &#160;</text>
<polygon fill="#ffffff" stroke="transparent" points="37,-406.7 37,-425.7 58,-425.7 58,-406.7 37,-406.7"/>
<polygon fill="none" stroke="#000000" points="37,-406.7 37,-425.7 58,-425.7 58,-406.7 37,-406.7"/>
<text text-anchor="start" x="48.8862" y="-412.8" font-family="Helvetica,sans-Serif" font-size="11.00" fill="#000000"> &#160;</text>
<polygon fill="#ffffff" stroke="transparent" points="58,-406.7 58,-425.7 88,-425.7 88,-406.7 58,-406.7"/>
<polygon fill="none" stroke="#000000" points="58,-406.7 58,-425.7 88,-425.7 88,-406.7 58,-406.7"/>
<text text-anchor="start" x="69.4053" y="-412.8" font-family="Helvetica,sans-Serif" font-size="11.00" fill="#000000">2 &gt;</text>
</a>
</g>
</g>
<!-- cds_trades&#45;&gt;bonds -->
<g id="edge9" class="edge">
<title>cds_trades:w&#45;&gt;bonds:e</title>
<path fill="none" stroke="#000000" d="M114.5141,-434.7C105.5727,-434.7 96.5879,-434.7 88,-434.7"/>
<polygon fill="#000000" stroke="#000000" points="120.9488,-434.7001 128.9489,-438.3 124.9488,-434.7 128.9488,-434.7 128.9488,-434.7 128.9488,-434.7 124.9488,-434.7 128.9488,-431.1 120.9488,-434.7001 120.9488,-434.7001"/>
<ellipse fill="none" stroke="#000000" cx="117.7488" cy="-434.7001" rx="3.2" ry="3.2"/>
</g>
<!-- cds_cash_settlements -->
<g id="node4" class="node">
<title>cds_cash_settlements</title>
<g id="a_node4"><a xlink:href="../../tables/cds_cash_settlements.html" xlink:title="cds_cash_settlements" target="_top">
<polygon fill="#ffffff" stroke="transparent" points="648.5,-752.2 648.5,-813.2 833.5,-813.2 833.5,-752.2 648.5,-752.2"/>
<polygon fill="#f5f5f5" stroke="transparent" points="649,-789.7 649,-812.7 834,-812.7 834,-789.7 649,-789.7"/>
<polygon fill="none" stroke="#000000" points="649,-789.7 649,-812.7 834,-812.7 834,-789.7 649,-789.7"/>
<text text-anchor="start" x="654" y="-798.3" font-family="Helvetica,sans-Serif" font-weight="bold" font-size="11.00" fill="#000000">cds_cash_settlements</text>
<text text-anchor="start" x="799.5219" y="-797.8" font-family="Helvetica,sans-Serif" font-size="11.00" fill="#000000">[table]</text>
<polygon fill="none" stroke="#000000" points="649,-770.7 649,-789.7 834,-789.7 834,-770.7 649,-770.7"/>
<text text-anchor="start" x="652" y="-776.8" font-family="Helvetica,sans-Serif" font-size="11.00" fill="#000000">...</text>
<polygon fill="#ffffff" stroke="transparent" points="649,-751.7 649,-770.7 740,-770.7 740,-751.7 649,-751.7"/>
<polygon fill="none" stroke="#000000" points="649,-751.7 649,-770.7 740,-770.7 740,-751.7 649,-751.7"/>
<text text-anchor="start" x="652" y="-757.8" font-family="Helvetica,sans-Serif" font-size="11.00" fill="#000000">&lt; 2</text>
<polygon fill="#ffffff" stroke="transparent" points="740,-751.7 740,-770.7 787,-770.7 787,-751.7 740,-751.7"/>
<polygon fill="none" stroke="#000000" points="740,-751.7 740,-770.7 787,-770.7 787,-751.7 740,-751.7"/>
<text text-anchor="start" x="777.8862" y="-757.8" font-family="Helvetica,sans-Serif" font-size="11.00" fill="#000000"> &#160;</text>
<polygon fill="#ffffff" stroke="transparent" points="787,-751.7 787,-770.7 834,-770.7 834,-751.7 787,-751.7"/>
<polygon fill="none" stroke="#000000" points="787,-751.7 787,-770.7 834,-770.7 834,-751.7 787,-751.7"/>
<text text-anchor="start" x="824.8862" y="-757.8" font-family="Helvetica,sans-Serif" font-size="11.00" fill="#000000"> &#160;</text>
</a>
</g>
</g>
<!-- cds_cash_settlements&#45;&gt;cds_trades -->
<g id="edge4" class="edge">
<title>cds_cash_settlements:w&#45;&gt;cds_trades:e</title>
<path fill="none" stroke="#000000" d="M626.0967,-807.1424C509.6749,-829.0174 339.7157,-852.095 289,-812.7 234.3081,-770.2163 205.4158,-554.3952 196.0046,-469.2802"/>
<polygon fill="#000000" stroke="#000000" points="632.5143,-805.9169 641.0476,-807.9522 636.4433,-805.1665 640.3722,-804.4161 640.3722,-804.4161 640.3722,-804.4161 636.4433,-805.1665 639.6969,-800.8801 632.5143,-805.9169 632.5143,-805.9169"/>
<ellipse fill="none" stroke="#000000" cx="629.3711" cy="-806.5171" rx="3.2" ry="3.2"/>
</g>
<!-- cds_credit_events -->
<g id="node5" class="node">
<title>cds_credit_events</title>
<g id="a_node5"><a xlink:href="../../tables/cds_credit_events.html" xlink:title="cds_credit_events" target="_top">
<polygon fill="#ffffff" stroke="transparent" points="297,-557.7 297,-801.7 547,-801.7 547,-557.7 297,-557.7"/>
<polygon fill="#f5f5f5" stroke="transparent" points="299,-776.7 299,-799.7 545,-799.7 545,-776.7 299,-776.7"/>
<polygon fill="none" stroke="#000000" points="299,-776.7 299,-799.7 545,-799.7 545,-776.7 299,-776.7"/>
<text text-anchor="start" x="304" y="-785.3" font-family="Helvetica,sans-Serif" font-weight="bold" font-size="11.00" fill="#000000">cds_credit_events</text>
<text text-anchor="start" x="510.0437" y="-784.8" font-family="Helvetica,sans-Serif" font-size="11.00" fill="#000000">[table]</text>
<polygon fill="none" stroke="#000000" points="299,-754.7 299,-776.7 451,-776.7 451,-754.7 299,-754.7"/>
<image xlink:href="../../images/primaryKeys.png" width="11px" height="12px" preserveAspectRatio="xMinYMin meet" x="304" y="-771.7"/>
<text text-anchor="start" x="319" y="-761.8" font-family="Helvetica,sans-Serif" font-size="11.00" fill="#000000">id</text>
<polygon fill="none" stroke="#000000" points="451,-754.7 451,-776.7 545,-776.7 545,-754.7 451,-754.7"/>
<text text-anchor="start" x="453.9758" y="-762.4" font-family="Helvetica,sans-Serif" font-size="11.00" fill="#000000">uuid[2147483647]</text>
<polygon fill="#ffffff" stroke="transparent" points="299,-732.7 299,-754.7 451,-754.7 451,-732.7 299,-732.7"/>
<polygon fill="none" stroke="#000000" points="299,-732.7 299,-754.7 451,-754.7 451,-732.7 299,-732.7"/>
<image xlink:href="../../images/foreignKeys.png" width="11px" height="12px" preserveAspectRatio="xMinYMin meet" x="304" y="-749.7"/>
<text text-anchor="start" x="319" y="-739.8" font-family="Helvetica,sans-Serif" font-size="11.00" fill="#000000">trade_id</text>
<polygon fill="none" stroke="#000000" points="451,-732.7 451,-754.7 545,-754.7 545,-732.7 451,-732.7"/>
<text text-anchor="start" x="454" y="-740.4" font-family="Helvetica,sans-Serif" font-size="11.00" fill="#000000">int8[19]</text>
<polygon fill="#ffffff" stroke="transparent" points="299,-710.7 299,-732.7 451,-732.7 451,-710.7 299,-710.7"/>
<polygon fill="none" stroke="#000000" points="299,-710.7 299,-732.7 451,-732.7 451,-710.7 299,-710.7"/>
<text text-anchor="start" x="319" y="-717.8" font-family="Helvetica,sans-Serif" font-size="11.00" fill="#000000">event_type</text>
<polygon fill="none" stroke="#000000" points="451,-710.7 451,-732.7 545,-732.7 545,-710.7 451,-710.7"/>
<text text-anchor="start" x="454" y="-718.4" font-family="Helvetica,sans-Serif" font-size="11.00" fill="#000000">varchar[50]</text>
<polygon fill="#ffffff" stroke="transparent" points="299,-688.7 299,-710.7 451,-710.7 451,-688.7 299,-688.7"/>
<polygon fill="none" stroke="#000000" points="299,-688.7 299,-710.7 451,-710.7 451,-688.7 299,-688.7"/>
<text text-anchor="start" x="319" y="-695.8" font-family="Helvetica,sans-Serif" font-size="11.00" fill="#000000">event_date</text>
<polygon fill="none" stroke="#000000" points="451,-688.7 451,-710.7 545,-710.7 545,-688.7 451,-688.7"/>
<text text-anchor="start" x="454" y="-696.4" font-family="Helvetica,sans-Serif" font-size="11.00" fill="#000000">date[13]</text>
<polygon fill="none" stroke="#000000" points="299,-666.7 299,-688.7 451,-688.7 451,-666.7 299,-666.7"/>
<text text-anchor="start" x="319" y="-673.8" font-family="Helvetica,sans-Serif" font-size="11.00" fill="#000000">notice_date</text>
<polygon fill="none" stroke="#000000" points="451,-666.7 451,-688.7 545,-688.7 545,-666.7 451,-666.7"/>
<text text-anchor="start" x="454" y="-674.4" font-family="Helvetica,sans-Serif" font-size="11.00" fill="#000000">date[13]</text>
<polygon fill="none" stroke="#000000" points="299,-644.7 299,-666.7 451,-666.7 451,-644.7 299,-644.7"/>
<text text-anchor="start" x="319" y="-651.8" font-family="Helvetica,sans-Serif" font-size="11.00" fill="#000000">settlement_method</text>
<polygon fill="none" stroke="#000000" points="451,-644.7 451,-666.7 545,-666.7 545,-644.7 451,-644.7"/>
<text text-anchor="start" x="454" y="-652.4" font-family="Helvetica,sans-Serif" font-size="11.00" fill="#000000">varchar[20]</text>
<polygon fill="none" stroke="#000000" points="299,-622.7 299,-644.7 451,-644.7 451,-622.7 299,-622.7"/>
<text text-anchor="start" x="319" y="-629.8" font-family="Helvetica,sans-Serif" font-size="11.00" fill="#000000">comments</text>
<polygon fill="none" stroke="#000000" points="451,-622.7 451,-644.7 545,-644.7 545,-622.7 451,-622.7"/>
<text text-anchor="start" x="454" y="-630.4" font-family="Helvetica,sans-Serif" font-size="11.00" fill="#000000">text[2147483647]</text>
<polygon fill="none" stroke="#000000" points="299,-600.7 299,-622.7 451,-622.7 451,-600.7 299,-600.7"/>
<text text-anchor="start" x="319" y="-607.8" font-family="Helvetica,sans-Serif" font-size="11.00" fill="#000000">created_at</text>
<polygon fill="none" stroke="#000000" points="451,-600.7 451,-622.7 545,-622.7 545,-600.7 451,-600.7"/>
<text text-anchor="start" x="454" y="-608.4" font-family="Helvetica,sans-Serif" font-size="11.00" fill="#000000">timestamp[29,6]</text>
<polygon fill="none" stroke="#000000" points="299,-578.7 299,-600.7 451,-600.7 451,-578.7 299,-578.7"/>
<text text-anchor="start" x="319" y="-585.8" font-family="Helvetica,sans-Serif" font-size="11.00" fill="#000000">updated_at</text>
<polygon fill="none" stroke="#000000" points="451,-578.7 451,-600.7 545,-600.7 545,-578.7 451,-578.7"/>
<text text-anchor="start" x="454" y="-586.4" font-family="Helvetica,sans-Serif" font-size="11.00" fill="#000000">timestamp[29,6]</text>
<polygon fill="#ffffff" stroke="transparent" points="299,-559.7 299,-578.7 379,-578.7 379,-559.7 299,-559.7"/>
<polygon fill="none" stroke="#000000" points="299,-559.7 299,-578.7 379,-578.7 379,-559.7 299,-559.7"/>
<text text-anchor="start" x="302" y="-565.8" font-family="Helvetica,sans-Serif" font-size="11.00" fill="#000000">&lt; 1</text>
<polygon fill="#ffffff" stroke="transparent" points="379,-559.7 379,-578.7 451,-578.7 451,-559.7 379,-559.7"/>
<polygon fill="none" stroke="#000000" points="379,-559.7 379,-578.7 451,-578.7 451,-559.7 379,-559.7"/>
<text text-anchor="start" x="441.8862" y="-565.8" font-family="Helvetica,sans-Serif" font-size="11.00" fill="#000000"> &#160;</text>
<polygon fill="#ffffff" stroke="transparent" points="451,-559.7 451,-578.7 545,-578.7 545,-559.7 451,-559.7"/>
<polygon fill="none" stroke="#000000" points="451,-559.7 451,-578.7 545,-578.7 545,-559.7 451,-559.7"/>
<text text-anchor="start" x="526.4053" y="-565.8" font-family="Helvetica,sans-Serif" font-size="11.00" fill="#000000">2 &gt;</text>
<polygon fill="none" stroke="#000000" stroke-width="2" points="298,-558.7 298,-800.7 546,-800.7 546,-558.7 298,-558.7"/>
</a>
</g>
</g>
<!-- cds_cash_settlements&#45;&gt;cds_credit_events -->
<g id="edge3" class="edge">
<title>cds_cash_settlements:w&#45;&gt;cds_credit_events:e</title>
<path fill="none" stroke="#000000" d="M629.9166,-769.7022C602.2198,-767.389 572.5606,-765.7 545,-765.7"/>
<polygon fill="#000000" stroke="#000000" points="639.977,-766.5628 639.2831,-774.5327 637.6892,-774.3939 638.383,-766.424 639.977,-766.5628"/>
<polyline fill="none" stroke="#000000" points="640.427,-770.6171 636.4421,-770.2702 "/>
<ellipse fill="none" stroke="#000000" cx="633.2542" cy="-769.9927" rx="3.2" ry="3.2"/>
</g>
<!-- cds_credit_events&#45;&gt;cds_trades -->
<g id="edge5" class="edge">
<title>cds_credit_events:w&#45;&gt;cds_trades:e</title>
<path fill="none" stroke="#000000" d="M285.0199,-739.7806C236.0532,-711.9425 207.316,-543.1074 196.9403,-469.2468"/>
<polygon fill="#000000" stroke="#000000" points="291.297,-741.5404 298.0282,-747.1663 295.1485,-742.6202 299,-743.7 299,-743.7 299,-743.7 295.1485,-742.6202 299.9718,-740.2337 291.297,-741.5404 291.297,-741.5404"/>
<ellipse fill="none" stroke="#000000" cx="288.2158" cy="-740.6765" rx="3.2" ry="3.2"/>
</g>
<!-- cds_physical_settlement_instructions -->
<g id="node6" class="node">
<title>cds_physical_settlement_instructions</title>
<g id="a_node6"><a xlink:href="../../tables/cds_physical_settlement_instructions.html" xlink:title="cds_physical_settlement_instructions" target="_top">
<polygon fill="#ffffff" stroke="transparent" points="596,-586.2 596,-647.2 886,-647.2 886,-586.2 596,-586.2"/>
<polygon fill="#f5f5f5" stroke="transparent" points="596,-623.7 596,-646.7 886,-646.7 886,-623.7 596,-623.7"/>
<polygon fill="none" stroke="#000000" points="596,-623.7 596,-646.7 886,-646.7 886,-623.7 596,-623.7"/>
<text text-anchor="start" x="601" y="-632.3" font-family="Helvetica,sans-Serif" font-weight="bold" font-size="11.00" fill="#000000">cds_physical_settlement_instructions</text>
<text text-anchor="start" x="851.5219" y="-631.8" font-family="Helvetica,sans-Serif" font-size="11.00" fill="#000000">[table]</text>
<polygon fill="none" stroke="#000000" points="596,-604.7 596,-623.7 886,-623.7 886,-604.7 596,-604.7"/>
<text text-anchor="start" x="599" y="-610.8" font-family="Helvetica,sans-Serif" font-size="11.00" fill="#000000">...</text>
<polygon fill="#ffffff" stroke="transparent" points="596,-585.7 596,-604.7 739,-604.7 739,-585.7 596,-585.7"/>
<polygon fill="none" stroke="#000000" points="596,-585.7 596,-604.7 739,-604.7 739,-585.7 596,-585.7"/>
<text text-anchor="start" x="599" y="-591.8" font-family="Helvetica,sans-Serif" font-size="11.00" fill="#000000">&lt; 2</text>
<polygon fill="#ffffff" stroke="transparent" points="739,-585.7 739,-604.7 812,-604.7 812,-585.7 739,-585.7"/>
<polygon fill="none" stroke="#000000" points="739,-585.7 739,-604.7 812,-604.7 812,-585.7 739,-585.7"/>
<text text-anchor="start" x="802.8862" y="-591.8" font-family="Helvetica,sans-Serif" font-size="11.00" fill="#000000"> &#160;</text>
<polygon fill="#ffffff" stroke="transparent" points="812,-585.7 812,-604.7 886,-604.7 886,-585.7 812,-585.7"/>
<polygon fill="none" stroke="#000000" points="812,-585.7 812,-604.7 886,-604.7 886,-585.7 812,-585.7"/>
<text text-anchor="start" x="876.8862" y="-591.8" font-family="Helvetica,sans-Serif" font-size="11.00" fill="#000000"> &#160;</text>
</a>
</g>
</g>
<!-- cds_physical_settlement_instructions&#45;&gt;cds_trades -->
<g id="edge7" class="edge">
<title>cds_physical_settlement_instructions:w&#45;&gt;cds_trades:e</title>
<path fill="none" stroke="#000000" d="M647.7272,-576.9033C618.5079,-565.8547 585.8315,-554.9208 555,-547.7 439.2565,-520.5928 397.8566,-567.4661 289,-519.7 263.2402,-508.3966 239.4607,-487.6289 221.9525,-469.4515"/>
<polygon fill="#000000" stroke="#000000" points="653.8641,-579.2692 660.0335,-585.506 657.5963,-580.7081 661.3286,-582.147 661.3286,-582.147 661.3286,-582.147 657.5963,-580.7081 662.6236,-578.788 653.8641,-579.2692 653.8641,-579.2692"/>
<ellipse fill="none" stroke="#000000" cx="650.8783" cy="-578.1181" rx="3.2" ry="3.2"/>
</g>
<!-- cds_physical_settlement_instructions&#45;&gt;cds_credit_events -->
<g id="edge6" class="edge">
<title>cds_physical_settlement_instructions:w&#45;&gt;cds_credit_events:e</title>
<path fill="none" stroke="#000000" d="M690.0396,-657.8834C635.0054,-701.9838 553.9445,-765.7 545,-765.7"/>
<polygon fill="#000000" stroke="#000000" points="695.1686,-648.639 700.1755,-654.8786 698.9276,-655.8799 693.9207,-649.6404 695.1686,-648.639"/>
<polyline fill="none" stroke="#000000" points="698.296,-651.2581 695.1762,-653.7615 "/>
<ellipse fill="none" stroke="#000000" cx="692.6804" cy="-655.7643" rx="3.2" ry="3.2"/>
</g>
<!-- cds_portfolio_constituents -->
<g id="node7" class="node">
<title>cds_portfolio_constituents</title>
<g id="a_node7"><a xlink:href="../../tables/cds_portfolio_constituents.html" xlink:title="cds_portfolio_constituents" target="_top">
<polygon fill="#ffffff" stroke="transparent" points="313.5,-448.2 313.5,-509.2 530.5,-509.2 530.5,-448.2 313.5,-448.2"/>
<polygon fill="#f5f5f5" stroke="transparent" points="314,-485.7 314,-508.7 531,-508.7 531,-485.7 314,-485.7"/>
<polygon fill="none" stroke="#000000" points="314,-485.7 314,-508.7 531,-508.7 531,-485.7 314,-485.7"/>
<text text-anchor="start" x="319" y="-494.3" font-family="Helvetica,sans-Serif" font-weight="bold" font-size="11.00" fill="#000000">cds_portfolio_constituents</text>
<text text-anchor="start" x="496.5219" y="-493.8" font-family="Helvetica,sans-Serif" font-size="11.00" fill="#000000">[table]</text>
<polygon fill="none" stroke="#000000" points="314,-466.7 314,-485.7 531,-485.7 531,-466.7 314,-466.7"/>
<text text-anchor="start" x="317" y="-472.8" font-family="Helvetica,sans-Serif" font-size="11.00" fill="#000000">...</text>
<polygon fill="#ffffff" stroke="transparent" points="314,-447.7 314,-466.7 421,-466.7 421,-447.7 314,-447.7"/>
<polygon fill="none" stroke="#000000" points="314,-447.7 314,-466.7 421,-466.7 421,-447.7 314,-447.7"/>
<text text-anchor="start" x="317" y="-453.8" font-family="Helvetica,sans-Serif" font-size="11.00" fill="#000000">&lt; 2</text>
<polygon fill="#ffffff" stroke="transparent" points="421,-447.7 421,-466.7 476,-466.7 476,-447.7 421,-447.7"/>
<polygon fill="none" stroke="#000000" points="421,-447.7 421,-466.7 476,-466.7 476,-447.7 421,-447.7"/>
<text text-anchor="start" x="466.8862" y="-453.8" font-family="Helvetica,sans-Serif" font-size="11.00" fill="#000000"> &#160;</text>
<polygon fill="#ffffff" stroke="transparent" points="476,-447.7 476,-466.7 531,-466.7 531,-447.7 476,-447.7"/>
<polygon fill="none" stroke="#000000" points="476,-447.7 476,-466.7 531,-466.7 531,-447.7 476,-447.7"/>
<text text-anchor="start" x="521.8862" y="-453.8" font-family="Helvetica,sans-Serif" font-size="11.00" fill="#000000"> &#160;</text>
</a>
</g>
</g>
<!-- cds_portfolio_constituents&#45;&gt;cds_trades -->
<g id="edge8" class="edge">
<title>cds_portfolio_constituents:w&#45;&gt;cds_trades:e</title>
<path fill="none" stroke="#000000" d="M299.3552,-474.8624C284.636,-473.2376 269.826,-469.4018 256.1178,-464.7128"/>
<polygon fill="#000000" stroke="#000000" points="306.0131,-475.2432 313.7944,-479.2941 310.0065,-475.4716 314,-475.7 314,-475.7 314,-475.7 310.0065,-475.4716 314.2056,-472.1059 306.0131,-475.2432 306.0131,-475.2432"/>
<ellipse fill="none" stroke="#000000" cx="302.8183" cy="-475.0604" rx="3.2" ry="3.2"/>
</g>
<!-- compression_proposal_items -->
<g id="node9" class="node">
<title>compression_proposal_items</title>
<g id="a_node9"><a xlink:href="../../tables/compression_proposal_items.html" xlink:title="compression_proposal_items" target="_top">
<polygon fill="#ffffff" stroke="transparent" points="305.5,-366.2 305.5,-427.2 538.5,-427.2 538.5,-366.2 305.5,-366.2"/>
<polygon fill="#f5f5f5" stroke="transparent" points="306,-403.7 306,-426.7 539,-426.7 539,-403.7 306,-403.7"/>
<polygon fill="none" stroke="#000000" points="306,-403.7 306,-426.7 539,-426.7 539,-403.7 306,-403.7"/>
<text text-anchor="start" x="311" y="-412.3" font-family="Helvetica,sans-Serif" font-weight="bold" font-size="11.00" fill="#000000">compression_proposal_items</text>
<text text-anchor="start" x="504.5219" y="-411.8" font-family="Helvetica,sans-Serif" font-size="11.00" fill="#000000">[table]</text>
<polygon fill="none" stroke="#000000" points="306,-384.7 306,-403.7 539,-403.7 539,-384.7 306,-384.7"/>
<text text-anchor="start" x="309" y="-390.8" font-family="Helvetica,sans-Serif" font-size="11.00" fill="#000000">...</text>
<polygon fill="#ffffff" stroke="transparent" points="306,-365.7 306,-384.7 421,-384.7 421,-365.7 306,-365.7"/>
<polygon fill="none" stroke="#000000" points="306,-365.7 306,-384.7 421,-384.7 421,-365.7 306,-365.7"/>
<text text-anchor="start" x="309" y="-371.8" font-family="Helvetica,sans-Serif" font-size="11.00" fill="#000000">&lt; 2</text>
<polygon fill="#ffffff" stroke="transparent" points="421,-365.7 421,-384.7 480,-384.7 480,-365.7 421,-365.7"/>
<polygon fill="none" stroke="#000000" points="421,-365.7 421,-384.7 480,-384.7 480,-365.7 421,-365.7"/>
<text text-anchor="start" x="470.8862" y="-371.8" font-family="Helvetica,sans-Serif" font-size="11.00" fill="#000000"> &#160;</text>
<polygon fill="#ffffff" stroke="transparent" points="480,-365.7 480,-384.7 539,-384.7 539,-365.7 480,-365.7"/>
<polygon fill="none" stroke="#000000" points="480,-365.7 480,-384.7 539,-384.7 539,-365.7 480,-365.7"/>
<text text-anchor="start" x="529.8862" y="-371.8" font-family="Helvetica,sans-Serif" font-size="11.00" fill="#000000"> &#160;</text>
</a>
</g>
</g>
<!-- compression_proposal_items&#45;&gt;cds_trades -->
<g id="edge10" class="edge">
<title>compression_proposal_items:w&#45;&gt;cds_trades:e</title>
<path fill="none" stroke="#000000" d="M291.4532,-394.6318C279.4824,-396.1111 267.4971,-399.23 256.2086,-403.1062"/>
<polygon fill="#000000" stroke="#000000" points="298.0164,-394.2115 306.2302,-397.2926 302.0082,-393.9557 306,-393.7 306,-393.7 306,-393.7 302.0082,-393.9557 305.7698,-390.1074 298.0164,-394.2115 298.0164,-394.2115"/>
<ellipse fill="none" stroke="#000000" cx="294.8229" cy="-394.4161" rx="3.2" ry="3.2"/>
</g>
<!-- notional_adjustments -->
<g id="node10" class="node">
<title>notional_adjustments</title>
<g id="a_node10"><a xlink:href="../../tables/notional_adjustments.html" xlink:title="notional_adjustments" target="_top">
<polygon fill="#ffffff" stroke="transparent" points="330,-284.2 330,-345.2 514,-345.2 514,-284.2 330,-284.2"/>
<polygon fill="#f5f5f5" stroke="transparent" points="330,-321.7 330,-344.7 514,-344.7 514,-321.7 330,-321.7"/>
<polygon fill="none" stroke="#000000" points="330,-321.7 330,-344.7 514,-344.7 514,-321.7 330,-321.7"/>
<text text-anchor="start" x="335" y="-330.3" font-family="Helvetica,sans-Serif" font-weight="bold" font-size="11.00" fill="#000000">notional_adjustments</text>
<text text-anchor="start" x="479.5219" y="-329.8" font-family="Helvetica,sans-Serif" font-size="11.00" fill="#000000">[table]</text>
<polygon fill="none" stroke="#000000" points="330,-302.7 330,-321.7 514,-321.7 514,-302.7 330,-302.7"/>
<text text-anchor="start" x="333" y="-308.8" font-family="Helvetica,sans-Serif" font-size="11.00" fill="#000000">...</text>
<polygon fill="#ffffff" stroke="transparent" points="330,-283.7 330,-302.7 420,-302.7 420,-283.7 330,-283.7"/>
<polygon fill="none" stroke="#000000" points="330,-283.7 330,-302.7 420,-302.7 420,-283.7 330,-283.7"/>
<text text-anchor="start" x="333" y="-289.8" font-family="Helvetica,sans-Serif" font-size="11.00" fill="#000000">&lt; 1</text>
<polygon fill="#ffffff" stroke="transparent" points="420,-283.7 420,-302.7 467,-302.7 467,-283.7 420,-283.7"/>
<polygon fill="none" stroke="#000000" points="420,-283.7 420,-302.7 467,-302.7 467,-283.7 420,-283.7"/>
<text text-anchor="start" x="457.8862" y="-289.8" font-family="Helvetica,sans-Serif" font-size="11.00" fill="#000000"> &#160;</text>
<polygon fill="#ffffff" stroke="transparent" points="467,-283.7 467,-302.7 514,-302.7 514,-283.7 467,-283.7"/>
<polygon fill="none" stroke="#000000" points="467,-283.7 467,-302.7 514,-302.7 514,-283.7 467,-283.7"/>
<text text-anchor="start" x="504.8862" y="-289.8" font-family="Helvetica,sans-Serif" font-size="11.00" fill="#000000"> &#160;</text>
</a>
</g>
</g>
<!-- notional_adjustments&#45;&gt;cds_trades -->
<g id="edge12" class="edge">
<title>notional_adjustments:w&#45;&gt;cds_trades:e</title>
<path fill="none" stroke="#000000" d="M315.6034,-312.963C269.1,-321.1205 232.443,-367.0696 211.613,-400.1103"/>
<polygon fill="#000000" stroke="#000000" points="322.0306,-312.3992 330.3146,-315.2862 326.0153,-312.0496 330,-311.7 330,-311.7 330,-311.7 326.0153,-312.0496 329.6854,-308.1138 322.0306,-312.3992 322.0306,-312.3992"/>
<ellipse fill="none" stroke="#000000" cx="318.8428" cy="-312.6788" rx="3.2" ry="3.2"/>
</g>
<!-- sa_ccr_trade_mappings -->
<g id="node11" class="node">
<title>sa_ccr_trade_mappings</title>
<g id="a_node11"><a xlink:href="../../tables/sa_ccr_trade_mappings.html" xlink:title="sa_ccr_trade_mappings" target="_top">
<polygon fill="#ffffff" stroke="transparent" points="324.5,-202.2 324.5,-263.2 519.5,-263.2 519.5,-202.2 324.5,-202.2"/>
<polygon fill="#f5f5f5" stroke="transparent" points="325,-239.7 325,-262.7 520,-262.7 520,-239.7 325,-239.7"/>
<polygon fill="none" stroke="#000000" points="325,-239.7 325,-262.7 520,-262.7 520,-239.7 325,-239.7"/>
<text text-anchor="start" x="330" y="-248.3" font-family="Helvetica,sans-Serif" font-weight="bold" font-size="11.00" fill="#000000">sa_ccr_trade_mappings</text>
<text text-anchor="start" x="485.5219" y="-247.8" font-family="Helvetica,sans-Serif" font-size="11.00" fill="#000000">[table]</text>
<polygon fill="none" stroke="#000000" points="325,-220.7 325,-239.7 520,-239.7 520,-220.7 325,-220.7"/>
<text text-anchor="start" x="328" y="-226.8" font-family="Helvetica,sans-Serif" font-size="11.00" fill="#000000">...</text>
<polygon fill="#ffffff" stroke="transparent" points="325,-201.7 325,-220.7 421,-220.7 421,-201.7 325,-201.7"/>
<polygon fill="none" stroke="#000000" points="325,-201.7 325,-220.7 421,-220.7 421,-201.7 325,-201.7"/>
<text text-anchor="start" x="328" y="-207.8" font-family="Helvetica,sans-Serif" font-size="11.00" fill="#000000">&lt; 3</text>
<polygon fill="#ffffff" stroke="transparent" points="421,-201.7 421,-220.7 470,-220.7 470,-201.7 421,-201.7"/>
<polygon fill="none" stroke="#000000" points="421,-201.7 421,-220.7 470,-220.7 470,-201.7 421,-201.7"/>
<text text-anchor="start" x="460.8862" y="-207.8" font-family="Helvetica,sans-Serif" font-size="11.00" fill="#000000"> &#160;</text>
<polygon fill="#ffffff" stroke="transparent" points="470,-201.7 470,-220.7 520,-220.7 520,-201.7 470,-201.7"/>
<polygon fill="none" stroke="#000000" points="470,-201.7 470,-220.7 520,-220.7 520,-201.7 470,-201.7"/>
<text text-anchor="start" x="510.8862" y="-207.8" font-family="Helvetica,sans-Serif" font-size="11.00" fill="#000000"> &#160;</text>
</a>
</g>
</g>
<!-- sa_ccr_trade_mappings&#45;&gt;cds_trades -->
<g id="edge13" class="edge">
<title>sa_ccr_trade_mappings:w&#45;&gt;cds_trades:e</title>
<path fill="none" stroke="#000000" d="M310.5162,-230.9691C240.7355,-243.4591 210.0849,-345.0926 198.5185,-399.9245"/>
<polygon fill="#000000" stroke="#000000" points="317.0305,-230.3984 325.3143,-233.2863 321.0153,-230.0492 325,-229.7 325,-229.7 325,-229.7 321.0153,-230.0492 324.6857,-226.1137 317.0305,-230.3984 317.0305,-230.3984"/>
<ellipse fill="none" stroke="#000000" cx="313.8428" cy="-230.6777" rx="3.2" ry="3.2"/>
</g>
<!-- trade_amendments -->
<g id="node12" class="node">
<title>trade_amendments</title>
<g id="a_node12"><a xlink:href="../../tables/trade_amendments.html" xlink:title="trade_amendments" target="_top">
<polygon fill="#ffffff" stroke="transparent" points="337.5,-120.2 337.5,-181.2 506.5,-181.2 506.5,-120.2 337.5,-120.2"/>
<polygon fill="#f5f5f5" stroke="transparent" points="338,-157.7 338,-180.7 507,-180.7 507,-157.7 338,-157.7"/>
<polygon fill="none" stroke="#000000" points="338,-157.7 338,-180.7 507,-180.7 507,-157.7 338,-157.7"/>
<text text-anchor="start" x="343" y="-166.3" font-family="Helvetica,sans-Serif" font-weight="bold" font-size="11.00" fill="#000000">trade_amendments</text>
<text text-anchor="start" x="472.5219" y="-165.8" font-family="Helvetica,sans-Serif" font-size="11.00" fill="#000000">[table]</text>
<polygon fill="none" stroke="#000000" points="338,-138.7 338,-157.7 507,-157.7 507,-138.7 338,-138.7"/>
<text text-anchor="start" x="341" y="-144.8" font-family="Helvetica,sans-Serif" font-size="11.00" fill="#000000">...</text>
<polygon fill="#ffffff" stroke="transparent" points="338,-119.7 338,-138.7 421,-138.7 421,-119.7 338,-119.7"/>
<polygon fill="none" stroke="#000000" points="338,-119.7 338,-138.7 421,-138.7 421,-119.7 338,-119.7"/>
<text text-anchor="start" x="341" y="-125.8" font-family="Helvetica,sans-Serif" font-size="11.00" fill="#000000">&lt; 1</text>
<polygon fill="#ffffff" stroke="transparent" points="421,-119.7 421,-138.7 464,-138.7 464,-119.7 421,-119.7"/>
<polygon fill="none" stroke="#000000" points="421,-119.7 421,-138.7 464,-138.7 464,-119.7 421,-119.7"/>
<text text-anchor="start" x="454.8862" y="-125.8" font-family="Helvetica,sans-Serif" font-size="11.00" fill="#000000"> &#160;</text>
<polygon fill="#ffffff" stroke="transparent" points="464,-119.7 464,-138.7 507,-138.7 507,-119.7 464,-119.7"/>
<polygon fill="none" stroke="#000000" points="464,-119.7 464,-138.7 507,-138.7 507,-119.7 464,-119.7"/>
<text text-anchor="start" x="497.8862" y="-125.8" font-family="Helvetica,sans-Serif" font-size="11.00" fill="#000000"> &#160;</text>
</a>
</g>
</g>
<!-- trade_amendments&#45;&gt;cds_trades -->
<g id="edge14" class="edge">
<title>trade_amendments:w&#45;&gt;cds_trades:e</title>
<path fill="none" stroke="#000000" d="M323.4212,-148.7408C223.7145,-163.3156 199.9176,-327.1769 194.2574,-400.0811"/>
<polygon fill="#000000" stroke="#000000" points="330.0203,-148.2697 338.2564,-151.2909 334.0102,-147.9849 338,-147.7 338,-147.7 338,-147.7 334.0102,-147.9849 337.7436,-144.1091 330.0203,-148.2697 330.0203,-148.2697"/>
<ellipse fill="none" stroke="#000000" cx="326.8284" cy="-148.4976" rx="3.2" ry="3.2"/>
</g>
<!-- trade_novations -->
<g id="node13" class="node">
<title>trade_novations</title>
<g id="a_node13"><a xlink:href="../../tables/trade_novations.html" xlink:title="trade_novations" target="_top">
<polygon fill="#ffffff" stroke="transparent" points="348.5,-38.2 348.5,-99.2 495.5,-99.2 495.5,-38.2 348.5,-38.2"/>
<polygon fill="#f5f5f5" stroke="transparent" points="349,-75.7 349,-98.7 496,-98.7 496,-75.7 349,-75.7"/>
<polygon fill="none" stroke="#000000" points="349,-75.7 349,-98.7 496,-98.7 496,-75.7 349,-75.7"/>
<text text-anchor="start" x="354" y="-84.3" font-family="Helvetica,sans-Serif" font-weight="bold" font-size="11.00" fill="#000000">trade_novations</text>
<text text-anchor="start" x="461.5219" y="-83.8" font-family="Helvetica,sans-Serif" font-size="11.00" fill="#000000">[table]</text>
<polygon fill="none" stroke="#000000" points="349,-56.7 349,-75.7 496,-75.7 496,-56.7 349,-56.7"/>
<text text-anchor="start" x="352" y="-62.8" font-family="Helvetica,sans-Serif" font-size="11.00" fill="#000000">...</text>
<polygon fill="#ffffff" stroke="transparent" points="349,-37.7 349,-56.7 421,-56.7 421,-37.7 349,-37.7"/>
<polygon fill="none" stroke="#000000" points="349,-37.7 349,-56.7 421,-56.7 421,-37.7 349,-37.7"/>
<text text-anchor="start" x="352" y="-43.8" font-family="Helvetica,sans-Serif" font-size="11.00" fill="#000000">&lt; 2</text>
<polygon fill="#ffffff" stroke="transparent" points="421,-37.7 421,-56.7 458,-56.7 458,-37.7 421,-37.7"/>
<polygon fill="none" stroke="#000000" points="421,-37.7 421,-56.7 458,-56.7 458,-37.7 421,-37.7"/>
<text text-anchor="start" x="448.8862" y="-43.8" font-family="Helvetica,sans-Serif" font-size="11.00" fill="#000000"> &#160;</text>
<polygon fill="#ffffff" stroke="transparent" points="458,-37.7 458,-56.7 496,-56.7 496,-37.7 458,-37.7"/>
<polygon fill="none" stroke="#000000" points="458,-37.7 458,-56.7 496,-56.7 496,-37.7 458,-37.7"/>
<text text-anchor="start" x="486.8862" y="-43.8" font-family="Helvetica,sans-Serif" font-size="11.00" fill="#000000"> &#160;</text>
</a>
</g>
</g>
<!-- trade_novations&#45;&gt;cds_trades -->
<g id="edge15" class="edge">
<title>trade_novations:w&#45;&gt;cds_trades:e</title>
<path fill="none" stroke="#000000" d="M334.5963,-64.5439C313.0404,-65.536 304.9115,-81.0953 289,-103.7 223.2749,-197.0727 201.7464,-335.5683 195.1736,-399.7866"/>
<polygon fill="#000000" stroke="#000000" points="341.0256,-65.0599 348.712,-69.2885 345.0128,-65.38 349,-65.7 349,-65.7 349,-65.7 345.0128,-65.38 349.288,-62.1115 341.0256,-65.0599 341.0256,-65.0599"/>
<ellipse fill="none" stroke="#000000" cx="337.8359" cy="-64.8039" rx="3.2" ry="3.2"/>
</g>
<!-- trade_novations&#45;&gt;cds_trades -->
<g id="edge16" class="edge">
<title>trade_novations:w&#45;&gt;cds_trades:e</title>
<path fill="none" stroke="#000000" d="M334.8994,-69.8301C313.1162,-78.3907 304.9859,-93.9896 289,-116.7 225.8158,-206.4629 203.477,-337.9273 196.0047,-399.986"/>
<polygon fill="#000000" stroke="#000000" points="341.3226,-67.9488 350.012,-69.1549 345.1613,-66.8244 349,-65.7 349,-65.7 349,-65.7 345.1613,-66.8244 347.988,-62.2451 341.3226,-67.9488 341.3226,-67.9488"/>
<ellipse fill="none" stroke="#000000" cx="338.2516" cy="-68.8483" rx="3.2" ry="3.2"/>
</g>
</g>
</svg>
