<?xml version="1.0" encoding="UTF-8" standalone="no"?>
<!DOCTYPE svg PUBLIC "-//W3C//DTD SVG 1.1//EN"
 "http://www.w3.org/Graphics/SVG/1.1/DTD/svg11.dtd">
<!-- Generated by graphviz version 2.40.1 (20161225.0304)
 -->
<!-- Title: twoDegreesRelationshipsDiagram Pages: 1 -->
<svg width="965pt" height="770pt"
 viewBox="0.00 0.00 965.00 770.20" xmlns="http://www.w3.org/2000/svg" xmlns:xlink="http://www.w3.org/1999/xlink">
<g id="graph0" class="graph" transform="scale(1 1) rotate(0) translate(4 766.2)">
<title>twoDegreesRelationshipsDiagram</title>
<polygon fill="#ffffff" stroke="transparent" points="-4,4 -4,-766.2 961,-766.2 961,4 -4,4"/>
<text text-anchor="middle" x="72.4936" y="-7.3" font-family="Helvetica,sans-Serif" font-size="11.00" fill="#000000">Generated by SchemaSpy</text>
<!-- accrual_events -->
<g id="node1" class="node">
<title>accrual_events</title>
<g id="a_node1"><a xlink:href="../../tables/accrual_events.html" xlink:title="accrual_events" target="_top">
<polygon fill="#ffffff" stroke="transparent" points="694.5,-697.2 694.5,-758.2 833.5,-758.2 833.5,-697.2 694.5,-697.2"/>
<polygon fill="#f5f5f5" stroke="transparent" points="695,-734.7 695,-757.7 834,-757.7 834,-734.7 695,-734.7"/>
<polygon fill="none" stroke="#000000" points="695,-734.7 695,-757.7 834,-757.7 834,-734.7 695,-734.7"/>
<text text-anchor="start" x="700" y="-743.3" font-family="Helvetica,sans-Serif" font-weight="bold" font-size="11.00" fill="#000000">accrual_events</text>
<text text-anchor="start" x="799.5219" y="-742.8" font-family="Helvetica,sans-Serif" font-size="11.00" fill="#000000">[table]</text>
<polygon fill="none" stroke="#000000" points="695,-715.7 695,-734.7 834,-734.7 834,-715.7 695,-715.7"/>
<text text-anchor="start" x="698" y="-721.8" font-family="Helvetica,sans-Serif" font-size="11.00" fill="#000000">...</text>
<polygon fill="#ffffff" stroke="transparent" points="695,-696.7 695,-715.7 763,-715.7 763,-696.7 695,-696.7"/>
<polygon fill="none" stroke="#000000" points="695,-696.7 695,-715.7 763,-715.7 763,-696.7 695,-696.7"/>
<text text-anchor="start" x="698" y="-702.8" font-family="Helvetica,sans-Serif" font-size="11.00" fill="#000000">&lt; 2</text>
<polygon fill="#ffffff" stroke="transparent" points="763,-696.7 763,-715.7 798,-715.7 798,-696.7 763,-696.7"/>
<polygon fill="none" stroke="#000000" points="763,-696.7 763,-715.7 798,-715.7 798,-696.7 763,-696.7"/>
<text text-anchor="start" x="788.8862" y="-702.8" font-family="Helvetica,sans-Serif" font-size="11.00" fill="#000000"> &#160;</text>
<polygon fill="#ffffff" stroke="transparent" points="798,-696.7 798,-715.7 834,-715.7 834,-696.7 798,-696.7"/>
<polygon fill="none" stroke="#000000" points="798,-696.7 798,-715.7 834,-715.7 834,-696.7 798,-696.7"/>
<text text-anchor="start" x="824.8862" y="-702.8" font-family="Helvetica,sans-Serif" font-size="11.00" fill="#000000"> &#160;</text>
</a>
</g>
</g>
<!-- coupon_periods -->
<g id="node2" class="node">
<title>coupon_periods</title>
<g id="a_node2"><a xlink:href="../../tables/coupon_periods.html" xlink:title="coupon_periods" target="_top">
<polygon fill="#ffffff" stroke="transparent" points="341,-697.2 341,-758.2 486,-758.2 486,-697.2 341,-697.2"/>
<polygon fill="#f5f5f5" stroke="transparent" points="341.5,-734.7 341.5,-757.7 486.5,-757.7 486.5,-734.7 341.5,-734.7"/>
<polygon fill="none" stroke="#000000" points="341.5,-734.7 341.5,-757.7 486.5,-757.7 486.5,-734.7 341.5,-734.7"/>
<text text-anchor="start" x="346.5" y="-743.3" font-family="Helvetica,sans-Serif" font-weight="bold" font-size="11.00" fill="#000000">coupon_periods</text>
<text text-anchor="start" x="452.0219" y="-742.8" font-family="Helvetica,sans-Serif" font-size="11.00" fill="#000000">[table]</text>
<polygon fill="none" stroke="#000000" points="341.5,-715.7 341.5,-734.7 486.5,-734.7 486.5,-715.7 341.5,-715.7"/>
<text text-anchor="start" x="344.5" y="-721.8" font-family="Helvetica,sans-Serif" font-size="11.00" fill="#000000">...</text>
<polygon fill="#ffffff" stroke="transparent" points="341.5,-696.7 341.5,-715.7 407.5,-715.7 407.5,-696.7 341.5,-696.7"/>
<polygon fill="none" stroke="#000000" points="341.5,-696.7 341.5,-715.7 407.5,-715.7 407.5,-696.7 341.5,-696.7"/>
<text text-anchor="start" x="344.5" y="-702.8" font-family="Helvetica,sans-Serif" font-size="11.00" fill="#000000">&lt; 1</text>
<polygon fill="#ffffff" stroke="transparent" points="407.5,-696.7 407.5,-715.7 442.5,-715.7 442.5,-696.7 407.5,-696.7"/>
<polygon fill="none" stroke="#000000" points="407.5,-696.7 407.5,-715.7 442.5,-715.7 442.5,-696.7 407.5,-696.7"/>
<text text-anchor="start" x="433.3862" y="-702.8" font-family="Helvetica,sans-Serif" font-size="11.00" fill="#000000"> &#160;</text>
<polygon fill="#ffffff" stroke="transparent" points="442.5,-696.7 442.5,-715.7 486.5,-715.7 486.5,-696.7 442.5,-696.7"/>
<polygon fill="none" stroke="#000000" points="442.5,-696.7 442.5,-715.7 486.5,-715.7 486.5,-696.7 442.5,-696.7"/>
<text text-anchor="start" x="467.9053" y="-702.8" font-family="Helvetica,sans-Serif" font-size="11.00" fill="#000000">1 &gt;</text>
</a>
</g>
</g>
<!-- accrual_events&#45;&gt;coupon_periods -->
<g id="edge1" class="edge">
<title>accrual_events:w&#45;&gt;coupon_periods:e</title>
<path fill="none" stroke="#000000" d="M680.3977,-724.7C599.5916,-724.7 574.099,-724.7 486.5,-724.7"/>
<polygon fill="#000000" stroke="#000000" points="687,-724.7001 695,-728.3 691,-724.7 695,-724.7 695,-724.7 695,-724.7 691,-724.7 695,-721.1 687,-724.7001 687,-724.7001"/>
<ellipse fill="none" stroke="#000000" cx="683.8" cy="-724.7001" rx="3.2" ry="3.2"/>
</g>
<!-- cds_trades -->
<g id="node3" class="node">
<title>cds_trades</title>
<g id="a_node3"><a xlink:href="../../tables/cds_trades.html" xlink:title="cds_trades" target="_top">
<polygon fill="#ffffff" stroke="transparent" points="137,-404.2 137,-465.2 248,-465.2 248,-404.2 137,-404.2"/>
<polygon fill="#f5f5f5" stroke="transparent" points="137.5,-441.7 137.5,-464.7 248.5,-464.7 248.5,-441.7 137.5,-441.7"/>
<polygon fill="none" stroke="#000000" points="137.5,-441.7 137.5,-464.7 248.5,-464.7 248.5,-441.7 137.5,-441.7"/>
<text text-anchor="start" x="142.5" y="-450.3" font-family="Helvetica,sans-Serif" font-weight="bold" font-size="11.00" fill="#000000">cds_trades</text>
<text text-anchor="start" x="214.0219" y="-449.8" font-family="Helvetica,sans-Serif" font-size="11.00" fill="#000000">[table]</text>
<polygon fill="none" stroke="#000000" points="137.5,-422.7 137.5,-441.7 248.5,-441.7 248.5,-422.7 137.5,-422.7"/>
<text text-anchor="start" x="140.5" y="-428.8" font-family="Helvetica,sans-Serif" font-size="11.00" fill="#000000">...</text>
<polygon fill="#ffffff" stroke="transparent" points="137.5,-403.7 137.5,-422.7 183.5,-422.7 183.5,-403.7 137.5,-403.7"/>
<polygon fill="none" stroke="#000000" points="137.5,-403.7 137.5,-422.7 183.5,-422.7 183.5,-403.7 137.5,-403.7"/>
<text text-anchor="start" x="140.5" y="-409.8" font-family="Helvetica,sans-Serif" font-size="11.00" fill="#000000">&lt; 2</text>
<polygon fill="#ffffff" stroke="transparent" points="183.5,-403.7 183.5,-422.7 208.5,-422.7 208.5,-403.7 183.5,-403.7"/>
<polygon fill="none" stroke="#000000" points="183.5,-403.7 183.5,-422.7 208.5,-422.7 208.5,-403.7 183.5,-403.7"/>
<text text-anchor="start" x="199.3862" y="-409.8" font-family="Helvetica,sans-Serif" font-size="11.00" fill="#000000"> &#160;</text>
<polygon fill="#ffffff" stroke="transparent" points="208.5,-403.7 208.5,-422.7 248.5,-422.7 248.5,-403.7 208.5,-403.7"/>
<polygon fill="none" stroke="#000000" points="208.5,-403.7 208.5,-422.7 248.5,-422.7 248.5,-403.7 208.5,-403.7"/>
<text text-anchor="start" x="223.7904" y="-409.8" font-family="Helvetica,sans-Serif" font-size="11.00" fill="#000000">13 &gt;</text>
</a>
</g>
</g>
<!-- accrual_events&#45;&gt;cds_trades -->
<g id="edge2" class="edge">
<title>accrual_events:w&#45;&gt;cds_trades:e</title>
<path fill="none" stroke="#000000" d="M680.2876,-724.3289C620.7931,-721.2107 603.4239,-699.1846 538,-686.7 483.1131,-676.2261 333.6178,-685.3381 289,-651.7 229.9038,-607.1464 206.2374,-518.386 197.3701,-469.3163"/>
<polygon fill="#000000" stroke="#000000" points="687.0025,-724.4982 694.9092,-728.2989 691.0013,-724.5991 695,-724.7 695,-724.7 695,-724.7 691.0013,-724.5991 695.0908,-721.1011 687.0025,-724.4982 687.0025,-724.4982"/>
<ellipse fill="none" stroke="#000000" cx="683.8036" cy="-724.4175" rx="3.2" ry="3.2"/>
</g>
<!-- coupon_periods&#45;&gt;cds_trades -->
<g id="edge11" class="edge">
<title>coupon_periods:w&#45;&gt;cds_trades:e</title>
<path fill="none" stroke="#000000" d="M327.0153,-723.6906C225.5309,-709.222 200.5456,-542.9853 194.4465,-469.3927"/>
<polygon fill="#000000" stroke="#000000" points="333.5194,-724.1438 341.2497,-728.2913 337.5097,-724.4219 341.5,-724.7 341.5,-724.7 341.5,-724.7 337.5097,-724.4219 341.7503,-721.1087 333.5194,-724.1438 333.5194,-724.1438"/>
<ellipse fill="none" stroke="#000000" cx="330.3271" cy="-723.9213" rx="3.2" ry="3.2"/>
</g>
<!-- bonds -->
<g id="node8" class="node">
<title>bonds</title>
<g id="a_node8"><a xlink:href="../../tables/bonds.html" xlink:title="bonds" target="_top">
<polygon fill="#ffffff" stroke="transparent" points="8,-407.2 8,-468.2 88,-468.2 88,-407.2 8,-407.2"/>
<polygon fill="#f5f5f5" stroke="transparent" points="8,-444.7 8,-467.7 88,-467.7 88,-444.7 8,-444.7"/>
<polygon fill="none" stroke="#000000" points="8,-444.7 8,-467.7 88,-467.7 88,-444.7 8,-444.7"/>
<text text-anchor="start" x="13" y="-453.3" font-family="Helvetica,sans-Serif" font-weight="bold" font-size="11.00" fill="#000000">bonds</text>
<text text-anchor="start" x="53.5219" y="-452.8" font-family="Helvetica,sans-Serif" font-size="11.00" fill="#000000">[table]</text>
<polygon fill="none" stroke="#000000" points="8,-425.7 8,-444.7 88,-444.7 88,-425.7 8,-425.7"/>
<text text-anchor="start" x="11" y="-431.8" font-family="Helvetica,sans-Serif" font-size="11.00" fill="#000000">...</text>
<polygon fill="#ffffff" stroke="transparent" points="8,-406.7 8,-425.7 37,-425.7 37,-406.7 8,-406.7"/>
<polygon fill="none" stroke="#000000" points="8,-406.7 8,-425.7 37,-425.7 37,-406.7 8,-406.7"/>
<text text-anchor="start" x="11" y="-412.8" font-family="Helvetica,sans-Serif" font-size="11.00" fill="#000000"> &#160;</text>
<polygon fill="#ffffff" stroke="transparent" points="37,-406.7 37,-425.7 58,-425.7 58,-406.7 37,-406.7"/>
<polygon fill="none" stroke="#000000" points="37,-406.7 37,-425.7 58,-425.7 58,-406.7 37,-406.7"/>
<text text-anchor="start" x="48.8862" y="-412.8" font-family="Helvetica,sans-Serif" font-size="11.00" fill="#000000"> &#160;</text>
<polygon fill="#ffffff" stroke="transparent" points="58,-406.7 58,-425.7 88,-425.7 88,-406.7 58,-406.7"/>
<polygon fill="none" stroke="#000000" points="58,-406.7 58,-425.7 88,-425.7 88,-406.7 58,-406.7"/>
<text text-anchor="start" x="69.4053" y="-412.8" font-family="Helvetica,sans-Serif" font-size="11.00" fill="#000000">2 &gt;</text>
</a>
</g>
</g>
<!-- cds_trades&#45;&gt;bonds -->
<g id="edge9" class="edge">
<title>cds_trades:w&#45;&gt;bonds:e</title>
<path fill="none" stroke="#000000" d="M114.5141,-434.7C105.5727,-434.7 96.5879,-434.7 88,-434.7"/>
<polygon fill="#000000" stroke="#000000" points="120.9488,-434.7001 128.9489,-438.3 124.9488,-434.7 128.9488,-434.7 128.9488,-434.7 128.9488,-434.7 124.9488,-434.7 128.9488,-431.1 120.9488,-434.7001 120.9488,-434.7001"/>
<ellipse fill="none" stroke="#000000" cx="117.7488" cy="-434.7001" rx="3.2" ry="3.2"/>
</g>
<!-- cds_cash_settlements -->
<g id="node4" class="node">
<title>cds_cash_settlements</title>
<g id="a_node4"><a xlink:href="../../tables/cds_cash_settlements.html" xlink:title="cds_cash_settlements" target="_top">
<polygon fill="#ffffff" stroke="transparent" points="671.5,-615.2 671.5,-676.2 856.5,-676.2 856.5,-615.2 671.5,-615.2"/>
<polygon fill="#f5f5f5" stroke="transparent" points="672,-652.7 672,-675.7 857,-675.7 857,-652.7 672,-652.7"/>
<polygon fill="none" stroke="#000000" points="672,-652.7 672,-675.7 857,-675.7 857,-652.7 672,-652.7"/>
<text text-anchor="start" x="677" y="-661.3" font-family="Helvetica,sans-Serif" font-weight="bold" font-size="11.00" fill="#000000">cds_cash_settlements</text>
<text text-anchor="start" x="822.5219" y="-660.8" font-family="Helvetica,sans-Serif" font-size="11.00" fill="#000000">[table]</text>
<polygon fill="none" stroke="#000000" points="672,-633.7 672,-652.7 857,-652.7 857,-633.7 672,-633.7"/>
<text text-anchor="start" x="675" y="-639.8" font-family="Helvetica,sans-Serif" font-size="11.00" fill="#000000">...</text>
<polygon fill="#ffffff" stroke="transparent" points="672,-614.7 672,-633.7 763,-633.7 763,-614.7 672,-614.7"/>
<polygon fill="none" stroke="#000000" points="672,-614.7 672,-633.7 763,-633.7 763,-614.7 672,-614.7"/>
<text text-anchor="start" x="675" y="-620.8" font-family="Helvetica,sans-Serif" font-size="11.00" fill="#000000">&lt; 2</text>
<polygon fill="#ffffff" stroke="transparent" points="763,-614.7 763,-633.7 810,-633.7 810,-614.7 763,-614.7"/>
<polygon fill="none" stroke="#000000" points="763,-614.7 763,-633.7 810,-633.7 810,-614.7 763,-614.7"/>
<text text-anchor="start" x="800.8862" y="-620.8" font-family="Helvetica,sans-Serif" font-size="11.00" fill="#000000"> &#160;</text>
<polygon fill="#ffffff" stroke="transparent" points="810,-614.7 810,-633.7 857,-633.7 857,-614.7 810,-614.7"/>
<polygon fill="none" stroke="#000000" points="810,-614.7 810,-633.7 857,-633.7 857,-614.7 810,-614.7"/>
<text text-anchor="start" x="847.8862" y="-620.8" font-family="Helvetica,sans-Serif" font-size="11.00" fill="#000000"> &#160;</text>
</a>
</g>
</g>
<!-- cds_cash_settlements&#45;&gt;cds_trades -->
<g id="edge4" class="edge">
<title>cds_cash_settlements:w&#45;&gt;cds_trades:e</title>
<path fill="none" stroke="#000000" d="M657.3936,-642.96C563.4064,-645.9749 356.8024,-673.4078 289,-629.7 233.1236,-593.6801 208.4659,-515.0196 198.5116,-469.3743"/>
<polygon fill="#000000" stroke="#000000" points="664.0013,-642.8424 672.0641,-646.2994 668.0006,-642.7712 672,-642.7 672,-642.7 672,-642.7 668.0006,-642.7712 671.9359,-639.1006 664.0013,-642.8424 664.0013,-642.8424"/>
<ellipse fill="none" stroke="#000000" cx="660.8018" cy="-642.8994" rx="3.2" ry="3.2"/>
</g>
<!-- cds_credit_events -->
<g id="node5" class="node">
<title>cds_credit_events</title>
<g id="a_node5"><a xlink:href="../../tables/cds_credit_events.html" xlink:title="cds_credit_events" target="_top">
<polygon fill="#ffffff" stroke="transparent" points="334.5,-558.2 334.5,-619.2 492.5,-619.2 492.5,-558.2 334.5,-558.2"/>
<polygon fill="#f5f5f5" stroke="transparent" points="334.5,-595.7 334.5,-618.7 492.5,-618.7 492.5,-595.7 334.5,-595.7"/>
<polygon fill="none" stroke="#000000" points="334.5,-595.7 334.5,-618.7 492.5,-618.7 492.5,-595.7 334.5,-595.7"/>
<text text-anchor="start" x="339.5" y="-604.3" font-family="Helvetica,sans-Serif" font-weight="bold" font-size="11.00" fill="#000000">cds_credit_events</text>
<text text-anchor="start" x="458.0219" y="-603.8" font-family="Helvetica,sans-Serif" font-size="11.00" fill="#000000">[table]</text>
<polygon fill="none" stroke="#000000" points="334.5,-576.7 334.5,-595.7 492.5,-595.7 492.5,-576.7 334.5,-576.7"/>
<text text-anchor="start" x="337.5" y="-582.8" font-family="Helvetica,sans-Serif" font-size="11.00" fill="#000000">...</text>
<polygon fill="#ffffff" stroke="transparent" points="334.5,-557.7 334.5,-576.7 407.5,-576.7 407.5,-557.7 334.5,-557.7"/>
<polygon fill="none" stroke="#000000" points="334.5,-557.7 334.5,-576.7 407.5,-576.7 407.5,-557.7 334.5,-557.7"/>
<text text-anchor="start" x="337.5" y="-563.8" font-family="Helvetica,sans-Serif" font-size="11.00" fill="#000000">&lt; 1</text>
<polygon fill="#ffffff" stroke="transparent" points="407.5,-557.7 407.5,-576.7 445.5,-576.7 445.5,-557.7 407.5,-557.7"/>
<polygon fill="none" stroke="#000000" points="407.5,-557.7 407.5,-576.7 445.5,-576.7 445.5,-557.7 407.5,-557.7"/>
<text text-anchor="start" x="436.3862" y="-563.8" font-family="Helvetica,sans-Serif" font-size="11.00" fill="#000000"> &#160;</text>
<polygon fill="#ffffff" stroke="transparent" points="445.5,-557.7 445.5,-576.7 492.5,-576.7 492.5,-557.7 445.5,-557.7"/>
<polygon fill="none" stroke="#000000" points="445.5,-557.7 445.5,-576.7 492.5,-576.7 492.5,-557.7 445.5,-557.7"/>
<text text-anchor="start" x="473.9053" y="-563.8" font-family="Helvetica,sans-Serif" font-size="11.00" fill="#000000">2 &gt;</text>
</a>
</g>
</g>
<!-- cds_cash_settlements&#45;&gt;cds_credit_events -->
<g id="edge3" class="edge">
<title>cds_cash_settlements:w&#45;&gt;cds_credit_events:e</title>
<path fill="none" stroke="#000000" d="M661.4271,-642.5584C606.4602,-641.109 547.4496,-628.7606 500.7937,-616.2537"/>
<polygon fill="#000000" stroke="#000000" points="671.2537,-638.6896 671.1465,-646.6889 669.5466,-646.6675 669.6538,-638.6682 671.2537,-638.6896"/>
<polyline fill="none" stroke="#000000" points="672,-642.7 668.0004,-642.6464 "/>
<ellipse fill="none" stroke="#000000" cx="664.8006" cy="-642.6035" rx="3.2" ry="3.2"/>
</g>
<!-- cds_credit_events&#45;&gt;cds_trades -->
<g id="edge5" class="edge">
<title>cds_credit_events:w&#45;&gt;cds_trades:e</title>
<path fill="none" stroke="#000000" d="M313.0125,-557.4863C304.6159,-553.3679 296.4868,-548.7836 289,-543.7 259.7266,-523.8234 233.6105,-493.0879 215.9533,-469.315"/>
<polygon fill="#000000" stroke="#000000" points="319.0947,-560.26 324.8799,-566.8549 322.7342,-561.9197 326.3736,-563.5794 326.3736,-563.5794 326.3736,-563.5794 322.7342,-561.9197 327.8673,-560.304 319.0947,-560.26 319.0947,-560.26"/>
<ellipse fill="none" stroke="#000000" cx="316.1832" cy="-558.9322" rx="3.2" ry="3.2"/>
</g>
<!-- cds_physical_settlement_instructions -->
<g id="node6" class="node">
<title>cds_physical_settlement_instructions</title>
<g id="a_node6"><a xlink:href="../../tables/cds_physical_settlement_instructions.html" xlink:title="cds_physical_settlement_instructions" target="_top">
<polygon fill="#ffffff" stroke="transparent" points="579,-349.7 579,-593.7 949,-593.7 949,-349.7 579,-349.7"/>
<polygon fill="#f5f5f5" stroke="transparent" points="581,-568.7 581,-591.7 947,-591.7 947,-568.7 581,-568.7"/>
<polygon fill="none" stroke="#000000" points="581,-568.7 581,-591.7 947,-591.7 947,-568.7 581,-568.7"/>
<text text-anchor="start" x="586" y="-577.3" font-family="Helvetica,sans-Serif" font-weight="bold" font-size="11.00" fill="#000000">cds_physical_settlement_instructions</text>
<text text-anchor="start" x="912.0437" y="-576.8" font-family="Helvetica,sans-Serif" font-size="11.00" fill="#000000">[table]</text>
<polygon fill="none" stroke="#000000" points="581,-546.7 581,-568.7 853,-568.7 853,-546.7 581,-546.7"/>
<image xlink:href="../../images/primaryKeys.png" width="11px" height="12px" preserveAspectRatio="xMinYMin meet" x="586" y="-563.7"/>
<text text-anchor="start" x="601" y="-553.8" font-family="Helvetica,sans-Serif" font-size="11.00" fill="#000000">id</text>
<polygon fill="none" stroke="#000000" points="853,-546.7 853,-568.7 947,-568.7 947,-546.7 853,-546.7"/>
<text text-anchor="start" x="855.9758" y="-554.4" font-family="Helvetica,sans-Serif" font-size="11.00" fill="#000000">uuid[2147483647]</text>
<polygon fill="#ffffff" stroke="transparent" points="581,-524.7 581,-546.7 853,-546.7 853,-524.7 581,-524.7"/>
<polygon fill="none" stroke="#000000" points="581,-524.7 581,-546.7 853,-546.7 853,-524.7 581,-524.7"/>
<image xlink:href="../../images/foreignKeys.png" width="11px" height="12px" preserveAspectRatio="xMinYMin meet" x="586" y="-541.7"/>
<text text-anchor="start" x="601" y="-531.8" font-family="Helvetica,sans-Serif" font-size="11.00" fill="#000000">credit_event_id</text>
<polygon fill="none" stroke="#000000" points="853,-524.7 853,-546.7 947,-546.7 947,-524.7 853,-524.7"/>
<text text-anchor="start" x="855.9758" y="-532.4" font-family="Helvetica,sans-Serif" font-size="11.00" fill="#000000">uuid[2147483647]</text>
<polygon fill="#ffffff" stroke="transparent" points="581,-502.7 581,-524.7 853,-524.7 853,-502.7 581,-502.7"/>
<polygon fill="none" stroke="#000000" points="581,-502.7 581,-524.7 853,-524.7 853,-502.7 581,-502.7"/>
<image xlink:href="../../images/foreignKeys.png" width="11px" height="12px" preserveAspectRatio="xMinYMin meet" x="586" y="-519.7"/>
<text text-anchor="start" x="601" y="-509.8" font-family="Helvetica,sans-Serif" font-size="11.00" fill="#000000">trade_id</text>
<polygon fill="none" stroke="#000000" points="853,-502.7 853,-524.7 947,-524.7 947,-502.7 853,-502.7"/>
<text text-anchor="start" x="856" y="-510.4" font-family="Helvetica,sans-Serif" font-size="11.00" fill="#000000">int8[19]</text>
<polygon fill="none" stroke="#000000" points="581,-480.7 581,-502.7 853,-502.7 853,-480.7 581,-480.7"/>
<text text-anchor="start" x="601" y="-487.8" font-family="Helvetica,sans-Serif" font-size="11.00" fill="#000000">reference_obligation_isin</text>
<polygon fill="none" stroke="#000000" points="853,-480.7 853,-502.7 947,-502.7 947,-480.7 853,-480.7"/>
<text text-anchor="start" x="856" y="-488.4" font-family="Helvetica,sans-Serif" font-size="11.00" fill="#000000">varchar[12]</text>
<polygon fill="none" stroke="#000000" points="581,-458.7 581,-480.7 853,-480.7 853,-458.7 581,-458.7"/>
<text text-anchor="start" x="601" y="-465.8" font-family="Helvetica,sans-Serif" font-size="11.00" fill="#000000">proposed_delivery_date</text>
<polygon fill="none" stroke="#000000" points="853,-458.7 853,-480.7 947,-480.7 947,-458.7 853,-458.7"/>
<text text-anchor="start" x="856" y="-466.4" font-family="Helvetica,sans-Serif" font-size="11.00" fill="#000000">date[13]</text>
<polygon fill="none" stroke="#000000" points="581,-436.7 581,-458.7 853,-458.7 853,-436.7 581,-436.7"/>
<text text-anchor="start" x="601" y="-443.8" font-family="Helvetica,sans-Serif" font-size="11.00" fill="#000000">notes</text>
<polygon fill="none" stroke="#000000" points="853,-436.7 853,-458.7 947,-458.7 947,-436.7 853,-436.7"/>
<text text-anchor="start" x="856" y="-444.4" font-family="Helvetica,sans-Serif" font-size="11.00" fill="#000000">text[2147483647]</text>
<polygon fill="none" stroke="#000000" points="581,-414.7 581,-436.7 853,-436.7 853,-414.7 581,-414.7"/>
<text text-anchor="start" x="601" y="-421.8" font-family="Helvetica,sans-Serif" font-size="11.00" fill="#000000">status</text>
<polygon fill="none" stroke="#000000" points="853,-414.7 853,-436.7 947,-436.7 947,-414.7 853,-414.7"/>
<text text-anchor="start" x="856" y="-422.4" font-family="Helvetica,sans-Serif" font-size="11.00" fill="#000000">varchar[20]</text>
<polygon fill="none" stroke="#000000" points="581,-392.7 581,-414.7 853,-414.7 853,-392.7 581,-392.7"/>
<text text-anchor="start" x="601" y="-399.8" font-family="Helvetica,sans-Serif" font-size="11.00" fill="#000000">created_at</text>
<polygon fill="none" stroke="#000000" points="853,-392.7 853,-414.7 947,-414.7 947,-392.7 853,-392.7"/>
<text text-anchor="start" x="856" y="-400.4" font-family="Helvetica,sans-Serif" font-size="11.00" fill="#000000">timestamp[29,6]</text>
<polygon fill="none" stroke="#000000" points="581,-370.7 581,-392.7 853,-392.7 853,-370.7 581,-370.7"/>
<text text-anchor="start" x="601" y="-377.8" font-family="Helvetica,sans-Serif" font-size="11.00" fill="#000000">updated_at</text>
<polygon fill="none" stroke="#000000" points="853,-370.7 853,-392.7 947,-392.7 947,-370.7 853,-370.7"/>
<text text-anchor="start" x="856" y="-378.4" font-family="Helvetica,sans-Serif" font-size="11.00" fill="#000000">timestamp[29,6]</text>
<polygon fill="#ffffff" stroke="transparent" points="581,-351.7 581,-370.7 721,-370.7 721,-351.7 581,-351.7"/>
<polygon fill="none" stroke="#000000" points="581,-351.7 581,-370.7 721,-370.7 721,-351.7 581,-351.7"/>
<text text-anchor="start" x="584" y="-357.8" font-family="Helvetica,sans-Serif" font-size="11.00" fill="#000000">&lt; 2</text>
<polygon fill="#ffffff" stroke="transparent" points="721,-351.7 721,-370.7 853,-370.7 853,-351.7 721,-351.7"/>
<polygon fill="none" stroke="#000000" points="721,-351.7 721,-370.7 853,-370.7 853,-351.7 721,-351.7"/>
<text text-anchor="start" x="843.8862" y="-357.8" font-family="Helvetica,sans-Serif" font-size="11.00" fill="#000000"> &#160;</text>
<polygon fill="#ffffff" stroke="transparent" points="853,-351.7 853,-370.7 947,-370.7 947,-351.7 853,-351.7"/>
<polygon fill="none" stroke="#000000" points="853,-351.7 853,-370.7 947,-370.7 947,-351.7 853,-351.7"/>
<text text-anchor="start" x="928.4053" y="-357.8" font-family="Helvetica,sans-Serif" font-size="11.00" fill="#000000">0 &gt;</text>
<polygon fill="none" stroke="#000000" stroke-width="2" points="580,-350.7 580,-592.7 948,-592.7 948,-350.7 580,-350.7"/>
</a>
</g>
</g>
<!-- cds_physical_settlement_instructions&#45;&gt;cds_trades -->
<g id="edge7" class="edge">
<title>cds_physical_settlement_instructions:w&#45;&gt;cds_trades:e</title>
<path fill="none" stroke="#000000" d="M566.3536,-514.8224C557.4752,-516.2898 551.2343,-518.7811 538,-519.7 427.5991,-527.3653 392.5312,-558.7949 289,-519.7 262.2654,-509.6046 238.1404,-488.3546 220.6991,-469.6285"/>
<polygon fill="#000000" stroke="#000000" points="573.0234,-514.3113 581.2751,-517.2895 577.0117,-514.0057 581,-513.7 581,-513.7 581,-513.7 577.0117,-514.0057 580.7249,-510.1105 573.0234,-514.3113 573.0234,-514.3113"/>
<ellipse fill="none" stroke="#000000" cx="569.8327" cy="-514.5559" rx="3.2" ry="3.2"/>
</g>
<!-- cds_physical_settlement_instructions&#45;&gt;cds_credit_events -->
<g id="edge6" class="edge">
<title>cds_physical_settlement_instructions:w&#45;&gt;cds_credit_events:e</title>
<path fill="none" stroke="#000000" d="M570.4758,-536.5965C552.8087,-539.1821 526.6066,-547.0363 500.6481,-555.8882"/>
<polygon fill="#000000" stroke="#000000" points="579.8634,-531.7823 580.5424,-539.7535 578.9482,-539.8893 578.2691,-531.9182 579.8634,-531.7823"/>
<polyline fill="none" stroke="#000000" points="581,-535.7 577.0144,-536.0395 "/>
<ellipse fill="none" stroke="#000000" cx="573.826" cy="-536.3112" rx="3.2" ry="3.2"/>
</g>
<!-- cds_portfolio_constituents -->
<g id="node7" class="node">
<title>cds_portfolio_constituents</title>
<g id="a_node7"><a xlink:href="../../tables/cds_portfolio_constituents.html" xlink:title="cds_portfolio_constituents" target="_top">
<polygon fill="#ffffff" stroke="transparent" points="305,-448.2 305,-509.2 522,-509.2 522,-448.2 305,-448.2"/>
<polygon fill="#f5f5f5" stroke="transparent" points="305.5,-485.7 305.5,-508.7 522.5,-508.7 522.5,-485.7 305.5,-485.7"/>
<polygon fill="none" stroke="#000000" points="305.5,-485.7 305.5,-508.7 522.5,-508.7 522.5,-485.7 305.5,-485.7"/>
<text text-anchor="start" x="310.5" y="-494.3" font-family="Helvetica,sans-Serif" font-weight="bold" font-size="11.00" fill="#000000">cds_portfolio_constituents</text>
<text text-anchor="start" x="488.0219" y="-493.8" font-family="Helvetica,sans-Serif" font-size="11.00" fill="#000000">[table]</text>
<polygon fill="none" stroke="#000000" points="305.5,-466.7 305.5,-485.7 522.5,-485.7 522.5,-466.7 305.5,-466.7"/>
<text text-anchor="start" x="308.5" y="-472.8" font-family="Helvetica,sans-Serif" font-size="11.00" fill="#000000">...</text>
<polygon fill="#ffffff" stroke="transparent" points="305.5,-447.7 305.5,-466.7 412.5,-466.7 412.5,-447.7 305.5,-447.7"/>
<polygon fill="none" stroke="#000000" points="305.5,-447.7 305.5,-466.7 412.5,-466.7 412.5,-447.7 305.5,-447.7"/>
<text text-anchor="start" x="308.5" y="-453.8" font-family="Helvetica,sans-Serif" font-size="11.00" fill="#000000">&lt; 2</text>
<polygon fill="#ffffff" stroke="transparent" points="412.5,-447.7 412.5,-466.7 467.5,-466.7 467.5,-447.7 412.5,-447.7"/>
<polygon fill="none" stroke="#000000" points="412.5,-447.7 412.5,-466.7 467.5,-466.7 467.5,-447.7 412.5,-447.7"/>
<text text-anchor="start" x="458.3862" y="-453.8" font-family="Helvetica,sans-Serif" font-size="11.00" fill="#000000"> &#160;</text>
<polygon fill="#ffffff" stroke="transparent" points="467.5,-447.7 467.5,-466.7 522.5,-466.7 522.5,-447.7 467.5,-447.7"/>
<polygon fill="none" stroke="#000000" points="467.5,-447.7 467.5,-466.7 522.5,-466.7 522.5,-447.7 467.5,-447.7"/>
<text text-anchor="start" x="513.3862" y="-453.8" font-family="Helvetica,sans-Serif" font-size="11.00" fill="#000000"> &#160;</text>
</a>
</g>
</g>
<!-- cds_portfolio_constituents&#45;&gt;cds_trades -->
<g id="edge8" class="edge">
<title>cds_portfolio_constituents:w&#45;&gt;cds_trades:e</title>
<path fill="none" stroke="#000000" d="M291.1027,-474.7795C279.2556,-473.3179 267.3948,-470.2349 256.2143,-466.3965"/>
<polygon fill="#000000" stroke="#000000" points="297.5163,-475.1895 305.2703,-479.2927 301.5082,-475.4447 305.5,-475.7 305.5,-475.7 305.5,-475.7 301.5082,-475.4447 305.7297,-472.1073 297.5163,-475.1895 297.5163,-475.1895"/>
<ellipse fill="none" stroke="#000000" cx="294.3228" cy="-474.9853" rx="3.2" ry="3.2"/>
</g>
<!-- compression_proposal_items -->
<g id="node9" class="node">
<title>compression_proposal_items</title>
<g id="a_node9"><a xlink:href="../../tables/compression_proposal_items.html" xlink:title="compression_proposal_items" target="_top">
<polygon fill="#ffffff" stroke="transparent" points="297,-366.2 297,-427.2 530,-427.2 530,-366.2 297,-366.2"/>
<polygon fill="#f5f5f5" stroke="transparent" points="297.5,-403.7 297.5,-426.7 530.5,-426.7 530.5,-403.7 297.5,-403.7"/>
<polygon fill="none" stroke="#000000" points="297.5,-403.7 297.5,-426.7 530.5,-426.7 530.5,-403.7 297.5,-403.7"/>
<text text-anchor="start" x="302.5" y="-412.3" font-family="Helvetica,sans-Serif" font-weight="bold" font-size="11.00" fill="#000000">compression_proposal_items</text>
<text text-anchor="start" x="496.0219" y="-411.8" font-family="Helvetica,sans-Serif" font-size="11.00" fill="#000000">[table]</text>
<polygon fill="none" stroke="#000000" points="297.5,-384.7 297.5,-403.7 530.5,-403.7 530.5,-384.7 297.5,-384.7"/>
<text text-anchor="start" x="300.5" y="-390.8" font-family="Helvetica,sans-Serif" font-size="11.00" fill="#000000">...</text>
<polygon fill="#ffffff" stroke="transparent" points="297.5,-365.7 297.5,-384.7 412.5,-384.7 412.5,-365.7 297.5,-365.7"/>
<polygon fill="none" stroke="#000000" points="297.5,-365.7 297.5,-384.7 412.5,-384.7 412.5,-365.7 297.5,-365.7"/>
<text text-anchor="start" x="300.5" y="-371.8" font-family="Helvetica,sans-Serif" font-size="11.00" fill="#000000">&lt; 2</text>
<polygon fill="#ffffff" stroke="transparent" points="412.5,-365.7 412.5,-384.7 471.5,-384.7 471.5,-365.7 412.5,-365.7"/>
<polygon fill="none" stroke="#000000" points="412.5,-365.7 412.5,-384.7 471.5,-384.7 471.5,-365.7 412.5,-365.7"/>
<text text-anchor="start" x="462.3862" y="-371.8" font-family="Helvetica,sans-Serif" font-size="11.00" fill="#000000"> &#160;</text>
<polygon fill="#ffffff" stroke="transparent" points="471.5,-365.7 471.5,-384.7 530.5,-384.7 530.5,-365.7 471.5,-365.7"/>
<polygon fill="none" stroke="#000000" points="471.5,-365.7 471.5,-384.7 530.5,-384.7 530.5,-365.7 471.5,-365.7"/>
<text text-anchor="start" x="521.3862" y="-371.8" font-family="Helvetica,sans-Serif" font-size="11.00" fill="#000000"> &#160;</text>
</a>
</g>
</g>
<!-- compression_proposal_items&#45;&gt;cds_trades -->
<g id="edge10" class="edge">
<title>compression_proposal_items:w&#45;&gt;cds_trades:e</title>
<path fill="none" stroke="#000000" d="M282.868,-394.7785C273.8557,-396.059 264.8744,-398.3937 256.2644,-401.3157"/>
<polygon fill="#000000" stroke="#000000" points="289.5216,-394.2881 297.7647,-397.2903 293.5108,-393.9941 297.5,-393.7 297.5,-393.7 297.5,-393.7 293.5108,-393.9941 297.2353,-390.1097 289.5216,-394.2881 289.5216,-394.2881"/>
<ellipse fill="none" stroke="#000000" cx="286.3303" cy="-394.5234" rx="3.2" ry="3.2"/>
</g>
<!-- notional_adjustments -->
<g id="node10" class="node">
<title>notional_adjustments</title>
<g id="a_node10"><a xlink:href="../../tables/notional_adjustments.html" xlink:title="notional_adjustments" target="_top">
<polygon fill="#ffffff" stroke="transparent" points="321.5,-284.2 321.5,-345.2 505.5,-345.2 505.5,-284.2 321.5,-284.2"/>
<polygon fill="#f5f5f5" stroke="transparent" points="321.5,-321.7 321.5,-344.7 505.5,-344.7 505.5,-321.7 321.5,-321.7"/>
<polygon fill="none" stroke="#000000" points="321.5,-321.7 321.5,-344.7 505.5,-344.7 505.5,-321.7 321.5,-321.7"/>
<text text-anchor="start" x="326.5" y="-330.3" font-family="Helvetica,sans-Serif" font-weight="bold" font-size="11.00" fill="#000000">notional_adjustments</text>
<text text-anchor="start" x="471.0219" y="-329.8" font-family="Helvetica,sans-Serif" font-size="11.00" fill="#000000">[table]</text>
<polygon fill="none" stroke="#000000" points="321.5,-302.7 321.5,-321.7 505.5,-321.7 505.5,-302.7 321.5,-302.7"/>
<text text-anchor="start" x="324.5" y="-308.8" font-family="Helvetica,sans-Serif" font-size="11.00" fill="#000000">...</text>
<polygon fill="#ffffff" stroke="transparent" points="321.5,-283.7 321.5,-302.7 411.5,-302.7 411.5,-283.7 321.5,-283.7"/>
<polygon fill="none" stroke="#000000" points="321.5,-283.7 321.5,-302.7 411.5,-302.7 411.5,-283.7 321.5,-283.7"/>
<text text-anchor="start" x="324.5" y="-289.8" font-family="Helvetica,sans-Serif" font-size="11.00" fill="#000000">&lt; 1</text>
<polygon fill="#ffffff" stroke="transparent" points="411.5,-283.7 411.5,-302.7 458.5,-302.7 458.5,-283.7 411.5,-283.7"/>
<polygon fill="none" stroke="#000000" points="411.5,-283.7 411.5,-302.7 458.5,-302.7 458.5,-283.7 411.5,-283.7"/>
<text text-anchor="start" x="449.3862" y="-289.8" font-family="Helvetica,sans-Serif" font-size="11.00" fill="#000000"> &#160;</text>
<polygon fill="#ffffff" stroke="transparent" points="458.5,-283.7 458.5,-302.7 505.5,-302.7 505.5,-283.7 458.5,-283.7"/>
<polygon fill="none" stroke="#000000" points="458.5,-283.7 458.5,-302.7 505.5,-302.7 505.5,-283.7 458.5,-283.7"/>
<text text-anchor="start" x="496.3862" y="-289.8" font-family="Helvetica,sans-Serif" font-size="11.00" fill="#000000"> &#160;</text>
</a>
</g>
</g>
<!-- notional_adjustments&#45;&gt;cds_trades -->
<g id="edge12" class="edge">
<title>notional_adjustments:w&#45;&gt;cds_trades:e</title>
<path fill="none" stroke="#000000" d="M307.0543,-313.0703C262.664,-321.5155 228.8944,-367.2117 209.8846,-400.1103"/>
<polygon fill="#000000" stroke="#000000" points="313.5358,-312.4555 321.84,-315.2839 317.5179,-312.0778 321.5,-311.7 321.5,-311.7 321.5,-311.7 317.5179,-312.0778 321.16,-308.1161 313.5358,-312.4555 313.5358,-312.4555"/>
<ellipse fill="none" stroke="#000000" cx="310.3501" cy="-312.7578" rx="3.2" ry="3.2"/>
</g>
<!-- sa_ccr_trade_mappings -->
<g id="node11" class="node">
<title>sa_ccr_trade_mappings</title>
<g id="a_node11"><a xlink:href="../../tables/sa_ccr_trade_mappings.html" xlink:title="sa_ccr_trade_mappings" target="_top">
<polygon fill="#ffffff" stroke="transparent" points="316,-202.2 316,-263.2 511,-263.2 511,-202.2 316,-202.2"/>
<polygon fill="#f5f5f5" stroke="transparent" points="316.5,-239.7 316.5,-262.7 511.5,-262.7 511.5,-239.7 316.5,-239.7"/>
<polygon fill="none" stroke="#000000" points="316.5,-239.7 316.5,-262.7 511.5,-262.7 511.5,-239.7 316.5,-239.7"/>
<text text-anchor="start" x="321.5" y="-248.3" font-family="Helvetica,sans-Serif" font-weight="bold" font-size="11.00" fill="#000000">sa_ccr_trade_mappings</text>
<text text-anchor="start" x="477.0219" y="-247.8" font-family="Helvetica,sans-Serif" font-size="11.00" fill="#000000">[table]</text>
<polygon fill="none" stroke="#000000" points="316.5,-220.7 316.5,-239.7 511.5,-239.7 511.5,-220.7 316.5,-220.7"/>
<text text-anchor="start" x="319.5" y="-226.8" font-family="Helvetica,sans-Serif" font-size="11.00" fill="#000000">...</text>
<polygon fill="#ffffff" stroke="transparent" points="316.5,-201.7 316.5,-220.7 412.5,-220.7 412.5,-201.7 316.5,-201.7"/>
<polygon fill="none" stroke="#000000" points="316.5,-201.7 316.5,-220.7 412.5,-220.7 412.5,-201.7 316.5,-201.7"/>
<text text-anchor="start" x="319.5" y="-207.8" font-family="Helvetica,sans-Serif" font-size="11.00" fill="#000000">&lt; 3</text>
<polygon fill="#ffffff" stroke="transparent" points="412.5,-201.7 412.5,-220.7 461.5,-220.7 461.5,-201.7 412.5,-201.7"/>
<polygon fill="none" stroke="#000000" points="412.5,-201.7 412.5,-220.7 461.5,-220.7 461.5,-201.7 412.5,-201.7"/>
<text text-anchor="start" x="452.3862" y="-207.8" font-family="Helvetica,sans-Serif" font-size="11.00" fill="#000000"> &#160;</text>
<polygon fill="#ffffff" stroke="transparent" points="461.5,-201.7 461.5,-220.7 511.5,-220.7 511.5,-201.7 461.5,-201.7"/>
<polygon fill="none" stroke="#000000" points="461.5,-201.7 461.5,-220.7 511.5,-220.7 511.5,-201.7 461.5,-201.7"/>
<text text-anchor="start" x="502.3862" y="-207.8" font-family="Helvetica,sans-Serif" font-size="11.00" fill="#000000"> &#160;</text>
</a>
</g>
</g>
<!-- sa_ccr_trade_mappings&#45;&gt;cds_trades -->
<g id="edge13" class="edge">
<title>sa_ccr_trade_mappings:w&#45;&gt;cds_trades:e</title>
<path fill="none" stroke="#000000" d="M301.8959,-231.0484C234.0851,-243.8824 207.094,-345.2068 197.3805,-399.9245"/>
<polygon fill="#000000" stroke="#000000" points="308.5339,-230.4355 316.831,-233.2848 312.5169,-230.0678 316.5,-229.7 316.5,-229.7 316.5,-229.7 312.5169,-230.0678 316.169,-226.1152 308.5339,-230.4355 308.5339,-230.4355"/>
<ellipse fill="none" stroke="#000000" cx="305.3474" cy="-230.7298" rx="3.2" ry="3.2"/>
</g>
<!-- trade_amendments -->
<g id="node12" class="node">
<title>trade_amendments</title>
<g id="a_node12"><a xlink:href="../../tables/trade_amendments.html" xlink:title="trade_amendments" target="_top">
<polygon fill="#ffffff" stroke="transparent" points="329,-120.2 329,-181.2 498,-181.2 498,-120.2 329,-120.2"/>
<polygon fill="#f5f5f5" stroke="transparent" points="329.5,-157.7 329.5,-180.7 498.5,-180.7 498.5,-157.7 329.5,-157.7"/>
<polygon fill="none" stroke="#000000" points="329.5,-157.7 329.5,-180.7 498.5,-180.7 498.5,-157.7 329.5,-157.7"/>
<text text-anchor="start" x="334.5" y="-166.3" font-family="Helvetica,sans-Serif" font-weight="bold" font-size="11.00" fill="#000000">trade_amendments</text>
<text text-anchor="start" x="464.0219" y="-165.8" font-family="Helvetica,sans-Serif" font-size="11.00" fill="#000000">[table]</text>
<polygon fill="none" stroke="#000000" points="329.5,-138.7 329.5,-157.7 498.5,-157.7 498.5,-138.7 329.5,-138.7"/>
<text text-anchor="start" x="332.5" y="-144.8" font-family="Helvetica,sans-Serif" font-size="11.00" fill="#000000">...</text>
<polygon fill="#ffffff" stroke="transparent" points="329.5,-119.7 329.5,-138.7 412.5,-138.7 412.5,-119.7 329.5,-119.7"/>
<polygon fill="none" stroke="#000000" points="329.5,-119.7 329.5,-138.7 412.5,-138.7 412.5,-119.7 329.5,-119.7"/>
<text text-anchor="start" x="332.5" y="-125.8" font-family="Helvetica,sans-Serif" font-size="11.00" fill="#000000">&lt; 1</text>
<polygon fill="#ffffff" stroke="transparent" points="412.5,-119.7 412.5,-138.7 455.5,-138.7 455.5,-119.7 412.5,-119.7"/>
<polygon fill="none" stroke="#000000" points="412.5,-119.7 412.5,-138.7 455.5,-138.7 455.5,-119.7 412.5,-119.7"/>
<text text-anchor="start" x="446.3862" y="-125.8" font-family="Helvetica,sans-Serif" font-size="11.00" fill="#000000"> &#160;</text>
<polygon fill="#ffffff" stroke="transparent" points="455.5,-119.7 455.5,-138.7 498.5,-138.7 498.5,-119.7 455.5,-119.7"/>
<polygon fill="none" stroke="#000000" points="455.5,-119.7 455.5,-138.7 498.5,-138.7 498.5,-119.7 455.5,-119.7"/>
<text text-anchor="start" x="489.3862" y="-125.8" font-family="Helvetica,sans-Serif" font-size="11.00" fill="#000000"> &#160;</text>
</a>
</g>
</g>
<!-- trade_amendments&#45;&gt;cds_trades -->
<g id="edge14" class="edge">
<title>trade_amendments:w&#45;&gt;cds_trades:e</title>
<path fill="none" stroke="#000000" d="M315.308,-151.4255C265.334,-177.2218 219.7241,-330.3077 201.2209,-400.0811"/>
<polygon fill="#000000" stroke="#000000" points="321.7622,-149.7312 330.4141,-151.182 325.6311,-148.7156 329.5,-147.7 329.5,-147.7 329.5,-147.7 325.6311,-148.7156 328.5859,-144.218 321.7622,-149.7312 321.7622,-149.7312"/>
<ellipse fill="none" stroke="#000000" cx="318.667" cy="-150.5437" rx="3.2" ry="3.2"/>
</g>
<!-- trade_novations -->
<g id="node13" class="node">
<title>trade_novations</title>
<g id="a_node13"><a xlink:href="../../tables/trade_novations.html" xlink:title="trade_novations" target="_top">
<polygon fill="#ffffff" stroke="transparent" points="340,-38.2 340,-99.2 487,-99.2 487,-38.2 340,-38.2"/>
<polygon fill="#f5f5f5" stroke="transparent" points="340.5,-75.7 340.5,-98.7 487.5,-98.7 487.5,-75.7 340.5,-75.7"/>
<polygon fill="none" stroke="#000000" points="340.5,-75.7 340.5,-98.7 487.5,-98.7 487.5,-75.7 340.5,-75.7"/>
<text text-anchor="start" x="345.5" y="-84.3" font-family="Helvetica,sans-Serif" font-weight="bold" font-size="11.00" fill="#000000">trade_novations</text>
<text text-anchor="start" x="453.0219" y="-83.8" font-family="Helvetica,sans-Serif" font-size="11.00" fill="#000000">[table]</text>
<polygon fill="none" stroke="#000000" points="340.5,-56.7 340.5,-75.7 487.5,-75.7 487.5,-56.7 340.5,-56.7"/>
<text text-anchor="start" x="343.5" y="-62.8" font-family="Helvetica,sans-Serif" font-size="11.00" fill="#000000">...</text>
<polygon fill="#ffffff" stroke="transparent" points="340.5,-37.7 340.5,-56.7 412.5,-56.7 412.5,-37.7 340.5,-37.7"/>
<polygon fill="none" stroke="#000000" points="340.5,-37.7 340.5,-56.7 412.5,-56.7 412.5,-37.7 340.5,-37.7"/>
<text text-anchor="start" x="343.5" y="-43.8" font-family="Helvetica,sans-Serif" font-size="11.00" fill="#000000">&lt; 2</text>
<polygon fill="#ffffff" stroke="transparent" points="412.5,-37.7 412.5,-56.7 449.5,-56.7 449.5,-37.7 412.5,-37.7"/>
<polygon fill="none" stroke="#000000" points="412.5,-37.7 412.5,-56.7 449.5,-56.7 449.5,-37.7 412.5,-37.7"/>
<text text-anchor="start" x="440.3862" y="-43.8" font-family="Helvetica,sans-Serif" font-size="11.00" fill="#000000"> &#160;</text>
<polygon fill="#ffffff" stroke="transparent" points="449.5,-37.7 449.5,-56.7 487.5,-56.7 487.5,-37.7 449.5,-37.7"/>
<polygon fill="none" stroke="#000000" points="449.5,-37.7 449.5,-56.7 487.5,-56.7 487.5,-37.7 449.5,-37.7"/>
<text text-anchor="start" x="478.3862" y="-43.8" font-family="Helvetica,sans-Serif" font-size="11.00" fill="#000000"> &#160;</text>
</a>
</g>
</g>
<!-- trade_novations&#45;&gt;cds_trades -->
<g id="edge15" class="edge">
<title>trade_novations:w&#45;&gt;cds_trades:e</title>
<path fill="none" stroke="#000000" d="M325.9473,-68.0846C261.11,-93.7378 213.9616,-313.3724 198.2187,-399.9235"/>
<polygon fill="#000000" stroke="#000000" points="332.6053,-66.9937 341.0822,-69.2526 336.5526,-66.3468 340.5,-65.7 340.5,-65.7 340.5,-65.7 336.5526,-66.3468 339.9178,-62.1474 332.6053,-66.9937 332.6053,-66.9937"/>
<ellipse fill="none" stroke="#000000" cx="329.4474" cy="-67.5111" rx="3.2" ry="3.2"/>
</g>
<!-- trade_novations&#45;&gt;cds_trades -->
<g id="edge16" class="edge">
<title>trade_novations:w&#45;&gt;cds_trades:e</title>
<path fill="none" stroke="#000000" d="M326.6536,-69.7767C262.9503,-102.2326 216.2074,-315.0804 199.3575,-399.9505"/>
<polygon fill="#000000" stroke="#000000" points="332.8257,-67.9595 341.5168,-69.1534 336.6629,-66.8298 340.5,-65.7 340.5,-65.7 340.5,-65.7 336.6629,-66.8298 339.4832,-62.2466 332.8257,-67.9595 332.8257,-67.9595"/>
<ellipse fill="none" stroke="#000000" cx="329.756" cy="-68.8634" rx="3.2" ry="3.2"/>
</g>
</g>
</svg>
