<?xml version="1.0" encoding="UTF-8" standalone="no"?>
<!DOCTYPE svg PUBLIC "-//W3C//DTD SVG 1.1//EN"
 "http://www.w3.org/Graphics/SVG/1.1/DTD/svg11.dtd">
<!-- Generated by graphviz version 2.40.1 (20161225.0304)
 -->
<!-- Title: oneDegreeRelationshipsDiagram Pages: 1 -->
<svg width="717pt" height="522pt"
 viewBox="0.00 0.00 717.00 522.20" xmlns="http://www.w3.org/2000/svg" xmlns:xlink="http://www.w3.org/1999/xlink">
<g id="graph0" class="graph" transform="scale(1 1) rotate(0) translate(4 518.2)">
<title>oneDegreeRelationshipsDiagram</title>
<polygon fill="#ffffff" stroke="transparent" points="-4,4 -4,-518.2 713,-518.2 713,4 -4,4"/>
<text text-anchor="middle" x="72.4936" y="-7.3" font-family="Helvetica,sans-Serif" font-size="11.00" fill="#000000">Generated by SchemaSpy</text>
<!-- cds_cash_settlements -->
<g id="node1" class="node">
<title>cds_cash_settlements</title>
<g id="a_node1"><a xlink:href="../../tables/cds_cash_settlements.html" xlink:title="cds_cash_settlements" target="_top">
<polygon fill="#ffffff" stroke="transparent" points="436,-274.7 436,-474.7 701,-474.7 701,-274.7 436,-274.7"/>
<polygon fill="#f5f5f5" stroke="transparent" points="438.5,-449.7 438.5,-472.7 699.5,-472.7 699.5,-449.7 438.5,-449.7"/>
<polygon fill="none" stroke="#000000" points="438.5,-449.7 438.5,-472.7 699.5,-472.7 699.5,-449.7 438.5,-449.7"/>
<text text-anchor="start" x="443.5" y="-458.3" font-family="Helvetica,sans-Serif" font-weight="bold" font-size="11.00" fill="#000000">cds_cash_settlements</text>
<text text-anchor="start" x="664.5437" y="-457.8" font-family="Helvetica,sans-Serif" font-size="11.00" fill="#000000">[table]</text>
<polygon fill="none" stroke="#000000" points="438.5,-427.7 438.5,-449.7 605.5,-449.7 605.5,-427.7 438.5,-427.7"/>
<image xlink:href="../../images/primaryKeys.png" width="11px" height="12px" preserveAspectRatio="xMinYMin meet" x="443.5" y="-444.7"/>
<text text-anchor="start" x="458.5" y="-434.8" font-family="Helvetica,sans-Serif" font-size="11.00" fill="#000000">id</text>
<polygon fill="none" stroke="#000000" points="605.5,-427.7 605.5,-449.7 699.5,-449.7 699.5,-427.7 605.5,-427.7"/>
<text text-anchor="start" x="608.4758" y="-435.4" font-family="Helvetica,sans-Serif" font-size="11.00" fill="#000000">uuid[2147483647]</text>
<polygon fill="#ffffff" stroke="transparent" points="438.5,-405.7 438.5,-427.7 605.5,-427.7 605.5,-405.7 438.5,-405.7"/>
<polygon fill="none" stroke="#000000" points="438.5,-405.7 438.5,-427.7 605.5,-427.7 605.5,-405.7 438.5,-405.7"/>
<image xlink:href="../../images/foreignKeys.png" width="11px" height="12px" preserveAspectRatio="xMinYMin meet" x="443.5" y="-422.7"/>
<text text-anchor="start" x="458.5" y="-412.8" font-family="Helvetica,sans-Serif" font-size="11.00" fill="#000000">credit_event_id</text>
<polygon fill="none" stroke="#000000" points="605.5,-405.7 605.5,-427.7 699.5,-427.7 699.5,-405.7 605.5,-405.7"/>
<text text-anchor="start" x="608.4758" y="-413.4" font-family="Helvetica,sans-Serif" font-size="11.00" fill="#000000">uuid[2147483647]</text>
<polygon fill="#ffffff" stroke="transparent" points="438.5,-383.7 438.5,-405.7 605.5,-405.7 605.5,-383.7 438.5,-383.7"/>
<polygon fill="none" stroke="#000000" points="438.5,-383.7 438.5,-405.7 605.5,-405.7 605.5,-383.7 438.5,-383.7"/>
<image xlink:href="../../images/foreignKeys.png" width="11px" height="12px" preserveAspectRatio="xMinYMin meet" x="443.5" y="-400.7"/>
<text text-anchor="start" x="458.5" y="-390.8" font-family="Helvetica,sans-Serif" font-size="11.00" fill="#000000">trade_id</text>
<polygon fill="none" stroke="#000000" points="605.5,-383.7 605.5,-405.7 699.5,-405.7 699.5,-383.7 605.5,-383.7"/>
<text text-anchor="start" x="608.5" y="-391.4" font-family="Helvetica,sans-Serif" font-size="11.00" fill="#000000">int8[19]</text>
<polygon fill="none" stroke="#000000" points="438.5,-361.7 438.5,-383.7 605.5,-383.7 605.5,-361.7 438.5,-361.7"/>
<text text-anchor="start" x="458.5" y="-368.8" font-family="Helvetica,sans-Serif" font-size="11.00" fill="#000000">notional</text>
<polygon fill="none" stroke="#000000" points="605.5,-361.7 605.5,-383.7 699.5,-383.7 699.5,-361.7 605.5,-361.7"/>
<text text-anchor="start" x="608.5" y="-369.4" font-family="Helvetica,sans-Serif" font-size="11.00" fill="#000000">numeric[15,2]</text>
<polygon fill="none" stroke="#000000" points="438.5,-339.7 438.5,-361.7 605.5,-361.7 605.5,-339.7 438.5,-339.7"/>
<text text-anchor="start" x="458.5" y="-346.8" font-family="Helvetica,sans-Serif" font-size="11.00" fill="#000000">recovery_rate</text>
<polygon fill="none" stroke="#000000" points="605.5,-339.7 605.5,-361.7 699.5,-361.7 699.5,-339.7 605.5,-339.7"/>
<text text-anchor="start" x="608.5" y="-347.4" font-family="Helvetica,sans-Serif" font-size="11.00" fill="#000000">numeric[5,4]</text>
<polygon fill="none" stroke="#000000" points="438.5,-317.7 438.5,-339.7 605.5,-339.7 605.5,-317.7 438.5,-317.7"/>
<text text-anchor="start" x="458.5" y="-324.8" font-family="Helvetica,sans-Serif" font-size="11.00" fill="#000000">payout_amount</text>
<polygon fill="none" stroke="#000000" points="605.5,-317.7 605.5,-339.7 699.5,-339.7 699.5,-317.7 605.5,-317.7"/>
<text text-anchor="start" x="608.5" y="-325.4" font-family="Helvetica,sans-Serif" font-size="11.00" fill="#000000">numeric[15,2]</text>
<polygon fill="none" stroke="#000000" points="438.5,-295.7 438.5,-317.7 605.5,-317.7 605.5,-295.7 438.5,-295.7"/>
<text text-anchor="start" x="458.5" y="-302.8" font-family="Helvetica,sans-Serif" font-size="11.00" fill="#000000">calculated_at</text>
<polygon fill="none" stroke="#000000" points="605.5,-295.7 605.5,-317.7 699.5,-317.7 699.5,-295.7 605.5,-295.7"/>
<text text-anchor="start" x="608.5" y="-303.4" font-family="Helvetica,sans-Serif" font-size="11.00" fill="#000000">timestamp[29,6]</text>
<polygon fill="#ffffff" stroke="transparent" points="438.5,-276.7 438.5,-295.7 526.5,-295.7 526.5,-276.7 438.5,-276.7"/>
<polygon fill="none" stroke="#000000" points="438.5,-276.7 438.5,-295.7 526.5,-295.7 526.5,-276.7 438.5,-276.7"/>
<text text-anchor="start" x="441.5" y="-282.8" font-family="Helvetica,sans-Serif" font-size="11.00" fill="#000000">&lt; 2</text>
<polygon fill="#ffffff" stroke="transparent" points="526.5,-276.7 526.5,-295.7 605.5,-295.7 605.5,-276.7 526.5,-276.7"/>
<polygon fill="none" stroke="#000000" points="526.5,-276.7 526.5,-295.7 605.5,-295.7 605.5,-276.7 526.5,-276.7"/>
<text text-anchor="start" x="596.3862" y="-282.8" font-family="Helvetica,sans-Serif" font-size="11.00" fill="#000000"> &#160;</text>
<polygon fill="#ffffff" stroke="transparent" points="605.5,-276.7 605.5,-295.7 699.5,-295.7 699.5,-276.7 605.5,-276.7"/>
<polygon fill="none" stroke="#000000" points="605.5,-276.7 605.5,-295.7 699.5,-295.7 699.5,-276.7 605.5,-276.7"/>
<text text-anchor="start" x="680.9053" y="-282.8" font-family="Helvetica,sans-Serif" font-size="11.00" fill="#000000">0 &gt;</text>
<polygon fill="none" stroke="#000000" stroke-width="2" points="437,-275.7 437,-473.7 700,-473.7 700,-275.7 437,-275.7"/>
</a>
</g>
</g>
<!-- cds_credit_events -->
<g id="node2" class="node">
<title>cds_credit_events</title>
<g id="a_node2"><a xlink:href="../../tables/cds_credit_events.html" xlink:title="cds_credit_events" target="_top">
<polygon fill="#ffffff" stroke="transparent" points="229,-361.2 229,-510.2 387,-510.2 387,-361.2 229,-361.2"/>
<polygon fill="#f5f5f5" stroke="transparent" points="229,-486.7 229,-509.7 387,-509.7 387,-486.7 229,-486.7"/>
<polygon fill="none" stroke="#000000" points="229,-486.7 229,-509.7 387,-509.7 387,-486.7 229,-486.7"/>
<text text-anchor="start" x="234" y="-495.3" font-family="Helvetica,sans-Serif" font-weight="bold" font-size="11.00" fill="#000000">cds_credit_events</text>
<text text-anchor="start" x="352.5219" y="-494.8" font-family="Helvetica,sans-Serif" font-size="11.00" fill="#000000">[table]</text>
<polygon fill="none" stroke="#000000" points="229,-464.7 229,-486.7 387,-486.7 387,-464.7 229,-464.7"/>
<image xlink:href="../../images/primaryKeys.png" width="11px" height="12px" preserveAspectRatio="xMinYMin meet" x="234" y="-481.7"/>
<text text-anchor="start" x="252" y="-471.8" font-family="Helvetica,sans-Serif" font-size="11.00" fill="#000000">id</text>
<polygon fill="#ffffff" stroke="transparent" points="229,-442.7 229,-464.7 387,-464.7 387,-442.7 229,-442.7"/>
<polygon fill="none" stroke="#000000" points="229,-442.7 229,-464.7 387,-464.7 387,-442.7 229,-442.7"/>
<image xlink:href="../../images/foreignKeys.png" width="11px" height="12px" preserveAspectRatio="xMinYMin meet" x="234" y="-459.7"/>
<text text-anchor="start" x="252" y="-449.8" font-family="Helvetica,sans-Serif" font-size="11.00" fill="#000000">trade_id</text>
<polygon fill="#ffffff" stroke="transparent" points="229,-420.7 229,-442.7 387,-442.7 387,-420.7 229,-420.7"/>
<polygon fill="none" stroke="#000000" points="229,-420.7 229,-442.7 387,-442.7 387,-420.7 229,-420.7"/>
<text text-anchor="start" x="252" y="-427.8" font-family="Helvetica,sans-Serif" font-size="11.00" fill="#000000">event_type</text>
<polygon fill="#ffffff" stroke="transparent" points="229,-398.7 229,-420.7 387,-420.7 387,-398.7 229,-398.7"/>
<polygon fill="none" stroke="#000000" points="229,-398.7 229,-420.7 387,-420.7 387,-398.7 229,-398.7"/>
<text text-anchor="start" x="252" y="-405.8" font-family="Helvetica,sans-Serif" font-size="11.00" fill="#000000">event_date</text>
<polygon fill="none" stroke="#000000" points="229,-379.7 229,-398.7 387,-398.7 387,-379.7 229,-379.7"/>
<text text-anchor="start" x="232" y="-385.8" font-family="Helvetica,sans-Serif" font-size="11.00" fill="#000000">...</text>
<polygon fill="#ffffff" stroke="transparent" points="229,-360.7 229,-379.7 302,-379.7 302,-360.7 229,-360.7"/>
<polygon fill="none" stroke="#000000" points="229,-360.7 229,-379.7 302,-379.7 302,-360.7 229,-360.7"/>
<text text-anchor="start" x="232" y="-366.8" font-family="Helvetica,sans-Serif" font-size="11.00" fill="#000000">&lt; 1</text>
<polygon fill="#ffffff" stroke="transparent" points="302,-360.7 302,-379.7 340,-379.7 340,-360.7 302,-360.7"/>
<polygon fill="none" stroke="#000000" points="302,-360.7 302,-379.7 340,-379.7 340,-360.7 302,-360.7"/>
<text text-anchor="start" x="330.8862" y="-366.8" font-family="Helvetica,sans-Serif" font-size="11.00" fill="#000000"> &#160;</text>
<polygon fill="#ffffff" stroke="transparent" points="340,-360.7 340,-379.7 387,-379.7 387,-360.7 340,-360.7"/>
<polygon fill="none" stroke="#000000" points="340,-360.7 340,-379.7 387,-379.7 387,-360.7 340,-360.7"/>
<text text-anchor="start" x="368.4053" y="-366.8" font-family="Helvetica,sans-Serif" font-size="11.00" fill="#000000">2 &gt;</text>
</a>
</g>
</g>
<!-- cds_cash_settlements&#45;&gt;cds_credit_events -->
<g id="edge1" class="edge">
<title>cds_cash_settlements:w&#45;&gt;cds_credit_events:e</title>
<path fill="none" stroke="#000000" d="M428.2732,-418.9408C407.2119,-429.7179 417.7278,-475.7 387,-475.7"/>
<polygon fill="#000000" stroke="#000000" points="436.8624,-412.9639 438.5747,-420.7785 437.0118,-421.121 435.2994,-413.3064 436.8624,-412.9639"/>
<polyline fill="none" stroke="#000000" points="438.5,-416.7 434.5927,-417.5562 "/>
<ellipse fill="none" stroke="#000000" cx="431.4669" cy="-418.2411" rx="3.2" ry="3.2"/>
</g>
<!-- cds_trades -->
<g id="node3" class="node">
<title>cds_trades</title>
<g id="a_node3"><a xlink:href="../../tables/cds_trades.html" xlink:title="cds_trades" target="_top">
<polygon fill="#ffffff" stroke="transparent" points="8,-38.2 8,-429.2 180,-429.2 180,-38.2 8,-38.2"/>
<polygon fill="#f5f5f5" stroke="transparent" points="8,-405.7 8,-428.7 180,-428.7 180,-405.7 8,-405.7"/>
<polygon fill="none" stroke="#000000" points="8,-405.7 8,-428.7 180,-428.7 180,-405.7 8,-405.7"/>
<text text-anchor="start" x="13" y="-414.3" font-family="Helvetica,sans-Serif" font-weight="bold" font-size="11.00" fill="#000000">cds_trades</text>
<text text-anchor="start" x="145.0437" y="-413.8" font-family="Helvetica,sans-Serif" font-size="11.00" fill="#000000">[table]</text>
<polygon fill="none" stroke="#000000" points="8,-383.7 8,-405.7 180,-405.7 180,-383.7 8,-383.7"/>
<image xlink:href="../../images/primaryKeys.png" width="11px" height="12px" preserveAspectRatio="xMinYMin meet" x="13" y="-400.7"/>
<text text-anchor="start" x="28" y="-390.8" font-family="Helvetica,sans-Serif" font-size="11.00" fill="#000000">id</text>
<polygon fill="#ffffff" stroke="transparent" points="8,-361.7 8,-383.7 180,-383.7 180,-361.7 8,-361.7"/>
<polygon fill="none" stroke="#000000" points="8,-361.7 8,-383.7 180,-383.7 180,-361.7 8,-361.7"/>
<text text-anchor="start" x="28" y="-368.8" font-family="Helvetica,sans-Serif" font-size="11.00" fill="#000000">reference_entity</text>
<polygon fill="#ffffff" stroke="transparent" points="8,-339.7 8,-361.7 180,-361.7 180,-339.7 8,-339.7"/>
<polygon fill="none" stroke="#000000" points="8,-339.7 8,-361.7 180,-361.7 180,-339.7 8,-339.7"/>
<text text-anchor="start" x="28" y="-346.8" font-family="Helvetica,sans-Serif" font-size="11.00" fill="#000000">counterparty</text>
<polygon fill="#ffffff" stroke="transparent" points="8,-317.7 8,-339.7 180,-339.7 180,-317.7 8,-317.7"/>
<polygon fill="none" stroke="#000000" points="8,-317.7 8,-339.7 180,-339.7 180,-317.7 8,-317.7"/>
<text text-anchor="start" x="28" y="-324.8" font-family="Helvetica,sans-Serif" font-size="11.00" fill="#000000">trade_date</text>
<polygon fill="#ffffff" stroke="transparent" points="8,-295.7 8,-317.7 180,-317.7 180,-295.7 8,-295.7"/>
<polygon fill="none" stroke="#000000" points="8,-295.7 8,-317.7 180,-317.7 180,-295.7 8,-295.7"/>
<text text-anchor="start" x="28" y="-302.8" font-family="Helvetica,sans-Serif" font-size="11.00" fill="#000000">created_at</text>
<polygon fill="#ffffff" stroke="transparent" points="8,-273.7 8,-295.7 180,-295.7 180,-273.7 8,-273.7"/>
<polygon fill="none" stroke="#000000" points="8,-273.7 8,-295.7 180,-295.7 180,-273.7 8,-273.7"/>
<image xlink:href="../../images/foreignKeys.png" width="11px" height="12px" preserveAspectRatio="xMinYMin meet" x="13" y="-290.7"/>
<text text-anchor="start" x="28" y="-280.8" font-family="Helvetica,sans-Serif" font-size="11.00" fill="#000000">obligation_id</text>
<polygon fill="#ffffff" stroke="transparent" points="8,-251.7 8,-273.7 180,-273.7 180,-251.7 8,-251.7"/>
<polygon fill="none" stroke="#000000" points="8,-251.7 8,-273.7 180,-273.7 180,-251.7 8,-251.7"/>
<text text-anchor="start" x="28" y="-258.8" font-family="Helvetica,sans-Serif" font-size="11.00" fill="#000000">settlement_type</text>
<polygon fill="#ffffff" stroke="transparent" points="8,-229.7 8,-251.7 180,-251.7 180,-229.7 8,-229.7"/>
<polygon fill="none" stroke="#000000" points="8,-229.7 8,-251.7 180,-251.7 180,-229.7 8,-229.7"/>
<text text-anchor="start" x="28" y="-236.8" font-family="Helvetica,sans-Serif" font-size="11.00" fill="#000000">ccp_name</text>
<polygon fill="#ffffff" stroke="transparent" points="8,-207.7 8,-229.7 180,-229.7 180,-207.7 8,-207.7"/>
<polygon fill="none" stroke="#000000" points="8,-207.7 8,-229.7 180,-229.7 180,-207.7 8,-207.7"/>
<image xlink:href="../../images/foreignKeys.png" width="11px" height="12px" preserveAspectRatio="xMinYMin meet" x="13" y="-224.7"/>
<text text-anchor="start" x="28" y="-214.8" font-family="Helvetica,sans-Serif" font-size="11.00" fill="#000000">original_trade_id</text>
<polygon fill="#ffffff" stroke="transparent" points="8,-185.7 8,-207.7 180,-207.7 180,-185.7 8,-185.7"/>
<polygon fill="none" stroke="#000000" points="8,-185.7 8,-207.7 180,-207.7 180,-185.7 8,-185.7"/>
<text text-anchor="start" x="28" y="-192.8" font-family="Helvetica,sans-Serif" font-size="11.00" fill="#000000">novation_timestamp</text>
<polygon fill="#ffffff" stroke="transparent" points="8,-163.7 8,-185.7 180,-185.7 180,-163.7 8,-163.7"/>
<polygon fill="none" stroke="#000000" points="8,-163.7 8,-185.7 180,-185.7 180,-163.7 8,-163.7"/>
<text text-anchor="start" x="28" y="-170.8" font-family="Helvetica,sans-Serif" font-size="11.00" fill="#000000">novation_reference</text>
<polygon fill="#ffffff" stroke="transparent" points="8,-141.7 8,-163.7 180,-163.7 180,-141.7 8,-141.7"/>
<polygon fill="none" stroke="#000000" points="8,-141.7 8,-163.7 180,-163.7 180,-141.7 8,-141.7"/>
<text text-anchor="start" x="28" y="-148.8" font-family="Helvetica,sans-Serif" font-size="11.00" fill="#000000">uti</text>
<polygon fill="#ffffff" stroke="transparent" points="8,-119.7 8,-141.7 180,-141.7 180,-119.7 8,-119.7"/>
<polygon fill="none" stroke="#000000" points="8,-119.7 8,-141.7 180,-141.7 180,-119.7 8,-119.7"/>
<text text-anchor="start" x="28" y="-126.8" font-family="Helvetica,sans-Serif" font-size="11.00" fill="#000000">usi</text>
<polygon fill="#ffffff" stroke="transparent" points="8,-97.7 8,-119.7 180,-119.7 180,-97.7 8,-97.7"/>
<polygon fill="none" stroke="#000000" points="8,-97.7 8,-119.7 180,-119.7 180,-97.7 8,-97.7"/>
<text text-anchor="start" x="28" y="-104.8" font-family="Helvetica,sans-Serif" font-size="11.00" fill="#000000">is_cleared</text>
<polygon fill="#ffffff" stroke="transparent" points="8,-75.7 8,-97.7 180,-97.7 180,-75.7 8,-75.7"/>
<polygon fill="none" stroke="#000000" points="8,-75.7 8,-97.7 180,-97.7 180,-75.7 8,-75.7"/>
<text text-anchor="start" x="28" y="-82.8" font-family="Helvetica,sans-Serif" font-size="11.00" fill="#000000">mark_to_market_value</text>
<polygon fill="none" stroke="#000000" points="8,-56.7 8,-75.7 180,-75.7 180,-56.7 8,-56.7"/>
<text text-anchor="start" x="11" y="-62.8" font-family="Helvetica,sans-Serif" font-size="11.00" fill="#000000">...</text>
<polygon fill="#ffffff" stroke="transparent" points="8,-37.7 8,-56.7 85,-56.7 85,-37.7 8,-37.7"/>
<polygon fill="none" stroke="#000000" points="8,-37.7 8,-56.7 85,-56.7 85,-37.7 8,-37.7"/>
<text text-anchor="start" x="11" y="-43.8" font-family="Helvetica,sans-Serif" font-size="11.00" fill="#000000">&lt; 2</text>
<polygon fill="#ffffff" stroke="transparent" points="85,-37.7 85,-56.7 125,-56.7 125,-37.7 85,-37.7"/>
<polygon fill="none" stroke="#000000" points="85,-37.7 85,-56.7 125,-56.7 125,-37.7 85,-37.7"/>
<text text-anchor="start" x="115.8862" y="-43.8" font-family="Helvetica,sans-Serif" font-size="11.00" fill="#000000"> &#160;</text>
<polygon fill="#ffffff" stroke="transparent" points="125,-37.7 125,-56.7 180,-56.7 180,-37.7 125,-37.7"/>
<polygon fill="none" stroke="#000000" points="125,-37.7 125,-56.7 180,-56.7 180,-37.7 125,-37.7"/>
<text text-anchor="start" x="155.2904" y="-43.8" font-family="Helvetica,sans-Serif" font-size="11.00" fill="#000000">13 &gt;</text>
</a>
</g>
</g>
<!-- cds_cash_settlements&#45;&gt;cds_trades -->
<g id="edge2" class="edge">
<title>cds_cash_settlements:w&#45;&gt;cds_trades:e</title>
<path fill="none" stroke="#000000" d="M424.6545,-390.2098C413.4651,-380.7346 414.6265,-358.8953 395,-350.7 323.6382,-320.9018 291.9136,-319.8502 221,-350.7 196.4894,-361.363 206.7296,-394.7 180,-394.7"/>
<polygon fill="#000000" stroke="#000000" points="430.8902,-392.232 437.3894,-398.1244 434.6951,-393.466 438.5,-394.7 438.5,-394.7 438.5,-394.7 434.6951,-393.466 439.6106,-391.2756 430.8902,-392.232 430.8902,-392.232"/>
<ellipse fill="none" stroke="#000000" cx="427.8463" cy="-391.2448" rx="3.2" ry="3.2"/>
</g>
<!-- cds_credit_events&#45;&gt;cds_trades -->
<g id="edge3" class="edge">
<title>cds_credit_events:w&#45;&gt;cds_trades:e</title>
<path fill="none" stroke="#000000" d="M215.1662,-448.6697C200.0842,-434.4018 207.9614,-394.7 180,-394.7"/>
<polygon fill="#000000" stroke="#000000" points="221.4816,-450.9661 227.7697,-457.0833 225.2408,-452.3331 229,-453.7 229,-453.7 229,-453.7 225.2408,-452.3331 230.2303,-450.3167 221.4816,-450.9661 221.4816,-450.9661"/>
<ellipse fill="none" stroke="#000000" cx="218.4743" cy="-449.8725" rx="3.2" ry="3.2"/>
</g>
</g>
</svg>
