<?xml version="1.0" encoding="UTF-8" standalone="no"?>
<!DOCTYPE svg PUBLIC "-//W3C//DTD SVG 1.1//EN"
 "http://www.w3.org/Graphics/SVG/1.1/DTD/svg11.dtd">
<!-- Generated by graphviz version 2.40.1 (20161225.0304)
 -->
<!-- Title: twoDegreesRelationshipsDiagram Pages: 1 -->
<svg width="544pt" height="725pt"
 viewBox="0.00 0.00 544.00 724.70" xmlns="http://www.w3.org/2000/svg" xmlns:xlink="http://www.w3.org/1999/xlink">
<g id="graph0" class="graph" transform="scale(1 1) rotate(0) translate(4 720.7)">
<title>twoDegreesRelationshipsDiagram</title>
<polygon fill="#ffffff" stroke="transparent" points="-4,4 -4,-720.7 540,-720.7 540,4 -4,4"/>
<text text-anchor="middle" x="72.4936" y="-7.3" font-family="Helvetica,sans-Serif" font-size="11.00" fill="#000000">Generated by SchemaSpy</text>
<!-- collateral_ledger -->
<g id="node1" class="node">
<title>collateral_ledger</title>
<g id="a_node1"><a xlink:href="../../tables/collateral_ledger.html" xlink:title="collateral_ledger" target="_top">
<polygon fill="#ffffff" stroke="transparent" points="226,-336.7 226,-712.7 528,-712.7 528,-336.7 226,-336.7"/>
<polygon fill="#f5f5f5" stroke="transparent" points="228,-687.7 228,-710.7 526,-710.7 526,-687.7 228,-687.7"/>
<polygon fill="none" stroke="#000000" points="228,-687.7 228,-710.7 526,-710.7 526,-687.7 228,-687.7"/>
<text text-anchor="start" x="233" y="-696.3" font-family="Helvetica,sans-Serif" font-weight="bold" font-size="11.00" fill="#000000">collateral_ledger</text>
<text text-anchor="start" x="491.0437" y="-695.8" font-family="Helvetica,sans-Serif" font-size="11.00" fill="#000000">[table]</text>
<polygon fill="none" stroke="#000000" points="228,-665.7 228,-687.7 388,-687.7 388,-665.7 228,-665.7"/>
<image xlink:href="../../images/primaryKeys.png" width="11px" height="12px" preserveAspectRatio="xMinYMin meet" x="233" y="-682.7"/>
<text text-anchor="start" x="248" y="-672.8" font-family="Helvetica,sans-Serif" font-size="11.00" fill="#000000">id</text>
<polygon fill="none" stroke="#000000" points="388,-665.7 388,-687.7 526,-687.7 526,-665.7 388,-665.7"/>
<text text-anchor="start" x="391" y="-673.4" font-family="Helvetica,sans-Serif" font-size="11.00" fill="#000000">bigserial[19]</text>
<polygon fill="#ffffff" stroke="transparent" points="228,-643.7 228,-665.7 388,-665.7 388,-643.7 228,-643.7"/>
<polygon fill="none" stroke="#000000" points="228,-643.7 228,-665.7 388,-665.7 388,-643.7 228,-643.7"/>
<text text-anchor="start" x="248" y="-650.8" font-family="Helvetica,sans-Serif" font-size="11.00" fill="#000000">ccp_name</text>
<polygon fill="none" stroke="#000000" points="388,-643.7 388,-665.7 526,-665.7 526,-643.7 388,-643.7"/>
<text text-anchor="start" x="391" y="-651.4" font-family="Helvetica,sans-Serif" font-size="11.00" fill="#000000">varchar[100]</text>
<polygon fill="#ffffff" stroke="transparent" points="228,-621.7 228,-643.7 388,-643.7 388,-621.7 228,-621.7"/>
<polygon fill="none" stroke="#000000" points="228,-621.7 228,-643.7 388,-643.7 388,-621.7 228,-621.7"/>
<text text-anchor="start" x="248" y="-628.8" font-family="Helvetica,sans-Serif" font-size="11.00" fill="#000000">member_firm</text>
<polygon fill="none" stroke="#000000" points="388,-621.7 388,-643.7 526,-643.7 526,-621.7 388,-621.7"/>
<text text-anchor="start" x="391" y="-629.4" font-family="Helvetica,sans-Serif" font-size="11.00" fill="#000000">varchar[255]</text>
<polygon fill="#ffffff" stroke="transparent" points="228,-599.7 228,-621.7 388,-621.7 388,-599.7 228,-599.7"/>
<polygon fill="none" stroke="#000000" points="228,-599.7 228,-621.7 388,-621.7 388,-599.7 228,-599.7"/>
<text text-anchor="start" x="248" y="-606.8" font-family="Helvetica,sans-Serif" font-size="11.00" fill="#000000">account_number</text>
<polygon fill="none" stroke="#000000" points="388,-599.7 388,-621.7 526,-621.7 526,-599.7 388,-599.7"/>
<text text-anchor="start" x="391" y="-607.4" font-family="Helvetica,sans-Serif" font-size="11.00" fill="#000000">varchar[100]</text>
<polygon fill="#ffffff" stroke="transparent" points="228,-577.7 228,-599.7 388,-599.7 388,-577.7 228,-577.7"/>
<polygon fill="none" stroke="#000000" points="228,-577.7 228,-599.7 388,-599.7 388,-577.7 228,-577.7"/>
<text text-anchor="start" x="248" y="-584.8" font-family="Helvetica,sans-Serif" font-size="11.00" fill="#000000">position_date</text>
<polygon fill="none" stroke="#000000" points="388,-577.7 388,-599.7 526,-599.7 526,-577.7 388,-577.7"/>
<text text-anchor="start" x="391" y="-585.4" font-family="Helvetica,sans-Serif" font-size="11.00" fill="#000000">date[13]</text>
<polygon fill="#ffffff" stroke="transparent" points="228,-555.7 228,-577.7 388,-577.7 388,-555.7 228,-555.7"/>
<polygon fill="none" stroke="#000000" points="228,-555.7 228,-577.7 388,-577.7 388,-555.7 228,-555.7"/>
<text text-anchor="start" x="248" y="-562.8" font-family="Helvetica,sans-Serif" font-size="11.00" fill="#000000">position_type</text>
<polygon fill="none" stroke="#000000" points="388,-555.7 388,-577.7 526,-577.7 526,-555.7 388,-555.7"/>
<text text-anchor="start" x="390.9687" y="-563.4" font-family="Helvetica,sans-Serif" font-size="11.00" fill="#000000">position_type[2147483647]</text>
<polygon fill="#ffffff" stroke="transparent" points="228,-533.7 228,-555.7 388,-555.7 388,-533.7 228,-533.7"/>
<polygon fill="none" stroke="#000000" points="228,-533.7 228,-555.7 388,-555.7 388,-533.7 228,-533.7"/>
<text text-anchor="start" x="248" y="-540.8" font-family="Helvetica,sans-Serif" font-size="11.00" fill="#000000">currency</text>
<polygon fill="none" stroke="#000000" points="388,-533.7 388,-555.7 526,-555.7 526,-533.7 388,-533.7"/>
<text text-anchor="start" x="391" y="-541.4" font-family="Helvetica,sans-Serif" font-size="11.00" fill="#000000">varchar[3]</text>
<polygon fill="none" stroke="#000000" points="228,-511.7 228,-533.7 388,-533.7 388,-511.7 228,-511.7"/>
<text text-anchor="start" x="248" y="-518.8" font-family="Helvetica,sans-Serif" font-size="11.00" fill="#000000">opening_balance</text>
<polygon fill="none" stroke="#000000" points="388,-511.7 388,-533.7 526,-533.7 526,-511.7 388,-511.7"/>
<text text-anchor="start" x="391" y="-519.4" font-family="Helvetica,sans-Serif" font-size="11.00" fill="#000000">numeric[20,4]</text>
<polygon fill="none" stroke="#000000" points="228,-489.7 228,-511.7 388,-511.7 388,-489.7 228,-489.7"/>
<text text-anchor="start" x="248" y="-496.8" font-family="Helvetica,sans-Serif" font-size="11.00" fill="#000000">variation_margin</text>
<polygon fill="none" stroke="#000000" points="388,-489.7 388,-511.7 526,-511.7 526,-489.7 388,-489.7"/>
<text text-anchor="start" x="391" y="-497.4" font-family="Helvetica,sans-Serif" font-size="11.00" fill="#000000">numeric[20,4]</text>
<polygon fill="none" stroke="#000000" points="228,-467.7 228,-489.7 388,-489.7 388,-467.7 228,-467.7"/>
<text text-anchor="start" x="248" y="-474.8" font-family="Helvetica,sans-Serif" font-size="11.00" fill="#000000">initial_margin</text>
<polygon fill="none" stroke="#000000" points="388,-467.7 388,-489.7 526,-489.7 526,-467.7 388,-467.7"/>
<text text-anchor="start" x="391" y="-475.4" font-family="Helvetica,sans-Serif" font-size="11.00" fill="#000000">numeric[20,4]</text>
<polygon fill="none" stroke="#000000" points="228,-445.7 228,-467.7 388,-467.7 388,-445.7 228,-445.7"/>
<text text-anchor="start" x="248" y="-452.8" font-family="Helvetica,sans-Serif" font-size="11.00" fill="#000000">excess_collateral</text>
<polygon fill="none" stroke="#000000" points="388,-445.7 388,-467.7 526,-467.7 526,-445.7 388,-445.7"/>
<text text-anchor="start" x="391" y="-453.4" font-family="Helvetica,sans-Serif" font-size="11.00" fill="#000000">numeric[20,4]</text>
<polygon fill="none" stroke="#000000" points="228,-423.7 228,-445.7 388,-445.7 388,-423.7 228,-423.7"/>
<text text-anchor="start" x="248" y="-430.8" font-family="Helvetica,sans-Serif" font-size="11.00" fill="#000000">closing_balance</text>
<polygon fill="none" stroke="#000000" points="388,-423.7 388,-445.7 526,-445.7 526,-423.7 388,-423.7"/>
<text text-anchor="start" x="391" y="-431.4" font-family="Helvetica,sans-Serif" font-size="11.00" fill="#000000">numeric[20,4]</text>
<polygon fill="none" stroke="#000000" points="228,-401.7 228,-423.7 388,-423.7 388,-401.7 228,-401.7"/>
<image xlink:href="../../images/foreignKeys.png" width="11px" height="12px" preserveAspectRatio="xMinYMin meet" x="233" y="-418.7"/>
<text text-anchor="start" x="248" y="-408.8" font-family="Helvetica,sans-Serif" font-size="11.00" fill="#000000">source_statement_id</text>
<polygon fill="none" stroke="#000000" points="388,-401.7 388,-423.7 526,-423.7 526,-401.7 388,-401.7"/>
<text text-anchor="start" x="391" y="-409.4" font-family="Helvetica,sans-Serif" font-size="11.00" fill="#000000">int8[19]</text>
<polygon fill="none" stroke="#000000" points="228,-379.7 228,-401.7 388,-401.7 388,-379.7 228,-379.7"/>
<text text-anchor="start" x="248" y="-386.8" font-family="Helvetica,sans-Serif" font-size="11.00" fill="#000000">created_at</text>
<polygon fill="none" stroke="#000000" points="388,-379.7 388,-401.7 526,-401.7 526,-379.7 388,-379.7"/>
<text text-anchor="start" x="391" y="-387.4" font-family="Helvetica,sans-Serif" font-size="11.00" fill="#000000">timestamptz[35,6]</text>
<polygon fill="none" stroke="#000000" points="228,-357.7 228,-379.7 388,-379.7 388,-357.7 228,-357.7"/>
<text text-anchor="start" x="248" y="-364.8" font-family="Helvetica,sans-Serif" font-size="11.00" fill="#000000">updated_at</text>
<polygon fill="none" stroke="#000000" points="388,-357.7 388,-379.7 526,-379.7 526,-357.7 388,-357.7"/>
<text text-anchor="start" x="391" y="-365.4" font-family="Helvetica,sans-Serif" font-size="11.00" fill="#000000">timestamptz[35,6]</text>
<polygon fill="#ffffff" stroke="transparent" points="228,-338.7 228,-357.7 312,-357.7 312,-338.7 228,-338.7"/>
<polygon fill="none" stroke="#000000" points="228,-338.7 228,-357.7 312,-357.7 312,-338.7 228,-338.7"/>
<text text-anchor="start" x="231" y="-344.8" font-family="Helvetica,sans-Serif" font-size="11.00" fill="#000000">&lt; 1</text>
<polygon fill="#ffffff" stroke="transparent" points="312,-338.7 312,-357.7 388,-357.7 388,-338.7 312,-338.7"/>
<polygon fill="none" stroke="#000000" points="312,-338.7 312,-357.7 388,-357.7 388,-338.7 312,-338.7"/>
<text text-anchor="start" x="378.8862" y="-344.8" font-family="Helvetica,sans-Serif" font-size="11.00" fill="#000000"> &#160;</text>
<polygon fill="#ffffff" stroke="transparent" points="388,-338.7 388,-357.7 526,-357.7 526,-338.7 388,-338.7"/>
<polygon fill="none" stroke="#000000" points="388,-338.7 388,-357.7 526,-357.7 526,-338.7 388,-338.7"/>
<text text-anchor="start" x="507.4053" y="-344.8" font-family="Helvetica,sans-Serif" font-size="11.00" fill="#000000">0 &gt;</text>
<polygon fill="none" stroke="#000000" stroke-width="2" points="227,-337.7 227,-711.7 527,-711.7 527,-337.7 227,-337.7"/>
</a>
</g>
</g>
<!-- margin_statements -->
<g id="node2" class="node">
<title>margin_statements</title>
<g id="a_node2"><a xlink:href="../../tables/margin_statements.html" xlink:title="margin_statements" target="_top">
<polygon fill="#ffffff" stroke="transparent" points="8,-38.2 8,-275.2 177,-275.2 177,-38.2 8,-38.2"/>
<polygon fill="#f5f5f5" stroke="transparent" points="8.5,-251.7 8.5,-274.7 177.5,-274.7 177.5,-251.7 8.5,-251.7"/>
<polygon fill="none" stroke="#000000" points="8.5,-251.7 8.5,-274.7 177.5,-274.7 177.5,-251.7 8.5,-251.7"/>
<text text-anchor="start" x="13.5" y="-260.3" font-family="Helvetica,sans-Serif" font-weight="bold" font-size="11.00" fill="#000000">margin_statements</text>
<text text-anchor="start" x="143.0219" y="-259.8" font-family="Helvetica,sans-Serif" font-size="11.00" fill="#000000">[table]</text>
<polygon fill="none" stroke="#000000" points="8.5,-229.7 8.5,-251.7 177.5,-251.7 177.5,-229.7 8.5,-229.7"/>
<image xlink:href="../../images/primaryKeys.png" width="11px" height="12px" preserveAspectRatio="xMinYMin meet" x="13.5" y="-246.7"/>
<text text-anchor="start" x="37.5" y="-236.8" font-family="Helvetica,sans-Serif" font-size="11.00" fill="#000000">id</text>
<polygon fill="#ffffff" stroke="transparent" points="8.5,-207.7 8.5,-229.7 177.5,-229.7 177.5,-207.7 8.5,-207.7"/>
<polygon fill="none" stroke="#000000" points="8.5,-207.7 8.5,-229.7 177.5,-229.7 177.5,-207.7 8.5,-207.7"/>
<text text-anchor="start" x="37.5" y="-214.8" font-family="Helvetica,sans-Serif" font-size="11.00" fill="#000000">statement_id</text>
<polygon fill="#ffffff" stroke="transparent" points="8.5,-185.7 8.5,-207.7 177.5,-207.7 177.5,-185.7 8.5,-185.7"/>
<polygon fill="none" stroke="#000000" points="8.5,-185.7 8.5,-207.7 177.5,-207.7 177.5,-185.7 8.5,-185.7"/>
<text text-anchor="start" x="37.5" y="-192.8" font-family="Helvetica,sans-Serif" font-size="11.00" fill="#000000">ccp_name</text>
<polygon fill="#ffffff" stroke="transparent" points="8.5,-163.7 8.5,-185.7 177.5,-185.7 177.5,-163.7 8.5,-163.7"/>
<polygon fill="none" stroke="#000000" points="8.5,-163.7 8.5,-185.7 177.5,-185.7 177.5,-163.7 8.5,-163.7"/>
<text text-anchor="start" x="37.5" y="-170.8" font-family="Helvetica,sans-Serif" font-size="11.00" fill="#000000">statement_date</text>
<polygon fill="#ffffff" stroke="transparent" points="8.5,-141.7 8.5,-163.7 177.5,-163.7 177.5,-141.7 8.5,-141.7"/>
<polygon fill="none" stroke="#000000" points="8.5,-141.7 8.5,-163.7 177.5,-163.7 177.5,-141.7 8.5,-141.7"/>
<text text-anchor="start" x="37.5" y="-148.8" font-family="Helvetica,sans-Serif" font-size="11.00" fill="#000000">status</text>
<polygon fill="#ffffff" stroke="transparent" points="8.5,-119.7 8.5,-141.7 177.5,-141.7 177.5,-119.7 8.5,-119.7"/>
<polygon fill="none" stroke="#000000" points="8.5,-119.7 8.5,-141.7 177.5,-141.7 177.5,-119.7 8.5,-119.7"/>
<text text-anchor="start" x="37.5" y="-126.8" font-family="Helvetica,sans-Serif" font-size="11.00" fill="#000000">created_at</text>
<polygon fill="#ffffff" stroke="transparent" points="8.5,-97.7 8.5,-119.7 177.5,-119.7 177.5,-97.7 8.5,-97.7"/>
<polygon fill="none" stroke="#000000" points="8.5,-97.7 8.5,-119.7 177.5,-119.7 177.5,-97.7 8.5,-97.7"/>
<text text-anchor="start" x="37.5" y="-104.8" font-family="Helvetica,sans-Serif" font-size="11.00" fill="#000000">variation_margin</text>
<polygon fill="#ffffff" stroke="transparent" points="8.5,-75.7 8.5,-97.7 177.5,-97.7 177.5,-75.7 8.5,-75.7"/>
<polygon fill="none" stroke="#000000" points="8.5,-75.7 8.5,-97.7 177.5,-97.7 177.5,-75.7 8.5,-75.7"/>
<text text-anchor="start" x="37.5" y="-82.8" font-family="Helvetica,sans-Serif" font-size="11.00" fill="#000000">initial_margin</text>
<polygon fill="none" stroke="#000000" points="8.5,-56.7 8.5,-75.7 177.5,-75.7 177.5,-56.7 8.5,-56.7"/>
<text text-anchor="start" x="11.5" y="-62.8" font-family="Helvetica,sans-Serif" font-size="11.00" fill="#000000">...</text>
<polygon fill="#ffffff" stroke="transparent" points="8.5,-37.7 8.5,-56.7 82.5,-56.7 82.5,-37.7 8.5,-37.7"/>
<polygon fill="none" stroke="#000000" points="8.5,-37.7 8.5,-56.7 82.5,-56.7 82.5,-37.7 8.5,-37.7"/>
<text text-anchor="start" x="11.5" y="-43.8" font-family="Helvetica,sans-Serif" font-size="11.00" fill="#000000"> &#160;</text>
<polygon fill="#ffffff" stroke="transparent" points="82.5,-37.7 82.5,-56.7 125.5,-56.7 125.5,-37.7 82.5,-37.7"/>
<polygon fill="none" stroke="#000000" points="82.5,-37.7 82.5,-56.7 125.5,-56.7 125.5,-37.7 82.5,-37.7"/>
<text text-anchor="start" x="116.3862" y="-43.8" font-family="Helvetica,sans-Serif" font-size="11.00" fill="#000000"> &#160;</text>
<polygon fill="#ffffff" stroke="transparent" points="125.5,-37.7 125.5,-56.7 177.5,-56.7 177.5,-37.7 125.5,-37.7"/>
<polygon fill="none" stroke="#000000" points="125.5,-37.7 125.5,-56.7 177.5,-56.7 177.5,-37.7 125.5,-37.7"/>
<text text-anchor="start" x="158.9053" y="-43.8" font-family="Helvetica,sans-Serif" font-size="11.00" fill="#000000">4 &gt;</text>
</a>
</g>
</g>
<!-- collateral_ledger&#45;&gt;margin_statements -->
<g id="edge1" class="edge">
<title>collateral_ledger:w&#45;&gt;margin_statements:e</title>
<path fill="none" stroke="#000000" d="M213.5387,-410.1351C163.0754,-388.7389 251.4137,-240.7 177.5,-240.7"/>
<polygon fill="#000000" stroke="#000000" points="220.1229,-411.3029 227.3713,-416.2447 224.0615,-412.0014 228,-412.7 228,-412.7 228,-412.7 224.0615,-412.0014 228.6287,-409.1553 220.1229,-411.3029 220.1229,-411.3029"/>
<ellipse fill="none" stroke="#000000" cx="216.9721" cy="-410.744" rx="3.2" ry="3.2"/>
</g>
<!-- margin_positions -->
<g id="node3" class="node">
<title>margin_positions</title>
<g id="a_node3"><a xlink:href="../../tables/margin_positions.html" xlink:title="margin_positions" target="_top">
<polygon fill="#ffffff" stroke="transparent" points="300,-254.2 300,-315.2 454,-315.2 454,-254.2 300,-254.2"/>
<polygon fill="#f5f5f5" stroke="transparent" points="300,-291.7 300,-314.7 454,-314.7 454,-291.7 300,-291.7"/>
<polygon fill="none" stroke="#000000" points="300,-291.7 300,-314.7 454,-314.7 454,-291.7 300,-291.7"/>
<text text-anchor="start" x="305" y="-300.3" font-family="Helvetica,sans-Serif" font-weight="bold" font-size="11.00" fill="#000000">margin_positions</text>
<text text-anchor="start" x="419.5219" y="-299.8" font-family="Helvetica,sans-Serif" font-size="11.00" fill="#000000">[table]</text>
<polygon fill="none" stroke="#000000" points="300,-272.7 300,-291.7 454,-291.7 454,-272.7 300,-272.7"/>
<text text-anchor="start" x="303" y="-278.8" font-family="Helvetica,sans-Serif" font-size="11.00" fill="#000000">...</text>
<polygon fill="#ffffff" stroke="transparent" points="300,-253.7 300,-272.7 375,-272.7 375,-253.7 300,-253.7"/>
<polygon fill="none" stroke="#000000" points="300,-253.7 300,-272.7 375,-272.7 375,-253.7 300,-253.7"/>
<text text-anchor="start" x="303" y="-259.8" font-family="Helvetica,sans-Serif" font-size="11.00" fill="#000000">&lt; 1</text>
<polygon fill="#ffffff" stroke="transparent" points="375,-253.7 375,-272.7 414,-272.7 414,-253.7 375,-253.7"/>
<polygon fill="none" stroke="#000000" points="375,-253.7 375,-272.7 414,-272.7 414,-253.7 375,-253.7"/>
<text text-anchor="start" x="404.8862" y="-259.8" font-family="Helvetica,sans-Serif" font-size="11.00" fill="#000000"> &#160;</text>
<polygon fill="#ffffff" stroke="transparent" points="414,-253.7 414,-272.7 454,-272.7 454,-253.7 414,-253.7"/>
<polygon fill="none" stroke="#000000" points="414,-253.7 414,-272.7 454,-272.7 454,-253.7 414,-253.7"/>
<text text-anchor="start" x="444.8862" y="-259.8" font-family="Helvetica,sans-Serif" font-size="11.00" fill="#000000"> &#160;</text>
</a>
</g>
</g>
<!-- margin_positions&#45;&gt;margin_statements -->
<g id="edge2" class="edge">
<title>margin_positions:w&#45;&gt;margin_statements:e</title>
<path fill="none" stroke="#000000" d="M285.3695,-280.727C240.759,-274.5181 229.6426,-240.7 177.5,-240.7"/>
<polygon fill="#000000" stroke="#000000" points="292.0176,-281.1691 299.7611,-285.2921 296.0088,-281.4345 300,-281.7 300,-281.7 300,-281.7 296.0088,-281.4345 300.2389,-278.1079 292.0176,-281.1691 292.0176,-281.1691"/>
<ellipse fill="none" stroke="#000000" cx="288.8247" cy="-280.9567" rx="3.2" ry="3.2"/>
</g>
<!-- position_discrepancies -->
<g id="node4" class="node">
<title>position_discrepancies</title>
<g id="a_node4"><a xlink:href="../../tables/position_discrepancies.html" xlink:title="position_discrepancies" target="_top">
<polygon fill="#ffffff" stroke="transparent" points="281,-172.2 281,-233.2 473,-233.2 473,-172.2 281,-172.2"/>
<polygon fill="#f5f5f5" stroke="transparent" points="281,-209.7 281,-232.7 473,-232.7 473,-209.7 281,-209.7"/>
<polygon fill="none" stroke="#000000" points="281,-209.7 281,-232.7 473,-232.7 473,-209.7 281,-209.7"/>
<text text-anchor="start" x="286" y="-218.3" font-family="Helvetica,sans-Serif" font-weight="bold" font-size="11.00" fill="#000000">position_discrepancies</text>
<text text-anchor="start" x="438.5219" y="-217.8" font-family="Helvetica,sans-Serif" font-size="11.00" fill="#000000">[table]</text>
<polygon fill="none" stroke="#000000" points="281,-190.7 281,-209.7 473,-209.7 473,-190.7 281,-190.7"/>
<text text-anchor="start" x="284" y="-196.8" font-family="Helvetica,sans-Serif" font-size="11.00" fill="#000000">...</text>
<polygon fill="#ffffff" stroke="transparent" points="281,-171.7 281,-190.7 375,-190.7 375,-171.7 281,-171.7"/>
<polygon fill="none" stroke="#000000" points="281,-171.7 281,-190.7 375,-190.7 375,-171.7 281,-171.7"/>
<text text-anchor="start" x="284" y="-177.8" font-family="Helvetica,sans-Serif" font-size="11.00" fill="#000000">&lt; 1</text>
<polygon fill="#ffffff" stroke="transparent" points="375,-171.7 375,-190.7 424,-190.7 424,-171.7 375,-171.7"/>
<polygon fill="none" stroke="#000000" points="375,-171.7 375,-190.7 424,-190.7 424,-171.7 375,-171.7"/>
<text text-anchor="start" x="414.8862" y="-177.8" font-family="Helvetica,sans-Serif" font-size="11.00" fill="#000000"> &#160;</text>
<polygon fill="#ffffff" stroke="transparent" points="424,-171.7 424,-190.7 473,-190.7 473,-171.7 424,-171.7"/>
<polygon fill="none" stroke="#000000" points="424,-171.7 424,-190.7 473,-190.7 473,-171.7 424,-171.7"/>
<text text-anchor="start" x="463.8862" y="-177.8" font-family="Helvetica,sans-Serif" font-size="11.00" fill="#000000"> &#160;</text>
</a>
</g>
</g>
<!-- position_discrepancies&#45;&gt;margin_statements -->
<g id="edge3" class="edge">
<title>position_discrepancies:w&#45;&gt;margin_statements:e</title>
<path fill="none" stroke="#000000" d="M266.2601,-201.0641C229.9906,-208.1783 221.5661,-240.7 177.5,-240.7"/>
<polygon fill="#000000" stroke="#000000" points="273.034,-200.4373 281.3318,-203.2847 277.017,-200.0686 281,-199.7 281,-199.7 281,-199.7 277.017,-200.0686 280.6682,-196.1153 273.034,-200.4373 273.034,-200.4373"/>
<ellipse fill="none" stroke="#000000" cx="269.8477" cy="-200.7322" rx="3.2" ry="3.2"/>
</g>
<!-- statement_processing_log -->
<g id="node5" class="node">
<title>statement_processing_log</title>
<g id="a_node5"><a xlink:href="../../tables/statement_processing_log.html" xlink:title="statement_processing_log" target="_top">
<polygon fill="#ffffff" stroke="transparent" points="269.5,-90.2 269.5,-151.2 484.5,-151.2 484.5,-90.2 269.5,-90.2"/>
<polygon fill="#f5f5f5" stroke="transparent" points="270,-127.7 270,-150.7 485,-150.7 485,-127.7 270,-127.7"/>
<polygon fill="none" stroke="#000000" points="270,-127.7 270,-150.7 485,-150.7 485,-127.7 270,-127.7"/>
<text text-anchor="start" x="275" y="-136.3" font-family="Helvetica,sans-Serif" font-weight="bold" font-size="11.00" fill="#000000">statement_processing_log</text>
<text text-anchor="start" x="450.5219" y="-135.8" font-family="Helvetica,sans-Serif" font-size="11.00" fill="#000000">[table]</text>
<polygon fill="none" stroke="#000000" points="270,-108.7 270,-127.7 485,-127.7 485,-108.7 270,-108.7"/>
<text text-anchor="start" x="273" y="-114.8" font-family="Helvetica,sans-Serif" font-size="11.00" fill="#000000">...</text>
<polygon fill="#ffffff" stroke="transparent" points="270,-89.7 270,-108.7 376,-108.7 376,-89.7 270,-89.7"/>
<polygon fill="none" stroke="#000000" points="270,-89.7 270,-108.7 376,-108.7 376,-89.7 270,-89.7"/>
<text text-anchor="start" x="273" y="-95.8" font-family="Helvetica,sans-Serif" font-size="11.00" fill="#000000">&lt; 1</text>
<polygon fill="#ffffff" stroke="transparent" points="376,-89.7 376,-108.7 430,-108.7 430,-89.7 376,-89.7"/>
<polygon fill="none" stroke="#000000" points="376,-89.7 376,-108.7 430,-108.7 430,-89.7 376,-89.7"/>
<text text-anchor="start" x="420.8862" y="-95.8" font-family="Helvetica,sans-Serif" font-size="11.00" fill="#000000"> &#160;</text>
<polygon fill="#ffffff" stroke="transparent" points="430,-89.7 430,-108.7 485,-108.7 485,-89.7 430,-89.7"/>
<polygon fill="none" stroke="#000000" points="430,-89.7 430,-108.7 485,-108.7 485,-89.7 430,-89.7"/>
<text text-anchor="start" x="475.8862" y="-95.8" font-family="Helvetica,sans-Serif" font-size="11.00" fill="#000000"> &#160;</text>
</a>
</g>
</g>
<!-- statement_processing_log&#45;&gt;margin_statements -->
<g id="edge4" class="edge">
<title>statement_processing_log:w&#45;&gt;margin_statements:e</title>
<path fill="none" stroke="#000000" d="M255.5725,-119.7289C238.0786,-125.4294 233.2968,-142.4368 218,-161.7 193.4633,-192.5989 216.9562,-240.7 177.5,-240.7"/>
<polygon fill="#000000" stroke="#000000" points="262.0779,-118.8141 270.5013,-121.2649 266.039,-118.257 270,-117.7 270,-117.7 270,-117.7 266.039,-118.257 269.4987,-114.1351 262.0779,-118.8141 262.0779,-118.8141"/>
<ellipse fill="none" stroke="#000000" cx="258.9091" cy="-119.2597" rx="3.2" ry="3.2"/>
</g>
</g>
</svg>
