<?xml version="1.0" encoding="UTF-8" standalone="no"?>
<!DOCTYPE svg PUBLIC "-//W3C//DTD SVG 1.1//EN"
 "http://www.w3.org/Graphics/SVG/1.1/DTD/svg11.dtd">
<!-- Generated by graphviz version 2.40.1 (20161225.0304)
 -->
<!-- Title: oneDegreeRelationshipsDiagram Pages: 1 -->
<svg width="544pt" height="553pt"
 viewBox="0.00 0.00 544.00 552.70" xmlns="http://www.w3.org/2000/svg" xmlns:xlink="http://www.w3.org/1999/xlink">
<g id="graph0" class="graph" transform="scale(1 1) rotate(0) translate(4 548.7)">
<title>oneDegreeRelationshipsDiagram</title>
<polygon fill="#ffffff" stroke="transparent" points="-4,4 -4,-548.7 540,-548.7 540,4 -4,4"/>
<text text-anchor="middle" x="72.4936" y="-7.3" font-family="Helvetica,sans-Serif" font-size="11.00" fill="#000000">Generated by SchemaSpy</text>
<!-- collateral_ledger -->
<g id="node1" class="node">
<title>collateral_ledger</title>
<g id="a_node1"><a xlink:href="../../tables/collateral_ledger.html" xlink:title="collateral_ledger" target="_top">
<polygon fill="#ffffff" stroke="transparent" points="226,-164.7 226,-540.7 528,-540.7 528,-164.7 226,-164.7"/>
<polygon fill="#f5f5f5" stroke="transparent" points="228,-515.7 228,-538.7 526,-538.7 526,-515.7 228,-515.7"/>
<polygon fill="none" stroke="#000000" points="228,-515.7 228,-538.7 526,-538.7 526,-515.7 228,-515.7"/>
<text text-anchor="start" x="233" y="-524.3" font-family="Helvetica,sans-Serif" font-weight="bold" font-size="11.00" fill="#000000">collateral_ledger</text>
<text text-anchor="start" x="491.0437" y="-523.8" font-family="Helvetica,sans-Serif" font-size="11.00" fill="#000000">[table]</text>
<polygon fill="none" stroke="#000000" points="228,-493.7 228,-515.7 388,-515.7 388,-493.7 228,-493.7"/>
<image xlink:href="../../images/primaryKeys.png" width="11px" height="12px" preserveAspectRatio="xMinYMin meet" x="233" y="-510.7"/>
<text text-anchor="start" x="248" y="-500.8" font-family="Helvetica,sans-Serif" font-size="11.00" fill="#000000">id</text>
<polygon fill="none" stroke="#000000" points="388,-493.7 388,-515.7 526,-515.7 526,-493.7 388,-493.7"/>
<text text-anchor="start" x="391" y="-501.4" font-family="Helvetica,sans-Serif" font-size="11.00" fill="#000000">bigserial[19]</text>
<polygon fill="#ffffff" stroke="transparent" points="228,-471.7 228,-493.7 388,-493.7 388,-471.7 228,-471.7"/>
<polygon fill="none" stroke="#000000" points="228,-471.7 228,-493.7 388,-493.7 388,-471.7 228,-471.7"/>
<text text-anchor="start" x="248" y="-478.8" font-family="Helvetica,sans-Serif" font-size="11.00" fill="#000000">ccp_name</text>
<polygon fill="none" stroke="#000000" points="388,-471.7 388,-493.7 526,-493.7 526,-471.7 388,-471.7"/>
<text text-anchor="start" x="391" y="-479.4" font-family="Helvetica,sans-Serif" font-size="11.00" fill="#000000">varchar[100]</text>
<polygon fill="#ffffff" stroke="transparent" points="228,-449.7 228,-471.7 388,-471.7 388,-449.7 228,-449.7"/>
<polygon fill="none" stroke="#000000" points="228,-449.7 228,-471.7 388,-471.7 388,-449.7 228,-449.7"/>
<text text-anchor="start" x="248" y="-456.8" font-family="Helvetica,sans-Serif" font-size="11.00" fill="#000000">member_firm</text>
<polygon fill="none" stroke="#000000" points="388,-449.7 388,-471.7 526,-471.7 526,-449.7 388,-449.7"/>
<text text-anchor="start" x="391" y="-457.4" font-family="Helvetica,sans-Serif" font-size="11.00" fill="#000000">varchar[255]</text>
<polygon fill="#ffffff" stroke="transparent" points="228,-427.7 228,-449.7 388,-449.7 388,-427.7 228,-427.7"/>
<polygon fill="none" stroke="#000000" points="228,-427.7 228,-449.7 388,-449.7 388,-427.7 228,-427.7"/>
<text text-anchor="start" x="248" y="-434.8" font-family="Helvetica,sans-Serif" font-size="11.00" fill="#000000">account_number</text>
<polygon fill="none" stroke="#000000" points="388,-427.7 388,-449.7 526,-449.7 526,-427.7 388,-427.7"/>
<text text-anchor="start" x="391" y="-435.4" font-family="Helvetica,sans-Serif" font-size="11.00" fill="#000000">varchar[100]</text>
<polygon fill="#ffffff" stroke="transparent" points="228,-405.7 228,-427.7 388,-427.7 388,-405.7 228,-405.7"/>
<polygon fill="none" stroke="#000000" points="228,-405.7 228,-427.7 388,-427.7 388,-405.7 228,-405.7"/>
<text text-anchor="start" x="248" y="-412.8" font-family="Helvetica,sans-Serif" font-size="11.00" fill="#000000">position_date</text>
<polygon fill="none" stroke="#000000" points="388,-405.7 388,-427.7 526,-427.7 526,-405.7 388,-405.7"/>
<text text-anchor="start" x="391" y="-413.4" font-family="Helvetica,sans-Serif" font-size="11.00" fill="#000000">date[13]</text>
<polygon fill="#ffffff" stroke="transparent" points="228,-383.7 228,-405.7 388,-405.7 388,-383.7 228,-383.7"/>
<polygon fill="none" stroke="#000000" points="228,-383.7 228,-405.7 388,-405.7 388,-383.7 228,-383.7"/>
<text text-anchor="start" x="248" y="-390.8" font-family="Helvetica,sans-Serif" font-size="11.00" fill="#000000">position_type</text>
<polygon fill="none" stroke="#000000" points="388,-383.7 388,-405.7 526,-405.7 526,-383.7 388,-383.7"/>
<text text-anchor="start" x="390.9687" y="-391.4" font-family="Helvetica,sans-Serif" font-size="11.00" fill="#000000">position_type[2147483647]</text>
<polygon fill="#ffffff" stroke="transparent" points="228,-361.7 228,-383.7 388,-383.7 388,-361.7 228,-361.7"/>
<polygon fill="none" stroke="#000000" points="228,-361.7 228,-383.7 388,-383.7 388,-361.7 228,-361.7"/>
<text text-anchor="start" x="248" y="-368.8" font-family="Helvetica,sans-Serif" font-size="11.00" fill="#000000">currency</text>
<polygon fill="none" stroke="#000000" points="388,-361.7 388,-383.7 526,-383.7 526,-361.7 388,-361.7"/>
<text text-anchor="start" x="391" y="-369.4" font-family="Helvetica,sans-Serif" font-size="11.00" fill="#000000">varchar[3]</text>
<polygon fill="none" stroke="#000000" points="228,-339.7 228,-361.7 388,-361.7 388,-339.7 228,-339.7"/>
<text text-anchor="start" x="248" y="-346.8" font-family="Helvetica,sans-Serif" font-size="11.00" fill="#000000">opening_balance</text>
<polygon fill="none" stroke="#000000" points="388,-339.7 388,-361.7 526,-361.7 526,-339.7 388,-339.7"/>
<text text-anchor="start" x="391" y="-347.4" font-family="Helvetica,sans-Serif" font-size="11.00" fill="#000000">numeric[20,4]</text>
<polygon fill="none" stroke="#000000" points="228,-317.7 228,-339.7 388,-339.7 388,-317.7 228,-317.7"/>
<text text-anchor="start" x="248" y="-324.8" font-family="Helvetica,sans-Serif" font-size="11.00" fill="#000000">variation_margin</text>
<polygon fill="none" stroke="#000000" points="388,-317.7 388,-339.7 526,-339.7 526,-317.7 388,-317.7"/>
<text text-anchor="start" x="391" y="-325.4" font-family="Helvetica,sans-Serif" font-size="11.00" fill="#000000">numeric[20,4]</text>
<polygon fill="none" stroke="#000000" points="228,-295.7 228,-317.7 388,-317.7 388,-295.7 228,-295.7"/>
<text text-anchor="start" x="248" y="-302.8" font-family="Helvetica,sans-Serif" font-size="11.00" fill="#000000">initial_margin</text>
<polygon fill="none" stroke="#000000" points="388,-295.7 388,-317.7 526,-317.7 526,-295.7 388,-295.7"/>
<text text-anchor="start" x="391" y="-303.4" font-family="Helvetica,sans-Serif" font-size="11.00" fill="#000000">numeric[20,4]</text>
<polygon fill="none" stroke="#000000" points="228,-273.7 228,-295.7 388,-295.7 388,-273.7 228,-273.7"/>
<text text-anchor="start" x="248" y="-280.8" font-family="Helvetica,sans-Serif" font-size="11.00" fill="#000000">excess_collateral</text>
<polygon fill="none" stroke="#000000" points="388,-273.7 388,-295.7 526,-295.7 526,-273.7 388,-273.7"/>
<text text-anchor="start" x="391" y="-281.4" font-family="Helvetica,sans-Serif" font-size="11.00" fill="#000000">numeric[20,4]</text>
<polygon fill="none" stroke="#000000" points="228,-251.7 228,-273.7 388,-273.7 388,-251.7 228,-251.7"/>
<text text-anchor="start" x="248" y="-258.8" font-family="Helvetica,sans-Serif" font-size="11.00" fill="#000000">closing_balance</text>
<polygon fill="none" stroke="#000000" points="388,-251.7 388,-273.7 526,-273.7 526,-251.7 388,-251.7"/>
<text text-anchor="start" x="391" y="-259.4" font-family="Helvetica,sans-Serif" font-size="11.00" fill="#000000">numeric[20,4]</text>
<polygon fill="none" stroke="#000000" points="228,-229.7 228,-251.7 388,-251.7 388,-229.7 228,-229.7"/>
<image xlink:href="../../images/foreignKeys.png" width="11px" height="12px" preserveAspectRatio="xMinYMin meet" x="233" y="-246.7"/>
<text text-anchor="start" x="248" y="-236.8" font-family="Helvetica,sans-Serif" font-size="11.00" fill="#000000">source_statement_id</text>
<polygon fill="none" stroke="#000000" points="388,-229.7 388,-251.7 526,-251.7 526,-229.7 388,-229.7"/>
<text text-anchor="start" x="391" y="-237.4" font-family="Helvetica,sans-Serif" font-size="11.00" fill="#000000">int8[19]</text>
<polygon fill="none" stroke="#000000" points="228,-207.7 228,-229.7 388,-229.7 388,-207.7 228,-207.7"/>
<text text-anchor="start" x="248" y="-214.8" font-family="Helvetica,sans-Serif" font-size="11.00" fill="#000000">created_at</text>
<polygon fill="none" stroke="#000000" points="388,-207.7 388,-229.7 526,-229.7 526,-207.7 388,-207.7"/>
<text text-anchor="start" x="391" y="-215.4" font-family="Helvetica,sans-Serif" font-size="11.00" fill="#000000">timestamptz[35,6]</text>
<polygon fill="none" stroke="#000000" points="228,-185.7 228,-207.7 388,-207.7 388,-185.7 228,-185.7"/>
<text text-anchor="start" x="248" y="-192.8" font-family="Helvetica,sans-Serif" font-size="11.00" fill="#000000">updated_at</text>
<polygon fill="none" stroke="#000000" points="388,-185.7 388,-207.7 526,-207.7 526,-185.7 388,-185.7"/>
<text text-anchor="start" x="391" y="-193.4" font-family="Helvetica,sans-Serif" font-size="11.00" fill="#000000">timestamptz[35,6]</text>
<polygon fill="#ffffff" stroke="transparent" points="228,-166.7 228,-185.7 312,-185.7 312,-166.7 228,-166.7"/>
<polygon fill="none" stroke="#000000" points="228,-166.7 228,-185.7 312,-185.7 312,-166.7 228,-166.7"/>
<text text-anchor="start" x="231" y="-172.8" font-family="Helvetica,sans-Serif" font-size="11.00" fill="#000000">&lt; 1</text>
<polygon fill="#ffffff" stroke="transparent" points="312,-166.7 312,-185.7 388,-185.7 388,-166.7 312,-166.7"/>
<polygon fill="none" stroke="#000000" points="312,-166.7 312,-185.7 388,-185.7 388,-166.7 312,-166.7"/>
<text text-anchor="start" x="378.8862" y="-172.8" font-family="Helvetica,sans-Serif" font-size="11.00" fill="#000000"> &#160;</text>
<polygon fill="#ffffff" stroke="transparent" points="388,-166.7 388,-185.7 526,-185.7 526,-166.7 388,-166.7"/>
<polygon fill="none" stroke="#000000" points="388,-166.7 388,-185.7 526,-185.7 526,-166.7 388,-166.7"/>
<text text-anchor="start" x="507.4053" y="-172.8" font-family="Helvetica,sans-Serif" font-size="11.00" fill="#000000">0 &gt;</text>
<polygon fill="none" stroke="#000000" stroke-width="2" points="227,-165.7 227,-539.7 527,-539.7 527,-165.7 227,-165.7"/>
</a>
</g>
</g>
<!-- margin_statements -->
<g id="node2" class="node">
<title>margin_statements</title>
<g id="a_node2"><a xlink:href="../../tables/margin_statements.html" xlink:title="margin_statements" target="_top">
<polygon fill="#ffffff" stroke="transparent" points="8,-38.2 8,-275.2 177,-275.2 177,-38.2 8,-38.2"/>
<polygon fill="#f5f5f5" stroke="transparent" points="8.5,-251.7 8.5,-274.7 177.5,-274.7 177.5,-251.7 8.5,-251.7"/>
<polygon fill="none" stroke="#000000" points="8.5,-251.7 8.5,-274.7 177.5,-274.7 177.5,-251.7 8.5,-251.7"/>
<text text-anchor="start" x="13.5" y="-260.3" font-family="Helvetica,sans-Serif" font-weight="bold" font-size="11.00" fill="#000000">margin_statements</text>
<text text-anchor="start" x="143.0219" y="-259.8" font-family="Helvetica,sans-Serif" font-size="11.00" fill="#000000">[table]</text>
<polygon fill="none" stroke="#000000" points="8.5,-229.7 8.5,-251.7 177.5,-251.7 177.5,-229.7 8.5,-229.7"/>
<image xlink:href="../../images/primaryKeys.png" width="11px" height="12px" preserveAspectRatio="xMinYMin meet" x="13.5" y="-246.7"/>
<text text-anchor="start" x="37.5" y="-236.8" font-family="Helvetica,sans-Serif" font-size="11.00" fill="#000000">id</text>
<polygon fill="#ffffff" stroke="transparent" points="8.5,-207.7 8.5,-229.7 177.5,-229.7 177.5,-207.7 8.5,-207.7"/>
<polygon fill="none" stroke="#000000" points="8.5,-207.7 8.5,-229.7 177.5,-229.7 177.5,-207.7 8.5,-207.7"/>
<text text-anchor="start" x="37.5" y="-214.8" font-family="Helvetica,sans-Serif" font-size="11.00" fill="#000000">statement_id</text>
<polygon fill="#ffffff" stroke="transparent" points="8.5,-185.7 8.5,-207.7 177.5,-207.7 177.5,-185.7 8.5,-185.7"/>
<polygon fill="none" stroke="#000000" points="8.5,-185.7 8.5,-207.7 177.5,-207.7 177.5,-185.7 8.5,-185.7"/>
<text text-anchor="start" x="37.5" y="-192.8" font-family="Helvetica,sans-Serif" font-size="11.00" fill="#000000">ccp_name</text>
<polygon fill="#ffffff" stroke="transparent" points="8.5,-163.7 8.5,-185.7 177.5,-185.7 177.5,-163.7 8.5,-163.7"/>
<polygon fill="none" stroke="#000000" points="8.5,-163.7 8.5,-185.7 177.5,-185.7 177.5,-163.7 8.5,-163.7"/>
<text text-anchor="start" x="37.5" y="-170.8" font-family="Helvetica,sans-Serif" font-size="11.00" fill="#000000">statement_date</text>
<polygon fill="#ffffff" stroke="transparent" points="8.5,-141.7 8.5,-163.7 177.5,-163.7 177.5,-141.7 8.5,-141.7"/>
<polygon fill="none" stroke="#000000" points="8.5,-141.7 8.5,-163.7 177.5,-163.7 177.5,-141.7 8.5,-141.7"/>
<text text-anchor="start" x="37.5" y="-148.8" font-family="Helvetica,sans-Serif" font-size="11.00" fill="#000000">status</text>
<polygon fill="#ffffff" stroke="transparent" points="8.5,-119.7 8.5,-141.7 177.5,-141.7 177.5,-119.7 8.5,-119.7"/>
<polygon fill="none" stroke="#000000" points="8.5,-119.7 8.5,-141.7 177.5,-141.7 177.5,-119.7 8.5,-119.7"/>
<text text-anchor="start" x="37.5" y="-126.8" font-family="Helvetica,sans-Serif" font-size="11.00" fill="#000000">created_at</text>
<polygon fill="#ffffff" stroke="transparent" points="8.5,-97.7 8.5,-119.7 177.5,-119.7 177.5,-97.7 8.5,-97.7"/>
<polygon fill="none" stroke="#000000" points="8.5,-97.7 8.5,-119.7 177.5,-119.7 177.5,-97.7 8.5,-97.7"/>
<text text-anchor="start" x="37.5" y="-104.8" font-family="Helvetica,sans-Serif" font-size="11.00" fill="#000000">variation_margin</text>
<polygon fill="#ffffff" stroke="transparent" points="8.5,-75.7 8.5,-97.7 177.5,-97.7 177.5,-75.7 8.5,-75.7"/>
<polygon fill="none" stroke="#000000" points="8.5,-75.7 8.5,-97.7 177.5,-97.7 177.5,-75.7 8.5,-75.7"/>
<text text-anchor="start" x="37.5" y="-82.8" font-family="Helvetica,sans-Serif" font-size="11.00" fill="#000000">initial_margin</text>
<polygon fill="none" stroke="#000000" points="8.5,-56.7 8.5,-75.7 177.5,-75.7 177.5,-56.7 8.5,-56.7"/>
<text text-anchor="start" x="11.5" y="-62.8" font-family="Helvetica,sans-Serif" font-size="11.00" fill="#000000">...</text>
<polygon fill="#ffffff" stroke="transparent" points="8.5,-37.7 8.5,-56.7 82.5,-56.7 82.5,-37.7 8.5,-37.7"/>
<polygon fill="none" stroke="#000000" points="8.5,-37.7 8.5,-56.7 82.5,-56.7 82.5,-37.7 8.5,-37.7"/>
<text text-anchor="start" x="11.5" y="-43.8" font-family="Helvetica,sans-Serif" font-size="11.00" fill="#000000"> &#160;</text>
<polygon fill="#ffffff" stroke="transparent" points="82.5,-37.7 82.5,-56.7 125.5,-56.7 125.5,-37.7 82.5,-37.7"/>
<polygon fill="none" stroke="#000000" points="82.5,-37.7 82.5,-56.7 125.5,-56.7 125.5,-37.7 82.5,-37.7"/>
<text text-anchor="start" x="116.3862" y="-43.8" font-family="Helvetica,sans-Serif" font-size="11.00" fill="#000000"> &#160;</text>
<polygon fill="#ffffff" stroke="transparent" points="125.5,-37.7 125.5,-56.7 177.5,-56.7 177.5,-37.7 125.5,-37.7"/>
<polygon fill="none" stroke="#000000" points="125.5,-37.7 125.5,-56.7 177.5,-56.7 177.5,-37.7 125.5,-37.7"/>
<text text-anchor="start" x="158.9053" y="-43.8" font-family="Helvetica,sans-Serif" font-size="11.00" fill="#000000">4 &gt;</text>
</a>
</g>
</g>
<!-- collateral_ledger&#45;&gt;margin_statements -->
<g id="edge1" class="edge">
<title>collateral_ledger:w&#45;&gt;margin_statements:e</title>
<path fill="none" stroke="#000000" d="M213.4203,-240.7C201.5435,-240.7 194.158,-240.7 177.5,-240.7"/>
<polygon fill="#000000" stroke="#000000" points="220,-240.7001 228,-244.3 224,-240.7 228,-240.7 228,-240.7 228,-240.7 224,-240.7 228,-237.1 220,-240.7001 220,-240.7001"/>
<ellipse fill="none" stroke="#000000" cx="216.8" cy="-240.7001" rx="3.2" ry="3.2"/>
</g>
</g>
</svg>
