<?xml version="1.0" encoding="UTF-8" standalone="no"?>
<!DOCTYPE svg PUBLIC "-//W3C//DTD SVG 1.1//EN"
 "http://www.w3.org/Graphics/SVG/1.1/DTD/svg11.dtd">
<!-- Generated by graphviz version 2.40.1 (20161225.0304)
 -->
<!-- Title: twoDegreesRelationshipsDiagram Pages: 1 -->
<svg width="601pt" height="421pt"
 viewBox="0.00 0.00 601.00 420.70" xmlns="http://www.w3.org/2000/svg" xmlns:xlink="http://www.w3.org/1999/xlink">
<g id="graph0" class="graph" transform="scale(1 1) rotate(0) translate(4 416.7)">
<title>twoDegreesRelationshipsDiagram</title>
<polygon fill="#ffffff" stroke="transparent" points="-4,4 -4,-416.7 597,-416.7 597,4 -4,4"/>
<text text-anchor="middle" x="72.4936" y="-7.3" font-family="Helvetica,sans-Serif" font-size="11.00" fill="#000000">Generated by SchemaSpy</text>
<!-- compression_proposal_items -->
<g id="node1" class="node">
<title>compression_proposal_items</title>
<g id="a_node1"><a xlink:href="../../tables/compression_proposal_items.html" xlink:title="compression_proposal_items" target="_top">
<polygon fill="#ffffff" stroke="transparent" points="352,-159.2 352,-286.2 585,-286.2 585,-159.2 352,-159.2"/>
<polygon fill="#f5f5f5" stroke="transparent" points="352.5,-262.7 352.5,-285.7 585.5,-285.7 585.5,-262.7 352.5,-262.7"/>
<polygon fill="none" stroke="#000000" points="352.5,-262.7 352.5,-285.7 585.5,-285.7 585.5,-262.7 352.5,-262.7"/>
<text text-anchor="start" x="357.5" y="-271.3" font-family="Helvetica,sans-Serif" font-weight="bold" font-size="11.00" fill="#000000">compression_proposal_items</text>
<text text-anchor="start" x="551.0219" y="-270.8" font-family="Helvetica,sans-Serif" font-size="11.00" fill="#000000">[table]</text>
<polygon fill="none" stroke="#000000" points="352.5,-240.7 352.5,-262.7 585.5,-262.7 585.5,-240.7 352.5,-240.7"/>
<image xlink:href="../../images/primaryKeys.png" width="11px" height="12px" preserveAspectRatio="xMinYMin meet" x="357.5" y="-257.7"/>
<text text-anchor="start" x="381.5" y="-247.8" font-family="Helvetica,sans-Serif" font-size="11.00" fill="#000000">id</text>
<polygon fill="#ffffff" stroke="transparent" points="352.5,-218.7 352.5,-240.7 585.5,-240.7 585.5,-218.7 352.5,-218.7"/>
<polygon fill="none" stroke="#000000" points="352.5,-218.7 352.5,-240.7 585.5,-240.7 585.5,-218.7 352.5,-218.7"/>
<image xlink:href="../../images/foreignKeys.png" width="11px" height="12px" preserveAspectRatio="xMinYMin meet" x="357.5" y="-235.7"/>
<text text-anchor="start" x="381.5" y="-225.8" font-family="Helvetica,sans-Serif" font-size="11.00" fill="#000000">proposal_id</text>
<polygon fill="#ffffff" stroke="transparent" points="352.5,-196.7 352.5,-218.7 585.5,-218.7 585.5,-196.7 352.5,-196.7"/>
<polygon fill="none" stroke="#000000" points="352.5,-196.7 352.5,-218.7 585.5,-218.7 585.5,-196.7 352.5,-196.7"/>
<image xlink:href="../../images/foreignKeys.png" width="11px" height="12px" preserveAspectRatio="xMinYMin meet" x="357.5" y="-213.7"/>
<text text-anchor="start" x="381.5" y="-203.8" font-family="Helvetica,sans-Serif" font-size="11.00" fill="#000000">trade_id</text>
<polygon fill="none" stroke="#000000" points="352.5,-177.7 352.5,-196.7 585.5,-196.7 585.5,-177.7 352.5,-177.7"/>
<text text-anchor="start" x="355.5" y="-183.8" font-family="Helvetica,sans-Serif" font-size="11.00" fill="#000000">...</text>
<polygon fill="#ffffff" stroke="transparent" points="352.5,-158.7 352.5,-177.7 467.5,-177.7 467.5,-158.7 352.5,-158.7"/>
<polygon fill="none" stroke="#000000" points="352.5,-158.7 352.5,-177.7 467.5,-177.7 467.5,-158.7 352.5,-158.7"/>
<text text-anchor="start" x="355.5" y="-164.8" font-family="Helvetica,sans-Serif" font-size="11.00" fill="#000000">&lt; 2</text>
<polygon fill="#ffffff" stroke="transparent" points="467.5,-158.7 467.5,-177.7 526.5,-177.7 526.5,-158.7 467.5,-158.7"/>
<polygon fill="none" stroke="#000000" points="467.5,-158.7 467.5,-177.7 526.5,-177.7 526.5,-158.7 467.5,-158.7"/>
<text text-anchor="start" x="517.3862" y="-164.8" font-family="Helvetica,sans-Serif" font-size="11.00" fill="#000000"> &#160;</text>
<polygon fill="#ffffff" stroke="transparent" points="526.5,-158.7 526.5,-177.7 585.5,-177.7 585.5,-158.7 526.5,-158.7"/>
<polygon fill="none" stroke="#000000" points="526.5,-158.7 526.5,-177.7 585.5,-177.7 585.5,-158.7 526.5,-158.7"/>
<text text-anchor="start" x="576.3862" y="-164.8" font-family="Helvetica,sans-Serif" font-size="11.00" fill="#000000"> &#160;</text>
</a>
</g>
</g>
<!-- compression_proposals -->
<g id="node2" class="node">
<title>compression_proposals</title>
<g id="a_node2"><a xlink:href="../../tables/compression_proposals.html" xlink:title="compression_proposals" target="_top">
<polygon fill="#ffffff" stroke="transparent" points="8,-120.7 8,-408.7 303,-408.7 303,-120.7 8,-120.7"/>
<polygon fill="#f5f5f5" stroke="transparent" points="10.5,-383.7 10.5,-406.7 301.5,-406.7 301.5,-383.7 10.5,-383.7"/>
<polygon fill="none" stroke="#000000" points="10.5,-383.7 10.5,-406.7 301.5,-406.7 301.5,-383.7 10.5,-383.7"/>
<text text-anchor="start" x="15.5" y="-392.3" font-family="Helvetica,sans-Serif" font-weight="bold" font-size="11.00" fill="#000000">compression_proposals</text>
<text text-anchor="start" x="266.5437" y="-391.8" font-family="Helvetica,sans-Serif" font-size="11.00" fill="#000000">[table]</text>
<polygon fill="none" stroke="#000000" points="10.5,-361.7 10.5,-383.7 217.5,-383.7 217.5,-361.7 10.5,-361.7"/>
<image xlink:href="../../images/primaryKeys.png" width="11px" height="12px" preserveAspectRatio="xMinYMin meet" x="15.5" y="-378.7"/>
<text text-anchor="start" x="30.5" y="-368.8" font-family="Helvetica,sans-Serif" font-size="11.00" fill="#000000">id</text>
<polygon fill="none" stroke="#000000" points="217.5,-361.7 217.5,-383.7 301.5,-383.7 301.5,-361.7 217.5,-361.7"/>
<text text-anchor="start" x="220.5" y="-369.4" font-family="Helvetica,sans-Serif" font-size="11.00" fill="#000000">bigserial[19]</text>
<polygon fill="#ffffff" stroke="transparent" points="10.5,-339.7 10.5,-361.7 217.5,-361.7 217.5,-339.7 10.5,-339.7"/>
<polygon fill="none" stroke="#000000" points="10.5,-339.7 10.5,-361.7 217.5,-361.7 217.5,-339.7 10.5,-339.7"/>
<text text-anchor="start" x="30.5" y="-346.8" font-family="Helvetica,sans-Serif" font-size="11.00" fill="#000000">proposal_id</text>
<polygon fill="none" stroke="#000000" points="217.5,-339.7 217.5,-361.7 301.5,-361.7 301.5,-339.7 217.5,-339.7"/>
<text text-anchor="start" x="220.5" y="-347.4" font-family="Helvetica,sans-Serif" font-size="11.00" fill="#000000">varchar[50]</text>
<polygon fill="#ffffff" stroke="transparent" points="10.5,-317.7 10.5,-339.7 217.5,-339.7 217.5,-317.7 10.5,-317.7"/>
<polygon fill="none" stroke="#000000" points="10.5,-317.7 10.5,-339.7 217.5,-339.7 217.5,-317.7 10.5,-317.7"/>
<text text-anchor="start" x="30.5" y="-324.8" font-family="Helvetica,sans-Serif" font-size="11.00" fill="#000000">proposal_date</text>
<polygon fill="none" stroke="#000000" points="217.5,-317.7 217.5,-339.7 301.5,-339.7 301.5,-317.7 217.5,-317.7"/>
<text text-anchor="start" x="220.5" y="-325.4" font-family="Helvetica,sans-Serif" font-size="11.00" fill="#000000">date[13]</text>
<polygon fill="none" stroke="#000000" points="10.5,-295.7 10.5,-317.7 217.5,-317.7 217.5,-295.7 10.5,-295.7"/>
<text text-anchor="start" x="30.5" y="-302.8" font-family="Helvetica,sans-Serif" font-size="11.00" fill="#000000">execution_date</text>
<polygon fill="none" stroke="#000000" points="217.5,-295.7 217.5,-317.7 301.5,-317.7 301.5,-295.7 217.5,-295.7"/>
<text text-anchor="start" x="220.5" y="-303.4" font-family="Helvetica,sans-Serif" font-size="11.00" fill="#000000">date[13]</text>
<polygon fill="#ffffff" stroke="transparent" points="10.5,-273.7 10.5,-295.7 217.5,-295.7 217.5,-273.7 10.5,-273.7"/>
<polygon fill="none" stroke="#000000" points="10.5,-273.7 10.5,-295.7 217.5,-295.7 217.5,-273.7 10.5,-273.7"/>
<text text-anchor="start" x="30.5" y="-280.8" font-family="Helvetica,sans-Serif" font-size="11.00" fill="#000000">status</text>
<polygon fill="none" stroke="#000000" points="217.5,-273.7 217.5,-295.7 301.5,-295.7 301.5,-273.7 217.5,-273.7"/>
<text text-anchor="start" x="220.5" y="-281.4" font-family="Helvetica,sans-Serif" font-size="11.00" fill="#000000">varchar[20]</text>
<polygon fill="none" stroke="#000000" points="10.5,-251.7 10.5,-273.7 217.5,-273.7 217.5,-251.7 10.5,-251.7"/>
<text text-anchor="start" x="30.5" y="-258.8" font-family="Helvetica,sans-Serif" font-size="11.00" fill="#000000">cs01_tolerance_check</text>
<polygon fill="none" stroke="#000000" points="217.5,-251.7 217.5,-273.7 301.5,-273.7 301.5,-251.7 217.5,-251.7"/>
<text text-anchor="start" x="220.5" y="-259.4" font-family="Helvetica,sans-Serif" font-size="11.00" fill="#000000">bool[1]</text>
<polygon fill="none" stroke="#000000" points="10.5,-229.7 10.5,-251.7 217.5,-251.7 217.5,-229.7 10.5,-229.7"/>
<text text-anchor="start" x="30.5" y="-236.8" font-family="Helvetica,sans-Serif" font-size="11.00" fill="#000000">total_gross_notional_before</text>
<polygon fill="none" stroke="#000000" points="217.5,-229.7 217.5,-251.7 301.5,-251.7 301.5,-229.7 217.5,-229.7"/>
<text text-anchor="start" x="220.5" y="-237.4" font-family="Helvetica,sans-Serif" font-size="11.00" fill="#000000">numeric[18,2]</text>
<polygon fill="none" stroke="#000000" points="10.5,-207.7 10.5,-229.7 217.5,-229.7 217.5,-207.7 10.5,-207.7"/>
<text text-anchor="start" x="30.5" y="-214.8" font-family="Helvetica,sans-Serif" font-size="11.00" fill="#000000">total_gross_notional_after</text>
<polygon fill="none" stroke="#000000" points="217.5,-207.7 217.5,-229.7 301.5,-229.7 301.5,-207.7 217.5,-207.7"/>
<text text-anchor="start" x="220.5" y="-215.4" font-family="Helvetica,sans-Serif" font-size="11.00" fill="#000000">numeric[18,2]</text>
<polygon fill="none" stroke="#000000" points="10.5,-185.7 10.5,-207.7 217.5,-207.7 217.5,-185.7 10.5,-185.7"/>
<text text-anchor="start" x="30.5" y="-192.8" font-family="Helvetica,sans-Serif" font-size="11.00" fill="#000000">net_notional_reduction</text>
<polygon fill="none" stroke="#000000" points="217.5,-185.7 217.5,-207.7 301.5,-207.7 301.5,-185.7 217.5,-185.7"/>
<text text-anchor="start" x="220.5" y="-193.4" font-family="Helvetica,sans-Serif" font-size="11.00" fill="#000000">numeric[18,2]</text>
<polygon fill="none" stroke="#000000" points="10.5,-163.7 10.5,-185.7 217.5,-185.7 217.5,-163.7 10.5,-163.7"/>
<text text-anchor="start" x="30.5" y="-170.8" font-family="Helvetica,sans-Serif" font-size="11.00" fill="#000000">number_of_trades_affected</text>
<polygon fill="none" stroke="#000000" points="217.5,-163.7 217.5,-185.7 301.5,-185.7 301.5,-163.7 217.5,-163.7"/>
<text text-anchor="start" x="220.5" y="-171.4" font-family="Helvetica,sans-Serif" font-size="11.00" fill="#000000">int4[10]</text>
<polygon fill="none" stroke="#000000" points="10.5,-141.7 10.5,-163.7 217.5,-163.7 217.5,-141.7 10.5,-141.7"/>
<text text-anchor="start" x="30.5" y="-148.8" font-family="Helvetica,sans-Serif" font-size="11.00" fill="#000000">created_at</text>
<polygon fill="none" stroke="#000000" points="217.5,-141.7 217.5,-163.7 301.5,-163.7 301.5,-141.7 217.5,-141.7"/>
<text text-anchor="start" x="220.3807" y="-149.4" font-family="Helvetica,sans-Serif" font-size="11.00" fill="#000000">timestamp[29,6]</text>
<polygon fill="#ffffff" stroke="transparent" points="10.5,-122.7 10.5,-141.7 118.5,-141.7 118.5,-122.7 10.5,-122.7"/>
<polygon fill="none" stroke="#000000" points="10.5,-122.7 10.5,-141.7 118.5,-141.7 118.5,-122.7 10.5,-122.7"/>
<text text-anchor="start" x="13.5" y="-128.8" font-family="Helvetica,sans-Serif" font-size="11.00" fill="#000000">&lt; 0</text>
<polygon fill="#ffffff" stroke="transparent" points="118.5,-122.7 118.5,-141.7 217.5,-141.7 217.5,-122.7 118.5,-122.7"/>
<polygon fill="none" stroke="#000000" points="118.5,-122.7 118.5,-141.7 217.5,-141.7 217.5,-122.7 118.5,-122.7"/>
<text text-anchor="start" x="208.3862" y="-128.8" font-family="Helvetica,sans-Serif" font-size="11.00" fill="#000000"> &#160;</text>
<polygon fill="#ffffff" stroke="transparent" points="217.5,-122.7 217.5,-141.7 301.5,-141.7 301.5,-122.7 217.5,-122.7"/>
<polygon fill="none" stroke="#000000" points="217.5,-122.7 217.5,-141.7 301.5,-141.7 301.5,-122.7 217.5,-122.7"/>
<text text-anchor="start" x="282.9053" y="-128.8" font-family="Helvetica,sans-Serif" font-size="11.00" fill="#000000">1 &gt;</text>
<polygon fill="none" stroke="#000000" stroke-width="2" points="9,-121.7 9,-407.7 302,-407.7 302,-121.7 9,-121.7"/>
</a>
</g>
</g>
<!-- compression_proposal_items&#45;&gt;compression_proposals -->
<g id="edge1" class="edge">
<title>compression_proposal_items:w&#45;&gt;compression_proposals:e</title>
<path fill="none" stroke="#000000" d="M338.2665,-232.6868C298.3345,-253.222 363.1778,-372.7 301.5,-372.7"/>
<polygon fill="#000000" stroke="#000000" points="344.6705,-231.343 353.2393,-233.2233 348.5853,-230.5215 352.5,-229.7 352.5,-229.7 352.5,-229.7 348.5853,-230.5215 351.7607,-226.1767 344.6705,-231.343 344.6705,-231.343"/>
<ellipse fill="none" stroke="#000000" cx="341.5387" cy="-232.0002" rx="3.2" ry="3.2"/>
</g>
<!-- cds_trades -->
<g id="node3" class="node">
<title>cds_trades</title>
<g id="a_node3"><a xlink:href="../../tables/cds_trades.html" xlink:title="cds_trades" target="_top">
<polygon fill="#ffffff" stroke="transparent" points="100,-38.2 100,-99.2 211,-99.2 211,-38.2 100,-38.2"/>
<polygon fill="#f5f5f5" stroke="transparent" points="100.5,-75.7 100.5,-98.7 211.5,-98.7 211.5,-75.7 100.5,-75.7"/>
<polygon fill="none" stroke="#000000" points="100.5,-75.7 100.5,-98.7 211.5,-98.7 211.5,-75.7 100.5,-75.7"/>
<text text-anchor="start" x="105.5" y="-84.3" font-family="Helvetica,sans-Serif" font-weight="bold" font-size="11.00" fill="#000000">cds_trades</text>
<text text-anchor="start" x="177.0219" y="-83.8" font-family="Helvetica,sans-Serif" font-size="11.00" fill="#000000">[table]</text>
<polygon fill="none" stroke="#000000" points="100.5,-56.7 100.5,-75.7 211.5,-75.7 211.5,-56.7 100.5,-56.7"/>
<text text-anchor="start" x="103.5" y="-62.8" font-family="Helvetica,sans-Serif" font-size="11.00" fill="#000000">...</text>
<polygon fill="#ffffff" stroke="transparent" points="100.5,-37.7 100.5,-56.7 146.5,-56.7 146.5,-37.7 100.5,-37.7"/>
<polygon fill="none" stroke="#000000" points="100.5,-37.7 100.5,-56.7 146.5,-56.7 146.5,-37.7 100.5,-37.7"/>
<text text-anchor="start" x="103.5" y="-43.8" font-family="Helvetica,sans-Serif" font-size="11.00" fill="#000000">&lt; 2</text>
<polygon fill="#ffffff" stroke="transparent" points="146.5,-37.7 146.5,-56.7 171.5,-56.7 171.5,-37.7 146.5,-37.7"/>
<polygon fill="none" stroke="#000000" points="146.5,-37.7 146.5,-56.7 171.5,-56.7 171.5,-37.7 146.5,-37.7"/>
<text text-anchor="start" x="162.3862" y="-43.8" font-family="Helvetica,sans-Serif" font-size="11.00" fill="#000000"> &#160;</text>
<polygon fill="#ffffff" stroke="transparent" points="171.5,-37.7 171.5,-56.7 211.5,-56.7 211.5,-37.7 171.5,-37.7"/>
<polygon fill="none" stroke="#000000" points="171.5,-37.7 171.5,-56.7 211.5,-56.7 211.5,-37.7 171.5,-37.7"/>
<text text-anchor="start" x="186.7904" y="-43.8" font-family="Helvetica,sans-Serif" font-size="11.00" fill="#000000">13 &gt;</text>
</a>
</g>
</g>
<!-- compression_proposal_items&#45;&gt;cds_trades -->
<g id="edge2" class="edge">
<title>compression_proposal_items:w&#45;&gt;cds_trades:e</title>
<path fill="none" stroke="#000000" d="M338.2741,-204.7345C314.2791,-191.8262 339.5858,-139.8768 311,-110.7 277.0338,-76.0315 260.0346,-65.7 211.5,-65.7"/>
<polygon fill="#000000" stroke="#000000" points="344.6683,-206.0674 351.7653,-211.2242 348.5842,-206.8837 352.5,-207.7 352.5,-207.7 352.5,-207.7 348.5842,-206.8837 353.2347,-204.1758 344.6683,-206.0674 344.6683,-206.0674"/>
<ellipse fill="none" stroke="#000000" cx="341.5357" cy="-205.4144" rx="3.2" ry="3.2"/>
</g>
</g>
</svg>
