<?xml version="1.0" encoding="UTF-8" standalone="no"?>
<!DOCTYPE svg PUBLIC "-//W3C//DTD SVG 1.1//EN"
 "http://www.w3.org/Graphics/SVG/1.1/DTD/svg11.dtd">
<!-- Generated by graphviz version 2.40.1 (20161225.0304)
 -->
<!-- Title: oneDegreeRelationshipsDiagram Pages: 1 -->
<svg width="571pt" height="611pt"
 viewBox="0.00 0.00 571.00 611.20" xmlns="http://www.w3.org/2000/svg" xmlns:xlink="http://www.w3.org/1999/xlink">
<g id="graph0" class="graph" transform="scale(1 1) rotate(0) translate(4 607.2)">
<title>oneDegreeRelationshipsDiagram</title>
<polygon fill="#ffffff" stroke="transparent" points="-4,4 -4,-607.2 567,-607.2 567,4 -4,4"/>
<text text-anchor="middle" x="72.4936" y="-7.3" font-family="Helvetica,sans-Serif" font-size="11.00" fill="#000000">Generated by SchemaSpy</text>
<!-- compression_proposal_items -->
<g id="node1" class="node">
<title>compression_proposal_items</title>
<g id="a_node1"><a xlink:href="../../tables/compression_proposal_items.html" xlink:title="compression_proposal_items" target="_top">
<polygon fill="#ffffff" stroke="transparent" points="264,-348.7 264,-548.7 555,-548.7 555,-348.7 264,-348.7"/>
<polygon fill="#f5f5f5" stroke="transparent" points="266.5,-523.7 266.5,-546.7 553.5,-546.7 553.5,-523.7 266.5,-523.7"/>
<polygon fill="none" stroke="#000000" points="266.5,-523.7 266.5,-546.7 553.5,-546.7 553.5,-523.7 266.5,-523.7"/>
<text text-anchor="start" x="271.5" y="-532.3" font-family="Helvetica,sans-Serif" font-weight="bold" font-size="11.00" fill="#000000">compression_proposal_items</text>
<text text-anchor="start" x="518.5437" y="-531.8" font-family="Helvetica,sans-Serif" font-size="11.00" fill="#000000">[table]</text>
<polygon fill="none" stroke="#000000" points="266.5,-501.7 266.5,-523.7 481.5,-523.7 481.5,-501.7 266.5,-501.7"/>
<image xlink:href="../../images/primaryKeys.png" width="11px" height="12px" preserveAspectRatio="xMinYMin meet" x="271.5" y="-518.7"/>
<text text-anchor="start" x="286.5" y="-508.8" font-family="Helvetica,sans-Serif" font-size="11.00" fill="#000000">id</text>
<polygon fill="none" stroke="#000000" points="481.5,-501.7 481.5,-523.7 553.5,-523.7 553.5,-501.7 481.5,-501.7"/>
<text text-anchor="start" x="484.5" y="-509.4" font-family="Helvetica,sans-Serif" font-size="11.00" fill="#000000">bigserial[19]</text>
<polygon fill="#ffffff" stroke="transparent" points="266.5,-479.7 266.5,-501.7 481.5,-501.7 481.5,-479.7 266.5,-479.7"/>
<polygon fill="none" stroke="#000000" points="266.5,-479.7 266.5,-501.7 481.5,-501.7 481.5,-479.7 266.5,-479.7"/>
<image xlink:href="../../images/foreignKeys.png" width="11px" height="12px" preserveAspectRatio="xMinYMin meet" x="271.5" y="-496.7"/>
<text text-anchor="start" x="286.5" y="-486.8" font-family="Helvetica,sans-Serif" font-size="11.00" fill="#000000">proposal_id</text>
<polygon fill="none" stroke="#000000" points="481.5,-479.7 481.5,-501.7 553.5,-501.7 553.5,-479.7 481.5,-479.7"/>
<text text-anchor="start" x="484.5" y="-487.4" font-family="Helvetica,sans-Serif" font-size="11.00" fill="#000000">int8[19]</text>
<polygon fill="#ffffff" stroke="transparent" points="266.5,-457.7 266.5,-479.7 481.5,-479.7 481.5,-457.7 266.5,-457.7"/>
<polygon fill="none" stroke="#000000" points="266.5,-457.7 266.5,-479.7 481.5,-479.7 481.5,-457.7 266.5,-457.7"/>
<image xlink:href="../../images/foreignKeys.png" width="11px" height="12px" preserveAspectRatio="xMinYMin meet" x="271.5" y="-474.7"/>
<text text-anchor="start" x="286.5" y="-464.8" font-family="Helvetica,sans-Serif" font-size="11.00" fill="#000000">trade_id</text>
<polygon fill="none" stroke="#000000" points="481.5,-457.7 481.5,-479.7 553.5,-479.7 553.5,-457.7 481.5,-457.7"/>
<text text-anchor="start" x="484.5" y="-465.4" font-family="Helvetica,sans-Serif" font-size="11.00" fill="#000000">int8[19]</text>
<polygon fill="none" stroke="#000000" points="266.5,-435.7 266.5,-457.7 481.5,-457.7 481.5,-435.7 266.5,-435.7"/>
<text text-anchor="start" x="286.5" y="-442.8" font-family="Helvetica,sans-Serif" font-size="11.00" fill="#000000">original_notional</text>
<polygon fill="none" stroke="#000000" points="481.5,-435.7 481.5,-457.7 553.5,-457.7 553.5,-435.7 481.5,-435.7"/>
<text text-anchor="start" x="484.1876" y="-443.4" font-family="Helvetica,sans-Serif" font-size="11.00" fill="#000000">numeric[15,2]</text>
<polygon fill="none" stroke="#000000" points="266.5,-413.7 266.5,-435.7 481.5,-435.7 481.5,-413.7 266.5,-413.7"/>
<text text-anchor="start" x="286.5" y="-420.8" font-family="Helvetica,sans-Serif" font-size="11.00" fill="#000000">adjusted_notional</text>
<polygon fill="none" stroke="#000000" points="481.5,-413.7 481.5,-435.7 553.5,-435.7 553.5,-413.7 481.5,-413.7"/>
<text text-anchor="start" x="484.1876" y="-421.4" font-family="Helvetica,sans-Serif" font-size="11.00" fill="#000000">numeric[15,2]</text>
<polygon fill="none" stroke="#000000" points="266.5,-391.7 266.5,-413.7 481.5,-413.7 481.5,-391.7 266.5,-391.7"/>
<text text-anchor="start" x="286.5" y="-398.8" font-family="Helvetica,sans-Serif" font-size="11.00" fill="#000000">notional_change</text>
<polygon fill="none" stroke="#000000" points="481.5,-391.7 481.5,-413.7 553.5,-413.7 553.5,-391.7 481.5,-391.7"/>
<text text-anchor="start" x="484.1876" y="-399.4" font-family="Helvetica,sans-Serif" font-size="11.00" fill="#000000">numeric[15,2]</text>
<polygon fill="none" stroke="#000000" points="266.5,-369.7 266.5,-391.7 481.5,-391.7 481.5,-369.7 266.5,-369.7"/>
<text text-anchor="start" x="286.5" y="-376.8" font-family="Helvetica,sans-Serif" font-size="11.00" fill="#000000">termination_flag</text>
<polygon fill="none" stroke="#000000" points="481.5,-369.7 481.5,-391.7 553.5,-391.7 553.5,-369.7 481.5,-369.7"/>
<text text-anchor="start" x="484.5" y="-377.4" font-family="Helvetica,sans-Serif" font-size="11.00" fill="#000000">bool[1]</text>
<polygon fill="#ffffff" stroke="transparent" points="266.5,-350.7 266.5,-369.7 378.5,-369.7 378.5,-350.7 266.5,-350.7"/>
<polygon fill="none" stroke="#000000" points="266.5,-350.7 266.5,-369.7 378.5,-369.7 378.5,-350.7 266.5,-350.7"/>
<text text-anchor="start" x="269.5" y="-356.8" font-family="Helvetica,sans-Serif" font-size="11.00" fill="#000000">&lt; 2</text>
<polygon fill="#ffffff" stroke="transparent" points="378.5,-350.7 378.5,-369.7 481.5,-369.7 481.5,-350.7 378.5,-350.7"/>
<polygon fill="none" stroke="#000000" points="378.5,-350.7 378.5,-369.7 481.5,-369.7 481.5,-350.7 378.5,-350.7"/>
<text text-anchor="start" x="472.3862" y="-356.8" font-family="Helvetica,sans-Serif" font-size="11.00" fill="#000000"> &#160;</text>
<polygon fill="#ffffff" stroke="transparent" points="481.5,-350.7 481.5,-369.7 553.5,-369.7 553.5,-350.7 481.5,-350.7"/>
<polygon fill="none" stroke="#000000" points="481.5,-350.7 481.5,-369.7 553.5,-369.7 553.5,-350.7 481.5,-350.7"/>
<text text-anchor="start" x="534.9053" y="-356.8" font-family="Helvetica,sans-Serif" font-size="11.00" fill="#000000">0 &gt;</text>
<polygon fill="none" stroke="#000000" stroke-width="2" points="265,-349.7 265,-547.7 554,-547.7 554,-349.7 265,-349.7"/>
</a>
</g>
</g>
<!-- compression_proposals -->
<g id="node2" class="node">
<title>compression_proposals</title>
<g id="a_node2"><a xlink:href="../../tables/compression_proposals.html" xlink:title="compression_proposals" target="_top">
<polygon fill="#ffffff" stroke="transparent" points="8,-450.2 8,-599.2 215,-599.2 215,-450.2 8,-450.2"/>
<polygon fill="#f5f5f5" stroke="transparent" points="8.5,-575.7 8.5,-598.7 215.5,-598.7 215.5,-575.7 8.5,-575.7"/>
<polygon fill="none" stroke="#000000" points="8.5,-575.7 8.5,-598.7 215.5,-598.7 215.5,-575.7 8.5,-575.7"/>
<text text-anchor="start" x="13.5" y="-584.3" font-family="Helvetica,sans-Serif" font-weight="bold" font-size="11.00" fill="#000000">compression_proposals</text>
<text text-anchor="start" x="180.5437" y="-583.8" font-family="Helvetica,sans-Serif" font-size="11.00" fill="#000000">[table]</text>
<polygon fill="none" stroke="#000000" points="8.5,-553.7 8.5,-575.7 215.5,-575.7 215.5,-553.7 8.5,-553.7"/>
<image xlink:href="../../images/primaryKeys.png" width="11px" height="12px" preserveAspectRatio="xMinYMin meet" x="13.5" y="-570.7"/>
<text text-anchor="start" x="28.5" y="-560.8" font-family="Helvetica,sans-Serif" font-size="11.00" fill="#000000">id</text>
<polygon fill="#ffffff" stroke="transparent" points="8.5,-531.7 8.5,-553.7 215.5,-553.7 215.5,-531.7 8.5,-531.7"/>
<polygon fill="none" stroke="#000000" points="8.5,-531.7 8.5,-553.7 215.5,-553.7 215.5,-531.7 8.5,-531.7"/>
<text text-anchor="start" x="28.5" y="-538.8" font-family="Helvetica,sans-Serif" font-size="11.00" fill="#000000">proposal_id</text>
<polygon fill="#ffffff" stroke="transparent" points="8.5,-509.7 8.5,-531.7 215.5,-531.7 215.5,-509.7 8.5,-509.7"/>
<polygon fill="none" stroke="#000000" points="8.5,-509.7 8.5,-531.7 215.5,-531.7 215.5,-509.7 8.5,-509.7"/>
<text text-anchor="start" x="28.5" y="-516.8" font-family="Helvetica,sans-Serif" font-size="11.00" fill="#000000">proposal_date</text>
<polygon fill="#ffffff" stroke="transparent" points="8.5,-487.7 8.5,-509.7 215.5,-509.7 215.5,-487.7 8.5,-487.7"/>
<polygon fill="none" stroke="#000000" points="8.5,-487.7 8.5,-509.7 215.5,-509.7 215.5,-487.7 8.5,-487.7"/>
<text text-anchor="start" x="28.5" y="-494.8" font-family="Helvetica,sans-Serif" font-size="11.00" fill="#000000">status</text>
<polygon fill="none" stroke="#000000" points="8.5,-468.7 8.5,-487.7 215.5,-487.7 215.5,-468.7 8.5,-468.7"/>
<text text-anchor="start" x="11.5" y="-474.8" font-family="Helvetica,sans-Serif" font-size="11.00" fill="#000000">...</text>
<polygon fill="#ffffff" stroke="transparent" points="8.5,-449.7 8.5,-468.7 101.5,-468.7 101.5,-449.7 8.5,-449.7"/>
<polygon fill="none" stroke="#000000" points="8.5,-449.7 8.5,-468.7 101.5,-468.7 101.5,-449.7 8.5,-449.7"/>
<text text-anchor="start" x="11.5" y="-455.8" font-family="Helvetica,sans-Serif" font-size="11.00" fill="#000000"> &#160;</text>
<polygon fill="#ffffff" stroke="transparent" points="101.5,-449.7 101.5,-468.7 153.5,-468.7 153.5,-449.7 101.5,-449.7"/>
<polygon fill="none" stroke="#000000" points="101.5,-449.7 101.5,-468.7 153.5,-468.7 153.5,-449.7 101.5,-449.7"/>
<text text-anchor="start" x="144.3862" y="-455.8" font-family="Helvetica,sans-Serif" font-size="11.00" fill="#000000"> &#160;</text>
<polygon fill="#ffffff" stroke="transparent" points="153.5,-449.7 153.5,-468.7 215.5,-468.7 215.5,-449.7 153.5,-449.7"/>
<polygon fill="none" stroke="#000000" points="153.5,-449.7 153.5,-468.7 215.5,-468.7 215.5,-449.7 153.5,-449.7"/>
<text text-anchor="start" x="196.9053" y="-455.8" font-family="Helvetica,sans-Serif" font-size="11.00" fill="#000000">1 &gt;</text>
</a>
</g>
</g>
<!-- compression_proposal_items&#45;&gt;compression_proposals -->
<g id="edge1" class="edge">
<title>compression_proposal_items:w&#45;&gt;compression_proposals:e</title>
<path fill="none" stroke="#000000" d="M252.5503,-495.329C233.7607,-511.5294 249.3581,-564.7 215.5,-564.7"/>
<polygon fill="#000000" stroke="#000000" points="258.9071,-493.2196 267.6338,-494.1168 262.7036,-491.9598 266.5,-490.7 266.5,-490.7 266.5,-490.7 262.7036,-491.9598 265.3662,-487.2832 258.9071,-493.2196 258.9071,-493.2196"/>
<ellipse fill="none" stroke="#000000" cx="255.87" cy="-494.2275" rx="3.2" ry="3.2"/>
</g>
<!-- cds_trades -->
<g id="node3" class="node">
<title>cds_trades</title>
<g id="a_node3"><a xlink:href="../../tables/cds_trades.html" xlink:title="cds_trades" target="_top">
<polygon fill="#ffffff" stroke="transparent" points="25.5,-38.2 25.5,-429.2 197.5,-429.2 197.5,-38.2 25.5,-38.2"/>
<polygon fill="#f5f5f5" stroke="transparent" points="25.5,-405.7 25.5,-428.7 197.5,-428.7 197.5,-405.7 25.5,-405.7"/>
<polygon fill="none" stroke="#000000" points="25.5,-405.7 25.5,-428.7 197.5,-428.7 197.5,-405.7 25.5,-405.7"/>
<text text-anchor="start" x="30.5" y="-414.3" font-family="Helvetica,sans-Serif" font-weight="bold" font-size="11.00" fill="#000000">cds_trades</text>
<text text-anchor="start" x="162.5437" y="-413.8" font-family="Helvetica,sans-Serif" font-size="11.00" fill="#000000">[table]</text>
<polygon fill="none" stroke="#000000" points="25.5,-383.7 25.5,-405.7 197.5,-405.7 197.5,-383.7 25.5,-383.7"/>
<image xlink:href="../../images/primaryKeys.png" width="11px" height="12px" preserveAspectRatio="xMinYMin meet" x="30.5" y="-400.7"/>
<text text-anchor="start" x="45.5" y="-390.8" font-family="Helvetica,sans-Serif" font-size="11.00" fill="#000000">id</text>
<polygon fill="#ffffff" stroke="transparent" points="25.5,-361.7 25.5,-383.7 197.5,-383.7 197.5,-361.7 25.5,-361.7"/>
<polygon fill="none" stroke="#000000" points="25.5,-361.7 25.5,-383.7 197.5,-383.7 197.5,-361.7 25.5,-361.7"/>
<text text-anchor="start" x="45.5" y="-368.8" font-family="Helvetica,sans-Serif" font-size="11.00" fill="#000000">reference_entity</text>
<polygon fill="#ffffff" stroke="transparent" points="25.5,-339.7 25.5,-361.7 197.5,-361.7 197.5,-339.7 25.5,-339.7"/>
<polygon fill="none" stroke="#000000" points="25.5,-339.7 25.5,-361.7 197.5,-361.7 197.5,-339.7 25.5,-339.7"/>
<text text-anchor="start" x="45.5" y="-346.8" font-family="Helvetica,sans-Serif" font-size="11.00" fill="#000000">counterparty</text>
<polygon fill="#ffffff" stroke="transparent" points="25.5,-317.7 25.5,-339.7 197.5,-339.7 197.5,-317.7 25.5,-317.7"/>
<polygon fill="none" stroke="#000000" points="25.5,-317.7 25.5,-339.7 197.5,-339.7 197.5,-317.7 25.5,-317.7"/>
<text text-anchor="start" x="45.5" y="-324.8" font-family="Helvetica,sans-Serif" font-size="11.00" fill="#000000">trade_date</text>
<polygon fill="#ffffff" stroke="transparent" points="25.5,-295.7 25.5,-317.7 197.5,-317.7 197.5,-295.7 25.5,-295.7"/>
<polygon fill="none" stroke="#000000" points="25.5,-295.7 25.5,-317.7 197.5,-317.7 197.5,-295.7 25.5,-295.7"/>
<text text-anchor="start" x="45.5" y="-302.8" font-family="Helvetica,sans-Serif" font-size="11.00" fill="#000000">created_at</text>
<polygon fill="#ffffff" stroke="transparent" points="25.5,-273.7 25.5,-295.7 197.5,-295.7 197.5,-273.7 25.5,-273.7"/>
<polygon fill="none" stroke="#000000" points="25.5,-273.7 25.5,-295.7 197.5,-295.7 197.5,-273.7 25.5,-273.7"/>
<image xlink:href="../../images/foreignKeys.png" width="11px" height="12px" preserveAspectRatio="xMinYMin meet" x="30.5" y="-290.7"/>
<text text-anchor="start" x="45.5" y="-280.8" font-family="Helvetica,sans-Serif" font-size="11.00" fill="#000000">obligation_id</text>
<polygon fill="#ffffff" stroke="transparent" points="25.5,-251.7 25.5,-273.7 197.5,-273.7 197.5,-251.7 25.5,-251.7"/>
<polygon fill="none" stroke="#000000" points="25.5,-251.7 25.5,-273.7 197.5,-273.7 197.5,-251.7 25.5,-251.7"/>
<text text-anchor="start" x="45.5" y="-258.8" font-family="Helvetica,sans-Serif" font-size="11.00" fill="#000000">settlement_type</text>
<polygon fill="#ffffff" stroke="transparent" points="25.5,-229.7 25.5,-251.7 197.5,-251.7 197.5,-229.7 25.5,-229.7"/>
<polygon fill="none" stroke="#000000" points="25.5,-229.7 25.5,-251.7 197.5,-251.7 197.5,-229.7 25.5,-229.7"/>
<text text-anchor="start" x="45.5" y="-236.8" font-family="Helvetica,sans-Serif" font-size="11.00" fill="#000000">ccp_name</text>
<polygon fill="#ffffff" stroke="transparent" points="25.5,-207.7 25.5,-229.7 197.5,-229.7 197.5,-207.7 25.5,-207.7"/>
<polygon fill="none" stroke="#000000" points="25.5,-207.7 25.5,-229.7 197.5,-229.7 197.5,-207.7 25.5,-207.7"/>
<image xlink:href="../../images/foreignKeys.png" width="11px" height="12px" preserveAspectRatio="xMinYMin meet" x="30.5" y="-224.7"/>
<text text-anchor="start" x="45.5" y="-214.8" font-family="Helvetica,sans-Serif" font-size="11.00" fill="#000000">original_trade_id</text>
<polygon fill="#ffffff" stroke="transparent" points="25.5,-185.7 25.5,-207.7 197.5,-207.7 197.5,-185.7 25.5,-185.7"/>
<polygon fill="none" stroke="#000000" points="25.5,-185.7 25.5,-207.7 197.5,-207.7 197.5,-185.7 25.5,-185.7"/>
<text text-anchor="start" x="45.5" y="-192.8" font-family="Helvetica,sans-Serif" font-size="11.00" fill="#000000">novation_timestamp</text>
<polygon fill="#ffffff" stroke="transparent" points="25.5,-163.7 25.5,-185.7 197.5,-185.7 197.5,-163.7 25.5,-163.7"/>
<polygon fill="none" stroke="#000000" points="25.5,-163.7 25.5,-185.7 197.5,-185.7 197.5,-163.7 25.5,-163.7"/>
<text text-anchor="start" x="45.5" y="-170.8" font-family="Helvetica,sans-Serif" font-size="11.00" fill="#000000">novation_reference</text>
<polygon fill="#ffffff" stroke="transparent" points="25.5,-141.7 25.5,-163.7 197.5,-163.7 197.5,-141.7 25.5,-141.7"/>
<polygon fill="none" stroke="#000000" points="25.5,-141.7 25.5,-163.7 197.5,-163.7 197.5,-141.7 25.5,-141.7"/>
<text text-anchor="start" x="45.5" y="-148.8" font-family="Helvetica,sans-Serif" font-size="11.00" fill="#000000">uti</text>
<polygon fill="#ffffff" stroke="transparent" points="25.5,-119.7 25.5,-141.7 197.5,-141.7 197.5,-119.7 25.5,-119.7"/>
<polygon fill="none" stroke="#000000" points="25.5,-119.7 25.5,-141.7 197.5,-141.7 197.5,-119.7 25.5,-119.7"/>
<text text-anchor="start" x="45.5" y="-126.8" font-family="Helvetica,sans-Serif" font-size="11.00" fill="#000000">usi</text>
<polygon fill="#ffffff" stroke="transparent" points="25.5,-97.7 25.5,-119.7 197.5,-119.7 197.5,-97.7 25.5,-97.7"/>
<polygon fill="none" stroke="#000000" points="25.5,-97.7 25.5,-119.7 197.5,-119.7 197.5,-97.7 25.5,-97.7"/>
<text text-anchor="start" x="45.5" y="-104.8" font-family="Helvetica,sans-Serif" font-size="11.00" fill="#000000">is_cleared</text>
<polygon fill="#ffffff" stroke="transparent" points="25.5,-75.7 25.5,-97.7 197.5,-97.7 197.5,-75.7 25.5,-75.7"/>
<polygon fill="none" stroke="#000000" points="25.5,-75.7 25.5,-97.7 197.5,-97.7 197.5,-75.7 25.5,-75.7"/>
<text text-anchor="start" x="45.5" y="-82.8" font-family="Helvetica,sans-Serif" font-size="11.00" fill="#000000">mark_to_market_value</text>
<polygon fill="none" stroke="#000000" points="25.5,-56.7 25.5,-75.7 197.5,-75.7 197.5,-56.7 25.5,-56.7"/>
<text text-anchor="start" x="28.5" y="-62.8" font-family="Helvetica,sans-Serif" font-size="11.00" fill="#000000">...</text>
<polygon fill="#ffffff" stroke="transparent" points="25.5,-37.7 25.5,-56.7 102.5,-56.7 102.5,-37.7 25.5,-37.7"/>
<polygon fill="none" stroke="#000000" points="25.5,-37.7 25.5,-56.7 102.5,-56.7 102.5,-37.7 25.5,-37.7"/>
<text text-anchor="start" x="28.5" y="-43.8" font-family="Helvetica,sans-Serif" font-size="11.00" fill="#000000">&lt; 2</text>
<polygon fill="#ffffff" stroke="transparent" points="102.5,-37.7 102.5,-56.7 142.5,-56.7 142.5,-37.7 102.5,-37.7"/>
<polygon fill="none" stroke="#000000" points="102.5,-37.7 102.5,-56.7 142.5,-56.7 142.5,-37.7 102.5,-37.7"/>
<text text-anchor="start" x="133.3862" y="-43.8" font-family="Helvetica,sans-Serif" font-size="11.00" fill="#000000"> &#160;</text>
<polygon fill="#ffffff" stroke="transparent" points="142.5,-37.7 142.5,-56.7 197.5,-56.7 197.5,-37.7 142.5,-37.7"/>
<polygon fill="none" stroke="#000000" points="142.5,-37.7 142.5,-56.7 197.5,-56.7 197.5,-37.7 142.5,-37.7"/>
<text text-anchor="start" x="172.7904" y="-43.8" font-family="Helvetica,sans-Serif" font-size="11.00" fill="#000000">13 &gt;</text>
</a>
</g>
</g>
<!-- compression_proposal_items&#45;&gt;cds_trades -->
<g id="edge2" class="edge">
<title>compression_proposal_items:w&#45;&gt;cds_trades:e</title>
<path fill="none" stroke="#000000" d="M252.113,-465.3281C225.8344,-450.8515 236.6714,-394.7 197.5,-394.7"/>
<polygon fill="#000000" stroke="#000000" points="258.7111,-466.8744 265.6785,-472.205 262.6055,-467.7872 266.5,-468.7 266.5,-468.7 266.5,-468.7 262.6055,-467.7872 267.3215,-465.195 258.7111,-466.8744 258.7111,-466.8744"/>
<ellipse fill="none" stroke="#000000" cx="255.5955" cy="-466.1442" rx="3.2" ry="3.2"/>
</g>
</g>
</svg>
