<?xml version="1.0" encoding="UTF-8" standalone="no"?>
<!DOCTYPE svg PUBLIC "-//W3C//DTD SVG 1.1//EN"
 "http://www.w3.org/Graphics/SVG/1.1/DTD/svg11.dtd">
<!-- Generated by graphviz version 2.40.1 (20161225.0304)
 -->
<!-- Title: oneDegreeRelationshipsDiagram Pages: 1 -->
<svg width="601pt" height="359pt"
 viewBox="0.00 0.00 601.00 358.70" xmlns="http://www.w3.org/2000/svg" xmlns:xlink="http://www.w3.org/1999/xlink">
<g id="graph0" class="graph" transform="scale(1 1) rotate(0) translate(4 354.7)">
<title>oneDegreeRelationshipsDiagram</title>
<polygon fill="#ffffff" stroke="transparent" points="-4,4 -4,-354.7 597,-354.7 597,4 -4,4"/>
<text text-anchor="middle" x="72.4936" y="-7.3" font-family="Helvetica,sans-Serif" font-size="11.00" fill="#000000">Generated by SchemaSpy</text>
<!-- compression_proposal_items -->
<g id="node1" class="node">
<title>compression_proposal_items</title>
<g id="a_node1"><a xlink:href="../../tables/compression_proposal_items.html" xlink:title="compression_proposal_items" target="_top">
<polygon fill="#ffffff" stroke="transparent" points="352,-219.7 352,-346.7 585,-346.7 585,-219.7 352,-219.7"/>
<polygon fill="#f5f5f5" stroke="transparent" points="352.5,-323.2 352.5,-346.2 585.5,-346.2 585.5,-323.2 352.5,-323.2"/>
<polygon fill="none" stroke="#000000" points="352.5,-323.2 352.5,-346.2 585.5,-346.2 585.5,-323.2 352.5,-323.2"/>
<text text-anchor="start" x="357.5" y="-331.8" font-family="Helvetica,sans-Serif" font-weight="bold" font-size="11.00" fill="#000000">compression_proposal_items</text>
<text text-anchor="start" x="551.0219" y="-331.3" font-family="Helvetica,sans-Serif" font-size="11.00" fill="#000000">[table]</text>
<polygon fill="none" stroke="#000000" points="352.5,-301.2 352.5,-323.2 585.5,-323.2 585.5,-301.2 352.5,-301.2"/>
<image xlink:href="../../images/primaryKeys.png" width="11px" height="12px" preserveAspectRatio="xMinYMin meet" x="357.5" y="-318.2"/>
<text text-anchor="start" x="381.5" y="-308.3" font-family="Helvetica,sans-Serif" font-size="11.00" fill="#000000">id</text>
<polygon fill="#ffffff" stroke="transparent" points="352.5,-279.2 352.5,-301.2 585.5,-301.2 585.5,-279.2 352.5,-279.2"/>
<polygon fill="none" stroke="#000000" points="352.5,-279.2 352.5,-301.2 585.5,-301.2 585.5,-279.2 352.5,-279.2"/>
<image xlink:href="../../images/foreignKeys.png" width="11px" height="12px" preserveAspectRatio="xMinYMin meet" x="357.5" y="-296.2"/>
<text text-anchor="start" x="381.5" y="-286.3" font-family="Helvetica,sans-Serif" font-size="11.00" fill="#000000">proposal_id</text>
<polygon fill="#ffffff" stroke="transparent" points="352.5,-257.2 352.5,-279.2 585.5,-279.2 585.5,-257.2 352.5,-257.2"/>
<polygon fill="none" stroke="#000000" points="352.5,-257.2 352.5,-279.2 585.5,-279.2 585.5,-257.2 352.5,-257.2"/>
<image xlink:href="../../images/foreignKeys.png" width="11px" height="12px" preserveAspectRatio="xMinYMin meet" x="357.5" y="-274.2"/>
<text text-anchor="start" x="381.5" y="-264.3" font-family="Helvetica,sans-Serif" font-size="11.00" fill="#000000">trade_id</text>
<polygon fill="none" stroke="#000000" points="352.5,-238.2 352.5,-257.2 585.5,-257.2 585.5,-238.2 352.5,-238.2"/>
<text text-anchor="start" x="355.5" y="-244.3" font-family="Helvetica,sans-Serif" font-size="11.00" fill="#000000">...</text>
<polygon fill="#ffffff" stroke="transparent" points="352.5,-219.2 352.5,-238.2 467.5,-238.2 467.5,-219.2 352.5,-219.2"/>
<polygon fill="none" stroke="#000000" points="352.5,-219.2 352.5,-238.2 467.5,-238.2 467.5,-219.2 352.5,-219.2"/>
<text text-anchor="start" x="355.5" y="-225.3" font-family="Helvetica,sans-Serif" font-size="11.00" fill="#000000">&lt; 2</text>
<polygon fill="#ffffff" stroke="transparent" points="467.5,-219.2 467.5,-238.2 526.5,-238.2 526.5,-219.2 467.5,-219.2"/>
<polygon fill="none" stroke="#000000" points="467.5,-219.2 467.5,-238.2 526.5,-238.2 526.5,-219.2 467.5,-219.2"/>
<text text-anchor="start" x="517.3862" y="-225.3" font-family="Helvetica,sans-Serif" font-size="11.00" fill="#000000"> &#160;</text>
<polygon fill="#ffffff" stroke="transparent" points="526.5,-219.2 526.5,-238.2 585.5,-238.2 585.5,-219.2 526.5,-219.2"/>
<polygon fill="none" stroke="#000000" points="526.5,-219.2 526.5,-238.2 585.5,-238.2 585.5,-219.2 526.5,-219.2"/>
<text text-anchor="start" x="576.3862" y="-225.3" font-family="Helvetica,sans-Serif" font-size="11.00" fill="#000000"> &#160;</text>
</a>
</g>
</g>
<!-- compression_proposals -->
<g id="node2" class="node">
<title>compression_proposals</title>
<g id="a_node2"><a xlink:href="../../tables/compression_proposals.html" xlink:title="compression_proposals" target="_top">
<polygon fill="#ffffff" stroke="transparent" points="8,-38.2 8,-326.2 303,-326.2 303,-38.2 8,-38.2"/>
<polygon fill="#f5f5f5" stroke="transparent" points="10.5,-301.2 10.5,-324.2 301.5,-324.2 301.5,-301.2 10.5,-301.2"/>
<polygon fill="none" stroke="#000000" points="10.5,-301.2 10.5,-324.2 301.5,-324.2 301.5,-301.2 10.5,-301.2"/>
<text text-anchor="start" x="15.5" y="-309.8" font-family="Helvetica,sans-Serif" font-weight="bold" font-size="11.00" fill="#000000">compression_proposals</text>
<text text-anchor="start" x="266.5437" y="-309.3" font-family="Helvetica,sans-Serif" font-size="11.00" fill="#000000">[table]</text>
<polygon fill="none" stroke="#000000" points="10.5,-279.2 10.5,-301.2 217.5,-301.2 217.5,-279.2 10.5,-279.2"/>
<image xlink:href="../../images/primaryKeys.png" width="11px" height="12px" preserveAspectRatio="xMinYMin meet" x="15.5" y="-296.2"/>
<text text-anchor="start" x="30.5" y="-286.3" font-family="Helvetica,sans-Serif" font-size="11.00" fill="#000000">id</text>
<polygon fill="none" stroke="#000000" points="217.5,-279.2 217.5,-301.2 301.5,-301.2 301.5,-279.2 217.5,-279.2"/>
<text text-anchor="start" x="220.5" y="-286.9" font-family="Helvetica,sans-Serif" font-size="11.00" fill="#000000">bigserial[19]</text>
<polygon fill="#ffffff" stroke="transparent" points="10.5,-257.2 10.5,-279.2 217.5,-279.2 217.5,-257.2 10.5,-257.2"/>
<polygon fill="none" stroke="#000000" points="10.5,-257.2 10.5,-279.2 217.5,-279.2 217.5,-257.2 10.5,-257.2"/>
<text text-anchor="start" x="30.5" y="-264.3" font-family="Helvetica,sans-Serif" font-size="11.00" fill="#000000">proposal_id</text>
<polygon fill="none" stroke="#000000" points="217.5,-257.2 217.5,-279.2 301.5,-279.2 301.5,-257.2 217.5,-257.2"/>
<text text-anchor="start" x="220.5" y="-264.9" font-family="Helvetica,sans-Serif" font-size="11.00" fill="#000000">varchar[50]</text>
<polygon fill="#ffffff" stroke="transparent" points="10.5,-235.2 10.5,-257.2 217.5,-257.2 217.5,-235.2 10.5,-235.2"/>
<polygon fill="none" stroke="#000000" points="10.5,-235.2 10.5,-257.2 217.5,-257.2 217.5,-235.2 10.5,-235.2"/>
<text text-anchor="start" x="30.5" y="-242.3" font-family="Helvetica,sans-Serif" font-size="11.00" fill="#000000">proposal_date</text>
<polygon fill="none" stroke="#000000" points="217.5,-235.2 217.5,-257.2 301.5,-257.2 301.5,-235.2 217.5,-235.2"/>
<text text-anchor="start" x="220.5" y="-242.9" font-family="Helvetica,sans-Serif" font-size="11.00" fill="#000000">date[13]</text>
<polygon fill="none" stroke="#000000" points="10.5,-213.2 10.5,-235.2 217.5,-235.2 217.5,-213.2 10.5,-213.2"/>
<text text-anchor="start" x="30.5" y="-220.3" font-family="Helvetica,sans-Serif" font-size="11.00" fill="#000000">execution_date</text>
<polygon fill="none" stroke="#000000" points="217.5,-213.2 217.5,-235.2 301.5,-235.2 301.5,-213.2 217.5,-213.2"/>
<text text-anchor="start" x="220.5" y="-220.9" font-family="Helvetica,sans-Serif" font-size="11.00" fill="#000000">date[13]</text>
<polygon fill="#ffffff" stroke="transparent" points="10.5,-191.2 10.5,-213.2 217.5,-213.2 217.5,-191.2 10.5,-191.2"/>
<polygon fill="none" stroke="#000000" points="10.5,-191.2 10.5,-213.2 217.5,-213.2 217.5,-191.2 10.5,-191.2"/>
<text text-anchor="start" x="30.5" y="-198.3" font-family="Helvetica,sans-Serif" font-size="11.00" fill="#000000">status</text>
<polygon fill="none" stroke="#000000" points="217.5,-191.2 217.5,-213.2 301.5,-213.2 301.5,-191.2 217.5,-191.2"/>
<text text-anchor="start" x="220.5" y="-198.9" font-family="Helvetica,sans-Serif" font-size="11.00" fill="#000000">varchar[20]</text>
<polygon fill="none" stroke="#000000" points="10.5,-169.2 10.5,-191.2 217.5,-191.2 217.5,-169.2 10.5,-169.2"/>
<text text-anchor="start" x="30.5" y="-176.3" font-family="Helvetica,sans-Serif" font-size="11.00" fill="#000000">cs01_tolerance_check</text>
<polygon fill="none" stroke="#000000" points="217.5,-169.2 217.5,-191.2 301.5,-191.2 301.5,-169.2 217.5,-169.2"/>
<text text-anchor="start" x="220.5" y="-176.9" font-family="Helvetica,sans-Serif" font-size="11.00" fill="#000000">bool[1]</text>
<polygon fill="none" stroke="#000000" points="10.5,-147.2 10.5,-169.2 217.5,-169.2 217.5,-147.2 10.5,-147.2"/>
<text text-anchor="start" x="30.5" y="-154.3" font-family="Helvetica,sans-Serif" font-size="11.00" fill="#000000">total_gross_notional_before</text>
<polygon fill="none" stroke="#000000" points="217.5,-147.2 217.5,-169.2 301.5,-169.2 301.5,-147.2 217.5,-147.2"/>
<text text-anchor="start" x="220.5" y="-154.9" font-family="Helvetica,sans-Serif" font-size="11.00" fill="#000000">numeric[18,2]</text>
<polygon fill="none" stroke="#000000" points="10.5,-125.2 10.5,-147.2 217.5,-147.2 217.5,-125.2 10.5,-125.2"/>
<text text-anchor="start" x="30.5" y="-132.3" font-family="Helvetica,sans-Serif" font-size="11.00" fill="#000000">total_gross_notional_after</text>
<polygon fill="none" stroke="#000000" points="217.5,-125.2 217.5,-147.2 301.5,-147.2 301.5,-125.2 217.5,-125.2"/>
<text text-anchor="start" x="220.5" y="-132.9" font-family="Helvetica,sans-Serif" font-size="11.00" fill="#000000">numeric[18,2]</text>
<polygon fill="none" stroke="#000000" points="10.5,-103.2 10.5,-125.2 217.5,-125.2 217.5,-103.2 10.5,-103.2"/>
<text text-anchor="start" x="30.5" y="-110.3" font-family="Helvetica,sans-Serif" font-size="11.00" fill="#000000">net_notional_reduction</text>
<polygon fill="none" stroke="#000000" points="217.5,-103.2 217.5,-125.2 301.5,-125.2 301.5,-103.2 217.5,-103.2"/>
<text text-anchor="start" x="220.5" y="-110.9" font-family="Helvetica,sans-Serif" font-size="11.00" fill="#000000">numeric[18,2]</text>
<polygon fill="none" stroke="#000000" points="10.5,-81.2 10.5,-103.2 217.5,-103.2 217.5,-81.2 10.5,-81.2"/>
<text text-anchor="start" x="30.5" y="-88.3" font-family="Helvetica,sans-Serif" font-size="11.00" fill="#000000">number_of_trades_affected</text>
<polygon fill="none" stroke="#000000" points="217.5,-81.2 217.5,-103.2 301.5,-103.2 301.5,-81.2 217.5,-81.2"/>
<text text-anchor="start" x="220.5" y="-88.9" font-family="Helvetica,sans-Serif" font-size="11.00" fill="#000000">int4[10]</text>
<polygon fill="none" stroke="#000000" points="10.5,-59.2 10.5,-81.2 217.5,-81.2 217.5,-59.2 10.5,-59.2"/>
<text text-anchor="start" x="30.5" y="-66.3" font-family="Helvetica,sans-Serif" font-size="11.00" fill="#000000">created_at</text>
<polygon fill="none" stroke="#000000" points="217.5,-59.2 217.5,-81.2 301.5,-81.2 301.5,-59.2 217.5,-59.2"/>
<text text-anchor="start" x="220.3807" y="-66.9" font-family="Helvetica,sans-Serif" font-size="11.00" fill="#000000">timestamp[29,6]</text>
<polygon fill="#ffffff" stroke="transparent" points="10.5,-40.2 10.5,-59.2 118.5,-59.2 118.5,-40.2 10.5,-40.2"/>
<polygon fill="none" stroke="#000000" points="10.5,-40.2 10.5,-59.2 118.5,-59.2 118.5,-40.2 10.5,-40.2"/>
<text text-anchor="start" x="13.5" y="-46.3" font-family="Helvetica,sans-Serif" font-size="11.00" fill="#000000">&lt; 0</text>
<polygon fill="#ffffff" stroke="transparent" points="118.5,-40.2 118.5,-59.2 217.5,-59.2 217.5,-40.2 118.5,-40.2"/>
<polygon fill="none" stroke="#000000" points="118.5,-40.2 118.5,-59.2 217.5,-59.2 217.5,-40.2 118.5,-40.2"/>
<text text-anchor="start" x="208.3862" y="-46.3" font-family="Helvetica,sans-Serif" font-size="11.00" fill="#000000"> &#160;</text>
<polygon fill="#ffffff" stroke="transparent" points="217.5,-40.2 217.5,-59.2 301.5,-59.2 301.5,-40.2 217.5,-40.2"/>
<polygon fill="none" stroke="#000000" points="217.5,-40.2 217.5,-59.2 301.5,-59.2 301.5,-40.2 217.5,-40.2"/>
<text text-anchor="start" x="282.9053" y="-46.3" font-family="Helvetica,sans-Serif" font-size="11.00" fill="#000000">1 &gt;</text>
<polygon fill="none" stroke="#000000" stroke-width="2" points="9,-39.2 9,-325.2 302,-325.2 302,-39.2 9,-39.2"/>
</a>
</g>
</g>
<!-- compression_proposal_items&#45;&gt;compression_proposals -->
<g id="edge1" class="edge">
<title>compression_proposal_items:w&#45;&gt;compression_proposals:e</title>
<path fill="none" stroke="#000000" d="M337.776,-290.2C325.7815,-290.2 318.3229,-290.2 301.5,-290.2"/>
<polygon fill="#000000" stroke="#000000" points="344.5,-290.2001 352.5,-293.8 348.5,-290.2 352.5,-290.2 352.5,-290.2 352.5,-290.2 348.5,-290.2 352.5,-286.6 344.5,-290.2001 344.5,-290.2001"/>
<ellipse fill="none" stroke="#000000" cx="341.3" cy="-290.2001" rx="3.2" ry="3.2"/>
</g>
</g>
</svg>
