<?xml version="1.0" encoding="UTF-8" standalone="no"?>
<!DOCTYPE svg PUBLIC "-//W3C//DTD SVG 1.1//EN"
 "http://www.w3.org/Graphics/SVG/1.1/DTD/svg11.dtd">
<!-- Generated by graphviz version 2.40.1 (20161225.0304)
 -->
<!-- Title: oneDegreeRelationshipsDiagram Pages: 1 -->
<svg width="723pt" height="485pt"
 viewBox="0.00 0.00 723.00 485.20" xmlns="http://www.w3.org/2000/svg" xmlns:xlink="http://www.w3.org/1999/xlink">
<g id="graph0" class="graph" transform="scale(1 1) rotate(0) translate(4 481.2)">
<title>oneDegreeRelationshipsDiagram</title>
<polygon fill="#ffffff" stroke="transparent" points="-4,4 -4,-481.2 719,-481.2 719,4 -4,4"/>
<text text-anchor="middle" x="72.4936" y="-7.3" font-family="Helvetica,sans-Serif" font-size="11.00" fill="#000000">Generated by SchemaSpy</text>
<!-- accrual_events -->
<g id="node1" class="node">
<title>accrual_events</title>
<g id="a_node1"><a xlink:href="../../tables/accrual_events.html" xlink:title="accrual_events" target="_top">
<polygon fill="#ffffff" stroke="transparent" points="557,-302.2 557,-473.2 707,-473.2 707,-302.2 557,-302.2"/>
<polygon fill="#f5f5f5" stroke="transparent" points="557,-449.7 557,-472.7 707,-472.7 707,-449.7 557,-449.7"/>
<polygon fill="none" stroke="#000000" points="557,-449.7 557,-472.7 707,-472.7 707,-449.7 557,-449.7"/>
<text text-anchor="start" x="562" y="-458.3" font-family="Helvetica,sans-Serif" font-weight="bold" font-size="11.00" fill="#000000">accrual_events</text>
<text text-anchor="start" x="672.0437" y="-457.8" font-family="Helvetica,sans-Serif" font-size="11.00" fill="#000000">[table]</text>
<polygon fill="none" stroke="#000000" points="557,-427.7 557,-449.7 707,-449.7 707,-427.7 557,-427.7"/>
<image xlink:href="../../images/primaryKeys.png" width="11px" height="12px" preserveAspectRatio="xMinYMin meet" x="562" y="-444.7"/>
<text text-anchor="start" x="577" y="-434.8" font-family="Helvetica,sans-Serif" font-size="11.00" fill="#000000">id</text>
<polygon fill="#ffffff" stroke="transparent" points="557,-405.7 557,-427.7 707,-427.7 707,-405.7 557,-405.7"/>
<polygon fill="none" stroke="#000000" points="557,-405.7 557,-427.7 707,-427.7 707,-405.7 557,-405.7"/>
<image xlink:href="../../images/foreignKeys.png" width="11px" height="12px" preserveAspectRatio="xMinYMin meet" x="562" y="-422.7"/>
<text text-anchor="start" x="577" y="-412.8" font-family="Helvetica,sans-Serif" font-size="11.00" fill="#000000">trade_id</text>
<polygon fill="none" stroke="#000000" points="557,-383.7 557,-405.7 707,-405.7 707,-383.7 557,-383.7"/>
<image xlink:href="../../images/foreignKeys.png" width="11px" height="12px" preserveAspectRatio="xMinYMin meet" x="562" y="-400.7"/>
<text text-anchor="start" x="577" y="-390.8" font-family="Helvetica,sans-Serif" font-size="11.00" fill="#000000">coupon_period_id</text>
<polygon fill="#ffffff" stroke="transparent" points="557,-361.7 557,-383.7 707,-383.7 707,-361.7 557,-361.7"/>
<polygon fill="none" stroke="#000000" points="557,-361.7 557,-383.7 707,-383.7 707,-361.7 557,-361.7"/>
<text text-anchor="start" x="577" y="-368.8" font-family="Helvetica,sans-Serif" font-size="11.00" fill="#000000">accrual_date</text>
<polygon fill="#ffffff" stroke="transparent" points="557,-339.7 557,-361.7 707,-361.7 707,-339.7 557,-339.7"/>
<polygon fill="none" stroke="#000000" points="557,-339.7 557,-361.7 707,-361.7 707,-339.7 557,-339.7"/>
<text text-anchor="start" x="577" y="-346.8" font-family="Helvetica,sans-Serif" font-size="11.00" fill="#000000">trade_version</text>
<polygon fill="none" stroke="#000000" points="557,-320.7 557,-339.7 707,-339.7 707,-320.7 557,-320.7"/>
<text text-anchor="start" x="560" y="-326.8" font-family="Helvetica,sans-Serif" font-size="11.00" fill="#000000">...</text>
<polygon fill="#ffffff" stroke="transparent" points="557,-301.7 557,-320.7 630,-320.7 630,-301.7 557,-301.7"/>
<polygon fill="none" stroke="#000000" points="557,-301.7 557,-320.7 630,-320.7 630,-301.7 557,-301.7"/>
<text text-anchor="start" x="560" y="-307.8" font-family="Helvetica,sans-Serif" font-size="11.00" fill="#000000">&lt; 2</text>
<polygon fill="#ffffff" stroke="transparent" points="630,-301.7 630,-320.7 668,-320.7 668,-301.7 630,-301.7"/>
<polygon fill="none" stroke="#000000" points="630,-301.7 630,-320.7 668,-320.7 668,-301.7 630,-301.7"/>
<text text-anchor="start" x="658.8862" y="-307.8" font-family="Helvetica,sans-Serif" font-size="11.00" fill="#000000"> &#160;</text>
<polygon fill="#ffffff" stroke="transparent" points="668,-301.7 668,-320.7 707,-320.7 707,-301.7 668,-301.7"/>
<polygon fill="none" stroke="#000000" points="668,-301.7 668,-320.7 707,-320.7 707,-301.7 668,-301.7"/>
<text text-anchor="start" x="697.8862" y="-307.8" font-family="Helvetica,sans-Serif" font-size="11.00" fill="#000000"> &#160;</text>
</a>
</g>
</g>
<!-- coupon_periods -->
<g id="node2" class="node">
<title>coupon_periods</title>
<g id="a_node2"><a xlink:href="../../tables/coupon_periods.html" xlink:title="coupon_periods" target="_top">
<polygon fill="#ffffff" stroke="transparent" points="229,-101.7 229,-411.7 508,-411.7 508,-101.7 229,-101.7"/>
<polygon fill="#f5f5f5" stroke="transparent" points="231.5,-386.7 231.5,-409.7 506.5,-409.7 506.5,-386.7 231.5,-386.7"/>
<polygon fill="none" stroke="#000000" points="231.5,-386.7 231.5,-409.7 506.5,-409.7 506.5,-386.7 231.5,-386.7"/>
<text text-anchor="start" x="236.5" y="-395.3" font-family="Helvetica,sans-Serif" font-weight="bold" font-size="11.00" fill="#000000">coupon_periods</text>
<text text-anchor="start" x="471.5437" y="-394.8" font-family="Helvetica,sans-Serif" font-size="11.00" fill="#000000">[table]</text>
<polygon fill="none" stroke="#000000" points="231.5,-364.7 231.5,-386.7 422.5,-386.7 422.5,-364.7 231.5,-364.7"/>
<image xlink:href="../../images/primaryKeys.png" width="11px" height="12px" preserveAspectRatio="xMinYMin meet" x="236.5" y="-381.7"/>
<text text-anchor="start" x="251.5" y="-371.8" font-family="Helvetica,sans-Serif" font-size="11.00" fill="#000000">id</text>
<polygon fill="none" stroke="#000000" points="422.5,-364.7 422.5,-386.7 506.5,-386.7 506.5,-364.7 422.5,-364.7"/>
<text text-anchor="start" x="425.5" y="-372.4" font-family="Helvetica,sans-Serif" font-size="11.00" fill="#000000">bigserial[19]</text>
<polygon fill="#ffffff" stroke="transparent" points="231.5,-342.7 231.5,-364.7 422.5,-364.7 422.5,-342.7 231.5,-342.7"/>
<polygon fill="none" stroke="#000000" points="231.5,-342.7 231.5,-364.7 422.5,-364.7 422.5,-342.7 231.5,-342.7"/>
<image xlink:href="../../images/foreignKeys.png" width="11px" height="12px" preserveAspectRatio="xMinYMin meet" x="236.5" y="-359.7"/>
<text text-anchor="start" x="251.5" y="-349.8" font-family="Helvetica,sans-Serif" font-size="11.00" fill="#000000">trade_id</text>
<polygon fill="none" stroke="#000000" points="422.5,-342.7 422.5,-364.7 506.5,-364.7 506.5,-342.7 422.5,-342.7"/>
<text text-anchor="start" x="425.5" y="-350.4" font-family="Helvetica,sans-Serif" font-size="11.00" fill="#000000">int8[19]</text>
<polygon fill="#ffffff" stroke="transparent" points="231.5,-320.7 231.5,-342.7 422.5,-342.7 422.5,-320.7 231.5,-320.7"/>
<polygon fill="none" stroke="#000000" points="231.5,-320.7 231.5,-342.7 422.5,-342.7 422.5,-320.7 231.5,-320.7"/>
<text text-anchor="start" x="251.5" y="-327.8" font-family="Helvetica,sans-Serif" font-size="11.00" fill="#000000">period_start_date</text>
<polygon fill="none" stroke="#000000" points="422.5,-320.7 422.5,-342.7 506.5,-342.7 506.5,-320.7 422.5,-320.7"/>
<text text-anchor="start" x="425.5" y="-328.4" font-family="Helvetica,sans-Serif" font-size="11.00" fill="#000000">date[13]</text>
<polygon fill="none" stroke="#000000" points="231.5,-298.7 231.5,-320.7 422.5,-320.7 422.5,-298.7 231.5,-298.7"/>
<text text-anchor="start" x="251.5" y="-305.8" font-family="Helvetica,sans-Serif" font-size="11.00" fill="#000000">period_end_date</text>
<polygon fill="none" stroke="#000000" points="422.5,-298.7 422.5,-320.7 506.5,-320.7 506.5,-298.7 422.5,-298.7"/>
<text text-anchor="start" x="425.5" y="-306.4" font-family="Helvetica,sans-Serif" font-size="11.00" fill="#000000">date[13]</text>
<polygon fill="#ffffff" stroke="transparent" points="231.5,-276.7 231.5,-298.7 422.5,-298.7 422.5,-276.7 231.5,-276.7"/>
<polygon fill="none" stroke="#000000" points="231.5,-276.7 231.5,-298.7 422.5,-298.7 422.5,-276.7 231.5,-276.7"/>
<text text-anchor="start" x="251.5" y="-283.8" font-family="Helvetica,sans-Serif" font-size="11.00" fill="#000000">payment_date</text>
<polygon fill="none" stroke="#000000" points="422.5,-276.7 422.5,-298.7 506.5,-298.7 506.5,-276.7 422.5,-276.7"/>
<text text-anchor="start" x="425.5" y="-284.4" font-family="Helvetica,sans-Serif" font-size="11.00" fill="#000000">date[13]</text>
<polygon fill="none" stroke="#000000" points="231.5,-254.7 231.5,-276.7 422.5,-276.7 422.5,-254.7 231.5,-254.7"/>
<text text-anchor="start" x="251.5" y="-261.8" font-family="Helvetica,sans-Serif" font-size="11.00" fill="#000000">accrual_days</text>
<polygon fill="none" stroke="#000000" points="422.5,-254.7 422.5,-276.7 506.5,-276.7 506.5,-254.7 422.5,-254.7"/>
<text text-anchor="start" x="425.5" y="-262.4" font-family="Helvetica,sans-Serif" font-size="11.00" fill="#000000">int4[10]</text>
<polygon fill="none" stroke="#000000" points="231.5,-232.7 231.5,-254.7 422.5,-254.7 422.5,-232.7 231.5,-232.7"/>
<text text-anchor="start" x="251.5" y="-239.8" font-family="Helvetica,sans-Serif" font-size="11.00" fill="#000000">notional_amount</text>
<polygon fill="none" stroke="#000000" points="422.5,-232.7 422.5,-254.7 506.5,-254.7 506.5,-232.7 422.5,-232.7"/>
<text text-anchor="start" x="425.5" y="-240.4" font-family="Helvetica,sans-Serif" font-size="11.00" fill="#000000">numeric[15,2]</text>
<polygon fill="none" stroke="#000000" points="231.5,-210.7 231.5,-232.7 422.5,-232.7 422.5,-210.7 231.5,-210.7"/>
<text text-anchor="start" x="251.5" y="-217.8" font-family="Helvetica,sans-Serif" font-size="11.00" fill="#000000">day_count_convention</text>
<polygon fill="none" stroke="#000000" points="422.5,-210.7 422.5,-232.7 506.5,-232.7 506.5,-210.7 422.5,-210.7"/>
<text text-anchor="start" x="425.5" y="-218.4" font-family="Helvetica,sans-Serif" font-size="11.00" fill="#000000">varchar[20]</text>
<polygon fill="none" stroke="#000000" points="231.5,-188.7 231.5,-210.7 422.5,-210.7 422.5,-188.7 231.5,-188.7"/>
<text text-anchor="start" x="251.5" y="-195.8" font-family="Helvetica,sans-Serif" font-size="11.00" fill="#000000">business_day_convention</text>
<polygon fill="none" stroke="#000000" points="422.5,-188.7 422.5,-210.7 506.5,-210.7 506.5,-188.7 422.5,-188.7"/>
<text text-anchor="start" x="425.5" y="-196.4" font-family="Helvetica,sans-Serif" font-size="11.00" fill="#000000">varchar[20]</text>
<polygon fill="none" stroke="#000000" points="231.5,-166.7 231.5,-188.7 422.5,-188.7 422.5,-166.7 231.5,-166.7"/>
<text text-anchor="start" x="251.5" y="-173.8" font-family="Helvetica,sans-Serif" font-size="11.00" fill="#000000">created_at</text>
<polygon fill="none" stroke="#000000" points="422.5,-166.7 422.5,-188.7 506.5,-188.7 506.5,-166.7 422.5,-166.7"/>
<text text-anchor="start" x="425.3807" y="-174.4" font-family="Helvetica,sans-Serif" font-size="11.00" fill="#000000">timestamp[29,6]</text>
<polygon fill="#ffffff" stroke="transparent" points="231.5,-144.7 231.5,-166.7 422.5,-166.7 422.5,-144.7 231.5,-144.7"/>
<polygon fill="none" stroke="#000000" points="231.5,-144.7 231.5,-166.7 422.5,-166.7 422.5,-144.7 231.5,-144.7"/>
<text text-anchor="start" x="251.5" y="-151.8" font-family="Helvetica,sans-Serif" font-size="11.00" fill="#000000">paid</text>
<polygon fill="none" stroke="#000000" points="422.5,-144.7 422.5,-166.7 506.5,-166.7 506.5,-144.7 422.5,-144.7"/>
<text text-anchor="start" x="425.5" y="-152.4" font-family="Helvetica,sans-Serif" font-size="11.00" fill="#000000">bool[1]</text>
<polygon fill="none" stroke="#000000" points="231.5,-122.7 231.5,-144.7 422.5,-144.7 422.5,-122.7 231.5,-122.7"/>
<text text-anchor="start" x="251.5" y="-129.8" font-family="Helvetica,sans-Serif" font-size="11.00" fill="#000000">paid_at</text>
<polygon fill="none" stroke="#000000" points="422.5,-122.7 422.5,-144.7 506.5,-144.7 506.5,-122.7 422.5,-122.7"/>
<text text-anchor="start" x="425.3807" y="-130.4" font-family="Helvetica,sans-Serif" font-size="11.00" fill="#000000">timestamp[29,6]</text>
<polygon fill="#ffffff" stroke="transparent" points="231.5,-103.7 231.5,-122.7 331.5,-122.7 331.5,-103.7 231.5,-103.7"/>
<polygon fill="none" stroke="#000000" points="231.5,-103.7 231.5,-122.7 331.5,-122.7 331.5,-103.7 231.5,-103.7"/>
<text text-anchor="start" x="234.5" y="-109.8" font-family="Helvetica,sans-Serif" font-size="11.00" fill="#000000">&lt; 1</text>
<polygon fill="#ffffff" stroke="transparent" points="331.5,-103.7 331.5,-122.7 422.5,-122.7 422.5,-103.7 331.5,-103.7"/>
<polygon fill="none" stroke="#000000" points="331.5,-103.7 331.5,-122.7 422.5,-122.7 422.5,-103.7 331.5,-103.7"/>
<text text-anchor="start" x="413.3862" y="-109.8" font-family="Helvetica,sans-Serif" font-size="11.00" fill="#000000"> &#160;</text>
<polygon fill="#ffffff" stroke="transparent" points="422.5,-103.7 422.5,-122.7 506.5,-122.7 506.5,-103.7 422.5,-103.7"/>
<polygon fill="none" stroke="#000000" points="422.5,-103.7 422.5,-122.7 506.5,-122.7 506.5,-103.7 422.5,-103.7"/>
<text text-anchor="start" x="487.9053" y="-109.8" font-family="Helvetica,sans-Serif" font-size="11.00" fill="#000000">1 &gt;</text>
<polygon fill="none" stroke="#000000" stroke-width="2" points="230,-102.7 230,-410.7 507,-410.7 507,-102.7 230,-102.7"/>
</a>
</g>
</g>
<!-- accrual_events&#45;&gt;coupon_periods -->
<g id="edge1" class="edge">
<title>accrual_events:w&#45;&gt;coupon_periods:e</title>
<path fill="none" stroke="#000000" d="M542.7405,-391.8965C530.532,-386.6113 524.6727,-375.7 506.5,-375.7"/>
<polygon fill="#000000" stroke="#000000" points="549.1503,-393.1567 556.3055,-398.2324 553.0751,-393.9283 557,-394.7 557,-394.7 557,-394.7 553.0751,-393.9283 557.6945,-391.1676 549.1503,-393.1567 549.1503,-393.1567"/>
<ellipse fill="none" stroke="#000000" cx="546.0104" cy="-392.5393" rx="3.2" ry="3.2"/>
</g>
<!-- cds_trades -->
<g id="node3" class="node">
<title>cds_trades</title>
<g id="a_node3"><a xlink:href="../../tables/cds_trades.html" xlink:title="cds_trades" target="_top">
<polygon fill="#ffffff" stroke="transparent" points="8,-38.2 8,-429.2 180,-429.2 180,-38.2 8,-38.2"/>
<polygon fill="#f5f5f5" stroke="transparent" points="8,-405.7 8,-428.7 180,-428.7 180,-405.7 8,-405.7"/>
<polygon fill="none" stroke="#000000" points="8,-405.7 8,-428.7 180,-428.7 180,-405.7 8,-405.7"/>
<text text-anchor="start" x="13" y="-414.3" font-family="Helvetica,sans-Serif" font-weight="bold" font-size="11.00" fill="#000000">cds_trades</text>
<text text-anchor="start" x="145.0437" y="-413.8" font-family="Helvetica,sans-Serif" font-size="11.00" fill="#000000">[table]</text>
<polygon fill="none" stroke="#000000" points="8,-383.7 8,-405.7 180,-405.7 180,-383.7 8,-383.7"/>
<image xlink:href="../../images/primaryKeys.png" width="11px" height="12px" preserveAspectRatio="xMinYMin meet" x="13" y="-400.7"/>
<text text-anchor="start" x="28" y="-390.8" font-family="Helvetica,sans-Serif" font-size="11.00" fill="#000000">id</text>
<polygon fill="#ffffff" stroke="transparent" points="8,-361.7 8,-383.7 180,-383.7 180,-361.7 8,-361.7"/>
<polygon fill="none" stroke="#000000" points="8,-361.7 8,-383.7 180,-383.7 180,-361.7 8,-361.7"/>
<text text-anchor="start" x="28" y="-368.8" font-family="Helvetica,sans-Serif" font-size="11.00" fill="#000000">reference_entity</text>
<polygon fill="#ffffff" stroke="transparent" points="8,-339.7 8,-361.7 180,-361.7 180,-339.7 8,-339.7"/>
<polygon fill="none" stroke="#000000" points="8,-339.7 8,-361.7 180,-361.7 180,-339.7 8,-339.7"/>
<text text-anchor="start" x="28" y="-346.8" font-family="Helvetica,sans-Serif" font-size="11.00" fill="#000000">counterparty</text>
<polygon fill="#ffffff" stroke="transparent" points="8,-317.7 8,-339.7 180,-339.7 180,-317.7 8,-317.7"/>
<polygon fill="none" stroke="#000000" points="8,-317.7 8,-339.7 180,-339.7 180,-317.7 8,-317.7"/>
<text text-anchor="start" x="28" y="-324.8" font-family="Helvetica,sans-Serif" font-size="11.00" fill="#000000">trade_date</text>
<polygon fill="#ffffff" stroke="transparent" points="8,-295.7 8,-317.7 180,-317.7 180,-295.7 8,-295.7"/>
<polygon fill="none" stroke="#000000" points="8,-295.7 8,-317.7 180,-317.7 180,-295.7 8,-295.7"/>
<text text-anchor="start" x="28" y="-302.8" font-family="Helvetica,sans-Serif" font-size="11.00" fill="#000000">created_at</text>
<polygon fill="#ffffff" stroke="transparent" points="8,-273.7 8,-295.7 180,-295.7 180,-273.7 8,-273.7"/>
<polygon fill="none" stroke="#000000" points="8,-273.7 8,-295.7 180,-295.7 180,-273.7 8,-273.7"/>
<image xlink:href="../../images/foreignKeys.png" width="11px" height="12px" preserveAspectRatio="xMinYMin meet" x="13" y="-290.7"/>
<text text-anchor="start" x="28" y="-280.8" font-family="Helvetica,sans-Serif" font-size="11.00" fill="#000000">obligation_id</text>
<polygon fill="#ffffff" stroke="transparent" points="8,-251.7 8,-273.7 180,-273.7 180,-251.7 8,-251.7"/>
<polygon fill="none" stroke="#000000" points="8,-251.7 8,-273.7 180,-273.7 180,-251.7 8,-251.7"/>
<text text-anchor="start" x="28" y="-258.8" font-family="Helvetica,sans-Serif" font-size="11.00" fill="#000000">settlement_type</text>
<polygon fill="#ffffff" stroke="transparent" points="8,-229.7 8,-251.7 180,-251.7 180,-229.7 8,-229.7"/>
<polygon fill="none" stroke="#000000" points="8,-229.7 8,-251.7 180,-251.7 180,-229.7 8,-229.7"/>
<text text-anchor="start" x="28" y="-236.8" font-family="Helvetica,sans-Serif" font-size="11.00" fill="#000000">ccp_name</text>
<polygon fill="#ffffff" stroke="transparent" points="8,-207.7 8,-229.7 180,-229.7 180,-207.7 8,-207.7"/>
<polygon fill="none" stroke="#000000" points="8,-207.7 8,-229.7 180,-229.7 180,-207.7 8,-207.7"/>
<image xlink:href="../../images/foreignKeys.png" width="11px" height="12px" preserveAspectRatio="xMinYMin meet" x="13" y="-224.7"/>
<text text-anchor="start" x="28" y="-214.8" font-family="Helvetica,sans-Serif" font-size="11.00" fill="#000000">original_trade_id</text>
<polygon fill="#ffffff" stroke="transparent" points="8,-185.7 8,-207.7 180,-207.7 180,-185.7 8,-185.7"/>
<polygon fill="none" stroke="#000000" points="8,-185.7 8,-207.7 180,-207.7 180,-185.7 8,-185.7"/>
<text text-anchor="start" x="28" y="-192.8" font-family="Helvetica,sans-Serif" font-size="11.00" fill="#000000">novation_timestamp</text>
<polygon fill="#ffffff" stroke="transparent" points="8,-163.7 8,-185.7 180,-185.7 180,-163.7 8,-163.7"/>
<polygon fill="none" stroke="#000000" points="8,-163.7 8,-185.7 180,-185.7 180,-163.7 8,-163.7"/>
<text text-anchor="start" x="28" y="-170.8" font-family="Helvetica,sans-Serif" font-size="11.00" fill="#000000">novation_reference</text>
<polygon fill="#ffffff" stroke="transparent" points="8,-141.7 8,-163.7 180,-163.7 180,-141.7 8,-141.7"/>
<polygon fill="none" stroke="#000000" points="8,-141.7 8,-163.7 180,-163.7 180,-141.7 8,-141.7"/>
<text text-anchor="start" x="28" y="-148.8" font-family="Helvetica,sans-Serif" font-size="11.00" fill="#000000">uti</text>
<polygon fill="#ffffff" stroke="transparent" points="8,-119.7 8,-141.7 180,-141.7 180,-119.7 8,-119.7"/>
<polygon fill="none" stroke="#000000" points="8,-119.7 8,-141.7 180,-141.7 180,-119.7 8,-119.7"/>
<text text-anchor="start" x="28" y="-126.8" font-family="Helvetica,sans-Serif" font-size="11.00" fill="#000000">usi</text>
<polygon fill="#ffffff" stroke="transparent" points="8,-97.7 8,-119.7 180,-119.7 180,-97.7 8,-97.7"/>
<polygon fill="none" stroke="#000000" points="8,-97.7 8,-119.7 180,-119.7 180,-97.7 8,-97.7"/>
<text text-anchor="start" x="28" y="-104.8" font-family="Helvetica,sans-Serif" font-size="11.00" fill="#000000">is_cleared</text>
<polygon fill="#ffffff" stroke="transparent" points="8,-75.7 8,-97.7 180,-97.7 180,-75.7 8,-75.7"/>
<polygon fill="none" stroke="#000000" points="8,-75.7 8,-97.7 180,-97.7 180,-75.7 8,-75.7"/>
<text text-anchor="start" x="28" y="-82.8" font-family="Helvetica,sans-Serif" font-size="11.00" fill="#000000">mark_to_market_value</text>
<polygon fill="none" stroke="#000000" points="8,-56.7 8,-75.7 180,-75.7 180,-56.7 8,-56.7"/>
<text text-anchor="start" x="11" y="-62.8" font-family="Helvetica,sans-Serif" font-size="11.00" fill="#000000">...</text>
<polygon fill="#ffffff" stroke="transparent" points="8,-37.7 8,-56.7 85,-56.7 85,-37.7 8,-37.7"/>
<polygon fill="none" stroke="#000000" points="8,-37.7 8,-56.7 85,-56.7 85,-37.7 8,-37.7"/>
<text text-anchor="start" x="11" y="-43.8" font-family="Helvetica,sans-Serif" font-size="11.00" fill="#000000">&lt; 2</text>
<polygon fill="#ffffff" stroke="transparent" points="85,-37.7 85,-56.7 125,-56.7 125,-37.7 85,-37.7"/>
<polygon fill="none" stroke="#000000" points="85,-37.7 85,-56.7 125,-56.7 125,-37.7 85,-37.7"/>
<text text-anchor="start" x="115.8862" y="-43.8" font-family="Helvetica,sans-Serif" font-size="11.00" fill="#000000"> &#160;</text>
<polygon fill="#ffffff" stroke="transparent" points="125,-37.7 125,-56.7 180,-56.7 180,-37.7 125,-37.7"/>
<polygon fill="none" stroke="#000000" points="125,-37.7 125,-56.7 180,-56.7 180,-37.7 125,-37.7"/>
<text text-anchor="start" x="155.2904" y="-43.8" font-family="Helvetica,sans-Serif" font-size="11.00" fill="#000000">13 &gt;</text>
</a>
</g>
</g>
<!-- accrual_events&#45;&gt;cds_trades -->
<g id="edge2" class="edge">
<title>accrual_events:w&#45;&gt;cds_trades:e</title>
<path fill="none" stroke="#000000" d="M542.4565,-417.9239C534.2933,-419.4021 528.3408,-421.8018 516,-422.7 385.2348,-432.2175 346.2712,-461.3943 221,-422.7 199.9167,-416.1877 202.0661,-394.7 180,-394.7"/>
<polygon fill="#000000" stroke="#000000" points="549.0282,-417.3709 557.3019,-420.2873 553.0141,-417.0355 557,-416.7 557,-416.7 557,-416.7 553.0141,-417.0355 556.6981,-413.1127 549.0282,-417.3709 549.0282,-417.3709"/>
<ellipse fill="none" stroke="#000000" cx="545.8395" cy="-417.6393" rx="3.2" ry="3.2"/>
</g>
<!-- coupon_periods&#45;&gt;cds_trades -->
<g id="edge3" class="edge">
<title>coupon_periods:w&#45;&gt;cds_trades:e</title>
<path fill="none" stroke="#000000" d="M217.5533,-358.0877C203.596,-368.6646 203.3139,-394.7 180,-394.7"/>
<polygon fill="#000000" stroke="#000000" points="223.8687,-356.1009 232.5804,-357.1341 227.6844,-354.9004 231.5,-353.7 231.5,-353.7 231.5,-353.7 227.6844,-354.9004 230.4196,-350.2659 223.8687,-356.1009 223.8687,-356.1009"/>
<ellipse fill="none" stroke="#000000" cx="220.8162" cy="-357.0612" rx="3.2" ry="3.2"/>
</g>
</g>
</svg>
