<?xml version="1.0" encoding="UTF-8" standalone="no"?>
<!DOCTYPE svg PUBLIC "-//W3C//DTD SVG 1.1//EN"
 "http://www.w3.org/Graphics/SVG/1.1/DTD/svg11.dtd">
<!-- Generated by graphviz version 2.40.1 (20161225.0304)
 -->
<!-- Title: twoDegreesRelationshipsDiagram Pages: 1 -->
<svg width="931pt" height="1017pt"
 viewBox="0.00 0.00 931.00 1016.70" xmlns="http://www.w3.org/2000/svg" xmlns:xlink="http://www.w3.org/1999/xlink">
<g id="graph0" class="graph" transform="scale(1 1) rotate(0) translate(4 1012.7)">
<title>twoDegreesRelationshipsDiagram</title>
<polygon fill="#ffffff" stroke="transparent" points="-4,4 -4,-1012.7 927,-1012.7 927,4 -4,4"/>
<text text-anchor="middle" x="72.4936" y="-7.3" font-family="Helvetica,sans-Serif" font-size="11.00" fill="#000000">Generated by SchemaSpy</text>
<!-- accrual_events -->
<g id="node1" class="node">
<title>accrual_events</title>
<g id="a_node1"><a xlink:href="../../tables/accrual_events.html" xlink:title="accrual_events" target="_top">
<polygon fill="#ffffff" stroke="transparent" points="700.5,-814.2 700.5,-875.2 839.5,-875.2 839.5,-814.2 700.5,-814.2"/>
<polygon fill="#f5f5f5" stroke="transparent" points="701,-851.7 701,-874.7 840,-874.7 840,-851.7 701,-851.7"/>
<polygon fill="none" stroke="#000000" points="701,-851.7 701,-874.7 840,-874.7 840,-851.7 701,-851.7"/>
<text text-anchor="start" x="706" y="-860.3" font-family="Helvetica,sans-Serif" font-weight="bold" font-size="11.00" fill="#000000">accrual_events</text>
<text text-anchor="start" x="805.5219" y="-859.8" font-family="Helvetica,sans-Serif" font-size="11.00" fill="#000000">[table]</text>
<polygon fill="none" stroke="#000000" points="701,-832.7 701,-851.7 840,-851.7 840,-832.7 701,-832.7"/>
<text text-anchor="start" x="704" y="-838.8" font-family="Helvetica,sans-Serif" font-size="11.00" fill="#000000">...</text>
<polygon fill="#ffffff" stroke="transparent" points="701,-813.7 701,-832.7 769,-832.7 769,-813.7 701,-813.7"/>
<polygon fill="none" stroke="#000000" points="701,-813.7 701,-832.7 769,-832.7 769,-813.7 701,-813.7"/>
<text text-anchor="start" x="704" y="-819.8" font-family="Helvetica,sans-Serif" font-size="11.00" fill="#000000">&lt; 2</text>
<polygon fill="#ffffff" stroke="transparent" points="769,-813.7 769,-832.7 804,-832.7 804,-813.7 769,-813.7"/>
<polygon fill="none" stroke="#000000" points="769,-813.7 769,-832.7 804,-832.7 804,-813.7 769,-813.7"/>
<text text-anchor="start" x="794.8862" y="-819.8" font-family="Helvetica,sans-Serif" font-size="11.00" fill="#000000"> &#160;</text>
<polygon fill="#ffffff" stroke="transparent" points="804,-813.7 804,-832.7 840,-832.7 840,-813.7 804,-813.7"/>
<polygon fill="none" stroke="#000000" points="804,-813.7 804,-832.7 840,-832.7 840,-813.7 804,-813.7"/>
<text text-anchor="start" x="830.8862" y="-819.8" font-family="Helvetica,sans-Serif" font-size="11.00" fill="#000000"> &#160;</text>
</a>
</g>
</g>
<!-- coupon_periods -->
<g id="node2" class="node">
<title>coupon_periods</title>
<g id="a_node2"><a xlink:href="../../tables/coupon_periods.html" xlink:title="coupon_periods" target="_top">
<polygon fill="#ffffff" stroke="transparent" points="297,-694.7 297,-1004.7 576,-1004.7 576,-694.7 297,-694.7"/>
<polygon fill="#f5f5f5" stroke="transparent" points="299.5,-979.7 299.5,-1002.7 574.5,-1002.7 574.5,-979.7 299.5,-979.7"/>
<polygon fill="none" stroke="#000000" points="299.5,-979.7 299.5,-1002.7 574.5,-1002.7 574.5,-979.7 299.5,-979.7"/>
<text text-anchor="start" x="304.5" y="-988.3" font-family="Helvetica,sans-Serif" font-weight="bold" font-size="11.00" fill="#000000">coupon_periods</text>
<text text-anchor="start" x="539.5437" y="-987.8" font-family="Helvetica,sans-Serif" font-size="11.00" fill="#000000">[table]</text>
<polygon fill="none" stroke="#000000" points="299.5,-957.7 299.5,-979.7 490.5,-979.7 490.5,-957.7 299.5,-957.7"/>
<image xlink:href="../../images/primaryKeys.png" width="11px" height="12px" preserveAspectRatio="xMinYMin meet" x="304.5" y="-974.7"/>
<text text-anchor="start" x="319.5" y="-964.8" font-family="Helvetica,sans-Serif" font-size="11.00" fill="#000000">id</text>
<polygon fill="none" stroke="#000000" points="490.5,-957.7 490.5,-979.7 574.5,-979.7 574.5,-957.7 490.5,-957.7"/>
<text text-anchor="start" x="493.5" y="-965.4" font-family="Helvetica,sans-Serif" font-size="11.00" fill="#000000">bigserial[19]</text>
<polygon fill="#ffffff" stroke="transparent" points="299.5,-935.7 299.5,-957.7 490.5,-957.7 490.5,-935.7 299.5,-935.7"/>
<polygon fill="none" stroke="#000000" points="299.5,-935.7 299.5,-957.7 490.5,-957.7 490.5,-935.7 299.5,-935.7"/>
<image xlink:href="../../images/foreignKeys.png" width="11px" height="12px" preserveAspectRatio="xMinYMin meet" x="304.5" y="-952.7"/>
<text text-anchor="start" x="319.5" y="-942.8" font-family="Helvetica,sans-Serif" font-size="11.00" fill="#000000">trade_id</text>
<polygon fill="none" stroke="#000000" points="490.5,-935.7 490.5,-957.7 574.5,-957.7 574.5,-935.7 490.5,-935.7"/>
<text text-anchor="start" x="493.5" y="-943.4" font-family="Helvetica,sans-Serif" font-size="11.00" fill="#000000">int8[19]</text>
<polygon fill="#ffffff" stroke="transparent" points="299.5,-913.7 299.5,-935.7 490.5,-935.7 490.5,-913.7 299.5,-913.7"/>
<polygon fill="none" stroke="#000000" points="299.5,-913.7 299.5,-935.7 490.5,-935.7 490.5,-913.7 299.5,-913.7"/>
<text text-anchor="start" x="319.5" y="-920.8" font-family="Helvetica,sans-Serif" font-size="11.00" fill="#000000">period_start_date</text>
<polygon fill="none" stroke="#000000" points="490.5,-913.7 490.5,-935.7 574.5,-935.7 574.5,-913.7 490.5,-913.7"/>
<text text-anchor="start" x="493.5" y="-921.4" font-family="Helvetica,sans-Serif" font-size="11.00" fill="#000000">date[13]</text>
<polygon fill="none" stroke="#000000" points="299.5,-891.7 299.5,-913.7 490.5,-913.7 490.5,-891.7 299.5,-891.7"/>
<text text-anchor="start" x="319.5" y="-898.8" font-family="Helvetica,sans-Serif" font-size="11.00" fill="#000000">period_end_date</text>
<polygon fill="none" stroke="#000000" points="490.5,-891.7 490.5,-913.7 574.5,-913.7 574.5,-891.7 490.5,-891.7"/>
<text text-anchor="start" x="493.5" y="-899.4" font-family="Helvetica,sans-Serif" font-size="11.00" fill="#000000">date[13]</text>
<polygon fill="#ffffff" stroke="transparent" points="299.5,-869.7 299.5,-891.7 490.5,-891.7 490.5,-869.7 299.5,-869.7"/>
<polygon fill="none" stroke="#000000" points="299.5,-869.7 299.5,-891.7 490.5,-891.7 490.5,-869.7 299.5,-869.7"/>
<text text-anchor="start" x="319.5" y="-876.8" font-family="Helvetica,sans-Serif" font-size="11.00" fill="#000000">payment_date</text>
<polygon fill="none" stroke="#000000" points="490.5,-869.7 490.5,-891.7 574.5,-891.7 574.5,-869.7 490.5,-869.7"/>
<text text-anchor="start" x="493.5" y="-877.4" font-family="Helvetica,sans-Serif" font-size="11.00" fill="#000000">date[13]</text>
<polygon fill="none" stroke="#000000" points="299.5,-847.7 299.5,-869.7 490.5,-869.7 490.5,-847.7 299.5,-847.7"/>
<text text-anchor="start" x="319.5" y="-854.8" font-family="Helvetica,sans-Serif" font-size="11.00" fill="#000000">accrual_days</text>
<polygon fill="none" stroke="#000000" points="490.5,-847.7 490.5,-869.7 574.5,-869.7 574.5,-847.7 490.5,-847.7"/>
<text text-anchor="start" x="493.5" y="-855.4" font-family="Helvetica,sans-Serif" font-size="11.00" fill="#000000">int4[10]</text>
<polygon fill="none" stroke="#000000" points="299.5,-825.7 299.5,-847.7 490.5,-847.7 490.5,-825.7 299.5,-825.7"/>
<text text-anchor="start" x="319.5" y="-832.8" font-family="Helvetica,sans-Serif" font-size="11.00" fill="#000000">notional_amount</text>
<polygon fill="none" stroke="#000000" points="490.5,-825.7 490.5,-847.7 574.5,-847.7 574.5,-825.7 490.5,-825.7"/>
<text text-anchor="start" x="493.5" y="-833.4" font-family="Helvetica,sans-Serif" font-size="11.00" fill="#000000">numeric[15,2]</text>
<polygon fill="none" stroke="#000000" points="299.5,-803.7 299.5,-825.7 490.5,-825.7 490.5,-803.7 299.5,-803.7"/>
<text text-anchor="start" x="319.5" y="-810.8" font-family="Helvetica,sans-Serif" font-size="11.00" fill="#000000">day_count_convention</text>
<polygon fill="none" stroke="#000000" points="490.5,-803.7 490.5,-825.7 574.5,-825.7 574.5,-803.7 490.5,-803.7"/>
<text text-anchor="start" x="493.5" y="-811.4" font-family="Helvetica,sans-Serif" font-size="11.00" fill="#000000">varchar[20]</text>
<polygon fill="none" stroke="#000000" points="299.5,-781.7 299.5,-803.7 490.5,-803.7 490.5,-781.7 299.5,-781.7"/>
<text text-anchor="start" x="319.5" y="-788.8" font-family="Helvetica,sans-Serif" font-size="11.00" fill="#000000">business_day_convention</text>
<polygon fill="none" stroke="#000000" points="490.5,-781.7 490.5,-803.7 574.5,-803.7 574.5,-781.7 490.5,-781.7"/>
<text text-anchor="start" x="493.5" y="-789.4" font-family="Helvetica,sans-Serif" font-size="11.00" fill="#000000">varchar[20]</text>
<polygon fill="none" stroke="#000000" points="299.5,-759.7 299.5,-781.7 490.5,-781.7 490.5,-759.7 299.5,-759.7"/>
<text text-anchor="start" x="319.5" y="-766.8" font-family="Helvetica,sans-Serif" font-size="11.00" fill="#000000">created_at</text>
<polygon fill="none" stroke="#000000" points="490.5,-759.7 490.5,-781.7 574.5,-781.7 574.5,-759.7 490.5,-759.7"/>
<text text-anchor="start" x="493.3807" y="-767.4" font-family="Helvetica,sans-Serif" font-size="11.00" fill="#000000">timestamp[29,6]</text>
<polygon fill="#ffffff" stroke="transparent" points="299.5,-737.7 299.5,-759.7 490.5,-759.7 490.5,-737.7 299.5,-737.7"/>
<polygon fill="none" stroke="#000000" points="299.5,-737.7 299.5,-759.7 490.5,-759.7 490.5,-737.7 299.5,-737.7"/>
<text text-anchor="start" x="319.5" y="-744.8" font-family="Helvetica,sans-Serif" font-size="11.00" fill="#000000">paid</text>
<polygon fill="none" stroke="#000000" points="490.5,-737.7 490.5,-759.7 574.5,-759.7 574.5,-737.7 490.5,-737.7"/>
<text text-anchor="start" x="493.5" y="-745.4" font-family="Helvetica,sans-Serif" font-size="11.00" fill="#000000">bool[1]</text>
<polygon fill="none" stroke="#000000" points="299.5,-715.7 299.5,-737.7 490.5,-737.7 490.5,-715.7 299.5,-715.7"/>
<text text-anchor="start" x="319.5" y="-722.8" font-family="Helvetica,sans-Serif" font-size="11.00" fill="#000000">paid_at</text>
<polygon fill="none" stroke="#000000" points="490.5,-715.7 490.5,-737.7 574.5,-737.7 574.5,-715.7 490.5,-715.7"/>
<text text-anchor="start" x="493.3807" y="-723.4" font-family="Helvetica,sans-Serif" font-size="11.00" fill="#000000">timestamp[29,6]</text>
<polygon fill="#ffffff" stroke="transparent" points="299.5,-696.7 299.5,-715.7 399.5,-715.7 399.5,-696.7 299.5,-696.7"/>
<polygon fill="none" stroke="#000000" points="299.5,-696.7 299.5,-715.7 399.5,-715.7 399.5,-696.7 299.5,-696.7"/>
<text text-anchor="start" x="302.5" y="-702.8" font-family="Helvetica,sans-Serif" font-size="11.00" fill="#000000">&lt; 1</text>
<polygon fill="#ffffff" stroke="transparent" points="399.5,-696.7 399.5,-715.7 490.5,-715.7 490.5,-696.7 399.5,-696.7"/>
<polygon fill="none" stroke="#000000" points="399.5,-696.7 399.5,-715.7 490.5,-715.7 490.5,-696.7 399.5,-696.7"/>
<text text-anchor="start" x="481.3862" y="-702.8" font-family="Helvetica,sans-Serif" font-size="11.00" fill="#000000"> &#160;</text>
<polygon fill="#ffffff" stroke="transparent" points="490.5,-696.7 490.5,-715.7 574.5,-715.7 574.5,-696.7 490.5,-696.7"/>
<polygon fill="none" stroke="#000000" points="490.5,-696.7 490.5,-715.7 574.5,-715.7 574.5,-696.7 490.5,-696.7"/>
<text text-anchor="start" x="555.9053" y="-702.8" font-family="Helvetica,sans-Serif" font-size="11.00" fill="#000000">1 &gt;</text>
<polygon fill="none" stroke="#000000" stroke-width="2" points="298,-695.7 298,-1003.7 575,-1003.7 575,-695.7 298,-695.7"/>
</a>
</g>
</g>
<!-- accrual_events&#45;&gt;coupon_periods -->
<g id="edge1" class="edge">
<title>accrual_events:w&#45;&gt;coupon_periods:e</title>
<path fill="none" stroke="#000000" d="M729.6652,-889.4696C693.0561,-924.9874 635.591,-968.7 574.5,-968.7"/>
<polygon fill="#000000" stroke="#000000" points="734.2271,-884.9016 742.4275,-881.7848 737.0537,-882.0712 739.8802,-879.2409 739.8802,-879.2409 739.8802,-879.2409 737.0537,-882.0712 737.3329,-876.697 734.2271,-884.9016 734.2271,-884.9016"/>
<ellipse fill="none" stroke="#000000" cx="731.9659" cy="-887.1658" rx="3.2" ry="3.2"/>
</g>
<!-- cds_trades -->
<g id="node3" class="node">
<title>cds_trades</title>
<g id="a_node3"><a xlink:href="../../tables/cds_trades.html" xlink:title="cds_trades" target="_top">
<polygon fill="#ffffff" stroke="transparent" points="137,-404.2 137,-465.2 248,-465.2 248,-404.2 137,-404.2"/>
<polygon fill="#f5f5f5" stroke="transparent" points="137.5,-441.7 137.5,-464.7 248.5,-464.7 248.5,-441.7 137.5,-441.7"/>
<polygon fill="none" stroke="#000000" points="137.5,-441.7 137.5,-464.7 248.5,-464.7 248.5,-441.7 137.5,-441.7"/>
<text text-anchor="start" x="142.5" y="-450.3" font-family="Helvetica,sans-Serif" font-weight="bold" font-size="11.00" fill="#000000">cds_trades</text>
<text text-anchor="start" x="214.0219" y="-449.8" font-family="Helvetica,sans-Serif" font-size="11.00" fill="#000000">[table]</text>
<polygon fill="none" stroke="#000000" points="137.5,-422.7 137.5,-441.7 248.5,-441.7 248.5,-422.7 137.5,-422.7"/>
<text text-anchor="start" x="140.5" y="-428.8" font-family="Helvetica,sans-Serif" font-size="11.00" fill="#000000">...</text>
<polygon fill="#ffffff" stroke="transparent" points="137.5,-403.7 137.5,-422.7 183.5,-422.7 183.5,-403.7 137.5,-403.7"/>
<polygon fill="none" stroke="#000000" points="137.5,-403.7 137.5,-422.7 183.5,-422.7 183.5,-403.7 137.5,-403.7"/>
<text text-anchor="start" x="140.5" y="-409.8" font-family="Helvetica,sans-Serif" font-size="11.00" fill="#000000">&lt; 2</text>
<polygon fill="#ffffff" stroke="transparent" points="183.5,-403.7 183.5,-422.7 208.5,-422.7 208.5,-403.7 183.5,-403.7"/>
<polygon fill="none" stroke="#000000" points="183.5,-403.7 183.5,-422.7 208.5,-422.7 208.5,-403.7 183.5,-403.7"/>
<text text-anchor="start" x="199.3862" y="-409.8" font-family="Helvetica,sans-Serif" font-size="11.00" fill="#000000"> &#160;</text>
<polygon fill="#ffffff" stroke="transparent" points="208.5,-403.7 208.5,-422.7 248.5,-422.7 248.5,-403.7 208.5,-403.7"/>
<polygon fill="none" stroke="#000000" points="208.5,-403.7 208.5,-422.7 248.5,-422.7 248.5,-403.7 208.5,-403.7"/>
<text text-anchor="start" x="223.7904" y="-409.8" font-family="Helvetica,sans-Serif" font-size="11.00" fill="#000000">13 &gt;</text>
</a>
</g>
</g>
<!-- accrual_events&#45;&gt;cds_trades -->
<g id="edge2" class="edge">
<title>accrual_events:w&#45;&gt;cds_trades:e</title>
<path fill="none" stroke="#000000" d="M731.4587,-798.9645C696.9684,-761.4482 642.8794,-710.471 584,-684.7 463.0949,-631.7809 395.4328,-728.7418 289,-650.7 229.5457,-607.1052 206.0233,-518.4506 197.2742,-469.3586"/>
<polygon fill="#000000" stroke="#000000" points="736.1632,-804.1881 738.842,-812.5418 738.8401,-807.1603 741.517,-810.1326 741.517,-810.1326 741.517,-810.1326 738.8401,-807.1603 744.192,-807.7233 736.1632,-804.1881 736.1632,-804.1881"/>
<ellipse fill="none" stroke="#000000" cx="734.0216" cy="-801.8103" rx="3.2" ry="3.2"/>
</g>
<!-- coupon_periods&#45;&gt;cds_trades -->
<g id="edge11" class="edge">
<title>coupon_periods:w&#45;&gt;cds_trades:e</title>
<path fill="none" stroke="#000000" d="M287.0612,-939.0665C243.5789,-886.3081 207.2442,-574.8236 196.0558,-469.4893"/>
<polygon fill="#000000" stroke="#000000" points="292.6815,-942.5156 297.617,-949.7683 296.0908,-944.6078 299.5,-946.7 299.5,-946.7 299.5,-946.7 296.0908,-944.6078 301.383,-943.6317 292.6815,-942.5156 292.6815,-942.5156"/>
<ellipse fill="none" stroke="#000000" cx="289.9542" cy="-940.8419" rx="3.2" ry="3.2"/>
</g>
<!-- bonds -->
<g id="node8" class="node">
<title>bonds</title>
<g id="a_node8"><a xlink:href="../../tables/bonds.html" xlink:title="bonds" target="_top">
<polygon fill="#ffffff" stroke="transparent" points="8,-407.2 8,-468.2 88,-468.2 88,-407.2 8,-407.2"/>
<polygon fill="#f5f5f5" stroke="transparent" points="8,-444.7 8,-467.7 88,-467.7 88,-444.7 8,-444.7"/>
<polygon fill="none" stroke="#000000" points="8,-444.7 8,-467.7 88,-467.7 88,-444.7 8,-444.7"/>
<text text-anchor="start" x="13" y="-453.3" font-family="Helvetica,sans-Serif" font-weight="bold" font-size="11.00" fill="#000000">bonds</text>
<text text-anchor="start" x="53.5219" y="-452.8" font-family="Helvetica,sans-Serif" font-size="11.00" fill="#000000">[table]</text>
<polygon fill="none" stroke="#000000" points="8,-425.7 8,-444.7 88,-444.7 88,-425.7 8,-425.7"/>
<text text-anchor="start" x="11" y="-431.8" font-family="Helvetica,sans-Serif" font-size="11.00" fill="#000000">...</text>
<polygon fill="#ffffff" stroke="transparent" points="8,-406.7 8,-425.7 37,-425.7 37,-406.7 8,-406.7"/>
<polygon fill="none" stroke="#000000" points="8,-406.7 8,-425.7 37,-425.7 37,-406.7 8,-406.7"/>
<text text-anchor="start" x="11" y="-412.8" font-family="Helvetica,sans-Serif" font-size="11.00" fill="#000000"> &#160;</text>
<polygon fill="#ffffff" stroke="transparent" points="37,-406.7 37,-425.7 58,-425.7 58,-406.7 37,-406.7"/>
<polygon fill="none" stroke="#000000" points="37,-406.7 37,-425.7 58,-425.7 58,-406.7 37,-406.7"/>
<text text-anchor="start" x="48.8862" y="-412.8" font-family="Helvetica,sans-Serif" font-size="11.00" fill="#000000"> &#160;</text>
<polygon fill="#ffffff" stroke="transparent" points="58,-406.7 58,-425.7 88,-425.7 88,-406.7 58,-406.7"/>
<polygon fill="none" stroke="#000000" points="58,-406.7 58,-425.7 88,-425.7 88,-406.7 58,-406.7"/>
<text text-anchor="start" x="69.4053" y="-412.8" font-family="Helvetica,sans-Serif" font-size="11.00" fill="#000000">2 &gt;</text>
</a>
</g>
</g>
<!-- cds_trades&#45;&gt;bonds -->
<g id="edge9" class="edge">
<title>cds_trades:w&#45;&gt;bonds:e</title>
<path fill="none" stroke="#000000" d="M114.5141,-434.7C105.5727,-434.7 96.5879,-434.7 88,-434.7"/>
<polygon fill="#000000" stroke="#000000" points="120.9488,-434.7001 128.9489,-438.3 124.9488,-434.7 128.9488,-434.7 128.9488,-434.7 128.9488,-434.7 124.9488,-434.7 128.9488,-431.1 120.9488,-434.7001 120.9488,-434.7001"/>
<ellipse fill="none" stroke="#000000" cx="117.7488" cy="-434.7001" rx="3.2" ry="3.2"/>
</g>
<!-- cds_cash_settlements -->
<g id="node4" class="node">
<title>cds_cash_settlements</title>
<g id="a_node4"><a xlink:href="../../tables/cds_cash_settlements.html" xlink:title="cds_cash_settlements" target="_top">
<polygon fill="#ffffff" stroke="transparent" points="677.5,-609.2 677.5,-670.2 862.5,-670.2 862.5,-609.2 677.5,-609.2"/>
<polygon fill="#f5f5f5" stroke="transparent" points="678,-646.7 678,-669.7 863,-669.7 863,-646.7 678,-646.7"/>
<polygon fill="none" stroke="#000000" points="678,-646.7 678,-669.7 863,-669.7 863,-646.7 678,-646.7"/>
<text text-anchor="start" x="683" y="-655.3" font-family="Helvetica,sans-Serif" font-weight="bold" font-size="11.00" fill="#000000">cds_cash_settlements</text>
<text text-anchor="start" x="828.5219" y="-654.8" font-family="Helvetica,sans-Serif" font-size="11.00" fill="#000000">[table]</text>
<polygon fill="none" stroke="#000000" points="678,-627.7 678,-646.7 863,-646.7 863,-627.7 678,-627.7"/>
<text text-anchor="start" x="681" y="-633.8" font-family="Helvetica,sans-Serif" font-size="11.00" fill="#000000">...</text>
<polygon fill="#ffffff" stroke="transparent" points="678,-608.7 678,-627.7 769,-627.7 769,-608.7 678,-608.7"/>
<polygon fill="none" stroke="#000000" points="678,-608.7 678,-627.7 769,-627.7 769,-608.7 678,-608.7"/>
<text text-anchor="start" x="681" y="-614.8" font-family="Helvetica,sans-Serif" font-size="11.00" fill="#000000">&lt; 2</text>
<polygon fill="#ffffff" stroke="transparent" points="769,-608.7 769,-627.7 816,-627.7 816,-608.7 769,-608.7"/>
<polygon fill="none" stroke="#000000" points="769,-608.7 769,-627.7 816,-627.7 816,-608.7 769,-608.7"/>
<text text-anchor="start" x="806.8862" y="-614.8" font-family="Helvetica,sans-Serif" font-size="11.00" fill="#000000"> &#160;</text>
<polygon fill="#ffffff" stroke="transparent" points="816,-608.7 816,-627.7 863,-627.7 863,-608.7 816,-608.7"/>
<polygon fill="none" stroke="#000000" points="816,-608.7 816,-627.7 863,-627.7 863,-608.7 816,-608.7"/>
<text text-anchor="start" x="853.8862" y="-614.8" font-family="Helvetica,sans-Serif" font-size="11.00" fill="#000000"> &#160;</text>
</a>
</g>
</g>
<!-- cds_cash_settlements&#45;&gt;cds_trades -->
<g id="edge4" class="edge">
<title>cds_cash_settlements:w&#45;&gt;cds_trades:e</title>
<path fill="none" stroke="#000000" d="M663.4672,-636.9982C568.2036,-640.5353 358.2588,-673.5694 289,-629.7 232.8384,-594.1265 208.2876,-515.2986 198.428,-469.5051"/>
<polygon fill="#000000" stroke="#000000" points="670.0017,-636.8642 678.0739,-640.2992 674.0008,-636.7821 678,-636.7 678,-636.7 678,-636.7 674.0008,-636.7821 677.9261,-633.1008 670.0017,-636.8642 670.0017,-636.8642"/>
<ellipse fill="none" stroke="#000000" cx="666.8024" cy="-636.9299" rx="3.2" ry="3.2"/>
</g>
<!-- cds_credit_events -->
<g id="node5" class="node">
<title>cds_credit_events</title>
<g id="a_node5"><a xlink:href="../../tables/cds_credit_events.html" xlink:title="cds_credit_events" target="_top">
<polygon fill="#ffffff" stroke="transparent" points="357.5,-558.2 357.5,-619.2 515.5,-619.2 515.5,-558.2 357.5,-558.2"/>
<polygon fill="#f5f5f5" stroke="transparent" points="357.5,-595.7 357.5,-618.7 515.5,-618.7 515.5,-595.7 357.5,-595.7"/>
<polygon fill="none" stroke="#000000" points="357.5,-595.7 357.5,-618.7 515.5,-618.7 515.5,-595.7 357.5,-595.7"/>
<text text-anchor="start" x="362.5" y="-604.3" font-family="Helvetica,sans-Serif" font-weight="bold" font-size="11.00" fill="#000000">cds_credit_events</text>
<text text-anchor="start" x="481.0219" y="-603.8" font-family="Helvetica,sans-Serif" font-size="11.00" fill="#000000">[table]</text>
<polygon fill="none" stroke="#000000" points="357.5,-576.7 357.5,-595.7 515.5,-595.7 515.5,-576.7 357.5,-576.7"/>
<text text-anchor="start" x="360.5" y="-582.8" font-family="Helvetica,sans-Serif" font-size="11.00" fill="#000000">...</text>
<polygon fill="#ffffff" stroke="transparent" points="357.5,-557.7 357.5,-576.7 430.5,-576.7 430.5,-557.7 357.5,-557.7"/>
<polygon fill="none" stroke="#000000" points="357.5,-557.7 357.5,-576.7 430.5,-576.7 430.5,-557.7 357.5,-557.7"/>
<text text-anchor="start" x="360.5" y="-563.8" font-family="Helvetica,sans-Serif" font-size="11.00" fill="#000000">&lt; 1</text>
<polygon fill="#ffffff" stroke="transparent" points="430.5,-557.7 430.5,-576.7 468.5,-576.7 468.5,-557.7 430.5,-557.7"/>
<polygon fill="none" stroke="#000000" points="430.5,-557.7 430.5,-576.7 468.5,-576.7 468.5,-557.7 430.5,-557.7"/>
<text text-anchor="start" x="459.3862" y="-563.8" font-family="Helvetica,sans-Serif" font-size="11.00" fill="#000000"> &#160;</text>
<polygon fill="#ffffff" stroke="transparent" points="468.5,-557.7 468.5,-576.7 515.5,-576.7 515.5,-557.7 468.5,-557.7"/>
<polygon fill="none" stroke="#000000" points="468.5,-557.7 468.5,-576.7 515.5,-576.7 515.5,-557.7 468.5,-557.7"/>
<text text-anchor="start" x="496.9053" y="-563.8" font-family="Helvetica,sans-Serif" font-size="11.00" fill="#000000">2 &gt;</text>
</a>
</g>
</g>
<!-- cds_cash_settlements&#45;&gt;cds_credit_events -->
<g id="edge3" class="edge">
<title>cds_cash_settlements:w&#45;&gt;cds_credit_events:e</title>
<path fill="none" stroke="#000000" d="M667.3587,-636.3471C601.0656,-631.8411 587.4995,-585.7 515.5,-585.7"/>
<polygon fill="#000000" stroke="#000000" points="677.3331,-632.6757 677.0678,-640.6713 675.4687,-640.6182 675.7339,-632.6226 677.3331,-632.6757"/>
<polyline fill="none" stroke="#000000" points="678,-636.7 674.0022,-636.5674 "/>
<ellipse fill="none" stroke="#000000" cx="670.804" cy="-636.4613" rx="3.2" ry="3.2"/>
</g>
<!-- cds_credit_events&#45;&gt;cds_trades -->
<g id="edge5" class="edge">
<title>cds_credit_events:w&#45;&gt;cds_trades:e</title>
<path fill="none" stroke="#000000" d="M342.8973,-584.6128C281.5195,-575.468 234.6235,-510.7012 210.5256,-469.3425"/>
<polygon fill="#000000" stroke="#000000" points="349.5221,-585.106 357.2327,-589.2901 353.511,-585.403 357.5,-585.7 357.5,-585.7 357.5,-585.7 353.511,-585.403 357.7673,-582.1099 349.5221,-585.106 349.5221,-585.106"/>
<ellipse fill="none" stroke="#000000" cx="346.3309" cy="-584.8684" rx="3.2" ry="3.2"/>
</g>
<!-- cds_physical_settlement_instructions -->
<g id="node6" class="node">
<title>cds_physical_settlement_instructions</title>
<g id="a_node6"><a xlink:href="../../tables/cds_physical_settlement_instructions.html" xlink:title="cds_physical_settlement_instructions" target="_top">
<polygon fill="#ffffff" stroke="transparent" points="625,-520.2 625,-581.2 915,-581.2 915,-520.2 625,-520.2"/>
<polygon fill="#f5f5f5" stroke="transparent" points="625,-557.7 625,-580.7 915,-580.7 915,-557.7 625,-557.7"/>
<polygon fill="none" stroke="#000000" points="625,-557.7 625,-580.7 915,-580.7 915,-557.7 625,-557.7"/>
<text text-anchor="start" x="630" y="-566.3" font-family="Helvetica,sans-Serif" font-weight="bold" font-size="11.00" fill="#000000">cds_physical_settlement_instructions</text>
<text text-anchor="start" x="880.5219" y="-565.8" font-family="Helvetica,sans-Serif" font-size="11.00" fill="#000000">[table]</text>
<polygon fill="none" stroke="#000000" points="625,-538.7 625,-557.7 915,-557.7 915,-538.7 625,-538.7"/>
<text text-anchor="start" x="628" y="-544.8" font-family="Helvetica,sans-Serif" font-size="11.00" fill="#000000">...</text>
<polygon fill="#ffffff" stroke="transparent" points="625,-519.7 625,-538.7 768,-538.7 768,-519.7 625,-519.7"/>
<polygon fill="none" stroke="#000000" points="625,-519.7 625,-538.7 768,-538.7 768,-519.7 625,-519.7"/>
<text text-anchor="start" x="628" y="-525.8" font-family="Helvetica,sans-Serif" font-size="11.00" fill="#000000">&lt; 2</text>
<polygon fill="#ffffff" stroke="transparent" points="768,-519.7 768,-538.7 841,-538.7 841,-519.7 768,-519.7"/>
<polygon fill="none" stroke="#000000" points="768,-519.7 768,-538.7 841,-538.7 841,-519.7 768,-519.7"/>
<text text-anchor="start" x="831.8862" y="-525.8" font-family="Helvetica,sans-Serif" font-size="11.00" fill="#000000"> &#160;</text>
<polygon fill="#ffffff" stroke="transparent" points="841,-519.7 841,-538.7 915,-538.7 915,-519.7 841,-519.7"/>
<polygon fill="none" stroke="#000000" points="841,-519.7 841,-538.7 915,-538.7 915,-519.7 841,-519.7"/>
<text text-anchor="start" x="905.8862" y="-525.8" font-family="Helvetica,sans-Serif" font-size="11.00" fill="#000000"> &#160;</text>
</a>
</g>
</g>
<!-- cds_physical_settlement_instructions&#45;&gt;cds_trades -->
<g id="edge7" class="edge">
<title>cds_physical_settlement_instructions:w&#45;&gt;cds_trades:e</title>
<path fill="none" stroke="#000000" d="M610.413,-547.7077C527.62,-547.7529 353.8275,-547.3099 289,-519.7 262.9135,-508.5898 238.9602,-487.5837 221.4436,-469.2347"/>
<polygon fill="#000000" stroke="#000000" points="617,-547.7043 625.0019,-551.3 621,-547.7021 625,-547.7 625,-547.7 625,-547.7 621,-547.7021 624.9981,-544.1 617,-547.7043 617,-547.7043"/>
<ellipse fill="none" stroke="#000000" cx="613.8" cy="-547.706" rx="3.2" ry="3.2"/>
</g>
<!-- cds_physical_settlement_instructions&#45;&gt;cds_credit_events -->
<g id="edge6" class="edge">
<title>cds_physical_settlement_instructions:w&#45;&gt;cds_credit_events:e</title>
<path fill="none" stroke="#000000" d="M614.5036,-548.2667C572.3155,-552.9937 563.2912,-585.7 515.5,-585.7"/>
<polygon fill="#000000" stroke="#000000" points="623.9855,-543.7489 624.4168,-551.7373 622.8192,-551.8236 622.3878,-543.8352 623.9855,-543.7489"/>
<polyline fill="none" stroke="#000000" points="625,-547.7 621.0058,-547.9157 "/>
<ellipse fill="none" stroke="#000000" cx="617.8105" cy="-548.0882" rx="3.2" ry="3.2"/>
</g>
<!-- cds_portfolio_constituents -->
<g id="node7" class="node">
<title>cds_portfolio_constituents</title>
<g id="a_node7"><a xlink:href="../../tables/cds_portfolio_constituents.html" xlink:title="cds_portfolio_constituents" target="_top">
<polygon fill="#ffffff" stroke="transparent" points="328,-448.2 328,-509.2 545,-509.2 545,-448.2 328,-448.2"/>
<polygon fill="#f5f5f5" stroke="transparent" points="328.5,-485.7 328.5,-508.7 545.5,-508.7 545.5,-485.7 328.5,-485.7"/>
<polygon fill="none" stroke="#000000" points="328.5,-485.7 328.5,-508.7 545.5,-508.7 545.5,-485.7 328.5,-485.7"/>
<text text-anchor="start" x="333.5" y="-494.3" font-family="Helvetica,sans-Serif" font-weight="bold" font-size="11.00" fill="#000000">cds_portfolio_constituents</text>
<text text-anchor="start" x="511.0219" y="-493.8" font-family="Helvetica,sans-Serif" font-size="11.00" fill="#000000">[table]</text>
<polygon fill="none" stroke="#000000" points="328.5,-466.7 328.5,-485.7 545.5,-485.7 545.5,-466.7 328.5,-466.7"/>
<text text-anchor="start" x="331.5" y="-472.8" font-family="Helvetica,sans-Serif" font-size="11.00" fill="#000000">...</text>
<polygon fill="#ffffff" stroke="transparent" points="328.5,-447.7 328.5,-466.7 435.5,-466.7 435.5,-447.7 328.5,-447.7"/>
<polygon fill="none" stroke="#000000" points="328.5,-447.7 328.5,-466.7 435.5,-466.7 435.5,-447.7 328.5,-447.7"/>
<text text-anchor="start" x="331.5" y="-453.8" font-family="Helvetica,sans-Serif" font-size="11.00" fill="#000000">&lt; 2</text>
<polygon fill="#ffffff" stroke="transparent" points="435.5,-447.7 435.5,-466.7 490.5,-466.7 490.5,-447.7 435.5,-447.7"/>
<polygon fill="none" stroke="#000000" points="435.5,-447.7 435.5,-466.7 490.5,-466.7 490.5,-447.7 435.5,-447.7"/>
<text text-anchor="start" x="481.3862" y="-453.8" font-family="Helvetica,sans-Serif" font-size="11.00" fill="#000000"> &#160;</text>
<polygon fill="#ffffff" stroke="transparent" points="490.5,-447.7 490.5,-466.7 545.5,-466.7 545.5,-447.7 490.5,-447.7"/>
<polygon fill="none" stroke="#000000" points="490.5,-447.7 490.5,-466.7 545.5,-466.7 545.5,-447.7 490.5,-447.7"/>
<text text-anchor="start" x="536.3862" y="-453.8" font-family="Helvetica,sans-Serif" font-size="11.00" fill="#000000"> &#160;</text>
</a>
</g>
</g>
<!-- cds_portfolio_constituents&#45;&gt;cds_trades -->
<g id="edge8" class="edge">
<title>cds_portfolio_constituents:w&#45;&gt;cds_trades:e</title>
<path fill="none" stroke="#000000" d="M313.848,-475.0142C294.086,-473.226 274.0007,-468.1423 256.0084,-462.1614"/>
<polygon fill="#000000" stroke="#000000" points="320.5087,-475.3259 328.3317,-479.2961 324.5044,-475.513 328.5,-475.7 328.5,-475.7 328.5,-475.7 324.5044,-475.513 328.6683,-472.1039 320.5087,-475.3259 320.5087,-475.3259"/>
<ellipse fill="none" stroke="#000000" cx="317.3122" cy="-475.1763" rx="3.2" ry="3.2"/>
</g>
<!-- compression_proposal_items -->
<g id="node9" class="node">
<title>compression_proposal_items</title>
<g id="a_node9"><a xlink:href="../../tables/compression_proposal_items.html" xlink:title="compression_proposal_items" target="_top">
<polygon fill="#ffffff" stroke="transparent" points="320,-366.2 320,-427.2 553,-427.2 553,-366.2 320,-366.2"/>
<polygon fill="#f5f5f5" stroke="transparent" points="320.5,-403.7 320.5,-426.7 553.5,-426.7 553.5,-403.7 320.5,-403.7"/>
<polygon fill="none" stroke="#000000" points="320.5,-403.7 320.5,-426.7 553.5,-426.7 553.5,-403.7 320.5,-403.7"/>
<text text-anchor="start" x="325.5" y="-412.3" font-family="Helvetica,sans-Serif" font-weight="bold" font-size="11.00" fill="#000000">compression_proposal_items</text>
<text text-anchor="start" x="519.0219" y="-411.8" font-family="Helvetica,sans-Serif" font-size="11.00" fill="#000000">[table]</text>
<polygon fill="none" stroke="#000000" points="320.5,-384.7 320.5,-403.7 553.5,-403.7 553.5,-384.7 320.5,-384.7"/>
<text text-anchor="start" x="323.5" y="-390.8" font-family="Helvetica,sans-Serif" font-size="11.00" fill="#000000">...</text>
<polygon fill="#ffffff" stroke="transparent" points="320.5,-365.7 320.5,-384.7 435.5,-384.7 435.5,-365.7 320.5,-365.7"/>
<polygon fill="none" stroke="#000000" points="320.5,-365.7 320.5,-384.7 435.5,-384.7 435.5,-365.7 320.5,-365.7"/>
<text text-anchor="start" x="323.5" y="-371.8" font-family="Helvetica,sans-Serif" font-size="11.00" fill="#000000">&lt; 2</text>
<polygon fill="#ffffff" stroke="transparent" points="435.5,-365.7 435.5,-384.7 494.5,-384.7 494.5,-365.7 435.5,-365.7"/>
<polygon fill="none" stroke="#000000" points="435.5,-365.7 435.5,-384.7 494.5,-384.7 494.5,-365.7 435.5,-365.7"/>
<text text-anchor="start" x="485.3862" y="-371.8" font-family="Helvetica,sans-Serif" font-size="11.00" fill="#000000"> &#160;</text>
<polygon fill="#ffffff" stroke="transparent" points="494.5,-365.7 494.5,-384.7 553.5,-384.7 553.5,-365.7 494.5,-365.7"/>
<polygon fill="none" stroke="#000000" points="494.5,-365.7 494.5,-384.7 553.5,-384.7 553.5,-365.7 494.5,-365.7"/>
<text text-anchor="start" x="544.3862" y="-371.8" font-family="Helvetica,sans-Serif" font-size="11.00" fill="#000000"> &#160;</text>
</a>
</g>
</g>
<!-- compression_proposal_items&#45;&gt;cds_trades -->
<g id="edge10" class="edge">
<title>compression_proposal_items:w&#45;&gt;cds_trades:e</title>
<path fill="none" stroke="#000000" d="M305.9567,-394.4534C288.9325,-396.1573 271.7229,-400.5753 256.0295,-405.8903"/>
<polygon fill="#000000" stroke="#000000" points="312.5107,-394.1139 320.6863,-397.2952 316.5054,-393.907 320.5,-393.7 320.5,-393.7 320.5,-393.7 316.5054,-393.907 320.3137,-390.1048 312.5107,-394.1139 312.5107,-394.1139"/>
<ellipse fill="none" stroke="#000000" cx="309.315" cy="-394.2795" rx="3.2" ry="3.2"/>
</g>
<!-- notional_adjustments -->
<g id="node10" class="node">
<title>notional_adjustments</title>
<g id="a_node10"><a xlink:href="../../tables/notional_adjustments.html" xlink:title="notional_adjustments" target="_top">
<polygon fill="#ffffff" stroke="transparent" points="344.5,-284.2 344.5,-345.2 528.5,-345.2 528.5,-284.2 344.5,-284.2"/>
<polygon fill="#f5f5f5" stroke="transparent" points="344.5,-321.7 344.5,-344.7 528.5,-344.7 528.5,-321.7 344.5,-321.7"/>
<polygon fill="none" stroke="#000000" points="344.5,-321.7 344.5,-344.7 528.5,-344.7 528.5,-321.7 344.5,-321.7"/>
<text text-anchor="start" x="349.5" y="-330.3" font-family="Helvetica,sans-Serif" font-weight="bold" font-size="11.00" fill="#000000">notional_adjustments</text>
<text text-anchor="start" x="494.0219" y="-329.8" font-family="Helvetica,sans-Serif" font-size="11.00" fill="#000000">[table]</text>
<polygon fill="none" stroke="#000000" points="344.5,-302.7 344.5,-321.7 528.5,-321.7 528.5,-302.7 344.5,-302.7"/>
<text text-anchor="start" x="347.5" y="-308.8" font-family="Helvetica,sans-Serif" font-size="11.00" fill="#000000">...</text>
<polygon fill="#ffffff" stroke="transparent" points="344.5,-283.7 344.5,-302.7 434.5,-302.7 434.5,-283.7 344.5,-283.7"/>
<polygon fill="none" stroke="#000000" points="344.5,-283.7 344.5,-302.7 434.5,-302.7 434.5,-283.7 344.5,-283.7"/>
<text text-anchor="start" x="347.5" y="-289.8" font-family="Helvetica,sans-Serif" font-size="11.00" fill="#000000">&lt; 1</text>
<polygon fill="#ffffff" stroke="transparent" points="434.5,-283.7 434.5,-302.7 481.5,-302.7 481.5,-283.7 434.5,-283.7"/>
<polygon fill="none" stroke="#000000" points="434.5,-283.7 434.5,-302.7 481.5,-302.7 481.5,-283.7 434.5,-283.7"/>
<text text-anchor="start" x="472.3862" y="-289.8" font-family="Helvetica,sans-Serif" font-size="11.00" fill="#000000"> &#160;</text>
<polygon fill="#ffffff" stroke="transparent" points="481.5,-283.7 481.5,-302.7 528.5,-302.7 528.5,-283.7 481.5,-283.7"/>
<polygon fill="none" stroke="#000000" points="481.5,-283.7 481.5,-302.7 528.5,-302.7 528.5,-283.7 481.5,-283.7"/>
<text text-anchor="start" x="519.3862" y="-289.8" font-family="Helvetica,sans-Serif" font-size="11.00" fill="#000000"> &#160;</text>
</a>
</g>
</g>
<!-- notional_adjustments&#45;&gt;cds_trades -->
<g id="edge12" class="edge">
<title>notional_adjustments:w&#45;&gt;cds_trades:e</title>
<path fill="none" stroke="#000000" d="M330.1401,-312.8098C280.0058,-320.5271 238.4338,-366.8564 214.5198,-400.1103"/>
<polygon fill="#000000" stroke="#000000" points="336.5238,-312.3165 344.7774,-315.2893 340.5119,-312.0082 344.5,-311.7 344.5,-311.7 344.5,-311.7 340.5119,-312.0082 344.2226,-308.1107 336.5238,-312.3165 336.5238,-312.3165"/>
<ellipse fill="none" stroke="#000000" cx="333.3333" cy="-312.5631" rx="3.2" ry="3.2"/>
</g>
<!-- sa_ccr_trade_mappings -->
<g id="node11" class="node">
<title>sa_ccr_trade_mappings</title>
<g id="a_node11"><a xlink:href="../../tables/sa_ccr_trade_mappings.html" xlink:title="sa_ccr_trade_mappings" target="_top">
<polygon fill="#ffffff" stroke="transparent" points="339,-202.2 339,-263.2 534,-263.2 534,-202.2 339,-202.2"/>
<polygon fill="#f5f5f5" stroke="transparent" points="339.5,-239.7 339.5,-262.7 534.5,-262.7 534.5,-239.7 339.5,-239.7"/>
<polygon fill="none" stroke="#000000" points="339.5,-239.7 339.5,-262.7 534.5,-262.7 534.5,-239.7 339.5,-239.7"/>
<text text-anchor="start" x="344.5" y="-248.3" font-family="Helvetica,sans-Serif" font-weight="bold" font-size="11.00" fill="#000000">sa_ccr_trade_mappings</text>
<text text-anchor="start" x="500.0219" y="-247.8" font-family="Helvetica,sans-Serif" font-size="11.00" fill="#000000">[table]</text>
<polygon fill="none" stroke="#000000" points="339.5,-220.7 339.5,-239.7 534.5,-239.7 534.5,-220.7 339.5,-220.7"/>
<text text-anchor="start" x="342.5" y="-226.8" font-family="Helvetica,sans-Serif" font-size="11.00" fill="#000000">...</text>
<polygon fill="#ffffff" stroke="transparent" points="339.5,-201.7 339.5,-220.7 435.5,-220.7 435.5,-201.7 339.5,-201.7"/>
<polygon fill="none" stroke="#000000" points="339.5,-201.7 339.5,-220.7 435.5,-220.7 435.5,-201.7 339.5,-201.7"/>
<text text-anchor="start" x="342.5" y="-207.8" font-family="Helvetica,sans-Serif" font-size="11.00" fill="#000000">&lt; 3</text>
<polygon fill="#ffffff" stroke="transparent" points="435.5,-201.7 435.5,-220.7 484.5,-220.7 484.5,-201.7 435.5,-201.7"/>
<polygon fill="none" stroke="#000000" points="435.5,-201.7 435.5,-220.7 484.5,-220.7 484.5,-201.7 435.5,-201.7"/>
<text text-anchor="start" x="475.3862" y="-207.8" font-family="Helvetica,sans-Serif" font-size="11.00" fill="#000000"> &#160;</text>
<polygon fill="#ffffff" stroke="transparent" points="484.5,-201.7 484.5,-220.7 534.5,-220.7 534.5,-201.7 484.5,-201.7"/>
<polygon fill="none" stroke="#000000" points="484.5,-201.7 484.5,-220.7 534.5,-220.7 534.5,-201.7 484.5,-201.7"/>
<text text-anchor="start" x="525.3862" y="-207.8" font-family="Helvetica,sans-Serif" font-size="11.00" fill="#000000"> &#160;</text>
</a>
</g>
</g>
<!-- sa_ccr_trade_mappings&#45;&gt;cds_trades -->
<g id="edge13" class="edge">
<title>sa_ccr_trade_mappings:w&#45;&gt;cds_trades:e</title>
<path fill="none" stroke="#000000" d="M324.9244,-230.8922C251.894,-243.0355 215.1044,-344.9784 200.4277,-399.9245"/>
<polygon fill="#000000" stroke="#000000" points="331.5266,-230.3522 339.7935,-233.288 335.5133,-230.0261 339.5,-229.7 339.5,-229.7 339.5,-229.7 335.5133,-230.0261 339.2065,-226.112 331.5266,-230.3522 331.5266,-230.3522"/>
<ellipse fill="none" stroke="#000000" cx="328.3373" cy="-230.6131" rx="3.2" ry="3.2"/>
</g>
<!-- trade_amendments -->
<g id="node12" class="node">
<title>trade_amendments</title>
<g id="a_node12"><a xlink:href="../../tables/trade_amendments.html" xlink:title="trade_amendments" target="_top">
<polygon fill="#ffffff" stroke="transparent" points="352,-120.2 352,-181.2 521,-181.2 521,-120.2 352,-120.2"/>
<polygon fill="#f5f5f5" stroke="transparent" points="352.5,-157.7 352.5,-180.7 521.5,-180.7 521.5,-157.7 352.5,-157.7"/>
<polygon fill="none" stroke="#000000" points="352.5,-157.7 352.5,-180.7 521.5,-180.7 521.5,-157.7 352.5,-157.7"/>
<text text-anchor="start" x="357.5" y="-166.3" font-family="Helvetica,sans-Serif" font-weight="bold" font-size="11.00" fill="#000000">trade_amendments</text>
<text text-anchor="start" x="487.0219" y="-165.8" font-family="Helvetica,sans-Serif" font-size="11.00" fill="#000000">[table]</text>
<polygon fill="none" stroke="#000000" points="352.5,-138.7 352.5,-157.7 521.5,-157.7 521.5,-138.7 352.5,-138.7"/>
<text text-anchor="start" x="355.5" y="-144.8" font-family="Helvetica,sans-Serif" font-size="11.00" fill="#000000">...</text>
<polygon fill="#ffffff" stroke="transparent" points="352.5,-119.7 352.5,-138.7 435.5,-138.7 435.5,-119.7 352.5,-119.7"/>
<polygon fill="none" stroke="#000000" points="352.5,-119.7 352.5,-138.7 435.5,-138.7 435.5,-119.7 352.5,-119.7"/>
<text text-anchor="start" x="355.5" y="-125.8" font-family="Helvetica,sans-Serif" font-size="11.00" fill="#000000">&lt; 1</text>
<polygon fill="#ffffff" stroke="transparent" points="435.5,-119.7 435.5,-138.7 478.5,-138.7 478.5,-119.7 435.5,-119.7"/>
<polygon fill="none" stroke="#000000" points="435.5,-119.7 435.5,-138.7 478.5,-138.7 478.5,-119.7 435.5,-119.7"/>
<text text-anchor="start" x="469.3862" y="-125.8" font-family="Helvetica,sans-Serif" font-size="11.00" fill="#000000"> &#160;</text>
<polygon fill="#ffffff" stroke="transparent" points="478.5,-119.7 478.5,-138.7 521.5,-138.7 521.5,-119.7 478.5,-119.7"/>
<polygon fill="none" stroke="#000000" points="478.5,-119.7 478.5,-138.7 521.5,-138.7 521.5,-119.7 478.5,-119.7"/>
<text text-anchor="start" x="512.3862" y="-125.8" font-family="Helvetica,sans-Serif" font-size="11.00" fill="#000000"> &#160;</text>
</a>
</g>
</g>
<!-- trade_amendments&#45;&gt;cds_trades -->
<g id="edge14" class="edge">
<title>trade_amendments:w&#45;&gt;cds_trades:e</title>
<path fill="none" stroke="#000000" d="M337.8855,-148.6965C235.237,-162.9804 204.362,-327.1023 195.6722,-400.0811"/>
<polygon fill="#000000" stroke="#000000" points="344.5185,-148.2443 352.7449,-151.2917 348.5093,-147.9721 352.5,-147.7 352.5,-147.7 352.5,-147.7 348.5093,-147.9721 352.2551,-144.1083 344.5185,-148.2443 344.5185,-148.2443"/>
<ellipse fill="none" stroke="#000000" cx="341.3259" cy="-148.462" rx="3.2" ry="3.2"/>
</g>
<!-- trade_novations -->
<g id="node13" class="node">
<title>trade_novations</title>
<g id="a_node13"><a xlink:href="../../tables/trade_novations.html" xlink:title="trade_novations" target="_top">
<polygon fill="#ffffff" stroke="transparent" points="363,-38.2 363,-99.2 510,-99.2 510,-38.2 363,-38.2"/>
<polygon fill="#f5f5f5" stroke="transparent" points="363.5,-75.7 363.5,-98.7 510.5,-98.7 510.5,-75.7 363.5,-75.7"/>
<polygon fill="none" stroke="#000000" points="363.5,-75.7 363.5,-98.7 510.5,-98.7 510.5,-75.7 363.5,-75.7"/>
<text text-anchor="start" x="368.5" y="-84.3" font-family="Helvetica,sans-Serif" font-weight="bold" font-size="11.00" fill="#000000">trade_novations</text>
<text text-anchor="start" x="476.0219" y="-83.8" font-family="Helvetica,sans-Serif" font-size="11.00" fill="#000000">[table]</text>
<polygon fill="none" stroke="#000000" points="363.5,-56.7 363.5,-75.7 510.5,-75.7 510.5,-56.7 363.5,-56.7"/>
<text text-anchor="start" x="366.5" y="-62.8" font-family="Helvetica,sans-Serif" font-size="11.00" fill="#000000">...</text>
<polygon fill="#ffffff" stroke="transparent" points="363.5,-37.7 363.5,-56.7 435.5,-56.7 435.5,-37.7 363.5,-37.7"/>
<polygon fill="none" stroke="#000000" points="363.5,-37.7 363.5,-56.7 435.5,-56.7 435.5,-37.7 363.5,-37.7"/>
<text text-anchor="start" x="366.5" y="-43.8" font-family="Helvetica,sans-Serif" font-size="11.00" fill="#000000">&lt; 2</text>
<polygon fill="#ffffff" stroke="transparent" points="435.5,-37.7 435.5,-56.7 472.5,-56.7 472.5,-37.7 435.5,-37.7"/>
<polygon fill="none" stroke="#000000" points="435.5,-37.7 435.5,-56.7 472.5,-56.7 472.5,-37.7 435.5,-37.7"/>
<text text-anchor="start" x="463.3862" y="-43.8" font-family="Helvetica,sans-Serif" font-size="11.00" fill="#000000"> &#160;</text>
<polygon fill="#ffffff" stroke="transparent" points="472.5,-37.7 472.5,-56.7 510.5,-56.7 510.5,-37.7 472.5,-37.7"/>
<polygon fill="none" stroke="#000000" points="472.5,-37.7 472.5,-56.7 510.5,-56.7 510.5,-37.7 472.5,-37.7"/>
<text text-anchor="start" x="501.3862" y="-43.8" font-family="Helvetica,sans-Serif" font-size="11.00" fill="#000000"> &#160;</text>
</a>
</g>
</g>
<!-- trade_novations&#45;&gt;cds_trades -->
<g id="edge15" class="edge">
<title>trade_novations:w&#45;&gt;cds_trades:e</title>
<path fill="none" stroke="#000000" d="M349.0944,-64.3354C321.4497,-63.7543 309.4317,-77.5351 289,-103.7 218.361,-194.1608 199.3453,-335.3802 194.2939,-400.1957"/>
<polygon fill="#000000" stroke="#000000" points="355.5357,-64.9455 363.1605,-69.284 359.5178,-65.3228 363.5,-65.7 363.5,-65.7 363.5,-65.7 359.5178,-65.3228 363.8395,-62.116 355.5357,-64.9455 355.5357,-64.9455"/>
<ellipse fill="none" stroke="#000000" cx="352.3499" cy="-64.6437" rx="3.2" ry="3.2"/>
</g>
<!-- trade_novations&#45;&gt;cds_trades -->
<g id="edge16" class="edge">
<title>trade_novations:w&#45;&gt;cds_trades:e</title>
<path fill="none" stroke="#000000" d="M349.0944,-68.9717C321.4497,-76.7543 309.4317,-90.5351 289,-116.7 221.1685,-203.5655 200.9384,-337.2353 194.9647,-400.0263"/>
<polygon fill="#000000" stroke="#000000" points="355.6987,-67.4718 364.2973,-69.2106 359.5993,-66.5859 363.5,-65.7 363.5,-65.7 363.5,-65.7 359.5993,-66.5859 362.7027,-62.1894 355.6987,-67.4718 355.6987,-67.4718"/>
<ellipse fill="none" stroke="#000000" cx="352.5781" cy="-68.1805" rx="3.2" ry="3.2"/>
</g>
</g>
</svg>
