<?xml version="1.0" encoding="UTF-8" standalone="no"?>
<!DOCTYPE svg PUBLIC "-//W3C//DTD SVG 1.1//EN"
 "http://www.w3.org/Graphics/SVG/1.1/DTD/svg11.dtd">
<!-- Generated by graphviz version 2.40.1 (20161225.0304)
 -->
<!-- Title: twoDegreesRelationshipsDiagram Pages: 1 -->
<svg width="481pt" height="531pt"
 viewBox="0.00 0.00 481.00 530.70" xmlns="http://www.w3.org/2000/svg" xmlns:xlink="http://www.w3.org/1999/xlink">
<g id="graph0" class="graph" transform="scale(1 1) rotate(0) translate(4 526.7)">
<title>twoDegreesRelationshipsDiagram</title>
<polygon fill="#ffffff" stroke="transparent" points="-4,4 -4,-526.7 477,-526.7 477,4 -4,4"/>
<text text-anchor="middle" x="72.4936" y="-7.3" font-family="Helvetica,sans-Serif" font-size="11.00" fill="#000000">Generated by SchemaSpy</text>
<!-- crif_sensitivities -->
<g id="node1" class="node">
<title>crif_sensitivities</title>
<g id="a_node1"><a xlink:href="../../tables/crif_sensitivities.html" xlink:title="crif_sensitivities" target="_top">
<polygon fill="#ffffff" stroke="transparent" points="202,-120.7 202,-518.7 465,-518.7 465,-120.7 202,-120.7"/>
<polygon fill="#f5f5f5" stroke="transparent" points="204.5,-493.7 204.5,-516.7 463.5,-516.7 463.5,-493.7 204.5,-493.7"/>
<polygon fill="none" stroke="#000000" points="204.5,-493.7 204.5,-516.7 463.5,-516.7 463.5,-493.7 204.5,-493.7"/>
<text text-anchor="start" x="209.5" y="-502.3" font-family="Helvetica,sans-Serif" font-weight="bold" font-size="11.00" fill="#000000">crif_sensitivities</text>
<text text-anchor="start" x="428.5437" y="-501.8" font-family="Helvetica,sans-Serif" font-size="11.00" fill="#000000">[table]</text>
<polygon fill="none" stroke="#000000" points="204.5,-471.7 204.5,-493.7 379.5,-493.7 379.5,-471.7 204.5,-471.7"/>
<image xlink:href="../../images/primaryKeys.png" width="11px" height="12px" preserveAspectRatio="xMinYMin meet" x="209.5" y="-488.7"/>
<text text-anchor="start" x="224.5" y="-478.8" font-family="Helvetica,sans-Serif" font-size="11.00" fill="#000000">id</text>
<polygon fill="none" stroke="#000000" points="379.5,-471.7 379.5,-493.7 463.5,-493.7 463.5,-471.7 379.5,-471.7"/>
<text text-anchor="start" x="382.5" y="-479.4" font-family="Helvetica,sans-Serif" font-size="11.00" fill="#000000">bigserial[19]</text>
<polygon fill="#ffffff" stroke="transparent" points="204.5,-449.7 204.5,-471.7 379.5,-471.7 379.5,-449.7 204.5,-449.7"/>
<polygon fill="none" stroke="#000000" points="204.5,-449.7 204.5,-471.7 379.5,-471.7 379.5,-449.7 204.5,-449.7"/>
<image xlink:href="../../images/foreignKeys.png" width="11px" height="12px" preserveAspectRatio="xMinYMin meet" x="209.5" y="-466.7"/>
<text text-anchor="start" x="224.5" y="-456.8" font-family="Helvetica,sans-Serif" font-size="11.00" fill="#000000">upload_id</text>
<polygon fill="none" stroke="#000000" points="379.5,-449.7 379.5,-471.7 463.5,-471.7 463.5,-449.7 379.5,-449.7"/>
<text text-anchor="start" x="382.5" y="-457.4" font-family="Helvetica,sans-Serif" font-size="11.00" fill="#000000">int8[19]</text>
<polygon fill="#ffffff" stroke="transparent" points="204.5,-427.7 204.5,-449.7 379.5,-449.7 379.5,-427.7 204.5,-427.7"/>
<polygon fill="none" stroke="#000000" points="204.5,-427.7 204.5,-449.7 379.5,-449.7 379.5,-427.7 204.5,-427.7"/>
<text text-anchor="start" x="224.5" y="-434.8" font-family="Helvetica,sans-Serif" font-size="11.00" fill="#000000">trade_id</text>
<polygon fill="none" stroke="#000000" points="379.5,-427.7 379.5,-449.7 463.5,-449.7 463.5,-427.7 379.5,-427.7"/>
<text text-anchor="start" x="382.5" y="-435.4" font-family="Helvetica,sans-Serif" font-size="11.00" fill="#000000">varchar[100]</text>
<polygon fill="#ffffff" stroke="transparent" points="204.5,-405.7 204.5,-427.7 379.5,-427.7 379.5,-405.7 204.5,-405.7"/>
<polygon fill="none" stroke="#000000" points="204.5,-405.7 204.5,-427.7 379.5,-427.7 379.5,-405.7 204.5,-405.7"/>
<text text-anchor="start" x="224.5" y="-412.8" font-family="Helvetica,sans-Serif" font-size="11.00" fill="#000000">portfolio_id</text>
<polygon fill="none" stroke="#000000" points="379.5,-405.7 379.5,-427.7 463.5,-427.7 463.5,-405.7 379.5,-405.7"/>
<text text-anchor="start" x="382.5" y="-413.4" font-family="Helvetica,sans-Serif" font-size="11.00" fill="#000000">varchar[100]</text>
<polygon fill="#ffffff" stroke="transparent" points="204.5,-383.7 204.5,-405.7 379.5,-405.7 379.5,-383.7 204.5,-383.7"/>
<polygon fill="none" stroke="#000000" points="204.5,-383.7 204.5,-405.7 379.5,-405.7 379.5,-383.7 204.5,-383.7"/>
<text text-anchor="start" x="224.5" y="-390.8" font-family="Helvetica,sans-Serif" font-size="11.00" fill="#000000">product_class</text>
<polygon fill="none" stroke="#000000" points="379.5,-383.7 379.5,-405.7 463.5,-405.7 463.5,-383.7 379.5,-383.7"/>
<text text-anchor="start" x="382.5" y="-391.4" font-family="Helvetica,sans-Serif" font-size="11.00" fill="#000000">varchar[50]</text>
<polygon fill="none" stroke="#000000" points="204.5,-361.7 204.5,-383.7 379.5,-383.7 379.5,-361.7 204.5,-361.7"/>
<text text-anchor="start" x="224.5" y="-368.8" font-family="Helvetica,sans-Serif" font-size="11.00" fill="#000000">risk_type</text>
<polygon fill="none" stroke="#000000" points="379.5,-361.7 379.5,-383.7 463.5,-383.7 463.5,-361.7 379.5,-361.7"/>
<text text-anchor="start" x="382.5" y="-369.4" font-family="Helvetica,sans-Serif" font-size="11.00" fill="#000000">varchar[50]</text>
<polygon fill="#ffffff" stroke="transparent" points="204.5,-339.7 204.5,-361.7 379.5,-361.7 379.5,-339.7 204.5,-339.7"/>
<polygon fill="none" stroke="#000000" points="204.5,-339.7 204.5,-361.7 379.5,-361.7 379.5,-339.7 204.5,-339.7"/>
<text text-anchor="start" x="224.5" y="-346.8" font-family="Helvetica,sans-Serif" font-size="11.00" fill="#000000">risk_class</text>
<polygon fill="none" stroke="#000000" points="379.5,-339.7 379.5,-361.7 463.5,-361.7 463.5,-339.7 379.5,-339.7"/>
<text text-anchor="start" x="382.5" y="-347.4" font-family="Helvetica,sans-Serif" font-size="11.00" fill="#000000">varchar[20]</text>
<polygon fill="none" stroke="#000000" points="204.5,-317.7 204.5,-339.7 379.5,-339.7 379.5,-317.7 204.5,-317.7"/>
<text text-anchor="start" x="224.5" y="-324.8" font-family="Helvetica,sans-Serif" font-size="11.00" fill="#000000">bucket</text>
<polygon fill="none" stroke="#000000" points="379.5,-317.7 379.5,-339.7 463.5,-339.7 463.5,-317.7 379.5,-317.7"/>
<text text-anchor="start" x="382.5" y="-325.4" font-family="Helvetica,sans-Serif" font-size="11.00" fill="#000000">varchar[10]</text>
<polygon fill="none" stroke="#000000" points="204.5,-295.7 204.5,-317.7 379.5,-317.7 379.5,-295.7 204.5,-295.7"/>
<text text-anchor="start" x="224.5" y="-302.8" font-family="Helvetica,sans-Serif" font-size="11.00" fill="#000000">label1</text>
<polygon fill="none" stroke="#000000" points="379.5,-295.7 379.5,-317.7 463.5,-317.7 463.5,-295.7 379.5,-295.7"/>
<text text-anchor="start" x="382.5" y="-303.4" font-family="Helvetica,sans-Serif" font-size="11.00" fill="#000000">varchar[100]</text>
<polygon fill="none" stroke="#000000" points="204.5,-273.7 204.5,-295.7 379.5,-295.7 379.5,-273.7 204.5,-273.7"/>
<text text-anchor="start" x="224.5" y="-280.8" font-family="Helvetica,sans-Serif" font-size="11.00" fill="#000000">label2</text>
<polygon fill="none" stroke="#000000" points="379.5,-273.7 379.5,-295.7 463.5,-295.7 463.5,-273.7 379.5,-273.7"/>
<text text-anchor="start" x="382.5" y="-281.4" font-family="Helvetica,sans-Serif" font-size="11.00" fill="#000000">varchar[100]</text>
<polygon fill="none" stroke="#000000" points="204.5,-251.7 204.5,-273.7 379.5,-273.7 379.5,-251.7 204.5,-251.7"/>
<text text-anchor="start" x="224.5" y="-258.8" font-family="Helvetica,sans-Serif" font-size="11.00" fill="#000000">amount_base_currency</text>
<polygon fill="none" stroke="#000000" points="379.5,-251.7 379.5,-273.7 463.5,-273.7 463.5,-251.7 379.5,-251.7"/>
<text text-anchor="start" x="382.5" y="-259.4" font-family="Helvetica,sans-Serif" font-size="11.00" fill="#000000">numeric[20,8]</text>
<polygon fill="none" stroke="#000000" points="204.5,-229.7 204.5,-251.7 379.5,-251.7 379.5,-229.7 204.5,-229.7"/>
<text text-anchor="start" x="224.5" y="-236.8" font-family="Helvetica,sans-Serif" font-size="11.00" fill="#000000">amount_usd</text>
<polygon fill="none" stroke="#000000" points="379.5,-229.7 379.5,-251.7 463.5,-251.7 463.5,-229.7 379.5,-229.7"/>
<text text-anchor="start" x="382.5" y="-237.4" font-family="Helvetica,sans-Serif" font-size="11.00" fill="#000000">numeric[20,8]</text>
<polygon fill="none" stroke="#000000" points="204.5,-207.7 204.5,-229.7 379.5,-229.7 379.5,-207.7 204.5,-207.7"/>
<text text-anchor="start" x="224.5" y="-214.8" font-family="Helvetica,sans-Serif" font-size="11.00" fill="#000000">collect_regulations</text>
<polygon fill="none" stroke="#000000" points="379.5,-207.7 379.5,-229.7 463.5,-229.7 463.5,-207.7 379.5,-207.7"/>
<text text-anchor="start" x="382.5" y="-215.4" font-family="Helvetica,sans-Serif" font-size="11.00" fill="#000000">varchar[50]</text>
<polygon fill="none" stroke="#000000" points="204.5,-185.7 204.5,-207.7 379.5,-207.7 379.5,-185.7 204.5,-185.7"/>
<text text-anchor="start" x="224.5" y="-192.8" font-family="Helvetica,sans-Serif" font-size="11.00" fill="#000000">post_regulations</text>
<polygon fill="none" stroke="#000000" points="379.5,-185.7 379.5,-207.7 463.5,-207.7 463.5,-185.7 379.5,-185.7"/>
<text text-anchor="start" x="382.5" y="-193.4" font-family="Helvetica,sans-Serif" font-size="11.00" fill="#000000">varchar[50]</text>
<polygon fill="none" stroke="#000000" points="204.5,-163.7 204.5,-185.7 379.5,-185.7 379.5,-163.7 204.5,-163.7"/>
<text text-anchor="start" x="224.5" y="-170.8" font-family="Helvetica,sans-Serif" font-size="11.00" fill="#000000">end_date</text>
<polygon fill="none" stroke="#000000" points="379.5,-163.7 379.5,-185.7 463.5,-185.7 463.5,-163.7 379.5,-163.7"/>
<text text-anchor="start" x="382.5" y="-171.4" font-family="Helvetica,sans-Serif" font-size="11.00" fill="#000000">date[13]</text>
<polygon fill="none" stroke="#000000" points="204.5,-141.7 204.5,-163.7 379.5,-163.7 379.5,-141.7 204.5,-141.7"/>
<text text-anchor="start" x="224.5" y="-148.8" font-family="Helvetica,sans-Serif" font-size="11.00" fill="#000000">created_at</text>
<polygon fill="none" stroke="#000000" points="379.5,-141.7 379.5,-163.7 463.5,-163.7 463.5,-141.7 379.5,-141.7"/>
<text text-anchor="start" x="382.3807" y="-149.4" font-family="Helvetica,sans-Serif" font-size="11.00" fill="#000000">timestamp[29,6]</text>
<polygon fill="#ffffff" stroke="transparent" points="204.5,-122.7 204.5,-141.7 296.5,-141.7 296.5,-122.7 204.5,-122.7"/>
<polygon fill="none" stroke="#000000" points="204.5,-122.7 204.5,-141.7 296.5,-141.7 296.5,-122.7 204.5,-122.7"/>
<text text-anchor="start" x="207.5" y="-128.8" font-family="Helvetica,sans-Serif" font-size="11.00" fill="#000000">&lt; 1</text>
<polygon fill="#ffffff" stroke="transparent" points="296.5,-122.7 296.5,-141.7 379.5,-141.7 379.5,-122.7 296.5,-122.7"/>
<polygon fill="none" stroke="#000000" points="296.5,-122.7 296.5,-141.7 379.5,-141.7 379.5,-122.7 296.5,-122.7"/>
<text text-anchor="start" x="370.3862" y="-128.8" font-family="Helvetica,sans-Serif" font-size="11.00" fill="#000000"> &#160;</text>
<polygon fill="#ffffff" stroke="transparent" points="379.5,-122.7 379.5,-141.7 463.5,-141.7 463.5,-122.7 379.5,-122.7"/>
<polygon fill="none" stroke="#000000" points="379.5,-122.7 379.5,-141.7 463.5,-141.7 463.5,-122.7 379.5,-122.7"/>
<text text-anchor="start" x="444.9053" y="-128.8" font-family="Helvetica,sans-Serif" font-size="11.00" fill="#000000">0 &gt;</text>
<polygon fill="none" stroke="#000000" stroke-width="2" points="203,-121.7 203,-517.7 464,-517.7 464,-121.7 203,-121.7"/>
</a>
</g>
</g>
<!-- crif_uploads -->
<g id="node2" class="node">
<title>crif_uploads</title>
<g id="a_node2"><a xlink:href="../../tables/crif_uploads.html" xlink:title="crif_uploads" target="_top">
<polygon fill="#ffffff" stroke="transparent" points="8,-104.2 8,-297.2 153,-297.2 153,-104.2 8,-104.2"/>
<polygon fill="#f5f5f5" stroke="transparent" points="8.5,-273.7 8.5,-296.7 153.5,-296.7 153.5,-273.7 8.5,-273.7"/>
<polygon fill="none" stroke="#000000" points="8.5,-273.7 8.5,-296.7 153.5,-296.7 153.5,-273.7 8.5,-273.7"/>
<text text-anchor="start" x="13.5" y="-282.3" font-family="Helvetica,sans-Serif" font-weight="bold" font-size="11.00" fill="#000000">crif_uploads</text>
<text text-anchor="start" x="118.5437" y="-281.8" font-family="Helvetica,sans-Serif" font-size="11.00" fill="#000000">[table]</text>
<polygon fill="none" stroke="#000000" points="8.5,-251.7 8.5,-273.7 153.5,-273.7 153.5,-251.7 8.5,-251.7"/>
<image xlink:href="../../images/primaryKeys.png" width="11px" height="12px" preserveAspectRatio="xMinYMin meet" x="13.5" y="-268.7"/>
<text text-anchor="start" x="28.5" y="-258.8" font-family="Helvetica,sans-Serif" font-size="11.00" fill="#000000">id</text>
<polygon fill="#ffffff" stroke="transparent" points="8.5,-229.7 8.5,-251.7 153.5,-251.7 153.5,-229.7 8.5,-229.7"/>
<polygon fill="none" stroke="#000000" points="8.5,-229.7 8.5,-251.7 153.5,-251.7 153.5,-229.7 8.5,-229.7"/>
<text text-anchor="start" x="28.5" y="-236.8" font-family="Helvetica,sans-Serif" font-size="11.00" fill="#000000">upload_id</text>
<polygon fill="#ffffff" stroke="transparent" points="8.5,-207.7 8.5,-229.7 153.5,-229.7 153.5,-207.7 8.5,-207.7"/>
<polygon fill="none" stroke="#000000" points="8.5,-207.7 8.5,-229.7 153.5,-229.7 153.5,-207.7 8.5,-207.7"/>
<text text-anchor="start" x="28.5" y="-214.8" font-family="Helvetica,sans-Serif" font-size="11.00" fill="#000000">portfolio_id</text>
<polygon fill="#ffffff" stroke="transparent" points="8.5,-185.7 8.5,-207.7 153.5,-207.7 153.5,-185.7 8.5,-185.7"/>
<polygon fill="none" stroke="#000000" points="8.5,-185.7 8.5,-207.7 153.5,-207.7 153.5,-185.7 8.5,-185.7"/>
<text text-anchor="start" x="28.5" y="-192.8" font-family="Helvetica,sans-Serif" font-size="11.00" fill="#000000">valuation_date</text>
<polygon fill="#ffffff" stroke="transparent" points="8.5,-163.7 8.5,-185.7 153.5,-185.7 153.5,-163.7 8.5,-163.7"/>
<polygon fill="none" stroke="#000000" points="8.5,-163.7 8.5,-185.7 153.5,-185.7 153.5,-163.7 8.5,-163.7"/>
<text text-anchor="start" x="28.5" y="-170.8" font-family="Helvetica,sans-Serif" font-size="11.00" fill="#000000">processing_status</text>
<polygon fill="#ffffff" stroke="transparent" points="8.5,-141.7 8.5,-163.7 153.5,-163.7 153.5,-141.7 8.5,-141.7"/>
<polygon fill="none" stroke="#000000" points="8.5,-141.7 8.5,-163.7 153.5,-163.7 153.5,-141.7 8.5,-141.7"/>
<text text-anchor="start" x="28.5" y="-148.8" font-family="Helvetica,sans-Serif" font-size="11.00" fill="#000000">created_at</text>
<polygon fill="none" stroke="#000000" points="8.5,-122.7 8.5,-141.7 153.5,-141.7 153.5,-122.7 8.5,-122.7"/>
<text text-anchor="start" x="11.5" y="-128.8" font-family="Helvetica,sans-Serif" font-size="11.00" fill="#000000">...</text>
<polygon fill="#ffffff" stroke="transparent" points="8.5,-103.7 8.5,-122.7 70.5,-122.7 70.5,-103.7 8.5,-103.7"/>
<polygon fill="none" stroke="#000000" points="8.5,-103.7 8.5,-122.7 70.5,-122.7 70.5,-103.7 8.5,-103.7"/>
<text text-anchor="start" x="11.5" y="-109.8" font-family="Helvetica,sans-Serif" font-size="11.00" fill="#000000"> &#160;</text>
<polygon fill="#ffffff" stroke="transparent" points="70.5,-103.7 70.5,-122.7 107.5,-122.7 107.5,-103.7 70.5,-103.7"/>
<polygon fill="none" stroke="#000000" points="70.5,-103.7 70.5,-122.7 107.5,-122.7 107.5,-103.7 70.5,-103.7"/>
<text text-anchor="start" x="98.3862" y="-109.8" font-family="Helvetica,sans-Serif" font-size="11.00" fill="#000000"> &#160;</text>
<polygon fill="#ffffff" stroke="transparent" points="107.5,-103.7 107.5,-122.7 153.5,-122.7 153.5,-103.7 107.5,-103.7"/>
<polygon fill="none" stroke="#000000" points="107.5,-103.7 107.5,-122.7 153.5,-122.7 153.5,-103.7 107.5,-103.7"/>
<text text-anchor="start" x="134.9053" y="-109.8" font-family="Helvetica,sans-Serif" font-size="11.00" fill="#000000">2 &gt;</text>
</a>
</g>
</g>
<!-- crif_sensitivities&#45;&gt;crif_uploads -->
<g id="edge1" class="edge">
<title>crif_sensitivities:w&#45;&gt;crif_uploads:e</title>
<path fill="none" stroke="#000000" d="M189.9503,-458.4764C129.1051,-436.7234 238.6928,-262.7 153.5,-262.7"/>
<polygon fill="#000000" stroke="#000000" points="196.5918,-459.4913 203.9561,-464.2587 200.5459,-460.0957 204.5,-460.7 204.5,-460.7 204.5,-460.7 200.5459,-460.0957 205.0439,-457.1413 196.5918,-459.4913 196.5918,-459.4913"/>
<ellipse fill="none" stroke="#000000" cx="193.4286" cy="-459.0079" rx="3.2" ry="3.2"/>
</g>
<!-- simm_calculations -->
<g id="node3" class="node">
<title>simm_calculations</title>
<g id="a_node3"><a xlink:href="../../tables/simm_calculations.html" xlink:title="simm_calculations" target="_top">
<polygon fill="#ffffff" stroke="transparent" points="252.5,-38.2 252.5,-99.2 414.5,-99.2 414.5,-38.2 252.5,-38.2"/>
<polygon fill="#f5f5f5" stroke="transparent" points="252.5,-75.7 252.5,-98.7 414.5,-98.7 414.5,-75.7 252.5,-75.7"/>
<polygon fill="none" stroke="#000000" points="252.5,-75.7 252.5,-98.7 414.5,-98.7 414.5,-75.7 252.5,-75.7"/>
<text text-anchor="start" x="257.5" y="-84.3" font-family="Helvetica,sans-Serif" font-weight="bold" font-size="11.00" fill="#000000">simm_calculations</text>
<text text-anchor="start" x="380.0219" y="-83.8" font-family="Helvetica,sans-Serif" font-size="11.00" fill="#000000">[table]</text>
<polygon fill="none" stroke="#000000" points="252.5,-56.7 252.5,-75.7 414.5,-75.7 414.5,-56.7 252.5,-56.7"/>
<text text-anchor="start" x="255.5" y="-62.8" font-family="Helvetica,sans-Serif" font-size="11.00" fill="#000000">...</text>
<polygon fill="#ffffff" stroke="transparent" points="252.5,-37.7 252.5,-56.7 327.5,-56.7 327.5,-37.7 252.5,-37.7"/>
<polygon fill="none" stroke="#000000" points="252.5,-37.7 252.5,-56.7 327.5,-56.7 327.5,-37.7 252.5,-37.7"/>
<text text-anchor="start" x="255.5" y="-43.8" font-family="Helvetica,sans-Serif" font-size="11.00" fill="#000000">&lt; 2</text>
<polygon fill="#ffffff" stroke="transparent" points="327.5,-37.7 327.5,-56.7 366.5,-56.7 366.5,-37.7 327.5,-37.7"/>
<polygon fill="none" stroke="#000000" points="327.5,-37.7 327.5,-56.7 366.5,-56.7 366.5,-37.7 327.5,-37.7"/>
<text text-anchor="start" x="357.3862" y="-43.8" font-family="Helvetica,sans-Serif" font-size="11.00" fill="#000000"> &#160;</text>
<polygon fill="#ffffff" stroke="transparent" points="366.5,-37.7 366.5,-56.7 414.5,-56.7 414.5,-37.7 366.5,-37.7"/>
<polygon fill="none" stroke="#000000" points="366.5,-37.7 366.5,-56.7 414.5,-56.7 414.5,-37.7 366.5,-37.7"/>
<text text-anchor="start" x="395.9053" y="-43.8" font-family="Helvetica,sans-Serif" font-size="11.00" fill="#000000">2 &gt;</text>
</a>
</g>
</g>
<!-- simm_calculations&#45;&gt;crif_uploads -->
<g id="edge2" class="edge">
<title>simm_calculations:w&#45;&gt;crif_uploads:e</title>
<path fill="none" stroke="#000000" d="M237.941,-67.1599C216.8737,-71.9175 209.1335,-87.9873 194,-110.7 155.2343,-168.8805 223.4125,-262.7 153.5,-262.7"/>
<polygon fill="#000000" stroke="#000000" points="244.5399,-66.4982 252.8592,-69.282 248.52,-66.0991 252.5,-65.7 252.5,-65.7 252.5,-65.7 248.52,-66.0991 252.1408,-62.118 244.5399,-66.4982 244.5399,-66.4982"/>
<ellipse fill="none" stroke="#000000" cx="241.3559" cy="-66.8175" rx="3.2" ry="3.2"/>
</g>
</g>
</svg>
