<?xml version="1.0" encoding="UTF-8" standalone="no"?>
<!DOCTYPE svg PUBLIC "-//W3C//DTD SVG 1.1//EN"
 "http://www.w3.org/Graphics/SVG/1.1/DTD/svg11.dtd">
<!-- Generated by graphviz version 2.40.1 (20161225.0304)
 -->
<!-- Title: twoDegreesRelationshipsDiagram Pages: 1 -->
<svg width="743pt" height="558pt"
 viewBox="0.00 0.00 743.00 558.20" xmlns="http://www.w3.org/2000/svg" xmlns:xlink="http://www.w3.org/1999/xlink">
<g id="graph0" class="graph" transform="scale(1 1) rotate(0) translate(4 554.2)">
<title>twoDegreesRelationshipsDiagram</title>
<polygon fill="#ffffff" stroke="transparent" points="-4,4 -4,-554.2 739,-554.2 739,4 -4,4"/>
<text text-anchor="middle" x="72.4936" y="-7.3" font-family="Helvetica,sans-Serif" font-size="11.00" fill="#000000">Generated by SchemaSpy</text>
<!-- crif_sensitivities -->
<g id="node1" class="node">
<title>crif_sensitivities</title>
<g id="a_node1"><a xlink:href="../../tables/crif_sensitivities.html" xlink:title="crif_sensitivities" target="_top">
<polygon fill="#ffffff" stroke="transparent" points="296,-353.2 296,-546.2 471,-546.2 471,-353.2 296,-353.2"/>
<polygon fill="#f5f5f5" stroke="transparent" points="296.5,-522.7 296.5,-545.7 471.5,-545.7 471.5,-522.7 296.5,-522.7"/>
<polygon fill="none" stroke="#000000" points="296.5,-522.7 296.5,-545.7 471.5,-545.7 471.5,-522.7 296.5,-522.7"/>
<text text-anchor="start" x="301.5" y="-531.3" font-family="Helvetica,sans-Serif" font-weight="bold" font-size="11.00" fill="#000000">crif_sensitivities</text>
<text text-anchor="start" x="436.5437" y="-530.8" font-family="Helvetica,sans-Serif" font-size="11.00" fill="#000000">[table]</text>
<polygon fill="none" stroke="#000000" points="296.5,-500.7 296.5,-522.7 471.5,-522.7 471.5,-500.7 296.5,-500.7"/>
<image xlink:href="../../images/primaryKeys.png" width="11px" height="12px" preserveAspectRatio="xMinYMin meet" x="301.5" y="-517.7"/>
<text text-anchor="start" x="316.5" y="-507.8" font-family="Helvetica,sans-Serif" font-size="11.00" fill="#000000">id</text>
<polygon fill="#ffffff" stroke="transparent" points="296.5,-478.7 296.5,-500.7 471.5,-500.7 471.5,-478.7 296.5,-478.7"/>
<polygon fill="none" stroke="#000000" points="296.5,-478.7 296.5,-500.7 471.5,-500.7 471.5,-478.7 296.5,-478.7"/>
<image xlink:href="../../images/foreignKeys.png" width="11px" height="12px" preserveAspectRatio="xMinYMin meet" x="301.5" y="-495.7"/>
<text text-anchor="start" x="316.5" y="-485.8" font-family="Helvetica,sans-Serif" font-size="11.00" fill="#000000">upload_id</text>
<polygon fill="#ffffff" stroke="transparent" points="296.5,-456.7 296.5,-478.7 471.5,-478.7 471.5,-456.7 296.5,-456.7"/>
<polygon fill="none" stroke="#000000" points="296.5,-456.7 296.5,-478.7 471.5,-478.7 471.5,-456.7 296.5,-456.7"/>
<text text-anchor="start" x="316.5" y="-463.8" font-family="Helvetica,sans-Serif" font-size="11.00" fill="#000000">trade_id</text>
<polygon fill="#ffffff" stroke="transparent" points="296.5,-434.7 296.5,-456.7 471.5,-456.7 471.5,-434.7 296.5,-434.7"/>
<polygon fill="none" stroke="#000000" points="296.5,-434.7 296.5,-456.7 471.5,-456.7 471.5,-434.7 296.5,-434.7"/>
<text text-anchor="start" x="316.5" y="-441.8" font-family="Helvetica,sans-Serif" font-size="11.00" fill="#000000">portfolio_id</text>
<polygon fill="#ffffff" stroke="transparent" points="296.5,-412.7 296.5,-434.7 471.5,-434.7 471.5,-412.7 296.5,-412.7"/>
<polygon fill="none" stroke="#000000" points="296.5,-412.7 296.5,-434.7 471.5,-434.7 471.5,-412.7 296.5,-412.7"/>
<text text-anchor="start" x="316.5" y="-419.8" font-family="Helvetica,sans-Serif" font-size="11.00" fill="#000000">product_class</text>
<polygon fill="#ffffff" stroke="transparent" points="296.5,-390.7 296.5,-412.7 471.5,-412.7 471.5,-390.7 296.5,-390.7"/>
<polygon fill="none" stroke="#000000" points="296.5,-390.7 296.5,-412.7 471.5,-412.7 471.5,-390.7 296.5,-390.7"/>
<text text-anchor="start" x="316.5" y="-397.8" font-family="Helvetica,sans-Serif" font-size="11.00" fill="#000000">risk_class</text>
<polygon fill="none" stroke="#000000" points="296.5,-371.7 296.5,-390.7 471.5,-390.7 471.5,-371.7 296.5,-371.7"/>
<text text-anchor="start" x="299.5" y="-377.8" font-family="Helvetica,sans-Serif" font-size="11.00" fill="#000000">...</text>
<polygon fill="#ffffff" stroke="transparent" points="296.5,-352.7 296.5,-371.7 382.5,-371.7 382.5,-352.7 296.5,-352.7"/>
<polygon fill="none" stroke="#000000" points="296.5,-352.7 296.5,-371.7 382.5,-371.7 382.5,-352.7 296.5,-352.7"/>
<text text-anchor="start" x="299.5" y="-358.8" font-family="Helvetica,sans-Serif" font-size="11.00" fill="#000000">&lt; 1</text>
<polygon fill="#ffffff" stroke="transparent" points="382.5,-352.7 382.5,-371.7 426.5,-371.7 426.5,-352.7 382.5,-352.7"/>
<polygon fill="none" stroke="#000000" points="382.5,-352.7 382.5,-371.7 426.5,-371.7 426.5,-352.7 382.5,-352.7"/>
<text text-anchor="start" x="417.3862" y="-358.8" font-family="Helvetica,sans-Serif" font-size="11.00" fill="#000000"> &#160;</text>
<polygon fill="#ffffff" stroke="transparent" points="426.5,-352.7 426.5,-371.7 471.5,-371.7 471.5,-352.7 426.5,-352.7"/>
<polygon fill="none" stroke="#000000" points="426.5,-352.7 426.5,-371.7 471.5,-371.7 471.5,-352.7 426.5,-352.7"/>
<text text-anchor="start" x="462.3862" y="-358.8" font-family="Helvetica,sans-Serif" font-size="11.00" fill="#000000"> &#160;</text>
</a>
</g>
</g>
<!-- crif_uploads -->
<g id="node2" class="node">
<title>crif_uploads</title>
<g id="a_node2"><a xlink:href="../../tables/crif_uploads.html" xlink:title="crif_uploads" target="_top">
<polygon fill="#ffffff" stroke="transparent" points="8,-171.7 8,-525.7 247,-525.7 247,-171.7 8,-171.7"/>
<polygon fill="#f5f5f5" stroke="transparent" points="10.5,-500.7 10.5,-523.7 245.5,-523.7 245.5,-500.7 10.5,-500.7"/>
<polygon fill="none" stroke="#000000" points="10.5,-500.7 10.5,-523.7 245.5,-523.7 245.5,-500.7 10.5,-500.7"/>
<text text-anchor="start" x="15.5" y="-509.3" font-family="Helvetica,sans-Serif" font-weight="bold" font-size="11.00" fill="#000000">crif_uploads</text>
<text text-anchor="start" x="210.5437" y="-508.8" font-family="Helvetica,sans-Serif" font-size="11.00" fill="#000000">[table]</text>
<polygon fill="none" stroke="#000000" points="10.5,-478.7 10.5,-500.7 155.5,-500.7 155.5,-478.7 10.5,-478.7"/>
<image xlink:href="../../images/primaryKeys.png" width="11px" height="12px" preserveAspectRatio="xMinYMin meet" x="15.5" y="-495.7"/>
<text text-anchor="start" x="30.5" y="-485.8" font-family="Helvetica,sans-Serif" font-size="11.00" fill="#000000">id</text>
<polygon fill="none" stroke="#000000" points="155.5,-478.7 155.5,-500.7 245.5,-500.7 245.5,-478.7 155.5,-478.7"/>
<text text-anchor="start" x="158.5" y="-486.4" font-family="Helvetica,sans-Serif" font-size="11.00" fill="#000000">bigserial[19]</text>
<polygon fill="#ffffff" stroke="transparent" points="10.5,-456.7 10.5,-478.7 155.5,-478.7 155.5,-456.7 10.5,-456.7"/>
<polygon fill="none" stroke="#000000" points="10.5,-456.7 10.5,-478.7 155.5,-478.7 155.5,-456.7 10.5,-456.7"/>
<text text-anchor="start" x="30.5" y="-463.8" font-family="Helvetica,sans-Serif" font-size="11.00" fill="#000000">upload_id</text>
<polygon fill="none" stroke="#000000" points="155.5,-456.7 155.5,-478.7 245.5,-478.7 245.5,-456.7 155.5,-456.7"/>
<text text-anchor="start" x="158.5" y="-464.4" font-family="Helvetica,sans-Serif" font-size="11.00" fill="#000000">varchar[100]</text>
<polygon fill="none" stroke="#000000" points="10.5,-434.7 10.5,-456.7 155.5,-456.7 155.5,-434.7 10.5,-434.7"/>
<text text-anchor="start" x="30.5" y="-441.8" font-family="Helvetica,sans-Serif" font-size="11.00" fill="#000000">filename</text>
<polygon fill="none" stroke="#000000" points="155.5,-434.7 155.5,-456.7 245.5,-456.7 245.5,-434.7 155.5,-434.7"/>
<text text-anchor="start" x="158.5" y="-442.4" font-family="Helvetica,sans-Serif" font-size="11.00" fill="#000000">varchar[255]</text>
<polygon fill="#ffffff" stroke="transparent" points="10.5,-412.7 10.5,-434.7 155.5,-434.7 155.5,-412.7 10.5,-412.7"/>
<polygon fill="none" stroke="#000000" points="10.5,-412.7 10.5,-434.7 155.5,-434.7 155.5,-412.7 10.5,-412.7"/>
<text text-anchor="start" x="30.5" y="-419.8" font-family="Helvetica,sans-Serif" font-size="11.00" fill="#000000">portfolio_id</text>
<polygon fill="none" stroke="#000000" points="155.5,-412.7 155.5,-434.7 245.5,-434.7 245.5,-412.7 155.5,-412.7"/>
<text text-anchor="start" x="158.5" y="-420.4" font-family="Helvetica,sans-Serif" font-size="11.00" fill="#000000">varchar[100]</text>
<polygon fill="#ffffff" stroke="transparent" points="10.5,-390.7 10.5,-412.7 155.5,-412.7 155.5,-390.7 10.5,-390.7"/>
<polygon fill="none" stroke="#000000" points="10.5,-390.7 10.5,-412.7 155.5,-412.7 155.5,-390.7 10.5,-390.7"/>
<text text-anchor="start" x="30.5" y="-397.8" font-family="Helvetica,sans-Serif" font-size="11.00" fill="#000000">valuation_date</text>
<polygon fill="none" stroke="#000000" points="155.5,-390.7 155.5,-412.7 245.5,-412.7 245.5,-390.7 155.5,-390.7"/>
<text text-anchor="start" x="158.5" y="-398.4" font-family="Helvetica,sans-Serif" font-size="11.00" fill="#000000">date[13]</text>
<polygon fill="none" stroke="#000000" points="10.5,-368.7 10.5,-390.7 155.5,-390.7 155.5,-368.7 10.5,-368.7"/>
<text text-anchor="start" x="30.5" y="-375.8" font-family="Helvetica,sans-Serif" font-size="11.00" fill="#000000">currency</text>
<polygon fill="none" stroke="#000000" points="155.5,-368.7 155.5,-390.7 245.5,-390.7 245.5,-368.7 155.5,-368.7"/>
<text text-anchor="start" x="158.5" y="-376.4" font-family="Helvetica,sans-Serif" font-size="11.00" fill="#000000">varchar[3]</text>
<polygon fill="none" stroke="#000000" points="10.5,-346.7 10.5,-368.7 155.5,-368.7 155.5,-346.7 10.5,-346.7"/>
<text text-anchor="start" x="30.5" y="-353.8" font-family="Helvetica,sans-Serif" font-size="11.00" fill="#000000">upload_timestamp</text>
<polygon fill="none" stroke="#000000" points="155.5,-346.7 155.5,-368.7 245.5,-368.7 245.5,-346.7 155.5,-346.7"/>
<text text-anchor="start" x="158.5" y="-354.4" font-family="Helvetica,sans-Serif" font-size="11.00" fill="#000000">timestamp[29,6]</text>
<polygon fill="none" stroke="#000000" points="10.5,-324.7 10.5,-346.7 155.5,-346.7 155.5,-324.7 10.5,-324.7"/>
<text text-anchor="start" x="30.5" y="-331.8" font-family="Helvetica,sans-Serif" font-size="11.00" fill="#000000">total_records</text>
<polygon fill="none" stroke="#000000" points="155.5,-324.7 155.5,-346.7 245.5,-346.7 245.5,-324.7 155.5,-324.7"/>
<text text-anchor="start" x="158.5" y="-332.4" font-family="Helvetica,sans-Serif" font-size="11.00" fill="#000000">int4[10]</text>
<polygon fill="none" stroke="#000000" points="10.5,-302.7 10.5,-324.7 155.5,-324.7 155.5,-302.7 10.5,-302.7"/>
<text text-anchor="start" x="30.5" y="-309.8" font-family="Helvetica,sans-Serif" font-size="11.00" fill="#000000">valid_records</text>
<polygon fill="none" stroke="#000000" points="155.5,-302.7 155.5,-324.7 245.5,-324.7 245.5,-302.7 155.5,-302.7"/>
<text text-anchor="start" x="158.5" y="-310.4" font-family="Helvetica,sans-Serif" font-size="11.00" fill="#000000">int4[10]</text>
<polygon fill="none" stroke="#000000" points="10.5,-280.7 10.5,-302.7 155.5,-302.7 155.5,-280.7 10.5,-280.7"/>
<text text-anchor="start" x="30.5" y="-287.8" font-family="Helvetica,sans-Serif" font-size="11.00" fill="#000000">error_records</text>
<polygon fill="none" stroke="#000000" points="155.5,-280.7 155.5,-302.7 245.5,-302.7 245.5,-280.7 155.5,-280.7"/>
<text text-anchor="start" x="158.5" y="-288.4" font-family="Helvetica,sans-Serif" font-size="11.00" fill="#000000">int4[10]</text>
<polygon fill="#ffffff" stroke="transparent" points="10.5,-258.7 10.5,-280.7 155.5,-280.7 155.5,-258.7 10.5,-258.7"/>
<polygon fill="none" stroke="#000000" points="10.5,-258.7 10.5,-280.7 155.5,-280.7 155.5,-258.7 10.5,-258.7"/>
<text text-anchor="start" x="30.5" y="-265.8" font-family="Helvetica,sans-Serif" font-size="11.00" fill="#000000">processing_status</text>
<polygon fill="none" stroke="#000000" points="155.5,-258.7 155.5,-280.7 245.5,-280.7 245.5,-258.7 155.5,-258.7"/>
<text text-anchor="start" x="158.5" y="-266.4" font-family="Helvetica,sans-Serif" font-size="11.00" fill="#000000">varchar[20]</text>
<polygon fill="none" stroke="#000000" points="10.5,-236.7 10.5,-258.7 155.5,-258.7 155.5,-236.7 10.5,-236.7"/>
<text text-anchor="start" x="30.5" y="-243.8" font-family="Helvetica,sans-Serif" font-size="11.00" fill="#000000">error_message</text>
<polygon fill="none" stroke="#000000" points="155.5,-236.7 155.5,-258.7 245.5,-258.7 245.5,-236.7 155.5,-236.7"/>
<text text-anchor="start" x="158.0042" y="-244.4" font-family="Helvetica,sans-Serif" font-size="11.00" fill="#000000">text[2147483647]</text>
<polygon fill="#ffffff" stroke="transparent" points="10.5,-214.7 10.5,-236.7 155.5,-236.7 155.5,-214.7 10.5,-214.7"/>
<polygon fill="none" stroke="#000000" points="10.5,-214.7 10.5,-236.7 155.5,-236.7 155.5,-214.7 10.5,-214.7"/>
<text text-anchor="start" x="30.5" y="-221.8" font-family="Helvetica,sans-Serif" font-size="11.00" fill="#000000">created_at</text>
<polygon fill="none" stroke="#000000" points="155.5,-214.7 155.5,-236.7 245.5,-236.7 245.5,-214.7 155.5,-214.7"/>
<text text-anchor="start" x="158.5" y="-222.4" font-family="Helvetica,sans-Serif" font-size="11.00" fill="#000000">timestamp[29,6]</text>
<polygon fill="none" stroke="#000000" points="10.5,-192.7 10.5,-214.7 155.5,-214.7 155.5,-192.7 10.5,-192.7"/>
<text text-anchor="start" x="30.5" y="-199.8" font-family="Helvetica,sans-Serif" font-size="11.00" fill="#000000">updated_at</text>
<polygon fill="none" stroke="#000000" points="155.5,-192.7 155.5,-214.7 245.5,-214.7 245.5,-192.7 155.5,-192.7"/>
<text text-anchor="start" x="158.5" y="-200.4" font-family="Helvetica,sans-Serif" font-size="11.00" fill="#000000">timestamp[29,6]</text>
<polygon fill="#ffffff" stroke="transparent" points="10.5,-173.7 10.5,-192.7 87.5,-192.7 87.5,-173.7 10.5,-173.7"/>
<polygon fill="none" stroke="#000000" points="10.5,-173.7 10.5,-192.7 87.5,-192.7 87.5,-173.7 10.5,-173.7"/>
<text text-anchor="start" x="13.5" y="-179.8" font-family="Helvetica,sans-Serif" font-size="11.00" fill="#000000">&lt; 0</text>
<polygon fill="#ffffff" stroke="transparent" points="87.5,-173.7 87.5,-192.7 155.5,-192.7 155.5,-173.7 87.5,-173.7"/>
<polygon fill="none" stroke="#000000" points="87.5,-173.7 87.5,-192.7 155.5,-192.7 155.5,-173.7 87.5,-173.7"/>
<text text-anchor="start" x="146.3862" y="-179.8" font-family="Helvetica,sans-Serif" font-size="11.00" fill="#000000"> &#160;</text>
<polygon fill="#ffffff" stroke="transparent" points="155.5,-173.7 155.5,-192.7 245.5,-192.7 245.5,-173.7 155.5,-173.7"/>
<polygon fill="none" stroke="#000000" points="155.5,-173.7 155.5,-192.7 245.5,-192.7 245.5,-173.7 155.5,-173.7"/>
<text text-anchor="start" x="226.9053" y="-179.8" font-family="Helvetica,sans-Serif" font-size="11.00" fill="#000000">2 &gt;</text>
<polygon fill="none" stroke="#000000" stroke-width="2" points="9,-172.7 9,-524.7 246,-524.7 246,-172.7 9,-172.7"/>
</a>
</g>
</g>
<!-- crif_sensitivities&#45;&gt;crif_uploads -->
<g id="edge1" class="edge">
<title>crif_sensitivities:w&#45;&gt;crif_uploads:e</title>
<path fill="none" stroke="#000000" d="M281.776,-489.7C269.7815,-489.7 262.3229,-489.7 245.5,-489.7"/>
<polygon fill="#000000" stroke="#000000" points="288.5,-489.7001 296.5,-493.3 292.5,-489.7 296.5,-489.7 296.5,-489.7 296.5,-489.7 292.5,-489.7 296.5,-486.1 288.5,-489.7001 288.5,-489.7001"/>
<ellipse fill="none" stroke="#000000" cx="285.3" cy="-489.7001" rx="3.2" ry="3.2"/>
</g>
<!-- simm_calculation_audit -->
<g id="node3" class="node">
<title>simm_calculation_audit</title>
<g id="a_node3"><a xlink:href="../../tables/simm_calculation_audit.html" xlink:title="simm_calculation_audit" target="_top">
<polygon fill="#ffffff" stroke="transparent" points="525.5,-254.2 525.5,-315.2 721.5,-315.2 721.5,-254.2 525.5,-254.2"/>
<polygon fill="#f5f5f5" stroke="transparent" points="525.5,-291.7 525.5,-314.7 721.5,-314.7 721.5,-291.7 525.5,-291.7"/>
<polygon fill="none" stroke="#000000" points="525.5,-291.7 525.5,-314.7 721.5,-314.7 721.5,-291.7 525.5,-291.7"/>
<text text-anchor="start" x="530.5" y="-300.3" font-family="Helvetica,sans-Serif" font-weight="bold" font-size="11.00" fill="#000000">simm_calculation_audit</text>
<text text-anchor="start" x="687.0219" y="-299.8" font-family="Helvetica,sans-Serif" font-size="11.00" fill="#000000">[table]</text>
<polygon fill="none" stroke="#000000" points="525.5,-272.7 525.5,-291.7 721.5,-291.7 721.5,-272.7 525.5,-272.7"/>
<text text-anchor="start" x="528.5" y="-278.8" font-family="Helvetica,sans-Serif" font-size="11.00" fill="#000000">...</text>
<polygon fill="#ffffff" stroke="transparent" points="525.5,-253.7 525.5,-272.7 621.5,-272.7 621.5,-253.7 525.5,-253.7"/>
<polygon fill="none" stroke="#000000" points="525.5,-253.7 525.5,-272.7 621.5,-272.7 621.5,-253.7 525.5,-253.7"/>
<text text-anchor="start" x="528.5" y="-259.8" font-family="Helvetica,sans-Serif" font-size="11.00" fill="#000000">&lt; 1</text>
<polygon fill="#ffffff" stroke="transparent" points="621.5,-253.7 621.5,-272.7 671.5,-272.7 671.5,-253.7 621.5,-253.7"/>
<polygon fill="none" stroke="#000000" points="621.5,-253.7 621.5,-272.7 671.5,-272.7 671.5,-253.7 621.5,-253.7"/>
<text text-anchor="start" x="662.3862" y="-259.8" font-family="Helvetica,sans-Serif" font-size="11.00" fill="#000000"> &#160;</text>
<polygon fill="#ffffff" stroke="transparent" points="671.5,-253.7 671.5,-272.7 721.5,-272.7 721.5,-253.7 671.5,-253.7"/>
<polygon fill="none" stroke="#000000" points="671.5,-253.7 671.5,-272.7 721.5,-272.7 721.5,-253.7 671.5,-253.7"/>
<text text-anchor="start" x="712.3862" y="-259.8" font-family="Helvetica,sans-Serif" font-size="11.00" fill="#000000"> &#160;</text>
</a>
</g>
</g>
<!-- simm_calculations -->
<g id="node4" class="node">
<title>simm_calculations</title>
<g id="a_node4"><a xlink:href="../../tables/simm_calculations.html" xlink:title="simm_calculations" target="_top">
<polygon fill="#ffffff" stroke="transparent" points="297.5,-38.2 297.5,-275.2 469.5,-275.2 469.5,-38.2 297.5,-38.2"/>
<polygon fill="#f5f5f5" stroke="transparent" points="297.5,-251.7 297.5,-274.7 469.5,-274.7 469.5,-251.7 297.5,-251.7"/>
<polygon fill="none" stroke="#000000" points="297.5,-251.7 297.5,-274.7 469.5,-274.7 469.5,-251.7 297.5,-251.7"/>
<text text-anchor="start" x="302.5" y="-260.3" font-family="Helvetica,sans-Serif" font-weight="bold" font-size="11.00" fill="#000000">simm_calculations</text>
<text text-anchor="start" x="434.5437" y="-259.8" font-family="Helvetica,sans-Serif" font-size="11.00" fill="#000000">[table]</text>
<polygon fill="none" stroke="#000000" points="297.5,-229.7 297.5,-251.7 469.5,-251.7 469.5,-229.7 297.5,-229.7"/>
<image xlink:href="../../images/primaryKeys.png" width="11px" height="12px" preserveAspectRatio="xMinYMin meet" x="302.5" y="-246.7"/>
<text text-anchor="start" x="317.5" y="-236.8" font-family="Helvetica,sans-Serif" font-size="11.00" fill="#000000">id</text>
<polygon fill="#ffffff" stroke="transparent" points="297.5,-207.7 297.5,-229.7 469.5,-229.7 469.5,-207.7 297.5,-207.7"/>
<polygon fill="none" stroke="#000000" points="297.5,-207.7 297.5,-229.7 469.5,-229.7 469.5,-207.7 297.5,-207.7"/>
<text text-anchor="start" x="317.5" y="-214.8" font-family="Helvetica,sans-Serif" font-size="11.00" fill="#000000">calculation_id</text>
<polygon fill="#ffffff" stroke="transparent" points="297.5,-185.7 297.5,-207.7 469.5,-207.7 469.5,-185.7 297.5,-185.7"/>
<polygon fill="none" stroke="#000000" points="297.5,-185.7 297.5,-207.7 469.5,-207.7 469.5,-185.7 297.5,-185.7"/>
<image xlink:href="../../images/foreignKeys.png" width="11px" height="12px" preserveAspectRatio="xMinYMin meet" x="302.5" y="-202.7"/>
<text text-anchor="start" x="317.5" y="-192.8" font-family="Helvetica,sans-Serif" font-size="11.00" fill="#000000">upload_id</text>
<polygon fill="none" stroke="#000000" points="297.5,-163.7 297.5,-185.7 469.5,-185.7 469.5,-163.7 297.5,-163.7"/>
<image xlink:href="../../images/foreignKeys.png" width="11px" height="12px" preserveAspectRatio="xMinYMin meet" x="302.5" y="-180.7"/>
<text text-anchor="start" x="317.5" y="-170.8" font-family="Helvetica,sans-Serif" font-size="11.00" fill="#000000">parameter_set_id</text>
<polygon fill="#ffffff" stroke="transparent" points="297.5,-141.7 297.5,-163.7 469.5,-163.7 469.5,-141.7 297.5,-141.7"/>
<polygon fill="none" stroke="#000000" points="297.5,-141.7 297.5,-163.7 469.5,-163.7 469.5,-141.7 297.5,-141.7"/>
<text text-anchor="start" x="317.5" y="-148.8" font-family="Helvetica,sans-Serif" font-size="11.00" fill="#000000">portfolio_id</text>
<polygon fill="#ffffff" stroke="transparent" points="297.5,-119.7 297.5,-141.7 469.5,-141.7 469.5,-119.7 297.5,-119.7"/>
<polygon fill="none" stroke="#000000" points="297.5,-119.7 297.5,-141.7 469.5,-141.7 469.5,-119.7 297.5,-119.7"/>
<text text-anchor="start" x="317.5" y="-126.8" font-family="Helvetica,sans-Serif" font-size="11.00" fill="#000000">calculation_date</text>
<polygon fill="#ffffff" stroke="transparent" points="297.5,-97.7 297.5,-119.7 469.5,-119.7 469.5,-97.7 297.5,-97.7"/>
<polygon fill="none" stroke="#000000" points="297.5,-97.7 297.5,-119.7 469.5,-119.7 469.5,-97.7 297.5,-97.7"/>
<text text-anchor="start" x="317.5" y="-104.8" font-family="Helvetica,sans-Serif" font-size="11.00" fill="#000000">calculation_status</text>
<polygon fill="#ffffff" stroke="transparent" points="297.5,-75.7 297.5,-97.7 469.5,-97.7 469.5,-75.7 297.5,-75.7"/>
<polygon fill="none" stroke="#000000" points="297.5,-75.7 297.5,-97.7 469.5,-97.7 469.5,-75.7 297.5,-75.7"/>
<text text-anchor="start" x="317.5" y="-82.8" font-family="Helvetica,sans-Serif" font-size="11.00" fill="#000000">created_at</text>
<polygon fill="none" stroke="#000000" points="297.5,-56.7 297.5,-75.7 469.5,-75.7 469.5,-56.7 297.5,-56.7"/>
<text text-anchor="start" x="300.5" y="-62.8" font-family="Helvetica,sans-Serif" font-size="11.00" fill="#000000">...</text>
<polygon fill="#ffffff" stroke="transparent" points="297.5,-37.7 297.5,-56.7 377.5,-56.7 377.5,-37.7 297.5,-37.7"/>
<polygon fill="none" stroke="#000000" points="297.5,-37.7 297.5,-56.7 377.5,-56.7 377.5,-37.7 297.5,-37.7"/>
<text text-anchor="start" x="300.5" y="-43.8" font-family="Helvetica,sans-Serif" font-size="11.00" fill="#000000">&lt; 2</text>
<polygon fill="#ffffff" stroke="transparent" points="377.5,-37.7 377.5,-56.7 418.5,-56.7 418.5,-37.7 377.5,-37.7"/>
<polygon fill="none" stroke="#000000" points="377.5,-37.7 377.5,-56.7 418.5,-56.7 418.5,-37.7 377.5,-37.7"/>
<text text-anchor="start" x="409.3862" y="-43.8" font-family="Helvetica,sans-Serif" font-size="11.00" fill="#000000"> &#160;</text>
<polygon fill="#ffffff" stroke="transparent" points="418.5,-37.7 418.5,-56.7 469.5,-56.7 469.5,-37.7 418.5,-37.7"/>
<polygon fill="none" stroke="#000000" points="418.5,-37.7 418.5,-56.7 469.5,-56.7 469.5,-37.7 418.5,-37.7"/>
<text text-anchor="start" x="450.9053" y="-43.8" font-family="Helvetica,sans-Serif" font-size="11.00" fill="#000000">2 &gt;</text>
</a>
</g>
</g>
<!-- simm_calculation_audit&#45;&gt;simm_calculations -->
<g id="edge2" class="edge">
<title>simm_calculation_audit:w&#45;&gt;simm_calculations:e</title>
<path fill="none" stroke="#000000" d="M511.5209,-277.9163C495.5038,-267.7664 494.5628,-240.7 469.5,-240.7"/>
<polygon fill="#000000" stroke="#000000" points="517.7779,-279.6098 524.5594,-285.175 521.6389,-280.6549 525.5,-281.7 525.5,-281.7 525.5,-281.7 521.6389,-280.6549 526.4406,-278.225 517.7779,-279.6098 517.7779,-279.6098"/>
<ellipse fill="none" stroke="#000000" cx="514.689" cy="-278.7738" rx="3.2" ry="3.2"/>
</g>
<!-- simm_calculations&#45;&gt;crif_uploads -->
<g id="edge5" class="edge">
<title>simm_calculations:w&#45;&gt;crif_uploads:e</title>
<path fill="none" stroke="#000000" d="M284.0197,-202.2914C243.5536,-242.7987 306.204,-489.7 245.5,-489.7"/>
<polygon fill="#000000" stroke="#000000" points="290.1105,-199.7651 298.8793,-200.0253 293.8052,-198.2326 297.5,-196.7 297.5,-196.7 297.5,-196.7 293.8052,-198.2326 296.1207,-193.3747 290.1105,-199.7651 290.1105,-199.7651"/>
<ellipse fill="none" stroke="#000000" cx="287.1546" cy="-200.9912" rx="3.2" ry="3.2"/>
</g>
<!-- simm_parameter_sets -->
<g id="node6" class="node">
<title>simm_parameter_sets</title>
<g id="a_node6"><a xlink:href="../../tables/simm_parameter_sets.html" xlink:title="simm_parameter_sets" target="_top">
<polygon fill="#ffffff" stroke="transparent" points="34.5,-89.2 34.5,-150.2 220.5,-150.2 220.5,-89.2 34.5,-89.2"/>
<polygon fill="#f5f5f5" stroke="transparent" points="34.5,-126.7 34.5,-149.7 220.5,-149.7 220.5,-126.7 34.5,-126.7"/>
<polygon fill="none" stroke="#000000" points="34.5,-126.7 34.5,-149.7 220.5,-149.7 220.5,-126.7 34.5,-126.7"/>
<text text-anchor="start" x="39.5" y="-135.3" font-family="Helvetica,sans-Serif" font-weight="bold" font-size="11.00" fill="#000000">simm_parameter_sets</text>
<text text-anchor="start" x="186.0219" y="-134.8" font-family="Helvetica,sans-Serif" font-size="11.00" fill="#000000">[table]</text>
<polygon fill="none" stroke="#000000" points="34.5,-107.7 34.5,-126.7 220.5,-126.7 220.5,-107.7 34.5,-107.7"/>
<text text-anchor="start" x="37.5" y="-113.8" font-family="Helvetica,sans-Serif" font-size="11.00" fill="#000000">...</text>
<polygon fill="#ffffff" stroke="transparent" points="34.5,-88.7 34.5,-107.7 116.5,-107.7 116.5,-88.7 34.5,-88.7"/>
<polygon fill="none" stroke="#000000" points="34.5,-88.7 34.5,-107.7 116.5,-107.7 116.5,-88.7 34.5,-88.7"/>
<text text-anchor="start" x="37.5" y="-94.8" font-family="Helvetica,sans-Serif" font-size="11.00" fill="#000000"> &#160;</text>
<polygon fill="#ffffff" stroke="transparent" points="116.5,-88.7 116.5,-107.7 163.5,-107.7 163.5,-88.7 116.5,-88.7"/>
<polygon fill="none" stroke="#000000" points="116.5,-88.7 116.5,-107.7 163.5,-107.7 163.5,-88.7 116.5,-88.7"/>
<text text-anchor="start" x="154.3862" y="-94.8" font-family="Helvetica,sans-Serif" font-size="11.00" fill="#000000"> &#160;</text>
<polygon fill="#ffffff" stroke="transparent" points="163.5,-88.7 163.5,-107.7 220.5,-107.7 220.5,-88.7 163.5,-88.7"/>
<polygon fill="none" stroke="#000000" points="163.5,-88.7 163.5,-107.7 220.5,-107.7 220.5,-88.7 163.5,-88.7"/>
<text text-anchor="start" x="201.9053" y="-94.8" font-family="Helvetica,sans-Serif" font-size="11.00" fill="#000000">4 &gt;</text>
</a>
</g>
</g>
<!-- simm_calculations&#45;&gt;simm_parameter_sets -->
<g id="edge4" class="edge">
<title>simm_calculations:w&#45;&gt;simm_parameter_sets:e</title>
<path fill="none" stroke="#000000" d="M283.2794,-172.0571C256.0393,-160.7107 257.8216,-116.7 220.5,-116.7"/>
<polygon fill="#000000" stroke="#000000" points="289.6347,-173.2382 296.8422,-178.2394 293.5673,-173.9691 297.5,-174.7 297.5,-174.7 297.5,-174.7 293.5673,-173.9691 298.1578,-171.1606 289.6347,-173.2382 289.6347,-173.2382"/>
<ellipse fill="none" stroke="#000000" cx="286.4885" cy="-172.6535" rx="3.2" ry="3.2"/>
</g>
<!-- simm_calculation_results -->
<g id="node5" class="node">
<title>simm_calculation_results</title>
<g id="a_node5"><a xlink:href="../../tables/simm_calculation_results.html" xlink:title="simm_calculation_results" target="_top">
<polygon fill="#ffffff" stroke="transparent" points="520,-172.2 520,-233.2 727,-233.2 727,-172.2 520,-172.2"/>
<polygon fill="#f5f5f5" stroke="transparent" points="520.5,-209.7 520.5,-232.7 727.5,-232.7 727.5,-209.7 520.5,-209.7"/>
<polygon fill="none" stroke="#000000" points="520.5,-209.7 520.5,-232.7 727.5,-232.7 727.5,-209.7 520.5,-209.7"/>
<text text-anchor="start" x="525.5" y="-218.3" font-family="Helvetica,sans-Serif" font-weight="bold" font-size="11.00" fill="#000000">simm_calculation_results</text>
<text text-anchor="start" x="693.0219" y="-217.8" font-family="Helvetica,sans-Serif" font-size="11.00" fill="#000000">[table]</text>
<polygon fill="none" stroke="#000000" points="520.5,-190.7 520.5,-209.7 727.5,-209.7 727.5,-190.7 520.5,-190.7"/>
<text text-anchor="start" x="523.5" y="-196.8" font-family="Helvetica,sans-Serif" font-size="11.00" fill="#000000">...</text>
<polygon fill="#ffffff" stroke="transparent" points="520.5,-171.7 520.5,-190.7 622.5,-190.7 622.5,-171.7 520.5,-171.7"/>
<polygon fill="none" stroke="#000000" points="520.5,-171.7 520.5,-190.7 622.5,-190.7 622.5,-171.7 520.5,-171.7"/>
<text text-anchor="start" x="523.5" y="-177.8" font-family="Helvetica,sans-Serif" font-size="11.00" fill="#000000">&lt; 1</text>
<polygon fill="#ffffff" stroke="transparent" points="622.5,-171.7 622.5,-190.7 674.5,-190.7 674.5,-171.7 622.5,-171.7"/>
<polygon fill="none" stroke="#000000" points="622.5,-171.7 622.5,-190.7 674.5,-190.7 674.5,-171.7 622.5,-171.7"/>
<text text-anchor="start" x="665.3862" y="-177.8" font-family="Helvetica,sans-Serif" font-size="11.00" fill="#000000"> &#160;</text>
<polygon fill="#ffffff" stroke="transparent" points="674.5,-171.7 674.5,-190.7 727.5,-190.7 727.5,-171.7 674.5,-171.7"/>
<polygon fill="none" stroke="#000000" points="674.5,-171.7 674.5,-190.7 727.5,-190.7 727.5,-171.7 674.5,-171.7"/>
<text text-anchor="start" x="718.3862" y="-177.8" font-family="Helvetica,sans-Serif" font-size="11.00" fill="#000000"> &#160;</text>
</a>
</g>
</g>
<!-- simm_calculation_results&#45;&gt;simm_calculations -->
<g id="edge3" class="edge">
<title>simm_calculation_results:w&#45;&gt;simm_calculations:e</title>
<path fill="none" stroke="#000000" d="M506.6568,-204.0877C492.8325,-214.6646 492.6756,-240.7 469.5,-240.7"/>
<polygon fill="#000000" stroke="#000000" points="512.8739,-202.1172 521.5877,-203.1317 516.6869,-200.9086 520.5,-199.7 520.5,-199.7 520.5,-199.7 516.6869,-200.9086 519.4123,-196.2683 512.8739,-202.1172 512.8739,-202.1172"/>
<ellipse fill="none" stroke="#000000" cx="509.8235" cy="-203.0841" rx="3.2" ry="3.2"/>
</g>
</g>
</svg>
