<?xml version="1.0" encoding="UTF-8" standalone="no"?>
<!DOCTYPE svg PUBLIC "-//W3C//DTD SVG 1.1//EN"
 "http://www.w3.org/Graphics/SVG/1.1/DTD/svg11.dtd">
<!-- Generated by graphviz version 2.40.1 (20161225.0304)
 -->
<!-- Title: oneDegreeRelationshipsDiagram Pages: 1 -->
<svg width="481pt" height="448pt"
 viewBox="0.00 0.00 481.00 448.20" xmlns="http://www.w3.org/2000/svg" xmlns:xlink="http://www.w3.org/1999/xlink">
<g id="graph0" class="graph" transform="scale(1 1) rotate(0) translate(4 444.2)">
<title>oneDegreeRelationshipsDiagram</title>
<polygon fill="#ffffff" stroke="transparent" points="-4,4 -4,-444.2 477,-444.2 477,4 -4,4"/>
<text text-anchor="middle" x="72.4936" y="-7.3" font-family="Helvetica,sans-Serif" font-size="11.00" fill="#000000">Generated by SchemaSpy</text>
<!-- crif_sensitivities -->
<g id="node1" class="node">
<title>crif_sensitivities</title>
<g id="a_node1"><a xlink:href="../../tables/crif_sensitivities.html" xlink:title="crif_sensitivities" target="_top">
<polygon fill="#ffffff" stroke="transparent" points="202,-38.2 202,-436.2 465,-436.2 465,-38.2 202,-38.2"/>
<polygon fill="#f5f5f5" stroke="transparent" points="204.5,-411.2 204.5,-434.2 463.5,-434.2 463.5,-411.2 204.5,-411.2"/>
<polygon fill="none" stroke="#000000" points="204.5,-411.2 204.5,-434.2 463.5,-434.2 463.5,-411.2 204.5,-411.2"/>
<text text-anchor="start" x="209.5" y="-419.8" font-family="Helvetica,sans-Serif" font-weight="bold" font-size="11.00" fill="#000000">crif_sensitivities</text>
<text text-anchor="start" x="428.5437" y="-419.3" font-family="Helvetica,sans-Serif" font-size="11.00" fill="#000000">[table]</text>
<polygon fill="none" stroke="#000000" points="204.5,-389.2 204.5,-411.2 379.5,-411.2 379.5,-389.2 204.5,-389.2"/>
<image xlink:href="../../images/primaryKeys.png" width="11px" height="12px" preserveAspectRatio="xMinYMin meet" x="209.5" y="-406.2"/>
<text text-anchor="start" x="224.5" y="-396.3" font-family="Helvetica,sans-Serif" font-size="11.00" fill="#000000">id</text>
<polygon fill="none" stroke="#000000" points="379.5,-389.2 379.5,-411.2 463.5,-411.2 463.5,-389.2 379.5,-389.2"/>
<text text-anchor="start" x="382.5" y="-396.9" font-family="Helvetica,sans-Serif" font-size="11.00" fill="#000000">bigserial[19]</text>
<polygon fill="#ffffff" stroke="transparent" points="204.5,-367.2 204.5,-389.2 379.5,-389.2 379.5,-367.2 204.5,-367.2"/>
<polygon fill="none" stroke="#000000" points="204.5,-367.2 204.5,-389.2 379.5,-389.2 379.5,-367.2 204.5,-367.2"/>
<image xlink:href="../../images/foreignKeys.png" width="11px" height="12px" preserveAspectRatio="xMinYMin meet" x="209.5" y="-384.2"/>
<text text-anchor="start" x="224.5" y="-374.3" font-family="Helvetica,sans-Serif" font-size="11.00" fill="#000000">upload_id</text>
<polygon fill="none" stroke="#000000" points="379.5,-367.2 379.5,-389.2 463.5,-389.2 463.5,-367.2 379.5,-367.2"/>
<text text-anchor="start" x="382.5" y="-374.9" font-family="Helvetica,sans-Serif" font-size="11.00" fill="#000000">int8[19]</text>
<polygon fill="#ffffff" stroke="transparent" points="204.5,-345.2 204.5,-367.2 379.5,-367.2 379.5,-345.2 204.5,-345.2"/>
<polygon fill="none" stroke="#000000" points="204.5,-345.2 204.5,-367.2 379.5,-367.2 379.5,-345.2 204.5,-345.2"/>
<text text-anchor="start" x="224.5" y="-352.3" font-family="Helvetica,sans-Serif" font-size="11.00" fill="#000000">trade_id</text>
<polygon fill="none" stroke="#000000" points="379.5,-345.2 379.5,-367.2 463.5,-367.2 463.5,-345.2 379.5,-345.2"/>
<text text-anchor="start" x="382.5" y="-352.9" font-family="Helvetica,sans-Serif" font-size="11.00" fill="#000000">varchar[100]</text>
<polygon fill="#ffffff" stroke="transparent" points="204.5,-323.2 204.5,-345.2 379.5,-345.2 379.5,-323.2 204.5,-323.2"/>
<polygon fill="none" stroke="#000000" points="204.5,-323.2 204.5,-345.2 379.5,-345.2 379.5,-323.2 204.5,-323.2"/>
<text text-anchor="start" x="224.5" y="-330.3" font-family="Helvetica,sans-Serif" font-size="11.00" fill="#000000">portfolio_id</text>
<polygon fill="none" stroke="#000000" points="379.5,-323.2 379.5,-345.2 463.5,-345.2 463.5,-323.2 379.5,-323.2"/>
<text text-anchor="start" x="382.5" y="-330.9" font-family="Helvetica,sans-Serif" font-size="11.00" fill="#000000">varchar[100]</text>
<polygon fill="#ffffff" stroke="transparent" points="204.5,-301.2 204.5,-323.2 379.5,-323.2 379.5,-301.2 204.5,-301.2"/>
<polygon fill="none" stroke="#000000" points="204.5,-301.2 204.5,-323.2 379.5,-323.2 379.5,-301.2 204.5,-301.2"/>
<text text-anchor="start" x="224.5" y="-308.3" font-family="Helvetica,sans-Serif" font-size="11.00" fill="#000000">product_class</text>
<polygon fill="none" stroke="#000000" points="379.5,-301.2 379.5,-323.2 463.5,-323.2 463.5,-301.2 379.5,-301.2"/>
<text text-anchor="start" x="382.5" y="-308.9" font-family="Helvetica,sans-Serif" font-size="11.00" fill="#000000">varchar[50]</text>
<polygon fill="none" stroke="#000000" points="204.5,-279.2 204.5,-301.2 379.5,-301.2 379.5,-279.2 204.5,-279.2"/>
<text text-anchor="start" x="224.5" y="-286.3" font-family="Helvetica,sans-Serif" font-size="11.00" fill="#000000">risk_type</text>
<polygon fill="none" stroke="#000000" points="379.5,-279.2 379.5,-301.2 463.5,-301.2 463.5,-279.2 379.5,-279.2"/>
<text text-anchor="start" x="382.5" y="-286.9" font-family="Helvetica,sans-Serif" font-size="11.00" fill="#000000">varchar[50]</text>
<polygon fill="#ffffff" stroke="transparent" points="204.5,-257.2 204.5,-279.2 379.5,-279.2 379.5,-257.2 204.5,-257.2"/>
<polygon fill="none" stroke="#000000" points="204.5,-257.2 204.5,-279.2 379.5,-279.2 379.5,-257.2 204.5,-257.2"/>
<text text-anchor="start" x="224.5" y="-264.3" font-family="Helvetica,sans-Serif" font-size="11.00" fill="#000000">risk_class</text>
<polygon fill="none" stroke="#000000" points="379.5,-257.2 379.5,-279.2 463.5,-279.2 463.5,-257.2 379.5,-257.2"/>
<text text-anchor="start" x="382.5" y="-264.9" font-family="Helvetica,sans-Serif" font-size="11.00" fill="#000000">varchar[20]</text>
<polygon fill="none" stroke="#000000" points="204.5,-235.2 204.5,-257.2 379.5,-257.2 379.5,-235.2 204.5,-235.2"/>
<text text-anchor="start" x="224.5" y="-242.3" font-family="Helvetica,sans-Serif" font-size="11.00" fill="#000000">bucket</text>
<polygon fill="none" stroke="#000000" points="379.5,-235.2 379.5,-257.2 463.5,-257.2 463.5,-235.2 379.5,-235.2"/>
<text text-anchor="start" x="382.5" y="-242.9" font-family="Helvetica,sans-Serif" font-size="11.00" fill="#000000">varchar[10]</text>
<polygon fill="none" stroke="#000000" points="204.5,-213.2 204.5,-235.2 379.5,-235.2 379.5,-213.2 204.5,-213.2"/>
<text text-anchor="start" x="224.5" y="-220.3" font-family="Helvetica,sans-Serif" font-size="11.00" fill="#000000">label1</text>
<polygon fill="none" stroke="#000000" points="379.5,-213.2 379.5,-235.2 463.5,-235.2 463.5,-213.2 379.5,-213.2"/>
<text text-anchor="start" x="382.5" y="-220.9" font-family="Helvetica,sans-Serif" font-size="11.00" fill="#000000">varchar[100]</text>
<polygon fill="none" stroke="#000000" points="204.5,-191.2 204.5,-213.2 379.5,-213.2 379.5,-191.2 204.5,-191.2"/>
<text text-anchor="start" x="224.5" y="-198.3" font-family="Helvetica,sans-Serif" font-size="11.00" fill="#000000">label2</text>
<polygon fill="none" stroke="#000000" points="379.5,-191.2 379.5,-213.2 463.5,-213.2 463.5,-191.2 379.5,-191.2"/>
<text text-anchor="start" x="382.5" y="-198.9" font-family="Helvetica,sans-Serif" font-size="11.00" fill="#000000">varchar[100]</text>
<polygon fill="none" stroke="#000000" points="204.5,-169.2 204.5,-191.2 379.5,-191.2 379.5,-169.2 204.5,-169.2"/>
<text text-anchor="start" x="224.5" y="-176.3" font-family="Helvetica,sans-Serif" font-size="11.00" fill="#000000">amount_base_currency</text>
<polygon fill="none" stroke="#000000" points="379.5,-169.2 379.5,-191.2 463.5,-191.2 463.5,-169.2 379.5,-169.2"/>
<text text-anchor="start" x="382.5" y="-176.9" font-family="Helvetica,sans-Serif" font-size="11.00" fill="#000000">numeric[20,8]</text>
<polygon fill="none" stroke="#000000" points="204.5,-147.2 204.5,-169.2 379.5,-169.2 379.5,-147.2 204.5,-147.2"/>
<text text-anchor="start" x="224.5" y="-154.3" font-family="Helvetica,sans-Serif" font-size="11.00" fill="#000000">amount_usd</text>
<polygon fill="none" stroke="#000000" points="379.5,-147.2 379.5,-169.2 463.5,-169.2 463.5,-147.2 379.5,-147.2"/>
<text text-anchor="start" x="382.5" y="-154.9" font-family="Helvetica,sans-Serif" font-size="11.00" fill="#000000">numeric[20,8]</text>
<polygon fill="none" stroke="#000000" points="204.5,-125.2 204.5,-147.2 379.5,-147.2 379.5,-125.2 204.5,-125.2"/>
<text text-anchor="start" x="224.5" y="-132.3" font-family="Helvetica,sans-Serif" font-size="11.00" fill="#000000">collect_regulations</text>
<polygon fill="none" stroke="#000000" points="379.5,-125.2 379.5,-147.2 463.5,-147.2 463.5,-125.2 379.5,-125.2"/>
<text text-anchor="start" x="382.5" y="-132.9" font-family="Helvetica,sans-Serif" font-size="11.00" fill="#000000">varchar[50]</text>
<polygon fill="none" stroke="#000000" points="204.5,-103.2 204.5,-125.2 379.5,-125.2 379.5,-103.2 204.5,-103.2"/>
<text text-anchor="start" x="224.5" y="-110.3" font-family="Helvetica,sans-Serif" font-size="11.00" fill="#000000">post_regulations</text>
<polygon fill="none" stroke="#000000" points="379.5,-103.2 379.5,-125.2 463.5,-125.2 463.5,-103.2 379.5,-103.2"/>
<text text-anchor="start" x="382.5" y="-110.9" font-family="Helvetica,sans-Serif" font-size="11.00" fill="#000000">varchar[50]</text>
<polygon fill="none" stroke="#000000" points="204.5,-81.2 204.5,-103.2 379.5,-103.2 379.5,-81.2 204.5,-81.2"/>
<text text-anchor="start" x="224.5" y="-88.3" font-family="Helvetica,sans-Serif" font-size="11.00" fill="#000000">end_date</text>
<polygon fill="none" stroke="#000000" points="379.5,-81.2 379.5,-103.2 463.5,-103.2 463.5,-81.2 379.5,-81.2"/>
<text text-anchor="start" x="382.5" y="-88.9" font-family="Helvetica,sans-Serif" font-size="11.00" fill="#000000">date[13]</text>
<polygon fill="none" stroke="#000000" points="204.5,-59.2 204.5,-81.2 379.5,-81.2 379.5,-59.2 204.5,-59.2"/>
<text text-anchor="start" x="224.5" y="-66.3" font-family="Helvetica,sans-Serif" font-size="11.00" fill="#000000">created_at</text>
<polygon fill="none" stroke="#000000" points="379.5,-59.2 379.5,-81.2 463.5,-81.2 463.5,-59.2 379.5,-59.2"/>
<text text-anchor="start" x="382.3807" y="-66.9" font-family="Helvetica,sans-Serif" font-size="11.00" fill="#000000">timestamp[29,6]</text>
<polygon fill="#ffffff" stroke="transparent" points="204.5,-40.2 204.5,-59.2 296.5,-59.2 296.5,-40.2 204.5,-40.2"/>
<polygon fill="none" stroke="#000000" points="204.5,-40.2 204.5,-59.2 296.5,-59.2 296.5,-40.2 204.5,-40.2"/>
<text text-anchor="start" x="207.5" y="-46.3" font-family="Helvetica,sans-Serif" font-size="11.00" fill="#000000">&lt; 1</text>
<polygon fill="#ffffff" stroke="transparent" points="296.5,-40.2 296.5,-59.2 379.5,-59.2 379.5,-40.2 296.5,-40.2"/>
<polygon fill="none" stroke="#000000" points="296.5,-40.2 296.5,-59.2 379.5,-59.2 379.5,-40.2 296.5,-40.2"/>
<text text-anchor="start" x="370.3862" y="-46.3" font-family="Helvetica,sans-Serif" font-size="11.00" fill="#000000"> &#160;</text>
<polygon fill="#ffffff" stroke="transparent" points="379.5,-40.2 379.5,-59.2 463.5,-59.2 463.5,-40.2 379.5,-40.2"/>
<polygon fill="none" stroke="#000000" points="379.5,-40.2 379.5,-59.2 463.5,-59.2 463.5,-40.2 379.5,-40.2"/>
<text text-anchor="start" x="444.9053" y="-46.3" font-family="Helvetica,sans-Serif" font-size="11.00" fill="#000000">0 &gt;</text>
<polygon fill="none" stroke="#000000" stroke-width="2" points="203,-39.2 203,-435.2 464,-435.2 464,-39.2 203,-39.2"/>
</a>
</g>
</g>
<!-- crif_uploads -->
<g id="node2" class="node">
<title>crif_uploads</title>
<g id="a_node2"><a xlink:href="../../tables/crif_uploads.html" xlink:title="crif_uploads" target="_top">
<polygon fill="#ffffff" stroke="transparent" points="8,-219.7 8,-412.7 153,-412.7 153,-219.7 8,-219.7"/>
<polygon fill="#f5f5f5" stroke="transparent" points="8.5,-389.2 8.5,-412.2 153.5,-412.2 153.5,-389.2 8.5,-389.2"/>
<polygon fill="none" stroke="#000000" points="8.5,-389.2 8.5,-412.2 153.5,-412.2 153.5,-389.2 8.5,-389.2"/>
<text text-anchor="start" x="13.5" y="-397.8" font-family="Helvetica,sans-Serif" font-weight="bold" font-size="11.00" fill="#000000">crif_uploads</text>
<text text-anchor="start" x="118.5437" y="-397.3" font-family="Helvetica,sans-Serif" font-size="11.00" fill="#000000">[table]</text>
<polygon fill="none" stroke="#000000" points="8.5,-367.2 8.5,-389.2 153.5,-389.2 153.5,-367.2 8.5,-367.2"/>
<image xlink:href="../../images/primaryKeys.png" width="11px" height="12px" preserveAspectRatio="xMinYMin meet" x="13.5" y="-384.2"/>
<text text-anchor="start" x="28.5" y="-374.3" font-family="Helvetica,sans-Serif" font-size="11.00" fill="#000000">id</text>
<polygon fill="#ffffff" stroke="transparent" points="8.5,-345.2 8.5,-367.2 153.5,-367.2 153.5,-345.2 8.5,-345.2"/>
<polygon fill="none" stroke="#000000" points="8.5,-345.2 8.5,-367.2 153.5,-367.2 153.5,-345.2 8.5,-345.2"/>
<text text-anchor="start" x="28.5" y="-352.3" font-family="Helvetica,sans-Serif" font-size="11.00" fill="#000000">upload_id</text>
<polygon fill="#ffffff" stroke="transparent" points="8.5,-323.2 8.5,-345.2 153.5,-345.2 153.5,-323.2 8.5,-323.2"/>
<polygon fill="none" stroke="#000000" points="8.5,-323.2 8.5,-345.2 153.5,-345.2 153.5,-323.2 8.5,-323.2"/>
<text text-anchor="start" x="28.5" y="-330.3" font-family="Helvetica,sans-Serif" font-size="11.00" fill="#000000">portfolio_id</text>
<polygon fill="#ffffff" stroke="transparent" points="8.5,-301.2 8.5,-323.2 153.5,-323.2 153.5,-301.2 8.5,-301.2"/>
<polygon fill="none" stroke="#000000" points="8.5,-301.2 8.5,-323.2 153.5,-323.2 153.5,-301.2 8.5,-301.2"/>
<text text-anchor="start" x="28.5" y="-308.3" font-family="Helvetica,sans-Serif" font-size="11.00" fill="#000000">valuation_date</text>
<polygon fill="#ffffff" stroke="transparent" points="8.5,-279.2 8.5,-301.2 153.5,-301.2 153.5,-279.2 8.5,-279.2"/>
<polygon fill="none" stroke="#000000" points="8.5,-279.2 8.5,-301.2 153.5,-301.2 153.5,-279.2 8.5,-279.2"/>
<text text-anchor="start" x="28.5" y="-286.3" font-family="Helvetica,sans-Serif" font-size="11.00" fill="#000000">processing_status</text>
<polygon fill="#ffffff" stroke="transparent" points="8.5,-257.2 8.5,-279.2 153.5,-279.2 153.5,-257.2 8.5,-257.2"/>
<polygon fill="none" stroke="#000000" points="8.5,-257.2 8.5,-279.2 153.5,-279.2 153.5,-257.2 8.5,-257.2"/>
<text text-anchor="start" x="28.5" y="-264.3" font-family="Helvetica,sans-Serif" font-size="11.00" fill="#000000">created_at</text>
<polygon fill="none" stroke="#000000" points="8.5,-238.2 8.5,-257.2 153.5,-257.2 153.5,-238.2 8.5,-238.2"/>
<text text-anchor="start" x="11.5" y="-244.3" font-family="Helvetica,sans-Serif" font-size="11.00" fill="#000000">...</text>
<polygon fill="#ffffff" stroke="transparent" points="8.5,-219.2 8.5,-238.2 70.5,-238.2 70.5,-219.2 8.5,-219.2"/>
<polygon fill="none" stroke="#000000" points="8.5,-219.2 8.5,-238.2 70.5,-238.2 70.5,-219.2 8.5,-219.2"/>
<text text-anchor="start" x="11.5" y="-225.3" font-family="Helvetica,sans-Serif" font-size="11.00" fill="#000000"> &#160;</text>
<polygon fill="#ffffff" stroke="transparent" points="70.5,-219.2 70.5,-238.2 107.5,-238.2 107.5,-219.2 70.5,-219.2"/>
<polygon fill="none" stroke="#000000" points="70.5,-219.2 70.5,-238.2 107.5,-238.2 107.5,-219.2 70.5,-219.2"/>
<text text-anchor="start" x="98.3862" y="-225.3" font-family="Helvetica,sans-Serif" font-size="11.00" fill="#000000"> &#160;</text>
<polygon fill="#ffffff" stroke="transparent" points="107.5,-219.2 107.5,-238.2 153.5,-238.2 153.5,-219.2 107.5,-219.2"/>
<polygon fill="none" stroke="#000000" points="107.5,-219.2 107.5,-238.2 153.5,-238.2 153.5,-219.2 107.5,-219.2"/>
<text text-anchor="start" x="134.9053" y="-225.3" font-family="Helvetica,sans-Serif" font-size="11.00" fill="#000000">2 &gt;</text>
</a>
</g>
</g>
<!-- crif_sensitivities&#45;&gt;crif_uploads -->
<g id="edge1" class="edge">
<title>crif_sensitivities:w&#45;&gt;crif_uploads:e</title>
<path fill="none" stroke="#000000" d="M189.776,-378.2C177.7815,-378.2 170.3229,-378.2 153.5,-378.2"/>
<polygon fill="#000000" stroke="#000000" points="196.5,-378.2001 204.5,-381.8 200.5,-378.2 204.5,-378.2 204.5,-378.2 204.5,-378.2 200.5,-378.2 204.5,-374.6 196.5,-378.2001 196.5,-378.2001"/>
<ellipse fill="none" stroke="#000000" cx="193.3" cy="-378.2001" rx="3.2" ry="3.2"/>
</g>
</g>
</svg>
