<?xml version="1.0" encoding="UTF-8" standalone="no"?>
<!DOCTYPE svg PUBLIC "-//W3C//DTD SVG 1.1//EN"
 "http://www.w3.org/Graphics/SVG/1.1/DTD/svg11.dtd">
<!-- Generated by graphviz version 2.40.1 (20161225.0304)
 -->
<!-- Title: oneDegreeRelationshipsDiagram Pages: 1 -->
<svg width="487pt" height="543pt"
 viewBox="0.00 0.00 487.00 542.70" xmlns="http://www.w3.org/2000/svg" xmlns:xlink="http://www.w3.org/1999/xlink">
<g id="graph0" class="graph" transform="scale(1 1) rotate(0) translate(4 538.7)">
<title>oneDegreeRelationshipsDiagram</title>
<polygon fill="#ffffff" stroke="transparent" points="-4,4 -4,-538.7 483,-538.7 483,4 -4,4"/>
<text text-anchor="middle" x="72.4936" y="-7.3" font-family="Helvetica,sans-Serif" font-size="11.00" fill="#000000">Generated by SchemaSpy</text>
<!-- crif_sensitivities -->
<g id="node1" class="node">
<title>crif_sensitivities</title>
<g id="a_node1"><a xlink:href="../../tables/crif_sensitivities.html" xlink:title="crif_sensitivities" target="_top">
<polygon fill="#ffffff" stroke="transparent" points="296,-337.7 296,-530.7 471,-530.7 471,-337.7 296,-337.7"/>
<polygon fill="#f5f5f5" stroke="transparent" points="296.5,-507.2 296.5,-530.2 471.5,-530.2 471.5,-507.2 296.5,-507.2"/>
<polygon fill="none" stroke="#000000" points="296.5,-507.2 296.5,-530.2 471.5,-530.2 471.5,-507.2 296.5,-507.2"/>
<text text-anchor="start" x="301.5" y="-515.8" font-family="Helvetica,sans-Serif" font-weight="bold" font-size="11.00" fill="#000000">crif_sensitivities</text>
<text text-anchor="start" x="436.5437" y="-515.3" font-family="Helvetica,sans-Serif" font-size="11.00" fill="#000000">[table]</text>
<polygon fill="none" stroke="#000000" points="296.5,-485.2 296.5,-507.2 471.5,-507.2 471.5,-485.2 296.5,-485.2"/>
<image xlink:href="../../images/primaryKeys.png" width="11px" height="12px" preserveAspectRatio="xMinYMin meet" x="301.5" y="-502.2"/>
<text text-anchor="start" x="316.5" y="-492.3" font-family="Helvetica,sans-Serif" font-size="11.00" fill="#000000">id</text>
<polygon fill="#ffffff" stroke="transparent" points="296.5,-463.2 296.5,-485.2 471.5,-485.2 471.5,-463.2 296.5,-463.2"/>
<polygon fill="none" stroke="#000000" points="296.5,-463.2 296.5,-485.2 471.5,-485.2 471.5,-463.2 296.5,-463.2"/>
<image xlink:href="../../images/foreignKeys.png" width="11px" height="12px" preserveAspectRatio="xMinYMin meet" x="301.5" y="-480.2"/>
<text text-anchor="start" x="316.5" y="-470.3" font-family="Helvetica,sans-Serif" font-size="11.00" fill="#000000">upload_id</text>
<polygon fill="#ffffff" stroke="transparent" points="296.5,-441.2 296.5,-463.2 471.5,-463.2 471.5,-441.2 296.5,-441.2"/>
<polygon fill="none" stroke="#000000" points="296.5,-441.2 296.5,-463.2 471.5,-463.2 471.5,-441.2 296.5,-441.2"/>
<text text-anchor="start" x="316.5" y="-448.3" font-family="Helvetica,sans-Serif" font-size="11.00" fill="#000000">trade_id</text>
<polygon fill="#ffffff" stroke="transparent" points="296.5,-419.2 296.5,-441.2 471.5,-441.2 471.5,-419.2 296.5,-419.2"/>
<polygon fill="none" stroke="#000000" points="296.5,-419.2 296.5,-441.2 471.5,-441.2 471.5,-419.2 296.5,-419.2"/>
<text text-anchor="start" x="316.5" y="-426.3" font-family="Helvetica,sans-Serif" font-size="11.00" fill="#000000">portfolio_id</text>
<polygon fill="#ffffff" stroke="transparent" points="296.5,-397.2 296.5,-419.2 471.5,-419.2 471.5,-397.2 296.5,-397.2"/>
<polygon fill="none" stroke="#000000" points="296.5,-397.2 296.5,-419.2 471.5,-419.2 471.5,-397.2 296.5,-397.2"/>
<text text-anchor="start" x="316.5" y="-404.3" font-family="Helvetica,sans-Serif" font-size="11.00" fill="#000000">product_class</text>
<polygon fill="#ffffff" stroke="transparent" points="296.5,-375.2 296.5,-397.2 471.5,-397.2 471.5,-375.2 296.5,-375.2"/>
<polygon fill="none" stroke="#000000" points="296.5,-375.2 296.5,-397.2 471.5,-397.2 471.5,-375.2 296.5,-375.2"/>
<text text-anchor="start" x="316.5" y="-382.3" font-family="Helvetica,sans-Serif" font-size="11.00" fill="#000000">risk_class</text>
<polygon fill="none" stroke="#000000" points="296.5,-356.2 296.5,-375.2 471.5,-375.2 471.5,-356.2 296.5,-356.2"/>
<text text-anchor="start" x="299.5" y="-362.3" font-family="Helvetica,sans-Serif" font-size="11.00" fill="#000000">...</text>
<polygon fill="#ffffff" stroke="transparent" points="296.5,-337.2 296.5,-356.2 382.5,-356.2 382.5,-337.2 296.5,-337.2"/>
<polygon fill="none" stroke="#000000" points="296.5,-337.2 296.5,-356.2 382.5,-356.2 382.5,-337.2 296.5,-337.2"/>
<text text-anchor="start" x="299.5" y="-343.3" font-family="Helvetica,sans-Serif" font-size="11.00" fill="#000000">&lt; 1</text>
<polygon fill="#ffffff" stroke="transparent" points="382.5,-337.2 382.5,-356.2 426.5,-356.2 426.5,-337.2 382.5,-337.2"/>
<polygon fill="none" stroke="#000000" points="382.5,-337.2 382.5,-356.2 426.5,-356.2 426.5,-337.2 382.5,-337.2"/>
<text text-anchor="start" x="417.3862" y="-343.3" font-family="Helvetica,sans-Serif" font-size="11.00" fill="#000000"> &#160;</text>
<polygon fill="#ffffff" stroke="transparent" points="426.5,-337.2 426.5,-356.2 471.5,-356.2 471.5,-337.2 426.5,-337.2"/>
<polygon fill="none" stroke="#000000" points="426.5,-337.2 426.5,-356.2 471.5,-356.2 471.5,-337.2 426.5,-337.2"/>
<text text-anchor="start" x="462.3862" y="-343.3" font-family="Helvetica,sans-Serif" font-size="11.00" fill="#000000"> &#160;</text>
</a>
</g>
</g>
<!-- crif_uploads -->
<g id="node2" class="node">
<title>crif_uploads</title>
<g id="a_node2"><a xlink:href="../../tables/crif_uploads.html" xlink:title="crif_uploads" target="_top">
<polygon fill="#ffffff" stroke="transparent" points="8,-38.2 8,-392.2 247,-392.2 247,-38.2 8,-38.2"/>
<polygon fill="#f5f5f5" stroke="transparent" points="10.5,-367.2 10.5,-390.2 245.5,-390.2 245.5,-367.2 10.5,-367.2"/>
<polygon fill="none" stroke="#000000" points="10.5,-367.2 10.5,-390.2 245.5,-390.2 245.5,-367.2 10.5,-367.2"/>
<text text-anchor="start" x="15.5" y="-375.8" font-family="Helvetica,sans-Serif" font-weight="bold" font-size="11.00" fill="#000000">crif_uploads</text>
<text text-anchor="start" x="210.5437" y="-375.3" font-family="Helvetica,sans-Serif" font-size="11.00" fill="#000000">[table]</text>
<polygon fill="none" stroke="#000000" points="10.5,-345.2 10.5,-367.2 155.5,-367.2 155.5,-345.2 10.5,-345.2"/>
<image xlink:href="../../images/primaryKeys.png" width="11px" height="12px" preserveAspectRatio="xMinYMin meet" x="15.5" y="-362.2"/>
<text text-anchor="start" x="30.5" y="-352.3" font-family="Helvetica,sans-Serif" font-size="11.00" fill="#000000">id</text>
<polygon fill="none" stroke="#000000" points="155.5,-345.2 155.5,-367.2 245.5,-367.2 245.5,-345.2 155.5,-345.2"/>
<text text-anchor="start" x="158.5" y="-352.9" font-family="Helvetica,sans-Serif" font-size="11.00" fill="#000000">bigserial[19]</text>
<polygon fill="#ffffff" stroke="transparent" points="10.5,-323.2 10.5,-345.2 155.5,-345.2 155.5,-323.2 10.5,-323.2"/>
<polygon fill="none" stroke="#000000" points="10.5,-323.2 10.5,-345.2 155.5,-345.2 155.5,-323.2 10.5,-323.2"/>
<text text-anchor="start" x="30.5" y="-330.3" font-family="Helvetica,sans-Serif" font-size="11.00" fill="#000000">upload_id</text>
<polygon fill="none" stroke="#000000" points="155.5,-323.2 155.5,-345.2 245.5,-345.2 245.5,-323.2 155.5,-323.2"/>
<text text-anchor="start" x="158.5" y="-330.9" font-family="Helvetica,sans-Serif" font-size="11.00" fill="#000000">varchar[100]</text>
<polygon fill="none" stroke="#000000" points="10.5,-301.2 10.5,-323.2 155.5,-323.2 155.5,-301.2 10.5,-301.2"/>
<text text-anchor="start" x="30.5" y="-308.3" font-family="Helvetica,sans-Serif" font-size="11.00" fill="#000000">filename</text>
<polygon fill="none" stroke="#000000" points="155.5,-301.2 155.5,-323.2 245.5,-323.2 245.5,-301.2 155.5,-301.2"/>
<text text-anchor="start" x="158.5" y="-308.9" font-family="Helvetica,sans-Serif" font-size="11.00" fill="#000000">varchar[255]</text>
<polygon fill="#ffffff" stroke="transparent" points="10.5,-279.2 10.5,-301.2 155.5,-301.2 155.5,-279.2 10.5,-279.2"/>
<polygon fill="none" stroke="#000000" points="10.5,-279.2 10.5,-301.2 155.5,-301.2 155.5,-279.2 10.5,-279.2"/>
<text text-anchor="start" x="30.5" y="-286.3" font-family="Helvetica,sans-Serif" font-size="11.00" fill="#000000">portfolio_id</text>
<polygon fill="none" stroke="#000000" points="155.5,-279.2 155.5,-301.2 245.5,-301.2 245.5,-279.2 155.5,-279.2"/>
<text text-anchor="start" x="158.5" y="-286.9" font-family="Helvetica,sans-Serif" font-size="11.00" fill="#000000">varchar[100]</text>
<polygon fill="#ffffff" stroke="transparent" points="10.5,-257.2 10.5,-279.2 155.5,-279.2 155.5,-257.2 10.5,-257.2"/>
<polygon fill="none" stroke="#000000" points="10.5,-257.2 10.5,-279.2 155.5,-279.2 155.5,-257.2 10.5,-257.2"/>
<text text-anchor="start" x="30.5" y="-264.3" font-family="Helvetica,sans-Serif" font-size="11.00" fill="#000000">valuation_date</text>
<polygon fill="none" stroke="#000000" points="155.5,-257.2 155.5,-279.2 245.5,-279.2 245.5,-257.2 155.5,-257.2"/>
<text text-anchor="start" x="158.5" y="-264.9" font-family="Helvetica,sans-Serif" font-size="11.00" fill="#000000">date[13]</text>
<polygon fill="none" stroke="#000000" points="10.5,-235.2 10.5,-257.2 155.5,-257.2 155.5,-235.2 10.5,-235.2"/>
<text text-anchor="start" x="30.5" y="-242.3" font-family="Helvetica,sans-Serif" font-size="11.00" fill="#000000">currency</text>
<polygon fill="none" stroke="#000000" points="155.5,-235.2 155.5,-257.2 245.5,-257.2 245.5,-235.2 155.5,-235.2"/>
<text text-anchor="start" x="158.5" y="-242.9" font-family="Helvetica,sans-Serif" font-size="11.00" fill="#000000">varchar[3]</text>
<polygon fill="none" stroke="#000000" points="10.5,-213.2 10.5,-235.2 155.5,-235.2 155.5,-213.2 10.5,-213.2"/>
<text text-anchor="start" x="30.5" y="-220.3" font-family="Helvetica,sans-Serif" font-size="11.00" fill="#000000">upload_timestamp</text>
<polygon fill="none" stroke="#000000" points="155.5,-213.2 155.5,-235.2 245.5,-235.2 245.5,-213.2 155.5,-213.2"/>
<text text-anchor="start" x="158.5" y="-220.9" font-family="Helvetica,sans-Serif" font-size="11.00" fill="#000000">timestamp[29,6]</text>
<polygon fill="none" stroke="#000000" points="10.5,-191.2 10.5,-213.2 155.5,-213.2 155.5,-191.2 10.5,-191.2"/>
<text text-anchor="start" x="30.5" y="-198.3" font-family="Helvetica,sans-Serif" font-size="11.00" fill="#000000">total_records</text>
<polygon fill="none" stroke="#000000" points="155.5,-191.2 155.5,-213.2 245.5,-213.2 245.5,-191.2 155.5,-191.2"/>
<text text-anchor="start" x="158.5" y="-198.9" font-family="Helvetica,sans-Serif" font-size="11.00" fill="#000000">int4[10]</text>
<polygon fill="none" stroke="#000000" points="10.5,-169.2 10.5,-191.2 155.5,-191.2 155.5,-169.2 10.5,-169.2"/>
<text text-anchor="start" x="30.5" y="-176.3" font-family="Helvetica,sans-Serif" font-size="11.00" fill="#000000">valid_records</text>
<polygon fill="none" stroke="#000000" points="155.5,-169.2 155.5,-191.2 245.5,-191.2 245.5,-169.2 155.5,-169.2"/>
<text text-anchor="start" x="158.5" y="-176.9" font-family="Helvetica,sans-Serif" font-size="11.00" fill="#000000">int4[10]</text>
<polygon fill="none" stroke="#000000" points="10.5,-147.2 10.5,-169.2 155.5,-169.2 155.5,-147.2 10.5,-147.2"/>
<text text-anchor="start" x="30.5" y="-154.3" font-family="Helvetica,sans-Serif" font-size="11.00" fill="#000000">error_records</text>
<polygon fill="none" stroke="#000000" points="155.5,-147.2 155.5,-169.2 245.5,-169.2 245.5,-147.2 155.5,-147.2"/>
<text text-anchor="start" x="158.5" y="-154.9" font-family="Helvetica,sans-Serif" font-size="11.00" fill="#000000">int4[10]</text>
<polygon fill="#ffffff" stroke="transparent" points="10.5,-125.2 10.5,-147.2 155.5,-147.2 155.5,-125.2 10.5,-125.2"/>
<polygon fill="none" stroke="#000000" points="10.5,-125.2 10.5,-147.2 155.5,-147.2 155.5,-125.2 10.5,-125.2"/>
<text text-anchor="start" x="30.5" y="-132.3" font-family="Helvetica,sans-Serif" font-size="11.00" fill="#000000">processing_status</text>
<polygon fill="none" stroke="#000000" points="155.5,-125.2 155.5,-147.2 245.5,-147.2 245.5,-125.2 155.5,-125.2"/>
<text text-anchor="start" x="158.5" y="-132.9" font-family="Helvetica,sans-Serif" font-size="11.00" fill="#000000">varchar[20]</text>
<polygon fill="none" stroke="#000000" points="10.5,-103.2 10.5,-125.2 155.5,-125.2 155.5,-103.2 10.5,-103.2"/>
<text text-anchor="start" x="30.5" y="-110.3" font-family="Helvetica,sans-Serif" font-size="11.00" fill="#000000">error_message</text>
<polygon fill="none" stroke="#000000" points="155.5,-103.2 155.5,-125.2 245.5,-125.2 245.5,-103.2 155.5,-103.2"/>
<text text-anchor="start" x="158.0042" y="-110.9" font-family="Helvetica,sans-Serif" font-size="11.00" fill="#000000">text[2147483647]</text>
<polygon fill="#ffffff" stroke="transparent" points="10.5,-81.2 10.5,-103.2 155.5,-103.2 155.5,-81.2 10.5,-81.2"/>
<polygon fill="none" stroke="#000000" points="10.5,-81.2 10.5,-103.2 155.5,-103.2 155.5,-81.2 10.5,-81.2"/>
<text text-anchor="start" x="30.5" y="-88.3" font-family="Helvetica,sans-Serif" font-size="11.00" fill="#000000">created_at</text>
<polygon fill="none" stroke="#000000" points="155.5,-81.2 155.5,-103.2 245.5,-103.2 245.5,-81.2 155.5,-81.2"/>
<text text-anchor="start" x="158.5" y="-88.9" font-family="Helvetica,sans-Serif" font-size="11.00" fill="#000000">timestamp[29,6]</text>
<polygon fill="none" stroke="#000000" points="10.5,-59.2 10.5,-81.2 155.5,-81.2 155.5,-59.2 10.5,-59.2"/>
<text text-anchor="start" x="30.5" y="-66.3" font-family="Helvetica,sans-Serif" font-size="11.00" fill="#000000">updated_at</text>
<polygon fill="none" stroke="#000000" points="155.5,-59.2 155.5,-81.2 245.5,-81.2 245.5,-59.2 155.5,-59.2"/>
<text text-anchor="start" x="158.5" y="-66.9" font-family="Helvetica,sans-Serif" font-size="11.00" fill="#000000">timestamp[29,6]</text>
<polygon fill="#ffffff" stroke="transparent" points="10.5,-40.2 10.5,-59.2 87.5,-59.2 87.5,-40.2 10.5,-40.2"/>
<polygon fill="none" stroke="#000000" points="10.5,-40.2 10.5,-59.2 87.5,-59.2 87.5,-40.2 10.5,-40.2"/>
<text text-anchor="start" x="13.5" y="-46.3" font-family="Helvetica,sans-Serif" font-size="11.00" fill="#000000">&lt; 0</text>
<polygon fill="#ffffff" stroke="transparent" points="87.5,-40.2 87.5,-59.2 155.5,-59.2 155.5,-40.2 87.5,-40.2"/>
<polygon fill="none" stroke="#000000" points="87.5,-40.2 87.5,-59.2 155.5,-59.2 155.5,-40.2 87.5,-40.2"/>
<text text-anchor="start" x="146.3862" y="-46.3" font-family="Helvetica,sans-Serif" font-size="11.00" fill="#000000"> &#160;</text>
<polygon fill="#ffffff" stroke="transparent" points="155.5,-40.2 155.5,-59.2 245.5,-59.2 245.5,-40.2 155.5,-40.2"/>
<polygon fill="none" stroke="#000000" points="155.5,-40.2 155.5,-59.2 245.5,-59.2 245.5,-40.2 155.5,-40.2"/>
<text text-anchor="start" x="226.9053" y="-46.3" font-family="Helvetica,sans-Serif" font-size="11.00" fill="#000000">2 &gt;</text>
<polygon fill="none" stroke="#000000" stroke-width="2" points="9,-39.2 9,-391.2 246,-391.2 246,-39.2 9,-39.2"/>
</a>
</g>
</g>
<!-- crif_sensitivities&#45;&gt;crif_uploads -->
<g id="edge1" class="edge">
<title>crif_sensitivities:w&#45;&gt;crif_uploads:e</title>
<path fill="none" stroke="#000000" d="M282.1581,-470.5391C251.3728,-450.622 296.6074,-356.2 245.5,-356.2"/>
<polygon fill="#000000" stroke="#000000" points="288.7485,-472.2213 295.6096,-477.6882 292.6243,-473.2107 296.5,-474.2 296.5,-474.2 296.5,-474.2 292.6243,-473.2107 297.3904,-470.7118 288.7485,-472.2213 288.7485,-472.2213"/>
<ellipse fill="none" stroke="#000000" cx="285.648" cy="-471.4299" rx="3.2" ry="3.2"/>
</g>
<!-- simm_calculations -->
<g id="node3" class="node">
<title>simm_calculations</title>
<g id="a_node3"><a xlink:href="../../tables/simm_calculations.html" xlink:title="simm_calculations" target="_top">
<polygon fill="#ffffff" stroke="transparent" points="297.5,-79.7 297.5,-316.7 469.5,-316.7 469.5,-79.7 297.5,-79.7"/>
<polygon fill="#f5f5f5" stroke="transparent" points="297.5,-293.2 297.5,-316.2 469.5,-316.2 469.5,-293.2 297.5,-293.2"/>
<polygon fill="none" stroke="#000000" points="297.5,-293.2 297.5,-316.2 469.5,-316.2 469.5,-293.2 297.5,-293.2"/>
<text text-anchor="start" x="302.5" y="-301.8" font-family="Helvetica,sans-Serif" font-weight="bold" font-size="11.00" fill="#000000">simm_calculations</text>
<text text-anchor="start" x="434.5437" y="-301.3" font-family="Helvetica,sans-Serif" font-size="11.00" fill="#000000">[table]</text>
<polygon fill="none" stroke="#000000" points="297.5,-271.2 297.5,-293.2 469.5,-293.2 469.5,-271.2 297.5,-271.2"/>
<image xlink:href="../../images/primaryKeys.png" width="11px" height="12px" preserveAspectRatio="xMinYMin meet" x="302.5" y="-288.2"/>
<text text-anchor="start" x="317.5" y="-278.3" font-family="Helvetica,sans-Serif" font-size="11.00" fill="#000000">id</text>
<polygon fill="#ffffff" stroke="transparent" points="297.5,-249.2 297.5,-271.2 469.5,-271.2 469.5,-249.2 297.5,-249.2"/>
<polygon fill="none" stroke="#000000" points="297.5,-249.2 297.5,-271.2 469.5,-271.2 469.5,-249.2 297.5,-249.2"/>
<text text-anchor="start" x="317.5" y="-256.3" font-family="Helvetica,sans-Serif" font-size="11.00" fill="#000000">calculation_id</text>
<polygon fill="#ffffff" stroke="transparent" points="297.5,-227.2 297.5,-249.2 469.5,-249.2 469.5,-227.2 297.5,-227.2"/>
<polygon fill="none" stroke="#000000" points="297.5,-227.2 297.5,-249.2 469.5,-249.2 469.5,-227.2 297.5,-227.2"/>
<image xlink:href="../../images/foreignKeys.png" width="11px" height="12px" preserveAspectRatio="xMinYMin meet" x="302.5" y="-244.2"/>
<text text-anchor="start" x="317.5" y="-234.3" font-family="Helvetica,sans-Serif" font-size="11.00" fill="#000000">upload_id</text>
<polygon fill="none" stroke="#000000" points="297.5,-205.2 297.5,-227.2 469.5,-227.2 469.5,-205.2 297.5,-205.2"/>
<image xlink:href="../../images/foreignKeys.png" width="11px" height="12px" preserveAspectRatio="xMinYMin meet" x="302.5" y="-222.2"/>
<text text-anchor="start" x="317.5" y="-212.3" font-family="Helvetica,sans-Serif" font-size="11.00" fill="#000000">parameter_set_id</text>
<polygon fill="#ffffff" stroke="transparent" points="297.5,-183.2 297.5,-205.2 469.5,-205.2 469.5,-183.2 297.5,-183.2"/>
<polygon fill="none" stroke="#000000" points="297.5,-183.2 297.5,-205.2 469.5,-205.2 469.5,-183.2 297.5,-183.2"/>
<text text-anchor="start" x="317.5" y="-190.3" font-family="Helvetica,sans-Serif" font-size="11.00" fill="#000000">portfolio_id</text>
<polygon fill="#ffffff" stroke="transparent" points="297.5,-161.2 297.5,-183.2 469.5,-183.2 469.5,-161.2 297.5,-161.2"/>
<polygon fill="none" stroke="#000000" points="297.5,-161.2 297.5,-183.2 469.5,-183.2 469.5,-161.2 297.5,-161.2"/>
<text text-anchor="start" x="317.5" y="-168.3" font-family="Helvetica,sans-Serif" font-size="11.00" fill="#000000">calculation_date</text>
<polygon fill="#ffffff" stroke="transparent" points="297.5,-139.2 297.5,-161.2 469.5,-161.2 469.5,-139.2 297.5,-139.2"/>
<polygon fill="none" stroke="#000000" points="297.5,-139.2 297.5,-161.2 469.5,-161.2 469.5,-139.2 297.5,-139.2"/>
<text text-anchor="start" x="317.5" y="-146.3" font-family="Helvetica,sans-Serif" font-size="11.00" fill="#000000">calculation_status</text>
<polygon fill="#ffffff" stroke="transparent" points="297.5,-117.2 297.5,-139.2 469.5,-139.2 469.5,-117.2 297.5,-117.2"/>
<polygon fill="none" stroke="#000000" points="297.5,-117.2 297.5,-139.2 469.5,-139.2 469.5,-117.2 297.5,-117.2"/>
<text text-anchor="start" x="317.5" y="-124.3" font-family="Helvetica,sans-Serif" font-size="11.00" fill="#000000">created_at</text>
<polygon fill="none" stroke="#000000" points="297.5,-98.2 297.5,-117.2 469.5,-117.2 469.5,-98.2 297.5,-98.2"/>
<text text-anchor="start" x="300.5" y="-104.3" font-family="Helvetica,sans-Serif" font-size="11.00" fill="#000000">...</text>
<polygon fill="#ffffff" stroke="transparent" points="297.5,-79.2 297.5,-98.2 377.5,-98.2 377.5,-79.2 297.5,-79.2"/>
<polygon fill="none" stroke="#000000" points="297.5,-79.2 297.5,-98.2 377.5,-98.2 377.5,-79.2 297.5,-79.2"/>
<text text-anchor="start" x="300.5" y="-85.3" font-family="Helvetica,sans-Serif" font-size="11.00" fill="#000000">&lt; 2</text>
<polygon fill="#ffffff" stroke="transparent" points="377.5,-79.2 377.5,-98.2 418.5,-98.2 418.5,-79.2 377.5,-79.2"/>
<polygon fill="none" stroke="#000000" points="377.5,-79.2 377.5,-98.2 418.5,-98.2 418.5,-79.2 377.5,-79.2"/>
<text text-anchor="start" x="409.3862" y="-85.3" font-family="Helvetica,sans-Serif" font-size="11.00" fill="#000000"> &#160;</text>
<polygon fill="#ffffff" stroke="transparent" points="418.5,-79.2 418.5,-98.2 469.5,-98.2 469.5,-79.2 418.5,-79.2"/>
<polygon fill="none" stroke="#000000" points="418.5,-79.2 418.5,-98.2 469.5,-98.2 469.5,-79.2 418.5,-79.2"/>
<text text-anchor="start" x="450.9053" y="-85.3" font-family="Helvetica,sans-Serif" font-size="11.00" fill="#000000">2 &gt;</text>
</a>
</g>
</g>
<!-- simm_calculations&#45;&gt;crif_uploads -->
<g id="edge2" class="edge">
<title>simm_calculations:w&#45;&gt;crif_uploads:e</title>
<path fill="none" stroke="#000000" d="M283.4981,-241.6043C251.672,-260.9516 296.9903,-356.2 245.5,-356.2"/>
<polygon fill="#000000" stroke="#000000" points="289.7265,-240.09 298.3505,-241.6981 293.6132,-239.145 297.5,-238.2 297.5,-238.2 297.5,-238.2 293.6132,-239.145 296.6495,-234.7019 289.7265,-240.09 289.7265,-240.09"/>
<ellipse fill="none" stroke="#000000" cx="286.617" cy="-240.846" rx="3.2" ry="3.2"/>
</g>
</g>
</svg>
