<?xml version="1.0" encoding="UTF-8" standalone="no"?>
<!DOCTYPE svg PUBLIC "-//W3C//DTD SVG 1.1//EN"
 "http://www.w3.org/Graphics/SVG/1.1/DTD/svg11.dtd">
<!-- Generated by graphviz version 2.40.1 (20161225.0304)
 -->
<!-- Title: oneDegreeRelationshipsDiagram Pages: 1 -->
<svg width="535pt" height="889pt"
 viewBox="0.00 0.00 535.00 888.70" xmlns="http://www.w3.org/2000/svg" xmlns:xlink="http://www.w3.org/1999/xlink">
<g id="graph0" class="graph" transform="scale(1 1) rotate(0) translate(4 884.7)">
<title>oneDegreeRelationshipsDiagram</title>
<polygon fill="#ffffff" stroke="transparent" points="-4,4 -4,-884.7 531,-884.7 531,4 -4,4"/>
<text text-anchor="middle" x="72.4936" y="-7.3" font-family="Helvetica,sans-Serif" font-size="11.00" fill="#000000">Generated by SchemaSpy</text>
<!-- collateral_ledger -->
<g id="node1" class="node">
<title>collateral_ledger</title>
<g id="a_node1"><a xlink:href="../../tables/collateral_ledger.html" xlink:title="collateral_ledger" target="_top">
<polygon fill="#ffffff" stroke="transparent" points="331.5,-639.7 331.5,-876.7 491.5,-876.7 491.5,-639.7 331.5,-639.7"/>
<polygon fill="#f5f5f5" stroke="transparent" points="331.5,-853.2 331.5,-876.2 491.5,-876.2 491.5,-853.2 331.5,-853.2"/>
<polygon fill="none" stroke="#000000" points="331.5,-853.2 331.5,-876.2 491.5,-876.2 491.5,-853.2 331.5,-853.2"/>
<text text-anchor="start" x="336.5" y="-861.8" font-family="Helvetica,sans-Serif" font-weight="bold" font-size="11.00" fill="#000000">collateral_ledger</text>
<text text-anchor="start" x="456.5437" y="-861.3" font-family="Helvetica,sans-Serif" font-size="11.00" fill="#000000">[table]</text>
<polygon fill="none" stroke="#000000" points="331.5,-831.2 331.5,-853.2 491.5,-853.2 491.5,-831.2 331.5,-831.2"/>
<image xlink:href="../../images/primaryKeys.png" width="11px" height="12px" preserveAspectRatio="xMinYMin meet" x="336.5" y="-848.2"/>
<text text-anchor="start" x="351.5" y="-838.3" font-family="Helvetica,sans-Serif" font-size="11.00" fill="#000000">id</text>
<polygon fill="#ffffff" stroke="transparent" points="331.5,-809.2 331.5,-831.2 491.5,-831.2 491.5,-809.2 331.5,-809.2"/>
<polygon fill="none" stroke="#000000" points="331.5,-809.2 331.5,-831.2 491.5,-831.2 491.5,-809.2 331.5,-809.2"/>
<text text-anchor="start" x="351.5" y="-816.3" font-family="Helvetica,sans-Serif" font-size="11.00" fill="#000000">ccp_name</text>
<polygon fill="#ffffff" stroke="transparent" points="331.5,-787.2 331.5,-809.2 491.5,-809.2 491.5,-787.2 331.5,-787.2"/>
<polygon fill="none" stroke="#000000" points="331.5,-787.2 331.5,-809.2 491.5,-809.2 491.5,-787.2 331.5,-787.2"/>
<text text-anchor="start" x="351.5" y="-794.3" font-family="Helvetica,sans-Serif" font-size="11.00" fill="#000000">member_firm</text>
<polygon fill="#ffffff" stroke="transparent" points="331.5,-765.2 331.5,-787.2 491.5,-787.2 491.5,-765.2 331.5,-765.2"/>
<polygon fill="none" stroke="#000000" points="331.5,-765.2 331.5,-787.2 491.5,-787.2 491.5,-765.2 331.5,-765.2"/>
<text text-anchor="start" x="351.5" y="-772.3" font-family="Helvetica,sans-Serif" font-size="11.00" fill="#000000">account_number</text>
<polygon fill="#ffffff" stroke="transparent" points="331.5,-743.2 331.5,-765.2 491.5,-765.2 491.5,-743.2 331.5,-743.2"/>
<polygon fill="none" stroke="#000000" points="331.5,-743.2 331.5,-765.2 491.5,-765.2 491.5,-743.2 331.5,-743.2"/>
<text text-anchor="start" x="351.5" y="-750.3" font-family="Helvetica,sans-Serif" font-size="11.00" fill="#000000">position_date</text>
<polygon fill="#ffffff" stroke="transparent" points="331.5,-721.2 331.5,-743.2 491.5,-743.2 491.5,-721.2 331.5,-721.2"/>
<polygon fill="none" stroke="#000000" points="331.5,-721.2 331.5,-743.2 491.5,-743.2 491.5,-721.2 331.5,-721.2"/>
<text text-anchor="start" x="351.5" y="-728.3" font-family="Helvetica,sans-Serif" font-size="11.00" fill="#000000">position_type</text>
<polygon fill="#ffffff" stroke="transparent" points="331.5,-699.2 331.5,-721.2 491.5,-721.2 491.5,-699.2 331.5,-699.2"/>
<polygon fill="none" stroke="#000000" points="331.5,-699.2 331.5,-721.2 491.5,-721.2 491.5,-699.2 331.5,-699.2"/>
<text text-anchor="start" x="351.5" y="-706.3" font-family="Helvetica,sans-Serif" font-size="11.00" fill="#000000">currency</text>
<polygon fill="none" stroke="#000000" points="331.5,-677.2 331.5,-699.2 491.5,-699.2 491.5,-677.2 331.5,-677.2"/>
<image xlink:href="../../images/foreignKeys.png" width="11px" height="12px" preserveAspectRatio="xMinYMin meet" x="336.5" y="-694.2"/>
<text text-anchor="start" x="351.5" y="-684.3" font-family="Helvetica,sans-Serif" font-size="11.00" fill="#000000">source_statement_id</text>
<polygon fill="none" stroke="#000000" points="331.5,-658.2 331.5,-677.2 491.5,-677.2 491.5,-658.2 331.5,-658.2"/>
<text text-anchor="start" x="334.5" y="-664.3" font-family="Helvetica,sans-Serif" font-size="11.00" fill="#000000">...</text>
<polygon fill="#ffffff" stroke="transparent" points="331.5,-639.2 331.5,-658.2 409.5,-658.2 409.5,-639.2 331.5,-639.2"/>
<polygon fill="none" stroke="#000000" points="331.5,-639.2 331.5,-658.2 409.5,-658.2 409.5,-639.2 331.5,-639.2"/>
<text text-anchor="start" x="334.5" y="-645.3" font-family="Helvetica,sans-Serif" font-size="11.00" fill="#000000">&lt; 1</text>
<polygon fill="#ffffff" stroke="transparent" points="409.5,-639.2 409.5,-658.2 450.5,-658.2 450.5,-639.2 409.5,-639.2"/>
<polygon fill="none" stroke="#000000" points="409.5,-639.2 409.5,-658.2 450.5,-658.2 450.5,-639.2 409.5,-639.2"/>
<text text-anchor="start" x="441.3862" y="-645.3" font-family="Helvetica,sans-Serif" font-size="11.00" fill="#000000"> &#160;</text>
<polygon fill="#ffffff" stroke="transparent" points="450.5,-639.2 450.5,-658.2 491.5,-658.2 491.5,-639.2 450.5,-639.2"/>
<polygon fill="none" stroke="#000000" points="450.5,-639.2 450.5,-658.2 491.5,-658.2 491.5,-639.2 450.5,-639.2"/>
<text text-anchor="start" x="482.3862" y="-645.3" font-family="Helvetica,sans-Serif" font-size="11.00" fill="#000000"> &#160;</text>
</a>
</g>
</g>
<!-- margin_statements -->
<g id="node2" class="node">
<title>margin_statements</title>
<g id="a_node2"><a xlink:href="../../tables/margin_statements.html" xlink:title="margin_statements" target="_top">
<polygon fill="#ffffff" stroke="transparent" points="8,-38.2 8,-502.2 255,-502.2 255,-38.2 8,-38.2"/>
<polygon fill="#f5f5f5" stroke="transparent" points="10.5,-477.2 10.5,-500.2 253.5,-500.2 253.5,-477.2 10.5,-477.2"/>
<polygon fill="none" stroke="#000000" points="10.5,-477.2 10.5,-500.2 253.5,-500.2 253.5,-477.2 10.5,-477.2"/>
<text text-anchor="start" x="15.5" y="-485.8" font-family="Helvetica,sans-Serif" font-weight="bold" font-size="11.00" fill="#000000">margin_statements</text>
<text text-anchor="start" x="218.5437" y="-485.3" font-family="Helvetica,sans-Serif" font-size="11.00" fill="#000000">[table]</text>
<polygon fill="none" stroke="#000000" points="10.5,-455.2 10.5,-477.2 161.5,-477.2 161.5,-455.2 10.5,-455.2"/>
<image xlink:href="../../images/primaryKeys.png" width="11px" height="12px" preserveAspectRatio="xMinYMin meet" x="15.5" y="-472.2"/>
<text text-anchor="start" x="30.5" y="-462.3" font-family="Helvetica,sans-Serif" font-size="11.00" fill="#000000">id</text>
<polygon fill="none" stroke="#000000" points="161.5,-455.2 161.5,-477.2 253.5,-477.2 253.5,-455.2 161.5,-455.2"/>
<text text-anchor="start" x="164.5" y="-462.9" font-family="Helvetica,sans-Serif" font-size="11.00" fill="#000000">bigserial[19]</text>
<polygon fill="#ffffff" stroke="transparent" points="10.5,-433.2 10.5,-455.2 161.5,-455.2 161.5,-433.2 10.5,-433.2"/>
<polygon fill="none" stroke="#000000" points="10.5,-433.2 10.5,-455.2 161.5,-455.2 161.5,-433.2 10.5,-433.2"/>
<text text-anchor="start" x="30.5" y="-440.3" font-family="Helvetica,sans-Serif" font-size="11.00" fill="#000000">statement_id</text>
<polygon fill="none" stroke="#000000" points="161.5,-433.2 161.5,-455.2 253.5,-455.2 253.5,-433.2 161.5,-433.2"/>
<text text-anchor="start" x="164.5" y="-440.9" font-family="Helvetica,sans-Serif" font-size="11.00" fill="#000000">varchar[255]</text>
<polygon fill="#ffffff" stroke="transparent" points="10.5,-411.2 10.5,-433.2 161.5,-433.2 161.5,-411.2 10.5,-411.2"/>
<polygon fill="none" stroke="#000000" points="10.5,-411.2 10.5,-433.2 161.5,-433.2 161.5,-411.2 10.5,-411.2"/>
<text text-anchor="start" x="30.5" y="-418.3" font-family="Helvetica,sans-Serif" font-size="11.00" fill="#000000">ccp_name</text>
<polygon fill="none" stroke="#000000" points="161.5,-411.2 161.5,-433.2 253.5,-433.2 253.5,-411.2 161.5,-411.2"/>
<text text-anchor="start" x="164.5" y="-418.9" font-family="Helvetica,sans-Serif" font-size="11.00" fill="#000000">varchar[100]</text>
<polygon fill="none" stroke="#000000" points="10.5,-389.2 10.5,-411.2 161.5,-411.2 161.5,-389.2 10.5,-389.2"/>
<text text-anchor="start" x="30.5" y="-396.3" font-family="Helvetica,sans-Serif" font-size="11.00" fill="#000000">member_firm</text>
<polygon fill="none" stroke="#000000" points="161.5,-389.2 161.5,-411.2 253.5,-411.2 253.5,-389.2 161.5,-389.2"/>
<text text-anchor="start" x="164.5" y="-396.9" font-family="Helvetica,sans-Serif" font-size="11.00" fill="#000000">varchar[255]</text>
<polygon fill="none" stroke="#000000" points="10.5,-367.2 10.5,-389.2 161.5,-389.2 161.5,-367.2 10.5,-367.2"/>
<text text-anchor="start" x="30.5" y="-374.3" font-family="Helvetica,sans-Serif" font-size="11.00" fill="#000000">account_number</text>
<polygon fill="none" stroke="#000000" points="161.5,-367.2 161.5,-389.2 253.5,-389.2 253.5,-367.2 161.5,-367.2"/>
<text text-anchor="start" x="164.5" y="-374.9" font-family="Helvetica,sans-Serif" font-size="11.00" fill="#000000">varchar[100]</text>
<polygon fill="#ffffff" stroke="transparent" points="10.5,-345.2 10.5,-367.2 161.5,-367.2 161.5,-345.2 10.5,-345.2"/>
<polygon fill="none" stroke="#000000" points="10.5,-345.2 10.5,-367.2 161.5,-367.2 161.5,-345.2 10.5,-345.2"/>
<text text-anchor="start" x="30.5" y="-352.3" font-family="Helvetica,sans-Serif" font-size="11.00" fill="#000000">statement_date</text>
<polygon fill="none" stroke="#000000" points="161.5,-345.2 161.5,-367.2 253.5,-367.2 253.5,-345.2 161.5,-345.2"/>
<text text-anchor="start" x="164.5" y="-352.9" font-family="Helvetica,sans-Serif" font-size="11.00" fill="#000000">date[13]</text>
<polygon fill="none" stroke="#000000" points="10.5,-323.2 10.5,-345.2 161.5,-345.2 161.5,-323.2 10.5,-323.2"/>
<text text-anchor="start" x="30.5" y="-330.3" font-family="Helvetica,sans-Serif" font-size="11.00" fill="#000000">currency</text>
<polygon fill="none" stroke="#000000" points="161.5,-323.2 161.5,-345.2 253.5,-345.2 253.5,-323.2 161.5,-323.2"/>
<text text-anchor="start" x="164.5" y="-330.9" font-family="Helvetica,sans-Serif" font-size="11.00" fill="#000000">varchar[3]</text>
<polygon fill="none" stroke="#000000" points="10.5,-301.2 10.5,-323.2 161.5,-323.2 161.5,-301.2 10.5,-301.2"/>
<text text-anchor="start" x="30.5" y="-308.3" font-family="Helvetica,sans-Serif" font-size="11.00" fill="#000000">statement_format</text>
<polygon fill="none" stroke="#000000" points="161.5,-301.2 161.5,-323.2 253.5,-323.2 253.5,-301.2 161.5,-301.2"/>
<text text-anchor="start" x="164.5" y="-308.9" font-family="Helvetica,sans-Serif" font-size="11.00" fill="#000000">varchar[50]</text>
<polygon fill="none" stroke="#000000" points="10.5,-279.2 10.5,-301.2 161.5,-301.2 161.5,-279.2 10.5,-279.2"/>
<text text-anchor="start" x="30.5" y="-286.3" font-family="Helvetica,sans-Serif" font-size="11.00" fill="#000000">file_name</text>
<polygon fill="none" stroke="#000000" points="161.5,-279.2 161.5,-301.2 253.5,-301.2 253.5,-279.2 161.5,-279.2"/>
<text text-anchor="start" x="164.5" y="-286.9" font-family="Helvetica,sans-Serif" font-size="11.00" fill="#000000">varchar[500]</text>
<polygon fill="none" stroke="#000000" points="10.5,-257.2 10.5,-279.2 161.5,-279.2 161.5,-257.2 10.5,-257.2"/>
<text text-anchor="start" x="30.5" y="-264.3" font-family="Helvetica,sans-Serif" font-size="11.00" fill="#000000">file_size</text>
<polygon fill="none" stroke="#000000" points="161.5,-257.2 161.5,-279.2 253.5,-279.2 253.5,-257.2 161.5,-257.2"/>
<text text-anchor="start" x="164.5" y="-264.9" font-family="Helvetica,sans-Serif" font-size="11.00" fill="#000000">int8[19]</text>
<polygon fill="none" stroke="#000000" points="10.5,-235.2 10.5,-257.2 161.5,-257.2 161.5,-235.2 10.5,-235.2"/>
<text text-anchor="start" x="30.5" y="-242.3" font-family="Helvetica,sans-Serif" font-size="11.00" fill="#000000">raw_content</text>
<polygon fill="none" stroke="#000000" points="161.5,-235.2 161.5,-257.2 253.5,-257.2 253.5,-235.2 161.5,-235.2"/>
<text text-anchor="start" x="164.5" y="-242.9" font-family="Helvetica,sans-Serif" font-size="11.00" fill="#000000">text[2147483647]</text>
<polygon fill="#ffffff" stroke="transparent" points="10.5,-213.2 10.5,-235.2 161.5,-235.2 161.5,-213.2 10.5,-213.2"/>
<polygon fill="none" stroke="#000000" points="10.5,-213.2 10.5,-235.2 161.5,-235.2 161.5,-213.2 10.5,-213.2"/>
<text text-anchor="start" x="30.5" y="-220.3" font-family="Helvetica,sans-Serif" font-size="11.00" fill="#000000">status</text>
<polygon fill="none" stroke="#000000" points="161.5,-213.2 161.5,-235.2 253.5,-235.2 253.5,-213.2 161.5,-213.2"/>
<text text-anchor="start" x="164.5" y="-220.9" font-family="Helvetica,sans-Serif" font-size="11.00" fill="#000000">varchar[50]</text>
<polygon fill="#ffffff" stroke="transparent" points="10.5,-191.2 10.5,-213.2 161.5,-213.2 161.5,-191.2 10.5,-191.2"/>
<polygon fill="none" stroke="#000000" points="10.5,-191.2 10.5,-213.2 161.5,-213.2 161.5,-191.2 10.5,-191.2"/>
<text text-anchor="start" x="30.5" y="-198.3" font-family="Helvetica,sans-Serif" font-size="11.00" fill="#000000">created_at</text>
<polygon fill="none" stroke="#000000" points="161.5,-191.2 161.5,-213.2 253.5,-213.2 253.5,-191.2 161.5,-191.2"/>
<text text-anchor="start" x="164.1023" y="-198.9" font-family="Helvetica,sans-Serif" font-size="11.00" fill="#000000">timestamptz[35,6]</text>
<polygon fill="none" stroke="#000000" points="10.5,-169.2 10.5,-191.2 161.5,-191.2 161.5,-169.2 10.5,-169.2"/>
<text text-anchor="start" x="30.5" y="-176.3" font-family="Helvetica,sans-Serif" font-size="11.00" fill="#000000">updated_at</text>
<polygon fill="none" stroke="#000000" points="161.5,-169.2 161.5,-191.2 253.5,-191.2 253.5,-169.2 161.5,-169.2"/>
<text text-anchor="start" x="164.1023" y="-176.9" font-family="Helvetica,sans-Serif" font-size="11.00" fill="#000000">timestamptz[35,6]</text>
<polygon fill="none" stroke="#000000" points="10.5,-147.2 10.5,-169.2 161.5,-169.2 161.5,-147.2 10.5,-147.2"/>
<text text-anchor="start" x="30.5" y="-154.3" font-family="Helvetica,sans-Serif" font-size="11.00" fill="#000000">processed_at</text>
<polygon fill="none" stroke="#000000" points="161.5,-147.2 161.5,-169.2 253.5,-169.2 253.5,-147.2 161.5,-147.2"/>
<text text-anchor="start" x="164.1023" y="-154.9" font-family="Helvetica,sans-Serif" font-size="11.00" fill="#000000">timestamptz[35,6]</text>
<polygon fill="none" stroke="#000000" points="10.5,-125.2 10.5,-147.2 161.5,-147.2 161.5,-125.2 10.5,-125.2"/>
<text text-anchor="start" x="30.5" y="-132.3" font-family="Helvetica,sans-Serif" font-size="11.00" fill="#000000">error_message</text>
<polygon fill="none" stroke="#000000" points="161.5,-125.2 161.5,-147.2 253.5,-147.2 253.5,-125.2 161.5,-125.2"/>
<text text-anchor="start" x="164.5" y="-132.9" font-family="Helvetica,sans-Serif" font-size="11.00" fill="#000000">text[2147483647]</text>
<polygon fill="none" stroke="#000000" points="10.5,-103.2 10.5,-125.2 161.5,-125.2 161.5,-103.2 10.5,-103.2"/>
<text text-anchor="start" x="30.5" y="-110.3" font-family="Helvetica,sans-Serif" font-size="11.00" fill="#000000">retry_count</text>
<polygon fill="none" stroke="#000000" points="161.5,-103.2 161.5,-125.2 253.5,-125.2 253.5,-103.2 161.5,-103.2"/>
<text text-anchor="start" x="164.5" y="-110.9" font-family="Helvetica,sans-Serif" font-size="11.00" fill="#000000">int4[10]</text>
<polygon fill="#ffffff" stroke="transparent" points="10.5,-81.2 10.5,-103.2 161.5,-103.2 161.5,-81.2 10.5,-81.2"/>
<polygon fill="none" stroke="#000000" points="10.5,-81.2 10.5,-103.2 161.5,-103.2 161.5,-81.2 10.5,-81.2"/>
<text text-anchor="start" x="30.5" y="-88.3" font-family="Helvetica,sans-Serif" font-size="11.00" fill="#000000">variation_margin</text>
<polygon fill="none" stroke="#000000" points="161.5,-81.2 161.5,-103.2 253.5,-103.2 253.5,-81.2 161.5,-81.2"/>
<text text-anchor="start" x="164.5" y="-88.9" font-family="Helvetica,sans-Serif" font-size="11.00" fill="#000000">numeric[15,2]</text>
<polygon fill="#ffffff" stroke="transparent" points="10.5,-59.2 10.5,-81.2 161.5,-81.2 161.5,-59.2 10.5,-59.2"/>
<polygon fill="none" stroke="#000000" points="10.5,-59.2 10.5,-81.2 161.5,-81.2 161.5,-59.2 10.5,-59.2"/>
<text text-anchor="start" x="30.5" y="-66.3" font-family="Helvetica,sans-Serif" font-size="11.00" fill="#000000">initial_margin</text>
<polygon fill="none" stroke="#000000" points="161.5,-59.2 161.5,-81.2 253.5,-81.2 253.5,-59.2 161.5,-59.2"/>
<text text-anchor="start" x="164.5" y="-66.9" font-family="Helvetica,sans-Serif" font-size="11.00" fill="#000000">numeric[15,2]</text>
<polygon fill="#ffffff" stroke="transparent" points="10.5,-40.2 10.5,-59.2 90.5,-59.2 90.5,-40.2 10.5,-40.2"/>
<polygon fill="none" stroke="#000000" points="10.5,-40.2 10.5,-59.2 90.5,-59.2 90.5,-40.2 10.5,-40.2"/>
<text text-anchor="start" x="13.5" y="-46.3" font-family="Helvetica,sans-Serif" font-size="11.00" fill="#000000">&lt; 0</text>
<polygon fill="#ffffff" stroke="transparent" points="90.5,-40.2 90.5,-59.2 161.5,-59.2 161.5,-40.2 90.5,-40.2"/>
<polygon fill="none" stroke="#000000" points="90.5,-40.2 90.5,-59.2 161.5,-59.2 161.5,-40.2 90.5,-40.2"/>
<text text-anchor="start" x="152.3862" y="-46.3" font-family="Helvetica,sans-Serif" font-size="11.00" fill="#000000"> &#160;</text>
<polygon fill="#ffffff" stroke="transparent" points="161.5,-40.2 161.5,-59.2 253.5,-59.2 253.5,-40.2 161.5,-40.2"/>
<polygon fill="none" stroke="#000000" points="161.5,-40.2 161.5,-59.2 253.5,-59.2 253.5,-40.2 161.5,-40.2"/>
<text text-anchor="start" x="234.9053" y="-46.3" font-family="Helvetica,sans-Serif" font-size="11.00" fill="#000000">4 &gt;</text>
<polygon fill="none" stroke="#000000" stroke-width="2" points="9,-39.2 9,-501.2 254,-501.2 254,-39.2 9,-39.2"/>
</a>
</g>
</g>
<!-- collateral_ledger&#45;&gt;margin_statements -->
<g id="edge1" class="edge">
<title>collateral_ledger:w&#45;&gt;margin_statements:e</title>
<path fill="none" stroke="#000000" d="M317.4485,-684.9247C302.9024,-676.27 305.5526,-651.8976 296,-629.2 266.9587,-560.1957 328.3665,-466.2 253.5,-466.2"/>
<polygon fill="#000000" stroke="#000000" points="323.7089,-686.3839 330.6827,-691.706 327.6044,-687.2919 331.5,-688.2 331.5,-688.2 331.5,-688.2 327.6044,-687.2919 332.3173,-684.694 323.7089,-686.3839 323.7089,-686.3839"/>
<ellipse fill="none" stroke="#000000" cx="320.5924" cy="-685.6574" rx="3.2" ry="3.2"/>
</g>
<!-- margin_positions -->
<g id="node3" class="node">
<title>margin_positions</title>
<g id="a_node3"><a xlink:href="../../tables/margin_positions.html" xlink:title="margin_positions" target="_top">
<polygon fill="#ffffff" stroke="transparent" points="334.5,-447.7 334.5,-618.7 488.5,-618.7 488.5,-447.7 334.5,-447.7"/>
<polygon fill="#f5f5f5" stroke="transparent" points="334.5,-595.2 334.5,-618.2 488.5,-618.2 488.5,-595.2 334.5,-595.2"/>
<polygon fill="none" stroke="#000000" points="334.5,-595.2 334.5,-618.2 488.5,-618.2 488.5,-595.2 334.5,-595.2"/>
<text text-anchor="start" x="339.5" y="-603.8" font-family="Helvetica,sans-Serif" font-weight="bold" font-size="11.00" fill="#000000">margin_positions</text>
<text text-anchor="start" x="454.0219" y="-603.3" font-family="Helvetica,sans-Serif" font-size="11.00" fill="#000000">[table]</text>
<polygon fill="none" stroke="#000000" points="334.5,-573.2 334.5,-595.2 488.5,-595.2 488.5,-573.2 334.5,-573.2"/>
<image xlink:href="../../images/primaryKeys.png" width="11px" height="12px" preserveAspectRatio="xMinYMin meet" x="339.5" y="-590.2"/>
<text text-anchor="start" x="363.5" y="-580.3" font-family="Helvetica,sans-Serif" font-size="11.00" fill="#000000">id</text>
<polygon fill="#ffffff" stroke="transparent" points="334.5,-551.2 334.5,-573.2 488.5,-573.2 488.5,-551.2 334.5,-551.2"/>
<polygon fill="none" stroke="#000000" points="334.5,-551.2 334.5,-573.2 488.5,-573.2 488.5,-551.2 334.5,-551.2"/>
<image xlink:href="../../images/foreignKeys.png" width="11px" height="12px" preserveAspectRatio="xMinYMin meet" x="339.5" y="-568.2"/>
<text text-anchor="start" x="363.5" y="-558.3" font-family="Helvetica,sans-Serif" font-size="11.00" fill="#000000">statement_id</text>
<polygon fill="#ffffff" stroke="transparent" points="334.5,-529.2 334.5,-551.2 488.5,-551.2 488.5,-529.2 334.5,-529.2"/>
<polygon fill="none" stroke="#000000" points="334.5,-529.2 334.5,-551.2 488.5,-551.2 488.5,-529.2 334.5,-529.2"/>
<text text-anchor="start" x="363.5" y="-536.3" font-family="Helvetica,sans-Serif" font-size="11.00" fill="#000000">position_type</text>
<polygon fill="#ffffff" stroke="transparent" points="334.5,-507.2 334.5,-529.2 488.5,-529.2 488.5,-507.2 334.5,-507.2"/>
<polygon fill="none" stroke="#000000" points="334.5,-507.2 334.5,-529.2 488.5,-529.2 488.5,-507.2 334.5,-507.2"/>
<text text-anchor="start" x="363.5" y="-514.3" font-family="Helvetica,sans-Serif" font-size="11.00" fill="#000000">effective_date</text>
<polygon fill="#ffffff" stroke="transparent" points="334.5,-485.2 334.5,-507.2 488.5,-507.2 488.5,-485.2 334.5,-485.2"/>
<polygon fill="none" stroke="#000000" points="334.5,-485.2 334.5,-507.2 488.5,-507.2 488.5,-485.2 334.5,-485.2"/>
<text text-anchor="start" x="363.5" y="-492.3" font-family="Helvetica,sans-Serif" font-size="11.00" fill="#000000">account_number</text>
<polygon fill="none" stroke="#000000" points="334.5,-466.2 334.5,-485.2 488.5,-485.2 488.5,-466.2 334.5,-466.2"/>
<text text-anchor="start" x="337.5" y="-472.3" font-family="Helvetica,sans-Serif" font-size="11.00" fill="#000000">...</text>
<polygon fill="#ffffff" stroke="transparent" points="334.5,-447.2 334.5,-466.2 409.5,-466.2 409.5,-447.2 334.5,-447.2"/>
<polygon fill="none" stroke="#000000" points="334.5,-447.2 334.5,-466.2 409.5,-466.2 409.5,-447.2 334.5,-447.2"/>
<text text-anchor="start" x="337.5" y="-453.3" font-family="Helvetica,sans-Serif" font-size="11.00" fill="#000000">&lt; 1</text>
<polygon fill="#ffffff" stroke="transparent" points="409.5,-447.2 409.5,-466.2 448.5,-466.2 448.5,-447.2 409.5,-447.2"/>
<polygon fill="none" stroke="#000000" points="409.5,-447.2 409.5,-466.2 448.5,-466.2 448.5,-447.2 409.5,-447.2"/>
<text text-anchor="start" x="439.3862" y="-453.3" font-family="Helvetica,sans-Serif" font-size="11.00" fill="#000000"> &#160;</text>
<polygon fill="#ffffff" stroke="transparent" points="448.5,-447.2 448.5,-466.2 488.5,-466.2 488.5,-447.2 448.5,-447.2"/>
<polygon fill="none" stroke="#000000" points="448.5,-447.2 448.5,-466.2 488.5,-466.2 488.5,-447.2 448.5,-447.2"/>
<text text-anchor="start" x="479.3862" y="-453.3" font-family="Helvetica,sans-Serif" font-size="11.00" fill="#000000"> &#160;</text>
</a>
</g>
</g>
<!-- margin_positions&#45;&gt;margin_statements -->
<g id="edge2" class="edge">
<title>margin_positions:w&#45;&gt;margin_statements:e</title>
<path fill="none" stroke="#000000" d="M319.9856,-559.4304C284.0087,-543.6902 303.6554,-466.2 253.5,-466.2"/>
<polygon fill="#000000" stroke="#000000" points="326.6418,-560.7005 333.8252,-565.7362 330.5709,-561.4502 334.5,-562.2 334.5,-562.2 334.5,-562.2 330.5709,-561.4502 335.1748,-558.6638 326.6418,-560.7005 326.6418,-560.7005"/>
<ellipse fill="none" stroke="#000000" cx="323.4985" cy="-560.1007" rx="3.2" ry="3.2"/>
</g>
<!-- position_discrepancies -->
<g id="node4" class="node">
<title>position_discrepancies</title>
<g id="a_node4"><a xlink:href="../../tables/position_discrepancies.html" xlink:title="position_discrepancies" target="_top">
<polygon fill="#ffffff" stroke="transparent" points="315.5,-277.7 315.5,-426.7 507.5,-426.7 507.5,-277.7 315.5,-277.7"/>
<polygon fill="#f5f5f5" stroke="transparent" points="315.5,-403.2 315.5,-426.2 507.5,-426.2 507.5,-403.2 315.5,-403.2"/>
<polygon fill="none" stroke="#000000" points="315.5,-403.2 315.5,-426.2 507.5,-426.2 507.5,-403.2 315.5,-403.2"/>
<text text-anchor="start" x="320.5" y="-411.8" font-family="Helvetica,sans-Serif" font-weight="bold" font-size="11.00" fill="#000000">position_discrepancies</text>
<text text-anchor="start" x="473.0219" y="-411.3" font-family="Helvetica,sans-Serif" font-size="11.00" fill="#000000">[table]</text>
<polygon fill="none" stroke="#000000" points="315.5,-381.2 315.5,-403.2 507.5,-403.2 507.5,-381.2 315.5,-381.2"/>
<image xlink:href="../../images/primaryKeys.png" width="11px" height="12px" preserveAspectRatio="xMinYMin meet" x="320.5" y="-398.2"/>
<text text-anchor="start" x="344.5" y="-388.3" font-family="Helvetica,sans-Serif" font-size="11.00" fill="#000000">id</text>
<polygon fill="#ffffff" stroke="transparent" points="315.5,-359.2 315.5,-381.2 507.5,-381.2 507.5,-359.2 315.5,-359.2"/>
<polygon fill="none" stroke="#000000" points="315.5,-359.2 315.5,-381.2 507.5,-381.2 507.5,-359.2 315.5,-359.2"/>
<image xlink:href="../../images/foreignKeys.png" width="11px" height="12px" preserveAspectRatio="xMinYMin meet" x="320.5" y="-376.2"/>
<text text-anchor="start" x="344.5" y="-366.3" font-family="Helvetica,sans-Serif" font-size="11.00" fill="#000000">statement_id</text>
<polygon fill="#ffffff" stroke="transparent" points="315.5,-337.2 315.5,-359.2 507.5,-359.2 507.5,-337.2 315.5,-337.2"/>
<polygon fill="none" stroke="#000000" points="315.5,-337.2 315.5,-359.2 507.5,-359.2 507.5,-337.2 315.5,-337.2"/>
<text text-anchor="start" x="344.5" y="-344.3" font-family="Helvetica,sans-Serif" font-size="11.00" fill="#000000">is_material</text>
<polygon fill="#ffffff" stroke="transparent" points="315.5,-315.2 315.5,-337.2 507.5,-337.2 507.5,-315.2 315.5,-315.2"/>
<polygon fill="none" stroke="#000000" points="315.5,-315.2 315.5,-337.2 507.5,-337.2 507.5,-315.2 315.5,-315.2"/>
<text text-anchor="start" x="344.5" y="-322.3" font-family="Helvetica,sans-Serif" font-size="11.00" fill="#000000">resolution_status</text>
<polygon fill="none" stroke="#000000" points="315.5,-296.2 315.5,-315.2 507.5,-315.2 507.5,-296.2 315.5,-296.2"/>
<text text-anchor="start" x="318.5" y="-302.3" font-family="Helvetica,sans-Serif" font-size="11.00" fill="#000000">...</text>
<polygon fill="#ffffff" stroke="transparent" points="315.5,-277.2 315.5,-296.2 409.5,-296.2 409.5,-277.2 315.5,-277.2"/>
<polygon fill="none" stroke="#000000" points="315.5,-277.2 315.5,-296.2 409.5,-296.2 409.5,-277.2 315.5,-277.2"/>
<text text-anchor="start" x="318.5" y="-283.3" font-family="Helvetica,sans-Serif" font-size="11.00" fill="#000000">&lt; 1</text>
<polygon fill="#ffffff" stroke="transparent" points="409.5,-277.2 409.5,-296.2 458.5,-296.2 458.5,-277.2 409.5,-277.2"/>
<polygon fill="none" stroke="#000000" points="409.5,-277.2 409.5,-296.2 458.5,-296.2 458.5,-277.2 409.5,-277.2"/>
<text text-anchor="start" x="449.3862" y="-283.3" font-family="Helvetica,sans-Serif" font-size="11.00" fill="#000000"> &#160;</text>
<polygon fill="#ffffff" stroke="transparent" points="458.5,-277.2 458.5,-296.2 507.5,-296.2 507.5,-277.2 458.5,-277.2"/>
<polygon fill="none" stroke="#000000" points="458.5,-277.2 458.5,-296.2 507.5,-296.2 507.5,-277.2 458.5,-277.2"/>
<text text-anchor="start" x="498.3862" y="-283.3" font-family="Helvetica,sans-Serif" font-size="11.00" fill="#000000"> &#160;</text>
</a>
</g>
</g>
<!-- position_discrepancies&#45;&gt;margin_statements -->
<g id="edge3" class="edge">
<title>position_discrepancies:w&#45;&gt;margin_statements:e</title>
<path fill="none" stroke="#000000" d="M301.4554,-373.6167C272.5169,-390.7181 298.5376,-466.2 253.5,-466.2"/>
<polygon fill="#000000" stroke="#000000" points="307.7267,-372.0911 316.351,-373.698 311.6134,-371.1455 315.5,-370.2 315.5,-370.2 315.5,-370.2 311.6134,-371.1455 314.649,-366.702 307.7267,-372.0911 307.7267,-372.0911"/>
<ellipse fill="none" stroke="#000000" cx="304.6174" cy="-372.8475" rx="3.2" ry="3.2"/>
</g>
<!-- statement_processing_log -->
<g id="node5" class="node">
<title>statement_processing_log</title>
<g id="a_node5"><a xlink:href="../../tables/statement_processing_log.html" xlink:title="statement_processing_log" target="_top">
<polygon fill="#ffffff" stroke="transparent" points="304,-107.7 304,-256.7 519,-256.7 519,-107.7 304,-107.7"/>
<polygon fill="#f5f5f5" stroke="transparent" points="304.5,-233.2 304.5,-256.2 519.5,-256.2 519.5,-233.2 304.5,-233.2"/>
<polygon fill="none" stroke="#000000" points="304.5,-233.2 304.5,-256.2 519.5,-256.2 519.5,-233.2 304.5,-233.2"/>
<text text-anchor="start" x="309.5" y="-241.8" font-family="Helvetica,sans-Serif" font-weight="bold" font-size="11.00" fill="#000000">statement_processing_log</text>
<text text-anchor="start" x="485.0219" y="-241.3" font-family="Helvetica,sans-Serif" font-size="11.00" fill="#000000">[table]</text>
<polygon fill="none" stroke="#000000" points="304.5,-211.2 304.5,-233.2 519.5,-233.2 519.5,-211.2 304.5,-211.2"/>
<image xlink:href="../../images/primaryKeys.png" width="11px" height="12px" preserveAspectRatio="xMinYMin meet" x="309.5" y="-228.2"/>
<text text-anchor="start" x="333.5" y="-218.3" font-family="Helvetica,sans-Serif" font-size="11.00" fill="#000000">id</text>
<polygon fill="#ffffff" stroke="transparent" points="304.5,-189.2 304.5,-211.2 519.5,-211.2 519.5,-189.2 304.5,-189.2"/>
<polygon fill="none" stroke="#000000" points="304.5,-189.2 304.5,-211.2 519.5,-211.2 519.5,-189.2 304.5,-189.2"/>
<image xlink:href="../../images/foreignKeys.png" width="11px" height="12px" preserveAspectRatio="xMinYMin meet" x="309.5" y="-206.2"/>
<text text-anchor="start" x="333.5" y="-196.3" font-family="Helvetica,sans-Serif" font-size="11.00" fill="#000000">statement_id</text>
<polygon fill="#ffffff" stroke="transparent" points="304.5,-167.2 304.5,-189.2 519.5,-189.2 519.5,-167.2 304.5,-167.2"/>
<polygon fill="none" stroke="#000000" points="304.5,-167.2 304.5,-189.2 519.5,-189.2 519.5,-167.2 304.5,-167.2"/>
<text text-anchor="start" x="333.5" y="-174.3" font-family="Helvetica,sans-Serif" font-size="11.00" fill="#000000">processing_step</text>
<polygon fill="#ffffff" stroke="transparent" points="304.5,-145.2 304.5,-167.2 519.5,-167.2 519.5,-145.2 304.5,-145.2"/>
<polygon fill="none" stroke="#000000" points="304.5,-145.2 304.5,-167.2 519.5,-167.2 519.5,-145.2 304.5,-145.2"/>
<text text-anchor="start" x="333.5" y="-152.3" font-family="Helvetica,sans-Serif" font-size="11.00" fill="#000000">status</text>
<polygon fill="none" stroke="#000000" points="304.5,-126.2 304.5,-145.2 519.5,-145.2 519.5,-126.2 304.5,-126.2"/>
<text text-anchor="start" x="307.5" y="-132.3" font-family="Helvetica,sans-Serif" font-size="11.00" fill="#000000">...</text>
<polygon fill="#ffffff" stroke="transparent" points="304.5,-107.2 304.5,-126.2 410.5,-126.2 410.5,-107.2 304.5,-107.2"/>
<polygon fill="none" stroke="#000000" points="304.5,-107.2 304.5,-126.2 410.5,-126.2 410.5,-107.2 304.5,-107.2"/>
<text text-anchor="start" x="307.5" y="-113.3" font-family="Helvetica,sans-Serif" font-size="11.00" fill="#000000">&lt; 1</text>
<polygon fill="#ffffff" stroke="transparent" points="410.5,-107.2 410.5,-126.2 464.5,-126.2 464.5,-107.2 410.5,-107.2"/>
<polygon fill="none" stroke="#000000" points="410.5,-107.2 410.5,-126.2 464.5,-126.2 464.5,-107.2 410.5,-107.2"/>
<text text-anchor="start" x="455.3862" y="-113.3" font-family="Helvetica,sans-Serif" font-size="11.00" fill="#000000"> &#160;</text>
<polygon fill="#ffffff" stroke="transparent" points="464.5,-107.2 464.5,-126.2 519.5,-126.2 519.5,-107.2 464.5,-107.2"/>
<polygon fill="none" stroke="#000000" points="464.5,-107.2 464.5,-126.2 519.5,-126.2 519.5,-107.2 464.5,-107.2"/>
<text text-anchor="start" x="510.3862" y="-113.3" font-family="Helvetica,sans-Serif" font-size="11.00" fill="#000000"> &#160;</text>
</a>
</g>
</g>
<!-- statement_processing_log&#45;&gt;margin_statements -->
<g id="edge4" class="edge">
<title>statement_processing_log:w&#45;&gt;margin_statements:e</title>
<path fill="none" stroke="#000000" d="M290.0988,-201.7621C200.5466,-223.5617 368.468,-466.2 253.5,-466.2"/>
<polygon fill="#000000" stroke="#000000" points="296.5467,-201.0628 304.8882,-203.779 300.5233,-200.6314 304.5,-200.2 304.5,-200.2 304.5,-200.2 300.5233,-200.6314 304.1118,-196.621 296.5467,-201.0628 296.5467,-201.0628"/>
<ellipse fill="none" stroke="#000000" cx="293.3653" cy="-201.4079" rx="3.2" ry="3.2"/>
</g>
</g>
</svg>
