<?xml version="1.0" encoding="UTF-8" standalone="no"?>
<!DOCTYPE svg PUBLIC "-//W3C//DTD SVG 1.1//EN"
 "http://www.w3.org/Graphics/SVG/1.1/DTD/svg11.dtd">
<!-- Generated by graphviz version 2.40.1 (20161225.0304)
 -->
<!-- Title: twoDegreesRelationshipsDiagram Pages: 1 -->
<svg width="474pt" height="585pt"
 viewBox="0.00 0.00 474.00 585.20" xmlns="http://www.w3.org/2000/svg" xmlns:xlink="http://www.w3.org/1999/xlink">
<g id="graph0" class="graph" transform="scale(1 1) rotate(0) translate(4 581.2)">
<title>twoDegreesRelationshipsDiagram</title>
<polygon fill="#ffffff" stroke="transparent" points="-4,4 -4,-581.2 470,-581.2 470,4 -4,4"/>
<text text-anchor="middle" x="72.4936" y="-7.3" font-family="Helvetica,sans-Serif" font-size="11.00" fill="#000000">Generated by SchemaSpy</text>
<!-- collateral_ledger -->
<g id="node1" class="node">
<title>collateral_ledger</title>
<g id="a_node1"><a xlink:href="../../tables/collateral_ledger.html" xlink:title="collateral_ledger" target="_top">
<polygon fill="#ffffff" stroke="transparent" points="266,-512.2 266,-573.2 418,-573.2 418,-512.2 266,-512.2"/>
<polygon fill="#f5f5f5" stroke="transparent" points="266,-549.7 266,-572.7 418,-572.7 418,-549.7 266,-549.7"/>
<polygon fill="none" stroke="#000000" points="266,-549.7 266,-572.7 418,-572.7 418,-549.7 266,-549.7"/>
<text text-anchor="start" x="271" y="-558.3" font-family="Helvetica,sans-Serif" font-weight="bold" font-size="11.00" fill="#000000">collateral_ledger</text>
<text text-anchor="start" x="383.5219" y="-557.8" font-family="Helvetica,sans-Serif" font-size="11.00" fill="#000000">[table]</text>
<polygon fill="none" stroke="#000000" points="266,-530.7 266,-549.7 418,-549.7 418,-530.7 266,-530.7"/>
<text text-anchor="start" x="269" y="-536.8" font-family="Helvetica,sans-Serif" font-size="11.00" fill="#000000">...</text>
<polygon fill="#ffffff" stroke="transparent" points="266,-511.7 266,-530.7 340,-530.7 340,-511.7 266,-511.7"/>
<polygon fill="none" stroke="#000000" points="266,-511.7 266,-530.7 340,-530.7 340,-511.7 266,-511.7"/>
<text text-anchor="start" x="269" y="-517.8" font-family="Helvetica,sans-Serif" font-size="11.00" fill="#000000">&lt; 1</text>
<polygon fill="#ffffff" stroke="transparent" points="340,-511.7 340,-530.7 379,-530.7 379,-511.7 340,-511.7"/>
<polygon fill="none" stroke="#000000" points="340,-511.7 340,-530.7 379,-530.7 379,-511.7 340,-511.7"/>
<text text-anchor="start" x="369.8862" y="-517.8" font-family="Helvetica,sans-Serif" font-size="11.00" fill="#000000"> &#160;</text>
<polygon fill="#ffffff" stroke="transparent" points="379,-511.7 379,-530.7 418,-530.7 418,-511.7 379,-511.7"/>
<polygon fill="none" stroke="#000000" points="379,-511.7 379,-530.7 418,-530.7 418,-511.7 379,-511.7"/>
<text text-anchor="start" x="408.8862" y="-517.8" font-family="Helvetica,sans-Serif" font-size="11.00" fill="#000000"> &#160;</text>
</a>
</g>
</g>
<!-- margin_statements -->
<g id="node2" class="node">
<title>margin_statements</title>
<g id="a_node2"><a xlink:href="../../tables/margin_statements.html" xlink:title="margin_statements" target="_top">
<polygon fill="#ffffff" stroke="transparent" points="8,-87.2 8,-324.2 177,-324.2 177,-87.2 8,-87.2"/>
<polygon fill="#f5f5f5" stroke="transparent" points="8.5,-300.7 8.5,-323.7 177.5,-323.7 177.5,-300.7 8.5,-300.7"/>
<polygon fill="none" stroke="#000000" points="8.5,-300.7 8.5,-323.7 177.5,-323.7 177.5,-300.7 8.5,-300.7"/>
<text text-anchor="start" x="13.5" y="-309.3" font-family="Helvetica,sans-Serif" font-weight="bold" font-size="11.00" fill="#000000">margin_statements</text>
<text text-anchor="start" x="143.0219" y="-308.8" font-family="Helvetica,sans-Serif" font-size="11.00" fill="#000000">[table]</text>
<polygon fill="none" stroke="#000000" points="8.5,-278.7 8.5,-300.7 177.5,-300.7 177.5,-278.7 8.5,-278.7"/>
<image xlink:href="../../images/primaryKeys.png" width="11px" height="12px" preserveAspectRatio="xMinYMin meet" x="13.5" y="-295.7"/>
<text text-anchor="start" x="37.5" y="-285.8" font-family="Helvetica,sans-Serif" font-size="11.00" fill="#000000">id</text>
<polygon fill="#ffffff" stroke="transparent" points="8.5,-256.7 8.5,-278.7 177.5,-278.7 177.5,-256.7 8.5,-256.7"/>
<polygon fill="none" stroke="#000000" points="8.5,-256.7 8.5,-278.7 177.5,-278.7 177.5,-256.7 8.5,-256.7"/>
<text text-anchor="start" x="37.5" y="-263.8" font-family="Helvetica,sans-Serif" font-size="11.00" fill="#000000">statement_id</text>
<polygon fill="#ffffff" stroke="transparent" points="8.5,-234.7 8.5,-256.7 177.5,-256.7 177.5,-234.7 8.5,-234.7"/>
<polygon fill="none" stroke="#000000" points="8.5,-234.7 8.5,-256.7 177.5,-256.7 177.5,-234.7 8.5,-234.7"/>
<text text-anchor="start" x="37.5" y="-241.8" font-family="Helvetica,sans-Serif" font-size="11.00" fill="#000000">ccp_name</text>
<polygon fill="#ffffff" stroke="transparent" points="8.5,-212.7 8.5,-234.7 177.5,-234.7 177.5,-212.7 8.5,-212.7"/>
<polygon fill="none" stroke="#000000" points="8.5,-212.7 8.5,-234.7 177.5,-234.7 177.5,-212.7 8.5,-212.7"/>
<text text-anchor="start" x="37.5" y="-219.8" font-family="Helvetica,sans-Serif" font-size="11.00" fill="#000000">statement_date</text>
<polygon fill="#ffffff" stroke="transparent" points="8.5,-190.7 8.5,-212.7 177.5,-212.7 177.5,-190.7 8.5,-190.7"/>
<polygon fill="none" stroke="#000000" points="8.5,-190.7 8.5,-212.7 177.5,-212.7 177.5,-190.7 8.5,-190.7"/>
<text text-anchor="start" x="37.5" y="-197.8" font-family="Helvetica,sans-Serif" font-size="11.00" fill="#000000">status</text>
<polygon fill="#ffffff" stroke="transparent" points="8.5,-168.7 8.5,-190.7 177.5,-190.7 177.5,-168.7 8.5,-168.7"/>
<polygon fill="none" stroke="#000000" points="8.5,-168.7 8.5,-190.7 177.5,-190.7 177.5,-168.7 8.5,-168.7"/>
<text text-anchor="start" x="37.5" y="-175.8" font-family="Helvetica,sans-Serif" font-size="11.00" fill="#000000">created_at</text>
<polygon fill="#ffffff" stroke="transparent" points="8.5,-146.7 8.5,-168.7 177.5,-168.7 177.5,-146.7 8.5,-146.7"/>
<polygon fill="none" stroke="#000000" points="8.5,-146.7 8.5,-168.7 177.5,-168.7 177.5,-146.7 8.5,-146.7"/>
<text text-anchor="start" x="37.5" y="-153.8" font-family="Helvetica,sans-Serif" font-size="11.00" fill="#000000">variation_margin</text>
<polygon fill="#ffffff" stroke="transparent" points="8.5,-124.7 8.5,-146.7 177.5,-146.7 177.5,-124.7 8.5,-124.7"/>
<polygon fill="none" stroke="#000000" points="8.5,-124.7 8.5,-146.7 177.5,-146.7 177.5,-124.7 8.5,-124.7"/>
<text text-anchor="start" x="37.5" y="-131.8" font-family="Helvetica,sans-Serif" font-size="11.00" fill="#000000">initial_margin</text>
<polygon fill="none" stroke="#000000" points="8.5,-105.7 8.5,-124.7 177.5,-124.7 177.5,-105.7 8.5,-105.7"/>
<text text-anchor="start" x="11.5" y="-111.8" font-family="Helvetica,sans-Serif" font-size="11.00" fill="#000000">...</text>
<polygon fill="#ffffff" stroke="transparent" points="8.5,-86.7 8.5,-105.7 82.5,-105.7 82.5,-86.7 8.5,-86.7"/>
<polygon fill="none" stroke="#000000" points="8.5,-86.7 8.5,-105.7 82.5,-105.7 82.5,-86.7 8.5,-86.7"/>
<text text-anchor="start" x="11.5" y="-92.8" font-family="Helvetica,sans-Serif" font-size="11.00" fill="#000000"> &#160;</text>
<polygon fill="#ffffff" stroke="transparent" points="82.5,-86.7 82.5,-105.7 125.5,-105.7 125.5,-86.7 82.5,-86.7"/>
<polygon fill="none" stroke="#000000" points="82.5,-86.7 82.5,-105.7 125.5,-105.7 125.5,-86.7 82.5,-86.7"/>
<text text-anchor="start" x="116.3862" y="-92.8" font-family="Helvetica,sans-Serif" font-size="11.00" fill="#000000"> &#160;</text>
<polygon fill="#ffffff" stroke="transparent" points="125.5,-86.7 125.5,-105.7 177.5,-105.7 177.5,-86.7 125.5,-86.7"/>
<polygon fill="none" stroke="#000000" points="125.5,-86.7 125.5,-105.7 177.5,-105.7 177.5,-86.7 125.5,-86.7"/>
<text text-anchor="start" x="158.9053" y="-92.8" font-family="Helvetica,sans-Serif" font-size="11.00" fill="#000000">4 &gt;</text>
</a>
</g>
</g>
<!-- collateral_ledger&#45;&gt;margin_statements -->
<g id="edge1" class="edge">
<title>collateral_ledger:w&#45;&gt;margin_statements:e</title>
<path fill="none" stroke="#000000" d="M251.2589,-537.7917C235.64,-533.1051 229.1296,-520.0599 218,-501.7 193.1367,-460.6845 225.4631,-289.7 177.5,-289.7"/>
<polygon fill="#000000" stroke="#000000" points="258.0662,-538.6729 265.5378,-543.2702 262.0331,-539.1864 266,-539.7 266,-539.7 266,-539.7 262.0331,-539.1864 266.4622,-536.1298 258.0662,-538.6729 258.0662,-538.6729"/>
<ellipse fill="none" stroke="#000000" cx="254.8927" cy="-538.262" rx="3.2" ry="3.2"/>
</g>
<!-- margin_positions -->
<g id="node3" class="node">
<title>margin_positions</title>
<g id="a_node3"><a xlink:href="../../tables/margin_positions.html" xlink:title="margin_positions" target="_top">
<polygon fill="#ffffff" stroke="transparent" points="226,-202.7 226,-490.7 458,-490.7 458,-202.7 226,-202.7"/>
<polygon fill="#f5f5f5" stroke="transparent" points="228,-465.7 228,-488.7 456,-488.7 456,-465.7 228,-465.7"/>
<polygon fill="none" stroke="#000000" points="228,-465.7 228,-488.7 456,-488.7 456,-465.7 228,-465.7"/>
<text text-anchor="start" x="233" y="-474.3" font-family="Helvetica,sans-Serif" font-weight="bold" font-size="11.00" fill="#000000">margin_positions</text>
<text text-anchor="start" x="421.0437" y="-473.8" font-family="Helvetica,sans-Serif" font-size="11.00" fill="#000000">[table]</text>
<polygon fill="none" stroke="#000000" points="228,-443.7 228,-465.7 364,-465.7 364,-443.7 228,-443.7"/>
<image xlink:href="../../images/primaryKeys.png" width="11px" height="12px" preserveAspectRatio="xMinYMin meet" x="233" y="-460.7"/>
<text text-anchor="start" x="248" y="-450.8" font-family="Helvetica,sans-Serif" font-size="11.00" fill="#000000">id</text>
<polygon fill="none" stroke="#000000" points="364,-443.7 364,-465.7 456,-465.7 456,-443.7 364,-443.7"/>
<text text-anchor="start" x="367" y="-451.4" font-family="Helvetica,sans-Serif" font-size="11.00" fill="#000000">bigserial[19]</text>
<polygon fill="#ffffff" stroke="transparent" points="228,-421.7 228,-443.7 364,-443.7 364,-421.7 228,-421.7"/>
<polygon fill="none" stroke="#000000" points="228,-421.7 228,-443.7 364,-443.7 364,-421.7 228,-421.7"/>
<image xlink:href="../../images/foreignKeys.png" width="11px" height="12px" preserveAspectRatio="xMinYMin meet" x="233" y="-438.7"/>
<text text-anchor="start" x="248" y="-428.8" font-family="Helvetica,sans-Serif" font-size="11.00" fill="#000000">statement_id</text>
<polygon fill="none" stroke="#000000" points="364,-421.7 364,-443.7 456,-443.7 456,-421.7 364,-421.7"/>
<text text-anchor="start" x="367" y="-429.4" font-family="Helvetica,sans-Serif" font-size="11.00" fill="#000000">int8[19]</text>
<polygon fill="#ffffff" stroke="transparent" points="228,-399.7 228,-421.7 364,-421.7 364,-399.7 228,-399.7"/>
<polygon fill="none" stroke="#000000" points="228,-399.7 228,-421.7 364,-421.7 364,-399.7 228,-399.7"/>
<text text-anchor="start" x="248" y="-406.8" font-family="Helvetica,sans-Serif" font-size="11.00" fill="#000000">position_type</text>
<polygon fill="none" stroke="#000000" points="364,-399.7 364,-421.7 456,-421.7 456,-399.7 364,-399.7"/>
<text text-anchor="start" x="367" y="-407.4" font-family="Helvetica,sans-Serif" font-size="11.00" fill="#000000">varchar[50]</text>
<polygon fill="none" stroke="#000000" points="228,-377.7 228,-399.7 364,-399.7 364,-377.7 228,-377.7"/>
<text text-anchor="start" x="248" y="-384.8" font-family="Helvetica,sans-Serif" font-size="11.00" fill="#000000">amount</text>
<polygon fill="none" stroke="#000000" points="364,-377.7 364,-399.7 456,-399.7 456,-377.7 364,-377.7"/>
<text text-anchor="start" x="367" y="-385.4" font-family="Helvetica,sans-Serif" font-size="11.00" fill="#000000">numeric[20,4]</text>
<polygon fill="none" stroke="#000000" points="228,-355.7 228,-377.7 364,-377.7 364,-355.7 228,-355.7"/>
<text text-anchor="start" x="248" y="-362.8" font-family="Helvetica,sans-Serif" font-size="11.00" fill="#000000">currency</text>
<polygon fill="none" stroke="#000000" points="364,-355.7 364,-377.7 456,-377.7 456,-355.7 364,-355.7"/>
<text text-anchor="start" x="367" y="-363.4" font-family="Helvetica,sans-Serif" font-size="11.00" fill="#000000">varchar[3]</text>
<polygon fill="#ffffff" stroke="transparent" points="228,-333.7 228,-355.7 364,-355.7 364,-333.7 228,-333.7"/>
<polygon fill="none" stroke="#000000" points="228,-333.7 228,-355.7 364,-355.7 364,-333.7 228,-333.7"/>
<text text-anchor="start" x="248" y="-340.8" font-family="Helvetica,sans-Serif" font-size="11.00" fill="#000000">effective_date</text>
<polygon fill="none" stroke="#000000" points="364,-333.7 364,-355.7 456,-355.7 456,-333.7 364,-333.7"/>
<text text-anchor="start" x="367" y="-341.4" font-family="Helvetica,sans-Serif" font-size="11.00" fill="#000000">date[13]</text>
<polygon fill="#ffffff" stroke="transparent" points="228,-311.7 228,-333.7 364,-333.7 364,-311.7 228,-311.7"/>
<polygon fill="none" stroke="#000000" points="228,-311.7 228,-333.7 364,-333.7 364,-311.7 228,-311.7"/>
<text text-anchor="start" x="248" y="-318.8" font-family="Helvetica,sans-Serif" font-size="11.00" fill="#000000">account_number</text>
<polygon fill="none" stroke="#000000" points="364,-311.7 364,-333.7 456,-333.7 456,-311.7 364,-311.7"/>
<text text-anchor="start" x="367" y="-319.4" font-family="Helvetica,sans-Serif" font-size="11.00" fill="#000000">varchar[100]</text>
<polygon fill="none" stroke="#000000" points="228,-289.7 228,-311.7 364,-311.7 364,-289.7 228,-289.7"/>
<text text-anchor="start" x="248" y="-296.8" font-family="Helvetica,sans-Serif" font-size="11.00" fill="#000000">portfolio_code</text>
<polygon fill="none" stroke="#000000" points="364,-289.7 364,-311.7 456,-311.7 456,-289.7 364,-289.7"/>
<text text-anchor="start" x="367" y="-297.4" font-family="Helvetica,sans-Serif" font-size="11.00" fill="#000000">varchar[100]</text>
<polygon fill="none" stroke="#000000" points="228,-267.7 228,-289.7 364,-289.7 364,-267.7 228,-267.7"/>
<text text-anchor="start" x="248" y="-274.8" font-family="Helvetica,sans-Serif" font-size="11.00" fill="#000000">product_class</text>
<polygon fill="none" stroke="#000000" points="364,-267.7 364,-289.7 456,-289.7 456,-267.7 364,-267.7"/>
<text text-anchor="start" x="367" y="-275.4" font-family="Helvetica,sans-Serif" font-size="11.00" fill="#000000">varchar[50]</text>
<polygon fill="none" stroke="#000000" points="228,-245.7 228,-267.7 364,-267.7 364,-245.7 228,-245.7"/>
<text text-anchor="start" x="248" y="-252.8" font-family="Helvetica,sans-Serif" font-size="11.00" fill="#000000">netting_set_id</text>
<polygon fill="none" stroke="#000000" points="364,-245.7 364,-267.7 456,-267.7 456,-245.7 364,-245.7"/>
<text text-anchor="start" x="367" y="-253.4" font-family="Helvetica,sans-Serif" font-size="11.00" fill="#000000">varchar[100]</text>
<polygon fill="none" stroke="#000000" points="228,-223.7 228,-245.7 364,-245.7 364,-223.7 228,-223.7"/>
<text text-anchor="start" x="248" y="-230.8" font-family="Helvetica,sans-Serif" font-size="11.00" fill="#000000">created_at</text>
<polygon fill="none" stroke="#000000" points="364,-223.7 364,-245.7 456,-245.7 456,-223.7 364,-223.7"/>
<text text-anchor="start" x="366.6023" y="-231.4" font-family="Helvetica,sans-Serif" font-size="11.00" fill="#000000">timestamptz[35,6]</text>
<polygon fill="#ffffff" stroke="transparent" points="228,-204.7 228,-223.7 300,-223.7 300,-204.7 228,-204.7"/>
<polygon fill="none" stroke="#000000" points="228,-204.7 228,-223.7 300,-223.7 300,-204.7 228,-204.7"/>
<text text-anchor="start" x="231" y="-210.8" font-family="Helvetica,sans-Serif" font-size="11.00" fill="#000000">&lt; 1</text>
<polygon fill="#ffffff" stroke="transparent" points="300,-204.7 300,-223.7 364,-223.7 364,-204.7 300,-204.7"/>
<polygon fill="none" stroke="#000000" points="300,-204.7 300,-223.7 364,-223.7 364,-204.7 300,-204.7"/>
<text text-anchor="start" x="354.8862" y="-210.8" font-family="Helvetica,sans-Serif" font-size="11.00" fill="#000000"> &#160;</text>
<polygon fill="#ffffff" stroke="transparent" points="364,-204.7 364,-223.7 456,-223.7 456,-204.7 364,-204.7"/>
<polygon fill="none" stroke="#000000" points="364,-204.7 364,-223.7 456,-223.7 456,-204.7 364,-204.7"/>
<text text-anchor="start" x="437.4053" y="-210.8" font-family="Helvetica,sans-Serif" font-size="11.00" fill="#000000">0 &gt;</text>
<polygon fill="none" stroke="#000000" stroke-width="2" points="227,-203.7 227,-489.7 457,-489.7 457,-203.7 227,-203.7"/>
</a>
</g>
</g>
<!-- margin_positions&#45;&gt;margin_statements -->
<g id="edge2" class="edge">
<title>margin_positions:w&#45;&gt;margin_statements:e</title>
<path fill="none" stroke="#000000" d="M213.7915,-429.7132C173.9672,-409.178 239.1099,-289.7 177.5,-289.7"/>
<polygon fill="#000000" stroke="#000000" points="220.1711,-431.0543 227.2594,-436.223 224.0855,-431.8771 228,-432.7 228,-432.7 228,-432.7 224.0855,-431.8771 228.7406,-429.177 220.1711,-431.0543 220.1711,-431.0543"/>
<ellipse fill="none" stroke="#000000" cx="217.0395" cy="-430.396" rx="3.2" ry="3.2"/>
</g>
<!-- position_discrepancies -->
<g id="node4" class="node">
<title>position_discrepancies</title>
<g id="a_node4"><a xlink:href="../../tables/position_discrepancies.html" xlink:title="position_discrepancies" target="_top">
<polygon fill="#ffffff" stroke="transparent" points="246,-120.2 246,-181.2 438,-181.2 438,-120.2 246,-120.2"/>
<polygon fill="#f5f5f5" stroke="transparent" points="246,-157.7 246,-180.7 438,-180.7 438,-157.7 246,-157.7"/>
<polygon fill="none" stroke="#000000" points="246,-157.7 246,-180.7 438,-180.7 438,-157.7 246,-157.7"/>
<text text-anchor="start" x="251" y="-166.3" font-family="Helvetica,sans-Serif" font-weight="bold" font-size="11.00" fill="#000000">position_discrepancies</text>
<text text-anchor="start" x="403.5219" y="-165.8" font-family="Helvetica,sans-Serif" font-size="11.00" fill="#000000">[table]</text>
<polygon fill="none" stroke="#000000" points="246,-138.7 246,-157.7 438,-157.7 438,-138.7 246,-138.7"/>
<text text-anchor="start" x="249" y="-144.8" font-family="Helvetica,sans-Serif" font-size="11.00" fill="#000000">...</text>
<polygon fill="#ffffff" stroke="transparent" points="246,-119.7 246,-138.7 340,-138.7 340,-119.7 246,-119.7"/>
<polygon fill="none" stroke="#000000" points="246,-119.7 246,-138.7 340,-138.7 340,-119.7 246,-119.7"/>
<text text-anchor="start" x="249" y="-125.8" font-family="Helvetica,sans-Serif" font-size="11.00" fill="#000000">&lt; 1</text>
<polygon fill="#ffffff" stroke="transparent" points="340,-119.7 340,-138.7 389,-138.7 389,-119.7 340,-119.7"/>
<polygon fill="none" stroke="#000000" points="340,-119.7 340,-138.7 389,-138.7 389,-119.7 340,-119.7"/>
<text text-anchor="start" x="379.8862" y="-125.8" font-family="Helvetica,sans-Serif" font-size="11.00" fill="#000000"> &#160;</text>
<polygon fill="#ffffff" stroke="transparent" points="389,-119.7 389,-138.7 438,-138.7 438,-119.7 389,-119.7"/>
<polygon fill="none" stroke="#000000" points="389,-119.7 389,-138.7 438,-138.7 438,-119.7 389,-119.7"/>
<text text-anchor="start" x="428.8862" y="-125.8" font-family="Helvetica,sans-Serif" font-size="11.00" fill="#000000"> &#160;</text>
</a>
</g>
</g>
<!-- position_discrepancies&#45;&gt;margin_statements -->
<g id="edge3" class="edge">
<title>position_discrepancies:w&#45;&gt;margin_statements:e</title>
<path fill="none" stroke="#000000" d="M231.7473,-150.2859C186.4945,-169.5316 241.9594,-289.7 177.5,-289.7"/>
<polygon fill="#000000" stroke="#000000" points="238.1285,-149.1282 246.6427,-151.2422 242.0643,-148.4141 246,-147.7 246,-147.7 246,-147.7 242.0643,-148.4141 245.3573,-144.1578 238.1285,-149.1282 238.1285,-149.1282"/>
<ellipse fill="none" stroke="#000000" cx="234.9799" cy="-149.6995" rx="3.2" ry="3.2"/>
</g>
<!-- statement_processing_log -->
<g id="node5" class="node">
<title>statement_processing_log</title>
<g id="a_node5"><a xlink:href="../../tables/statement_processing_log.html" xlink:title="statement_processing_log" target="_top">
<polygon fill="#ffffff" stroke="transparent" points="234.5,-38.2 234.5,-99.2 449.5,-99.2 449.5,-38.2 234.5,-38.2"/>
<polygon fill="#f5f5f5" stroke="transparent" points="235,-75.7 235,-98.7 450,-98.7 450,-75.7 235,-75.7"/>
<polygon fill="none" stroke="#000000" points="235,-75.7 235,-98.7 450,-98.7 450,-75.7 235,-75.7"/>
<text text-anchor="start" x="240" y="-84.3" font-family="Helvetica,sans-Serif" font-weight="bold" font-size="11.00" fill="#000000">statement_processing_log</text>
<text text-anchor="start" x="415.5219" y="-83.8" font-family="Helvetica,sans-Serif" font-size="11.00" fill="#000000">[table]</text>
<polygon fill="none" stroke="#000000" points="235,-56.7 235,-75.7 450,-75.7 450,-56.7 235,-56.7"/>
<text text-anchor="start" x="238" y="-62.8" font-family="Helvetica,sans-Serif" font-size="11.00" fill="#000000">...</text>
<polygon fill="#ffffff" stroke="transparent" points="235,-37.7 235,-56.7 341,-56.7 341,-37.7 235,-37.7"/>
<polygon fill="none" stroke="#000000" points="235,-37.7 235,-56.7 341,-56.7 341,-37.7 235,-37.7"/>
<text text-anchor="start" x="238" y="-43.8" font-family="Helvetica,sans-Serif" font-size="11.00" fill="#000000">&lt; 1</text>
<polygon fill="#ffffff" stroke="transparent" points="341,-37.7 341,-56.7 395,-56.7 395,-37.7 341,-37.7"/>
<polygon fill="none" stroke="#000000" points="341,-37.7 341,-56.7 395,-56.7 395,-37.7 341,-37.7"/>
<text text-anchor="start" x="385.8862" y="-43.8" font-family="Helvetica,sans-Serif" font-size="11.00" fill="#000000"> &#160;</text>
<polygon fill="#ffffff" stroke="transparent" points="395,-37.7 395,-56.7 450,-56.7 450,-37.7 395,-37.7"/>
<polygon fill="none" stroke="#000000" points="395,-37.7 395,-56.7 450,-56.7 450,-37.7 395,-37.7"/>
<text text-anchor="start" x="440.8862" y="-43.8" font-family="Helvetica,sans-Serif" font-size="11.00" fill="#000000"> &#160;</text>
</a>
</g>
</g>
<!-- statement_processing_log&#45;&gt;margin_statements -->
<g id="edge4" class="edge">
<title>statement_processing_log:w&#45;&gt;margin_statements:e</title>
<path fill="none" stroke="#000000" d="M220.3057,-67.6365C147.6613,-89.5301 274.6623,-289.7 177.5,-289.7"/>
<polygon fill="#000000" stroke="#000000" points="227.0686,-66.7453 235.4704,-69.2691 231.0343,-66.2226 235,-65.7 235,-65.7 235,-65.7 231.0343,-66.2226 234.5296,-62.1309 227.0686,-66.7453 227.0686,-66.7453"/>
<ellipse fill="none" stroke="#000000" cx="223.896" cy="-67.1634" rx="3.2" ry="3.2"/>
</g>
</g>
</svg>
