<?xml version="1.0" encoding="UTF-8" standalone="no"?>
<!DOCTYPE svg PUBLIC "-//W3C//DTD SVG 1.1//EN"
 "http://www.w3.org/Graphics/SVG/1.1/DTD/svg11.dtd">
<!-- Generated by graphviz version 2.40.1 (20161225.0304)
 -->
<!-- Title: oneDegreeRelationshipsDiagram Pages: 1 -->
<svg width="474pt" height="338pt"
 viewBox="0.00 0.00 474.00 338.20" xmlns="http://www.w3.org/2000/svg" xmlns:xlink="http://www.w3.org/1999/xlink">
<g id="graph0" class="graph" transform="scale(1 1) rotate(0) translate(4 334.2)">
<title>oneDegreeRelationshipsDiagram</title>
<polygon fill="#ffffff" stroke="transparent" points="-4,4 -4,-334.2 470,-334.2 470,4 -4,4"/>
<text text-anchor="middle" x="72.4936" y="-7.3" font-family="Helvetica,sans-Serif" font-size="11.00" fill="#000000">Generated by SchemaSpy</text>
<!-- margin_positions -->
<g id="node1" class="node">
<title>margin_positions</title>
<g id="a_node1"><a xlink:href="../../tables/margin_positions.html" xlink:title="margin_positions" target="_top">
<polygon fill="#ffffff" stroke="transparent" points="226,-38.2 226,-326.2 458,-326.2 458,-38.2 226,-38.2"/>
<polygon fill="#f5f5f5" stroke="transparent" points="228,-301.2 228,-324.2 456,-324.2 456,-301.2 228,-301.2"/>
<polygon fill="none" stroke="#000000" points="228,-301.2 228,-324.2 456,-324.2 456,-301.2 228,-301.2"/>
<text text-anchor="start" x="233" y="-309.8" font-family="Helvetica,sans-Serif" font-weight="bold" font-size="11.00" fill="#000000">margin_positions</text>
<text text-anchor="start" x="421.0437" y="-309.3" font-family="Helvetica,sans-Serif" font-size="11.00" fill="#000000">[table]</text>
<polygon fill="none" stroke="#000000" points="228,-279.2 228,-301.2 364,-301.2 364,-279.2 228,-279.2"/>
<image xlink:href="../../images/primaryKeys.png" width="11px" height="12px" preserveAspectRatio="xMinYMin meet" x="233" y="-296.2"/>
<text text-anchor="start" x="248" y="-286.3" font-family="Helvetica,sans-Serif" font-size="11.00" fill="#000000">id</text>
<polygon fill="none" stroke="#000000" points="364,-279.2 364,-301.2 456,-301.2 456,-279.2 364,-279.2"/>
<text text-anchor="start" x="367" y="-286.9" font-family="Helvetica,sans-Serif" font-size="11.00" fill="#000000">bigserial[19]</text>
<polygon fill="#ffffff" stroke="transparent" points="228,-257.2 228,-279.2 364,-279.2 364,-257.2 228,-257.2"/>
<polygon fill="none" stroke="#000000" points="228,-257.2 228,-279.2 364,-279.2 364,-257.2 228,-257.2"/>
<image xlink:href="../../images/foreignKeys.png" width="11px" height="12px" preserveAspectRatio="xMinYMin meet" x="233" y="-274.2"/>
<text text-anchor="start" x="248" y="-264.3" font-family="Helvetica,sans-Serif" font-size="11.00" fill="#000000">statement_id</text>
<polygon fill="none" stroke="#000000" points="364,-257.2 364,-279.2 456,-279.2 456,-257.2 364,-257.2"/>
<text text-anchor="start" x="367" y="-264.9" font-family="Helvetica,sans-Serif" font-size="11.00" fill="#000000">int8[19]</text>
<polygon fill="#ffffff" stroke="transparent" points="228,-235.2 228,-257.2 364,-257.2 364,-235.2 228,-235.2"/>
<polygon fill="none" stroke="#000000" points="228,-235.2 228,-257.2 364,-257.2 364,-235.2 228,-235.2"/>
<text text-anchor="start" x="248" y="-242.3" font-family="Helvetica,sans-Serif" font-size="11.00" fill="#000000">position_type</text>
<polygon fill="none" stroke="#000000" points="364,-235.2 364,-257.2 456,-257.2 456,-235.2 364,-235.2"/>
<text text-anchor="start" x="367" y="-242.9" font-family="Helvetica,sans-Serif" font-size="11.00" fill="#000000">varchar[50]</text>
<polygon fill="none" stroke="#000000" points="228,-213.2 228,-235.2 364,-235.2 364,-213.2 228,-213.2"/>
<text text-anchor="start" x="248" y="-220.3" font-family="Helvetica,sans-Serif" font-size="11.00" fill="#000000">amount</text>
<polygon fill="none" stroke="#000000" points="364,-213.2 364,-235.2 456,-235.2 456,-213.2 364,-213.2"/>
<text text-anchor="start" x="367" y="-220.9" font-family="Helvetica,sans-Serif" font-size="11.00" fill="#000000">numeric[20,4]</text>
<polygon fill="none" stroke="#000000" points="228,-191.2 228,-213.2 364,-213.2 364,-191.2 228,-191.2"/>
<text text-anchor="start" x="248" y="-198.3" font-family="Helvetica,sans-Serif" font-size="11.00" fill="#000000">currency</text>
<polygon fill="none" stroke="#000000" points="364,-191.2 364,-213.2 456,-213.2 456,-191.2 364,-191.2"/>
<text text-anchor="start" x="367" y="-198.9" font-family="Helvetica,sans-Serif" font-size="11.00" fill="#000000">varchar[3]</text>
<polygon fill="#ffffff" stroke="transparent" points="228,-169.2 228,-191.2 364,-191.2 364,-169.2 228,-169.2"/>
<polygon fill="none" stroke="#000000" points="228,-169.2 228,-191.2 364,-191.2 364,-169.2 228,-169.2"/>
<text text-anchor="start" x="248" y="-176.3" font-family="Helvetica,sans-Serif" font-size="11.00" fill="#000000">effective_date</text>
<polygon fill="none" stroke="#000000" points="364,-169.2 364,-191.2 456,-191.2 456,-169.2 364,-169.2"/>
<text text-anchor="start" x="367" y="-176.9" font-family="Helvetica,sans-Serif" font-size="11.00" fill="#000000">date[13]</text>
<polygon fill="#ffffff" stroke="transparent" points="228,-147.2 228,-169.2 364,-169.2 364,-147.2 228,-147.2"/>
<polygon fill="none" stroke="#000000" points="228,-147.2 228,-169.2 364,-169.2 364,-147.2 228,-147.2"/>
<text text-anchor="start" x="248" y="-154.3" font-family="Helvetica,sans-Serif" font-size="11.00" fill="#000000">account_number</text>
<polygon fill="none" stroke="#000000" points="364,-147.2 364,-169.2 456,-169.2 456,-147.2 364,-147.2"/>
<text text-anchor="start" x="367" y="-154.9" font-family="Helvetica,sans-Serif" font-size="11.00" fill="#000000">varchar[100]</text>
<polygon fill="none" stroke="#000000" points="228,-125.2 228,-147.2 364,-147.2 364,-125.2 228,-125.2"/>
<text text-anchor="start" x="248" y="-132.3" font-family="Helvetica,sans-Serif" font-size="11.00" fill="#000000">portfolio_code</text>
<polygon fill="none" stroke="#000000" points="364,-125.2 364,-147.2 456,-147.2 456,-125.2 364,-125.2"/>
<text text-anchor="start" x="367" y="-132.9" font-family="Helvetica,sans-Serif" font-size="11.00" fill="#000000">varchar[100]</text>
<polygon fill="none" stroke="#000000" points="228,-103.2 228,-125.2 364,-125.2 364,-103.2 228,-103.2"/>
<text text-anchor="start" x="248" y="-110.3" font-family="Helvetica,sans-Serif" font-size="11.00" fill="#000000">product_class</text>
<polygon fill="none" stroke="#000000" points="364,-103.2 364,-125.2 456,-125.2 456,-103.2 364,-103.2"/>
<text text-anchor="start" x="367" y="-110.9" font-family="Helvetica,sans-Serif" font-size="11.00" fill="#000000">varchar[50]</text>
<polygon fill="none" stroke="#000000" points="228,-81.2 228,-103.2 364,-103.2 364,-81.2 228,-81.2"/>
<text text-anchor="start" x="248" y="-88.3" font-family="Helvetica,sans-Serif" font-size="11.00" fill="#000000">netting_set_id</text>
<polygon fill="none" stroke="#000000" points="364,-81.2 364,-103.2 456,-103.2 456,-81.2 364,-81.2"/>
<text text-anchor="start" x="367" y="-88.9" font-family="Helvetica,sans-Serif" font-size="11.00" fill="#000000">varchar[100]</text>
<polygon fill="none" stroke="#000000" points="228,-59.2 228,-81.2 364,-81.2 364,-59.2 228,-59.2"/>
<text text-anchor="start" x="248" y="-66.3" font-family="Helvetica,sans-Serif" font-size="11.00" fill="#000000">created_at</text>
<polygon fill="none" stroke="#000000" points="364,-59.2 364,-81.2 456,-81.2 456,-59.2 364,-59.2"/>
<text text-anchor="start" x="366.6023" y="-66.9" font-family="Helvetica,sans-Serif" font-size="11.00" fill="#000000">timestamptz[35,6]</text>
<polygon fill="#ffffff" stroke="transparent" points="228,-40.2 228,-59.2 300,-59.2 300,-40.2 228,-40.2"/>
<polygon fill="none" stroke="#000000" points="228,-40.2 228,-59.2 300,-59.2 300,-40.2 228,-40.2"/>
<text text-anchor="start" x="231" y="-46.3" font-family="Helvetica,sans-Serif" font-size="11.00" fill="#000000">&lt; 1</text>
<polygon fill="#ffffff" stroke="transparent" points="300,-40.2 300,-59.2 364,-59.2 364,-40.2 300,-40.2"/>
<polygon fill="none" stroke="#000000" points="300,-40.2 300,-59.2 364,-59.2 364,-40.2 300,-40.2"/>
<text text-anchor="start" x="354.8862" y="-46.3" font-family="Helvetica,sans-Serif" font-size="11.00" fill="#000000"> &#160;</text>
<polygon fill="#ffffff" stroke="transparent" points="364,-40.2 364,-59.2 456,-59.2 456,-40.2 364,-40.2"/>
<polygon fill="none" stroke="#000000" points="364,-40.2 364,-59.2 456,-59.2 456,-40.2 364,-40.2"/>
<text text-anchor="start" x="437.4053" y="-46.3" font-family="Helvetica,sans-Serif" font-size="11.00" fill="#000000">0 &gt;</text>
<polygon fill="none" stroke="#000000" stroke-width="2" points="227,-39.2 227,-325.2 457,-325.2 457,-39.2 227,-39.2"/>
</a>
</g>
</g>
<!-- margin_statements -->
<g id="node2" class="node">
<title>margin_statements</title>
<g id="a_node2"><a xlink:href="../../tables/margin_statements.html" xlink:title="margin_statements" target="_top">
<polygon fill="#ffffff" stroke="transparent" points="8,-65.7 8,-302.7 177,-302.7 177,-65.7 8,-65.7"/>
<polygon fill="#f5f5f5" stroke="transparent" points="8.5,-279.2 8.5,-302.2 177.5,-302.2 177.5,-279.2 8.5,-279.2"/>
<polygon fill="none" stroke="#000000" points="8.5,-279.2 8.5,-302.2 177.5,-302.2 177.5,-279.2 8.5,-279.2"/>
<text text-anchor="start" x="13.5" y="-287.8" font-family="Helvetica,sans-Serif" font-weight="bold" font-size="11.00" fill="#000000">margin_statements</text>
<text text-anchor="start" x="143.0219" y="-287.3" font-family="Helvetica,sans-Serif" font-size="11.00" fill="#000000">[table]</text>
<polygon fill="none" stroke="#000000" points="8.5,-257.2 8.5,-279.2 177.5,-279.2 177.5,-257.2 8.5,-257.2"/>
<image xlink:href="../../images/primaryKeys.png" width="11px" height="12px" preserveAspectRatio="xMinYMin meet" x="13.5" y="-274.2"/>
<text text-anchor="start" x="37.5" y="-264.3" font-family="Helvetica,sans-Serif" font-size="11.00" fill="#000000">id</text>
<polygon fill="#ffffff" stroke="transparent" points="8.5,-235.2 8.5,-257.2 177.5,-257.2 177.5,-235.2 8.5,-235.2"/>
<polygon fill="none" stroke="#000000" points="8.5,-235.2 8.5,-257.2 177.5,-257.2 177.5,-235.2 8.5,-235.2"/>
<text text-anchor="start" x="37.5" y="-242.3" font-family="Helvetica,sans-Serif" font-size="11.00" fill="#000000">statement_id</text>
<polygon fill="#ffffff" stroke="transparent" points="8.5,-213.2 8.5,-235.2 177.5,-235.2 177.5,-213.2 8.5,-213.2"/>
<polygon fill="none" stroke="#000000" points="8.5,-213.2 8.5,-235.2 177.5,-235.2 177.5,-213.2 8.5,-213.2"/>
<text text-anchor="start" x="37.5" y="-220.3" font-family="Helvetica,sans-Serif" font-size="11.00" fill="#000000">ccp_name</text>
<polygon fill="#ffffff" stroke="transparent" points="8.5,-191.2 8.5,-213.2 177.5,-213.2 177.5,-191.2 8.5,-191.2"/>
<polygon fill="none" stroke="#000000" points="8.5,-191.2 8.5,-213.2 177.5,-213.2 177.5,-191.2 8.5,-191.2"/>
<text text-anchor="start" x="37.5" y="-198.3" font-family="Helvetica,sans-Serif" font-size="11.00" fill="#000000">statement_date</text>
<polygon fill="#ffffff" stroke="transparent" points="8.5,-169.2 8.5,-191.2 177.5,-191.2 177.5,-169.2 8.5,-169.2"/>
<polygon fill="none" stroke="#000000" points="8.5,-169.2 8.5,-191.2 177.5,-191.2 177.5,-169.2 8.5,-169.2"/>
<text text-anchor="start" x="37.5" y="-176.3" font-family="Helvetica,sans-Serif" font-size="11.00" fill="#000000">status</text>
<polygon fill="#ffffff" stroke="transparent" points="8.5,-147.2 8.5,-169.2 177.5,-169.2 177.5,-147.2 8.5,-147.2"/>
<polygon fill="none" stroke="#000000" points="8.5,-147.2 8.5,-169.2 177.5,-169.2 177.5,-147.2 8.5,-147.2"/>
<text text-anchor="start" x="37.5" y="-154.3" font-family="Helvetica,sans-Serif" font-size="11.00" fill="#000000">created_at</text>
<polygon fill="#ffffff" stroke="transparent" points="8.5,-125.2 8.5,-147.2 177.5,-147.2 177.5,-125.2 8.5,-125.2"/>
<polygon fill="none" stroke="#000000" points="8.5,-125.2 8.5,-147.2 177.5,-147.2 177.5,-125.2 8.5,-125.2"/>
<text text-anchor="start" x="37.5" y="-132.3" font-family="Helvetica,sans-Serif" font-size="11.00" fill="#000000">variation_margin</text>
<polygon fill="#ffffff" stroke="transparent" points="8.5,-103.2 8.5,-125.2 177.5,-125.2 177.5,-103.2 8.5,-103.2"/>
<polygon fill="none" stroke="#000000" points="8.5,-103.2 8.5,-125.2 177.5,-125.2 177.5,-103.2 8.5,-103.2"/>
<text text-anchor="start" x="37.5" y="-110.3" font-family="Helvetica,sans-Serif" font-size="11.00" fill="#000000">initial_margin</text>
<polygon fill="none" stroke="#000000" points="8.5,-84.2 8.5,-103.2 177.5,-103.2 177.5,-84.2 8.5,-84.2"/>
<text text-anchor="start" x="11.5" y="-90.3" font-family="Helvetica,sans-Serif" font-size="11.00" fill="#000000">...</text>
<polygon fill="#ffffff" stroke="transparent" points="8.5,-65.2 8.5,-84.2 82.5,-84.2 82.5,-65.2 8.5,-65.2"/>
<polygon fill="none" stroke="#000000" points="8.5,-65.2 8.5,-84.2 82.5,-84.2 82.5,-65.2 8.5,-65.2"/>
<text text-anchor="start" x="11.5" y="-71.3" font-family="Helvetica,sans-Serif" font-size="11.00" fill="#000000"> &#160;</text>
<polygon fill="#ffffff" stroke="transparent" points="82.5,-65.2 82.5,-84.2 125.5,-84.2 125.5,-65.2 82.5,-65.2"/>
<polygon fill="none" stroke="#000000" points="82.5,-65.2 82.5,-84.2 125.5,-84.2 125.5,-65.2 82.5,-65.2"/>
<text text-anchor="start" x="116.3862" y="-71.3" font-family="Helvetica,sans-Serif" font-size="11.00" fill="#000000"> &#160;</text>
<polygon fill="#ffffff" stroke="transparent" points="125.5,-65.2 125.5,-84.2 177.5,-84.2 177.5,-65.2 125.5,-65.2"/>
<polygon fill="none" stroke="#000000" points="125.5,-65.2 125.5,-84.2 177.5,-84.2 177.5,-65.2 125.5,-65.2"/>
<text text-anchor="start" x="158.9053" y="-71.3" font-family="Helvetica,sans-Serif" font-size="11.00" fill="#000000">4 &gt;</text>
</a>
</g>
</g>
<!-- margin_positions&#45;&gt;margin_statements -->
<g id="edge1" class="edge">
<title>margin_positions:w&#45;&gt;margin_statements:e</title>
<path fill="none" stroke="#000000" d="M213.4203,-268.2C201.5435,-268.2 194.158,-268.2 177.5,-268.2"/>
<polygon fill="#000000" stroke="#000000" points="220,-268.2001 228,-271.8 224,-268.2 228,-268.2 228,-268.2 228,-268.2 224,-268.2 228,-264.6 220,-268.2001 220,-268.2001"/>
<ellipse fill="none" stroke="#000000" cx="216.8" cy="-268.2001" rx="3.2" ry="3.2"/>
</g>
</g>
</svg>
