<?xml version="1.0" encoding="UTF-8" standalone="no"?>
<!DOCTYPE svg PUBLIC "-//W3C//DTD SVG 1.1//EN"
 "http://www.w3.org/Graphics/SVG/1.1/DTD/svg11.dtd">
<!-- Generated by graphviz version 2.40.1 (20161225.0304)
 -->
<!-- Title: oneDegreeRelationshipsDiagram Pages: 1 -->
<svg width="352pt" height="294pt"
 viewBox="0.00 0.00 352.00 294.20" xmlns="http://www.w3.org/2000/svg" xmlns:xlink="http://www.w3.org/1999/xlink">
<g id="graph0" class="graph" transform="scale(1 1) rotate(0) translate(4 290.2)">
<title>oneDegreeRelationshipsDiagram</title>
<polygon fill="#ffffff" stroke="transparent" points="-4,4 -4,-290.2 348,-290.2 348,4 -4,4"/>
<text text-anchor="middle" x="72.4936" y="-7.3" font-family="Helvetica,sans-Serif" font-size="11.00" fill="#000000">Generated by SchemaSpy</text>
<!-- margin_tolerance_config -->
<g id="node1" class="node">
<title>margin_tolerance_config</title>
<g id="a_node1"><a xlink:href="../../tables/margin_tolerance_config.html" xlink:title="margin_tolerance_config" target="_top">
<polygon fill="#ffffff" stroke="transparent" points="8,-38.2 8,-282.2 336,-282.2 336,-38.2 8,-38.2"/>
<polygon fill="#f5f5f5" stroke="transparent" points="10,-257.2 10,-280.2 334,-280.2 334,-257.2 10,-257.2"/>
<polygon fill="none" stroke="#000000" points="10,-257.2 10,-280.2 334,-280.2 334,-257.2 10,-257.2"/>
<text text-anchor="start" x="15" y="-265.8" font-family="Helvetica,sans-Serif" font-weight="bold" font-size="11.00" fill="#000000">margin_tolerance_config</text>
<text text-anchor="start" x="299.0437" y="-265.3" font-family="Helvetica,sans-Serif" font-size="11.00" fill="#000000">[table]</text>
<polygon fill="none" stroke="#000000" points="10,-235.2 10,-257.2 196,-257.2 196,-235.2 10,-235.2"/>
<image xlink:href="../../images/primaryKeys.png" width="11px" height="12px" preserveAspectRatio="xMinYMin meet" x="15" y="-252.2"/>
<text text-anchor="start" x="30" y="-242.3" font-family="Helvetica,sans-Serif" font-size="11.00" fill="#000000">id</text>
<polygon fill="none" stroke="#000000" points="196,-235.2 196,-257.2 334,-257.2 334,-235.2 196,-235.2"/>
<text text-anchor="start" x="199" y="-242.9" font-family="Helvetica,sans-Serif" font-size="11.00" fill="#000000">bigserial[19]</text>
<polygon fill="#ffffff" stroke="transparent" points="10,-213.2 10,-235.2 196,-235.2 196,-213.2 10,-213.2"/>
<polygon fill="none" stroke="#000000" points="10,-213.2 10,-235.2 196,-235.2 196,-213.2 10,-213.2"/>
<text text-anchor="start" x="30" y="-220.3" font-family="Helvetica,sans-Serif" font-size="11.00" fill="#000000">ccp_name</text>
<polygon fill="none" stroke="#000000" points="196,-213.2 196,-235.2 334,-235.2 334,-213.2 196,-213.2"/>
<text text-anchor="start" x="199" y="-220.9" font-family="Helvetica,sans-Serif" font-size="11.00" fill="#000000">varchar[100]</text>
<polygon fill="#ffffff" stroke="transparent" points="10,-191.2 10,-213.2 196,-213.2 196,-191.2 10,-191.2"/>
<polygon fill="none" stroke="#000000" points="10,-191.2 10,-213.2 196,-213.2 196,-191.2 10,-191.2"/>
<text text-anchor="start" x="30" y="-198.3" font-family="Helvetica,sans-Serif" font-size="11.00" fill="#000000">position_type</text>
<polygon fill="none" stroke="#000000" points="196,-191.2 196,-213.2 334,-213.2 334,-191.2 196,-191.2"/>
<text text-anchor="start" x="198.9687" y="-198.9" font-family="Helvetica,sans-Serif" font-size="11.00" fill="#000000">position_type[2147483647]</text>
<polygon fill="#ffffff" stroke="transparent" points="10,-169.2 10,-191.2 196,-191.2 196,-169.2 10,-169.2"/>
<polygon fill="none" stroke="#000000" points="10,-169.2 10,-191.2 196,-191.2 196,-169.2 10,-169.2"/>
<text text-anchor="start" x="30" y="-176.3" font-family="Helvetica,sans-Serif" font-size="11.00" fill="#000000">currency</text>
<polygon fill="none" stroke="#000000" points="196,-169.2 196,-191.2 334,-191.2 334,-169.2 196,-169.2"/>
<text text-anchor="start" x="199" y="-176.9" font-family="Helvetica,sans-Serif" font-size="11.00" fill="#000000">varchar[3]</text>
<polygon fill="none" stroke="#000000" points="10,-147.2 10,-169.2 196,-169.2 196,-147.2 10,-147.2"/>
<text text-anchor="start" x="30" y="-154.3" font-family="Helvetica,sans-Serif" font-size="11.00" fill="#000000">absolute_threshold</text>
<polygon fill="none" stroke="#000000" points="196,-147.2 196,-169.2 334,-169.2 334,-147.2 196,-147.2"/>
<text text-anchor="start" x="199" y="-154.9" font-family="Helvetica,sans-Serif" font-size="11.00" fill="#000000">numeric[20,4]</text>
<polygon fill="none" stroke="#000000" points="10,-125.2 10,-147.2 196,-147.2 196,-125.2 10,-125.2"/>
<text text-anchor="start" x="30" y="-132.3" font-family="Helvetica,sans-Serif" font-size="11.00" fill="#000000">percentage_threshold</text>
<polygon fill="none" stroke="#000000" points="196,-125.2 196,-147.2 334,-147.2 334,-125.2 196,-125.2"/>
<text text-anchor="start" x="199" y="-132.9" font-family="Helvetica,sans-Serif" font-size="11.00" fill="#000000">numeric[8,4]</text>
<polygon fill="none" stroke="#000000" points="10,-103.2 10,-125.2 196,-125.2 196,-103.2 10,-103.2"/>
<text text-anchor="start" x="30" y="-110.3" font-family="Helvetica,sans-Serif" font-size="11.00" fill="#000000">is_active</text>
<polygon fill="none" stroke="#000000" points="196,-103.2 196,-125.2 334,-125.2 334,-103.2 196,-103.2"/>
<text text-anchor="start" x="199" y="-110.9" font-family="Helvetica,sans-Serif" font-size="11.00" fill="#000000">bool[1]</text>
<polygon fill="none" stroke="#000000" points="10,-81.2 10,-103.2 196,-103.2 196,-81.2 10,-81.2"/>
<text text-anchor="start" x="30" y="-88.3" font-family="Helvetica,sans-Serif" font-size="11.00" fill="#000000">created_at</text>
<polygon fill="none" stroke="#000000" points="196,-81.2 196,-103.2 334,-103.2 334,-81.2 196,-81.2"/>
<text text-anchor="start" x="199" y="-88.9" font-family="Helvetica,sans-Serif" font-size="11.00" fill="#000000">timestamptz[35,6]</text>
<polygon fill="none" stroke="#000000" points="10,-59.2 10,-81.2 196,-81.2 196,-59.2 10,-59.2"/>
<text text-anchor="start" x="30" y="-66.3" font-family="Helvetica,sans-Serif" font-size="11.00" fill="#000000">updated_at</text>
<polygon fill="none" stroke="#000000" points="196,-59.2 196,-81.2 334,-81.2 334,-59.2 196,-59.2"/>
<text text-anchor="start" x="199" y="-66.9" font-family="Helvetica,sans-Serif" font-size="11.00" fill="#000000">timestamptz[35,6]</text>
<polygon fill="#ffffff" stroke="transparent" points="10,-40.2 10,-59.2 107,-59.2 107,-40.2 10,-40.2"/>
<polygon fill="none" stroke="#000000" points="10,-40.2 10,-59.2 107,-59.2 107,-40.2 10,-40.2"/>
<text text-anchor="start" x="13" y="-46.3" font-family="Helvetica,sans-Serif" font-size="11.00" fill="#000000">&lt; 0</text>
<polygon fill="#ffffff" stroke="transparent" points="107,-40.2 107,-59.2 196,-59.2 196,-40.2 107,-40.2"/>
<polygon fill="none" stroke="#000000" points="107,-40.2 107,-59.2 196,-59.2 196,-40.2 107,-40.2"/>
<text text-anchor="start" x="186.8862" y="-46.3" font-family="Helvetica,sans-Serif" font-size="11.00" fill="#000000"> &#160;</text>
<polygon fill="#ffffff" stroke="transparent" points="196,-40.2 196,-59.2 334,-59.2 334,-40.2 196,-40.2"/>
<polygon fill="none" stroke="#000000" points="196,-40.2 196,-59.2 334,-59.2 334,-40.2 196,-40.2"/>
<text text-anchor="start" x="315.4053" y="-46.3" font-family="Helvetica,sans-Serif" font-size="11.00" fill="#000000">0 &gt;</text>
<polygon fill="none" stroke="#000000" stroke-width="2" points="9,-39.2 9,-281.2 335,-281.2 335,-39.2 9,-39.2"/>
</a>
</g>
</g>
</g>
</svg>
