<?xml version="1.0" encoding="UTF-8" standalone="no"?>
<!DOCTYPE svg PUBLIC "-//W3C//DTD SVG 1.1//EN"
 "http://www.w3.org/Graphics/SVG/1.1/DTD/svg11.dtd">
<!-- Generated by graphviz version 2.40.1 (20161225.0304)
 -->
<!-- Title: twoDegreesRelationshipsDiagram Pages: 1 -->
<svg width="759pt" height="378pt"
 viewBox="0.00 0.00 759.00 377.70" xmlns="http://www.w3.org/2000/svg" xmlns:xlink="http://www.w3.org/1999/xlink">
<g id="graph0" class="graph" transform="scale(1 1) rotate(0) translate(4 373.7)">
<title>twoDegreesRelationshipsDiagram</title>
<polygon fill="#ffffff" stroke="transparent" points="-4,4 -4,-373.7 755,-373.7 755,4 -4,4"/>
<text text-anchor="middle" x="72.4936" y="-7.3" font-family="Helvetica,sans-Serif" font-size="11.00" fill="#000000">Generated by SchemaSpy</text>
<!-- sa_ccr_audit_trail -->
<g id="node1" class="node">
<title>sa_ccr_audit_trail</title>
<g id="a_node1"><a xlink:href="../../tables/sa_ccr_audit_trail.html" xlink:title="sa_ccr_audit_trail" target="_top">
<polygon fill="#ffffff" stroke="transparent" points="559.5,-304.7 559.5,-365.7 714.5,-365.7 714.5,-304.7 559.5,-304.7"/>
<polygon fill="#f5f5f5" stroke="transparent" points="560,-342.2 560,-365.2 715,-365.2 715,-342.2 560,-342.2"/>
<polygon fill="none" stroke="#000000" points="560,-342.2 560,-365.2 715,-365.2 715,-342.2 560,-342.2"/>
<text text-anchor="start" x="565" y="-350.8" font-family="Helvetica,sans-Serif" font-weight="bold" font-size="11.00" fill="#000000">sa_ccr_audit_trail</text>
<text text-anchor="start" x="680.5219" y="-350.3" font-family="Helvetica,sans-Serif" font-size="11.00" fill="#000000">[table]</text>
<polygon fill="none" stroke="#000000" points="560,-323.2 560,-342.2 715,-342.2 715,-323.2 560,-323.2"/>
<text text-anchor="start" x="563" y="-329.3" font-family="Helvetica,sans-Serif" font-size="11.00" fill="#000000">...</text>
<polygon fill="#ffffff" stroke="transparent" points="560,-304.2 560,-323.2 636,-323.2 636,-304.2 560,-304.2"/>
<polygon fill="none" stroke="#000000" points="560,-304.2 560,-323.2 636,-323.2 636,-304.2 560,-304.2"/>
<text text-anchor="start" x="563" y="-310.3" font-family="Helvetica,sans-Serif" font-size="11.00" fill="#000000">&lt; 1</text>
<polygon fill="#ffffff" stroke="transparent" points="636,-304.2 636,-323.2 675,-323.2 675,-304.2 636,-304.2"/>
<polygon fill="none" stroke="#000000" points="636,-304.2 636,-323.2 675,-323.2 675,-304.2 636,-304.2"/>
<text text-anchor="start" x="665.8862" y="-310.3" font-family="Helvetica,sans-Serif" font-size="11.00" fill="#000000"> &#160;</text>
<polygon fill="#ffffff" stroke="transparent" points="675,-304.2 675,-323.2 715,-323.2 715,-304.2 675,-304.2"/>
<polygon fill="none" stroke="#000000" points="675,-304.2 675,-323.2 715,-323.2 715,-304.2 675,-304.2"/>
<text text-anchor="start" x="705.8862" y="-310.3" font-family="Helvetica,sans-Serif" font-size="11.00" fill="#000000"> &#160;</text>
</a>
</g>
</g>
<!-- sa_ccr_calculations -->
<g id="node2" class="node">
<title>sa_ccr_calculations</title>
<g id="a_node2"><a xlink:href="../../tables/sa_ccr_calculations.html" xlink:title="sa_ccr_calculations" target="_top">
<polygon fill="#ffffff" stroke="transparent" points="315,-225.7 315,-286.7 482,-286.7 482,-225.7 315,-225.7"/>
<polygon fill="#f5f5f5" stroke="transparent" points="315.5,-263.2 315.5,-286.2 482.5,-286.2 482.5,-263.2 315.5,-263.2"/>
<polygon fill="none" stroke="#000000" points="315.5,-263.2 315.5,-286.2 482.5,-286.2 482.5,-263.2 315.5,-263.2"/>
<text text-anchor="start" x="320.5" y="-271.8" font-family="Helvetica,sans-Serif" font-weight="bold" font-size="11.00" fill="#000000">sa_ccr_calculations</text>
<text text-anchor="start" x="448.0219" y="-271.3" font-family="Helvetica,sans-Serif" font-size="11.00" fill="#000000">[table]</text>
<polygon fill="none" stroke="#000000" points="315.5,-244.2 315.5,-263.2 482.5,-263.2 482.5,-244.2 315.5,-244.2"/>
<text text-anchor="start" x="318.5" y="-250.3" font-family="Helvetica,sans-Serif" font-size="11.00" fill="#000000">...</text>
<polygon fill="#ffffff" stroke="transparent" points="315.5,-225.2 315.5,-244.2 392.5,-244.2 392.5,-225.2 315.5,-225.2"/>
<polygon fill="none" stroke="#000000" points="315.5,-225.2 315.5,-244.2 392.5,-244.2 392.5,-225.2 315.5,-225.2"/>
<text text-anchor="start" x="318.5" y="-231.3" font-family="Helvetica,sans-Serif" font-size="11.00" fill="#000000">&lt; 1</text>
<polygon fill="#ffffff" stroke="transparent" points="392.5,-225.2 392.5,-244.2 432.5,-244.2 432.5,-225.2 392.5,-225.2"/>
<polygon fill="none" stroke="#000000" points="392.5,-225.2 392.5,-244.2 432.5,-244.2 432.5,-225.2 392.5,-225.2"/>
<text text-anchor="start" x="423.3862" y="-231.3" font-family="Helvetica,sans-Serif" font-size="11.00" fill="#000000"> &#160;</text>
<polygon fill="#ffffff" stroke="transparent" points="432.5,-225.2 432.5,-244.2 482.5,-244.2 482.5,-225.2 432.5,-225.2"/>
<polygon fill="none" stroke="#000000" points="432.5,-225.2 432.5,-244.2 482.5,-244.2 482.5,-225.2 432.5,-225.2"/>
<text text-anchor="start" x="463.9053" y="-231.3" font-family="Helvetica,sans-Serif" font-size="11.00" fill="#000000">3 &gt;</text>
</a>
</g>
</g>
<!-- sa_ccr_audit_trail&#45;&gt;sa_ccr_calculations -->
<g id="edge1" class="edge">
<title>sa_ccr_audit_trail:w&#45;&gt;sa_ccr_calculations:e</title>
<path fill="none" stroke="#000000" d="M545.226,-331.3591C508.1462,-327.2269 471.5971,-308.5593 444.252,-290.864"/>
<polygon fill="#000000" stroke="#000000" points="552.0129,-331.7453 559.7954,-335.7942 556.0065,-331.9727 560,-332.2 560,-332.2 560,-332.2 556.0065,-331.9727 560.2046,-328.6058 552.0129,-331.7453 552.0129,-331.7453"/>
<ellipse fill="none" stroke="#000000" cx="548.8181" cy="-331.5635" rx="3.2" ry="3.2"/>
</g>
<!-- netting_sets -->
<g id="node4" class="node">
<title>netting_sets</title>
<g id="a_node4"><a xlink:href="../../tables/netting_sets.html" xlink:title="netting_sets" target="_top">
<polygon fill="#ffffff" stroke="transparent" points="8,-38.2 8,-304.2 266,-304.2 266,-38.2 8,-38.2"/>
<polygon fill="#f5f5f5" stroke="transparent" points="10,-279.2 10,-302.2 264,-302.2 264,-279.2 10,-279.2"/>
<polygon fill="none" stroke="#000000" points="10,-279.2 10,-302.2 264,-302.2 264,-279.2 10,-279.2"/>
<text text-anchor="start" x="15" y="-287.8" font-family="Helvetica,sans-Serif" font-weight="bold" font-size="11.00" fill="#000000">netting_sets</text>
<text text-anchor="start" x="229.0437" y="-287.3" font-family="Helvetica,sans-Serif" font-size="11.00" fill="#000000">[table]</text>
<polygon fill="none" stroke="#000000" points="10,-257.2 10,-279.2 180,-279.2 180,-257.2 10,-257.2"/>
<image xlink:href="../../images/primaryKeys.png" width="11px" height="12px" preserveAspectRatio="xMinYMin meet" x="15" y="-274.2"/>
<text text-anchor="start" x="30" y="-264.3" font-family="Helvetica,sans-Serif" font-size="11.00" fill="#000000">id</text>
<polygon fill="none" stroke="#000000" points="180,-257.2 180,-279.2 264,-279.2 264,-257.2 180,-257.2"/>
<text text-anchor="start" x="183" y="-264.9" font-family="Helvetica,sans-Serif" font-size="11.00" fill="#000000">bigserial[19]</text>
<polygon fill="#ffffff" stroke="transparent" points="10,-235.2 10,-257.2 180,-257.2 180,-235.2 10,-235.2"/>
<polygon fill="none" stroke="#000000" points="10,-235.2 10,-257.2 180,-257.2 180,-235.2 10,-235.2"/>
<text text-anchor="start" x="30" y="-242.3" font-family="Helvetica,sans-Serif" font-size="11.00" fill="#000000">netting_set_id</text>
<polygon fill="none" stroke="#000000" points="180,-235.2 180,-257.2 264,-257.2 264,-235.2 180,-235.2"/>
<text text-anchor="start" x="183" y="-242.9" font-family="Helvetica,sans-Serif" font-size="11.00" fill="#000000">varchar[100]</text>
<polygon fill="#ffffff" stroke="transparent" points="10,-213.2 10,-235.2 180,-235.2 180,-213.2 10,-213.2"/>
<polygon fill="none" stroke="#000000" points="10,-213.2 10,-235.2 180,-235.2 180,-213.2 10,-213.2"/>
<text text-anchor="start" x="30" y="-220.3" font-family="Helvetica,sans-Serif" font-size="11.00" fill="#000000">counterparty_id</text>
<polygon fill="none" stroke="#000000" points="180,-213.2 180,-235.2 264,-235.2 264,-213.2 180,-213.2"/>
<text text-anchor="start" x="183" y="-220.9" font-family="Helvetica,sans-Serif" font-size="11.00" fill="#000000">varchar[100]</text>
<polygon fill="none" stroke="#000000" points="10,-191.2 10,-213.2 180,-213.2 180,-191.2 10,-191.2"/>
<text text-anchor="start" x="30" y="-198.3" font-family="Helvetica,sans-Serif" font-size="11.00" fill="#000000">legal_agreement_type</text>
<polygon fill="none" stroke="#000000" points="180,-191.2 180,-213.2 264,-213.2 264,-191.2 180,-191.2"/>
<text text-anchor="start" x="183" y="-198.9" font-family="Helvetica,sans-Serif" font-size="11.00" fill="#000000">varchar[50]</text>
<polygon fill="none" stroke="#000000" points="10,-169.2 10,-191.2 180,-191.2 180,-169.2 10,-169.2"/>
<text text-anchor="start" x="30" y="-176.3" font-family="Helvetica,sans-Serif" font-size="11.00" fill="#000000">agreement_date</text>
<polygon fill="none" stroke="#000000" points="180,-169.2 180,-191.2 264,-191.2 264,-169.2 180,-169.2"/>
<text text-anchor="start" x="183" y="-176.9" font-family="Helvetica,sans-Serif" font-size="11.00" fill="#000000">date[13]</text>
<polygon fill="none" stroke="#000000" points="10,-147.2 10,-169.2 180,-169.2 180,-147.2 10,-147.2"/>
<text text-anchor="start" x="30" y="-154.3" font-family="Helvetica,sans-Serif" font-size="11.00" fill="#000000">governing_law</text>
<polygon fill="none" stroke="#000000" points="180,-147.2 180,-169.2 264,-169.2 264,-147.2 180,-147.2"/>
<text text-anchor="start" x="183" y="-154.9" font-family="Helvetica,sans-Serif" font-size="11.00" fill="#000000">varchar[10]</text>
<polygon fill="none" stroke="#000000" points="10,-125.2 10,-147.2 180,-147.2 180,-125.2 10,-125.2"/>
<text text-anchor="start" x="30" y="-132.3" font-family="Helvetica,sans-Serif" font-size="11.00" fill="#000000">netting_eligible</text>
<polygon fill="none" stroke="#000000" points="180,-125.2 180,-147.2 264,-147.2 264,-125.2 180,-125.2"/>
<text text-anchor="start" x="183" y="-132.9" font-family="Helvetica,sans-Serif" font-size="11.00" fill="#000000">bool[1]</text>
<polygon fill="none" stroke="#000000" points="10,-103.2 10,-125.2 180,-125.2 180,-103.2 10,-103.2"/>
<text text-anchor="start" x="30" y="-110.3" font-family="Helvetica,sans-Serif" font-size="11.00" fill="#000000">collateral_agreement</text>
<polygon fill="none" stroke="#000000" points="180,-103.2 180,-125.2 264,-125.2 264,-103.2 180,-103.2"/>
<text text-anchor="start" x="183" y="-110.9" font-family="Helvetica,sans-Serif" font-size="11.00" fill="#000000">bool[1]</text>
<polygon fill="none" stroke="#000000" points="10,-81.2 10,-103.2 180,-103.2 180,-81.2 10,-81.2"/>
<text text-anchor="start" x="30" y="-88.3" font-family="Helvetica,sans-Serif" font-size="11.00" fill="#000000">created_at</text>
<polygon fill="none" stroke="#000000" points="180,-81.2 180,-103.2 264,-103.2 264,-81.2 180,-81.2"/>
<text text-anchor="start" x="182.8807" y="-88.9" font-family="Helvetica,sans-Serif" font-size="11.00" fill="#000000">timestamp[29,6]</text>
<polygon fill="none" stroke="#000000" points="10,-59.2 10,-81.2 180,-81.2 180,-59.2 10,-59.2"/>
<text text-anchor="start" x="30" y="-66.3" font-family="Helvetica,sans-Serif" font-size="11.00" fill="#000000">updated_at</text>
<polygon fill="none" stroke="#000000" points="180,-59.2 180,-81.2 264,-81.2 264,-59.2 180,-59.2"/>
<text text-anchor="start" x="182.8807" y="-66.9" font-family="Helvetica,sans-Serif" font-size="11.00" fill="#000000">timestamp[29,6]</text>
<polygon fill="#ffffff" stroke="transparent" points="10,-40.2 10,-59.2 99,-59.2 99,-40.2 10,-40.2"/>
<polygon fill="none" stroke="#000000" points="10,-40.2 10,-59.2 99,-59.2 99,-40.2 10,-40.2"/>
<text text-anchor="start" x="13" y="-46.3" font-family="Helvetica,sans-Serif" font-size="11.00" fill="#000000">&lt; 0</text>
<polygon fill="#ffffff" stroke="transparent" points="99,-40.2 99,-59.2 180,-59.2 180,-40.2 99,-40.2"/>
<polygon fill="none" stroke="#000000" points="99,-40.2 99,-59.2 180,-59.2 180,-40.2 99,-40.2"/>
<text text-anchor="start" x="170.8862" y="-46.3" font-family="Helvetica,sans-Serif" font-size="11.00" fill="#000000"> &#160;</text>
<polygon fill="#ffffff" stroke="transparent" points="180,-40.2 180,-59.2 264,-59.2 264,-40.2 180,-40.2"/>
<polygon fill="none" stroke="#000000" points="180,-40.2 180,-59.2 264,-59.2 264,-40.2 180,-40.2"/>
<text text-anchor="start" x="245.4053" y="-46.3" font-family="Helvetica,sans-Serif" font-size="11.00" fill="#000000">2 &gt;</text>
<polygon fill="none" stroke="#000000" stroke-width="2" points="9,-39.2 9,-303.2 265,-303.2 265,-39.2 9,-39.2"/>
</a>
</g>
</g>
<!-- sa_ccr_calculations&#45;&gt;netting_sets -->
<g id="edge3" class="edge">
<title>sa_ccr_calculations:w&#45;&gt;netting_sets:e</title>
<path fill="none" stroke="#000000" d="M441.5402,-303.1892C446.436,-326.4925 352.451,-310.0905 307,-290.7 281.7033,-279.9078 291.5026,-246.2 264,-246.2"/>
<polygon fill="#000000" stroke="#000000" points="437.9558,-297.8443 436.4899,-289.1949 435.7279,-294.5221 433.5,-291.2 433.5,-291.2 433.5,-291.2 435.7279,-294.5221 430.5101,-293.2051 437.9558,-297.8443 437.9558,-297.8443"/>
<ellipse fill="none" stroke="#000000" cx="439.7381" cy="-300.502" rx="3.2" ry="3.2"/>
</g>
<!-- sa_ccr_calculation_details -->
<g id="node3" class="node">
<title>sa_ccr_calculation_details</title>
<g id="a_node3"><a xlink:href="../../tables/sa_ccr_calculation_details.html" xlink:title="sa_ccr_calculation_details" target="_top">
<polygon fill="#ffffff" stroke="transparent" points="531,-222.7 531,-283.7 743,-283.7 743,-222.7 531,-222.7"/>
<polygon fill="#f5f5f5" stroke="transparent" points="531,-260.2 531,-283.2 743,-283.2 743,-260.2 531,-260.2"/>
<polygon fill="none" stroke="#000000" points="531,-260.2 531,-283.2 743,-283.2 743,-260.2 531,-260.2"/>
<text text-anchor="start" x="536" y="-268.8" font-family="Helvetica,sans-Serif" font-weight="bold" font-size="11.00" fill="#000000">sa_ccr_calculation_details</text>
<text text-anchor="start" x="708.5219" y="-268.3" font-family="Helvetica,sans-Serif" font-size="11.00" fill="#000000">[table]</text>
<polygon fill="none" stroke="#000000" points="531,-241.2 531,-260.2 743,-260.2 743,-241.2 531,-241.2"/>
<text text-anchor="start" x="534" y="-247.3" font-family="Helvetica,sans-Serif" font-size="11.00" fill="#000000">...</text>
<polygon fill="#ffffff" stroke="transparent" points="531,-222.2 531,-241.2 635,-241.2 635,-222.2 531,-222.2"/>
<polygon fill="none" stroke="#000000" points="531,-222.2 531,-241.2 635,-241.2 635,-222.2 531,-222.2"/>
<text text-anchor="start" x="534" y="-228.3" font-family="Helvetica,sans-Serif" font-size="11.00" fill="#000000">&lt; 1</text>
<polygon fill="#ffffff" stroke="transparent" points="635,-222.2 635,-241.2 689,-241.2 689,-222.2 635,-222.2"/>
<polygon fill="none" stroke="#000000" points="635,-222.2 635,-241.2 689,-241.2 689,-222.2 635,-222.2"/>
<text text-anchor="start" x="679.8862" y="-228.3" font-family="Helvetica,sans-Serif" font-size="11.00" fill="#000000"> &#160;</text>
<polygon fill="#ffffff" stroke="transparent" points="689,-222.2 689,-241.2 743,-241.2 743,-222.2 689,-222.2"/>
<polygon fill="none" stroke="#000000" points="689,-222.2 689,-241.2 743,-241.2 743,-222.2 689,-222.2"/>
<text text-anchor="start" x="733.8862" y="-228.3" font-family="Helvetica,sans-Serif" font-size="11.00" fill="#000000"> &#160;</text>
</a>
</g>
</g>
<!-- sa_ccr_calculation_details&#45;&gt;sa_ccr_calculations -->
<g id="edge2" class="edge">
<title>sa_ccr_calculation_details:w&#45;&gt;sa_ccr_calculations:e</title>
<path fill="none" stroke="#000000" d="M516.486,-250.311C507.7472,-250.4391 498.8535,-250.6714 490.0673,-250.9721"/>
<polygon fill="#000000" stroke="#000000" points="523.0002,-250.2612 531.0275,-253.7999 527.0001,-250.2306 531,-250.2 531,-250.2 531,-250.2 527.0001,-250.2306 530.9725,-246.6001 523.0002,-250.2612 523.0002,-250.2612"/>
<ellipse fill="none" stroke="#000000" cx="519.8003" cy="-250.2857" rx="3.2" ry="3.2"/>
</g>
<!-- sa_ccr_trade_mappings -->
<g id="node5" class="node">
<title>sa_ccr_trade_mappings</title>
<g id="a_node5"><a xlink:href="../../tables/sa_ccr_trade_mappings.html" xlink:title="sa_ccr_trade_mappings" target="_top">
<polygon fill="#ffffff" stroke="transparent" points="539.5,-135.7 539.5,-196.7 734.5,-196.7 734.5,-135.7 539.5,-135.7"/>
<polygon fill="#f5f5f5" stroke="transparent" points="540,-173.2 540,-196.2 735,-196.2 735,-173.2 540,-173.2"/>
<polygon fill="none" stroke="#000000" points="540,-173.2 540,-196.2 735,-196.2 735,-173.2 540,-173.2"/>
<text text-anchor="start" x="545" y="-181.8" font-family="Helvetica,sans-Serif" font-weight="bold" font-size="11.00" fill="#000000">sa_ccr_trade_mappings</text>
<text text-anchor="start" x="700.5219" y="-181.3" font-family="Helvetica,sans-Serif" font-size="11.00" fill="#000000">[table]</text>
<polygon fill="none" stroke="#000000" points="540,-154.2 540,-173.2 735,-173.2 735,-154.2 540,-154.2"/>
<text text-anchor="start" x="543" y="-160.3" font-family="Helvetica,sans-Serif" font-size="11.00" fill="#000000">...</text>
<polygon fill="#ffffff" stroke="transparent" points="540,-135.2 540,-154.2 636,-154.2 636,-135.2 540,-135.2"/>
<polygon fill="none" stroke="#000000" points="540,-135.2 540,-154.2 636,-154.2 636,-135.2 540,-135.2"/>
<text text-anchor="start" x="543" y="-141.3" font-family="Helvetica,sans-Serif" font-size="11.00" fill="#000000">&lt; 3</text>
<polygon fill="#ffffff" stroke="transparent" points="636,-135.2 636,-154.2 685,-154.2 685,-135.2 636,-135.2"/>
<polygon fill="none" stroke="#000000" points="636,-135.2 636,-154.2 685,-154.2 685,-135.2 636,-135.2"/>
<text text-anchor="start" x="675.8862" y="-141.3" font-family="Helvetica,sans-Serif" font-size="11.00" fill="#000000"> &#160;</text>
<polygon fill="#ffffff" stroke="transparent" points="685,-135.2 685,-154.2 735,-154.2 735,-135.2 685,-135.2"/>
<polygon fill="none" stroke="#000000" points="685,-135.2 685,-154.2 735,-154.2 735,-135.2 685,-135.2"/>
<text text-anchor="start" x="725.8862" y="-141.3" font-family="Helvetica,sans-Serif" font-size="11.00" fill="#000000"> &#160;</text>
</a>
</g>
</g>
<!-- sa_ccr_trade_mappings&#45;&gt;sa_ccr_calculations -->
<g id="edge4" class="edge">
<title>sa_ccr_trade_mappings:w&#45;&gt;sa_ccr_calculations:e</title>
<path fill="none" stroke="#000000" d="M531.7342,-205.923C517.8833,-211.1497 503.7772,-216.4727 490.1774,-221.6048"/>
<polygon fill="#000000" stroke="#000000" points="537.987,-203.5634 546.7428,-204.1071 541.7294,-202.1512 545.4718,-200.739 545.4718,-200.739 545.4718,-200.739 541.7294,-202.1512 544.2007,-197.3708 537.987,-203.5634 537.987,-203.5634"/>
<ellipse fill="none" stroke="#000000" cx="534.993" cy="-204.6932" rx="3.2" ry="3.2"/>
</g>
<!-- sa_ccr_trade_mappings&#45;&gt;netting_sets -->
<g id="edge5" class="edge">
<title>sa_ccr_trade_mappings:w&#45;&gt;netting_sets:e</title>
<path fill="none" stroke="#000000" d="M658.272,-206.0335C593.0175,-213.8813 323.5271,-209.5116 307,-215.2 284.7229,-222.8675 287.5597,-246.2 264,-246.2"/>
<polygon fill="#000000" stroke="#000000" points="664.4541,-203.8569 673.1956,-204.5957 668.227,-202.5284 672,-201.2 672,-201.2 672,-201.2 668.227,-202.5284 670.8044,-197.8043 664.4541,-203.8569 664.4541,-203.8569"/>
<ellipse fill="none" stroke="#000000" cx="661.4357" cy="-204.9196" rx="3.2" ry="3.2"/>
</g>
<!-- cds_trades -->
<g id="node6" class="node">
<title>cds_trades</title>
<g id="a_node6"><a xlink:href="../../tables/cds_trades.html" xlink:title="cds_trades" target="_top">
<polygon fill="#ffffff" stroke="transparent" points="343,-115.7 343,-176.7 454,-176.7 454,-115.7 343,-115.7"/>
<polygon fill="#f5f5f5" stroke="transparent" points="343.5,-153.2 343.5,-176.2 454.5,-176.2 454.5,-153.2 343.5,-153.2"/>
<polygon fill="none" stroke="#000000" points="343.5,-153.2 343.5,-176.2 454.5,-176.2 454.5,-153.2 343.5,-153.2"/>
<text text-anchor="start" x="348.5" y="-161.8" font-family="Helvetica,sans-Serif" font-weight="bold" font-size="11.00" fill="#000000">cds_trades</text>
<text text-anchor="start" x="420.0219" y="-161.3" font-family="Helvetica,sans-Serif" font-size="11.00" fill="#000000">[table]</text>
<polygon fill="none" stroke="#000000" points="343.5,-134.2 343.5,-153.2 454.5,-153.2 454.5,-134.2 343.5,-134.2"/>
<text text-anchor="start" x="346.5" y="-140.3" font-family="Helvetica,sans-Serif" font-size="11.00" fill="#000000">...</text>
<polygon fill="#ffffff" stroke="transparent" points="343.5,-115.2 343.5,-134.2 389.5,-134.2 389.5,-115.2 343.5,-115.2"/>
<polygon fill="none" stroke="#000000" points="343.5,-115.2 343.5,-134.2 389.5,-134.2 389.5,-115.2 343.5,-115.2"/>
<text text-anchor="start" x="346.5" y="-121.3" font-family="Helvetica,sans-Serif" font-size="11.00" fill="#000000">&lt; 2</text>
<polygon fill="#ffffff" stroke="transparent" points="389.5,-115.2 389.5,-134.2 414.5,-134.2 414.5,-115.2 389.5,-115.2"/>
<polygon fill="none" stroke="#000000" points="389.5,-115.2 389.5,-134.2 414.5,-134.2 414.5,-115.2 389.5,-115.2"/>
<text text-anchor="start" x="405.3862" y="-121.3" font-family="Helvetica,sans-Serif" font-size="11.00" fill="#000000"> &#160;</text>
<polygon fill="#ffffff" stroke="transparent" points="414.5,-115.2 414.5,-134.2 454.5,-134.2 454.5,-115.2 414.5,-115.2"/>
<polygon fill="none" stroke="#000000" points="414.5,-115.2 414.5,-134.2 454.5,-134.2 454.5,-115.2 414.5,-115.2"/>
<text text-anchor="start" x="429.7904" y="-121.3" font-family="Helvetica,sans-Serif" font-size="11.00" fill="#000000">13 &gt;</text>
</a>
</g>
</g>
<!-- sa_ccr_trade_mappings&#45;&gt;cds_trades -->
<g id="edge6" class="edge">
<title>sa_ccr_trade_mappings:w&#45;&gt;cds_trades:e</title>
<path fill="none" stroke="#000000" d="M516.592,-146.7002C495.9355,-144.596 474.6413,-143.2 454.5,-143.2"/>
<polygon fill="#000000" stroke="#000000" points="523.1784,-147.427 530.7353,-151.8827 527.1543,-147.8657 531.1302,-148.3044 531.1302,-148.3044 531.1302,-148.3044 527.1543,-147.8657 531.525,-144.7262 523.1784,-147.427 523.1784,-147.427"/>
<ellipse fill="none" stroke="#000000" cx="519.9978" cy="-147.076" rx="3.2" ry="3.2"/>
</g>
</g>
</svg>
