<?xml version="1.0" encoding="UTF-8" standalone="no"?>
<!DOCTYPE svg PUBLIC "-//W3C//DTD SVG 1.1//EN"
 "http://www.w3.org/Graphics/SVG/1.1/DTD/svg11.dtd">
<!-- Generated by graphviz version 2.40.1 (20161225.0304)
 -->
<!-- Title: oneDegreeRelationshipsDiagram Pages: 1 -->
<svg width="773pt" height="396pt"
 viewBox="0.00 0.00 773.00 395.70" xmlns="http://www.w3.org/2000/svg" xmlns:xlink="http://www.w3.org/1999/xlink">
<g id="graph0" class="graph" transform="scale(1 1) rotate(0) translate(4 391.7)">
<title>oneDegreeRelationshipsDiagram</title>
<polygon fill="#ffffff" stroke="transparent" points="-4,4 -4,-391.7 769,-391.7 769,4 -4,4"/>
<text text-anchor="middle" x="72.4936" y="-7.3" font-family="Helvetica,sans-Serif" font-size="11.00" fill="#000000">Generated by SchemaSpy</text>
<!-- sa_ccr_calculations -->
<g id="node1" class="node">
<title>sa_ccr_calculations</title>
<g id="a_node1"><a xlink:href="../../tables/sa_ccr_calculations.html" xlink:title="sa_ccr_calculations" target="_top">
<polygon fill="#ffffff" stroke="transparent" points="315,-212.7 315,-383.7 513,-383.7 513,-212.7 315,-212.7"/>
<polygon fill="#f5f5f5" stroke="transparent" points="315,-360.2 315,-383.2 513,-383.2 513,-360.2 315,-360.2"/>
<polygon fill="none" stroke="#000000" points="315,-360.2 315,-383.2 513,-383.2 513,-360.2 315,-360.2"/>
<text text-anchor="start" x="320" y="-368.8" font-family="Helvetica,sans-Serif" font-weight="bold" font-size="11.00" fill="#000000">sa_ccr_calculations</text>
<text text-anchor="start" x="478.0437" y="-368.3" font-family="Helvetica,sans-Serif" font-size="11.00" fill="#000000">[table]</text>
<polygon fill="none" stroke="#000000" points="315,-338.2 315,-360.2 513,-360.2 513,-338.2 315,-338.2"/>
<image xlink:href="../../images/primaryKeys.png" width="11px" height="12px" preserveAspectRatio="xMinYMin meet" x="320" y="-355.2"/>
<text text-anchor="start" x="335" y="-345.3" font-family="Helvetica,sans-Serif" font-size="11.00" fill="#000000">id</text>
<polygon fill="#ffffff" stroke="transparent" points="315,-316.2 315,-338.2 513,-338.2 513,-316.2 315,-316.2"/>
<polygon fill="none" stroke="#000000" points="315,-316.2 315,-338.2 513,-338.2 513,-316.2 315,-316.2"/>
<text text-anchor="start" x="335" y="-323.3" font-family="Helvetica,sans-Serif" font-size="11.00" fill="#000000">calculation_id</text>
<polygon fill="#ffffff" stroke="transparent" points="315,-294.2 315,-316.2 513,-316.2 513,-294.2 315,-294.2"/>
<polygon fill="none" stroke="#000000" points="315,-294.2 315,-316.2 513,-316.2 513,-294.2 315,-294.2"/>
<image xlink:href="../../images/foreignKeys.png" width="11px" height="12px" preserveAspectRatio="xMinYMin meet" x="320" y="-311.2"/>
<text text-anchor="start" x="335" y="-301.3" font-family="Helvetica,sans-Serif" font-size="11.00" fill="#000000">netting_set_id</text>
<polygon fill="#ffffff" stroke="transparent" points="315,-272.2 315,-294.2 513,-294.2 513,-272.2 315,-272.2"/>
<polygon fill="none" stroke="#000000" points="315,-272.2 315,-294.2 513,-294.2 513,-272.2 315,-272.2"/>
<text text-anchor="start" x="335" y="-279.3" font-family="Helvetica,sans-Serif" font-size="11.00" fill="#000000">calculation_date</text>
<polygon fill="#ffffff" stroke="transparent" points="315,-250.2 315,-272.2 513,-272.2 513,-250.2 315,-250.2"/>
<polygon fill="none" stroke="#000000" points="315,-250.2 315,-272.2 513,-272.2 513,-250.2 315,-250.2"/>
<text text-anchor="start" x="335" y="-257.3" font-family="Helvetica,sans-Serif" font-size="11.00" fill="#000000">jurisdiction</text>
<polygon fill="none" stroke="#000000" points="315,-231.2 315,-250.2 513,-250.2 513,-231.2 315,-231.2"/>
<text text-anchor="start" x="318" y="-237.3" font-family="Helvetica,sans-Serif" font-size="11.00" fill="#000000">...</text>
<polygon fill="#ffffff" stroke="transparent" points="315,-212.2 315,-231.2 408,-231.2 408,-212.2 315,-212.2"/>
<polygon fill="none" stroke="#000000" points="315,-212.2 315,-231.2 408,-231.2 408,-212.2 315,-212.2"/>
<text text-anchor="start" x="318" y="-218.3" font-family="Helvetica,sans-Serif" font-size="11.00" fill="#000000">&lt; 1</text>
<polygon fill="#ffffff" stroke="transparent" points="408,-212.2 408,-231.2 456,-231.2 456,-212.2 408,-212.2"/>
<polygon fill="none" stroke="#000000" points="408,-212.2 408,-231.2 456,-231.2 456,-212.2 408,-212.2"/>
<text text-anchor="start" x="446.8862" y="-218.3" font-family="Helvetica,sans-Serif" font-size="11.00" fill="#000000"> &#160;</text>
<polygon fill="#ffffff" stroke="transparent" points="456,-212.2 456,-231.2 513,-231.2 513,-212.2 456,-212.2"/>
<polygon fill="none" stroke="#000000" points="456,-212.2 456,-231.2 513,-231.2 513,-212.2 456,-212.2"/>
<text text-anchor="start" x="494.4053" y="-218.3" font-family="Helvetica,sans-Serif" font-size="11.00" fill="#000000">3 &gt;</text>
</a>
</g>
</g>
<!-- netting_sets -->
<g id="node2" class="node">
<title>netting_sets</title>
<g id="a_node2"><a xlink:href="../../tables/netting_sets.html" xlink:title="netting_sets" target="_top">
<polygon fill="#ffffff" stroke="transparent" points="8,-38.2 8,-304.2 266,-304.2 266,-38.2 8,-38.2"/>
<polygon fill="#f5f5f5" stroke="transparent" points="10,-279.2 10,-302.2 264,-302.2 264,-279.2 10,-279.2"/>
<polygon fill="none" stroke="#000000" points="10,-279.2 10,-302.2 264,-302.2 264,-279.2 10,-279.2"/>
<text text-anchor="start" x="15" y="-287.8" font-family="Helvetica,sans-Serif" font-weight="bold" font-size="11.00" fill="#000000">netting_sets</text>
<text text-anchor="start" x="229.0437" y="-287.3" font-family="Helvetica,sans-Serif" font-size="11.00" fill="#000000">[table]</text>
<polygon fill="none" stroke="#000000" points="10,-257.2 10,-279.2 180,-279.2 180,-257.2 10,-257.2"/>
<image xlink:href="../../images/primaryKeys.png" width="11px" height="12px" preserveAspectRatio="xMinYMin meet" x="15" y="-274.2"/>
<text text-anchor="start" x="30" y="-264.3" font-family="Helvetica,sans-Serif" font-size="11.00" fill="#000000">id</text>
<polygon fill="none" stroke="#000000" points="180,-257.2 180,-279.2 264,-279.2 264,-257.2 180,-257.2"/>
<text text-anchor="start" x="183" y="-264.9" font-family="Helvetica,sans-Serif" font-size="11.00" fill="#000000">bigserial[19]</text>
<polygon fill="#ffffff" stroke="transparent" points="10,-235.2 10,-257.2 180,-257.2 180,-235.2 10,-235.2"/>
<polygon fill="none" stroke="#000000" points="10,-235.2 10,-257.2 180,-257.2 180,-235.2 10,-235.2"/>
<text text-anchor="start" x="30" y="-242.3" font-family="Helvetica,sans-Serif" font-size="11.00" fill="#000000">netting_set_id</text>
<polygon fill="none" stroke="#000000" points="180,-235.2 180,-257.2 264,-257.2 264,-235.2 180,-235.2"/>
<text text-anchor="start" x="183" y="-242.9" font-family="Helvetica,sans-Serif" font-size="11.00" fill="#000000">varchar[100]</text>
<polygon fill="#ffffff" stroke="transparent" points="10,-213.2 10,-235.2 180,-235.2 180,-213.2 10,-213.2"/>
<polygon fill="none" stroke="#000000" points="10,-213.2 10,-235.2 180,-235.2 180,-213.2 10,-213.2"/>
<text text-anchor="start" x="30" y="-220.3" font-family="Helvetica,sans-Serif" font-size="11.00" fill="#000000">counterparty_id</text>
<polygon fill="none" stroke="#000000" points="180,-213.2 180,-235.2 264,-235.2 264,-213.2 180,-213.2"/>
<text text-anchor="start" x="183" y="-220.9" font-family="Helvetica,sans-Serif" font-size="11.00" fill="#000000">varchar[100]</text>
<polygon fill="none" stroke="#000000" points="10,-191.2 10,-213.2 180,-213.2 180,-191.2 10,-191.2"/>
<text text-anchor="start" x="30" y="-198.3" font-family="Helvetica,sans-Serif" font-size="11.00" fill="#000000">legal_agreement_type</text>
<polygon fill="none" stroke="#000000" points="180,-191.2 180,-213.2 264,-213.2 264,-191.2 180,-191.2"/>
<text text-anchor="start" x="183" y="-198.9" font-family="Helvetica,sans-Serif" font-size="11.00" fill="#000000">varchar[50]</text>
<polygon fill="none" stroke="#000000" points="10,-169.2 10,-191.2 180,-191.2 180,-169.2 10,-169.2"/>
<text text-anchor="start" x="30" y="-176.3" font-family="Helvetica,sans-Serif" font-size="11.00" fill="#000000">agreement_date</text>
<polygon fill="none" stroke="#000000" points="180,-169.2 180,-191.2 264,-191.2 264,-169.2 180,-169.2"/>
<text text-anchor="start" x="183" y="-176.9" font-family="Helvetica,sans-Serif" font-size="11.00" fill="#000000">date[13]</text>
<polygon fill="none" stroke="#000000" points="10,-147.2 10,-169.2 180,-169.2 180,-147.2 10,-147.2"/>
<text text-anchor="start" x="30" y="-154.3" font-family="Helvetica,sans-Serif" font-size="11.00" fill="#000000">governing_law</text>
<polygon fill="none" stroke="#000000" points="180,-147.2 180,-169.2 264,-169.2 264,-147.2 180,-147.2"/>
<text text-anchor="start" x="183" y="-154.9" font-family="Helvetica,sans-Serif" font-size="11.00" fill="#000000">varchar[10]</text>
<polygon fill="none" stroke="#000000" points="10,-125.2 10,-147.2 180,-147.2 180,-125.2 10,-125.2"/>
<text text-anchor="start" x="30" y="-132.3" font-family="Helvetica,sans-Serif" font-size="11.00" fill="#000000">netting_eligible</text>
<polygon fill="none" stroke="#000000" points="180,-125.2 180,-147.2 264,-147.2 264,-125.2 180,-125.2"/>
<text text-anchor="start" x="183" y="-132.9" font-family="Helvetica,sans-Serif" font-size="11.00" fill="#000000">bool[1]</text>
<polygon fill="none" stroke="#000000" points="10,-103.2 10,-125.2 180,-125.2 180,-103.2 10,-103.2"/>
<text text-anchor="start" x="30" y="-110.3" font-family="Helvetica,sans-Serif" font-size="11.00" fill="#000000">collateral_agreement</text>
<polygon fill="none" stroke="#000000" points="180,-103.2 180,-125.2 264,-125.2 264,-103.2 180,-103.2"/>
<text text-anchor="start" x="183" y="-110.9" font-family="Helvetica,sans-Serif" font-size="11.00" fill="#000000">bool[1]</text>
<polygon fill="none" stroke="#000000" points="10,-81.2 10,-103.2 180,-103.2 180,-81.2 10,-81.2"/>
<text text-anchor="start" x="30" y="-88.3" font-family="Helvetica,sans-Serif" font-size="11.00" fill="#000000">created_at</text>
<polygon fill="none" stroke="#000000" points="180,-81.2 180,-103.2 264,-103.2 264,-81.2 180,-81.2"/>
<text text-anchor="start" x="182.8807" y="-88.9" font-family="Helvetica,sans-Serif" font-size="11.00" fill="#000000">timestamp[29,6]</text>
<polygon fill="none" stroke="#000000" points="10,-59.2 10,-81.2 180,-81.2 180,-59.2 10,-59.2"/>
<text text-anchor="start" x="30" y="-66.3" font-family="Helvetica,sans-Serif" font-size="11.00" fill="#000000">updated_at</text>
<polygon fill="none" stroke="#000000" points="180,-59.2 180,-81.2 264,-81.2 264,-59.2 180,-59.2"/>
<text text-anchor="start" x="182.8807" y="-66.9" font-family="Helvetica,sans-Serif" font-size="11.00" fill="#000000">timestamp[29,6]</text>
<polygon fill="#ffffff" stroke="transparent" points="10,-40.2 10,-59.2 99,-59.2 99,-40.2 10,-40.2"/>
<polygon fill="none" stroke="#000000" points="10,-40.2 10,-59.2 99,-59.2 99,-40.2 10,-40.2"/>
<text text-anchor="start" x="13" y="-46.3" font-family="Helvetica,sans-Serif" font-size="11.00" fill="#000000">&lt; 0</text>
<polygon fill="#ffffff" stroke="transparent" points="99,-40.2 99,-59.2 180,-59.2 180,-40.2 99,-40.2"/>
<polygon fill="none" stroke="#000000" points="99,-40.2 99,-59.2 180,-59.2 180,-40.2 99,-40.2"/>
<text text-anchor="start" x="170.8862" y="-46.3" font-family="Helvetica,sans-Serif" font-size="11.00" fill="#000000"> &#160;</text>
<polygon fill="#ffffff" stroke="transparent" points="180,-40.2 180,-59.2 264,-59.2 264,-40.2 180,-40.2"/>
<polygon fill="none" stroke="#000000" points="180,-40.2 180,-59.2 264,-59.2 264,-40.2 180,-40.2"/>
<text text-anchor="start" x="245.4053" y="-46.3" font-family="Helvetica,sans-Serif" font-size="11.00" fill="#000000">2 &gt;</text>
<polygon fill="none" stroke="#000000" stroke-width="2" points="9,-39.2 9,-303.2 265,-303.2 265,-39.2 9,-39.2"/>
</a>
</g>
</g>
<!-- sa_ccr_calculations&#45;&gt;netting_sets -->
<g id="edge1" class="edge">
<title>sa_ccr_calculations:w&#45;&gt;netting_sets:e</title>
<path fill="none" stroke="#000000" d="M301.2854,-300.5704C285.072,-286.6617 292.7036,-246.2 264,-246.2"/>
<polygon fill="#000000" stroke="#000000" points="307.4202,-302.6413 313.8486,-308.6109 311.2101,-303.9206 315,-305.2 315,-305.2 315,-305.2 311.2101,-303.9206 316.1514,-301.7891 307.4202,-302.6413 307.4202,-302.6413"/>
<ellipse fill="none" stroke="#000000" cx="304.3883" cy="-301.6178" rx="3.2" ry="3.2"/>
</g>
<!-- sa_ccr_trade_mappings -->
<g id="node3" class="node">
<title>sa_ccr_trade_mappings</title>
<g id="a_node3"><a xlink:href="../../tables/sa_ccr_trade_mappings.html" xlink:title="sa_ccr_trade_mappings" target="_top">
<polygon fill="#ffffff" stroke="transparent" points="562,-186.7 562,-335.7 757,-335.7 757,-186.7 562,-186.7"/>
<polygon fill="#f5f5f5" stroke="transparent" points="562.5,-312.2 562.5,-335.2 757.5,-335.2 757.5,-312.2 562.5,-312.2"/>
<polygon fill="none" stroke="#000000" points="562.5,-312.2 562.5,-335.2 757.5,-335.2 757.5,-312.2 562.5,-312.2"/>
<text text-anchor="start" x="567.5" y="-320.8" font-family="Helvetica,sans-Serif" font-weight="bold" font-size="11.00" fill="#000000">sa_ccr_trade_mappings</text>
<text text-anchor="start" x="723.0219" y="-320.3" font-family="Helvetica,sans-Serif" font-size="11.00" fill="#000000">[table]</text>
<polygon fill="none" stroke="#000000" points="562.5,-290.2 562.5,-312.2 757.5,-312.2 757.5,-290.2 562.5,-290.2"/>
<image xlink:href="../../images/primaryKeys.png" width="11px" height="12px" preserveAspectRatio="xMinYMin meet" x="567.5" y="-307.2"/>
<text text-anchor="start" x="591.5" y="-297.3" font-family="Helvetica,sans-Serif" font-size="11.00" fill="#000000">id</text>
<polygon fill="#ffffff" stroke="transparent" points="562.5,-268.2 562.5,-290.2 757.5,-290.2 757.5,-268.2 562.5,-268.2"/>
<polygon fill="none" stroke="#000000" points="562.5,-268.2 562.5,-290.2 757.5,-290.2 757.5,-268.2 562.5,-268.2"/>
<image xlink:href="../../images/foreignKeys.png" width="11px" height="12px" preserveAspectRatio="xMinYMin meet" x="567.5" y="-285.2"/>
<text text-anchor="start" x="591.5" y="-275.3" font-family="Helvetica,sans-Serif" font-size="11.00" fill="#000000">calculation_id</text>
<polygon fill="none" stroke="#000000" points="562.5,-246.2 562.5,-268.2 757.5,-268.2 757.5,-246.2 562.5,-246.2"/>
<image xlink:href="../../images/foreignKeys.png" width="11px" height="12px" preserveAspectRatio="xMinYMin meet" x="567.5" y="-263.2"/>
<text text-anchor="start" x="591.5" y="-253.3" font-family="Helvetica,sans-Serif" font-size="11.00" fill="#000000">trade_id</text>
<polygon fill="none" stroke="#000000" points="562.5,-224.2 562.5,-246.2 757.5,-246.2 757.5,-224.2 562.5,-224.2"/>
<image xlink:href="../../images/foreignKeys.png" width="11px" height="12px" preserveAspectRatio="xMinYMin meet" x="567.5" y="-241.2"/>
<text text-anchor="start" x="591.5" y="-231.3" font-family="Helvetica,sans-Serif" font-size="11.00" fill="#000000">netting_set_id</text>
<polygon fill="none" stroke="#000000" points="562.5,-205.2 562.5,-224.2 757.5,-224.2 757.5,-205.2 562.5,-205.2"/>
<text text-anchor="start" x="565.5" y="-211.3" font-family="Helvetica,sans-Serif" font-size="11.00" fill="#000000">...</text>
<polygon fill="#ffffff" stroke="transparent" points="562.5,-186.2 562.5,-205.2 658.5,-205.2 658.5,-186.2 562.5,-186.2"/>
<polygon fill="none" stroke="#000000" points="562.5,-186.2 562.5,-205.2 658.5,-205.2 658.5,-186.2 562.5,-186.2"/>
<text text-anchor="start" x="565.5" y="-192.3" font-family="Helvetica,sans-Serif" font-size="11.00" fill="#000000">&lt; 3</text>
<polygon fill="#ffffff" stroke="transparent" points="658.5,-186.2 658.5,-205.2 707.5,-205.2 707.5,-186.2 658.5,-186.2"/>
<polygon fill="none" stroke="#000000" points="658.5,-186.2 658.5,-205.2 707.5,-205.2 707.5,-186.2 658.5,-186.2"/>
<text text-anchor="start" x="698.3862" y="-192.3" font-family="Helvetica,sans-Serif" font-size="11.00" fill="#000000"> &#160;</text>
<polygon fill="#ffffff" stroke="transparent" points="707.5,-186.2 707.5,-205.2 757.5,-205.2 757.5,-186.2 707.5,-186.2"/>
<polygon fill="none" stroke="#000000" points="707.5,-186.2 707.5,-205.2 757.5,-205.2 757.5,-186.2 707.5,-186.2"/>
<text text-anchor="start" x="748.3862" y="-192.3" font-family="Helvetica,sans-Serif" font-size="11.00" fill="#000000"> &#160;</text>
</a>
</g>
</g>
<!-- sa_ccr_trade_mappings&#45;&gt;sa_ccr_calculations -->
<g id="edge2" class="edge">
<title>sa_ccr_trade_mappings:w&#45;&gt;sa_ccr_calculations:e</title>
<path fill="none" stroke="#000000" d="M548.7679,-283.9779C534.8417,-296.1189 537.6596,-327.2 513,-327.2"/>
<polygon fill="#000000" stroke="#000000" points="554.9443,-281.829 563.683,-282.6001 558.7221,-280.5145 562.5,-279.2 562.5,-279.2 562.5,-279.2 558.7221,-280.5145 561.317,-275.7999 554.9443,-281.829 554.9443,-281.829"/>
<ellipse fill="none" stroke="#000000" cx="551.922" cy="-282.8805" rx="3.2" ry="3.2"/>
</g>
<!-- sa_ccr_trade_mappings&#45;&gt;netting_sets -->
<g id="edge3" class="edge">
<title>sa_ccr_trade_mappings:w&#45;&gt;netting_sets:e</title>
<path fill="none" stroke="#000000" d="M548.6023,-230.6592C539.3523,-223.0275 537.3384,-207.9042 521,-202.2 431.2042,-170.8498 394.6606,-165.2982 307,-202.2 281.7987,-212.8088 291.3433,-246.2 264,-246.2"/>
<polygon fill="#000000" stroke="#000000" points="554.8956,-232.7154 561.3819,-238.622 558.6978,-233.9577 562.5,-235.2 562.5,-235.2 562.5,-235.2 558.6978,-233.9577 563.6181,-231.778 554.8956,-232.7154 554.8956,-232.7154"/>
<ellipse fill="none" stroke="#000000" cx="551.8538" cy="-231.7216" rx="3.2" ry="3.2"/>
</g>
</g>
</svg>
