<?xml version="1.0" encoding="UTF-8" standalone="no"?>
<!DOCTYPE svg PUBLIC "-//W3C//DTD SVG 1.1//EN"
 "http://www.w3.org/Graphics/SVG/1.1/DTD/svg11.dtd">
<!-- Generated by graphviz version 2.40.1 (20161225.0304)
 -->
<!-- Title: oneDegreeRelationshipsDiagram Pages: 1 -->
<svg width="505pt" height="465pt"
 viewBox="0.00 0.00 505.00 464.70" xmlns="http://www.w3.org/2000/svg" xmlns:xlink="http://www.w3.org/1999/xlink">
<g id="graph0" class="graph" transform="scale(1 1) rotate(0) translate(4 460.7)">
<title>oneDegreeRelationshipsDiagram</title>
<polygon fill="#ffffff" stroke="transparent" points="-4,4 -4,-460.7 501,-460.7 501,4 -4,4"/>
<text text-anchor="middle" x="72.4936" y="-7.3" font-family="Helvetica,sans-Serif" font-size="11.00" fill="#000000">Generated by SchemaSpy</text>
<!-- notional_adjustments -->
<g id="node1" class="node">
<title>notional_adjustments</title>
<g id="a_node1"><a xlink:href="../../tables/notional_adjustments.html" xlink:title="notional_adjustments" target="_top">
<polygon fill="#ffffff" stroke="transparent" points="229,-186.7 229,-452.7 489,-452.7 489,-186.7 229,-186.7"/>
<polygon fill="#f5f5f5" stroke="transparent" points="231,-427.7 231,-450.7 487,-450.7 487,-427.7 231,-427.7"/>
<polygon fill="none" stroke="#000000" points="231,-427.7 231,-450.7 487,-450.7 487,-427.7 231,-427.7"/>
<text text-anchor="start" x="236" y="-436.3" font-family="Helvetica,sans-Serif" font-weight="bold" font-size="11.00" fill="#000000">notional_adjustments</text>
<text text-anchor="start" x="452.0437" y="-435.8" font-family="Helvetica,sans-Serif" font-size="11.00" fill="#000000">[table]</text>
<polygon fill="none" stroke="#000000" points="231,-405.7 231,-427.7 397,-427.7 397,-405.7 231,-405.7"/>
<image xlink:href="../../images/primaryKeys.png" width="11px" height="12px" preserveAspectRatio="xMinYMin meet" x="236" y="-422.7"/>
<text text-anchor="start" x="251" y="-412.8" font-family="Helvetica,sans-Serif" font-size="11.00" fill="#000000">id</text>
<polygon fill="none" stroke="#000000" points="397,-405.7 397,-427.7 487,-427.7 487,-405.7 397,-405.7"/>
<text text-anchor="start" x="400" y="-413.4" font-family="Helvetica,sans-Serif" font-size="11.00" fill="#000000">bigserial[19]</text>
<polygon fill="#ffffff" stroke="transparent" points="231,-383.7 231,-405.7 397,-405.7 397,-383.7 231,-383.7"/>
<polygon fill="none" stroke="#000000" points="231,-383.7 231,-405.7 397,-405.7 397,-383.7 231,-383.7"/>
<image xlink:href="../../images/foreignKeys.png" width="11px" height="12px" preserveAspectRatio="xMinYMin meet" x="236" y="-400.7"/>
<text text-anchor="start" x="251" y="-390.8" font-family="Helvetica,sans-Serif" font-size="11.00" fill="#000000">trade_id</text>
<polygon fill="none" stroke="#000000" points="397,-383.7 397,-405.7 487,-405.7 487,-383.7 397,-383.7"/>
<text text-anchor="start" x="400" y="-391.4" font-family="Helvetica,sans-Serif" font-size="11.00" fill="#000000">int8[19]</text>
<polygon fill="#ffffff" stroke="transparent" points="231,-361.7 231,-383.7 397,-383.7 397,-361.7 231,-361.7"/>
<polygon fill="none" stroke="#000000" points="231,-361.7 231,-383.7 397,-383.7 397,-361.7 231,-361.7"/>
<text text-anchor="start" x="251" y="-368.8" font-family="Helvetica,sans-Serif" font-size="11.00" fill="#000000">adjustment_date</text>
<polygon fill="none" stroke="#000000" points="397,-361.7 397,-383.7 487,-383.7 487,-361.7 397,-361.7"/>
<text text-anchor="start" x="400" y="-369.4" font-family="Helvetica,sans-Serif" font-size="11.00" fill="#000000">date[13]</text>
<polygon fill="none" stroke="#000000" points="231,-339.7 231,-361.7 397,-361.7 397,-339.7 231,-339.7"/>
<text text-anchor="start" x="251" y="-346.8" font-family="Helvetica,sans-Serif" font-size="11.00" fill="#000000">adjustment_type</text>
<polygon fill="none" stroke="#000000" points="397,-339.7 397,-361.7 487,-361.7 487,-339.7 397,-339.7"/>
<text text-anchor="start" x="400" y="-347.4" font-family="Helvetica,sans-Serif" font-size="11.00" fill="#000000">varchar[30]</text>
<polygon fill="none" stroke="#000000" points="231,-317.7 231,-339.7 397,-339.7 397,-317.7 231,-317.7"/>
<text text-anchor="start" x="251" y="-324.8" font-family="Helvetica,sans-Serif" font-size="11.00" fill="#000000">original_notional</text>
<polygon fill="none" stroke="#000000" points="397,-317.7 397,-339.7 487,-339.7 487,-317.7 397,-317.7"/>
<text text-anchor="start" x="400" y="-325.4" font-family="Helvetica,sans-Serif" font-size="11.00" fill="#000000">numeric[15,2]</text>
<polygon fill="none" stroke="#000000" points="231,-295.7 231,-317.7 397,-317.7 397,-295.7 231,-295.7"/>
<text text-anchor="start" x="251" y="-302.8" font-family="Helvetica,sans-Serif" font-size="11.00" fill="#000000">adjustment_amount</text>
<polygon fill="none" stroke="#000000" points="397,-295.7 397,-317.7 487,-317.7 487,-295.7 397,-295.7"/>
<text text-anchor="start" x="400" y="-303.4" font-family="Helvetica,sans-Serif" font-size="11.00" fill="#000000">numeric[15,2]</text>
<polygon fill="none" stroke="#000000" points="231,-273.7 231,-295.7 397,-295.7 397,-273.7 231,-273.7"/>
<text text-anchor="start" x="251" y="-280.8" font-family="Helvetica,sans-Serif" font-size="11.00" fill="#000000">remaining_notional</text>
<polygon fill="none" stroke="#000000" points="397,-273.7 397,-295.7 487,-295.7 487,-273.7 397,-273.7"/>
<text text-anchor="start" x="400" y="-281.4" font-family="Helvetica,sans-Serif" font-size="11.00" fill="#000000">numeric[15,2]</text>
<polygon fill="none" stroke="#000000" points="231,-251.7 231,-273.7 397,-273.7 397,-251.7 231,-251.7"/>
<text text-anchor="start" x="251" y="-258.8" font-family="Helvetica,sans-Serif" font-size="11.00" fill="#000000">unwind_cash_amount</text>
<polygon fill="none" stroke="#000000" points="397,-251.7 397,-273.7 487,-273.7 487,-251.7 397,-251.7"/>
<text text-anchor="start" x="400" y="-259.4" font-family="Helvetica,sans-Serif" font-size="11.00" fill="#000000">numeric[15,2]</text>
<polygon fill="none" stroke="#000000" points="231,-229.7 231,-251.7 397,-251.7 397,-229.7 231,-229.7"/>
<text text-anchor="start" x="251" y="-236.8" font-family="Helvetica,sans-Serif" font-size="11.00" fill="#000000">adjustment_reason</text>
<polygon fill="none" stroke="#000000" points="397,-229.7 397,-251.7 487,-251.7 487,-229.7 397,-229.7"/>
<text text-anchor="start" x="399.5043" y="-237.4" font-family="Helvetica,sans-Serif" font-size="11.00" fill="#000000">text[2147483647]</text>
<polygon fill="none" stroke="#000000" points="231,-207.7 231,-229.7 397,-229.7 397,-207.7 231,-207.7"/>
<text text-anchor="start" x="251" y="-214.8" font-family="Helvetica,sans-Serif" font-size="11.00" fill="#000000">created_at</text>
<polygon fill="none" stroke="#000000" points="397,-207.7 397,-229.7 487,-229.7 487,-207.7 397,-207.7"/>
<text text-anchor="start" x="400" y="-215.4" font-family="Helvetica,sans-Serif" font-size="11.00" fill="#000000">timestamp[29,6]</text>
<polygon fill="#ffffff" stroke="transparent" points="231,-188.7 231,-207.7 318,-207.7 318,-188.7 231,-188.7"/>
<polygon fill="none" stroke="#000000" points="231,-188.7 231,-207.7 318,-207.7 318,-188.7 231,-188.7"/>
<text text-anchor="start" x="234" y="-194.8" font-family="Helvetica,sans-Serif" font-size="11.00" fill="#000000">&lt; 1</text>
<polygon fill="#ffffff" stroke="transparent" points="318,-188.7 318,-207.7 397,-207.7 397,-188.7 318,-188.7"/>
<polygon fill="none" stroke="#000000" points="318,-188.7 318,-207.7 397,-207.7 397,-188.7 318,-188.7"/>
<text text-anchor="start" x="387.8862" y="-194.8" font-family="Helvetica,sans-Serif" font-size="11.00" fill="#000000"> &#160;</text>
<polygon fill="#ffffff" stroke="transparent" points="397,-188.7 397,-207.7 487,-207.7 487,-188.7 397,-188.7"/>
<polygon fill="none" stroke="#000000" points="397,-188.7 397,-207.7 487,-207.7 487,-188.7 397,-188.7"/>
<text text-anchor="start" x="468.4053" y="-194.8" font-family="Helvetica,sans-Serif" font-size="11.00" fill="#000000">0 &gt;</text>
<polygon fill="none" stroke="#000000" stroke-width="2" points="230,-187.7 230,-451.7 488,-451.7 488,-187.7 230,-187.7"/>
</a>
</g>
</g>
<!-- cds_trades -->
<g id="node2" class="node">
<title>cds_trades</title>
<g id="a_node2"><a xlink:href="../../tables/cds_trades.html" xlink:title="cds_trades" target="_top">
<polygon fill="#ffffff" stroke="transparent" points="8,-38.2 8,-429.2 180,-429.2 180,-38.2 8,-38.2"/>
<polygon fill="#f5f5f5" stroke="transparent" points="8,-405.7 8,-428.7 180,-428.7 180,-405.7 8,-405.7"/>
<polygon fill="none" stroke="#000000" points="8,-405.7 8,-428.7 180,-428.7 180,-405.7 8,-405.7"/>
<text text-anchor="start" x="13" y="-414.3" font-family="Helvetica,sans-Serif" font-weight="bold" font-size="11.00" fill="#000000">cds_trades</text>
<text text-anchor="start" x="145.0437" y="-413.8" font-family="Helvetica,sans-Serif" font-size="11.00" fill="#000000">[table]</text>
<polygon fill="none" stroke="#000000" points="8,-383.7 8,-405.7 180,-405.7 180,-383.7 8,-383.7"/>
<image xlink:href="../../images/primaryKeys.png" width="11px" height="12px" preserveAspectRatio="xMinYMin meet" x="13" y="-400.7"/>
<text text-anchor="start" x="28" y="-390.8" font-family="Helvetica,sans-Serif" font-size="11.00" fill="#000000">id</text>
<polygon fill="#ffffff" stroke="transparent" points="8,-361.7 8,-383.7 180,-383.7 180,-361.7 8,-361.7"/>
<polygon fill="none" stroke="#000000" points="8,-361.7 8,-383.7 180,-383.7 180,-361.7 8,-361.7"/>
<text text-anchor="start" x="28" y="-368.8" font-family="Helvetica,sans-Serif" font-size="11.00" fill="#000000">reference_entity</text>
<polygon fill="#ffffff" stroke="transparent" points="8,-339.7 8,-361.7 180,-361.7 180,-339.7 8,-339.7"/>
<polygon fill="none" stroke="#000000" points="8,-339.7 8,-361.7 180,-361.7 180,-339.7 8,-339.7"/>
<text text-anchor="start" x="28" y="-346.8" font-family="Helvetica,sans-Serif" font-size="11.00" fill="#000000">counterparty</text>
<polygon fill="#ffffff" stroke="transparent" points="8,-317.7 8,-339.7 180,-339.7 180,-317.7 8,-317.7"/>
<polygon fill="none" stroke="#000000" points="8,-317.7 8,-339.7 180,-339.7 180,-317.7 8,-317.7"/>
<text text-anchor="start" x="28" y="-324.8" font-family="Helvetica,sans-Serif" font-size="11.00" fill="#000000">trade_date</text>
<polygon fill="#ffffff" stroke="transparent" points="8,-295.7 8,-317.7 180,-317.7 180,-295.7 8,-295.7"/>
<polygon fill="none" stroke="#000000" points="8,-295.7 8,-317.7 180,-317.7 180,-295.7 8,-295.7"/>
<text text-anchor="start" x="28" y="-302.8" font-family="Helvetica,sans-Serif" font-size="11.00" fill="#000000">created_at</text>
<polygon fill="#ffffff" stroke="transparent" points="8,-273.7 8,-295.7 180,-295.7 180,-273.7 8,-273.7"/>
<polygon fill="none" stroke="#000000" points="8,-273.7 8,-295.7 180,-295.7 180,-273.7 8,-273.7"/>
<image xlink:href="../../images/foreignKeys.png" width="11px" height="12px" preserveAspectRatio="xMinYMin meet" x="13" y="-290.7"/>
<text text-anchor="start" x="28" y="-280.8" font-family="Helvetica,sans-Serif" font-size="11.00" fill="#000000">obligation_id</text>
<polygon fill="#ffffff" stroke="transparent" points="8,-251.7 8,-273.7 180,-273.7 180,-251.7 8,-251.7"/>
<polygon fill="none" stroke="#000000" points="8,-251.7 8,-273.7 180,-273.7 180,-251.7 8,-251.7"/>
<text text-anchor="start" x="28" y="-258.8" font-family="Helvetica,sans-Serif" font-size="11.00" fill="#000000">settlement_type</text>
<polygon fill="#ffffff" stroke="transparent" points="8,-229.7 8,-251.7 180,-251.7 180,-229.7 8,-229.7"/>
<polygon fill="none" stroke="#000000" points="8,-229.7 8,-251.7 180,-251.7 180,-229.7 8,-229.7"/>
<text text-anchor="start" x="28" y="-236.8" font-family="Helvetica,sans-Serif" font-size="11.00" fill="#000000">ccp_name</text>
<polygon fill="#ffffff" stroke="transparent" points="8,-207.7 8,-229.7 180,-229.7 180,-207.7 8,-207.7"/>
<polygon fill="none" stroke="#000000" points="8,-207.7 8,-229.7 180,-229.7 180,-207.7 8,-207.7"/>
<image xlink:href="../../images/foreignKeys.png" width="11px" height="12px" preserveAspectRatio="xMinYMin meet" x="13" y="-224.7"/>
<text text-anchor="start" x="28" y="-214.8" font-family="Helvetica,sans-Serif" font-size="11.00" fill="#000000">original_trade_id</text>
<polygon fill="#ffffff" stroke="transparent" points="8,-185.7 8,-207.7 180,-207.7 180,-185.7 8,-185.7"/>
<polygon fill="none" stroke="#000000" points="8,-185.7 8,-207.7 180,-207.7 180,-185.7 8,-185.7"/>
<text text-anchor="start" x="28" y="-192.8" font-family="Helvetica,sans-Serif" font-size="11.00" fill="#000000">novation_timestamp</text>
<polygon fill="#ffffff" stroke="transparent" points="8,-163.7 8,-185.7 180,-185.7 180,-163.7 8,-163.7"/>
<polygon fill="none" stroke="#000000" points="8,-163.7 8,-185.7 180,-185.7 180,-163.7 8,-163.7"/>
<text text-anchor="start" x="28" y="-170.8" font-family="Helvetica,sans-Serif" font-size="11.00" fill="#000000">novation_reference</text>
<polygon fill="#ffffff" stroke="transparent" points="8,-141.7 8,-163.7 180,-163.7 180,-141.7 8,-141.7"/>
<polygon fill="none" stroke="#000000" points="8,-141.7 8,-163.7 180,-163.7 180,-141.7 8,-141.7"/>
<text text-anchor="start" x="28" y="-148.8" font-family="Helvetica,sans-Serif" font-size="11.00" fill="#000000">uti</text>
<polygon fill="#ffffff" stroke="transparent" points="8,-119.7 8,-141.7 180,-141.7 180,-119.7 8,-119.7"/>
<polygon fill="none" stroke="#000000" points="8,-119.7 8,-141.7 180,-141.7 180,-119.7 8,-119.7"/>
<text text-anchor="start" x="28" y="-126.8" font-family="Helvetica,sans-Serif" font-size="11.00" fill="#000000">usi</text>
<polygon fill="#ffffff" stroke="transparent" points="8,-97.7 8,-119.7 180,-119.7 180,-97.7 8,-97.7"/>
<polygon fill="none" stroke="#000000" points="8,-97.7 8,-119.7 180,-119.7 180,-97.7 8,-97.7"/>
<text text-anchor="start" x="28" y="-104.8" font-family="Helvetica,sans-Serif" font-size="11.00" fill="#000000">is_cleared</text>
<polygon fill="#ffffff" stroke="transparent" points="8,-75.7 8,-97.7 180,-97.7 180,-75.7 8,-75.7"/>
<polygon fill="none" stroke="#000000" points="8,-75.7 8,-97.7 180,-97.7 180,-75.7 8,-75.7"/>
<text text-anchor="start" x="28" y="-82.8" font-family="Helvetica,sans-Serif" font-size="11.00" fill="#000000">mark_to_market_value</text>
<polygon fill="none" stroke="#000000" points="8,-56.7 8,-75.7 180,-75.7 180,-56.7 8,-56.7"/>
<text text-anchor="start" x="11" y="-62.8" font-family="Helvetica,sans-Serif" font-size="11.00" fill="#000000">...</text>
<polygon fill="#ffffff" stroke="transparent" points="8,-37.7 8,-56.7 85,-56.7 85,-37.7 8,-37.7"/>
<polygon fill="none" stroke="#000000" points="8,-37.7 8,-56.7 85,-56.7 85,-37.7 8,-37.7"/>
<text text-anchor="start" x="11" y="-43.8" font-family="Helvetica,sans-Serif" font-size="11.00" fill="#000000">&lt; 2</text>
<polygon fill="#ffffff" stroke="transparent" points="85,-37.7 85,-56.7 125,-56.7 125,-37.7 85,-37.7"/>
<polygon fill="none" stroke="#000000" points="85,-37.7 85,-56.7 125,-56.7 125,-37.7 85,-37.7"/>
<text text-anchor="start" x="115.8862" y="-43.8" font-family="Helvetica,sans-Serif" font-size="11.00" fill="#000000"> &#160;</text>
<polygon fill="#ffffff" stroke="transparent" points="125,-37.7 125,-56.7 180,-56.7 180,-37.7 125,-37.7"/>
<polygon fill="none" stroke="#000000" points="125,-37.7 125,-56.7 180,-56.7 180,-37.7 125,-37.7"/>
<text text-anchor="start" x="155.2904" y="-43.8" font-family="Helvetica,sans-Serif" font-size="11.00" fill="#000000">13 &gt;</text>
</a>
</g>
</g>
<!-- notional_adjustments&#45;&gt;cds_trades -->
<g id="edge1" class="edge">
<title>notional_adjustments:w&#45;&gt;cds_trades:e</title>
<path fill="none" stroke="#000000" d="M216.276,-394.7C204.2815,-394.7 196.8229,-394.7 180,-394.7"/>
<polygon fill="#000000" stroke="#000000" points="223,-394.7001 231,-398.3 227,-394.7 231,-394.7 231,-394.7 231,-394.7 227,-394.7 231,-391.1 223,-394.7001 223,-394.7001"/>
<ellipse fill="none" stroke="#000000" cx="219.8" cy="-394.7001" rx="3.2" ry="3.2"/>
</g>
</g>
</svg>
