<?xml version="1.0" encoding="UTF-8" standalone="no"?>
<!DOCTYPE svg PUBLIC "-//W3C//DTD SVG 1.1//EN"
 "http://www.w3.org/Graphics/SVG/1.1/DTD/svg11.dtd">
<!-- Generated by graphviz version 2.40.1 (20161225.0304)
 -->
<!-- Title: twoDegreesRelationshipsDiagram Pages: 1 -->
<svg width="973pt" height="974pt"
 viewBox="0.00 0.00 973.00 974.20" xmlns="http://www.w3.org/2000/svg" xmlns:xlink="http://www.w3.org/1999/xlink">
<g id="graph0" class="graph" transform="scale(1 1) rotate(0) translate(4 970.2)">
<title>twoDegreesRelationshipsDiagram</title>
<polygon fill="#ffffff" stroke="transparent" points="-4,4 -4,-970.2 969,-970.2 969,4 -4,4"/>
<text text-anchor="middle" x="72.4936" y="-7.3" font-family="Helvetica,sans-Serif" font-size="11.00" fill="#000000">Generated by SchemaSpy</text>
<!-- accrual_events -->
<g id="node1" class="node">
<title>accrual_events</title>
<g id="a_node1"><a xlink:href="../../tables/accrual_events.html" xlink:title="accrual_events" target="_top">
<polygon fill="#ffffff" stroke="transparent" points="742.5,-897.2 742.5,-958.2 881.5,-958.2 881.5,-897.2 742.5,-897.2"/>
<polygon fill="#f5f5f5" stroke="transparent" points="743,-934.7 743,-957.7 882,-957.7 882,-934.7 743,-934.7"/>
<polygon fill="none" stroke="#000000" points="743,-934.7 743,-957.7 882,-957.7 882,-934.7 743,-934.7"/>
<text text-anchor="start" x="748" y="-943.3" font-family="Helvetica,sans-Serif" font-weight="bold" font-size="11.00" fill="#000000">accrual_events</text>
<text text-anchor="start" x="847.5219" y="-942.8" font-family="Helvetica,sans-Serif" font-size="11.00" fill="#000000">[table]</text>
<polygon fill="none" stroke="#000000" points="743,-915.7 743,-934.7 882,-934.7 882,-915.7 743,-915.7"/>
<text text-anchor="start" x="746" y="-921.8" font-family="Helvetica,sans-Serif" font-size="11.00" fill="#000000">...</text>
<polygon fill="#ffffff" stroke="transparent" points="743,-896.7 743,-915.7 811,-915.7 811,-896.7 743,-896.7"/>
<polygon fill="none" stroke="#000000" points="743,-896.7 743,-915.7 811,-915.7 811,-896.7 743,-896.7"/>
<text text-anchor="start" x="746" y="-902.8" font-family="Helvetica,sans-Serif" font-size="11.00" fill="#000000">&lt; 2</text>
<polygon fill="#ffffff" stroke="transparent" points="811,-896.7 811,-915.7 846,-915.7 846,-896.7 811,-896.7"/>
<polygon fill="none" stroke="#000000" points="811,-896.7 811,-915.7 846,-915.7 846,-896.7 811,-896.7"/>
<text text-anchor="start" x="836.8862" y="-902.8" font-family="Helvetica,sans-Serif" font-size="11.00" fill="#000000"> &#160;</text>
<polygon fill="#ffffff" stroke="transparent" points="846,-896.7 846,-915.7 882,-915.7 882,-896.7 846,-896.7"/>
<polygon fill="none" stroke="#000000" points="846,-896.7 846,-915.7 882,-915.7 882,-896.7 846,-896.7"/>
<text text-anchor="start" x="872.8862" y="-902.8" font-family="Helvetica,sans-Serif" font-size="11.00" fill="#000000"> &#160;</text>
</a>
</g>
</g>
<!-- coupon_periods -->
<g id="node2" class="node">
<title>coupon_periods</title>
<g id="a_node2"><a xlink:href="../../tables/coupon_periods.html" xlink:title="coupon_periods" target="_top">
<polygon fill="#ffffff" stroke="transparent" points="415.5,-901.2 415.5,-962.2 560.5,-962.2 560.5,-901.2 415.5,-901.2"/>
<polygon fill="#f5f5f5" stroke="transparent" points="416,-938.7 416,-961.7 561,-961.7 561,-938.7 416,-938.7"/>
<polygon fill="none" stroke="#000000" points="416,-938.7 416,-961.7 561,-961.7 561,-938.7 416,-938.7"/>
<text text-anchor="start" x="421" y="-947.3" font-family="Helvetica,sans-Serif" font-weight="bold" font-size="11.00" fill="#000000">coupon_periods</text>
<text text-anchor="start" x="526.5219" y="-946.8" font-family="Helvetica,sans-Serif" font-size="11.00" fill="#000000">[table]</text>
<polygon fill="none" stroke="#000000" points="416,-919.7 416,-938.7 561,-938.7 561,-919.7 416,-919.7"/>
<text text-anchor="start" x="419" y="-925.8" font-family="Helvetica,sans-Serif" font-size="11.00" fill="#000000">...</text>
<polygon fill="#ffffff" stroke="transparent" points="416,-900.7 416,-919.7 482,-919.7 482,-900.7 416,-900.7"/>
<polygon fill="none" stroke="#000000" points="416,-900.7 416,-919.7 482,-919.7 482,-900.7 416,-900.7"/>
<text text-anchor="start" x="419" y="-906.8" font-family="Helvetica,sans-Serif" font-size="11.00" fill="#000000">&lt; 1</text>
<polygon fill="#ffffff" stroke="transparent" points="482,-900.7 482,-919.7 517,-919.7 517,-900.7 482,-900.7"/>
<polygon fill="none" stroke="#000000" points="482,-900.7 482,-919.7 517,-919.7 517,-900.7 482,-900.7"/>
<text text-anchor="start" x="507.8862" y="-906.8" font-family="Helvetica,sans-Serif" font-size="11.00" fill="#000000"> &#160;</text>
<polygon fill="#ffffff" stroke="transparent" points="517,-900.7 517,-919.7 561,-919.7 561,-900.7 517,-900.7"/>
<polygon fill="none" stroke="#000000" points="517,-900.7 517,-919.7 561,-919.7 561,-900.7 517,-900.7"/>
<text text-anchor="start" x="542.4053" y="-906.8" font-family="Helvetica,sans-Serif" font-size="11.00" fill="#000000">1 &gt;</text>
</a>
</g>
</g>
<!-- accrual_events&#45;&gt;coupon_periods -->
<g id="edge1" class="edge">
<title>accrual_events:w&#45;&gt;coupon_periods:e</title>
<path fill="none" stroke="#000000" d="M728.5116,-924.7449C659.3315,-925.1844 636.8516,-928.7 561,-928.7"/>
<polygon fill="#000000" stroke="#000000" points="735,-924.7249 743.0112,-928.3 739,-924.7124 743,-924.7 743,-924.7 743,-924.7 739,-924.7124 742.9888,-921.1 735,-924.7249 735,-924.7249"/>
<ellipse fill="none" stroke="#000000" cx="731.8001" cy="-924.7348" rx="3.2" ry="3.2"/>
</g>
<!-- cds_trades -->
<g id="node3" class="node">
<title>cds_trades</title>
<g id="a_node3"><a xlink:href="../../tables/cds_trades.html" xlink:title="cds_trades" target="_top">
<polygon fill="#ffffff" stroke="transparent" points="137,-284.2 137,-675.2 309,-675.2 309,-284.2 137,-284.2"/>
<polygon fill="#f5f5f5" stroke="transparent" points="137,-651.7 137,-674.7 309,-674.7 309,-651.7 137,-651.7"/>
<polygon fill="none" stroke="#000000" points="137,-651.7 137,-674.7 309,-674.7 309,-651.7 137,-651.7"/>
<text text-anchor="start" x="142" y="-660.3" font-family="Helvetica,sans-Serif" font-weight="bold" font-size="11.00" fill="#000000">cds_trades</text>
<text text-anchor="start" x="274.0437" y="-659.8" font-family="Helvetica,sans-Serif" font-size="11.00" fill="#000000">[table]</text>
<polygon fill="none" stroke="#000000" points="137,-629.7 137,-651.7 309,-651.7 309,-629.7 137,-629.7"/>
<image xlink:href="../../images/primaryKeys.png" width="11px" height="12px" preserveAspectRatio="xMinYMin meet" x="142" y="-646.7"/>
<text text-anchor="start" x="157" y="-636.8" font-family="Helvetica,sans-Serif" font-size="11.00" fill="#000000">id</text>
<polygon fill="#ffffff" stroke="transparent" points="137,-607.7 137,-629.7 309,-629.7 309,-607.7 137,-607.7"/>
<polygon fill="none" stroke="#000000" points="137,-607.7 137,-629.7 309,-629.7 309,-607.7 137,-607.7"/>
<text text-anchor="start" x="157" y="-614.8" font-family="Helvetica,sans-Serif" font-size="11.00" fill="#000000">reference_entity</text>
<polygon fill="#ffffff" stroke="transparent" points="137,-585.7 137,-607.7 309,-607.7 309,-585.7 137,-585.7"/>
<polygon fill="none" stroke="#000000" points="137,-585.7 137,-607.7 309,-607.7 309,-585.7 137,-585.7"/>
<text text-anchor="start" x="157" y="-592.8" font-family="Helvetica,sans-Serif" font-size="11.00" fill="#000000">counterparty</text>
<polygon fill="#ffffff" stroke="transparent" points="137,-563.7 137,-585.7 309,-585.7 309,-563.7 137,-563.7"/>
<polygon fill="none" stroke="#000000" points="137,-563.7 137,-585.7 309,-585.7 309,-563.7 137,-563.7"/>
<text text-anchor="start" x="157" y="-570.8" font-family="Helvetica,sans-Serif" font-size="11.00" fill="#000000">trade_date</text>
<polygon fill="#ffffff" stroke="transparent" points="137,-541.7 137,-563.7 309,-563.7 309,-541.7 137,-541.7"/>
<polygon fill="none" stroke="#000000" points="137,-541.7 137,-563.7 309,-563.7 309,-541.7 137,-541.7"/>
<text text-anchor="start" x="157" y="-548.8" font-family="Helvetica,sans-Serif" font-size="11.00" fill="#000000">created_at</text>
<polygon fill="#ffffff" stroke="transparent" points="137,-519.7 137,-541.7 309,-541.7 309,-519.7 137,-519.7"/>
<polygon fill="none" stroke="#000000" points="137,-519.7 137,-541.7 309,-541.7 309,-519.7 137,-519.7"/>
<image xlink:href="../../images/foreignKeys.png" width="11px" height="12px" preserveAspectRatio="xMinYMin meet" x="142" y="-536.7"/>
<text text-anchor="start" x="157" y="-526.8" font-family="Helvetica,sans-Serif" font-size="11.00" fill="#000000">obligation_id</text>
<polygon fill="#ffffff" stroke="transparent" points="137,-497.7 137,-519.7 309,-519.7 309,-497.7 137,-497.7"/>
<polygon fill="none" stroke="#000000" points="137,-497.7 137,-519.7 309,-519.7 309,-497.7 137,-497.7"/>
<text text-anchor="start" x="157" y="-504.8" font-family="Helvetica,sans-Serif" font-size="11.00" fill="#000000">settlement_type</text>
<polygon fill="#ffffff" stroke="transparent" points="137,-475.7 137,-497.7 309,-497.7 309,-475.7 137,-475.7"/>
<polygon fill="none" stroke="#000000" points="137,-475.7 137,-497.7 309,-497.7 309,-475.7 137,-475.7"/>
<text text-anchor="start" x="157" y="-482.8" font-family="Helvetica,sans-Serif" font-size="11.00" fill="#000000">ccp_name</text>
<polygon fill="#ffffff" stroke="transparent" points="137,-453.7 137,-475.7 309,-475.7 309,-453.7 137,-453.7"/>
<polygon fill="none" stroke="#000000" points="137,-453.7 137,-475.7 309,-475.7 309,-453.7 137,-453.7"/>
<image xlink:href="../../images/foreignKeys.png" width="11px" height="12px" preserveAspectRatio="xMinYMin meet" x="142" y="-470.7"/>
<text text-anchor="start" x="157" y="-460.8" font-family="Helvetica,sans-Serif" font-size="11.00" fill="#000000">original_trade_id</text>
<polygon fill="#ffffff" stroke="transparent" points="137,-431.7 137,-453.7 309,-453.7 309,-431.7 137,-431.7"/>
<polygon fill="none" stroke="#000000" points="137,-431.7 137,-453.7 309,-453.7 309,-431.7 137,-431.7"/>
<text text-anchor="start" x="157" y="-438.8" font-family="Helvetica,sans-Serif" font-size="11.00" fill="#000000">novation_timestamp</text>
<polygon fill="#ffffff" stroke="transparent" points="137,-409.7 137,-431.7 309,-431.7 309,-409.7 137,-409.7"/>
<polygon fill="none" stroke="#000000" points="137,-409.7 137,-431.7 309,-431.7 309,-409.7 137,-409.7"/>
<text text-anchor="start" x="157" y="-416.8" font-family="Helvetica,sans-Serif" font-size="11.00" fill="#000000">novation_reference</text>
<polygon fill="#ffffff" stroke="transparent" points="137,-387.7 137,-409.7 309,-409.7 309,-387.7 137,-387.7"/>
<polygon fill="none" stroke="#000000" points="137,-387.7 137,-409.7 309,-409.7 309,-387.7 137,-387.7"/>
<text text-anchor="start" x="157" y="-394.8" font-family="Helvetica,sans-Serif" font-size="11.00" fill="#000000">uti</text>
<polygon fill="#ffffff" stroke="transparent" points="137,-365.7 137,-387.7 309,-387.7 309,-365.7 137,-365.7"/>
<polygon fill="none" stroke="#000000" points="137,-365.7 137,-387.7 309,-387.7 309,-365.7 137,-365.7"/>
<text text-anchor="start" x="157" y="-372.8" font-family="Helvetica,sans-Serif" font-size="11.00" fill="#000000">usi</text>
<polygon fill="#ffffff" stroke="transparent" points="137,-343.7 137,-365.7 309,-365.7 309,-343.7 137,-343.7"/>
<polygon fill="none" stroke="#000000" points="137,-343.7 137,-365.7 309,-365.7 309,-343.7 137,-343.7"/>
<text text-anchor="start" x="157" y="-350.8" font-family="Helvetica,sans-Serif" font-size="11.00" fill="#000000">is_cleared</text>
<polygon fill="#ffffff" stroke="transparent" points="137,-321.7 137,-343.7 309,-343.7 309,-321.7 137,-321.7"/>
<polygon fill="none" stroke="#000000" points="137,-321.7 137,-343.7 309,-343.7 309,-321.7 137,-321.7"/>
<text text-anchor="start" x="157" y="-328.8" font-family="Helvetica,sans-Serif" font-size="11.00" fill="#000000">mark_to_market_value</text>
<polygon fill="none" stroke="#000000" points="137,-302.7 137,-321.7 309,-321.7 309,-302.7 137,-302.7"/>
<text text-anchor="start" x="140" y="-308.8" font-family="Helvetica,sans-Serif" font-size="11.00" fill="#000000">...</text>
<polygon fill="#ffffff" stroke="transparent" points="137,-283.7 137,-302.7 214,-302.7 214,-283.7 137,-283.7"/>
<polygon fill="none" stroke="#000000" points="137,-283.7 137,-302.7 214,-302.7 214,-283.7 137,-283.7"/>
<text text-anchor="start" x="140" y="-289.8" font-family="Helvetica,sans-Serif" font-size="11.00" fill="#000000">&lt; 2</text>
<polygon fill="#ffffff" stroke="transparent" points="214,-283.7 214,-302.7 254,-302.7 254,-283.7 214,-283.7"/>
<polygon fill="none" stroke="#000000" points="214,-283.7 214,-302.7 254,-302.7 254,-283.7 214,-283.7"/>
<text text-anchor="start" x="244.8862" y="-289.8" font-family="Helvetica,sans-Serif" font-size="11.00" fill="#000000"> &#160;</text>
<polygon fill="#ffffff" stroke="transparent" points="254,-283.7 254,-302.7 309,-302.7 309,-283.7 254,-283.7"/>
<polygon fill="none" stroke="#000000" points="254,-283.7 254,-302.7 309,-302.7 309,-283.7 254,-283.7"/>
<text text-anchor="start" x="284.2904" y="-289.8" font-family="Helvetica,sans-Serif" font-size="11.00" fill="#000000">13 &gt;</text>
</a>
</g>
</g>
<!-- accrual_events&#45;&gt;cds_trades -->
<g id="edge2" class="edge">
<title>accrual_events:w&#45;&gt;cds_trades:e</title>
<path fill="none" stroke="#000000" d="M728.5949,-924.0939C686.5792,-920.374 673.9838,-900.472 626,-890.7 565.4722,-878.3734 395.1321,-899.874 350,-857.7 278.2865,-790.6869 407.1508,-640.7 309,-640.7"/>
<polygon fill="#000000" stroke="#000000" points="735.0071,-924.3636 742.8486,-928.2968 739.0035,-924.5318 743,-924.7 743,-924.7 743,-924.7 739.0035,-924.5318 743.1514,-921.1032 735.0071,-924.3636 735.0071,-924.3636"/>
<ellipse fill="none" stroke="#000000" cx="731.8099" cy="-924.2291" rx="3.2" ry="3.2"/>
</g>
<!-- coupon_periods&#45;&gt;cds_trades -->
<g id="edge11" class="edge">
<title>coupon_periods:w&#45;&gt;cds_trades:e</title>
<path fill="none" stroke="#000000" d="M401.5862,-927.784C377.3958,-924.3664 366.2649,-911.2777 350,-886.7 319.4148,-840.4831 364.4207,-640.7 309,-640.7"/>
<polygon fill="#000000" stroke="#000000" points="408.0161,-928.1925 415.7716,-932.2928 412.0081,-928.4463 416,-928.7 416,-928.7 416,-928.7 412.0081,-928.4463 416.2284,-925.1072 408.0161,-928.1925 408.0161,-928.1925"/>
<ellipse fill="none" stroke="#000000" cx="404.8225" cy="-927.9896" rx="3.2" ry="3.2"/>
</g>
<!-- bonds -->
<g id="node8" class="node">
<title>bonds</title>
<g id="a_node8"><a xlink:href="../../tables/bonds.html" xlink:title="bonds" target="_top">
<polygon fill="#ffffff" stroke="transparent" points="8,-503.2 8,-564.2 88,-564.2 88,-503.2 8,-503.2"/>
<polygon fill="#f5f5f5" stroke="transparent" points="8,-540.7 8,-563.7 88,-563.7 88,-540.7 8,-540.7"/>
<polygon fill="none" stroke="#000000" points="8,-540.7 8,-563.7 88,-563.7 88,-540.7 8,-540.7"/>
<text text-anchor="start" x="13" y="-549.3" font-family="Helvetica,sans-Serif" font-weight="bold" font-size="11.00" fill="#000000">bonds</text>
<text text-anchor="start" x="53.5219" y="-548.8" font-family="Helvetica,sans-Serif" font-size="11.00" fill="#000000">[table]</text>
<polygon fill="none" stroke="#000000" points="8,-521.7 8,-540.7 88,-540.7 88,-521.7 8,-521.7"/>
<text text-anchor="start" x="11" y="-527.8" font-family="Helvetica,sans-Serif" font-size="11.00" fill="#000000">...</text>
<polygon fill="#ffffff" stroke="transparent" points="8,-502.7 8,-521.7 37,-521.7 37,-502.7 8,-502.7"/>
<polygon fill="none" stroke="#000000" points="8,-502.7 8,-521.7 37,-521.7 37,-502.7 8,-502.7"/>
<text text-anchor="start" x="11" y="-508.8" font-family="Helvetica,sans-Serif" font-size="11.00" fill="#000000"> &#160;</text>
<polygon fill="#ffffff" stroke="transparent" points="37,-502.7 37,-521.7 58,-521.7 58,-502.7 37,-502.7"/>
<polygon fill="none" stroke="#000000" points="37,-502.7 37,-521.7 58,-521.7 58,-502.7 37,-502.7"/>
<text text-anchor="start" x="48.8862" y="-508.8" font-family="Helvetica,sans-Serif" font-size="11.00" fill="#000000"> &#160;</text>
<polygon fill="#ffffff" stroke="transparent" points="58,-502.7 58,-521.7 88,-521.7 88,-502.7 58,-502.7"/>
<polygon fill="none" stroke="#000000" points="58,-502.7 58,-521.7 88,-521.7 88,-502.7 58,-502.7"/>
<text text-anchor="start" x="69.4053" y="-508.8" font-family="Helvetica,sans-Serif" font-size="11.00" fill="#000000">2 &gt;</text>
</a>
</g>
</g>
<!-- cds_trades&#45;&gt;bonds -->
<g id="edge9" class="edge">
<title>cds_trades:w&#45;&gt;bonds:e</title>
<path fill="none" stroke="#000000" d="M122.4909,-530.7C111.1774,-530.7 103.9931,-530.7 88,-530.7"/>
<polygon fill="#000000" stroke="#000000" points="129,-530.7001 137,-534.3 133,-530.7 137,-530.7 137,-530.7 137,-530.7 133,-530.7 137,-527.1 129,-530.7001 129,-530.7001"/>
<ellipse fill="none" stroke="#000000" cx="125.8" cy="-530.7001" rx="3.2" ry="3.2"/>
</g>
<!-- cds_cash_settlements -->
<g id="node4" class="node">
<title>cds_cash_settlements</title>
<g id="a_node4"><a xlink:href="../../tables/cds_cash_settlements.html" xlink:title="cds_cash_settlements" target="_top">
<polygon fill="#ffffff" stroke="transparent" points="719.5,-812.2 719.5,-873.2 904.5,-873.2 904.5,-812.2 719.5,-812.2"/>
<polygon fill="#f5f5f5" stroke="transparent" points="720,-849.7 720,-872.7 905,-872.7 905,-849.7 720,-849.7"/>
<polygon fill="none" stroke="#000000" points="720,-849.7 720,-872.7 905,-872.7 905,-849.7 720,-849.7"/>
<text text-anchor="start" x="725" y="-858.3" font-family="Helvetica,sans-Serif" font-weight="bold" font-size="11.00" fill="#000000">cds_cash_settlements</text>
<text text-anchor="start" x="870.5219" y="-857.8" font-family="Helvetica,sans-Serif" font-size="11.00" fill="#000000">[table]</text>
<polygon fill="none" stroke="#000000" points="720,-830.7 720,-849.7 905,-849.7 905,-830.7 720,-830.7"/>
<text text-anchor="start" x="723" y="-836.8" font-family="Helvetica,sans-Serif" font-size="11.00" fill="#000000">...</text>
<polygon fill="#ffffff" stroke="transparent" points="720,-811.7 720,-830.7 811,-830.7 811,-811.7 720,-811.7"/>
<polygon fill="none" stroke="#000000" points="720,-811.7 720,-830.7 811,-830.7 811,-811.7 720,-811.7"/>
<text text-anchor="start" x="723" y="-817.8" font-family="Helvetica,sans-Serif" font-size="11.00" fill="#000000">&lt; 2</text>
<polygon fill="#ffffff" stroke="transparent" points="811,-811.7 811,-830.7 858,-830.7 858,-811.7 811,-811.7"/>
<polygon fill="none" stroke="#000000" points="811,-811.7 811,-830.7 858,-830.7 858,-811.7 811,-811.7"/>
<text text-anchor="start" x="848.8862" y="-817.8" font-family="Helvetica,sans-Serif" font-size="11.00" fill="#000000"> &#160;</text>
<polygon fill="#ffffff" stroke="transparent" points="858,-811.7 858,-830.7 905,-830.7 905,-811.7 858,-811.7"/>
<polygon fill="none" stroke="#000000" points="858,-811.7 858,-830.7 905,-830.7 905,-811.7 858,-811.7"/>
<text text-anchor="start" x="895.8862" y="-817.8" font-family="Helvetica,sans-Serif" font-size="11.00" fill="#000000"> &#160;</text>
</a>
</g>
</g>
<!-- cds_cash_settlements&#45;&gt;cds_trades -->
<g id="edge4" class="edge">
<title>cds_cash_settlements:w&#45;&gt;cds_trades:e</title>
<path fill="none" stroke="#000000" d="M705.5686,-840.0938C614.1515,-844.5842 410.1503,-885.0601 350,-835.7 281.5388,-779.5198 397.5616,-640.7 309,-640.7"/>
<polygon fill="#000000" stroke="#000000" points="712.003,-839.9183 720.0982,-843.2987 716.0015,-839.8091 720,-839.7 720,-839.7 720,-839.7 716.0015,-839.8091 719.9018,-836.1013 712.003,-839.9183 712.003,-839.9183"/>
<ellipse fill="none" stroke="#000000" cx="708.8042" cy="-840.0056" rx="3.2" ry="3.2"/>
</g>
<!-- cds_credit_events -->
<g id="node5" class="node">
<title>cds_credit_events</title>
<g id="a_node5"><a xlink:href="../../tables/cds_credit_events.html" xlink:title="cds_credit_events" target="_top">
<polygon fill="#ffffff" stroke="transparent" points="409,-764.2 409,-825.2 567,-825.2 567,-764.2 409,-764.2"/>
<polygon fill="#f5f5f5" stroke="transparent" points="409,-801.7 409,-824.7 567,-824.7 567,-801.7 409,-801.7"/>
<polygon fill="none" stroke="#000000" points="409,-801.7 409,-824.7 567,-824.7 567,-801.7 409,-801.7"/>
<text text-anchor="start" x="414" y="-810.3" font-family="Helvetica,sans-Serif" font-weight="bold" font-size="11.00" fill="#000000">cds_credit_events</text>
<text text-anchor="start" x="532.5219" y="-809.8" font-family="Helvetica,sans-Serif" font-size="11.00" fill="#000000">[table]</text>
<polygon fill="none" stroke="#000000" points="409,-782.7 409,-801.7 567,-801.7 567,-782.7 409,-782.7"/>
<text text-anchor="start" x="412" y="-788.8" font-family="Helvetica,sans-Serif" font-size="11.00" fill="#000000">...</text>
<polygon fill="#ffffff" stroke="transparent" points="409,-763.7 409,-782.7 482,-782.7 482,-763.7 409,-763.7"/>
<polygon fill="none" stroke="#000000" points="409,-763.7 409,-782.7 482,-782.7 482,-763.7 409,-763.7"/>
<text text-anchor="start" x="412" y="-769.8" font-family="Helvetica,sans-Serif" font-size="11.00" fill="#000000">&lt; 1</text>
<polygon fill="#ffffff" stroke="transparent" points="482,-763.7 482,-782.7 520,-782.7 520,-763.7 482,-763.7"/>
<polygon fill="none" stroke="#000000" points="482,-763.7 482,-782.7 520,-782.7 520,-763.7 482,-763.7"/>
<text text-anchor="start" x="510.8862" y="-769.8" font-family="Helvetica,sans-Serif" font-size="11.00" fill="#000000"> &#160;</text>
<polygon fill="#ffffff" stroke="transparent" points="520,-763.7 520,-782.7 567,-782.7 567,-763.7 520,-763.7"/>
<polygon fill="none" stroke="#000000" points="520,-763.7 520,-782.7 567,-782.7 567,-763.7 520,-763.7"/>
<text text-anchor="start" x="548.4053" y="-769.8" font-family="Helvetica,sans-Serif" font-size="11.00" fill="#000000">2 &gt;</text>
</a>
</g>
</g>
<!-- cds_cash_settlements&#45;&gt;cds_credit_events -->
<g id="edge3" class="edge">
<title>cds_cash_settlements:w&#45;&gt;cds_credit_events:e</title>
<path fill="none" stroke="#000000" d="M709.5972,-839.3412C647.5125,-834.9488 634.6488,-791.7 567,-791.7"/>
<polygon fill="#000000" stroke="#000000" points="719.3384,-835.6748 719.0626,-843.67 717.4635,-843.6149 717.7393,-835.6196 719.3384,-835.6748"/>
<polyline fill="none" stroke="#000000" points="720,-839.7 716.0024,-839.5621 "/>
<ellipse fill="none" stroke="#000000" cx="712.8043" cy="-839.4518" rx="3.2" ry="3.2"/>
</g>
<!-- cds_credit_events&#45;&gt;cds_trades -->
<g id="edge5" class="edge">
<title>cds_credit_events:w&#45;&gt;cds_trades:e</title>
<path fill="none" stroke="#000000" d="M394.4293,-790.2764C373.9762,-785.7644 366.2578,-770.8234 350,-749.7 318.4315,-708.6837 360.7582,-640.7 309,-640.7"/>
<polygon fill="#000000" stroke="#000000" points="401.0379,-790.922 408.6499,-795.2829 405.019,-791.311 409,-791.7 409,-791.7 409,-791.7 405.019,-791.311 409.3501,-788.1171 401.0379,-790.922 401.0379,-790.922"/>
<ellipse fill="none" stroke="#000000" cx="397.8531" cy="-790.6108" rx="3.2" ry="3.2"/>
</g>
<!-- cds_physical_settlement_instructions -->
<g id="node6" class="node">
<title>cds_physical_settlement_instructions</title>
<g id="a_node6"><a xlink:href="../../tables/cds_physical_settlement_instructions.html" xlink:title="cds_physical_settlement_instructions" target="_top">
<polygon fill="#ffffff" stroke="transparent" points="667,-724.2 667,-785.2 957,-785.2 957,-724.2 667,-724.2"/>
<polygon fill="#f5f5f5" stroke="transparent" points="667,-761.7 667,-784.7 957,-784.7 957,-761.7 667,-761.7"/>
<polygon fill="none" stroke="#000000" points="667,-761.7 667,-784.7 957,-784.7 957,-761.7 667,-761.7"/>
<text text-anchor="start" x="672" y="-770.3" font-family="Helvetica,sans-Serif" font-weight="bold" font-size="11.00" fill="#000000">cds_physical_settlement_instructions</text>
<text text-anchor="start" x="922.5219" y="-769.8" font-family="Helvetica,sans-Serif" font-size="11.00" fill="#000000">[table]</text>
<polygon fill="none" stroke="#000000" points="667,-742.7 667,-761.7 957,-761.7 957,-742.7 667,-742.7"/>
<text text-anchor="start" x="670" y="-748.8" font-family="Helvetica,sans-Serif" font-size="11.00" fill="#000000">...</text>
<polygon fill="#ffffff" stroke="transparent" points="667,-723.7 667,-742.7 810,-742.7 810,-723.7 667,-723.7"/>
<polygon fill="none" stroke="#000000" points="667,-723.7 667,-742.7 810,-742.7 810,-723.7 667,-723.7"/>
<text text-anchor="start" x="670" y="-729.8" font-family="Helvetica,sans-Serif" font-size="11.00" fill="#000000">&lt; 2</text>
<polygon fill="#ffffff" stroke="transparent" points="810,-723.7 810,-742.7 883,-742.7 883,-723.7 810,-723.7"/>
<polygon fill="none" stroke="#000000" points="810,-723.7 810,-742.7 883,-742.7 883,-723.7 810,-723.7"/>
<text text-anchor="start" x="873.8862" y="-729.8" font-family="Helvetica,sans-Serif" font-size="11.00" fill="#000000"> &#160;</text>
<polygon fill="#ffffff" stroke="transparent" points="883,-723.7 883,-742.7 957,-742.7 957,-723.7 883,-723.7"/>
<polygon fill="none" stroke="#000000" points="883,-723.7 883,-742.7 957,-742.7 957,-723.7 883,-723.7"/>
<text text-anchor="start" x="947.8862" y="-729.8" font-family="Helvetica,sans-Serif" font-size="11.00" fill="#000000"> &#160;</text>
</a>
</g>
</g>
<!-- cds_physical_settlement_instructions&#45;&gt;cds_trades -->
<g id="edge7" class="edge">
<title>cds_physical_settlement_instructions:w&#45;&gt;cds_trades:e</title>
<path fill="none" stroke="#000000" d="M652.5349,-751.5489C588.0873,-750.5091 376.5181,-743.9044 350,-725.7 315.421,-701.9619 350.9429,-640.7 309,-640.7"/>
<polygon fill="#000000" stroke="#000000" points="659.0004,-751.6164 666.9624,-755.2998 663.0002,-751.6582 667,-751.7 667,-751.7 667,-751.7 663.0002,-751.6582 667.0376,-748.1002 659.0004,-751.6164 659.0004,-751.6164"/>
<ellipse fill="none" stroke="#000000" cx="655.8006" cy="-751.583" rx="3.2" ry="3.2"/>
</g>
<!-- cds_physical_settlement_instructions&#45;&gt;cds_credit_events -->
<g id="edge6" class="edge">
<title>cds_physical_settlement_instructions:w&#45;&gt;cds_credit_events:e</title>
<path fill="none" stroke="#000000" d="M656.5377,-752.3943C618.1995,-757.7059 611.1284,-791.7 567,-791.7"/>
<polygon fill="#000000" stroke="#000000" points="665.9369,-747.7618 666.4666,-755.7442 664.8702,-755.8502 664.3404,-747.8677 665.9369,-747.7618"/>
<polyline fill="none" stroke="#000000" points="667,-751.7 663.0088,-751.9649 "/>
<ellipse fill="none" stroke="#000000" cx="659.8158" cy="-752.1768" rx="3.2" ry="3.2"/>
</g>
<!-- cds_portfolio_constituents -->
<g id="node7" class="node">
<title>cds_portfolio_constituents</title>
<g id="a_node7"><a xlink:href="../../tables/cds_portfolio_constituents.html" xlink:title="cds_portfolio_constituents" target="_top">
<polygon fill="#ffffff" stroke="transparent" points="379.5,-654.2 379.5,-715.2 596.5,-715.2 596.5,-654.2 379.5,-654.2"/>
<polygon fill="#f5f5f5" stroke="transparent" points="380,-691.7 380,-714.7 597,-714.7 597,-691.7 380,-691.7"/>
<polygon fill="none" stroke="#000000" points="380,-691.7 380,-714.7 597,-714.7 597,-691.7 380,-691.7"/>
<text text-anchor="start" x="385" y="-700.3" font-family="Helvetica,sans-Serif" font-weight="bold" font-size="11.00" fill="#000000">cds_portfolio_constituents</text>
<text text-anchor="start" x="562.5219" y="-699.8" font-family="Helvetica,sans-Serif" font-size="11.00" fill="#000000">[table]</text>
<polygon fill="none" stroke="#000000" points="380,-672.7 380,-691.7 597,-691.7 597,-672.7 380,-672.7"/>
<text text-anchor="start" x="383" y="-678.8" font-family="Helvetica,sans-Serif" font-size="11.00" fill="#000000">...</text>
<polygon fill="#ffffff" stroke="transparent" points="380,-653.7 380,-672.7 487,-672.7 487,-653.7 380,-653.7"/>
<polygon fill="none" stroke="#000000" points="380,-653.7 380,-672.7 487,-672.7 487,-653.7 380,-653.7"/>
<text text-anchor="start" x="383" y="-659.8" font-family="Helvetica,sans-Serif" font-size="11.00" fill="#000000">&lt; 2</text>
<polygon fill="#ffffff" stroke="transparent" points="487,-653.7 487,-672.7 542,-672.7 542,-653.7 487,-653.7"/>
<polygon fill="none" stroke="#000000" points="487,-653.7 487,-672.7 542,-672.7 542,-653.7 487,-653.7"/>
<text text-anchor="start" x="532.8862" y="-659.8" font-family="Helvetica,sans-Serif" font-size="11.00" fill="#000000"> &#160;</text>
<polygon fill="#ffffff" stroke="transparent" points="542,-653.7 542,-672.7 597,-672.7 597,-653.7 542,-653.7"/>
<polygon fill="none" stroke="#000000" points="542,-653.7 542,-672.7 597,-672.7 597,-653.7 542,-653.7"/>
<text text-anchor="start" x="587.8862" y="-659.8" font-family="Helvetica,sans-Serif" font-size="11.00" fill="#000000"> &#160;</text>
</a>
</g>
</g>
<!-- cds_portfolio_constituents&#45;&gt;cds_trades -->
<g id="edge8" class="edge">
<title>cds_portfolio_constituents:w&#45;&gt;cds_trades:e</title>
<path fill="none" stroke="#000000" d="M365.7431,-679.1353C343.2439,-670.1594 339.8878,-640.7 309,-640.7"/>
<polygon fill="#000000" stroke="#000000" points="372.1264,-680.2835 379.3626,-685.2431 376.0632,-680.9918 380,-681.7 380,-681.7 380,-681.7 376.0632,-680.9918 380.6374,-678.1569 372.1264,-680.2835 372.1264,-680.2835"/>
<ellipse fill="none" stroke="#000000" cx="368.9769" cy="-679.7169" rx="3.2" ry="3.2"/>
</g>
<!-- compression_proposal_items -->
<g id="node9" class="node">
<title>compression_proposal_items</title>
<g id="a_node9"><a xlink:href="../../tables/compression_proposal_items.html" xlink:title="compression_proposal_items" target="_top">
<polygon fill="#ffffff" stroke="transparent" points="371.5,-572.2 371.5,-633.2 604.5,-633.2 604.5,-572.2 371.5,-572.2"/>
<polygon fill="#f5f5f5" stroke="transparent" points="372,-609.7 372,-632.7 605,-632.7 605,-609.7 372,-609.7"/>
<polygon fill="none" stroke="#000000" points="372,-609.7 372,-632.7 605,-632.7 605,-609.7 372,-609.7"/>
<text text-anchor="start" x="377" y="-618.3" font-family="Helvetica,sans-Serif" font-weight="bold" font-size="11.00" fill="#000000">compression_proposal_items</text>
<text text-anchor="start" x="570.5219" y="-617.8" font-family="Helvetica,sans-Serif" font-size="11.00" fill="#000000">[table]</text>
<polygon fill="none" stroke="#000000" points="372,-590.7 372,-609.7 605,-609.7 605,-590.7 372,-590.7"/>
<text text-anchor="start" x="375" y="-596.8" font-family="Helvetica,sans-Serif" font-size="11.00" fill="#000000">...</text>
<polygon fill="#ffffff" stroke="transparent" points="372,-571.7 372,-590.7 487,-590.7 487,-571.7 372,-571.7"/>
<polygon fill="none" stroke="#000000" points="372,-571.7 372,-590.7 487,-590.7 487,-571.7 372,-571.7"/>
<text text-anchor="start" x="375" y="-577.8" font-family="Helvetica,sans-Serif" font-size="11.00" fill="#000000">&lt; 2</text>
<polygon fill="#ffffff" stroke="transparent" points="487,-571.7 487,-590.7 546,-590.7 546,-571.7 487,-571.7"/>
<polygon fill="none" stroke="#000000" points="487,-571.7 487,-590.7 546,-590.7 546,-571.7 487,-571.7"/>
<text text-anchor="start" x="536.8862" y="-577.8" font-family="Helvetica,sans-Serif" font-size="11.00" fill="#000000"> &#160;</text>
<polygon fill="#ffffff" stroke="transparent" points="546,-571.7 546,-590.7 605,-590.7 605,-571.7 546,-571.7"/>
<polygon fill="none" stroke="#000000" points="546,-571.7 546,-590.7 605,-590.7 605,-571.7 546,-571.7"/>
<text text-anchor="start" x="595.8862" y="-577.8" font-family="Helvetica,sans-Serif" font-size="11.00" fill="#000000"> &#160;</text>
</a>
</g>
</g>
<!-- compression_proposal_items&#45;&gt;cds_trades -->
<g id="edge10" class="edge">
<title>compression_proposal_items:w&#45;&gt;cds_trades:e</title>
<path fill="none" stroke="#000000" d="M357.6951,-602.9172C338.8044,-612.5826 336.6654,-640.7 309,-640.7"/>
<polygon fill="#000000" stroke="#000000" points="364.195,-601.4554 372.7899,-603.2123 368.0975,-600.5777 372,-599.7 372,-599.7 372,-599.7 368.0975,-600.5777 371.2101,-596.1877 364.195,-601.4554 364.195,-601.4554"/>
<ellipse fill="none" stroke="#000000" cx="361.0729" cy="-602.1576" rx="3.2" ry="3.2"/>
</g>
<!-- notional_adjustments -->
<g id="node10" class="node">
<title>notional_adjustments</title>
<g id="a_node10"><a xlink:href="../../tables/notional_adjustments.html" xlink:title="notional_adjustments" target="_top">
<polygon fill="#ffffff" stroke="transparent" points="358,-284.7 358,-550.7 618,-550.7 618,-284.7 358,-284.7"/>
<polygon fill="#f5f5f5" stroke="transparent" points="360,-525.7 360,-548.7 616,-548.7 616,-525.7 360,-525.7"/>
<polygon fill="none" stroke="#000000" points="360,-525.7 360,-548.7 616,-548.7 616,-525.7 360,-525.7"/>
<text text-anchor="start" x="365" y="-534.3" font-family="Helvetica,sans-Serif" font-weight="bold" font-size="11.00" fill="#000000">notional_adjustments</text>
<text text-anchor="start" x="581.0437" y="-533.8" font-family="Helvetica,sans-Serif" font-size="11.00" fill="#000000">[table]</text>
<polygon fill="none" stroke="#000000" points="360,-503.7 360,-525.7 526,-525.7 526,-503.7 360,-503.7"/>
<image xlink:href="../../images/primaryKeys.png" width="11px" height="12px" preserveAspectRatio="xMinYMin meet" x="365" y="-520.7"/>
<text text-anchor="start" x="380" y="-510.8" font-family="Helvetica,sans-Serif" font-size="11.00" fill="#000000">id</text>
<polygon fill="none" stroke="#000000" points="526,-503.7 526,-525.7 616,-525.7 616,-503.7 526,-503.7"/>
<text text-anchor="start" x="529" y="-511.4" font-family="Helvetica,sans-Serif" font-size="11.00" fill="#000000">bigserial[19]</text>
<polygon fill="#ffffff" stroke="transparent" points="360,-481.7 360,-503.7 526,-503.7 526,-481.7 360,-481.7"/>
<polygon fill="none" stroke="#000000" points="360,-481.7 360,-503.7 526,-503.7 526,-481.7 360,-481.7"/>
<image xlink:href="../../images/foreignKeys.png" width="11px" height="12px" preserveAspectRatio="xMinYMin meet" x="365" y="-498.7"/>
<text text-anchor="start" x="380" y="-488.8" font-family="Helvetica,sans-Serif" font-size="11.00" fill="#000000">trade_id</text>
<polygon fill="none" stroke="#000000" points="526,-481.7 526,-503.7 616,-503.7 616,-481.7 526,-481.7"/>
<text text-anchor="start" x="529" y="-489.4" font-family="Helvetica,sans-Serif" font-size="11.00" fill="#000000">int8[19]</text>
<polygon fill="#ffffff" stroke="transparent" points="360,-459.7 360,-481.7 526,-481.7 526,-459.7 360,-459.7"/>
<polygon fill="none" stroke="#000000" points="360,-459.7 360,-481.7 526,-481.7 526,-459.7 360,-459.7"/>
<text text-anchor="start" x="380" y="-466.8" font-family="Helvetica,sans-Serif" font-size="11.00" fill="#000000">adjustment_date</text>
<polygon fill="none" stroke="#000000" points="526,-459.7 526,-481.7 616,-481.7 616,-459.7 526,-459.7"/>
<text text-anchor="start" x="529" y="-467.4" font-family="Helvetica,sans-Serif" font-size="11.00" fill="#000000">date[13]</text>
<polygon fill="none" stroke="#000000" points="360,-437.7 360,-459.7 526,-459.7 526,-437.7 360,-437.7"/>
<text text-anchor="start" x="380" y="-444.8" font-family="Helvetica,sans-Serif" font-size="11.00" fill="#000000">adjustment_type</text>
<polygon fill="none" stroke="#000000" points="526,-437.7 526,-459.7 616,-459.7 616,-437.7 526,-437.7"/>
<text text-anchor="start" x="529" y="-445.4" font-family="Helvetica,sans-Serif" font-size="11.00" fill="#000000">varchar[30]</text>
<polygon fill="none" stroke="#000000" points="360,-415.7 360,-437.7 526,-437.7 526,-415.7 360,-415.7"/>
<text text-anchor="start" x="380" y="-422.8" font-family="Helvetica,sans-Serif" font-size="11.00" fill="#000000">original_notional</text>
<polygon fill="none" stroke="#000000" points="526,-415.7 526,-437.7 616,-437.7 616,-415.7 526,-415.7"/>
<text text-anchor="start" x="529" y="-423.4" font-family="Helvetica,sans-Serif" font-size="11.00" fill="#000000">numeric[15,2]</text>
<polygon fill="none" stroke="#000000" points="360,-393.7 360,-415.7 526,-415.7 526,-393.7 360,-393.7"/>
<text text-anchor="start" x="380" y="-400.8" font-family="Helvetica,sans-Serif" font-size="11.00" fill="#000000">adjustment_amount</text>
<polygon fill="none" stroke="#000000" points="526,-393.7 526,-415.7 616,-415.7 616,-393.7 526,-393.7"/>
<text text-anchor="start" x="529" y="-401.4" font-family="Helvetica,sans-Serif" font-size="11.00" fill="#000000">numeric[15,2]</text>
<polygon fill="none" stroke="#000000" points="360,-371.7 360,-393.7 526,-393.7 526,-371.7 360,-371.7"/>
<text text-anchor="start" x="380" y="-378.8" font-family="Helvetica,sans-Serif" font-size="11.00" fill="#000000">remaining_notional</text>
<polygon fill="none" stroke="#000000" points="526,-371.7 526,-393.7 616,-393.7 616,-371.7 526,-371.7"/>
<text text-anchor="start" x="529" y="-379.4" font-family="Helvetica,sans-Serif" font-size="11.00" fill="#000000">numeric[15,2]</text>
<polygon fill="none" stroke="#000000" points="360,-349.7 360,-371.7 526,-371.7 526,-349.7 360,-349.7"/>
<text text-anchor="start" x="380" y="-356.8" font-family="Helvetica,sans-Serif" font-size="11.00" fill="#000000">unwind_cash_amount</text>
<polygon fill="none" stroke="#000000" points="526,-349.7 526,-371.7 616,-371.7 616,-349.7 526,-349.7"/>
<text text-anchor="start" x="529" y="-357.4" font-family="Helvetica,sans-Serif" font-size="11.00" fill="#000000">numeric[15,2]</text>
<polygon fill="none" stroke="#000000" points="360,-327.7 360,-349.7 526,-349.7 526,-327.7 360,-327.7"/>
<text text-anchor="start" x="380" y="-334.8" font-family="Helvetica,sans-Serif" font-size="11.00" fill="#000000">adjustment_reason</text>
<polygon fill="none" stroke="#000000" points="526,-327.7 526,-349.7 616,-349.7 616,-327.7 526,-327.7"/>
<text text-anchor="start" x="528.5043" y="-335.4" font-family="Helvetica,sans-Serif" font-size="11.00" fill="#000000">text[2147483647]</text>
<polygon fill="none" stroke="#000000" points="360,-305.7 360,-327.7 526,-327.7 526,-305.7 360,-305.7"/>
<text text-anchor="start" x="380" y="-312.8" font-family="Helvetica,sans-Serif" font-size="11.00" fill="#000000">created_at</text>
<polygon fill="none" stroke="#000000" points="526,-305.7 526,-327.7 616,-327.7 616,-305.7 526,-305.7"/>
<text text-anchor="start" x="529" y="-313.4" font-family="Helvetica,sans-Serif" font-size="11.00" fill="#000000">timestamp[29,6]</text>
<polygon fill="#ffffff" stroke="transparent" points="360,-286.7 360,-305.7 447,-305.7 447,-286.7 360,-286.7"/>
<polygon fill="none" stroke="#000000" points="360,-286.7 360,-305.7 447,-305.7 447,-286.7 360,-286.7"/>
<text text-anchor="start" x="363" y="-292.8" font-family="Helvetica,sans-Serif" font-size="11.00" fill="#000000">&lt; 1</text>
<polygon fill="#ffffff" stroke="transparent" points="447,-286.7 447,-305.7 526,-305.7 526,-286.7 447,-286.7"/>
<polygon fill="none" stroke="#000000" points="447,-286.7 447,-305.7 526,-305.7 526,-286.7 447,-286.7"/>
<text text-anchor="start" x="516.8862" y="-292.8" font-family="Helvetica,sans-Serif" font-size="11.00" fill="#000000"> &#160;</text>
<polygon fill="#ffffff" stroke="transparent" points="526,-286.7 526,-305.7 616,-305.7 616,-286.7 526,-286.7"/>
<polygon fill="none" stroke="#000000" points="526,-286.7 526,-305.7 616,-305.7 616,-286.7 526,-286.7"/>
<text text-anchor="start" x="597.4053" y="-292.8" font-family="Helvetica,sans-Serif" font-size="11.00" fill="#000000">0 &gt;</text>
<polygon fill="none" stroke="#000000" stroke-width="2" points="359,-285.7 359,-549.7 617,-549.7 617,-285.7 359,-285.7"/>
</a>
</g>
</g>
<!-- notional_adjustments&#45;&gt;cds_trades -->
<g id="edge12" class="edge">
<title>notional_adjustments:w&#45;&gt;cds_trades:e</title>
<path fill="none" stroke="#000000" d="M345.6212,-495.6564C304.1199,-516.5155 372.7306,-640.7 309,-640.7"/>
<polygon fill="#000000" stroke="#000000" points="352.1639,-494.3112 360.725,-496.2262 356.082,-493.5056 360,-492.7 360,-492.7 360,-492.7 356.082,-493.5056 359.275,-489.1738 352.1639,-494.3112 352.1639,-494.3112"/>
<ellipse fill="none" stroke="#000000" cx="349.0295" cy="-494.9557" rx="3.2" ry="3.2"/>
</g>
<!-- sa_ccr_trade_mappings -->
<g id="node11" class="node">
<title>sa_ccr_trade_mappings</title>
<g id="a_node11"><a xlink:href="../../tables/sa_ccr_trade_mappings.html" xlink:title="sa_ccr_trade_mappings" target="_top">
<polygon fill="#ffffff" stroke="transparent" points="390.5,-202.2 390.5,-263.2 585.5,-263.2 585.5,-202.2 390.5,-202.2"/>
<polygon fill="#f5f5f5" stroke="transparent" points="391,-239.7 391,-262.7 586,-262.7 586,-239.7 391,-239.7"/>
<polygon fill="none" stroke="#000000" points="391,-239.7 391,-262.7 586,-262.7 586,-239.7 391,-239.7"/>
<text text-anchor="start" x="396" y="-248.3" font-family="Helvetica,sans-Serif" font-weight="bold" font-size="11.00" fill="#000000">sa_ccr_trade_mappings</text>
<text text-anchor="start" x="551.5219" y="-247.8" font-family="Helvetica,sans-Serif" font-size="11.00" fill="#000000">[table]</text>
<polygon fill="none" stroke="#000000" points="391,-220.7 391,-239.7 586,-239.7 586,-220.7 391,-220.7"/>
<text text-anchor="start" x="394" y="-226.8" font-family="Helvetica,sans-Serif" font-size="11.00" fill="#000000">...</text>
<polygon fill="#ffffff" stroke="transparent" points="391,-201.7 391,-220.7 487,-220.7 487,-201.7 391,-201.7"/>
<polygon fill="none" stroke="#000000" points="391,-201.7 391,-220.7 487,-220.7 487,-201.7 391,-201.7"/>
<text text-anchor="start" x="394" y="-207.8" font-family="Helvetica,sans-Serif" font-size="11.00" fill="#000000">&lt; 3</text>
<polygon fill="#ffffff" stroke="transparent" points="487,-201.7 487,-220.7 536,-220.7 536,-201.7 487,-201.7"/>
<polygon fill="none" stroke="#000000" points="487,-201.7 487,-220.7 536,-220.7 536,-201.7 487,-201.7"/>
<text text-anchor="start" x="526.8862" y="-207.8" font-family="Helvetica,sans-Serif" font-size="11.00" fill="#000000"> &#160;</text>
<polygon fill="#ffffff" stroke="transparent" points="536,-201.7 536,-220.7 586,-220.7 586,-201.7 536,-201.7"/>
<polygon fill="none" stroke="#000000" points="536,-201.7 536,-220.7 586,-220.7 586,-201.7 536,-201.7"/>
<text text-anchor="start" x="576.8862" y="-207.8" font-family="Helvetica,sans-Serif" font-size="11.00" fill="#000000"> &#160;</text>
</a>
</g>
</g>
<!-- sa_ccr_trade_mappings&#45;&gt;cds_trades -->
<g id="edge13" class="edge">
<title>sa_ccr_trade_mappings:w&#45;&gt;cds_trades:e</title>
<path fill="none" stroke="#000000" d="M376.5178,-232.3712C362.5243,-238.5428 358.7183,-254.7245 350,-273.7 315.7391,-348.2689 391.0629,-640.7 309,-640.7"/>
<polygon fill="#000000" stroke="#000000" points="383.1327,-231.1512 391.653,-233.2403 387.0664,-230.4256 391,-229.7 391,-229.7 391,-229.7 387.0664,-230.4256 390.347,-226.1597 383.1327,-231.1512 383.1327,-231.1512"/>
<ellipse fill="none" stroke="#000000" cx="379.9858" cy="-231.7316" rx="3.2" ry="3.2"/>
</g>
<!-- trade_amendments -->
<g id="node12" class="node">
<title>trade_amendments</title>
<g id="a_node12"><a xlink:href="../../tables/trade_amendments.html" xlink:title="trade_amendments" target="_top">
<polygon fill="#ffffff" stroke="transparent" points="403.5,-120.2 403.5,-181.2 572.5,-181.2 572.5,-120.2 403.5,-120.2"/>
<polygon fill="#f5f5f5" stroke="transparent" points="404,-157.7 404,-180.7 573,-180.7 573,-157.7 404,-157.7"/>
<polygon fill="none" stroke="#000000" points="404,-157.7 404,-180.7 573,-180.7 573,-157.7 404,-157.7"/>
<text text-anchor="start" x="409" y="-166.3" font-family="Helvetica,sans-Serif" font-weight="bold" font-size="11.00" fill="#000000">trade_amendments</text>
<text text-anchor="start" x="538.5219" y="-165.8" font-family="Helvetica,sans-Serif" font-size="11.00" fill="#000000">[table]</text>
<polygon fill="none" stroke="#000000" points="404,-138.7 404,-157.7 573,-157.7 573,-138.7 404,-138.7"/>
<text text-anchor="start" x="407" y="-144.8" font-family="Helvetica,sans-Serif" font-size="11.00" fill="#000000">...</text>
<polygon fill="#ffffff" stroke="transparent" points="404,-119.7 404,-138.7 487,-138.7 487,-119.7 404,-119.7"/>
<polygon fill="none" stroke="#000000" points="404,-119.7 404,-138.7 487,-138.7 487,-119.7 404,-119.7"/>
<text text-anchor="start" x="407" y="-125.8" font-family="Helvetica,sans-Serif" font-size="11.00" fill="#000000">&lt; 1</text>
<polygon fill="#ffffff" stroke="transparent" points="487,-119.7 487,-138.7 530,-138.7 530,-119.7 487,-119.7"/>
<polygon fill="none" stroke="#000000" points="487,-119.7 487,-138.7 530,-138.7 530,-119.7 487,-119.7"/>
<text text-anchor="start" x="520.8862" y="-125.8" font-family="Helvetica,sans-Serif" font-size="11.00" fill="#000000"> &#160;</text>
<polygon fill="#ffffff" stroke="transparent" points="530,-119.7 530,-138.7 573,-138.7 573,-119.7 530,-119.7"/>
<polygon fill="none" stroke="#000000" points="530,-119.7 530,-138.7 573,-138.7 573,-119.7 530,-119.7"/>
<text text-anchor="start" x="563.8862" y="-125.8" font-family="Helvetica,sans-Serif" font-size="11.00" fill="#000000"> &#160;</text>
</a>
</g>
</g>
<!-- trade_amendments&#45;&gt;cds_trades -->
<g id="edge14" class="edge">
<title>trade_amendments:w&#45;&gt;cds_trades:e</title>
<path fill="none" stroke="#000000" d="M389.6016,-149.2127C369.8675,-153.8902 361.9879,-169.1749 350,-191.7 326.4642,-235.9236 359.0965,-640.7 309,-640.7"/>
<polygon fill="#000000" stroke="#000000" points="396.0438,-148.5359 404.3762,-151.2803 400.0219,-148.118 404,-147.7 404,-147.7 404,-147.7 400.0219,-148.118 403.6238,-144.1197 396.0438,-148.5359 396.0438,-148.5359"/>
<ellipse fill="none" stroke="#000000" cx="392.8613" cy="-148.8703" rx="3.2" ry="3.2"/>
</g>
<!-- trade_novations -->
<g id="node13" class="node">
<title>trade_novations</title>
<g id="a_node13"><a xlink:href="../../tables/trade_novations.html" xlink:title="trade_novations" target="_top">
<polygon fill="#ffffff" stroke="transparent" points="414.5,-38.2 414.5,-99.2 561.5,-99.2 561.5,-38.2 414.5,-38.2"/>
<polygon fill="#f5f5f5" stroke="transparent" points="415,-75.7 415,-98.7 562,-98.7 562,-75.7 415,-75.7"/>
<polygon fill="none" stroke="#000000" points="415,-75.7 415,-98.7 562,-98.7 562,-75.7 415,-75.7"/>
<text text-anchor="start" x="420" y="-84.3" font-family="Helvetica,sans-Serif" font-weight="bold" font-size="11.00" fill="#000000">trade_novations</text>
<text text-anchor="start" x="527.5219" y="-83.8" font-family="Helvetica,sans-Serif" font-size="11.00" fill="#000000">[table]</text>
<polygon fill="none" stroke="#000000" points="415,-56.7 415,-75.7 562,-75.7 562,-56.7 415,-56.7"/>
<text text-anchor="start" x="418" y="-62.8" font-family="Helvetica,sans-Serif" font-size="11.00" fill="#000000">...</text>
<polygon fill="#ffffff" stroke="transparent" points="415,-37.7 415,-56.7 487,-56.7 487,-37.7 415,-37.7"/>
<polygon fill="none" stroke="#000000" points="415,-37.7 415,-56.7 487,-56.7 487,-37.7 415,-37.7"/>
<text text-anchor="start" x="418" y="-43.8" font-family="Helvetica,sans-Serif" font-size="11.00" fill="#000000">&lt; 2</text>
<polygon fill="#ffffff" stroke="transparent" points="487,-37.7 487,-56.7 524,-56.7 524,-37.7 487,-37.7"/>
<polygon fill="none" stroke="#000000" points="487,-37.7 487,-56.7 524,-56.7 524,-37.7 487,-37.7"/>
<text text-anchor="start" x="514.8862" y="-43.8" font-family="Helvetica,sans-Serif" font-size="11.00" fill="#000000"> &#160;</text>
<polygon fill="#ffffff" stroke="transparent" points="524,-37.7 524,-56.7 562,-56.7 562,-37.7 524,-37.7"/>
<polygon fill="none" stroke="#000000" points="524,-37.7 524,-56.7 562,-56.7 562,-37.7 524,-37.7"/>
<text text-anchor="start" x="552.8862" y="-43.8" font-family="Helvetica,sans-Serif" font-size="11.00" fill="#000000"> &#160;</text>
</a>
</g>
</g>
<!-- trade_novations&#45;&gt;cds_trades -->
<g id="edge15" class="edge">
<title>trade_novations:w&#45;&gt;cds_trades:e</title>
<path fill="none" stroke="#000000" d="M400.5125,-64.3266C376.1647,-64.2949 364.8569,-78.1324 350,-103.7 320.2691,-154.8647 368.1756,-634.7 309,-640.7"/>
<polygon fill="#000000" stroke="#000000" points="407.0357,-64.9449 414.6602,-69.2839 411.0179,-65.3225 415,-65.7 415,-65.7 415,-65.7 411.0179,-65.3225 415.3398,-62.1161 407.0357,-64.9449 407.0357,-64.9449"/>
<ellipse fill="none" stroke="#000000" cx="403.85" cy="-64.6429" rx="3.2" ry="3.2"/>
</g>
<!-- trade_novations&#45;&gt;cds_trades -->
<g id="edge16" class="edge">
<title>trade_novations:w&#45;&gt;cds_trades:e</title>
<path fill="none" stroke="#000000" d="M400.8499,-69.3002C376.2689,-77.1676 364.9254,-91.0145 350,-116.7 320.2691,-167.8647 368.1756,-647.7 309,-640.7"/>
<polygon fill="#000000" stroke="#000000" points="407.247,-67.6726 415.8877,-69.1888 411.1235,-66.6863 415,-65.7 415,-65.7 415,-65.7 411.1235,-66.6863 414.1123,-62.2112 407.247,-67.6726 407.247,-67.6726"/>
<ellipse fill="none" stroke="#000000" cx="404.1458" cy="-68.4617" rx="3.2" ry="3.2"/>
</g>
</g>
</svg>
