<?xml version="1.0" encoding="UTF-8" standalone="no"?>
<!DOCTYPE svg PUBLIC "-//W3C//DTD SVG 1.1//EN"
 "http://www.w3.org/Graphics/SVG/1.1/DTD/svg11.dtd">
<!-- Generated by graphviz version 2.40.1 (20161225.0304)
 -->
<!-- Title: oneDegreeRelationshipsDiagram Pages: 1 -->
<svg width="514pt" height="602pt"
 viewBox="0.00 0.00 514.00 602.20" xmlns="http://www.w3.org/2000/svg" xmlns:xlink="http://www.w3.org/1999/xlink">
<g id="graph0" class="graph" transform="scale(1 1) rotate(0) translate(4 598.2)">
<title>oneDegreeRelationshipsDiagram</title>
<polygon fill="#ffffff" stroke="transparent" points="-4,4 -4,-598.2 510,-598.2 510,4 -4,4"/>
<text text-anchor="middle" x="72.4936" y="-7.3" font-family="Helvetica,sans-Serif" font-size="11.00" fill="#000000">Generated by SchemaSpy</text>
<!-- portfolio_risk_cache -->
<g id="node1" class="node">
<title>portfolio_risk_cache</title>
<g id="a_node1"><a xlink:href="../../tables/portfolio_risk_cache.html" xlink:title="portfolio_risk_cache" target="_top">
<polygon fill="#ffffff" stroke="transparent" points="190,-38.2 190,-590.2 498,-590.2 498,-38.2 190,-38.2"/>
<polygon fill="#f5f5f5" stroke="transparent" points="192,-565.2 192,-588.2 496,-588.2 496,-565.2 192,-565.2"/>
<polygon fill="none" stroke="#000000" points="192,-565.2 192,-588.2 496,-588.2 496,-565.2 192,-565.2"/>
<text text-anchor="start" x="197" y="-573.8" font-family="Helvetica,sans-Serif" font-weight="bold" font-size="11.00" fill="#000000">portfolio_risk_cache</text>
<text text-anchor="start" x="461.0437" y="-573.3" font-family="Helvetica,sans-Serif" font-size="11.00" fill="#000000">[table]</text>
<polygon fill="none" stroke="#000000" points="192,-543.2 192,-565.2 397,-565.2 397,-543.2 192,-543.2"/>
<image xlink:href="../../images/primaryKeys.png" width="11px" height="12px" preserveAspectRatio="xMinYMin meet" x="197" y="-560.2"/>
<text text-anchor="start" x="212" y="-550.3" font-family="Helvetica,sans-Serif" font-size="11.00" fill="#000000">id</text>
<polygon fill="none" stroke="#000000" points="397,-543.2 397,-565.2 496,-565.2 496,-543.2 397,-543.2"/>
<text text-anchor="start" x="400" y="-550.9" font-family="Helvetica,sans-Serif" font-size="11.00" fill="#000000">bigserial[19]</text>
<polygon fill="#ffffff" stroke="transparent" points="192,-521.2 192,-543.2 397,-543.2 397,-521.2 192,-521.2"/>
<polygon fill="none" stroke="#000000" points="192,-521.2 192,-543.2 397,-543.2 397,-521.2 192,-521.2"/>
<image xlink:href="../../images/foreignKeys.png" width="11px" height="12px" preserveAspectRatio="xMinYMin meet" x="197" y="-538.2"/>
<text text-anchor="start" x="212" y="-528.3" font-family="Helvetica,sans-Serif" font-size="11.00" fill="#000000">portfolio_id</text>
<polygon fill="none" stroke="#000000" points="397,-521.2 397,-543.2 496,-543.2 496,-521.2 397,-521.2"/>
<text text-anchor="start" x="400" y="-528.9" font-family="Helvetica,sans-Serif" font-size="11.00" fill="#000000">int8[19]</text>
<polygon fill="#ffffff" stroke="transparent" points="192,-499.2 192,-521.2 397,-521.2 397,-499.2 192,-499.2"/>
<polygon fill="none" stroke="#000000" points="192,-499.2 192,-521.2 397,-521.2 397,-499.2 192,-499.2"/>
<text text-anchor="start" x="212" y="-506.3" font-family="Helvetica,sans-Serif" font-size="11.00" fill="#000000">valuation_date</text>
<polygon fill="none" stroke="#000000" points="397,-499.2 397,-521.2 496,-521.2 496,-499.2 397,-499.2"/>
<text text-anchor="start" x="400" y="-506.9" font-family="Helvetica,sans-Serif" font-size="11.00" fill="#000000">date[13]</text>
<polygon fill="none" stroke="#000000" points="192,-477.2 192,-499.2 397,-499.2 397,-477.2 192,-477.2"/>
<text text-anchor="start" x="212" y="-484.3" font-family="Helvetica,sans-Serif" font-size="11.00" fill="#000000">aggregate_pv</text>
<polygon fill="none" stroke="#000000" points="397,-477.2 397,-499.2 496,-499.2 496,-477.2 397,-477.2"/>
<text text-anchor="start" x="400" y="-484.9" font-family="Helvetica,sans-Serif" font-size="11.00" fill="#000000">numeric[18,4]</text>
<polygon fill="none" stroke="#000000" points="192,-455.2 192,-477.2 397,-477.2 397,-455.2 192,-455.2"/>
<text text-anchor="start" x="212" y="-462.3" font-family="Helvetica,sans-Serif" font-size="11.00" fill="#000000">aggregate_accrued</text>
<polygon fill="none" stroke="#000000" points="397,-455.2 397,-477.2 496,-477.2 496,-455.2 397,-455.2"/>
<text text-anchor="start" x="400" y="-462.9" font-family="Helvetica,sans-Serif" font-size="11.00" fill="#000000">numeric[18,4]</text>
<polygon fill="none" stroke="#000000" points="192,-433.2 192,-455.2 397,-455.2 397,-433.2 192,-433.2"/>
<text text-anchor="start" x="212" y="-440.3" font-family="Helvetica,sans-Serif" font-size="11.00" fill="#000000">premium_leg_pv</text>
<polygon fill="none" stroke="#000000" points="397,-433.2 397,-455.2 496,-455.2 496,-433.2 397,-433.2"/>
<text text-anchor="start" x="400" y="-440.9" font-family="Helvetica,sans-Serif" font-size="11.00" fill="#000000">numeric[18,4]</text>
<polygon fill="none" stroke="#000000" points="192,-411.2 192,-433.2 397,-433.2 397,-411.2 192,-411.2"/>
<text text-anchor="start" x="212" y="-418.3" font-family="Helvetica,sans-Serif" font-size="11.00" fill="#000000">protection_leg_pv</text>
<polygon fill="none" stroke="#000000" points="397,-411.2 397,-433.2 496,-433.2 496,-411.2 397,-411.2"/>
<text text-anchor="start" x="400" y="-418.9" font-family="Helvetica,sans-Serif" font-size="11.00" fill="#000000">numeric[18,4]</text>
<polygon fill="none" stroke="#000000" points="192,-389.2 192,-411.2 397,-411.2 397,-389.2 192,-389.2"/>
<text text-anchor="start" x="212" y="-396.3" font-family="Helvetica,sans-Serif" font-size="11.00" fill="#000000">fair_spread_bps_weighted</text>
<polygon fill="none" stroke="#000000" points="397,-389.2 397,-411.2 496,-411.2 496,-389.2 397,-389.2"/>
<text text-anchor="start" x="400" y="-396.9" font-family="Helvetica,sans-Serif" font-size="11.00" fill="#000000">numeric[10,4]</text>
<polygon fill="none" stroke="#000000" points="192,-367.2 192,-389.2 397,-389.2 397,-367.2 192,-367.2"/>
<text text-anchor="start" x="212" y="-374.3" font-family="Helvetica,sans-Serif" font-size="11.00" fill="#000000">cs01</text>
<polygon fill="none" stroke="#000000" points="397,-367.2 397,-389.2 496,-389.2 496,-367.2 397,-367.2"/>
<text text-anchor="start" x="400" y="-374.9" font-family="Helvetica,sans-Serif" font-size="11.00" fill="#000000">numeric[18,4]</text>
<polygon fill="none" stroke="#000000" points="192,-345.2 192,-367.2 397,-367.2 397,-345.2 192,-345.2"/>
<text text-anchor="start" x="212" y="-352.3" font-family="Helvetica,sans-Serif" font-size="11.00" fill="#000000">rec01</text>
<polygon fill="none" stroke="#000000" points="397,-345.2 397,-367.2 496,-367.2 496,-345.2 397,-345.2"/>
<text text-anchor="start" x="400" y="-352.9" font-family="Helvetica,sans-Serif" font-size="11.00" fill="#000000">numeric[18,4]</text>
<polygon fill="none" stroke="#000000" points="192,-323.2 192,-345.2 397,-345.2 397,-323.2 192,-323.2"/>
<text text-anchor="start" x="212" y="-330.3" font-family="Helvetica,sans-Serif" font-size="11.00" fill="#000000">jtd</text>
<polygon fill="none" stroke="#000000" points="397,-323.2 397,-345.2 496,-345.2 496,-323.2 397,-323.2"/>
<text text-anchor="start" x="400" y="-330.9" font-family="Helvetica,sans-Serif" font-size="11.00" fill="#000000">numeric[18,4]</text>
<polygon fill="none" stroke="#000000" points="192,-301.2 192,-323.2 397,-323.2 397,-301.2 192,-301.2"/>
<text text-anchor="start" x="212" y="-308.3" font-family="Helvetica,sans-Serif" font-size="11.00" fill="#000000">top_5_pct_cs01</text>
<polygon fill="none" stroke="#000000" points="397,-301.2 397,-323.2 496,-323.2 496,-301.2 397,-301.2"/>
<text text-anchor="start" x="400" y="-308.9" font-family="Helvetica,sans-Serif" font-size="11.00" fill="#000000">numeric[10,4]</text>
<polygon fill="none" stroke="#000000" points="192,-279.2 192,-301.2 397,-301.2 397,-279.2 192,-279.2"/>
<text text-anchor="start" x="212" y="-286.3" font-family="Helvetica,sans-Serif" font-size="11.00" fill="#000000">sector_breakdown</text>
<polygon fill="none" stroke="#000000" points="397,-279.2 397,-301.2 496,-301.2 496,-279.2 397,-279.2"/>
<text text-anchor="start" x="399.7258" y="-286.9" font-family="Helvetica,sans-Serif" font-size="11.00" fill="#000000">jsonb[2147483647]</text>
<polygon fill="none" stroke="#000000" points="192,-257.2 192,-279.2 397,-279.2 397,-257.2 192,-257.2"/>
<text text-anchor="start" x="212" y="-264.3" font-family="Helvetica,sans-Serif" font-size="11.00" fill="#000000">by_trade_breakdown</text>
<polygon fill="none" stroke="#000000" points="397,-257.2 397,-279.2 496,-279.2 496,-257.2 397,-257.2"/>
<text text-anchor="start" x="399.7258" y="-264.9" font-family="Helvetica,sans-Serif" font-size="11.00" fill="#000000">jsonb[2147483647]</text>
<polygon fill="none" stroke="#000000" points="192,-235.2 192,-257.2 397,-257.2 397,-235.2 192,-235.2"/>
<text text-anchor="start" x="212" y="-242.3" font-family="Helvetica,sans-Serif" font-size="11.00" fill="#000000">completeness_constituents</text>
<polygon fill="none" stroke="#000000" points="397,-235.2 397,-257.2 496,-257.2 496,-235.2 397,-235.2"/>
<text text-anchor="start" x="400" y="-242.9" font-family="Helvetica,sans-Serif" font-size="11.00" fill="#000000">int4[10]</text>
<polygon fill="none" stroke="#000000" points="192,-213.2 192,-235.2 397,-235.2 397,-213.2 192,-213.2"/>
<text text-anchor="start" x="212" y="-220.3" font-family="Helvetica,sans-Serif" font-size="11.00" fill="#000000">completeness_priced</text>
<polygon fill="none" stroke="#000000" points="397,-213.2 397,-235.2 496,-235.2 496,-213.2 397,-213.2"/>
<text text-anchor="start" x="400" y="-220.9" font-family="Helvetica,sans-Serif" font-size="11.00" fill="#000000">int4[10]</text>
<polygon fill="none" stroke="#000000" points="192,-191.2 192,-213.2 397,-213.2 397,-191.2 192,-191.2"/>
<text text-anchor="start" x="212" y="-198.3" font-family="Helvetica,sans-Serif" font-size="11.00" fill="#000000">calculated_at</text>
<polygon fill="none" stroke="#000000" points="397,-191.2 397,-213.2 496,-213.2 496,-191.2 397,-191.2"/>
<text text-anchor="start" x="400" y="-198.9" font-family="Helvetica,sans-Serif" font-size="11.00" fill="#000000">timestamp[29,6]</text>
<polygon fill="none" stroke="#000000" points="192,-169.2 192,-191.2 397,-191.2 397,-169.2 192,-169.2"/>
<text text-anchor="start" x="212" y="-176.3" font-family="Helvetica,sans-Serif" font-size="11.00" fill="#000000">total_notional</text>
<polygon fill="none" stroke="#000000" points="397,-169.2 397,-191.2 496,-191.2 496,-169.2 397,-169.2"/>
<text text-anchor="start" x="400" y="-176.9" font-family="Helvetica,sans-Serif" font-size="11.00" fill="#000000">numeric[20,4]</text>
<polygon fill="none" stroke="#000000" points="192,-147.2 192,-169.2 397,-169.2 397,-147.2 192,-147.2"/>
<text text-anchor="start" x="212" y="-154.3" font-family="Helvetica,sans-Serif" font-size="11.00" fill="#000000">upfront_premium</text>
<polygon fill="none" stroke="#000000" points="397,-147.2 397,-169.2 496,-169.2 496,-147.2 397,-147.2"/>
<text text-anchor="start" x="400" y="-154.9" font-family="Helvetica,sans-Serif" font-size="11.00" fill="#000000">numeric[18,4]</text>
<polygon fill="none" stroke="#000000" points="192,-125.2 192,-147.2 397,-147.2 397,-125.2 192,-125.2"/>
<text text-anchor="start" x="212" y="-132.3" font-family="Helvetica,sans-Serif" font-size="11.00" fill="#000000">total_paid_coupons</text>
<polygon fill="none" stroke="#000000" points="397,-125.2 397,-147.2 496,-147.2 496,-125.2 397,-125.2"/>
<text text-anchor="start" x="400" y="-132.9" font-family="Helvetica,sans-Serif" font-size="11.00" fill="#000000">numeric[18,4]</text>
<polygon fill="none" stroke="#000000" points="192,-103.2 192,-125.2 397,-125.2 397,-103.2 192,-103.2"/>
<text text-anchor="start" x="212" y="-110.3" font-family="Helvetica,sans-Serif" font-size="11.00" fill="#000000">trade_count</text>
<polygon fill="none" stroke="#000000" points="397,-103.2 397,-125.2 496,-125.2 496,-103.2 397,-103.2"/>
<text text-anchor="start" x="400" y="-110.9" font-family="Helvetica,sans-Serif" font-size="11.00" fill="#000000">int4[10]</text>
<polygon fill="none" stroke="#000000" points="192,-81.2 192,-103.2 397,-103.2 397,-81.2 192,-81.2"/>
<text text-anchor="start" x="212" y="-88.3" font-family="Helvetica,sans-Serif" font-size="11.00" fill="#000000">net_protection_bought</text>
<polygon fill="none" stroke="#000000" points="397,-81.2 397,-103.2 496,-103.2 496,-81.2 397,-81.2"/>
<text text-anchor="start" x="400" y="-88.9" font-family="Helvetica,sans-Serif" font-size="11.00" fill="#000000">numeric[20,4]</text>
<polygon fill="none" stroke="#000000" points="192,-59.2 192,-81.2 397,-81.2 397,-59.2 192,-59.2"/>
<text text-anchor="start" x="212" y="-66.3" font-family="Helvetica,sans-Serif" font-size="11.00" fill="#000000">average_maturity_years</text>
<polygon fill="none" stroke="#000000" points="397,-59.2 397,-81.2 496,-81.2 496,-59.2 397,-59.2"/>
<text text-anchor="start" x="400" y="-66.9" font-family="Helvetica,sans-Serif" font-size="11.00" fill="#000000">varchar[20]</text>
<polygon fill="#ffffff" stroke="transparent" points="192,-40.2 192,-59.2 299,-59.2 299,-40.2 192,-40.2"/>
<polygon fill="none" stroke="#000000" points="192,-40.2 192,-59.2 299,-59.2 299,-40.2 192,-40.2"/>
<text text-anchor="start" x="195" y="-46.3" font-family="Helvetica,sans-Serif" font-size="11.00" fill="#000000">&lt; 1</text>
<polygon fill="#ffffff" stroke="transparent" points="299,-40.2 299,-59.2 397,-59.2 397,-40.2 299,-40.2"/>
<polygon fill="none" stroke="#000000" points="299,-40.2 299,-59.2 397,-59.2 397,-40.2 299,-40.2"/>
<text text-anchor="start" x="387.8862" y="-46.3" font-family="Helvetica,sans-Serif" font-size="11.00" fill="#000000"> &#160;</text>
<polygon fill="#ffffff" stroke="transparent" points="397,-40.2 397,-59.2 496,-59.2 496,-40.2 397,-40.2"/>
<polygon fill="none" stroke="#000000" points="397,-40.2 397,-59.2 496,-59.2 496,-40.2 397,-40.2"/>
<text text-anchor="start" x="477.4053" y="-46.3" font-family="Helvetica,sans-Serif" font-size="11.00" fill="#000000">0 &gt;</text>
<polygon fill="none" stroke="#000000" stroke-width="2" points="191,-39.2 191,-589.2 497,-589.2 497,-39.2 191,-39.2"/>
</a>
</g>
</g>
<!-- cds_portfolios -->
<g id="node2" class="node">
<title>cds_portfolios</title>
<g id="a_node2"><a xlink:href="../../tables/cds_portfolios.html" xlink:title="cds_portfolios" target="_top">
<polygon fill="#ffffff" stroke="transparent" points="8,-483.7 8,-566.7 141,-566.7 141,-483.7 8,-483.7"/>
<polygon fill="#f5f5f5" stroke="transparent" points="8.5,-543.2 8.5,-566.2 141.5,-566.2 141.5,-543.2 8.5,-543.2"/>
<polygon fill="none" stroke="#000000" points="8.5,-543.2 8.5,-566.2 141.5,-566.2 141.5,-543.2 8.5,-543.2"/>
<text text-anchor="start" x="13.5" y="-551.8" font-family="Helvetica,sans-Serif" font-weight="bold" font-size="11.00" fill="#000000">cds_portfolios</text>
<text text-anchor="start" x="107.0219" y="-551.3" font-family="Helvetica,sans-Serif" font-size="11.00" fill="#000000">[table]</text>
<polygon fill="none" stroke="#000000" points="8.5,-521.2 8.5,-543.2 141.5,-543.2 141.5,-521.2 8.5,-521.2"/>
<image xlink:href="../../images/primaryKeys.png" width="11px" height="12px" preserveAspectRatio="xMinYMin meet" x="13.5" y="-538.2"/>
<text text-anchor="start" x="37.5" y="-528.3" font-family="Helvetica,sans-Serif" font-size="11.00" fill="#000000">id</text>
<polygon fill="none" stroke="#000000" points="8.5,-502.2 8.5,-521.2 141.5,-521.2 141.5,-502.2 8.5,-502.2"/>
<text text-anchor="start" x="11.5" y="-508.3" font-family="Helvetica,sans-Serif" font-size="11.00" fill="#000000">...</text>
<polygon fill="#ffffff" stroke="transparent" points="8.5,-483.2 8.5,-502.2 64.5,-502.2 64.5,-483.2 8.5,-483.2"/>
<polygon fill="none" stroke="#000000" points="8.5,-483.2 8.5,-502.2 64.5,-502.2 64.5,-483.2 8.5,-483.2"/>
<text text-anchor="start" x="11.5" y="-489.3" font-family="Helvetica,sans-Serif" font-size="11.00" fill="#000000"> &#160;</text>
<polygon fill="#ffffff" stroke="transparent" points="64.5,-483.2 64.5,-502.2 98.5,-502.2 98.5,-483.2 64.5,-483.2"/>
<polygon fill="none" stroke="#000000" points="64.5,-483.2 64.5,-502.2 98.5,-502.2 98.5,-483.2 64.5,-483.2"/>
<text text-anchor="start" x="89.3862" y="-489.3" font-family="Helvetica,sans-Serif" font-size="11.00" fill="#000000"> &#160;</text>
<polygon fill="#ffffff" stroke="transparent" points="98.5,-483.2 98.5,-502.2 141.5,-502.2 141.5,-483.2 98.5,-483.2"/>
<polygon fill="none" stroke="#000000" points="98.5,-483.2 98.5,-502.2 141.5,-502.2 141.5,-483.2 98.5,-483.2"/>
<text text-anchor="start" x="122.9053" y="-489.3" font-family="Helvetica,sans-Serif" font-size="11.00" fill="#000000">5 &gt;</text>
</a>
</g>
</g>
<!-- portfolio_risk_cache&#45;&gt;cds_portfolios -->
<g id="edge1" class="edge">
<title>portfolio_risk_cache:w&#45;&gt;cds_portfolios:e</title>
<path fill="none" stroke="#000000" d="M177.4203,-532.2C165.5435,-532.2 158.158,-532.2 141.5,-532.2"/>
<polygon fill="#000000" stroke="#000000" points="184,-532.2001 192,-535.8 188,-532.2 192,-532.2 192,-532.2 192,-532.2 188,-532.2 192,-528.6 184,-532.2001 184,-532.2001"/>
<ellipse fill="none" stroke="#000000" cx="180.8" cy="-532.2001" rx="3.2" ry="3.2"/>
</g>
</g>
</svg>
