<?xml version="1.0" encoding="UTF-8" standalone="no"?>
<!DOCTYPE svg PUBLIC "-//W3C//DTD SVG 1.1//EN"
 "http://www.w3.org/Graphics/SVG/1.1/DTD/svg11.dtd">
<!-- Generated by graphviz version 2.40.1 (20161225.0304)
 -->
<!-- Title: twoDegreesRelationshipsDiagram Pages: 1 -->
<svg width="514pt" height="931pt"
 viewBox="0.00 0.00 514.00 931.20" xmlns="http://www.w3.org/2000/svg" xmlns:xlink="http://www.w3.org/1999/xlink">
<g id="graph0" class="graph" transform="scale(1 1) rotate(0) translate(4 927.2)">
<title>twoDegreesRelationshipsDiagram</title>
<polygon fill="#ffffff" stroke="transparent" points="-4,4 -4,-927.2 510,-927.2 510,4 -4,4"/>
<text text-anchor="middle" x="72.4936" y="-7.3" font-family="Helvetica,sans-Serif" font-size="11.00" fill="#000000">Generated by SchemaSpy</text>
<!-- basket_portfolio_constituents -->
<g id="node1" class="node">
<title>basket_portfolio_constituents</title>
<g id="a_node1"><a xlink:href="../../tables/basket_portfolio_constituents.html" xlink:title="basket_portfolio_constituents" target="_top">
<polygon fill="#ffffff" stroke="transparent" points="224.5,-858.2 224.5,-919.2 463.5,-919.2 463.5,-858.2 224.5,-858.2"/>
<polygon fill="#f5f5f5" stroke="transparent" points="225,-895.7 225,-918.7 464,-918.7 464,-895.7 225,-895.7"/>
<polygon fill="none" stroke="#000000" points="225,-895.7 225,-918.7 464,-918.7 464,-895.7 225,-895.7"/>
<text text-anchor="start" x="230" y="-904.3" font-family="Helvetica,sans-Serif" font-weight="bold" font-size="11.00" fill="#000000">basket_portfolio_constituents</text>
<text text-anchor="start" x="429.5219" y="-903.8" font-family="Helvetica,sans-Serif" font-size="11.00" fill="#000000">[table]</text>
<polygon fill="none" stroke="#000000" points="225,-876.7 225,-895.7 464,-895.7 464,-876.7 225,-876.7"/>
<text text-anchor="start" x="228" y="-882.8" font-family="Helvetica,sans-Serif" font-size="11.00" fill="#000000">...</text>
<polygon fill="#ffffff" stroke="transparent" points="225,-857.7 225,-876.7 343,-876.7 343,-857.7 225,-857.7"/>
<polygon fill="none" stroke="#000000" points="225,-857.7 225,-876.7 343,-876.7 343,-857.7 225,-857.7"/>
<text text-anchor="start" x="228" y="-863.8" font-family="Helvetica,sans-Serif" font-size="11.00" fill="#000000">&lt; 2</text>
<polygon fill="#ffffff" stroke="transparent" points="343,-857.7 343,-876.7 403,-876.7 403,-857.7 343,-857.7"/>
<polygon fill="none" stroke="#000000" points="343,-857.7 343,-876.7 403,-876.7 403,-857.7 343,-857.7"/>
<text text-anchor="start" x="393.8862" y="-863.8" font-family="Helvetica,sans-Serif" font-size="11.00" fill="#000000"> &#160;</text>
<polygon fill="#ffffff" stroke="transparent" points="403,-857.7 403,-876.7 464,-876.7 464,-857.7 403,-857.7"/>
<polygon fill="none" stroke="#000000" points="403,-857.7 403,-876.7 464,-876.7 464,-857.7 403,-857.7"/>
<text text-anchor="start" x="454.8862" y="-863.8" font-family="Helvetica,sans-Serif" font-size="11.00" fill="#000000"> &#160;</text>
</a>
</g>
</g>
<!-- cds_portfolios -->
<g id="node2" class="node">
<title>cds_portfolios</title>
<g id="a_node2"><a xlink:href="../../tables/cds_portfolios.html" xlink:title="cds_portfolios" target="_top">
<polygon fill="#ffffff" stroke="transparent" points="8,-673.2 8,-756.2 141,-756.2 141,-673.2 8,-673.2"/>
<polygon fill="#f5f5f5" stroke="transparent" points="8.5,-732.7 8.5,-755.7 141.5,-755.7 141.5,-732.7 8.5,-732.7"/>
<polygon fill="none" stroke="#000000" points="8.5,-732.7 8.5,-755.7 141.5,-755.7 141.5,-732.7 8.5,-732.7"/>
<text text-anchor="start" x="13.5" y="-741.3" font-family="Helvetica,sans-Serif" font-weight="bold" font-size="11.00" fill="#000000">cds_portfolios</text>
<text text-anchor="start" x="107.0219" y="-740.8" font-family="Helvetica,sans-Serif" font-size="11.00" fill="#000000">[table]</text>
<polygon fill="none" stroke="#000000" points="8.5,-710.7 8.5,-732.7 141.5,-732.7 141.5,-710.7 8.5,-710.7"/>
<image xlink:href="../../images/primaryKeys.png" width="11px" height="12px" preserveAspectRatio="xMinYMin meet" x="13.5" y="-727.7"/>
<text text-anchor="start" x="37.5" y="-717.8" font-family="Helvetica,sans-Serif" font-size="11.00" fill="#000000">id</text>
<polygon fill="none" stroke="#000000" points="8.5,-691.7 8.5,-710.7 141.5,-710.7 141.5,-691.7 8.5,-691.7"/>
<text text-anchor="start" x="11.5" y="-697.8" font-family="Helvetica,sans-Serif" font-size="11.00" fill="#000000">...</text>
<polygon fill="#ffffff" stroke="transparent" points="8.5,-672.7 8.5,-691.7 64.5,-691.7 64.5,-672.7 8.5,-672.7"/>
<polygon fill="none" stroke="#000000" points="8.5,-672.7 8.5,-691.7 64.5,-691.7 64.5,-672.7 8.5,-672.7"/>
<text text-anchor="start" x="11.5" y="-678.8" font-family="Helvetica,sans-Serif" font-size="11.00" fill="#000000"> &#160;</text>
<polygon fill="#ffffff" stroke="transparent" points="64.5,-672.7 64.5,-691.7 98.5,-691.7 98.5,-672.7 64.5,-672.7"/>
<polygon fill="none" stroke="#000000" points="64.5,-672.7 64.5,-691.7 98.5,-691.7 98.5,-672.7 64.5,-672.7"/>
<text text-anchor="start" x="89.3862" y="-678.8" font-family="Helvetica,sans-Serif" font-size="11.00" fill="#000000"> &#160;</text>
<polygon fill="#ffffff" stroke="transparent" points="98.5,-672.7 98.5,-691.7 141.5,-691.7 141.5,-672.7 98.5,-672.7"/>
<polygon fill="none" stroke="#000000" points="98.5,-672.7 98.5,-691.7 141.5,-691.7 141.5,-672.7 98.5,-672.7"/>
<text text-anchor="start" x="122.9053" y="-678.8" font-family="Helvetica,sans-Serif" font-size="11.00" fill="#000000">5 &gt;</text>
</a>
</g>
</g>
<!-- basket_portfolio_constituents&#45;&gt;cds_portfolios -->
<g id="edge1" class="edge">
<title>basket_portfolio_constituents:w&#45;&gt;cds_portfolios:e</title>
<path fill="none" stroke="#000000" d="M210.6709,-883.2747C197.3571,-877.9132 192.7942,-864.2106 182,-847.7 149.8123,-798.4663 200.3218,-721.7 141.5,-721.7"/>
<polygon fill="#000000" stroke="#000000" points="217.1122,-884.3649 224.3992,-889.2495 221.0561,-885.0324 225,-885.7 225,-885.7 225,-885.7 221.0561,-885.0324 225.6008,-882.1505 217.1122,-884.3649 217.1122,-884.3649"/>
<ellipse fill="none" stroke="#000000" cx="213.9571" cy="-883.8308" rx="3.2" ry="3.2"/>
</g>
<!-- bond_portfolio_constituents -->
<g id="node3" class="node">
<title>bond_portfolio_constituents</title>
<g id="a_node3"><a xlink:href="../../tables/bond_portfolio_constituents.html" xlink:title="bond_portfolio_constituents" target="_top">
<polygon fill="#ffffff" stroke="transparent" points="230,-776.2 230,-837.2 458,-837.2 458,-776.2 230,-776.2"/>
<polygon fill="#f5f5f5" stroke="transparent" points="230,-813.7 230,-836.7 458,-836.7 458,-813.7 230,-813.7"/>
<polygon fill="none" stroke="#000000" points="230,-813.7 230,-836.7 458,-836.7 458,-813.7 230,-813.7"/>
<text text-anchor="start" x="235" y="-822.3" font-family="Helvetica,sans-Serif" font-weight="bold" font-size="11.00" fill="#000000">bond_portfolio_constituents</text>
<text text-anchor="start" x="423.5219" y="-821.8" font-family="Helvetica,sans-Serif" font-size="11.00" fill="#000000">[table]</text>
<polygon fill="none" stroke="#000000" points="230,-794.7 230,-813.7 458,-813.7 458,-794.7 230,-794.7"/>
<text text-anchor="start" x="233" y="-800.8" font-family="Helvetica,sans-Serif" font-size="11.00" fill="#000000">...</text>
<polygon fill="#ffffff" stroke="transparent" points="230,-775.7 230,-794.7 342,-794.7 342,-775.7 230,-775.7"/>
<polygon fill="none" stroke="#000000" points="230,-775.7 230,-794.7 342,-794.7 342,-775.7 230,-775.7"/>
<text text-anchor="start" x="233" y="-781.8" font-family="Helvetica,sans-Serif" font-size="11.00" fill="#000000">&lt; 2</text>
<polygon fill="#ffffff" stroke="transparent" points="342,-775.7 342,-794.7 400,-794.7 400,-775.7 342,-775.7"/>
<polygon fill="none" stroke="#000000" points="342,-775.7 342,-794.7 400,-794.7 400,-775.7 342,-775.7"/>
<text text-anchor="start" x="390.8862" y="-781.8" font-family="Helvetica,sans-Serif" font-size="11.00" fill="#000000"> &#160;</text>
<polygon fill="#ffffff" stroke="transparent" points="400,-775.7 400,-794.7 458,-794.7 458,-775.7 400,-775.7"/>
<polygon fill="none" stroke="#000000" points="400,-775.7 400,-794.7 458,-794.7 458,-775.7 400,-775.7"/>
<text text-anchor="start" x="448.8862" y="-781.8" font-family="Helvetica,sans-Serif" font-size="11.00" fill="#000000"> &#160;</text>
</a>
</g>
</g>
<!-- bond_portfolio_constituents&#45;&gt;cds_portfolios -->
<g id="edge2" class="edge">
<title>bond_portfolio_constituents:w&#45;&gt;cds_portfolios:e</title>
<path fill="none" stroke="#000000" d="M215.4523,-801.1165C201.5057,-795.2205 197.5795,-780.162 182,-765.7 162.5205,-747.6177 168.0786,-721.7 141.5,-721.7"/>
<polygon fill="#000000" stroke="#000000" points="222.1232,-802.3012 229.3705,-807.2445 226.0616,-803.0006 230,-803.7 230,-803.7 230,-803.7 226.0616,-803.0006 230.6295,-800.1555 222.1232,-802.3012 222.1232,-802.3012"/>
<ellipse fill="none" stroke="#000000" cx="218.9725" cy="-801.7416" rx="3.2" ry="3.2"/>
</g>
<!-- cds_portfolio_constituents -->
<g id="node4" class="node">
<title>cds_portfolio_constituents</title>
<g id="a_node4"><a xlink:href="../../tables/cds_portfolio_constituents.html" xlink:title="cds_portfolio_constituents" target="_top">
<polygon fill="#ffffff" stroke="transparent" points="235.5,-694.2 235.5,-755.2 452.5,-755.2 452.5,-694.2 235.5,-694.2"/>
<polygon fill="#f5f5f5" stroke="transparent" points="236,-731.7 236,-754.7 453,-754.7 453,-731.7 236,-731.7"/>
<polygon fill="none" stroke="#000000" points="236,-731.7 236,-754.7 453,-754.7 453,-731.7 236,-731.7"/>
<text text-anchor="start" x="241" y="-740.3" font-family="Helvetica,sans-Serif" font-weight="bold" font-size="11.00" fill="#000000">cds_portfolio_constituents</text>
<text text-anchor="start" x="418.5219" y="-739.8" font-family="Helvetica,sans-Serif" font-size="11.00" fill="#000000">[table]</text>
<polygon fill="none" stroke="#000000" points="236,-712.7 236,-731.7 453,-731.7 453,-712.7 236,-712.7"/>
<text text-anchor="start" x="239" y="-718.8" font-family="Helvetica,sans-Serif" font-size="11.00" fill="#000000">...</text>
<polygon fill="#ffffff" stroke="transparent" points="236,-693.7 236,-712.7 343,-712.7 343,-693.7 236,-693.7"/>
<polygon fill="none" stroke="#000000" points="236,-693.7 236,-712.7 343,-712.7 343,-693.7 236,-693.7"/>
<text text-anchor="start" x="239" y="-699.8" font-family="Helvetica,sans-Serif" font-size="11.00" fill="#000000">&lt; 2</text>
<polygon fill="#ffffff" stroke="transparent" points="343,-693.7 343,-712.7 398,-712.7 398,-693.7 343,-693.7"/>
<polygon fill="none" stroke="#000000" points="343,-693.7 343,-712.7 398,-712.7 398,-693.7 343,-693.7"/>
<text text-anchor="start" x="388.8862" y="-699.8" font-family="Helvetica,sans-Serif" font-size="11.00" fill="#000000"> &#160;</text>
<polygon fill="#ffffff" stroke="transparent" points="398,-693.7 398,-712.7 453,-712.7 453,-693.7 398,-693.7"/>
<polygon fill="none" stroke="#000000" points="398,-693.7 398,-712.7 453,-712.7 453,-693.7 398,-693.7"/>
<text text-anchor="start" x="443.8862" y="-699.8" font-family="Helvetica,sans-Serif" font-size="11.00" fill="#000000"> &#160;</text>
</a>
</g>
</g>
<!-- cds_portfolio_constituents&#45;&gt;cds_portfolios -->
<g id="edge3" class="edge">
<title>cds_portfolio_constituents:w&#45;&gt;cds_portfolios:e</title>
<path fill="none" stroke="#000000" d="M221.1932,-721.7C190.7695,-721.7 178.0859,-721.7 141.5,-721.7"/>
<polygon fill="#000000" stroke="#000000" points="228,-721.7001 236,-725.3 232,-721.7 236,-721.7 236,-721.7 236,-721.7 232,-721.7 236,-718.1 228,-721.7001 228,-721.7001"/>
<ellipse fill="none" stroke="#000000" cx="224.8" cy="-721.7001" rx="3.2" ry="3.2"/>
</g>
<!-- portfolio_risk_cache -->
<g id="node5" class="node">
<title>portfolio_risk_cache</title>
<g id="a_node5"><a xlink:href="../../tables/portfolio_risk_cache.html" xlink:title="portfolio_risk_cache" target="_top">
<polygon fill="#ffffff" stroke="transparent" points="190,-120.7 190,-672.7 498,-672.7 498,-120.7 190,-120.7"/>
<polygon fill="#f5f5f5" stroke="transparent" points="192,-647.7 192,-670.7 496,-670.7 496,-647.7 192,-647.7"/>
<polygon fill="none" stroke="#000000" points="192,-647.7 192,-670.7 496,-670.7 496,-647.7 192,-647.7"/>
<text text-anchor="start" x="197" y="-656.3" font-family="Helvetica,sans-Serif" font-weight="bold" font-size="11.00" fill="#000000">portfolio_risk_cache</text>
<text text-anchor="start" x="461.0437" y="-655.8" font-family="Helvetica,sans-Serif" font-size="11.00" fill="#000000">[table]</text>
<polygon fill="none" stroke="#000000" points="192,-625.7 192,-647.7 397,-647.7 397,-625.7 192,-625.7"/>
<image xlink:href="../../images/primaryKeys.png" width="11px" height="12px" preserveAspectRatio="xMinYMin meet" x="197" y="-642.7"/>
<text text-anchor="start" x="212" y="-632.8" font-family="Helvetica,sans-Serif" font-size="11.00" fill="#000000">id</text>
<polygon fill="none" stroke="#000000" points="397,-625.7 397,-647.7 496,-647.7 496,-625.7 397,-625.7"/>
<text text-anchor="start" x="400" y="-633.4" font-family="Helvetica,sans-Serif" font-size="11.00" fill="#000000">bigserial[19]</text>
<polygon fill="#ffffff" stroke="transparent" points="192,-603.7 192,-625.7 397,-625.7 397,-603.7 192,-603.7"/>
<polygon fill="none" stroke="#000000" points="192,-603.7 192,-625.7 397,-625.7 397,-603.7 192,-603.7"/>
<image xlink:href="../../images/foreignKeys.png" width="11px" height="12px" preserveAspectRatio="xMinYMin meet" x="197" y="-620.7"/>
<text text-anchor="start" x="212" y="-610.8" font-family="Helvetica,sans-Serif" font-size="11.00" fill="#000000">portfolio_id</text>
<polygon fill="none" stroke="#000000" points="397,-603.7 397,-625.7 496,-625.7 496,-603.7 397,-603.7"/>
<text text-anchor="start" x="400" y="-611.4" font-family="Helvetica,sans-Serif" font-size="11.00" fill="#000000">int8[19]</text>
<polygon fill="#ffffff" stroke="transparent" points="192,-581.7 192,-603.7 397,-603.7 397,-581.7 192,-581.7"/>
<polygon fill="none" stroke="#000000" points="192,-581.7 192,-603.7 397,-603.7 397,-581.7 192,-581.7"/>
<text text-anchor="start" x="212" y="-588.8" font-family="Helvetica,sans-Serif" font-size="11.00" fill="#000000">valuation_date</text>
<polygon fill="none" stroke="#000000" points="397,-581.7 397,-603.7 496,-603.7 496,-581.7 397,-581.7"/>
<text text-anchor="start" x="400" y="-589.4" font-family="Helvetica,sans-Serif" font-size="11.00" fill="#000000">date[13]</text>
<polygon fill="none" stroke="#000000" points="192,-559.7 192,-581.7 397,-581.7 397,-559.7 192,-559.7"/>
<text text-anchor="start" x="212" y="-566.8" font-family="Helvetica,sans-Serif" font-size="11.00" fill="#000000">aggregate_pv</text>
<polygon fill="none" stroke="#000000" points="397,-559.7 397,-581.7 496,-581.7 496,-559.7 397,-559.7"/>
<text text-anchor="start" x="400" y="-567.4" font-family="Helvetica,sans-Serif" font-size="11.00" fill="#000000">numeric[18,4]</text>
<polygon fill="none" stroke="#000000" points="192,-537.7 192,-559.7 397,-559.7 397,-537.7 192,-537.7"/>
<text text-anchor="start" x="212" y="-544.8" font-family="Helvetica,sans-Serif" font-size="11.00" fill="#000000">aggregate_accrued</text>
<polygon fill="none" stroke="#000000" points="397,-537.7 397,-559.7 496,-559.7 496,-537.7 397,-537.7"/>
<text text-anchor="start" x="400" y="-545.4" font-family="Helvetica,sans-Serif" font-size="11.00" fill="#000000">numeric[18,4]</text>
<polygon fill="none" stroke="#000000" points="192,-515.7 192,-537.7 397,-537.7 397,-515.7 192,-515.7"/>
<text text-anchor="start" x="212" y="-522.8" font-family="Helvetica,sans-Serif" font-size="11.00" fill="#000000">premium_leg_pv</text>
<polygon fill="none" stroke="#000000" points="397,-515.7 397,-537.7 496,-537.7 496,-515.7 397,-515.7"/>
<text text-anchor="start" x="400" y="-523.4" font-family="Helvetica,sans-Serif" font-size="11.00" fill="#000000">numeric[18,4]</text>
<polygon fill="none" stroke="#000000" points="192,-493.7 192,-515.7 397,-515.7 397,-493.7 192,-493.7"/>
<text text-anchor="start" x="212" y="-500.8" font-family="Helvetica,sans-Serif" font-size="11.00" fill="#000000">protection_leg_pv</text>
<polygon fill="none" stroke="#000000" points="397,-493.7 397,-515.7 496,-515.7 496,-493.7 397,-493.7"/>
<text text-anchor="start" x="400" y="-501.4" font-family="Helvetica,sans-Serif" font-size="11.00" fill="#000000">numeric[18,4]</text>
<polygon fill="none" stroke="#000000" points="192,-471.7 192,-493.7 397,-493.7 397,-471.7 192,-471.7"/>
<text text-anchor="start" x="212" y="-478.8" font-family="Helvetica,sans-Serif" font-size="11.00" fill="#000000">fair_spread_bps_weighted</text>
<polygon fill="none" stroke="#000000" points="397,-471.7 397,-493.7 496,-493.7 496,-471.7 397,-471.7"/>
<text text-anchor="start" x="400" y="-479.4" font-family="Helvetica,sans-Serif" font-size="11.00" fill="#000000">numeric[10,4]</text>
<polygon fill="none" stroke="#000000" points="192,-449.7 192,-471.7 397,-471.7 397,-449.7 192,-449.7"/>
<text text-anchor="start" x="212" y="-456.8" font-family="Helvetica,sans-Serif" font-size="11.00" fill="#000000">cs01</text>
<polygon fill="none" stroke="#000000" points="397,-449.7 397,-471.7 496,-471.7 496,-449.7 397,-449.7"/>
<text text-anchor="start" x="400" y="-457.4" font-family="Helvetica,sans-Serif" font-size="11.00" fill="#000000">numeric[18,4]</text>
<polygon fill="none" stroke="#000000" points="192,-427.7 192,-449.7 397,-449.7 397,-427.7 192,-427.7"/>
<text text-anchor="start" x="212" y="-434.8" font-family="Helvetica,sans-Serif" font-size="11.00" fill="#000000">rec01</text>
<polygon fill="none" stroke="#000000" points="397,-427.7 397,-449.7 496,-449.7 496,-427.7 397,-427.7"/>
<text text-anchor="start" x="400" y="-435.4" font-family="Helvetica,sans-Serif" font-size="11.00" fill="#000000">numeric[18,4]</text>
<polygon fill="none" stroke="#000000" points="192,-405.7 192,-427.7 397,-427.7 397,-405.7 192,-405.7"/>
<text text-anchor="start" x="212" y="-412.8" font-family="Helvetica,sans-Serif" font-size="11.00" fill="#000000">jtd</text>
<polygon fill="none" stroke="#000000" points="397,-405.7 397,-427.7 496,-427.7 496,-405.7 397,-405.7"/>
<text text-anchor="start" x="400" y="-413.4" font-family="Helvetica,sans-Serif" font-size="11.00" fill="#000000">numeric[18,4]</text>
<polygon fill="none" stroke="#000000" points="192,-383.7 192,-405.7 397,-405.7 397,-383.7 192,-383.7"/>
<text text-anchor="start" x="212" y="-390.8" font-family="Helvetica,sans-Serif" font-size="11.00" fill="#000000">top_5_pct_cs01</text>
<polygon fill="none" stroke="#000000" points="397,-383.7 397,-405.7 496,-405.7 496,-383.7 397,-383.7"/>
<text text-anchor="start" x="400" y="-391.4" font-family="Helvetica,sans-Serif" font-size="11.00" fill="#000000">numeric[10,4]</text>
<polygon fill="none" stroke="#000000" points="192,-361.7 192,-383.7 397,-383.7 397,-361.7 192,-361.7"/>
<text text-anchor="start" x="212" y="-368.8" font-family="Helvetica,sans-Serif" font-size="11.00" fill="#000000">sector_breakdown</text>
<polygon fill="none" stroke="#000000" points="397,-361.7 397,-383.7 496,-383.7 496,-361.7 397,-361.7"/>
<text text-anchor="start" x="399.7258" y="-369.4" font-family="Helvetica,sans-Serif" font-size="11.00" fill="#000000">jsonb[2147483647]</text>
<polygon fill="none" stroke="#000000" points="192,-339.7 192,-361.7 397,-361.7 397,-339.7 192,-339.7"/>
<text text-anchor="start" x="212" y="-346.8" font-family="Helvetica,sans-Serif" font-size="11.00" fill="#000000">by_trade_breakdown</text>
<polygon fill="none" stroke="#000000" points="397,-339.7 397,-361.7 496,-361.7 496,-339.7 397,-339.7"/>
<text text-anchor="start" x="399.7258" y="-347.4" font-family="Helvetica,sans-Serif" font-size="11.00" fill="#000000">jsonb[2147483647]</text>
<polygon fill="none" stroke="#000000" points="192,-317.7 192,-339.7 397,-339.7 397,-317.7 192,-317.7"/>
<text text-anchor="start" x="212" y="-324.8" font-family="Helvetica,sans-Serif" font-size="11.00" fill="#000000">completeness_constituents</text>
<polygon fill="none" stroke="#000000" points="397,-317.7 397,-339.7 496,-339.7 496,-317.7 397,-317.7"/>
<text text-anchor="start" x="400" y="-325.4" font-family="Helvetica,sans-Serif" font-size="11.00" fill="#000000">int4[10]</text>
<polygon fill="none" stroke="#000000" points="192,-295.7 192,-317.7 397,-317.7 397,-295.7 192,-295.7"/>
<text text-anchor="start" x="212" y="-302.8" font-family="Helvetica,sans-Serif" font-size="11.00" fill="#000000">completeness_priced</text>
<polygon fill="none" stroke="#000000" points="397,-295.7 397,-317.7 496,-317.7 496,-295.7 397,-295.7"/>
<text text-anchor="start" x="400" y="-303.4" font-family="Helvetica,sans-Serif" font-size="11.00" fill="#000000">int4[10]</text>
<polygon fill="none" stroke="#000000" points="192,-273.7 192,-295.7 397,-295.7 397,-273.7 192,-273.7"/>
<text text-anchor="start" x="212" y="-280.8" font-family="Helvetica,sans-Serif" font-size="11.00" fill="#000000">calculated_at</text>
<polygon fill="none" stroke="#000000" points="397,-273.7 397,-295.7 496,-295.7 496,-273.7 397,-273.7"/>
<text text-anchor="start" x="400" y="-281.4" font-family="Helvetica,sans-Serif" font-size="11.00" fill="#000000">timestamp[29,6]</text>
<polygon fill="none" stroke="#000000" points="192,-251.7 192,-273.7 397,-273.7 397,-251.7 192,-251.7"/>
<text text-anchor="start" x="212" y="-258.8" font-family="Helvetica,sans-Serif" font-size="11.00" fill="#000000">total_notional</text>
<polygon fill="none" stroke="#000000" points="397,-251.7 397,-273.7 496,-273.7 496,-251.7 397,-251.7"/>
<text text-anchor="start" x="400" y="-259.4" font-family="Helvetica,sans-Serif" font-size="11.00" fill="#000000">numeric[20,4]</text>
<polygon fill="none" stroke="#000000" points="192,-229.7 192,-251.7 397,-251.7 397,-229.7 192,-229.7"/>
<text text-anchor="start" x="212" y="-236.8" font-family="Helvetica,sans-Serif" font-size="11.00" fill="#000000">upfront_premium</text>
<polygon fill="none" stroke="#000000" points="397,-229.7 397,-251.7 496,-251.7 496,-229.7 397,-229.7"/>
<text text-anchor="start" x="400" y="-237.4" font-family="Helvetica,sans-Serif" font-size="11.00" fill="#000000">numeric[18,4]</text>
<polygon fill="none" stroke="#000000" points="192,-207.7 192,-229.7 397,-229.7 397,-207.7 192,-207.7"/>
<text text-anchor="start" x="212" y="-214.8" font-family="Helvetica,sans-Serif" font-size="11.00" fill="#000000">total_paid_coupons</text>
<polygon fill="none" stroke="#000000" points="397,-207.7 397,-229.7 496,-229.7 496,-207.7 397,-207.7"/>
<text text-anchor="start" x="400" y="-215.4" font-family="Helvetica,sans-Serif" font-size="11.00" fill="#000000">numeric[18,4]</text>
<polygon fill="none" stroke="#000000" points="192,-185.7 192,-207.7 397,-207.7 397,-185.7 192,-185.7"/>
<text text-anchor="start" x="212" y="-192.8" font-family="Helvetica,sans-Serif" font-size="11.00" fill="#000000">trade_count</text>
<polygon fill="none" stroke="#000000" points="397,-185.7 397,-207.7 496,-207.7 496,-185.7 397,-185.7"/>
<text text-anchor="start" x="400" y="-193.4" font-family="Helvetica,sans-Serif" font-size="11.00" fill="#000000">int4[10]</text>
<polygon fill="none" stroke="#000000" points="192,-163.7 192,-185.7 397,-185.7 397,-163.7 192,-163.7"/>
<text text-anchor="start" x="212" y="-170.8" font-family="Helvetica,sans-Serif" font-size="11.00" fill="#000000">net_protection_bought</text>
<polygon fill="none" stroke="#000000" points="397,-163.7 397,-185.7 496,-185.7 496,-163.7 397,-163.7"/>
<text text-anchor="start" x="400" y="-171.4" font-family="Helvetica,sans-Serif" font-size="11.00" fill="#000000">numeric[20,4]</text>
<polygon fill="none" stroke="#000000" points="192,-141.7 192,-163.7 397,-163.7 397,-141.7 192,-141.7"/>
<text text-anchor="start" x="212" y="-148.8" font-family="Helvetica,sans-Serif" font-size="11.00" fill="#000000">average_maturity_years</text>
<polygon fill="none" stroke="#000000" points="397,-141.7 397,-163.7 496,-163.7 496,-141.7 397,-141.7"/>
<text text-anchor="start" x="400" y="-149.4" font-family="Helvetica,sans-Serif" font-size="11.00" fill="#000000">varchar[20]</text>
<polygon fill="#ffffff" stroke="transparent" points="192,-122.7 192,-141.7 299,-141.7 299,-122.7 192,-122.7"/>
<polygon fill="none" stroke="#000000" points="192,-122.7 192,-141.7 299,-141.7 299,-122.7 192,-122.7"/>
<text text-anchor="start" x="195" y="-128.8" font-family="Helvetica,sans-Serif" font-size="11.00" fill="#000000">&lt; 1</text>
<polygon fill="#ffffff" stroke="transparent" points="299,-122.7 299,-141.7 397,-141.7 397,-122.7 299,-122.7"/>
<polygon fill="none" stroke="#000000" points="299,-122.7 299,-141.7 397,-141.7 397,-122.7 299,-122.7"/>
<text text-anchor="start" x="387.8862" y="-128.8" font-family="Helvetica,sans-Serif" font-size="11.00" fill="#000000"> &#160;</text>
<polygon fill="#ffffff" stroke="transparent" points="397,-122.7 397,-141.7 496,-141.7 496,-122.7 397,-122.7"/>
<polygon fill="none" stroke="#000000" points="397,-122.7 397,-141.7 496,-141.7 496,-122.7 397,-122.7"/>
<text text-anchor="start" x="477.4053" y="-128.8" font-family="Helvetica,sans-Serif" font-size="11.00" fill="#000000">0 &gt;</text>
<polygon fill="none" stroke="#000000" stroke-width="2" points="191,-121.7 191,-671.7 497,-671.7 497,-121.7 191,-121.7"/>
</a>
</g>
</g>
<!-- portfolio_risk_cache&#45;&gt;cds_portfolios -->
<g id="edge4" class="edge">
<title>portfolio_risk_cache:w&#45;&gt;cds_portfolios:e</title>
<path fill="none" stroke="#000000" d="M177.9464,-618.5082C150.4242,-637.5691 188.129,-721.7 141.5,-721.7"/>
<polygon fill="#000000" stroke="#000000" points="184.2785,-616.7924 192.9416,-618.1747 188.1392,-615.7462 192,-614.7 192,-614.7 192,-614.7 188.1392,-615.7462 191.0584,-611.2253 184.2785,-616.7924 184.2785,-616.7924"/>
<ellipse fill="none" stroke="#000000" cx="181.1898" cy="-617.6293" rx="3.2" ry="3.2"/>
</g>
<!-- simulation_runs -->
<g id="node6" class="node">
<title>simulation_runs</title>
<g id="a_node6"><a xlink:href="../../tables/simulation_runs.html" xlink:title="simulation_runs" target="_top">
<polygon fill="#ffffff" stroke="transparent" points="271,-38.2 271,-99.2 417,-99.2 417,-38.2 271,-38.2"/>
<polygon fill="#f5f5f5" stroke="transparent" points="271,-75.7 271,-98.7 417,-98.7 417,-75.7 271,-75.7"/>
<polygon fill="none" stroke="#000000" points="271,-75.7 271,-98.7 417,-98.7 417,-75.7 271,-75.7"/>
<text text-anchor="start" x="276" y="-84.3" font-family="Helvetica,sans-Serif" font-weight="bold" font-size="11.00" fill="#000000">simulation_runs</text>
<text text-anchor="start" x="382.5219" y="-83.8" font-family="Helvetica,sans-Serif" font-size="11.00" fill="#000000">[table]</text>
<polygon fill="none" stroke="#000000" points="271,-56.7 271,-75.7 417,-75.7 417,-56.7 271,-56.7"/>
<text text-anchor="start" x="274" y="-62.8" font-family="Helvetica,sans-Serif" font-size="11.00" fill="#000000">...</text>
<polygon fill="#ffffff" stroke="transparent" points="271,-37.7 271,-56.7 338,-56.7 338,-37.7 271,-37.7"/>
<polygon fill="none" stroke="#000000" points="271,-37.7 271,-56.7 338,-56.7 338,-37.7 271,-37.7"/>
<text text-anchor="start" x="274" y="-43.8" font-family="Helvetica,sans-Serif" font-size="11.00" fill="#000000">&lt; 1</text>
<polygon fill="#ffffff" stroke="transparent" points="338,-37.7 338,-56.7 373,-56.7 373,-37.7 338,-37.7"/>
<polygon fill="none" stroke="#000000" points="338,-37.7 338,-56.7 373,-56.7 373,-37.7 338,-37.7"/>
<text text-anchor="start" x="363.8862" y="-43.8" font-family="Helvetica,sans-Serif" font-size="11.00" fill="#000000"> &#160;</text>
<polygon fill="#ffffff" stroke="transparent" points="373,-37.7 373,-56.7 417,-56.7 417,-37.7 373,-37.7"/>
<polygon fill="none" stroke="#000000" points="373,-37.7 373,-56.7 417,-56.7 417,-37.7 373,-37.7"/>
<text text-anchor="start" x="398.4053" y="-43.8" font-family="Helvetica,sans-Serif" font-size="11.00" fill="#000000">3 &gt;</text>
</a>
</g>
</g>
<!-- simulation_runs&#45;&gt;cds_portfolios -->
<g id="edge5" class="edge">
<title>simulation_runs:w&#45;&gt;cds_portfolios:e</title>
<path fill="none" stroke="#000000" d="M256.3647,-66.0646C221.8783,-67.9799 203.5889,-78.0644 182,-110.7 144.4621,-167.4455 209.5379,-721.7 141.5,-721.7"/>
<polygon fill="#000000" stroke="#000000" points="263.0025,-65.8993 271.0897,-69.2989 267.0012,-65.7996 271,-65.7 271,-65.7 271,-65.7 267.0012,-65.7996 270.9103,-62.1011 263.0025,-65.8993 263.0025,-65.8993"/>
<ellipse fill="none" stroke="#000000" cx="259.8035" cy="-65.979" rx="3.2" ry="3.2"/>
</g>
</g>
</svg>
