<?xml version="1.0" encoding="UTF-8" standalone="no"?>
<!DOCTYPE svg PUBLIC "-//W3C//DTD SVG 1.1//EN"
 "http://www.w3.org/Graphics/SVG/1.1/DTD/svg11.dtd">
<!-- Generated by graphviz version 2.40.1 (20161225.0304)
 -->
<!-- Title: oneDegreeRelationshipsDiagram Pages: 1 -->
<svg width="558pt" height="426pt"
 viewBox="0.00 0.00 558.00 426.20" xmlns="http://www.w3.org/2000/svg" xmlns:xlink="http://www.w3.org/1999/xlink">
<g id="graph0" class="graph" transform="scale(1 1) rotate(0) translate(4 422.2)">
<title>oneDegreeRelationshipsDiagram</title>
<polygon fill="#ffffff" stroke="transparent" points="-4,4 -4,-422.2 554,-422.2 554,4 -4,4"/>
<text text-anchor="middle" x="72.4936" y="-7.3" font-family="Helvetica,sans-Serif" font-size="11.00" fill="#000000">Generated by SchemaSpy</text>
<!-- position_discrepancies -->
<g id="node1" class="node">
<title>position_discrepancies</title>
<g id="a_node1"><a xlink:href="../../tables/position_discrepancies.html" xlink:title="position_discrepancies" target="_top">
<polygon fill="#ffffff" stroke="transparent" points="226,-38.2 226,-414.2 542,-414.2 542,-38.2 226,-38.2"/>
<polygon fill="#f5f5f5" stroke="transparent" points="228,-389.2 228,-412.2 540,-412.2 540,-389.2 228,-389.2"/>
<polygon fill="none" stroke="#000000" points="228,-389.2 228,-412.2 540,-412.2 540,-389.2 228,-389.2"/>
<text text-anchor="start" x="233" y="-397.8" font-family="Helvetica,sans-Serif" font-weight="bold" font-size="11.00" fill="#000000">position_discrepancies</text>
<text text-anchor="start" x="505.0437" y="-397.3" font-family="Helvetica,sans-Serif" font-size="11.00" fill="#000000">[table]</text>
<polygon fill="none" stroke="#000000" points="228,-367.2 228,-389.2 402,-389.2 402,-367.2 228,-367.2"/>
<image xlink:href="../../images/primaryKeys.png" width="11px" height="12px" preserveAspectRatio="xMinYMin meet" x="233" y="-384.2"/>
<text text-anchor="start" x="248" y="-374.3" font-family="Helvetica,sans-Serif" font-size="11.00" fill="#000000">id</text>
<polygon fill="none" stroke="#000000" points="402,-367.2 402,-389.2 540,-389.2 540,-367.2 402,-367.2"/>
<text text-anchor="start" x="405" y="-374.9" font-family="Helvetica,sans-Serif" font-size="11.00" fill="#000000">bigserial[19]</text>
<polygon fill="#ffffff" stroke="transparent" points="228,-345.2 228,-367.2 402,-367.2 402,-345.2 228,-345.2"/>
<polygon fill="none" stroke="#000000" points="228,-345.2 228,-367.2 402,-367.2 402,-345.2 228,-345.2"/>
<image xlink:href="../../images/foreignKeys.png" width="11px" height="12px" preserveAspectRatio="xMinYMin meet" x="233" y="-362.2"/>
<text text-anchor="start" x="248" y="-352.3" font-family="Helvetica,sans-Serif" font-size="11.00" fill="#000000">statement_id</text>
<polygon fill="none" stroke="#000000" points="402,-345.2 402,-367.2 540,-367.2 540,-345.2 402,-345.2"/>
<text text-anchor="start" x="405" y="-352.9" font-family="Helvetica,sans-Serif" font-size="11.00" fill="#000000">int8[19]</text>
<polygon fill="none" stroke="#000000" points="228,-323.2 228,-345.2 402,-345.2 402,-323.2 228,-323.2"/>
<text text-anchor="start" x="248" y="-330.3" font-family="Helvetica,sans-Serif" font-size="11.00" fill="#000000">account_number</text>
<polygon fill="none" stroke="#000000" points="402,-323.2 402,-345.2 540,-345.2 540,-323.2 402,-323.2"/>
<text text-anchor="start" x="405" y="-330.9" font-family="Helvetica,sans-Serif" font-size="11.00" fill="#000000">varchar[100]</text>
<polygon fill="none" stroke="#000000" points="228,-301.2 228,-323.2 402,-323.2 402,-301.2 228,-301.2"/>
<text text-anchor="start" x="248" y="-308.3" font-family="Helvetica,sans-Serif" font-size="11.00" fill="#000000">position_type</text>
<polygon fill="none" stroke="#000000" points="402,-301.2 402,-323.2 540,-323.2 540,-301.2 402,-301.2"/>
<text text-anchor="start" x="404.9687" y="-308.9" font-family="Helvetica,sans-Serif" font-size="11.00" fill="#000000">position_type[2147483647]</text>
<polygon fill="none" stroke="#000000" points="228,-279.2 228,-301.2 402,-301.2 402,-279.2 228,-279.2"/>
<text text-anchor="start" x="248" y="-286.3" font-family="Helvetica,sans-Serif" font-size="11.00" fill="#000000">currency</text>
<polygon fill="none" stroke="#000000" points="402,-279.2 402,-301.2 540,-301.2 540,-279.2 402,-279.2"/>
<text text-anchor="start" x="405" y="-286.9" font-family="Helvetica,sans-Serif" font-size="11.00" fill="#000000">varchar[3]</text>
<polygon fill="none" stroke="#000000" points="228,-257.2 228,-279.2 402,-279.2 402,-257.2 228,-257.2"/>
<text text-anchor="start" x="248" y="-264.3" font-family="Helvetica,sans-Serif" font-size="11.00" fill="#000000">expected_amount</text>
<polygon fill="none" stroke="#000000" points="402,-257.2 402,-279.2 540,-279.2 540,-257.2 402,-257.2"/>
<text text-anchor="start" x="405" y="-264.9" font-family="Helvetica,sans-Serif" font-size="11.00" fill="#000000">numeric[20,4]</text>
<polygon fill="none" stroke="#000000" points="228,-235.2 228,-257.2 402,-257.2 402,-235.2 228,-235.2"/>
<text text-anchor="start" x="248" y="-242.3" font-family="Helvetica,sans-Serif" font-size="11.00" fill="#000000">actual_amount</text>
<polygon fill="none" stroke="#000000" points="402,-235.2 402,-257.2 540,-257.2 540,-235.2 402,-235.2"/>
<text text-anchor="start" x="405" y="-242.9" font-family="Helvetica,sans-Serif" font-size="11.00" fill="#000000">numeric[20,4]</text>
<polygon fill="none" stroke="#000000" points="228,-213.2 228,-235.2 402,-235.2 402,-213.2 228,-213.2"/>
<text text-anchor="start" x="248" y="-220.3" font-family="Helvetica,sans-Serif" font-size="11.00" fill="#000000">variance_amount</text>
<polygon fill="none" stroke="#000000" points="402,-213.2 402,-235.2 540,-235.2 540,-213.2 402,-213.2"/>
<text text-anchor="start" x="405" y="-220.9" font-family="Helvetica,sans-Serif" font-size="11.00" fill="#000000">numeric[20,4]</text>
<polygon fill="none" stroke="#000000" points="228,-191.2 228,-213.2 402,-213.2 402,-191.2 228,-191.2"/>
<text text-anchor="start" x="248" y="-198.3" font-family="Helvetica,sans-Serif" font-size="11.00" fill="#000000">variance_percentage</text>
<polygon fill="none" stroke="#000000" points="402,-191.2 402,-213.2 540,-213.2 540,-191.2 402,-191.2"/>
<text text-anchor="start" x="405" y="-198.9" font-family="Helvetica,sans-Serif" font-size="11.00" fill="#000000">numeric[8,4]</text>
<polygon fill="none" stroke="#000000" points="228,-169.2 228,-191.2 402,-191.2 402,-169.2 228,-169.2"/>
<text text-anchor="start" x="248" y="-176.3" font-family="Helvetica,sans-Serif" font-size="11.00" fill="#000000">tolerance_threshold</text>
<polygon fill="none" stroke="#000000" points="402,-169.2 402,-191.2 540,-191.2 540,-169.2 402,-169.2"/>
<text text-anchor="start" x="405" y="-176.9" font-family="Helvetica,sans-Serif" font-size="11.00" fill="#000000">numeric[8,4]</text>
<polygon fill="#ffffff" stroke="transparent" points="228,-147.2 228,-169.2 402,-169.2 402,-147.2 228,-147.2"/>
<polygon fill="none" stroke="#000000" points="228,-147.2 228,-169.2 402,-169.2 402,-147.2 228,-147.2"/>
<text text-anchor="start" x="248" y="-154.3" font-family="Helvetica,sans-Serif" font-size="11.00" fill="#000000">is_material</text>
<polygon fill="none" stroke="#000000" points="402,-147.2 402,-169.2 540,-169.2 540,-147.2 402,-147.2"/>
<text text-anchor="start" x="405" y="-154.9" font-family="Helvetica,sans-Serif" font-size="11.00" fill="#000000">bool[1]</text>
<polygon fill="#ffffff" stroke="transparent" points="228,-125.2 228,-147.2 402,-147.2 402,-125.2 228,-125.2"/>
<polygon fill="none" stroke="#000000" points="228,-125.2 228,-147.2 402,-147.2 402,-125.2 228,-125.2"/>
<text text-anchor="start" x="248" y="-132.3" font-family="Helvetica,sans-Serif" font-size="11.00" fill="#000000">resolution_status</text>
<polygon fill="none" stroke="#000000" points="402,-125.2 402,-147.2 540,-147.2 540,-125.2 402,-125.2"/>
<text text-anchor="start" x="405" y="-132.9" font-family="Helvetica,sans-Serif" font-size="11.00" fill="#000000">varchar[50]</text>
<polygon fill="none" stroke="#000000" points="228,-103.2 228,-125.2 402,-125.2 402,-103.2 228,-103.2"/>
<text text-anchor="start" x="248" y="-110.3" font-family="Helvetica,sans-Serif" font-size="11.00" fill="#000000">resolution_notes</text>
<polygon fill="none" stroke="#000000" points="402,-103.2 402,-125.2 540,-125.2 540,-103.2 402,-103.2"/>
<text text-anchor="start" x="405" y="-110.9" font-family="Helvetica,sans-Serif" font-size="11.00" fill="#000000">text[2147483647]</text>
<polygon fill="none" stroke="#000000" points="228,-81.2 228,-103.2 402,-103.2 402,-81.2 228,-81.2"/>
<text text-anchor="start" x="248" y="-88.3" font-family="Helvetica,sans-Serif" font-size="11.00" fill="#000000">created_at</text>
<polygon fill="none" stroke="#000000" points="402,-81.2 402,-103.2 540,-103.2 540,-81.2 402,-81.2"/>
<text text-anchor="start" x="405" y="-88.9" font-family="Helvetica,sans-Serif" font-size="11.00" fill="#000000">timestamptz[35,6]</text>
<polygon fill="none" stroke="#000000" points="228,-59.2 228,-81.2 402,-81.2 402,-59.2 228,-59.2"/>
<text text-anchor="start" x="248" y="-66.3" font-family="Helvetica,sans-Serif" font-size="11.00" fill="#000000">resolved_at</text>
<polygon fill="none" stroke="#000000" points="402,-59.2 402,-81.2 540,-81.2 540,-59.2 402,-59.2"/>
<text text-anchor="start" x="405" y="-66.9" font-family="Helvetica,sans-Serif" font-size="11.00" fill="#000000">timestamptz[35,6]</text>
<polygon fill="#ffffff" stroke="transparent" points="228,-40.2 228,-59.2 319,-59.2 319,-40.2 228,-40.2"/>
<polygon fill="none" stroke="#000000" points="228,-40.2 228,-59.2 319,-59.2 319,-40.2 228,-40.2"/>
<text text-anchor="start" x="231" y="-46.3" font-family="Helvetica,sans-Serif" font-size="11.00" fill="#000000">&lt; 1</text>
<polygon fill="#ffffff" stroke="transparent" points="319,-40.2 319,-59.2 402,-59.2 402,-40.2 319,-40.2"/>
<polygon fill="none" stroke="#000000" points="319,-40.2 319,-59.2 402,-59.2 402,-40.2 319,-40.2"/>
<text text-anchor="start" x="392.8862" y="-46.3" font-family="Helvetica,sans-Serif" font-size="11.00" fill="#000000"> &#160;</text>
<polygon fill="#ffffff" stroke="transparent" points="402,-40.2 402,-59.2 540,-59.2 540,-40.2 402,-40.2"/>
<polygon fill="none" stroke="#000000" points="402,-40.2 402,-59.2 540,-59.2 540,-40.2 402,-40.2"/>
<text text-anchor="start" x="521.4053" y="-46.3" font-family="Helvetica,sans-Serif" font-size="11.00" fill="#000000">0 &gt;</text>
<polygon fill="none" stroke="#000000" stroke-width="2" points="227,-39.2 227,-413.2 541,-413.2 541,-39.2 227,-39.2"/>
</a>
</g>
</g>
<!-- margin_statements -->
<g id="node2" class="node">
<title>margin_statements</title>
<g id="a_node2"><a xlink:href="../../tables/margin_statements.html" xlink:title="margin_statements" target="_top">
<polygon fill="#ffffff" stroke="transparent" points="8,-153.7 8,-390.7 177,-390.7 177,-153.7 8,-153.7"/>
<polygon fill="#f5f5f5" stroke="transparent" points="8.5,-367.2 8.5,-390.2 177.5,-390.2 177.5,-367.2 8.5,-367.2"/>
<polygon fill="none" stroke="#000000" points="8.5,-367.2 8.5,-390.2 177.5,-390.2 177.5,-367.2 8.5,-367.2"/>
<text text-anchor="start" x="13.5" y="-375.8" font-family="Helvetica,sans-Serif" font-weight="bold" font-size="11.00" fill="#000000">margin_statements</text>
<text text-anchor="start" x="143.0219" y="-375.3" font-family="Helvetica,sans-Serif" font-size="11.00" fill="#000000">[table]</text>
<polygon fill="none" stroke="#000000" points="8.5,-345.2 8.5,-367.2 177.5,-367.2 177.5,-345.2 8.5,-345.2"/>
<image xlink:href="../../images/primaryKeys.png" width="11px" height="12px" preserveAspectRatio="xMinYMin meet" x="13.5" y="-362.2"/>
<text text-anchor="start" x="37.5" y="-352.3" font-family="Helvetica,sans-Serif" font-size="11.00" fill="#000000">id</text>
<polygon fill="#ffffff" stroke="transparent" points="8.5,-323.2 8.5,-345.2 177.5,-345.2 177.5,-323.2 8.5,-323.2"/>
<polygon fill="none" stroke="#000000" points="8.5,-323.2 8.5,-345.2 177.5,-345.2 177.5,-323.2 8.5,-323.2"/>
<text text-anchor="start" x="37.5" y="-330.3" font-family="Helvetica,sans-Serif" font-size="11.00" fill="#000000">statement_id</text>
<polygon fill="#ffffff" stroke="transparent" points="8.5,-301.2 8.5,-323.2 177.5,-323.2 177.5,-301.2 8.5,-301.2"/>
<polygon fill="none" stroke="#000000" points="8.5,-301.2 8.5,-323.2 177.5,-323.2 177.5,-301.2 8.5,-301.2"/>
<text text-anchor="start" x="37.5" y="-308.3" font-family="Helvetica,sans-Serif" font-size="11.00" fill="#000000">ccp_name</text>
<polygon fill="#ffffff" stroke="transparent" points="8.5,-279.2 8.5,-301.2 177.5,-301.2 177.5,-279.2 8.5,-279.2"/>
<polygon fill="none" stroke="#000000" points="8.5,-279.2 8.5,-301.2 177.5,-301.2 177.5,-279.2 8.5,-279.2"/>
<text text-anchor="start" x="37.5" y="-286.3" font-family="Helvetica,sans-Serif" font-size="11.00" fill="#000000">statement_date</text>
<polygon fill="#ffffff" stroke="transparent" points="8.5,-257.2 8.5,-279.2 177.5,-279.2 177.5,-257.2 8.5,-257.2"/>
<polygon fill="none" stroke="#000000" points="8.5,-257.2 8.5,-279.2 177.5,-279.2 177.5,-257.2 8.5,-257.2"/>
<text text-anchor="start" x="37.5" y="-264.3" font-family="Helvetica,sans-Serif" font-size="11.00" fill="#000000">status</text>
<polygon fill="#ffffff" stroke="transparent" points="8.5,-235.2 8.5,-257.2 177.5,-257.2 177.5,-235.2 8.5,-235.2"/>
<polygon fill="none" stroke="#000000" points="8.5,-235.2 8.5,-257.2 177.5,-257.2 177.5,-235.2 8.5,-235.2"/>
<text text-anchor="start" x="37.5" y="-242.3" font-family="Helvetica,sans-Serif" font-size="11.00" fill="#000000">created_at</text>
<polygon fill="#ffffff" stroke="transparent" points="8.5,-213.2 8.5,-235.2 177.5,-235.2 177.5,-213.2 8.5,-213.2"/>
<polygon fill="none" stroke="#000000" points="8.5,-213.2 8.5,-235.2 177.5,-235.2 177.5,-213.2 8.5,-213.2"/>
<text text-anchor="start" x="37.5" y="-220.3" font-family="Helvetica,sans-Serif" font-size="11.00" fill="#000000">variation_margin</text>
<polygon fill="#ffffff" stroke="transparent" points="8.5,-191.2 8.5,-213.2 177.5,-213.2 177.5,-191.2 8.5,-191.2"/>
<polygon fill="none" stroke="#000000" points="8.5,-191.2 8.5,-213.2 177.5,-213.2 177.5,-191.2 8.5,-191.2"/>
<text text-anchor="start" x="37.5" y="-198.3" font-family="Helvetica,sans-Serif" font-size="11.00" fill="#000000">initial_margin</text>
<polygon fill="none" stroke="#000000" points="8.5,-172.2 8.5,-191.2 177.5,-191.2 177.5,-172.2 8.5,-172.2"/>
<text text-anchor="start" x="11.5" y="-178.3" font-family="Helvetica,sans-Serif" font-size="11.00" fill="#000000">...</text>
<polygon fill="#ffffff" stroke="transparent" points="8.5,-153.2 8.5,-172.2 82.5,-172.2 82.5,-153.2 8.5,-153.2"/>
<polygon fill="none" stroke="#000000" points="8.5,-153.2 8.5,-172.2 82.5,-172.2 82.5,-153.2 8.5,-153.2"/>
<text text-anchor="start" x="11.5" y="-159.3" font-family="Helvetica,sans-Serif" font-size="11.00" fill="#000000"> &#160;</text>
<polygon fill="#ffffff" stroke="transparent" points="82.5,-153.2 82.5,-172.2 125.5,-172.2 125.5,-153.2 82.5,-153.2"/>
<polygon fill="none" stroke="#000000" points="82.5,-153.2 82.5,-172.2 125.5,-172.2 125.5,-153.2 82.5,-153.2"/>
<text text-anchor="start" x="116.3862" y="-159.3" font-family="Helvetica,sans-Serif" font-size="11.00" fill="#000000"> &#160;</text>
<polygon fill="#ffffff" stroke="transparent" points="125.5,-153.2 125.5,-172.2 177.5,-172.2 177.5,-153.2 125.5,-153.2"/>
<polygon fill="none" stroke="#000000" points="125.5,-153.2 125.5,-172.2 177.5,-172.2 177.5,-153.2 125.5,-153.2"/>
<text text-anchor="start" x="158.9053" y="-159.3" font-family="Helvetica,sans-Serif" font-size="11.00" fill="#000000">4 &gt;</text>
</a>
</g>
</g>
<!-- position_discrepancies&#45;&gt;margin_statements -->
<g id="edge1" class="edge">
<title>position_discrepancies:w&#45;&gt;margin_statements:e</title>
<path fill="none" stroke="#000000" d="M213.4203,-356.2C201.5435,-356.2 194.158,-356.2 177.5,-356.2"/>
<polygon fill="#000000" stroke="#000000" points="220,-356.2001 228,-359.8 224,-356.2 228,-356.2 228,-356.2 228,-356.2 224,-356.2 228,-352.6 220,-356.2001 220,-356.2001"/>
<ellipse fill="none" stroke="#000000" cx="216.8" cy="-356.2001" rx="3.2" ry="3.2"/>
</g>
</g>
</svg>
