<?xml version="1.0" encoding="UTF-8" standalone="no"?>
<!DOCTYPE svg PUBLIC "-//W3C//DTD SVG 1.1//EN"
 "http://www.w3.org/Graphics/SVG/1.1/DTD/svg11.dtd">
<!-- Generated by graphviz version 2.40.1 (20161225.0304)
 -->
<!-- Title: twoDegreesRelationshipsDiagram Pages: 1 -->
<svg width="558pt" height="673pt"
 viewBox="0.00 0.00 558.00 673.20" xmlns="http://www.w3.org/2000/svg" xmlns:xlink="http://www.w3.org/1999/xlink">
<g id="graph0" class="graph" transform="scale(1 1) rotate(0) translate(4 669.2)">
<title>twoDegreesRelationshipsDiagram</title>
<polygon fill="#ffffff" stroke="transparent" points="-4,4 -4,-669.2 554,-669.2 554,4 -4,4"/>
<text text-anchor="middle" x="72.4936" y="-7.3" font-family="Helvetica,sans-Serif" font-size="11.00" fill="#000000">Generated by SchemaSpy</text>
<!-- collateral_ledger -->
<g id="node1" class="node">
<title>collateral_ledger</title>
<g id="a_node1"><a xlink:href="../../tables/collateral_ledger.html" xlink:title="collateral_ledger" target="_top">
<polygon fill="#ffffff" stroke="transparent" points="308,-600.2 308,-661.2 460,-661.2 460,-600.2 308,-600.2"/>
<polygon fill="#f5f5f5" stroke="transparent" points="308,-637.7 308,-660.7 460,-660.7 460,-637.7 308,-637.7"/>
<polygon fill="none" stroke="#000000" points="308,-637.7 308,-660.7 460,-660.7 460,-637.7 308,-637.7"/>
<text text-anchor="start" x="313" y="-646.3" font-family="Helvetica,sans-Serif" font-weight="bold" font-size="11.00" fill="#000000">collateral_ledger</text>
<text text-anchor="start" x="425.5219" y="-645.8" font-family="Helvetica,sans-Serif" font-size="11.00" fill="#000000">[table]</text>
<polygon fill="none" stroke="#000000" points="308,-618.7 308,-637.7 460,-637.7 460,-618.7 308,-618.7"/>
<text text-anchor="start" x="311" y="-624.8" font-family="Helvetica,sans-Serif" font-size="11.00" fill="#000000">...</text>
<polygon fill="#ffffff" stroke="transparent" points="308,-599.7 308,-618.7 382,-618.7 382,-599.7 308,-599.7"/>
<polygon fill="none" stroke="#000000" points="308,-599.7 308,-618.7 382,-618.7 382,-599.7 308,-599.7"/>
<text text-anchor="start" x="311" y="-605.8" font-family="Helvetica,sans-Serif" font-size="11.00" fill="#000000">&lt; 1</text>
<polygon fill="#ffffff" stroke="transparent" points="382,-599.7 382,-618.7 421,-618.7 421,-599.7 382,-599.7"/>
<polygon fill="none" stroke="#000000" points="382,-599.7 382,-618.7 421,-618.7 421,-599.7 382,-599.7"/>
<text text-anchor="start" x="411.8862" y="-605.8" font-family="Helvetica,sans-Serif" font-size="11.00" fill="#000000"> &#160;</text>
<polygon fill="#ffffff" stroke="transparent" points="421,-599.7 421,-618.7 460,-618.7 460,-599.7 421,-599.7"/>
<polygon fill="none" stroke="#000000" points="421,-599.7 421,-618.7 460,-618.7 460,-599.7 421,-599.7"/>
<text text-anchor="start" x="450.8862" y="-605.8" font-family="Helvetica,sans-Serif" font-size="11.00" fill="#000000"> &#160;</text>
</a>
</g>
</g>
<!-- margin_statements -->
<g id="node2" class="node">
<title>margin_statements</title>
<g id="a_node2"><a xlink:href="../../tables/margin_statements.html" xlink:title="margin_statements" target="_top">
<polygon fill="#ffffff" stroke="transparent" points="8,-289.2 8,-526.2 177,-526.2 177,-289.2 8,-289.2"/>
<polygon fill="#f5f5f5" stroke="transparent" points="8.5,-502.7 8.5,-525.7 177.5,-525.7 177.5,-502.7 8.5,-502.7"/>
<polygon fill="none" stroke="#000000" points="8.5,-502.7 8.5,-525.7 177.5,-525.7 177.5,-502.7 8.5,-502.7"/>
<text text-anchor="start" x="13.5" y="-511.3" font-family="Helvetica,sans-Serif" font-weight="bold" font-size="11.00" fill="#000000">margin_statements</text>
<text text-anchor="start" x="143.0219" y="-510.8" font-family="Helvetica,sans-Serif" font-size="11.00" fill="#000000">[table]</text>
<polygon fill="none" stroke="#000000" points="8.5,-480.7 8.5,-502.7 177.5,-502.7 177.5,-480.7 8.5,-480.7"/>
<image xlink:href="../../images/primaryKeys.png" width="11px" height="12px" preserveAspectRatio="xMinYMin meet" x="13.5" y="-497.7"/>
<text text-anchor="start" x="37.5" y="-487.8" font-family="Helvetica,sans-Serif" font-size="11.00" fill="#000000">id</text>
<polygon fill="#ffffff" stroke="transparent" points="8.5,-458.7 8.5,-480.7 177.5,-480.7 177.5,-458.7 8.5,-458.7"/>
<polygon fill="none" stroke="#000000" points="8.5,-458.7 8.5,-480.7 177.5,-480.7 177.5,-458.7 8.5,-458.7"/>
<text text-anchor="start" x="37.5" y="-465.8" font-family="Helvetica,sans-Serif" font-size="11.00" fill="#000000">statement_id</text>
<polygon fill="#ffffff" stroke="transparent" points="8.5,-436.7 8.5,-458.7 177.5,-458.7 177.5,-436.7 8.5,-436.7"/>
<polygon fill="none" stroke="#000000" points="8.5,-436.7 8.5,-458.7 177.5,-458.7 177.5,-436.7 8.5,-436.7"/>
<text text-anchor="start" x="37.5" y="-443.8" font-family="Helvetica,sans-Serif" font-size="11.00" fill="#000000">ccp_name</text>
<polygon fill="#ffffff" stroke="transparent" points="8.5,-414.7 8.5,-436.7 177.5,-436.7 177.5,-414.7 8.5,-414.7"/>
<polygon fill="none" stroke="#000000" points="8.5,-414.7 8.5,-436.7 177.5,-436.7 177.5,-414.7 8.5,-414.7"/>
<text text-anchor="start" x="37.5" y="-421.8" font-family="Helvetica,sans-Serif" font-size="11.00" fill="#000000">statement_date</text>
<polygon fill="#ffffff" stroke="transparent" points="8.5,-392.7 8.5,-414.7 177.5,-414.7 177.5,-392.7 8.5,-392.7"/>
<polygon fill="none" stroke="#000000" points="8.5,-392.7 8.5,-414.7 177.5,-414.7 177.5,-392.7 8.5,-392.7"/>
<text text-anchor="start" x="37.5" y="-399.8" font-family="Helvetica,sans-Serif" font-size="11.00" fill="#000000">status</text>
<polygon fill="#ffffff" stroke="transparent" points="8.5,-370.7 8.5,-392.7 177.5,-392.7 177.5,-370.7 8.5,-370.7"/>
<polygon fill="none" stroke="#000000" points="8.5,-370.7 8.5,-392.7 177.5,-392.7 177.5,-370.7 8.5,-370.7"/>
<text text-anchor="start" x="37.5" y="-377.8" font-family="Helvetica,sans-Serif" font-size="11.00" fill="#000000">created_at</text>
<polygon fill="#ffffff" stroke="transparent" points="8.5,-348.7 8.5,-370.7 177.5,-370.7 177.5,-348.7 8.5,-348.7"/>
<polygon fill="none" stroke="#000000" points="8.5,-348.7 8.5,-370.7 177.5,-370.7 177.5,-348.7 8.5,-348.7"/>
<text text-anchor="start" x="37.5" y="-355.8" font-family="Helvetica,sans-Serif" font-size="11.00" fill="#000000">variation_margin</text>
<polygon fill="#ffffff" stroke="transparent" points="8.5,-326.7 8.5,-348.7 177.5,-348.7 177.5,-326.7 8.5,-326.7"/>
<polygon fill="none" stroke="#000000" points="8.5,-326.7 8.5,-348.7 177.5,-348.7 177.5,-326.7 8.5,-326.7"/>
<text text-anchor="start" x="37.5" y="-333.8" font-family="Helvetica,sans-Serif" font-size="11.00" fill="#000000">initial_margin</text>
<polygon fill="none" stroke="#000000" points="8.5,-307.7 8.5,-326.7 177.5,-326.7 177.5,-307.7 8.5,-307.7"/>
<text text-anchor="start" x="11.5" y="-313.8" font-family="Helvetica,sans-Serif" font-size="11.00" fill="#000000">...</text>
<polygon fill="#ffffff" stroke="transparent" points="8.5,-288.7 8.5,-307.7 82.5,-307.7 82.5,-288.7 8.5,-288.7"/>
<polygon fill="none" stroke="#000000" points="8.5,-288.7 8.5,-307.7 82.5,-307.7 82.5,-288.7 8.5,-288.7"/>
<text text-anchor="start" x="11.5" y="-294.8" font-family="Helvetica,sans-Serif" font-size="11.00" fill="#000000"> &#160;</text>
<polygon fill="#ffffff" stroke="transparent" points="82.5,-288.7 82.5,-307.7 125.5,-307.7 125.5,-288.7 82.5,-288.7"/>
<polygon fill="none" stroke="#000000" points="82.5,-288.7 82.5,-307.7 125.5,-307.7 125.5,-288.7 82.5,-288.7"/>
<text text-anchor="start" x="116.3862" y="-294.8" font-family="Helvetica,sans-Serif" font-size="11.00" fill="#000000"> &#160;</text>
<polygon fill="#ffffff" stroke="transparent" points="125.5,-288.7 125.5,-307.7 177.5,-307.7 177.5,-288.7 125.5,-288.7"/>
<polygon fill="none" stroke="#000000" points="125.5,-288.7 125.5,-307.7 177.5,-307.7 177.5,-288.7 125.5,-288.7"/>
<text text-anchor="start" x="158.9053" y="-294.8" font-family="Helvetica,sans-Serif" font-size="11.00" fill="#000000">4 &gt;</text>
</a>
</g>
</g>
<!-- collateral_ledger&#45;&gt;margin_statements -->
<g id="edge1" class="edge">
<title>collateral_ledger:w&#45;&gt;margin_statements:e</title>
<path fill="none" stroke="#000000" d="M293.3584,-627.3549C260.4928,-625.6142 244.8812,-616.7869 218,-589.7 184.8025,-556.2484 224.6284,-491.7 177.5,-491.7"/>
<polygon fill="#000000" stroke="#000000" points="300.0022,-627.5114 307.9151,-631.299 304.0011,-627.6057 308,-627.7 308,-627.7 308,-627.7 304.0011,-627.6057 308.0849,-624.101 300.0022,-627.5114 300.0022,-627.5114"/>
<ellipse fill="none" stroke="#000000" cx="296.8031" cy="-627.436" rx="3.2" ry="3.2"/>
</g>
<!-- margin_positions -->
<g id="node3" class="node">
<title>margin_positions</title>
<g id="a_node3"><a xlink:href="../../tables/margin_positions.html" xlink:title="margin_positions" target="_top">
<polygon fill="#ffffff" stroke="transparent" points="307,-518.2 307,-579.2 461,-579.2 461,-518.2 307,-518.2"/>
<polygon fill="#f5f5f5" stroke="transparent" points="307,-555.7 307,-578.7 461,-578.7 461,-555.7 307,-555.7"/>
<polygon fill="none" stroke="#000000" points="307,-555.7 307,-578.7 461,-578.7 461,-555.7 307,-555.7"/>
<text text-anchor="start" x="312" y="-564.3" font-family="Helvetica,sans-Serif" font-weight="bold" font-size="11.00" fill="#000000">margin_positions</text>
<text text-anchor="start" x="426.5219" y="-563.8" font-family="Helvetica,sans-Serif" font-size="11.00" fill="#000000">[table]</text>
<polygon fill="none" stroke="#000000" points="307,-536.7 307,-555.7 461,-555.7 461,-536.7 307,-536.7"/>
<text text-anchor="start" x="310" y="-542.8" font-family="Helvetica,sans-Serif" font-size="11.00" fill="#000000">...</text>
<polygon fill="#ffffff" stroke="transparent" points="307,-517.7 307,-536.7 382,-536.7 382,-517.7 307,-517.7"/>
<polygon fill="none" stroke="#000000" points="307,-517.7 307,-536.7 382,-536.7 382,-517.7 307,-517.7"/>
<text text-anchor="start" x="310" y="-523.8" font-family="Helvetica,sans-Serif" font-size="11.00" fill="#000000">&lt; 1</text>
<polygon fill="#ffffff" stroke="transparent" points="382,-517.7 382,-536.7 421,-536.7 421,-517.7 382,-517.7"/>
<polygon fill="none" stroke="#000000" points="382,-517.7 382,-536.7 421,-536.7 421,-517.7 382,-517.7"/>
<text text-anchor="start" x="411.8862" y="-523.8" font-family="Helvetica,sans-Serif" font-size="11.00" fill="#000000"> &#160;</text>
<polygon fill="#ffffff" stroke="transparent" points="421,-517.7 421,-536.7 461,-536.7 461,-517.7 421,-517.7"/>
<polygon fill="none" stroke="#000000" points="421,-517.7 421,-536.7 461,-536.7 461,-517.7 421,-517.7"/>
<text text-anchor="start" x="451.8862" y="-523.8" font-family="Helvetica,sans-Serif" font-size="11.00" fill="#000000"> &#160;</text>
</a>
</g>
</g>
<!-- margin_positions&#45;&gt;margin_statements -->
<g id="edge2" class="edge">
<title>margin_positions:w&#45;&gt;margin_statements:e</title>
<path fill="none" stroke="#000000" d="M293.2897,-540.9079C260.9555,-527.692 183.8638,-491.7 177.5,-491.7"/>
<polygon fill="#000000" stroke="#000000" points="299.448,-543.0603 305.8121,-549.0984 303.224,-544.3802 307,-545.7 307,-545.7 307,-545.7 303.224,-544.3802 308.1879,-542.3016 299.448,-543.0603 299.448,-543.0603"/>
<ellipse fill="none" stroke="#000000" cx="296.4272" cy="-542.0045" rx="3.2" ry="3.2"/>
</g>
<!-- position_discrepancies -->
<g id="node4" class="node">
<title>position_discrepancies</title>
<g id="a_node4"><a xlink:href="../../tables/position_discrepancies.html" xlink:title="position_discrepancies" target="_top">
<polygon fill="#ffffff" stroke="transparent" points="226,-120.7 226,-496.7 542,-496.7 542,-120.7 226,-120.7"/>
<polygon fill="#f5f5f5" stroke="transparent" points="228,-471.7 228,-494.7 540,-494.7 540,-471.7 228,-471.7"/>
<polygon fill="none" stroke="#000000" points="228,-471.7 228,-494.7 540,-494.7 540,-471.7 228,-471.7"/>
<text text-anchor="start" x="233" y="-480.3" font-family="Helvetica,sans-Serif" font-weight="bold" font-size="11.00" fill="#000000">position_discrepancies</text>
<text text-anchor="start" x="505.0437" y="-479.8" font-family="Helvetica,sans-Serif" font-size="11.00" fill="#000000">[table]</text>
<polygon fill="none" stroke="#000000" points="228,-449.7 228,-471.7 402,-471.7 402,-449.7 228,-449.7"/>
<image xlink:href="../../images/primaryKeys.png" width="11px" height="12px" preserveAspectRatio="xMinYMin meet" x="233" y="-466.7"/>
<text text-anchor="start" x="248" y="-456.8" font-family="Helvetica,sans-Serif" font-size="11.00" fill="#000000">id</text>
<polygon fill="none" stroke="#000000" points="402,-449.7 402,-471.7 540,-471.7 540,-449.7 402,-449.7"/>
<text text-anchor="start" x="405" y="-457.4" font-family="Helvetica,sans-Serif" font-size="11.00" fill="#000000">bigserial[19]</text>
<polygon fill="#ffffff" stroke="transparent" points="228,-427.7 228,-449.7 402,-449.7 402,-427.7 228,-427.7"/>
<polygon fill="none" stroke="#000000" points="228,-427.7 228,-449.7 402,-449.7 402,-427.7 228,-427.7"/>
<image xlink:href="../../images/foreignKeys.png" width="11px" height="12px" preserveAspectRatio="xMinYMin meet" x="233" y="-444.7"/>
<text text-anchor="start" x="248" y="-434.8" font-family="Helvetica,sans-Serif" font-size="11.00" fill="#000000">statement_id</text>
<polygon fill="none" stroke="#000000" points="402,-427.7 402,-449.7 540,-449.7 540,-427.7 402,-427.7"/>
<text text-anchor="start" x="405" y="-435.4" font-family="Helvetica,sans-Serif" font-size="11.00" fill="#000000">int8[19]</text>
<polygon fill="none" stroke="#000000" points="228,-405.7 228,-427.7 402,-427.7 402,-405.7 228,-405.7"/>
<text text-anchor="start" x="248" y="-412.8" font-family="Helvetica,sans-Serif" font-size="11.00" fill="#000000">account_number</text>
<polygon fill="none" stroke="#000000" points="402,-405.7 402,-427.7 540,-427.7 540,-405.7 402,-405.7"/>
<text text-anchor="start" x="405" y="-413.4" font-family="Helvetica,sans-Serif" font-size="11.00" fill="#000000">varchar[100]</text>
<polygon fill="none" stroke="#000000" points="228,-383.7 228,-405.7 402,-405.7 402,-383.7 228,-383.7"/>
<text text-anchor="start" x="248" y="-390.8" font-family="Helvetica,sans-Serif" font-size="11.00" fill="#000000">position_type</text>
<polygon fill="none" stroke="#000000" points="402,-383.7 402,-405.7 540,-405.7 540,-383.7 402,-383.7"/>
<text text-anchor="start" x="404.9687" y="-391.4" font-family="Helvetica,sans-Serif" font-size="11.00" fill="#000000">position_type[2147483647]</text>
<polygon fill="none" stroke="#000000" points="228,-361.7 228,-383.7 402,-383.7 402,-361.7 228,-361.7"/>
<text text-anchor="start" x="248" y="-368.8" font-family="Helvetica,sans-Serif" font-size="11.00" fill="#000000">currency</text>
<polygon fill="none" stroke="#000000" points="402,-361.7 402,-383.7 540,-383.7 540,-361.7 402,-361.7"/>
<text text-anchor="start" x="405" y="-369.4" font-family="Helvetica,sans-Serif" font-size="11.00" fill="#000000">varchar[3]</text>
<polygon fill="none" stroke="#000000" points="228,-339.7 228,-361.7 402,-361.7 402,-339.7 228,-339.7"/>
<text text-anchor="start" x="248" y="-346.8" font-family="Helvetica,sans-Serif" font-size="11.00" fill="#000000">expected_amount</text>
<polygon fill="none" stroke="#000000" points="402,-339.7 402,-361.7 540,-361.7 540,-339.7 402,-339.7"/>
<text text-anchor="start" x="405" y="-347.4" font-family="Helvetica,sans-Serif" font-size="11.00" fill="#000000">numeric[20,4]</text>
<polygon fill="none" stroke="#000000" points="228,-317.7 228,-339.7 402,-339.7 402,-317.7 228,-317.7"/>
<text text-anchor="start" x="248" y="-324.8" font-family="Helvetica,sans-Serif" font-size="11.00" fill="#000000">actual_amount</text>
<polygon fill="none" stroke="#000000" points="402,-317.7 402,-339.7 540,-339.7 540,-317.7 402,-317.7"/>
<text text-anchor="start" x="405" y="-325.4" font-family="Helvetica,sans-Serif" font-size="11.00" fill="#000000">numeric[20,4]</text>
<polygon fill="none" stroke="#000000" points="228,-295.7 228,-317.7 402,-317.7 402,-295.7 228,-295.7"/>
<text text-anchor="start" x="248" y="-302.8" font-family="Helvetica,sans-Serif" font-size="11.00" fill="#000000">variance_amount</text>
<polygon fill="none" stroke="#000000" points="402,-295.7 402,-317.7 540,-317.7 540,-295.7 402,-295.7"/>
<text text-anchor="start" x="405" y="-303.4" font-family="Helvetica,sans-Serif" font-size="11.00" fill="#000000">numeric[20,4]</text>
<polygon fill="none" stroke="#000000" points="228,-273.7 228,-295.7 402,-295.7 402,-273.7 228,-273.7"/>
<text text-anchor="start" x="248" y="-280.8" font-family="Helvetica,sans-Serif" font-size="11.00" fill="#000000">variance_percentage</text>
<polygon fill="none" stroke="#000000" points="402,-273.7 402,-295.7 540,-295.7 540,-273.7 402,-273.7"/>
<text text-anchor="start" x="405" y="-281.4" font-family="Helvetica,sans-Serif" font-size="11.00" fill="#000000">numeric[8,4]</text>
<polygon fill="none" stroke="#000000" points="228,-251.7 228,-273.7 402,-273.7 402,-251.7 228,-251.7"/>
<text text-anchor="start" x="248" y="-258.8" font-family="Helvetica,sans-Serif" font-size="11.00" fill="#000000">tolerance_threshold</text>
<polygon fill="none" stroke="#000000" points="402,-251.7 402,-273.7 540,-273.7 540,-251.7 402,-251.7"/>
<text text-anchor="start" x="405" y="-259.4" font-family="Helvetica,sans-Serif" font-size="11.00" fill="#000000">numeric[8,4]</text>
<polygon fill="#ffffff" stroke="transparent" points="228,-229.7 228,-251.7 402,-251.7 402,-229.7 228,-229.7"/>
<polygon fill="none" stroke="#000000" points="228,-229.7 228,-251.7 402,-251.7 402,-229.7 228,-229.7"/>
<text text-anchor="start" x="248" y="-236.8" font-family="Helvetica,sans-Serif" font-size="11.00" fill="#000000">is_material</text>
<polygon fill="none" stroke="#000000" points="402,-229.7 402,-251.7 540,-251.7 540,-229.7 402,-229.7"/>
<text text-anchor="start" x="405" y="-237.4" font-family="Helvetica,sans-Serif" font-size="11.00" fill="#000000">bool[1]</text>
<polygon fill="#ffffff" stroke="transparent" points="228,-207.7 228,-229.7 402,-229.7 402,-207.7 228,-207.7"/>
<polygon fill="none" stroke="#000000" points="228,-207.7 228,-229.7 402,-229.7 402,-207.7 228,-207.7"/>
<text text-anchor="start" x="248" y="-214.8" font-family="Helvetica,sans-Serif" font-size="11.00" fill="#000000">resolution_status</text>
<polygon fill="none" stroke="#000000" points="402,-207.7 402,-229.7 540,-229.7 540,-207.7 402,-207.7"/>
<text text-anchor="start" x="405" y="-215.4" font-family="Helvetica,sans-Serif" font-size="11.00" fill="#000000">varchar[50]</text>
<polygon fill="none" stroke="#000000" points="228,-185.7 228,-207.7 402,-207.7 402,-185.7 228,-185.7"/>
<text text-anchor="start" x="248" y="-192.8" font-family="Helvetica,sans-Serif" font-size="11.00" fill="#000000">resolution_notes</text>
<polygon fill="none" stroke="#000000" points="402,-185.7 402,-207.7 540,-207.7 540,-185.7 402,-185.7"/>
<text text-anchor="start" x="405" y="-193.4" font-family="Helvetica,sans-Serif" font-size="11.00" fill="#000000">text[2147483647]</text>
<polygon fill="none" stroke="#000000" points="228,-163.7 228,-185.7 402,-185.7 402,-163.7 228,-163.7"/>
<text text-anchor="start" x="248" y="-170.8" font-family="Helvetica,sans-Serif" font-size="11.00" fill="#000000">created_at</text>
<polygon fill="none" stroke="#000000" points="402,-163.7 402,-185.7 540,-185.7 540,-163.7 402,-163.7"/>
<text text-anchor="start" x="405" y="-171.4" font-family="Helvetica,sans-Serif" font-size="11.00" fill="#000000">timestamptz[35,6]</text>
<polygon fill="none" stroke="#000000" points="228,-141.7 228,-163.7 402,-163.7 402,-141.7 228,-141.7"/>
<text text-anchor="start" x="248" y="-148.8" font-family="Helvetica,sans-Serif" font-size="11.00" fill="#000000">resolved_at</text>
<polygon fill="none" stroke="#000000" points="402,-141.7 402,-163.7 540,-163.7 540,-141.7 402,-141.7"/>
<text text-anchor="start" x="405" y="-149.4" font-family="Helvetica,sans-Serif" font-size="11.00" fill="#000000">timestamptz[35,6]</text>
<polygon fill="#ffffff" stroke="transparent" points="228,-122.7 228,-141.7 319,-141.7 319,-122.7 228,-122.7"/>
<polygon fill="none" stroke="#000000" points="228,-122.7 228,-141.7 319,-141.7 319,-122.7 228,-122.7"/>
<text text-anchor="start" x="231" y="-128.8" font-family="Helvetica,sans-Serif" font-size="11.00" fill="#000000">&lt; 1</text>
<polygon fill="#ffffff" stroke="transparent" points="319,-122.7 319,-141.7 402,-141.7 402,-122.7 319,-122.7"/>
<polygon fill="none" stroke="#000000" points="319,-122.7 319,-141.7 402,-141.7 402,-122.7 319,-122.7"/>
<text text-anchor="start" x="392.8862" y="-128.8" font-family="Helvetica,sans-Serif" font-size="11.00" fill="#000000"> &#160;</text>
<polygon fill="#ffffff" stroke="transparent" points="402,-122.7 402,-141.7 540,-141.7 540,-122.7 402,-122.7"/>
<polygon fill="none" stroke="#000000" points="402,-122.7 402,-141.7 540,-141.7 540,-122.7 402,-122.7"/>
<text text-anchor="start" x="521.4053" y="-128.8" font-family="Helvetica,sans-Serif" font-size="11.00" fill="#000000">0 &gt;</text>
<polygon fill="none" stroke="#000000" stroke-width="2" points="227,-121.7 227,-495.7 541,-495.7 541,-121.7 227,-121.7"/>
</a>
</g>
</g>
<!-- position_discrepancies&#45;&gt;margin_statements -->
<g id="edge3" class="edge">
<title>position_discrepancies:w&#45;&gt;margin_statements:e</title>
<path fill="none" stroke="#000000" d="M214.0458,-443.5911C199.2722,-456.7117 203.9358,-491.7 177.5,-491.7"/>
<polygon fill="#000000" stroke="#000000" points="220.4503,-441.3463 229.1908,-442.0974 224.2252,-440.0231 228,-438.7 228,-438.7 228,-438.7 224.2252,-440.0231 226.8092,-435.3026 220.4503,-441.3463 220.4503,-441.3463"/>
<ellipse fill="none" stroke="#000000" cx="217.4305" cy="-442.4048" rx="3.2" ry="3.2"/>
</g>
<!-- statement_processing_log -->
<g id="node5" class="node">
<title>statement_processing_log</title>
<g id="a_node5"><a xlink:href="../../tables/statement_processing_log.html" xlink:title="statement_processing_log" target="_top">
<polygon fill="#ffffff" stroke="transparent" points="276.5,-38.2 276.5,-99.2 491.5,-99.2 491.5,-38.2 276.5,-38.2"/>
<polygon fill="#f5f5f5" stroke="transparent" points="277,-75.7 277,-98.7 492,-98.7 492,-75.7 277,-75.7"/>
<polygon fill="none" stroke="#000000" points="277,-75.7 277,-98.7 492,-98.7 492,-75.7 277,-75.7"/>
<text text-anchor="start" x="282" y="-84.3" font-family="Helvetica,sans-Serif" font-weight="bold" font-size="11.00" fill="#000000">statement_processing_log</text>
<text text-anchor="start" x="457.5219" y="-83.8" font-family="Helvetica,sans-Serif" font-size="11.00" fill="#000000">[table]</text>
<polygon fill="none" stroke="#000000" points="277,-56.7 277,-75.7 492,-75.7 492,-56.7 277,-56.7"/>
<text text-anchor="start" x="280" y="-62.8" font-family="Helvetica,sans-Serif" font-size="11.00" fill="#000000">...</text>
<polygon fill="#ffffff" stroke="transparent" points="277,-37.7 277,-56.7 383,-56.7 383,-37.7 277,-37.7"/>
<polygon fill="none" stroke="#000000" points="277,-37.7 277,-56.7 383,-56.7 383,-37.7 277,-37.7"/>
<text text-anchor="start" x="280" y="-43.8" font-family="Helvetica,sans-Serif" font-size="11.00" fill="#000000">&lt; 1</text>
<polygon fill="#ffffff" stroke="transparent" points="383,-37.7 383,-56.7 437,-56.7 437,-37.7 383,-37.7"/>
<polygon fill="none" stroke="#000000" points="383,-37.7 383,-56.7 437,-56.7 437,-37.7 383,-37.7"/>
<text text-anchor="start" x="427.8862" y="-43.8" font-family="Helvetica,sans-Serif" font-size="11.00" fill="#000000"> &#160;</text>
<polygon fill="#ffffff" stroke="transparent" points="437,-37.7 437,-56.7 492,-56.7 492,-37.7 437,-37.7"/>
<polygon fill="none" stroke="#000000" points="437,-37.7 437,-56.7 492,-56.7 492,-37.7 437,-37.7"/>
<text text-anchor="start" x="482.8862" y="-43.8" font-family="Helvetica,sans-Serif" font-size="11.00" fill="#000000"> &#160;</text>
</a>
</g>
</g>
<!-- statement_processing_log&#45;&gt;margin_statements -->
<g id="edge4" class="edge">
<title>statement_processing_log:w&#45;&gt;margin_statements:e</title>
<path fill="none" stroke="#000000" d="M262.5059,-66.9962C240.6195,-71.371 231.5196,-86.6744 218,-110.7 176.2451,-184.9022 262.6437,-491.7 177.5,-491.7"/>
<polygon fill="#000000" stroke="#000000" points="269.0318,-66.4127 277.3207,-69.2857 273.0159,-66.0563 277,-65.7 277,-65.7 277,-65.7 273.0159,-66.0563 276.6793,-62.1143 269.0318,-66.4127 269.0318,-66.4127"/>
<ellipse fill="none" stroke="#000000" cx="265.8445" cy="-66.6977" rx="3.2" ry="3.2"/>
</g>
</g>
</svg>
