<?xml version="1.0" encoding="UTF-8" standalone="no"?>
<!DOCTYPE svg PUBLIC "-//W3C//DTD SVG 1.1//EN"
 "http://www.w3.org/Graphics/SVG/1.1/DTD/svg11.dtd">
<!-- Generated by graphviz version 2.40.1 (20161225.0304)
 -->
<!-- Title: oneDegreeRelationshipsDiagram Pages: 1 -->
<svg width="790pt" height="678pt"
 viewBox="0.00 0.00 790.00 677.71" xmlns="http://www.w3.org/2000/svg" xmlns:xlink="http://www.w3.org/1999/xlink">
<g id="graph0" class="graph" transform="scale(1 1) rotate(0) translate(4 673.7114)">
<title>oneDegreeRelationshipsDiagram</title>
<polygon fill="#ffffff" stroke="transparent" points="-4,4 -4,-673.7114 786,-673.7114 786,4 -4,4"/>
<text text-anchor="middle" x="72.4936" y="-7.3" font-family="Helvetica,sans-Serif" font-size="11.00" fill="#000000">Generated by SchemaSpy</text>
<!-- sa_ccr_audit_trail -->
<g id="node1" class="node">
<title>sa_ccr_audit_trail</title>
<g id="a_node1"><a xlink:href="../../tables/sa_ccr_audit_trail.html" xlink:title="sa_ccr_audit_trail" target="_top">
<polygon fill="#ffffff" stroke="transparent" points="581.5,-560.7114 581.5,-665.7114 754.5,-665.7114 754.5,-560.7114 581.5,-560.7114"/>
<polygon fill="#f5f5f5" stroke="transparent" points="582,-642.2114 582,-665.2114 755,-665.2114 755,-642.2114 582,-642.2114"/>
<polygon fill="none" stroke="#000000" points="582,-642.2114 582,-665.2114 755,-665.2114 755,-642.2114 582,-642.2114"/>
<text text-anchor="start" x="587" y="-650.8114" font-family="Helvetica,sans-Serif" font-weight="bold" font-size="11.00" fill="#000000">sa_ccr_audit_trail</text>
<text text-anchor="start" x="720.0437" y="-650.3114" font-family="Helvetica,sans-Serif" font-size="11.00" fill="#000000">[table]</text>
<polygon fill="none" stroke="#000000" points="582,-620.2114 582,-642.2114 755,-642.2114 755,-620.2114 582,-620.2114"/>
<image xlink:href="../../images/primaryKeys.png" width="11px" height="12px" preserveAspectRatio="xMinYMin meet" x="587" y="-637.211"/>
<text text-anchor="start" x="602" y="-627.3114" font-family="Helvetica,sans-Serif" font-size="11.00" fill="#000000">id</text>
<polygon fill="#ffffff" stroke="transparent" points="582,-598.2114 582,-620.2114 755,-620.2114 755,-598.2114 582,-598.2114"/>
<polygon fill="none" stroke="#000000" points="582,-598.2114 582,-620.2114 755,-620.2114 755,-598.2114 582,-598.2114"/>
<image xlink:href="../../images/foreignKeys.png" width="11px" height="12px" preserveAspectRatio="xMinYMin meet" x="587" y="-615.211"/>
<text text-anchor="start" x="602" y="-605.3114" font-family="Helvetica,sans-Serif" font-size="11.00" fill="#000000">calculation_id</text>
<polygon fill="none" stroke="#000000" points="582,-579.2114 582,-598.2114 755,-598.2114 755,-579.2114 582,-579.2114"/>
<text text-anchor="start" x="585" y="-585.3114" font-family="Helvetica,sans-Serif" font-size="11.00" fill="#000000">...</text>
<polygon fill="#ffffff" stroke="transparent" points="582,-560.2114 582,-579.2114 667,-579.2114 667,-560.2114 582,-560.2114"/>
<polygon fill="none" stroke="#000000" points="582,-560.2114 582,-579.2114 667,-579.2114 667,-560.2114 582,-560.2114"/>
<text text-anchor="start" x="585" y="-566.3114" font-family="Helvetica,sans-Serif" font-size="11.00" fill="#000000">&lt; 1</text>
<polygon fill="#ffffff" stroke="transparent" points="667,-560.2114 667,-579.2114 711,-579.2114 711,-560.2114 667,-560.2114"/>
<polygon fill="none" stroke="#000000" points="667,-560.2114 667,-579.2114 711,-579.2114 711,-560.2114 667,-560.2114"/>
<text text-anchor="start" x="701.8862" y="-566.3114" font-family="Helvetica,sans-Serif" font-size="11.00" fill="#000000"> &#160;</text>
<polygon fill="#ffffff" stroke="transparent" points="711,-560.2114 711,-579.2114 755,-579.2114 755,-560.2114 711,-560.2114"/>
<polygon fill="none" stroke="#000000" points="711,-560.2114 711,-579.2114 755,-579.2114 755,-560.2114 711,-560.2114"/>
<text text-anchor="start" x="745.8862" y="-566.3114" font-family="Helvetica,sans-Serif" font-size="11.00" fill="#000000"> &#160;</text>
</a>
</g>
</g>
<!-- sa_ccr_calculations -->
<g id="node2" class="node">
<title>sa_ccr_calculations</title>
<g id="a_node2"><a xlink:href="../../tables/sa_ccr_calculations.html" xlink:title="sa_ccr_calculations" target="_top">
<polygon fill="#ffffff" stroke="transparent" points="227,-74.2114 227,-604.2114 513,-604.2114 513,-74.2114 227,-74.2114"/>
<polygon fill="#f5f5f5" stroke="transparent" points="229,-579.2114 229,-602.2114 511,-602.2114 511,-579.2114 229,-579.2114"/>
<polygon fill="none" stroke="#000000" points="229,-579.2114 229,-602.2114 511,-602.2114 511,-579.2114 229,-579.2114"/>
<text text-anchor="start" x="234" y="-587.8114" font-family="Helvetica,sans-Serif" font-weight="bold" font-size="11.00" fill="#000000">sa_ccr_calculations</text>
<text text-anchor="start" x="476.0437" y="-587.3114" font-family="Helvetica,sans-Serif" font-size="11.00" fill="#000000">[table]</text>
<polygon fill="none" stroke="#000000" points="229,-557.2114 229,-579.2114 427,-579.2114 427,-557.2114 229,-557.2114"/>
<image xlink:href="../../images/primaryKeys.png" width="11px" height="12px" preserveAspectRatio="xMinYMin meet" x="234" y="-574.211"/>
<text text-anchor="start" x="249" y="-564.3114" font-family="Helvetica,sans-Serif" font-size="11.00" fill="#000000">id</text>
<polygon fill="none" stroke="#000000" points="427,-557.2114 427,-579.2114 511,-579.2114 511,-557.2114 427,-557.2114"/>
<text text-anchor="start" x="430" y="-564.9114" font-family="Helvetica,sans-Serif" font-size="11.00" fill="#000000">bigserial[19]</text>
<polygon fill="#ffffff" stroke="transparent" points="229,-535.2114 229,-557.2114 427,-557.2114 427,-535.2114 229,-535.2114"/>
<polygon fill="none" stroke="#000000" points="229,-535.2114 229,-557.2114 427,-557.2114 427,-535.2114 229,-535.2114"/>
<text text-anchor="start" x="249" y="-542.3114" font-family="Helvetica,sans-Serif" font-size="11.00" fill="#000000">calculation_id</text>
<polygon fill="none" stroke="#000000" points="427,-535.2114 427,-557.2114 511,-557.2114 511,-535.2114 427,-535.2114"/>
<text text-anchor="start" x="430" y="-542.9114" font-family="Helvetica,sans-Serif" font-size="11.00" fill="#000000">varchar[100]</text>
<polygon fill="#ffffff" stroke="transparent" points="229,-513.2114 229,-535.2114 427,-535.2114 427,-513.2114 229,-513.2114"/>
<polygon fill="none" stroke="#000000" points="229,-513.2114 229,-535.2114 427,-535.2114 427,-513.2114 229,-513.2114"/>
<image xlink:href="../../images/foreignKeys.png" width="11px" height="12px" preserveAspectRatio="xMinYMin meet" x="234" y="-530.211"/>
<text text-anchor="start" x="249" y="-520.3114" font-family="Helvetica,sans-Serif" font-size="11.00" fill="#000000">netting_set_id</text>
<polygon fill="none" stroke="#000000" points="427,-513.2114 427,-535.2114 511,-535.2114 511,-513.2114 427,-513.2114"/>
<text text-anchor="start" x="430" y="-520.9114" font-family="Helvetica,sans-Serif" font-size="11.00" fill="#000000">varchar[100]</text>
<polygon fill="#ffffff" stroke="transparent" points="229,-491.2114 229,-513.2114 427,-513.2114 427,-491.2114 229,-491.2114"/>
<polygon fill="none" stroke="#000000" points="229,-491.2114 229,-513.2114 427,-513.2114 427,-491.2114 229,-491.2114"/>
<text text-anchor="start" x="249" y="-498.3114" font-family="Helvetica,sans-Serif" font-size="11.00" fill="#000000">calculation_date</text>
<polygon fill="none" stroke="#000000" points="427,-491.2114 427,-513.2114 511,-513.2114 511,-491.2114 427,-491.2114"/>
<text text-anchor="start" x="430" y="-498.9114" font-family="Helvetica,sans-Serif" font-size="11.00" fill="#000000">date[13]</text>
<polygon fill="#ffffff" stroke="transparent" points="229,-469.2114 229,-491.2114 427,-491.2114 427,-469.2114 229,-469.2114"/>
<polygon fill="none" stroke="#000000" points="229,-469.2114 229,-491.2114 427,-491.2114 427,-469.2114 229,-469.2114"/>
<text text-anchor="start" x="249" y="-476.3114" font-family="Helvetica,sans-Serif" font-size="11.00" fill="#000000">jurisdiction</text>
<polygon fill="none" stroke="#000000" points="427,-469.2114 427,-491.2114 511,-491.2114 511,-469.2114 427,-469.2114"/>
<text text-anchor="start" x="430" y="-476.9114" font-family="Helvetica,sans-Serif" font-size="11.00" fill="#000000">varchar[10]</text>
<polygon fill="none" stroke="#000000" points="229,-447.2114 229,-469.2114 427,-469.2114 427,-447.2114 229,-447.2114"/>
<text text-anchor="start" x="249" y="-454.3114" font-family="Helvetica,sans-Serif" font-size="11.00" fill="#000000">alpha_factor</text>
<polygon fill="none" stroke="#000000" points="427,-447.2114 427,-469.2114 511,-469.2114 511,-447.2114 427,-447.2114"/>
<text text-anchor="start" x="430" y="-454.9114" font-family="Helvetica,sans-Serif" font-size="11.00" fill="#000000">numeric[5,3]</text>
<polygon fill="none" stroke="#000000" points="229,-425.2114 229,-447.2114 427,-447.2114 427,-425.2114 229,-425.2114"/>
<text text-anchor="start" x="249" y="-432.3114" font-family="Helvetica,sans-Serif" font-size="11.00" fill="#000000">gross_mtm</text>
<polygon fill="none" stroke="#000000" points="427,-425.2114 427,-447.2114 511,-447.2114 511,-425.2114 427,-425.2114"/>
<text text-anchor="start" x="430" y="-432.9114" font-family="Helvetica,sans-Serif" font-size="11.00" fill="#000000">numeric[20,8]</text>
<polygon fill="none" stroke="#000000" points="229,-403.2114 229,-425.2114 427,-425.2114 427,-403.2114 229,-403.2114"/>
<text text-anchor="start" x="249" y="-410.3114" font-family="Helvetica,sans-Serif" font-size="11.00" fill="#000000">vm_received</text>
<polygon fill="none" stroke="#000000" points="427,-403.2114 427,-425.2114 511,-425.2114 511,-403.2114 427,-403.2114"/>
<text text-anchor="start" x="430" y="-410.9114" font-family="Helvetica,sans-Serif" font-size="11.00" fill="#000000">numeric[20,8]</text>
<polygon fill="none" stroke="#000000" points="229,-381.2114 229,-403.2114 427,-403.2114 427,-381.2114 229,-381.2114"/>
<text text-anchor="start" x="249" y="-388.3114" font-family="Helvetica,sans-Serif" font-size="11.00" fill="#000000">vm_posted</text>
<polygon fill="none" stroke="#000000" points="427,-381.2114 427,-403.2114 511,-403.2114 511,-381.2114 427,-381.2114"/>
<text text-anchor="start" x="430" y="-388.9114" font-family="Helvetica,sans-Serif" font-size="11.00" fill="#000000">numeric[20,8]</text>
<polygon fill="none" stroke="#000000" points="229,-359.2114 229,-381.2114 427,-381.2114 427,-359.2114 229,-359.2114"/>
<text text-anchor="start" x="249" y="-366.3114" font-family="Helvetica,sans-Serif" font-size="11.00" fill="#000000">im_received</text>
<polygon fill="none" stroke="#000000" points="427,-359.2114 427,-381.2114 511,-381.2114 511,-359.2114 427,-359.2114"/>
<text text-anchor="start" x="430" y="-366.9114" font-family="Helvetica,sans-Serif" font-size="11.00" fill="#000000">numeric[20,8]</text>
<polygon fill="none" stroke="#000000" points="229,-337.2114 229,-359.2114 427,-359.2114 427,-337.2114 229,-337.2114"/>
<text text-anchor="start" x="249" y="-344.3114" font-family="Helvetica,sans-Serif" font-size="11.00" fill="#000000">im_posted</text>
<polygon fill="none" stroke="#000000" points="427,-337.2114 427,-359.2114 511,-359.2114 511,-337.2114 427,-337.2114"/>
<text text-anchor="start" x="430" y="-344.9114" font-family="Helvetica,sans-Serif" font-size="11.00" fill="#000000">numeric[20,8]</text>
<polygon fill="none" stroke="#000000" points="229,-315.2114 229,-337.2114 427,-337.2114 427,-315.2114 229,-315.2114"/>
<text text-anchor="start" x="249" y="-322.3114" font-family="Helvetica,sans-Serif" font-size="11.00" fill="#000000">replacement_cost</text>
<polygon fill="none" stroke="#000000" points="427,-315.2114 427,-337.2114 511,-337.2114 511,-315.2114 427,-315.2114"/>
<text text-anchor="start" x="430" y="-322.9114" font-family="Helvetica,sans-Serif" font-size="11.00" fill="#000000">numeric[20,8]</text>
<polygon fill="none" stroke="#000000" points="229,-293.2114 229,-315.2114 427,-315.2114 427,-293.2114 229,-293.2114"/>
<text text-anchor="start" x="249" y="-300.3114" font-family="Helvetica,sans-Serif" font-size="11.00" fill="#000000">effective_notional</text>
<polygon fill="none" stroke="#000000" points="427,-293.2114 427,-315.2114 511,-315.2114 511,-293.2114 427,-293.2114"/>
<text text-anchor="start" x="430" y="-300.9114" font-family="Helvetica,sans-Serif" font-size="11.00" fill="#000000">numeric[20,8]</text>
<polygon fill="none" stroke="#000000" points="229,-271.2114 229,-293.2114 427,-293.2114 427,-271.2114 229,-271.2114"/>
<text text-anchor="start" x="249" y="-278.3114" font-family="Helvetica,sans-Serif" font-size="11.00" fill="#000000">supervisory_addon</text>
<polygon fill="none" stroke="#000000" points="427,-271.2114 427,-293.2114 511,-293.2114 511,-271.2114 427,-271.2114"/>
<text text-anchor="start" x="430" y="-278.9114" font-family="Helvetica,sans-Serif" font-size="11.00" fill="#000000">numeric[20,8]</text>
<polygon fill="none" stroke="#000000" points="229,-249.2114 229,-271.2114 427,-271.2114 427,-249.2114 229,-249.2114"/>
<text text-anchor="start" x="249" y="-256.3114" font-family="Helvetica,sans-Serif" font-size="11.00" fill="#000000">multiplier</text>
<polygon fill="none" stroke="#000000" points="427,-249.2114 427,-271.2114 511,-271.2114 511,-249.2114 427,-249.2114"/>
<text text-anchor="start" x="430" y="-256.9114" font-family="Helvetica,sans-Serif" font-size="11.00" fill="#000000">numeric[10,6]</text>
<polygon fill="none" stroke="#000000" points="229,-227.2114 229,-249.2114 427,-249.2114 427,-227.2114 229,-227.2114"/>
<text text-anchor="start" x="249" y="-234.3114" font-family="Helvetica,sans-Serif" font-size="11.00" fill="#000000">potential_future_exposure</text>
<polygon fill="none" stroke="#000000" points="427,-227.2114 427,-249.2114 511,-249.2114 511,-227.2114 427,-227.2114"/>
<text text-anchor="start" x="430" y="-234.9114" font-family="Helvetica,sans-Serif" font-size="11.00" fill="#000000">numeric[20,8]</text>
<polygon fill="none" stroke="#000000" points="229,-205.2114 229,-227.2114 427,-227.2114 427,-205.2114 229,-205.2114"/>
<text text-anchor="start" x="249" y="-212.3114" font-family="Helvetica,sans-Serif" font-size="11.00" fill="#000000">exposure_at_default</text>
<polygon fill="none" stroke="#000000" points="427,-205.2114 427,-227.2114 511,-227.2114 511,-205.2114 427,-205.2114"/>
<text text-anchor="start" x="430" y="-212.9114" font-family="Helvetica,sans-Serif" font-size="11.00" fill="#000000">numeric[20,8]</text>
<polygon fill="none" stroke="#000000" points="229,-183.2114 229,-205.2114 427,-205.2114 427,-183.2114 229,-183.2114"/>
<text text-anchor="start" x="249" y="-190.3114" font-family="Helvetica,sans-Serif" font-size="11.00" fill="#000000">calculation_status</text>
<polygon fill="none" stroke="#000000" points="427,-183.2114 427,-205.2114 511,-205.2114 511,-183.2114 427,-183.2114"/>
<text text-anchor="start" x="430" y="-190.9114" font-family="Helvetica,sans-Serif" font-size="11.00" fill="#000000">varchar[20]</text>
<polygon fill="none" stroke="#000000" points="229,-161.2114 229,-183.2114 427,-183.2114 427,-161.2114 229,-161.2114"/>
<text text-anchor="start" x="249" y="-168.3114" font-family="Helvetica,sans-Serif" font-size="11.00" fill="#000000">created_by</text>
<polygon fill="none" stroke="#000000" points="427,-161.2114 427,-183.2114 511,-183.2114 511,-161.2114 427,-161.2114"/>
<text text-anchor="start" x="430" y="-168.9114" font-family="Helvetica,sans-Serif" font-size="11.00" fill="#000000">varchar[100]</text>
<polygon fill="none" stroke="#000000" points="229,-139.2114 229,-161.2114 427,-161.2114 427,-139.2114 229,-139.2114"/>
<text text-anchor="start" x="249" y="-146.3114" font-family="Helvetica,sans-Serif" font-size="11.00" fill="#000000">created_at</text>
<polygon fill="none" stroke="#000000" points="427,-139.2114 427,-161.2114 511,-161.2114 511,-139.2114 427,-139.2114"/>
<text text-anchor="start" x="429.8807" y="-146.9114" font-family="Helvetica,sans-Serif" font-size="11.00" fill="#000000">timestamp[29,6]</text>
<polygon fill="none" stroke="#000000" points="229,-117.2114 229,-139.2114 427,-139.2114 427,-117.2114 229,-117.2114"/>
<text text-anchor="start" x="249" y="-124.3114" font-family="Helvetica,sans-Serif" font-size="11.00" fill="#000000">completed_at</text>
<polygon fill="none" stroke="#000000" points="427,-117.2114 427,-139.2114 511,-139.2114 511,-117.2114 427,-117.2114"/>
<text text-anchor="start" x="429.8807" y="-124.9114" font-family="Helvetica,sans-Serif" font-size="11.00" fill="#000000">timestamp[29,6]</text>
<polygon fill="none" stroke="#000000" points="229,-95.2114 229,-117.2114 427,-117.2114 427,-95.2114 229,-95.2114"/>
<text text-anchor="start" x="249" y="-102.3114" font-family="Helvetica,sans-Serif" font-size="11.00" fill="#000000">base_currency</text>
<polygon fill="none" stroke="#000000" points="427,-95.2114 427,-117.2114 511,-117.2114 511,-95.2114 427,-95.2114"/>
<text text-anchor="start" x="430" y="-102.9114" font-family="Helvetica,sans-Serif" font-size="11.00" fill="#000000">varchar[3]</text>
<polygon fill="#ffffff" stroke="transparent" points="229,-76.2114 229,-95.2114 332,-95.2114 332,-76.2114 229,-76.2114"/>
<polygon fill="none" stroke="#000000" points="229,-76.2114 229,-95.2114 332,-95.2114 332,-76.2114 229,-76.2114"/>
<text text-anchor="start" x="232" y="-82.3114" font-family="Helvetica,sans-Serif" font-size="11.00" fill="#000000">&lt; 1</text>
<polygon fill="#ffffff" stroke="transparent" points="332,-76.2114 332,-95.2114 427,-95.2114 427,-76.2114 332,-76.2114"/>
<polygon fill="none" stroke="#000000" points="332,-76.2114 332,-95.2114 427,-95.2114 427,-76.2114 332,-76.2114"/>
<text text-anchor="start" x="417.8862" y="-82.3114" font-family="Helvetica,sans-Serif" font-size="11.00" fill="#000000"> &#160;</text>
<polygon fill="#ffffff" stroke="transparent" points="427,-76.2114 427,-95.2114 511,-95.2114 511,-76.2114 427,-76.2114"/>
<polygon fill="none" stroke="#000000" points="427,-76.2114 427,-95.2114 511,-95.2114 511,-76.2114 427,-76.2114"/>
<text text-anchor="start" x="492.4053" y="-82.3114" font-family="Helvetica,sans-Serif" font-size="11.00" fill="#000000">3 &gt;</text>
<polygon fill="none" stroke="#000000" stroke-width="2" points="228,-75.2114 228,-603.2114 512,-603.2114 512,-75.2114 228,-75.2114"/>
</a>
</g>
</g>
<!-- sa_ccr_audit_trail&#45;&gt;sa_ccr_calculations -->
<g id="edge1" class="edge">
<title>sa_ccr_audit_trail:w&#45;&gt;sa_ccr_calculations:e</title>
<path fill="none" stroke="#000000" d="M567.8709,-606.1728C542.3854,-593.5883 547.5841,-546.2114 511,-546.2114"/>
<polygon fill="#000000" stroke="#000000" points="574.1788,-607.5294 581.2431,-612.731 578.0894,-608.3704 582,-609.2114 582,-609.2114 582,-609.2114 578.0894,-608.3704 582.7569,-605.6919 574.1788,-607.5294 574.1788,-607.5294"/>
<ellipse fill="none" stroke="#000000" cx="571.0504" cy="-606.8565" rx="3.2" ry="3.2"/>
</g>
<!-- netting_sets -->
<g id="node4" class="node">
<title>netting_sets</title>
<g id="a_node4"><a xlink:href="../../tables/netting_sets.html" xlink:title="netting_sets" target="_top">
<polygon fill="#ffffff" stroke="transparent" points="8,-216.7114 8,-343.7114 178,-343.7114 178,-216.7114 8,-216.7114"/>
<polygon fill="#f5f5f5" stroke="transparent" points="8,-320.2114 8,-343.2114 178,-343.2114 178,-320.2114 8,-320.2114"/>
<polygon fill="none" stroke="#000000" points="8,-320.2114 8,-343.2114 178,-343.2114 178,-320.2114 8,-320.2114"/>
<text text-anchor="start" x="13" y="-328.8114" font-family="Helvetica,sans-Serif" font-weight="bold" font-size="11.00" fill="#000000">netting_sets</text>
<text text-anchor="start" x="143.0437" y="-328.3114" font-family="Helvetica,sans-Serif" font-size="11.00" fill="#000000">[table]</text>
<polygon fill="none" stroke="#000000" points="8,-298.2114 8,-320.2114 178,-320.2114 178,-298.2114 8,-298.2114"/>
<image xlink:href="../../images/primaryKeys.png" width="11px" height="12px" preserveAspectRatio="xMinYMin meet" x="13" y="-315.211"/>
<text text-anchor="start" x="28" y="-305.3114" font-family="Helvetica,sans-Serif" font-size="11.00" fill="#000000">id</text>
<polygon fill="#ffffff" stroke="transparent" points="8,-276.2114 8,-298.2114 178,-298.2114 178,-276.2114 8,-276.2114"/>
<polygon fill="none" stroke="#000000" points="8,-276.2114 8,-298.2114 178,-298.2114 178,-276.2114 8,-276.2114"/>
<text text-anchor="start" x="28" y="-283.3114" font-family="Helvetica,sans-Serif" font-size="11.00" fill="#000000">netting_set_id</text>
<polygon fill="#ffffff" stroke="transparent" points="8,-254.2114 8,-276.2114 178,-276.2114 178,-254.2114 8,-254.2114"/>
<polygon fill="none" stroke="#000000" points="8,-254.2114 8,-276.2114 178,-276.2114 178,-254.2114 8,-254.2114"/>
<text text-anchor="start" x="28" y="-261.3114" font-family="Helvetica,sans-Serif" font-size="11.00" fill="#000000">counterparty_id</text>
<polygon fill="none" stroke="#000000" points="8,-235.2114 8,-254.2114 178,-254.2114 178,-235.2114 8,-235.2114"/>
<text text-anchor="start" x="11" y="-241.3114" font-family="Helvetica,sans-Serif" font-size="11.00" fill="#000000">...</text>
<polygon fill="#ffffff" stroke="transparent" points="8,-216.2114 8,-235.2114 82,-235.2114 82,-216.2114 8,-216.2114"/>
<polygon fill="none" stroke="#000000" points="8,-216.2114 8,-235.2114 82,-235.2114 82,-216.2114 8,-216.2114"/>
<text text-anchor="start" x="11" y="-222.3114" font-family="Helvetica,sans-Serif" font-size="11.00" fill="#000000"> &#160;</text>
<polygon fill="#ffffff" stroke="transparent" points="82,-216.2114 82,-235.2114 125,-235.2114 125,-216.2114 82,-216.2114"/>
<polygon fill="none" stroke="#000000" points="82,-216.2114 82,-235.2114 125,-235.2114 125,-216.2114 82,-216.2114"/>
<text text-anchor="start" x="115.8862" y="-222.3114" font-family="Helvetica,sans-Serif" font-size="11.00" fill="#000000"> &#160;</text>
<polygon fill="#ffffff" stroke="transparent" points="125,-216.2114 125,-235.2114 178,-235.2114 178,-216.2114 125,-216.2114"/>
<polygon fill="none" stroke="#000000" points="125,-216.2114 125,-235.2114 178,-235.2114 178,-216.2114 125,-216.2114"/>
<text text-anchor="start" x="159.4053" y="-222.3114" font-family="Helvetica,sans-Serif" font-size="11.00" fill="#000000">2 &gt;</text>
</a>
</g>
</g>
<!-- sa_ccr_calculations&#45;&gt;netting_sets -->
<g id="edge3" class="edge">
<title>sa_ccr_calculations:w&#45;&gt;netting_sets:e</title>
<path fill="none" stroke="#000000" d="M214.6205,-522.44C137.2594,-500.7523 280.2732,-287.2114 178,-287.2114"/>
<polygon fill="#000000" stroke="#000000" points="221.06,-523.2333 228.5598,-527.7844 225.03,-523.7223 229,-524.2114 229,-524.2114 229,-524.2114 225.03,-523.7223 229.4402,-520.6384 221.06,-523.2333 221.06,-523.2333"/>
<ellipse fill="none" stroke="#000000" cx="217.884" cy="-522.842" rx="3.2" ry="3.2"/>
</g>
<!-- sa_ccr_calculation_details -->
<g id="node3" class="node">
<title>sa_ccr_calculation_details</title>
<g id="a_node3"><a xlink:href="../../tables/sa_ccr_calculation_details.html" xlink:title="sa_ccr_calculation_details" target="_top">
<polygon fill="#ffffff" stroke="transparent" points="562,-434.7114 562,-539.7114 774,-539.7114 774,-434.7114 562,-434.7114"/>
<polygon fill="#f5f5f5" stroke="transparent" points="562,-516.2114 562,-539.2114 774,-539.2114 774,-516.2114 562,-516.2114"/>
<polygon fill="none" stroke="#000000" points="562,-516.2114 562,-539.2114 774,-539.2114 774,-516.2114 562,-516.2114"/>
<text text-anchor="start" x="567" y="-524.8114" font-family="Helvetica,sans-Serif" font-weight="bold" font-size="11.00" fill="#000000">sa_ccr_calculation_details</text>
<text text-anchor="start" x="739.5219" y="-524.3114" font-family="Helvetica,sans-Serif" font-size="11.00" fill="#000000">[table]</text>
<polygon fill="none" stroke="#000000" points="562,-494.2114 562,-516.2114 774,-516.2114 774,-494.2114 562,-494.2114"/>
<image xlink:href="../../images/primaryKeys.png" width="11px" height="12px" preserveAspectRatio="xMinYMin meet" x="567" y="-511.211"/>
<text text-anchor="start" x="591" y="-501.3114" font-family="Helvetica,sans-Serif" font-size="11.00" fill="#000000">id</text>
<polygon fill="none" stroke="#000000" points="562,-472.2114 562,-494.2114 774,-494.2114 774,-472.2114 562,-472.2114"/>
<image xlink:href="../../images/foreignKeys.png" width="11px" height="12px" preserveAspectRatio="xMinYMin meet" x="567" y="-489.211"/>
<text text-anchor="start" x="591" y="-479.3114" font-family="Helvetica,sans-Serif" font-size="11.00" fill="#000000">calculation_id</text>
<polygon fill="none" stroke="#000000" points="562,-453.2114 562,-472.2114 774,-472.2114 774,-453.2114 562,-453.2114"/>
<text text-anchor="start" x="565" y="-459.3114" font-family="Helvetica,sans-Serif" font-size="11.00" fill="#000000">...</text>
<polygon fill="#ffffff" stroke="transparent" points="562,-434.2114 562,-453.2114 666,-453.2114 666,-434.2114 562,-434.2114"/>
<polygon fill="none" stroke="#000000" points="562,-434.2114 562,-453.2114 666,-453.2114 666,-434.2114 562,-434.2114"/>
<text text-anchor="start" x="565" y="-440.3114" font-family="Helvetica,sans-Serif" font-size="11.00" fill="#000000">&lt; 1</text>
<polygon fill="#ffffff" stroke="transparent" points="666,-434.2114 666,-453.2114 720,-453.2114 720,-434.2114 666,-434.2114"/>
<polygon fill="none" stroke="#000000" points="666,-434.2114 666,-453.2114 720,-453.2114 720,-434.2114 666,-434.2114"/>
<text text-anchor="start" x="710.8862" y="-440.3114" font-family="Helvetica,sans-Serif" font-size="11.00" fill="#000000"> &#160;</text>
<polygon fill="#ffffff" stroke="transparent" points="720,-434.2114 720,-453.2114 774,-453.2114 774,-434.2114 720,-434.2114"/>
<polygon fill="none" stroke="#000000" points="720,-434.2114 720,-453.2114 774,-453.2114 774,-434.2114 720,-434.2114"/>
<text text-anchor="start" x="764.8862" y="-440.3114" font-family="Helvetica,sans-Serif" font-size="11.00" fill="#000000"> &#160;</text>
</a>
</g>
</g>
<!-- sa_ccr_calculation_details&#45;&gt;sa_ccr_calculations -->
<g id="edge2" class="edge">
<title>sa_ccr_calculation_details:w&#45;&gt;sa_ccr_calculations:e</title>
<path fill="none" stroke="#000000" d="M547.9033,-488.1549C531.525,-503.0066 540.8329,-546.2114 511,-546.2114"/>
<polygon fill="#000000" stroke="#000000" points="554.4507,-485.8589 563.1913,-486.6086 558.2254,-484.5352 562,-483.2114 562,-483.2114 562,-483.2114 558.2254,-484.5352 560.8087,-479.8143 554.4507,-485.8589 554.4507,-485.8589"/>
<ellipse fill="none" stroke="#000000" cx="551.431" cy="-486.9179" rx="3.2" ry="3.2"/>
</g>
<!-- sa_ccr_trade_mappings -->
<g id="node5" class="node">
<title>sa_ccr_trade_mappings</title>
<g id="a_node5"><a xlink:href="../../tables/sa_ccr_trade_mappings.html" xlink:title="sa_ccr_trade_mappings" target="_top">
<polygon fill="#ffffff" stroke="transparent" points="570.5,-101.7114 570.5,-250.7114 765.5,-250.7114 765.5,-101.7114 570.5,-101.7114"/>
<polygon fill="#f5f5f5" stroke="transparent" points="571,-227.2114 571,-250.2114 766,-250.2114 766,-227.2114 571,-227.2114"/>
<polygon fill="none" stroke="#000000" points="571,-227.2114 571,-250.2114 766,-250.2114 766,-227.2114 571,-227.2114"/>
<text text-anchor="start" x="576" y="-235.8114" font-family="Helvetica,sans-Serif" font-weight="bold" font-size="11.00" fill="#000000">sa_ccr_trade_mappings</text>
<text text-anchor="start" x="731.5219" y="-235.3114" font-family="Helvetica,sans-Serif" font-size="11.00" fill="#000000">[table]</text>
<polygon fill="none" stroke="#000000" points="571,-205.2114 571,-227.2114 766,-227.2114 766,-205.2114 571,-205.2114"/>
<image xlink:href="../../images/primaryKeys.png" width="11px" height="12px" preserveAspectRatio="xMinYMin meet" x="576" y="-222.211"/>
<text text-anchor="start" x="600" y="-212.3114" font-family="Helvetica,sans-Serif" font-size="11.00" fill="#000000">id</text>
<polygon fill="#ffffff" stroke="transparent" points="571,-183.2114 571,-205.2114 766,-205.2114 766,-183.2114 571,-183.2114"/>
<polygon fill="none" stroke="#000000" points="571,-183.2114 571,-205.2114 766,-205.2114 766,-183.2114 571,-183.2114"/>
<image xlink:href="../../images/foreignKeys.png" width="11px" height="12px" preserveAspectRatio="xMinYMin meet" x="576" y="-200.211"/>
<text text-anchor="start" x="600" y="-190.3114" font-family="Helvetica,sans-Serif" font-size="11.00" fill="#000000">calculation_id</text>
<polygon fill="none" stroke="#000000" points="571,-161.2114 571,-183.2114 766,-183.2114 766,-161.2114 571,-161.2114"/>
<image xlink:href="../../images/foreignKeys.png" width="11px" height="12px" preserveAspectRatio="xMinYMin meet" x="576" y="-178.211"/>
<text text-anchor="start" x="600" y="-168.3114" font-family="Helvetica,sans-Serif" font-size="11.00" fill="#000000">trade_id</text>
<polygon fill="none" stroke="#000000" points="571,-139.2114 571,-161.2114 766,-161.2114 766,-139.2114 571,-139.2114"/>
<image xlink:href="../../images/foreignKeys.png" width="11px" height="12px" preserveAspectRatio="xMinYMin meet" x="576" y="-156.211"/>
<text text-anchor="start" x="600" y="-146.3114" font-family="Helvetica,sans-Serif" font-size="11.00" fill="#000000">netting_set_id</text>
<polygon fill="none" stroke="#000000" points="571,-120.2114 571,-139.2114 766,-139.2114 766,-120.2114 571,-120.2114"/>
<text text-anchor="start" x="574" y="-126.3114" font-family="Helvetica,sans-Serif" font-size="11.00" fill="#000000">...</text>
<polygon fill="#ffffff" stroke="transparent" points="571,-101.2114 571,-120.2114 667,-120.2114 667,-101.2114 571,-101.2114"/>
<polygon fill="none" stroke="#000000" points="571,-101.2114 571,-120.2114 667,-120.2114 667,-101.2114 571,-101.2114"/>
<text text-anchor="start" x="574" y="-107.3114" font-family="Helvetica,sans-Serif" font-size="11.00" fill="#000000">&lt; 3</text>
<polygon fill="#ffffff" stroke="transparent" points="667,-101.2114 667,-120.2114 716,-120.2114 716,-101.2114 667,-101.2114"/>
<polygon fill="none" stroke="#000000" points="667,-101.2114 667,-120.2114 716,-120.2114 716,-101.2114 667,-101.2114"/>
<text text-anchor="start" x="706.8862" y="-107.3114" font-family="Helvetica,sans-Serif" font-size="11.00" fill="#000000"> &#160;</text>
<polygon fill="#ffffff" stroke="transparent" points="716,-101.2114 716,-120.2114 766,-120.2114 766,-101.2114 716,-101.2114"/>
<polygon fill="none" stroke="#000000" points="716,-101.2114 716,-120.2114 766,-120.2114 766,-101.2114 716,-101.2114"/>
<text text-anchor="start" x="756.8862" y="-107.3114" font-family="Helvetica,sans-Serif" font-size="11.00" fill="#000000"> &#160;</text>
</a>
</g>
</g>
<!-- sa_ccr_trade_mappings&#45;&gt;sa_ccr_calculations -->
<g id="edge4" class="edge">
<title>sa_ccr_trade_mappings:w&#45;&gt;sa_ccr_calculations:e</title>
<path fill="none" stroke="#000000" d="M557.1093,-198.9212C504.3118,-240.6915 584.9261,-546.2114 511,-546.2114"/>
<polygon fill="#000000" stroke="#000000" points="563.4237,-196.7803 572.156,-197.6208 567.2118,-195.4959 571,-194.2114 571,-194.2114 571,-194.2114 567.2118,-195.4959 569.844,-190.8021 563.4237,-196.7803 563.4237,-196.7803"/>
<ellipse fill="none" stroke="#000000" cx="560.3931" cy="-197.8079" rx="3.2" ry="3.2"/>
</g>
<!-- sa_ccr_trade_mappings&#45;&gt;netting_sets -->
<g id="edge5" class="edge">
<title>sa_ccr_trade_mappings:w&#45;&gt;netting_sets:e</title>
<path fill="none" stroke="#000000" d="M556.6882,-146.8588C534.138,-133.3213 554.3231,-82.4945 521,-63.2114 462.9133,-29.5983 270.55,-20.2405 219,-63.2114 141.2581,-128.0154 279.2095,-287.2114 178,-287.2114"/>
<polygon fill="#000000" stroke="#000000" points="563.2109,-148.3867 570.1789,-153.7165 567.1054,-149.2991 571,-150.2114 571,-150.2114 571,-150.2114 567.1054,-149.2991 571.8211,-146.7063 563.2109,-148.3867 563.2109,-148.3867"/>
<ellipse fill="none" stroke="#000000" cx="560.0952" cy="-147.6569" rx="3.2" ry="3.2"/>
</g>
</g>
</svg>
