<?xml version="1.0" encoding="UTF-8" standalone="no"?>
<!DOCTYPE svg PUBLIC "-//W3C//DTD SVG 1.1//EN"
 "http://www.w3.org/Graphics/SVG/1.1/DTD/svg11.dtd">
<!-- Generated by graphviz version 2.40.1 (20161225.0304)
 -->
<!-- Title: oneDegreeRelationshipsDiagram Pages: 1 -->
<svg width="553pt" height="272pt"
 viewBox="0.00 0.00 553.00 272.20" xmlns="http://www.w3.org/2000/svg" xmlns:xlink="http://www.w3.org/1999/xlink">
<g id="graph0" class="graph" transform="scale(1 1) rotate(0) translate(4 268.2)">
<title>oneDegreeRelationshipsDiagram</title>
<polygon fill="#ffffff" stroke="transparent" points="-4,4 -4,-268.2 549,-268.2 549,4 -4,4"/>
<text text-anchor="middle" x="72.4936" y="-7.3" font-family="Helvetica,sans-Serif" font-size="11.00" fill="#000000">Generated by SchemaSpy</text>
<!-- sa_ccr_calculation_details -->
<g id="node1" class="node">
<title>sa_ccr_calculation_details</title>
<g id="a_node1"><a xlink:href="../../tables/sa_ccr_calculation_details.html" xlink:title="sa_ccr_calculation_details" target="_top">
<polygon fill="#ffffff" stroke="transparent" points="255,-38.2 255,-260.2 537,-260.2 537,-38.2 255,-38.2"/>
<polygon fill="#f5f5f5" stroke="transparent" points="257,-235.2 257,-258.2 535,-258.2 535,-235.2 257,-235.2"/>
<polygon fill="none" stroke="#000000" points="257,-235.2 257,-258.2 535,-258.2 535,-235.2 257,-235.2"/>
<text text-anchor="start" x="262" y="-243.8" font-family="Helvetica,sans-Serif" font-weight="bold" font-size="11.00" fill="#000000">sa_ccr_calculation_details</text>
<text text-anchor="start" x="500.0437" y="-243.3" font-family="Helvetica,sans-Serif" font-size="11.00" fill="#000000">[table]</text>
<polygon fill="none" stroke="#000000" points="257,-213.2 257,-235.2 451,-235.2 451,-213.2 257,-213.2"/>
<image xlink:href="../../images/primaryKeys.png" width="11px" height="12px" preserveAspectRatio="xMinYMin meet" x="262" y="-230.2"/>
<text text-anchor="start" x="277" y="-220.3" font-family="Helvetica,sans-Serif" font-size="11.00" fill="#000000">id</text>
<polygon fill="none" stroke="#000000" points="451,-213.2 451,-235.2 535,-235.2 535,-213.2 451,-213.2"/>
<text text-anchor="start" x="454" y="-220.9" font-family="Helvetica,sans-Serif" font-size="11.00" fill="#000000">bigserial[19]</text>
<polygon fill="none" stroke="#000000" points="257,-191.2 257,-213.2 451,-213.2 451,-191.2 257,-191.2"/>
<image xlink:href="../../images/foreignKeys.png" width="11px" height="12px" preserveAspectRatio="xMinYMin meet" x="262" y="-208.2"/>
<text text-anchor="start" x="277" y="-198.3" font-family="Helvetica,sans-Serif" font-size="11.00" fill="#000000">calculation_id</text>
<polygon fill="none" stroke="#000000" points="451,-191.2 451,-213.2 535,-213.2 535,-191.2 451,-191.2"/>
<text text-anchor="start" x="454" y="-198.9" font-family="Helvetica,sans-Serif" font-size="11.00" fill="#000000">varchar[100]</text>
<polygon fill="none" stroke="#000000" points="257,-169.2 257,-191.2 451,-191.2 451,-169.2 257,-169.2"/>
<text text-anchor="start" x="277" y="-176.3" font-family="Helvetica,sans-Serif" font-size="11.00" fill="#000000">asset_class</text>
<polygon fill="none" stroke="#000000" points="451,-169.2 451,-191.2 535,-191.2 535,-169.2 451,-169.2"/>
<text text-anchor="start" x="454" y="-176.9" font-family="Helvetica,sans-Serif" font-size="11.00" fill="#000000">varchar[50]</text>
<polygon fill="none" stroke="#000000" points="257,-147.2 257,-169.2 451,-169.2 451,-147.2 257,-147.2"/>
<text text-anchor="start" x="277" y="-154.3" font-family="Helvetica,sans-Serif" font-size="11.00" fill="#000000">effective_notional</text>
<polygon fill="none" stroke="#000000" points="451,-147.2 451,-169.2 535,-169.2 535,-147.2 451,-147.2"/>
<text text-anchor="start" x="454" y="-154.9" font-family="Helvetica,sans-Serif" font-size="11.00" fill="#000000">numeric[20,8]</text>
<polygon fill="none" stroke="#000000" points="257,-125.2 257,-147.2 451,-147.2 451,-125.2 257,-125.2"/>
<text text-anchor="start" x="277" y="-132.3" font-family="Helvetica,sans-Serif" font-size="11.00" fill="#000000">supervisory_factor</text>
<polygon fill="none" stroke="#000000" points="451,-125.2 451,-147.2 535,-147.2 535,-125.2 451,-125.2"/>
<text text-anchor="start" x="454" y="-132.9" font-family="Helvetica,sans-Serif" font-size="11.00" fill="#000000">numeric[10,6]</text>
<polygon fill="none" stroke="#000000" points="257,-103.2 257,-125.2 451,-125.2 451,-103.2 257,-103.2"/>
<text text-anchor="start" x="277" y="-110.3" font-family="Helvetica,sans-Serif" font-size="11.00" fill="#000000">supervisory_addon</text>
<polygon fill="none" stroke="#000000" points="451,-103.2 451,-125.2 535,-125.2 535,-103.2 451,-103.2"/>
<text text-anchor="start" x="454" y="-110.9" font-family="Helvetica,sans-Serif" font-size="11.00" fill="#000000">numeric[20,8]</text>
<polygon fill="none" stroke="#000000" points="257,-81.2 257,-103.2 451,-103.2 451,-81.2 257,-81.2"/>
<text text-anchor="start" x="277" y="-88.3" font-family="Helvetica,sans-Serif" font-size="11.00" fill="#000000">hedge_ratio</text>
<polygon fill="none" stroke="#000000" points="451,-81.2 451,-103.2 535,-103.2 535,-81.2 451,-81.2"/>
<text text-anchor="start" x="454" y="-88.9" font-family="Helvetica,sans-Serif" font-size="11.00" fill="#000000">numeric[10,6]</text>
<polygon fill="none" stroke="#000000" points="257,-59.2 257,-81.2 451,-81.2 451,-59.2 257,-59.2"/>
<text text-anchor="start" x="277" y="-66.3" font-family="Helvetica,sans-Serif" font-size="11.00" fill="#000000">created_at</text>
<polygon fill="none" stroke="#000000" points="451,-59.2 451,-81.2 535,-81.2 535,-59.2 451,-59.2"/>
<text text-anchor="start" x="453.8807" y="-66.9" font-family="Helvetica,sans-Serif" font-size="11.00" fill="#000000">timestamp[29,6]</text>
<polygon fill="#ffffff" stroke="transparent" points="257,-40.2 257,-59.2 358,-59.2 358,-40.2 257,-40.2"/>
<polygon fill="none" stroke="#000000" points="257,-40.2 257,-59.2 358,-59.2 358,-40.2 257,-40.2"/>
<text text-anchor="start" x="260" y="-46.3" font-family="Helvetica,sans-Serif" font-size="11.00" fill="#000000">&lt; 1</text>
<polygon fill="#ffffff" stroke="transparent" points="358,-40.2 358,-59.2 451,-59.2 451,-40.2 358,-40.2"/>
<polygon fill="none" stroke="#000000" points="358,-40.2 358,-59.2 451,-59.2 451,-40.2 358,-40.2"/>
<text text-anchor="start" x="441.8862" y="-46.3" font-family="Helvetica,sans-Serif" font-size="11.00" fill="#000000"> &#160;</text>
<polygon fill="#ffffff" stroke="transparent" points="451,-40.2 451,-59.2 535,-59.2 535,-40.2 451,-40.2"/>
<polygon fill="none" stroke="#000000" points="451,-40.2 451,-59.2 535,-59.2 535,-40.2 451,-40.2"/>
<text text-anchor="start" x="516.4053" y="-46.3" font-family="Helvetica,sans-Serif" font-size="11.00" fill="#000000">0 &gt;</text>
<polygon fill="none" stroke="#000000" stroke-width="2" points="256,-39.2 256,-259.2 536,-259.2 536,-39.2 256,-39.2"/>
</a>
</g>
</g>
<!-- sa_ccr_calculations -->
<g id="node2" class="node">
<title>sa_ccr_calculations</title>
<g id="a_node2"><a xlink:href="../../tables/sa_ccr_calculations.html" xlink:title="sa_ccr_calculations" target="_top">
<polygon fill="#ffffff" stroke="transparent" points="8,-87.7 8,-258.7 206,-258.7 206,-87.7 8,-87.7"/>
<polygon fill="#f5f5f5" stroke="transparent" points="8,-235.2 8,-258.2 206,-258.2 206,-235.2 8,-235.2"/>
<polygon fill="none" stroke="#000000" points="8,-235.2 8,-258.2 206,-258.2 206,-235.2 8,-235.2"/>
<text text-anchor="start" x="13" y="-243.8" font-family="Helvetica,sans-Serif" font-weight="bold" font-size="11.00" fill="#000000">sa_ccr_calculations</text>
<text text-anchor="start" x="171.0437" y="-243.3" font-family="Helvetica,sans-Serif" font-size="11.00" fill="#000000">[table]</text>
<polygon fill="none" stroke="#000000" points="8,-213.2 8,-235.2 206,-235.2 206,-213.2 8,-213.2"/>
<image xlink:href="../../images/primaryKeys.png" width="11px" height="12px" preserveAspectRatio="xMinYMin meet" x="13" y="-230.2"/>
<text text-anchor="start" x="28" y="-220.3" font-family="Helvetica,sans-Serif" font-size="11.00" fill="#000000">id</text>
<polygon fill="#ffffff" stroke="transparent" points="8,-191.2 8,-213.2 206,-213.2 206,-191.2 8,-191.2"/>
<polygon fill="none" stroke="#000000" points="8,-191.2 8,-213.2 206,-213.2 206,-191.2 8,-191.2"/>
<text text-anchor="start" x="28" y="-198.3" font-family="Helvetica,sans-Serif" font-size="11.00" fill="#000000">calculation_id</text>
<polygon fill="#ffffff" stroke="transparent" points="8,-169.2 8,-191.2 206,-191.2 206,-169.2 8,-169.2"/>
<polygon fill="none" stroke="#000000" points="8,-169.2 8,-191.2 206,-191.2 206,-169.2 8,-169.2"/>
<image xlink:href="../../images/foreignKeys.png" width="11px" height="12px" preserveAspectRatio="xMinYMin meet" x="13" y="-186.2"/>
<text text-anchor="start" x="28" y="-176.3" font-family="Helvetica,sans-Serif" font-size="11.00" fill="#000000">netting_set_id</text>
<polygon fill="#ffffff" stroke="transparent" points="8,-147.2 8,-169.2 206,-169.2 206,-147.2 8,-147.2"/>
<polygon fill="none" stroke="#000000" points="8,-147.2 8,-169.2 206,-169.2 206,-147.2 8,-147.2"/>
<text text-anchor="start" x="28" y="-154.3" font-family="Helvetica,sans-Serif" font-size="11.00" fill="#000000">calculation_date</text>
<polygon fill="#ffffff" stroke="transparent" points="8,-125.2 8,-147.2 206,-147.2 206,-125.2 8,-125.2"/>
<polygon fill="none" stroke="#000000" points="8,-125.2 8,-147.2 206,-147.2 206,-125.2 8,-125.2"/>
<text text-anchor="start" x="28" y="-132.3" font-family="Helvetica,sans-Serif" font-size="11.00" fill="#000000">jurisdiction</text>
<polygon fill="none" stroke="#000000" points="8,-106.2 8,-125.2 206,-125.2 206,-106.2 8,-106.2"/>
<text text-anchor="start" x="11" y="-112.3" font-family="Helvetica,sans-Serif" font-size="11.00" fill="#000000">...</text>
<polygon fill="#ffffff" stroke="transparent" points="8,-87.2 8,-106.2 101,-106.2 101,-87.2 8,-87.2"/>
<polygon fill="none" stroke="#000000" points="8,-87.2 8,-106.2 101,-106.2 101,-87.2 8,-87.2"/>
<text text-anchor="start" x="11" y="-93.3" font-family="Helvetica,sans-Serif" font-size="11.00" fill="#000000">&lt; 1</text>
<polygon fill="#ffffff" stroke="transparent" points="101,-87.2 101,-106.2 149,-106.2 149,-87.2 101,-87.2"/>
<polygon fill="none" stroke="#000000" points="101,-87.2 101,-106.2 149,-106.2 149,-87.2 101,-87.2"/>
<text text-anchor="start" x="139.8862" y="-93.3" font-family="Helvetica,sans-Serif" font-size="11.00" fill="#000000"> &#160;</text>
<polygon fill="#ffffff" stroke="transparent" points="149,-87.2 149,-106.2 206,-106.2 206,-87.2 149,-87.2"/>
<polygon fill="none" stroke="#000000" points="149,-87.2 149,-106.2 206,-106.2 206,-87.2 149,-87.2"/>
<text text-anchor="start" x="187.4053" y="-93.3" font-family="Helvetica,sans-Serif" font-size="11.00" fill="#000000">3 &gt;</text>
</a>
</g>
</g>
<!-- sa_ccr_calculation_details&#45;&gt;sa_ccr_calculations -->
<g id="edge1" class="edge">
<title>sa_ccr_calculation_details:w&#45;&gt;sa_ccr_calculations:e</title>
<path fill="none" stroke="#000000" d="M242.276,-202.2C230.2815,-202.2 222.8229,-202.2 206,-202.2"/>
<polygon fill="#000000" stroke="#000000" points="249,-202.2001 257,-205.8 253,-202.2 257,-202.2 257,-202.2 257,-202.2 253,-202.2 257,-198.6 249,-202.2001 249,-202.2001"/>
<ellipse fill="none" stroke="#000000" cx="245.8" cy="-202.2001" rx="3.2" ry="3.2"/>
</g>
</g>
</svg>
