<?xml version="1.0" encoding="UTF-8" standalone="no"?>
<!DOCTYPE svg PUBLIC "-//W3C//DTD SVG 1.1//EN"
 "http://www.w3.org/Graphics/SVG/1.1/DTD/svg11.dtd">
<!-- Generated by graphviz version 2.40.1 (20161225.0304)
 -->
<!-- Title: twoDegreesRelationshipsDiagram Pages: 1 -->
<svg width="742pt" height="751pt"
 viewBox="0.00 0.00 742.00 751.20" xmlns="http://www.w3.org/2000/svg" xmlns:xlink="http://www.w3.org/1999/xlink">
<g id="graph0" class="graph" transform="scale(1 1) rotate(0) translate(4 747.2)">
<title>twoDegreesRelationshipsDiagram</title>
<polygon fill="#ffffff" stroke="transparent" points="-4,4 -4,-747.2 738,-747.2 738,4 -4,4"/>
<text text-anchor="middle" x="72.4936" y="-7.3" font-family="Helvetica,sans-Serif" font-size="11.00" fill="#000000">Generated by SchemaSpy</text>
<!-- sa_ccr_audit_trail -->
<g id="node1" class="node">
<title>sa_ccr_audit_trail</title>
<g id="a_node1"><a xlink:href="../../tables/sa_ccr_audit_trail.html" xlink:title="sa_ccr_audit_trail" target="_top">
<polygon fill="#ffffff" stroke="transparent" points="533.5,-634.2 533.5,-739.2 706.5,-739.2 706.5,-634.2 533.5,-634.2"/>
<polygon fill="#f5f5f5" stroke="transparent" points="534,-715.7 534,-738.7 707,-738.7 707,-715.7 534,-715.7"/>
<polygon fill="none" stroke="#000000" points="534,-715.7 534,-738.7 707,-738.7 707,-715.7 534,-715.7"/>
<text text-anchor="start" x="539" y="-724.3" font-family="Helvetica,sans-Serif" font-weight="bold" font-size="11.00" fill="#000000">sa_ccr_audit_trail</text>
<text text-anchor="start" x="672.0437" y="-723.8" font-family="Helvetica,sans-Serif" font-size="11.00" fill="#000000">[table]</text>
<polygon fill="none" stroke="#000000" points="534,-693.7 534,-715.7 707,-715.7 707,-693.7 534,-693.7"/>
<image xlink:href="../../images/primaryKeys.png" width="11px" height="12px" preserveAspectRatio="xMinYMin meet" x="539" y="-710.7"/>
<text text-anchor="start" x="554" y="-700.8" font-family="Helvetica,sans-Serif" font-size="11.00" fill="#000000">id</text>
<polygon fill="#ffffff" stroke="transparent" points="534,-671.7 534,-693.7 707,-693.7 707,-671.7 534,-671.7"/>
<polygon fill="none" stroke="#000000" points="534,-671.7 534,-693.7 707,-693.7 707,-671.7 534,-671.7"/>
<image xlink:href="../../images/foreignKeys.png" width="11px" height="12px" preserveAspectRatio="xMinYMin meet" x="539" y="-688.7"/>
<text text-anchor="start" x="554" y="-678.8" font-family="Helvetica,sans-Serif" font-size="11.00" fill="#000000">calculation_id</text>
<polygon fill="none" stroke="#000000" points="534,-652.7 534,-671.7 707,-671.7 707,-652.7 534,-652.7"/>
<text text-anchor="start" x="537" y="-658.8" font-family="Helvetica,sans-Serif" font-size="11.00" fill="#000000">...</text>
<polygon fill="#ffffff" stroke="transparent" points="534,-633.7 534,-652.7 619,-652.7 619,-633.7 534,-633.7"/>
<polygon fill="none" stroke="#000000" points="534,-633.7 534,-652.7 619,-652.7 619,-633.7 534,-633.7"/>
<text text-anchor="start" x="537" y="-639.8" font-family="Helvetica,sans-Serif" font-size="11.00" fill="#000000">&lt; 1</text>
<polygon fill="#ffffff" stroke="transparent" points="619,-633.7 619,-652.7 663,-652.7 663,-633.7 619,-633.7"/>
<polygon fill="none" stroke="#000000" points="619,-633.7 619,-652.7 663,-652.7 663,-633.7 619,-633.7"/>
<text text-anchor="start" x="653.8862" y="-639.8" font-family="Helvetica,sans-Serif" font-size="11.00" fill="#000000"> &#160;</text>
<polygon fill="#ffffff" stroke="transparent" points="663,-633.7 663,-652.7 707,-652.7 707,-633.7 663,-633.7"/>
<polygon fill="none" stroke="#000000" points="663,-633.7 663,-652.7 707,-652.7 707,-633.7 663,-633.7"/>
<text text-anchor="start" x="697.8862" y="-639.8" font-family="Helvetica,sans-Serif" font-size="11.00" fill="#000000"> &#160;</text>
</a>
</g>
</g>
<!-- sa_ccr_calculations -->
<g id="node2" class="node">
<title>sa_ccr_calculations</title>
<g id="a_node2"><a xlink:href="../../tables/sa_ccr_calculations.html" xlink:title="sa_ccr_calculations" target="_top">
<polygon fill="#ffffff" stroke="transparent" points="179,-147.7 179,-677.7 465,-677.7 465,-147.7 179,-147.7"/>
<polygon fill="#f5f5f5" stroke="transparent" points="181,-652.7 181,-675.7 463,-675.7 463,-652.7 181,-652.7"/>
<polygon fill="none" stroke="#000000" points="181,-652.7 181,-675.7 463,-675.7 463,-652.7 181,-652.7"/>
<text text-anchor="start" x="186" y="-661.3" font-family="Helvetica,sans-Serif" font-weight="bold" font-size="11.00" fill="#000000">sa_ccr_calculations</text>
<text text-anchor="start" x="428.0437" y="-660.8" font-family="Helvetica,sans-Serif" font-size="11.00" fill="#000000">[table]</text>
<polygon fill="none" stroke="#000000" points="181,-630.7 181,-652.7 379,-652.7 379,-630.7 181,-630.7"/>
<image xlink:href="../../images/primaryKeys.png" width="11px" height="12px" preserveAspectRatio="xMinYMin meet" x="186" y="-647.7"/>
<text text-anchor="start" x="201" y="-637.8" font-family="Helvetica,sans-Serif" font-size="11.00" fill="#000000">id</text>
<polygon fill="none" stroke="#000000" points="379,-630.7 379,-652.7 463,-652.7 463,-630.7 379,-630.7"/>
<text text-anchor="start" x="382" y="-638.4" font-family="Helvetica,sans-Serif" font-size="11.00" fill="#000000">bigserial[19]</text>
<polygon fill="#ffffff" stroke="transparent" points="181,-608.7 181,-630.7 379,-630.7 379,-608.7 181,-608.7"/>
<polygon fill="none" stroke="#000000" points="181,-608.7 181,-630.7 379,-630.7 379,-608.7 181,-608.7"/>
<text text-anchor="start" x="201" y="-615.8" font-family="Helvetica,sans-Serif" font-size="11.00" fill="#000000">calculation_id</text>
<polygon fill="none" stroke="#000000" points="379,-608.7 379,-630.7 463,-630.7 463,-608.7 379,-608.7"/>
<text text-anchor="start" x="382" y="-616.4" font-family="Helvetica,sans-Serif" font-size="11.00" fill="#000000">varchar[100]</text>
<polygon fill="#ffffff" stroke="transparent" points="181,-586.7 181,-608.7 379,-608.7 379,-586.7 181,-586.7"/>
<polygon fill="none" stroke="#000000" points="181,-586.7 181,-608.7 379,-608.7 379,-586.7 181,-586.7"/>
<image xlink:href="../../images/foreignKeys.png" width="11px" height="12px" preserveAspectRatio="xMinYMin meet" x="186" y="-603.7"/>
<text text-anchor="start" x="201" y="-593.8" font-family="Helvetica,sans-Serif" font-size="11.00" fill="#000000">netting_set_id</text>
<polygon fill="none" stroke="#000000" points="379,-586.7 379,-608.7 463,-608.7 463,-586.7 379,-586.7"/>
<text text-anchor="start" x="382" y="-594.4" font-family="Helvetica,sans-Serif" font-size="11.00" fill="#000000">varchar[100]</text>
<polygon fill="#ffffff" stroke="transparent" points="181,-564.7 181,-586.7 379,-586.7 379,-564.7 181,-564.7"/>
<polygon fill="none" stroke="#000000" points="181,-564.7 181,-586.7 379,-586.7 379,-564.7 181,-564.7"/>
<text text-anchor="start" x="201" y="-571.8" font-family="Helvetica,sans-Serif" font-size="11.00" fill="#000000">calculation_date</text>
<polygon fill="none" stroke="#000000" points="379,-564.7 379,-586.7 463,-586.7 463,-564.7 379,-564.7"/>
<text text-anchor="start" x="382" y="-572.4" font-family="Helvetica,sans-Serif" font-size="11.00" fill="#000000">date[13]</text>
<polygon fill="#ffffff" stroke="transparent" points="181,-542.7 181,-564.7 379,-564.7 379,-542.7 181,-542.7"/>
<polygon fill="none" stroke="#000000" points="181,-542.7 181,-564.7 379,-564.7 379,-542.7 181,-542.7"/>
<text text-anchor="start" x="201" y="-549.8" font-family="Helvetica,sans-Serif" font-size="11.00" fill="#000000">jurisdiction</text>
<polygon fill="none" stroke="#000000" points="379,-542.7 379,-564.7 463,-564.7 463,-542.7 379,-542.7"/>
<text text-anchor="start" x="382" y="-550.4" font-family="Helvetica,sans-Serif" font-size="11.00" fill="#000000">varchar[10]</text>
<polygon fill="none" stroke="#000000" points="181,-520.7 181,-542.7 379,-542.7 379,-520.7 181,-520.7"/>
<text text-anchor="start" x="201" y="-527.8" font-family="Helvetica,sans-Serif" font-size="11.00" fill="#000000">alpha_factor</text>
<polygon fill="none" stroke="#000000" points="379,-520.7 379,-542.7 463,-542.7 463,-520.7 379,-520.7"/>
<text text-anchor="start" x="382" y="-528.4" font-family="Helvetica,sans-Serif" font-size="11.00" fill="#000000">numeric[5,3]</text>
<polygon fill="none" stroke="#000000" points="181,-498.7 181,-520.7 379,-520.7 379,-498.7 181,-498.7"/>
<text text-anchor="start" x="201" y="-505.8" font-family="Helvetica,sans-Serif" font-size="11.00" fill="#000000">gross_mtm</text>
<polygon fill="none" stroke="#000000" points="379,-498.7 379,-520.7 463,-520.7 463,-498.7 379,-498.7"/>
<text text-anchor="start" x="382" y="-506.4" font-family="Helvetica,sans-Serif" font-size="11.00" fill="#000000">numeric[20,8]</text>
<polygon fill="none" stroke="#000000" points="181,-476.7 181,-498.7 379,-498.7 379,-476.7 181,-476.7"/>
<text text-anchor="start" x="201" y="-483.8" font-family="Helvetica,sans-Serif" font-size="11.00" fill="#000000">vm_received</text>
<polygon fill="none" stroke="#000000" points="379,-476.7 379,-498.7 463,-498.7 463,-476.7 379,-476.7"/>
<text text-anchor="start" x="382" y="-484.4" font-family="Helvetica,sans-Serif" font-size="11.00" fill="#000000">numeric[20,8]</text>
<polygon fill="none" stroke="#000000" points="181,-454.7 181,-476.7 379,-476.7 379,-454.7 181,-454.7"/>
<text text-anchor="start" x="201" y="-461.8" font-family="Helvetica,sans-Serif" font-size="11.00" fill="#000000">vm_posted</text>
<polygon fill="none" stroke="#000000" points="379,-454.7 379,-476.7 463,-476.7 463,-454.7 379,-454.7"/>
<text text-anchor="start" x="382" y="-462.4" font-family="Helvetica,sans-Serif" font-size="11.00" fill="#000000">numeric[20,8]</text>
<polygon fill="none" stroke="#000000" points="181,-432.7 181,-454.7 379,-454.7 379,-432.7 181,-432.7"/>
<text text-anchor="start" x="201" y="-439.8" font-family="Helvetica,sans-Serif" font-size="11.00" fill="#000000">im_received</text>
<polygon fill="none" stroke="#000000" points="379,-432.7 379,-454.7 463,-454.7 463,-432.7 379,-432.7"/>
<text text-anchor="start" x="382" y="-440.4" font-family="Helvetica,sans-Serif" font-size="11.00" fill="#000000">numeric[20,8]</text>
<polygon fill="none" stroke="#000000" points="181,-410.7 181,-432.7 379,-432.7 379,-410.7 181,-410.7"/>
<text text-anchor="start" x="201" y="-417.8" font-family="Helvetica,sans-Serif" font-size="11.00" fill="#000000">im_posted</text>
<polygon fill="none" stroke="#000000" points="379,-410.7 379,-432.7 463,-432.7 463,-410.7 379,-410.7"/>
<text text-anchor="start" x="382" y="-418.4" font-family="Helvetica,sans-Serif" font-size="11.00" fill="#000000">numeric[20,8]</text>
<polygon fill="none" stroke="#000000" points="181,-388.7 181,-410.7 379,-410.7 379,-388.7 181,-388.7"/>
<text text-anchor="start" x="201" y="-395.8" font-family="Helvetica,sans-Serif" font-size="11.00" fill="#000000">replacement_cost</text>
<polygon fill="none" stroke="#000000" points="379,-388.7 379,-410.7 463,-410.7 463,-388.7 379,-388.7"/>
<text text-anchor="start" x="382" y="-396.4" font-family="Helvetica,sans-Serif" font-size="11.00" fill="#000000">numeric[20,8]</text>
<polygon fill="none" stroke="#000000" points="181,-366.7 181,-388.7 379,-388.7 379,-366.7 181,-366.7"/>
<text text-anchor="start" x="201" y="-373.8" font-family="Helvetica,sans-Serif" font-size="11.00" fill="#000000">effective_notional</text>
<polygon fill="none" stroke="#000000" points="379,-366.7 379,-388.7 463,-388.7 463,-366.7 379,-366.7"/>
<text text-anchor="start" x="382" y="-374.4" font-family="Helvetica,sans-Serif" font-size="11.00" fill="#000000">numeric[20,8]</text>
<polygon fill="none" stroke="#000000" points="181,-344.7 181,-366.7 379,-366.7 379,-344.7 181,-344.7"/>
<text text-anchor="start" x="201" y="-351.8" font-family="Helvetica,sans-Serif" font-size="11.00" fill="#000000">supervisory_addon</text>
<polygon fill="none" stroke="#000000" points="379,-344.7 379,-366.7 463,-366.7 463,-344.7 379,-344.7"/>
<text text-anchor="start" x="382" y="-352.4" font-family="Helvetica,sans-Serif" font-size="11.00" fill="#000000">numeric[20,8]</text>
<polygon fill="none" stroke="#000000" points="181,-322.7 181,-344.7 379,-344.7 379,-322.7 181,-322.7"/>
<text text-anchor="start" x="201" y="-329.8" font-family="Helvetica,sans-Serif" font-size="11.00" fill="#000000">multiplier</text>
<polygon fill="none" stroke="#000000" points="379,-322.7 379,-344.7 463,-344.7 463,-322.7 379,-322.7"/>
<text text-anchor="start" x="382" y="-330.4" font-family="Helvetica,sans-Serif" font-size="11.00" fill="#000000">numeric[10,6]</text>
<polygon fill="none" stroke="#000000" points="181,-300.7 181,-322.7 379,-322.7 379,-300.7 181,-300.7"/>
<text text-anchor="start" x="201" y="-307.8" font-family="Helvetica,sans-Serif" font-size="11.00" fill="#000000">potential_future_exposure</text>
<polygon fill="none" stroke="#000000" points="379,-300.7 379,-322.7 463,-322.7 463,-300.7 379,-300.7"/>
<text text-anchor="start" x="382" y="-308.4" font-family="Helvetica,sans-Serif" font-size="11.00" fill="#000000">numeric[20,8]</text>
<polygon fill="none" stroke="#000000" points="181,-278.7 181,-300.7 379,-300.7 379,-278.7 181,-278.7"/>
<text text-anchor="start" x="201" y="-285.8" font-family="Helvetica,sans-Serif" font-size="11.00" fill="#000000">exposure_at_default</text>
<polygon fill="none" stroke="#000000" points="379,-278.7 379,-300.7 463,-300.7 463,-278.7 379,-278.7"/>
<text text-anchor="start" x="382" y="-286.4" font-family="Helvetica,sans-Serif" font-size="11.00" fill="#000000">numeric[20,8]</text>
<polygon fill="none" stroke="#000000" points="181,-256.7 181,-278.7 379,-278.7 379,-256.7 181,-256.7"/>
<text text-anchor="start" x="201" y="-263.8" font-family="Helvetica,sans-Serif" font-size="11.00" fill="#000000">calculation_status</text>
<polygon fill="none" stroke="#000000" points="379,-256.7 379,-278.7 463,-278.7 463,-256.7 379,-256.7"/>
<text text-anchor="start" x="382" y="-264.4" font-family="Helvetica,sans-Serif" font-size="11.00" fill="#000000">varchar[20]</text>
<polygon fill="none" stroke="#000000" points="181,-234.7 181,-256.7 379,-256.7 379,-234.7 181,-234.7"/>
<text text-anchor="start" x="201" y="-241.8" font-family="Helvetica,sans-Serif" font-size="11.00" fill="#000000">created_by</text>
<polygon fill="none" stroke="#000000" points="379,-234.7 379,-256.7 463,-256.7 463,-234.7 379,-234.7"/>
<text text-anchor="start" x="382" y="-242.4" font-family="Helvetica,sans-Serif" font-size="11.00" fill="#000000">varchar[100]</text>
<polygon fill="none" stroke="#000000" points="181,-212.7 181,-234.7 379,-234.7 379,-212.7 181,-212.7"/>
<text text-anchor="start" x="201" y="-219.8" font-family="Helvetica,sans-Serif" font-size="11.00" fill="#000000">created_at</text>
<polygon fill="none" stroke="#000000" points="379,-212.7 379,-234.7 463,-234.7 463,-212.7 379,-212.7"/>
<text text-anchor="start" x="381.8807" y="-220.4" font-family="Helvetica,sans-Serif" font-size="11.00" fill="#000000">timestamp[29,6]</text>
<polygon fill="none" stroke="#000000" points="181,-190.7 181,-212.7 379,-212.7 379,-190.7 181,-190.7"/>
<text text-anchor="start" x="201" y="-197.8" font-family="Helvetica,sans-Serif" font-size="11.00" fill="#000000">completed_at</text>
<polygon fill="none" stroke="#000000" points="379,-190.7 379,-212.7 463,-212.7 463,-190.7 379,-190.7"/>
<text text-anchor="start" x="381.8807" y="-198.4" font-family="Helvetica,sans-Serif" font-size="11.00" fill="#000000">timestamp[29,6]</text>
<polygon fill="none" stroke="#000000" points="181,-168.7 181,-190.7 379,-190.7 379,-168.7 181,-168.7"/>
<text text-anchor="start" x="201" y="-175.8" font-family="Helvetica,sans-Serif" font-size="11.00" fill="#000000">base_currency</text>
<polygon fill="none" stroke="#000000" points="379,-168.7 379,-190.7 463,-190.7 463,-168.7 379,-168.7"/>
<text text-anchor="start" x="382" y="-176.4" font-family="Helvetica,sans-Serif" font-size="11.00" fill="#000000">varchar[3]</text>
<polygon fill="#ffffff" stroke="transparent" points="181,-149.7 181,-168.7 284,-168.7 284,-149.7 181,-149.7"/>
<polygon fill="none" stroke="#000000" points="181,-149.7 181,-168.7 284,-168.7 284,-149.7 181,-149.7"/>
<text text-anchor="start" x="184" y="-155.8" font-family="Helvetica,sans-Serif" font-size="11.00" fill="#000000">&lt; 1</text>
<polygon fill="#ffffff" stroke="transparent" points="284,-149.7 284,-168.7 379,-168.7 379,-149.7 284,-149.7"/>
<polygon fill="none" stroke="#000000" points="284,-149.7 284,-168.7 379,-168.7 379,-149.7 284,-149.7"/>
<text text-anchor="start" x="369.8862" y="-155.8" font-family="Helvetica,sans-Serif" font-size="11.00" fill="#000000"> &#160;</text>
<polygon fill="#ffffff" stroke="transparent" points="379,-149.7 379,-168.7 463,-168.7 463,-149.7 379,-149.7"/>
<polygon fill="none" stroke="#000000" points="379,-149.7 379,-168.7 463,-168.7 463,-149.7 379,-149.7"/>
<text text-anchor="start" x="444.4053" y="-155.8" font-family="Helvetica,sans-Serif" font-size="11.00" fill="#000000">3 &gt;</text>
<polygon fill="none" stroke="#000000" stroke-width="2" points="180,-148.7 180,-676.7 464,-676.7 464,-148.7 180,-148.7"/>
</a>
</g>
</g>
<!-- sa_ccr_audit_trail&#45;&gt;sa_ccr_calculations -->
<g id="edge1" class="edge">
<title>sa_ccr_audit_trail:w&#45;&gt;sa_ccr_calculations:e</title>
<path fill="none" stroke="#000000" d="M519.8709,-679.6614C494.3854,-667.0769 499.5841,-619.7 463,-619.7"/>
<polygon fill="#000000" stroke="#000000" points="526.1788,-681.0179 533.2431,-686.2195 530.0894,-681.859 534,-682.7 534,-682.7 534,-682.7 530.0894,-681.859 534.7569,-679.1805 526.1788,-681.0179 526.1788,-681.0179"/>
<ellipse fill="none" stroke="#000000" cx="523.0504" cy="-680.3451" rx="3.2" ry="3.2"/>
</g>
<!-- netting_sets -->
<g id="node4" class="node">
<title>netting_sets</title>
<g id="a_node4"><a xlink:href="../../tables/netting_sets.html" xlink:title="netting_sets" target="_top">
<polygon fill="#ffffff" stroke="transparent" points="8,-295.2 8,-356.2 130,-356.2 130,-295.2 8,-295.2"/>
<polygon fill="#f5f5f5" stroke="transparent" points="8,-332.7 8,-355.7 130,-355.7 130,-332.7 8,-332.7"/>
<polygon fill="none" stroke="#000000" points="8,-332.7 8,-355.7 130,-355.7 130,-332.7 8,-332.7"/>
<text text-anchor="start" x="13" y="-341.3" font-family="Helvetica,sans-Serif" font-weight="bold" font-size="11.00" fill="#000000">netting_sets</text>
<text text-anchor="start" x="95.5219" y="-340.8" font-family="Helvetica,sans-Serif" font-size="11.00" fill="#000000">[table]</text>
<polygon fill="none" stroke="#000000" points="8,-313.7 8,-332.7 130,-332.7 130,-313.7 8,-313.7"/>
<text text-anchor="start" x="11" y="-319.8" font-family="Helvetica,sans-Serif" font-size="11.00" fill="#000000">...</text>
<polygon fill="#ffffff" stroke="transparent" points="8,-294.7 8,-313.7 58,-313.7 58,-294.7 8,-294.7"/>
<polygon fill="none" stroke="#000000" points="8,-294.7 8,-313.7 58,-313.7 58,-294.7 8,-294.7"/>
<text text-anchor="start" x="11" y="-300.8" font-family="Helvetica,sans-Serif" font-size="11.00" fill="#000000"> &#160;</text>
<polygon fill="#ffffff" stroke="transparent" points="58,-294.7 58,-313.7 89,-313.7 89,-294.7 58,-294.7"/>
<polygon fill="none" stroke="#000000" points="58,-294.7 58,-313.7 89,-313.7 89,-294.7 58,-294.7"/>
<text text-anchor="start" x="79.8862" y="-300.8" font-family="Helvetica,sans-Serif" font-size="11.00" fill="#000000"> &#160;</text>
<polygon fill="#ffffff" stroke="transparent" points="89,-294.7 89,-313.7 130,-313.7 130,-294.7 89,-294.7"/>
<polygon fill="none" stroke="#000000" points="89,-294.7 89,-313.7 130,-313.7 130,-294.7 89,-294.7"/>
<text text-anchor="start" x="111.4053" y="-300.8" font-family="Helvetica,sans-Serif" font-size="11.00" fill="#000000">2 &gt;</text>
</a>
</g>
</g>
<!-- sa_ccr_calculations&#45;&gt;netting_sets -->
<g id="edge3" class="edge">
<title>sa_ccr_calculations:w&#45;&gt;netting_sets:e</title>
<path fill="none" stroke="#000000" d="M166.5862,-596.6361C80.5361,-582.6973 178.5669,-435.2669 104,-360.7"/>
<polygon fill="#000000" stroke="#000000" points="173.0217,-597.1111 180.735,-601.2902 177.0109,-597.4055 181,-597.7 181,-597.7 181,-597.7 177.0109,-597.4055 181.265,-594.1098 173.0217,-597.1111 173.0217,-597.1111"/>
<ellipse fill="none" stroke="#000000" cx="169.8304" cy="-596.8755" rx="3.2" ry="3.2"/>
</g>
<!-- sa_ccr_calculation_details -->
<g id="node3" class="node">
<title>sa_ccr_calculation_details</title>
<g id="a_node3"><a xlink:href="../../tables/sa_ccr_calculation_details.html" xlink:title="sa_ccr_calculation_details" target="_top">
<polygon fill="#ffffff" stroke="transparent" points="514,-508.2 514,-613.2 726,-613.2 726,-508.2 514,-508.2"/>
<polygon fill="#f5f5f5" stroke="transparent" points="514,-589.7 514,-612.7 726,-612.7 726,-589.7 514,-589.7"/>
<polygon fill="none" stroke="#000000" points="514,-589.7 514,-612.7 726,-612.7 726,-589.7 514,-589.7"/>
<text text-anchor="start" x="519" y="-598.3" font-family="Helvetica,sans-Serif" font-weight="bold" font-size="11.00" fill="#000000">sa_ccr_calculation_details</text>
<text text-anchor="start" x="691.5219" y="-597.8" font-family="Helvetica,sans-Serif" font-size="11.00" fill="#000000">[table]</text>
<polygon fill="none" stroke="#000000" points="514,-567.7 514,-589.7 726,-589.7 726,-567.7 514,-567.7"/>
<image xlink:href="../../images/primaryKeys.png" width="11px" height="12px" preserveAspectRatio="xMinYMin meet" x="519" y="-584.7"/>
<text text-anchor="start" x="543" y="-574.8" font-family="Helvetica,sans-Serif" font-size="11.00" fill="#000000">id</text>
<polygon fill="none" stroke="#000000" points="514,-545.7 514,-567.7 726,-567.7 726,-545.7 514,-545.7"/>
<image xlink:href="../../images/foreignKeys.png" width="11px" height="12px" preserveAspectRatio="xMinYMin meet" x="519" y="-562.7"/>
<text text-anchor="start" x="543" y="-552.8" font-family="Helvetica,sans-Serif" font-size="11.00" fill="#000000">calculation_id</text>
<polygon fill="none" stroke="#000000" points="514,-526.7 514,-545.7 726,-545.7 726,-526.7 514,-526.7"/>
<text text-anchor="start" x="517" y="-532.8" font-family="Helvetica,sans-Serif" font-size="11.00" fill="#000000">...</text>
<polygon fill="#ffffff" stroke="transparent" points="514,-507.7 514,-526.7 618,-526.7 618,-507.7 514,-507.7"/>
<polygon fill="none" stroke="#000000" points="514,-507.7 514,-526.7 618,-526.7 618,-507.7 514,-507.7"/>
<text text-anchor="start" x="517" y="-513.8" font-family="Helvetica,sans-Serif" font-size="11.00" fill="#000000">&lt; 1</text>
<polygon fill="#ffffff" stroke="transparent" points="618,-507.7 618,-526.7 672,-526.7 672,-507.7 618,-507.7"/>
<polygon fill="none" stroke="#000000" points="618,-507.7 618,-526.7 672,-526.7 672,-507.7 618,-507.7"/>
<text text-anchor="start" x="662.8862" y="-513.8" font-family="Helvetica,sans-Serif" font-size="11.00" fill="#000000"> &#160;</text>
<polygon fill="#ffffff" stroke="transparent" points="672,-507.7 672,-526.7 726,-526.7 726,-507.7 672,-507.7"/>
<polygon fill="none" stroke="#000000" points="672,-507.7 672,-526.7 726,-526.7 726,-507.7 672,-507.7"/>
<text text-anchor="start" x="716.8862" y="-513.8" font-family="Helvetica,sans-Serif" font-size="11.00" fill="#000000"> &#160;</text>
</a>
</g>
</g>
<!-- sa_ccr_calculation_details&#45;&gt;sa_ccr_calculations -->
<g id="edge2" class="edge">
<title>sa_ccr_calculation_details:w&#45;&gt;sa_ccr_calculations:e</title>
<path fill="none" stroke="#000000" d="M499.9033,-561.6435C483.525,-576.4952 492.8329,-619.7 463,-619.7"/>
<polygon fill="#000000" stroke="#000000" points="506.4507,-559.3474 515.1913,-560.0972 510.2254,-558.0237 514,-556.7 514,-556.7 514,-556.7 510.2254,-558.0237 512.8087,-553.3028 506.4507,-559.3474 506.4507,-559.3474"/>
<ellipse fill="none" stroke="#000000" cx="503.431" cy="-560.4064" rx="3.2" ry="3.2"/>
</g>
<!-- sa_ccr_trade_mappings -->
<g id="node5" class="node">
<title>sa_ccr_trade_mappings</title>
<g id="a_node5"><a xlink:href="../../tables/sa_ccr_trade_mappings.html" xlink:title="sa_ccr_trade_mappings" target="_top">
<polygon fill="#ffffff" stroke="transparent" points="522.5,-58.2 522.5,-119.2 717.5,-119.2 717.5,-58.2 522.5,-58.2"/>
<polygon fill="#f5f5f5" stroke="transparent" points="523,-95.7 523,-118.7 718,-118.7 718,-95.7 523,-95.7"/>
<polygon fill="none" stroke="#000000" points="523,-95.7 523,-118.7 718,-118.7 718,-95.7 523,-95.7"/>
<text text-anchor="start" x="528" y="-104.3" font-family="Helvetica,sans-Serif" font-weight="bold" font-size="11.00" fill="#000000">sa_ccr_trade_mappings</text>
<text text-anchor="start" x="683.5219" y="-103.8" font-family="Helvetica,sans-Serif" font-size="11.00" fill="#000000">[table]</text>
<polygon fill="none" stroke="#000000" points="523,-76.7 523,-95.7 718,-95.7 718,-76.7 523,-76.7"/>
<text text-anchor="start" x="526" y="-82.8" font-family="Helvetica,sans-Serif" font-size="11.00" fill="#000000">...</text>
<polygon fill="#ffffff" stroke="transparent" points="523,-57.7 523,-76.7 619,-76.7 619,-57.7 523,-57.7"/>
<polygon fill="none" stroke="#000000" points="523,-57.7 523,-76.7 619,-76.7 619,-57.7 523,-57.7"/>
<text text-anchor="start" x="526" y="-63.8" font-family="Helvetica,sans-Serif" font-size="11.00" fill="#000000">&lt; 3</text>
<polygon fill="#ffffff" stroke="transparent" points="619,-57.7 619,-76.7 668,-76.7 668,-57.7 619,-57.7"/>
<polygon fill="none" stroke="#000000" points="619,-57.7 619,-76.7 668,-76.7 668,-57.7 619,-57.7"/>
<text text-anchor="start" x="658.8862" y="-63.8" font-family="Helvetica,sans-Serif" font-size="11.00" fill="#000000"> &#160;</text>
<polygon fill="#ffffff" stroke="transparent" points="668,-57.7 668,-76.7 718,-76.7 718,-57.7 668,-57.7"/>
<polygon fill="none" stroke="#000000" points="668,-57.7 668,-76.7 718,-76.7 718,-57.7 668,-57.7"/>
<text text-anchor="start" x="708.8862" y="-63.8" font-family="Helvetica,sans-Serif" font-size="11.00" fill="#000000"> &#160;</text>
</a>
</g>
</g>
<!-- sa_ccr_trade_mappings&#45;&gt;sa_ccr_calculations -->
<g id="edge4" class="edge">
<title>sa_ccr_trade_mappings:w&#45;&gt;sa_ccr_calculations:e</title>
<path fill="none" stroke="#000000" d="M606.8213,-137.733C571.3166,-269.2097 475.4963,-619.7 463,-619.7"/>
<polygon fill="#000000" stroke="#000000" points="608.566,-131.2644 614.1251,-124.4779 609.6077,-127.4024 610.6493,-123.5404 610.6493,-123.5404 610.6493,-123.5404 609.6077,-127.4024 607.1735,-122.6029 608.566,-131.2644 608.566,-131.2644"/>
<ellipse fill="none" stroke="#000000" cx="607.7326" cy="-134.354" rx="3.2" ry="3.2"/>
</g>
<!-- sa_ccr_trade_mappings&#45;&gt;netting_sets -->
<g id="edge5" class="edge">
<title>sa_ccr_trade_mappings:w&#45;&gt;netting_sets:e</title>
<path fill="none" stroke="#000000" d="M663.0407,-135.665C673.2692,-184.4762 251.0862,-75.3739 171,-136.7 88.4971,-199.8767 177.478,-434.178 104,-360.7"/>
<polygon fill="#000000" stroke="#000000" points="659.4622,-130.34 657.988,-121.692 657.2311,-127.02 655,-123.7 655,-123.7 655,-123.7 657.2311,-127.02 652.012,-125.708 659.4622,-130.34 659.4622,-130.34"/>
<ellipse fill="none" stroke="#000000" cx="661.247" cy="-132.996" rx="3.2" ry="3.2"/>
</g>
<!-- cds_trades -->
<g id="node6" class="node">
<title>cds_trades</title>
<g id="a_node6"><a xlink:href="../../tables/cds_trades.html" xlink:title="cds_trades" target="_top">
<polygon fill="#ffffff" stroke="transparent" points="266.5,-38.2 266.5,-99.2 377.5,-99.2 377.5,-38.2 266.5,-38.2"/>
<polygon fill="#f5f5f5" stroke="transparent" points="267,-75.7 267,-98.7 378,-98.7 378,-75.7 267,-75.7"/>
<polygon fill="none" stroke="#000000" points="267,-75.7 267,-98.7 378,-98.7 378,-75.7 267,-75.7"/>
<text text-anchor="start" x="272" y="-84.3" font-family="Helvetica,sans-Serif" font-weight="bold" font-size="11.00" fill="#000000">cds_trades</text>
<text text-anchor="start" x="343.5219" y="-83.8" font-family="Helvetica,sans-Serif" font-size="11.00" fill="#000000">[table]</text>
<polygon fill="none" stroke="#000000" points="267,-56.7 267,-75.7 378,-75.7 378,-56.7 267,-56.7"/>
<text text-anchor="start" x="270" y="-62.8" font-family="Helvetica,sans-Serif" font-size="11.00" fill="#000000">...</text>
<polygon fill="#ffffff" stroke="transparent" points="267,-37.7 267,-56.7 313,-56.7 313,-37.7 267,-37.7"/>
<polygon fill="none" stroke="#000000" points="267,-37.7 267,-56.7 313,-56.7 313,-37.7 267,-37.7"/>
<text text-anchor="start" x="270" y="-43.8" font-family="Helvetica,sans-Serif" font-size="11.00" fill="#000000">&lt; 2</text>
<polygon fill="#ffffff" stroke="transparent" points="313,-37.7 313,-56.7 338,-56.7 338,-37.7 313,-37.7"/>
<polygon fill="none" stroke="#000000" points="313,-37.7 313,-56.7 338,-56.7 338,-37.7 313,-37.7"/>
<text text-anchor="start" x="328.8862" y="-43.8" font-family="Helvetica,sans-Serif" font-size="11.00" fill="#000000"> &#160;</text>
<polygon fill="#ffffff" stroke="transparent" points="338,-37.7 338,-56.7 378,-56.7 378,-37.7 338,-37.7"/>
<polygon fill="none" stroke="#000000" points="338,-37.7 338,-56.7 378,-56.7 378,-37.7 338,-37.7"/>
<text text-anchor="start" x="353.2904" y="-43.8" font-family="Helvetica,sans-Serif" font-size="11.00" fill="#000000">13 &gt;</text>
</a>
</g>
</g>
<!-- sa_ccr_trade_mappings&#45;&gt;cds_trades -->
<g id="edge6" class="edge">
<title>sa_ccr_trade_mappings:w&#45;&gt;cds_trades:e</title>
<path fill="none" stroke="#000000" d="M500.1027,-72.7786C461.2238,-68.8289 417.8489,-65.7 378,-65.7"/>
<polygon fill="#000000" stroke="#000000" points="506.5311,-73.4571 514.1089,-77.8772 510.509,-73.8771 514.4869,-74.2971 514.4869,-74.2971 514.4869,-74.2971 510.509,-73.8771 514.8649,-70.717 506.5311,-73.4571 506.5311,-73.4571"/>
<ellipse fill="none" stroke="#000000" cx="503.3488" cy="-73.1212" rx="3.2" ry="3.2"/>
</g>
</g>
</svg>
