<?xml version="1.0" encoding="UTF-8" standalone="no"?>
<!DOCTYPE svg PUBLIC "-//W3C//DTD SVG 1.1//EN"
 "http://www.w3.org/Graphics/SVG/1.1/DTD/svg11.dtd">
<!-- Generated by graphviz version 2.40.1 (20161225.0304)
 -->
<!-- Title: twoDegreesRelationshipsDiagram Pages: 1 -->
<svg width="718pt" height="487pt"
 viewBox="0.00 0.00 718.00 486.70" xmlns="http://www.w3.org/2000/svg" xmlns:xlink="http://www.w3.org/1999/xlink">
<g id="graph0" class="graph" transform="scale(1 1) rotate(0) translate(4 482.7)">
<title>twoDegreesRelationshipsDiagram</title>
<polygon fill="#ffffff" stroke="transparent" points="-4,4 -4,-482.7 714,-482.7 714,4 -4,4"/>
<text text-anchor="middle" x="72.4936" y="-7.3" font-family="Helvetica,sans-Serif" font-size="11.00" fill="#000000">Generated by SchemaSpy</text>
<!-- sa_ccr_audit_trail -->
<g id="node1" class="node">
<title>sa_ccr_audit_trail</title>
<g id="a_node1"><a xlink:href="../../tables/sa_ccr_audit_trail.html" xlink:title="sa_ccr_audit_trail" target="_top">
<polygon fill="#ffffff" stroke="transparent" points="426,-230.7 426,-474.7 702,-474.7 702,-230.7 426,-230.7"/>
<polygon fill="#f5f5f5" stroke="transparent" points="428,-449.7 428,-472.7 700,-472.7 700,-449.7 428,-449.7"/>
<polygon fill="none" stroke="#000000" points="428,-449.7 428,-472.7 700,-472.7 700,-449.7 428,-449.7"/>
<text text-anchor="start" x="433" y="-458.3" font-family="Helvetica,sans-Serif" font-weight="bold" font-size="11.00" fill="#000000">sa_ccr_audit_trail</text>
<text text-anchor="start" x="665.0437" y="-457.8" font-family="Helvetica,sans-Serif" font-size="11.00" fill="#000000">[table]</text>
<polygon fill="none" stroke="#000000" points="428,-427.7 428,-449.7 601,-449.7 601,-427.7 428,-427.7"/>
<image xlink:href="../../images/primaryKeys.png" width="11px" height="12px" preserveAspectRatio="xMinYMin meet" x="433" y="-444.7"/>
<text text-anchor="start" x="448" y="-434.8" font-family="Helvetica,sans-Serif" font-size="11.00" fill="#000000">id</text>
<polygon fill="none" stroke="#000000" points="601,-427.7 601,-449.7 700,-449.7 700,-427.7 601,-427.7"/>
<text text-anchor="start" x="604" y="-435.4" font-family="Helvetica,sans-Serif" font-size="11.00" fill="#000000">bigserial[19]</text>
<polygon fill="#ffffff" stroke="transparent" points="428,-405.7 428,-427.7 601,-427.7 601,-405.7 428,-405.7"/>
<polygon fill="none" stroke="#000000" points="428,-405.7 428,-427.7 601,-427.7 601,-405.7 428,-405.7"/>
<image xlink:href="../../images/foreignKeys.png" width="11px" height="12px" preserveAspectRatio="xMinYMin meet" x="433" y="-422.7"/>
<text text-anchor="start" x="448" y="-412.8" font-family="Helvetica,sans-Serif" font-size="11.00" fill="#000000">calculation_id</text>
<polygon fill="none" stroke="#000000" points="601,-405.7 601,-427.7 700,-427.7 700,-405.7 601,-405.7"/>
<text text-anchor="start" x="604" y="-413.4" font-family="Helvetica,sans-Serif" font-size="11.00" fill="#000000">varchar[100]</text>
<polygon fill="none" stroke="#000000" points="428,-383.7 428,-405.7 601,-405.7 601,-383.7 428,-383.7"/>
<text text-anchor="start" x="448" y="-390.8" font-family="Helvetica,sans-Serif" font-size="11.00" fill="#000000">step_number</text>
<polygon fill="none" stroke="#000000" points="601,-383.7 601,-405.7 700,-405.7 700,-383.7 601,-383.7"/>
<text text-anchor="start" x="604" y="-391.4" font-family="Helvetica,sans-Serif" font-size="11.00" fill="#000000">int4[10]</text>
<polygon fill="none" stroke="#000000" points="428,-361.7 428,-383.7 601,-383.7 601,-361.7 428,-361.7"/>
<text text-anchor="start" x="448" y="-368.8" font-family="Helvetica,sans-Serif" font-size="11.00" fill="#000000">step_name</text>
<polygon fill="none" stroke="#000000" points="601,-361.7 601,-383.7 700,-383.7 700,-361.7 601,-361.7"/>
<text text-anchor="start" x="604" y="-369.4" font-family="Helvetica,sans-Serif" font-size="11.00" fill="#000000">varchar[100]</text>
<polygon fill="none" stroke="#000000" points="428,-339.7 428,-361.7 601,-361.7 601,-339.7 428,-339.7"/>
<text text-anchor="start" x="448" y="-346.8" font-family="Helvetica,sans-Serif" font-size="11.00" fill="#000000">description</text>
<polygon fill="none" stroke="#000000" points="601,-339.7 601,-361.7 700,-361.7 700,-339.7 601,-339.7"/>
<text text-anchor="start" x="604" y="-347.4" font-family="Helvetica,sans-Serif" font-size="11.00" fill="#000000">text[2147483647]</text>
<polygon fill="none" stroke="#000000" points="428,-317.7 428,-339.7 601,-339.7 601,-317.7 428,-317.7"/>
<text text-anchor="start" x="448" y="-324.8" font-family="Helvetica,sans-Serif" font-size="11.00" fill="#000000">input_values</text>
<polygon fill="none" stroke="#000000" points="601,-317.7 601,-339.7 700,-339.7 700,-317.7 601,-317.7"/>
<text text-anchor="start" x="603.7258" y="-325.4" font-family="Helvetica,sans-Serif" font-size="11.00" fill="#000000">jsonb[2147483647]</text>
<polygon fill="none" stroke="#000000" points="428,-295.7 428,-317.7 601,-317.7 601,-295.7 428,-295.7"/>
<text text-anchor="start" x="448" y="-302.8" font-family="Helvetica,sans-Serif" font-size="11.00" fill="#000000">output_values</text>
<polygon fill="none" stroke="#000000" points="601,-295.7 601,-317.7 700,-317.7 700,-295.7 601,-295.7"/>
<text text-anchor="start" x="603.7258" y="-303.4" font-family="Helvetica,sans-Serif" font-size="11.00" fill="#000000">jsonb[2147483647]</text>
<polygon fill="none" stroke="#000000" points="428,-273.7 428,-295.7 601,-295.7 601,-273.7 428,-273.7"/>
<text text-anchor="start" x="448" y="-280.8" font-family="Helvetica,sans-Serif" font-size="11.00" fill="#000000">parameters_used</text>
<polygon fill="none" stroke="#000000" points="601,-273.7 601,-295.7 700,-295.7 700,-273.7 601,-273.7"/>
<text text-anchor="start" x="603.7258" y="-281.4" font-family="Helvetica,sans-Serif" font-size="11.00" fill="#000000">jsonb[2147483647]</text>
<polygon fill="none" stroke="#000000" points="428,-251.7 428,-273.7 601,-273.7 601,-251.7 428,-251.7"/>
<text text-anchor="start" x="448" y="-258.8" font-family="Helvetica,sans-Serif" font-size="11.00" fill="#000000">calculation_timestamp</text>
<polygon fill="none" stroke="#000000" points="601,-251.7 601,-273.7 700,-273.7 700,-251.7 601,-251.7"/>
<text text-anchor="start" x="604" y="-259.4" font-family="Helvetica,sans-Serif" font-size="11.00" fill="#000000">timestamp[29,6]</text>
<polygon fill="#ffffff" stroke="transparent" points="428,-232.7 428,-251.7 519,-251.7 519,-232.7 428,-232.7"/>
<polygon fill="none" stroke="#000000" points="428,-232.7 428,-251.7 519,-251.7 519,-232.7 428,-232.7"/>
<text text-anchor="start" x="431" y="-238.8" font-family="Helvetica,sans-Serif" font-size="11.00" fill="#000000">&lt; 1</text>
<polygon fill="#ffffff" stroke="transparent" points="519,-232.7 519,-251.7 601,-251.7 601,-232.7 519,-232.7"/>
<polygon fill="none" stroke="#000000" points="519,-232.7 519,-251.7 601,-251.7 601,-232.7 519,-232.7"/>
<text text-anchor="start" x="591.8862" y="-238.8" font-family="Helvetica,sans-Serif" font-size="11.00" fill="#000000"> &#160;</text>
<polygon fill="#ffffff" stroke="transparent" points="601,-232.7 601,-251.7 700,-251.7 700,-232.7 601,-232.7"/>
<polygon fill="none" stroke="#000000" points="601,-232.7 601,-251.7 700,-251.7 700,-232.7 601,-232.7"/>
<text text-anchor="start" x="681.4053" y="-238.8" font-family="Helvetica,sans-Serif" font-size="11.00" fill="#000000">0 &gt;</text>
<polygon fill="none" stroke="#000000" stroke-width="2" points="427,-231.7 427,-473.7 701,-473.7 701,-231.7 427,-231.7"/>
</a>
</g>
</g>
<!-- sa_ccr_calculations -->
<g id="node2" class="node">
<title>sa_ccr_calculations</title>
<g id="a_node2"><a xlink:href="../../tables/sa_ccr_calculations.html" xlink:title="sa_ccr_calculations" target="_top">
<polygon fill="#ffffff" stroke="transparent" points="179,-76.2 179,-247.2 377,-247.2 377,-76.2 179,-76.2"/>
<polygon fill="#f5f5f5" stroke="transparent" points="179,-223.7 179,-246.7 377,-246.7 377,-223.7 179,-223.7"/>
<polygon fill="none" stroke="#000000" points="179,-223.7 179,-246.7 377,-246.7 377,-223.7 179,-223.7"/>
<text text-anchor="start" x="184" y="-232.3" font-family="Helvetica,sans-Serif" font-weight="bold" font-size="11.00" fill="#000000">sa_ccr_calculations</text>
<text text-anchor="start" x="342.0437" y="-231.8" font-family="Helvetica,sans-Serif" font-size="11.00" fill="#000000">[table]</text>
<polygon fill="none" stroke="#000000" points="179,-201.7 179,-223.7 377,-223.7 377,-201.7 179,-201.7"/>
<image xlink:href="../../images/primaryKeys.png" width="11px" height="12px" preserveAspectRatio="xMinYMin meet" x="184" y="-218.7"/>
<text text-anchor="start" x="199" y="-208.8" font-family="Helvetica,sans-Serif" font-size="11.00" fill="#000000">id</text>
<polygon fill="#ffffff" stroke="transparent" points="179,-179.7 179,-201.7 377,-201.7 377,-179.7 179,-179.7"/>
<polygon fill="none" stroke="#000000" points="179,-179.7 179,-201.7 377,-201.7 377,-179.7 179,-179.7"/>
<text text-anchor="start" x="199" y="-186.8" font-family="Helvetica,sans-Serif" font-size="11.00" fill="#000000">calculation_id</text>
<polygon fill="#ffffff" stroke="transparent" points="179,-157.7 179,-179.7 377,-179.7 377,-157.7 179,-157.7"/>
<polygon fill="none" stroke="#000000" points="179,-157.7 179,-179.7 377,-179.7 377,-157.7 179,-157.7"/>
<image xlink:href="../../images/foreignKeys.png" width="11px" height="12px" preserveAspectRatio="xMinYMin meet" x="184" y="-174.7"/>
<text text-anchor="start" x="199" y="-164.8" font-family="Helvetica,sans-Serif" font-size="11.00" fill="#000000">netting_set_id</text>
<polygon fill="#ffffff" stroke="transparent" points="179,-135.7 179,-157.7 377,-157.7 377,-135.7 179,-135.7"/>
<polygon fill="none" stroke="#000000" points="179,-135.7 179,-157.7 377,-157.7 377,-135.7 179,-135.7"/>
<text text-anchor="start" x="199" y="-142.8" font-family="Helvetica,sans-Serif" font-size="11.00" fill="#000000">calculation_date</text>
<polygon fill="#ffffff" stroke="transparent" points="179,-113.7 179,-135.7 377,-135.7 377,-113.7 179,-113.7"/>
<polygon fill="none" stroke="#000000" points="179,-113.7 179,-135.7 377,-135.7 377,-113.7 179,-113.7"/>
<text text-anchor="start" x="199" y="-120.8" font-family="Helvetica,sans-Serif" font-size="11.00" fill="#000000">jurisdiction</text>
<polygon fill="none" stroke="#000000" points="179,-94.7 179,-113.7 377,-113.7 377,-94.7 179,-94.7"/>
<text text-anchor="start" x="182" y="-100.8" font-family="Helvetica,sans-Serif" font-size="11.00" fill="#000000">...</text>
<polygon fill="#ffffff" stroke="transparent" points="179,-75.7 179,-94.7 272,-94.7 272,-75.7 179,-75.7"/>
<polygon fill="none" stroke="#000000" points="179,-75.7 179,-94.7 272,-94.7 272,-75.7 179,-75.7"/>
<text text-anchor="start" x="182" y="-81.8" font-family="Helvetica,sans-Serif" font-size="11.00" fill="#000000">&lt; 1</text>
<polygon fill="#ffffff" stroke="transparent" points="272,-75.7 272,-94.7 320,-94.7 320,-75.7 272,-75.7"/>
<polygon fill="none" stroke="#000000" points="272,-75.7 272,-94.7 320,-94.7 320,-75.7 272,-75.7"/>
<text text-anchor="start" x="310.8862" y="-81.8" font-family="Helvetica,sans-Serif" font-size="11.00" fill="#000000"> &#160;</text>
<polygon fill="#ffffff" stroke="transparent" points="320,-75.7 320,-94.7 377,-94.7 377,-75.7 320,-75.7"/>
<polygon fill="none" stroke="#000000" points="320,-75.7 320,-94.7 377,-94.7 377,-75.7 320,-75.7"/>
<text text-anchor="start" x="358.4053" y="-81.8" font-family="Helvetica,sans-Serif" font-size="11.00" fill="#000000">3 &gt;</text>
</a>
</g>
</g>
<!-- sa_ccr_audit_trail&#45;&gt;sa_ccr_calculations -->
<g id="edge1" class="edge">
<title>sa_ccr_audit_trail:w&#45;&gt;sa_ccr_calculations:e</title>
<path fill="none" stroke="#000000" d="M413.3361,-414.7462C341.2051,-392.6572 474.339,-190.7 377,-190.7"/>
<polygon fill="#000000" stroke="#000000" points="420.0701,-415.6434 427.5245,-420.2685 424.035,-416.1717 428,-416.7 428,-416.7 428,-416.7 424.035,-416.1717 428.4755,-413.1315 420.0701,-415.6434 420.0701,-415.6434"/>
<ellipse fill="none" stroke="#000000" cx="416.8981" cy="-415.2207" rx="3.2" ry="3.2"/>
</g>
<!-- netting_sets -->
<g id="node4" class="node">
<title>netting_sets</title>
<g id="a_node4"><a xlink:href="../../tables/netting_sets.html" xlink:title="netting_sets" target="_top">
<polygon fill="#ffffff" stroke="transparent" points="8,-82.2 8,-143.2 130,-143.2 130,-82.2 8,-82.2"/>
<polygon fill="#f5f5f5" stroke="transparent" points="8,-119.7 8,-142.7 130,-142.7 130,-119.7 8,-119.7"/>
<polygon fill="none" stroke="#000000" points="8,-119.7 8,-142.7 130,-142.7 130,-119.7 8,-119.7"/>
<text text-anchor="start" x="13" y="-128.3" font-family="Helvetica,sans-Serif" font-weight="bold" font-size="11.00" fill="#000000">netting_sets</text>
<text text-anchor="start" x="95.5219" y="-127.8" font-family="Helvetica,sans-Serif" font-size="11.00" fill="#000000">[table]</text>
<polygon fill="none" stroke="#000000" points="8,-100.7 8,-119.7 130,-119.7 130,-100.7 8,-100.7"/>
<text text-anchor="start" x="11" y="-106.8" font-family="Helvetica,sans-Serif" font-size="11.00" fill="#000000">...</text>
<polygon fill="#ffffff" stroke="transparent" points="8,-81.7 8,-100.7 58,-100.7 58,-81.7 8,-81.7"/>
<polygon fill="none" stroke="#000000" points="8,-81.7 8,-100.7 58,-100.7 58,-81.7 8,-81.7"/>
<text text-anchor="start" x="11" y="-87.8" font-family="Helvetica,sans-Serif" font-size="11.00" fill="#000000"> &#160;</text>
<polygon fill="#ffffff" stroke="transparent" points="58,-81.7 58,-100.7 89,-100.7 89,-81.7 58,-81.7"/>
<polygon fill="none" stroke="#000000" points="58,-81.7 58,-100.7 89,-100.7 89,-81.7 58,-81.7"/>
<text text-anchor="start" x="79.8862" y="-87.8" font-family="Helvetica,sans-Serif" font-size="11.00" fill="#000000"> &#160;</text>
<polygon fill="#ffffff" stroke="transparent" points="89,-81.7 89,-100.7 130,-100.7 130,-81.7 89,-81.7"/>
<polygon fill="none" stroke="#000000" points="89,-81.7 89,-100.7 130,-100.7 130,-81.7 89,-81.7"/>
<text text-anchor="start" x="111.4053" y="-87.8" font-family="Helvetica,sans-Serif" font-size="11.00" fill="#000000">2 &gt;</text>
</a>
</g>
</g>
<!-- sa_ccr_calculations&#45;&gt;netting_sets -->
<g id="edge3" class="edge">
<title>sa_ccr_calculations:w&#45;&gt;netting_sets:e</title>
<path fill="none" stroke="#000000" d="M165.1662,-163.6697C150.0842,-149.4018 157.9614,-109.7 130,-109.7"/>
<polygon fill="#000000" stroke="#000000" points="171.4816,-165.9661 177.7697,-172.0833 175.2408,-167.3331 179,-168.7 179,-168.7 179,-168.7 175.2408,-167.3331 180.2303,-165.3167 171.4816,-165.9661 171.4816,-165.9661"/>
<ellipse fill="none" stroke="#000000" cx="168.4743" cy="-164.8725" rx="3.2" ry="3.2"/>
</g>
<!-- sa_ccr_calculation_details -->
<g id="node3" class="node">
<title>sa_ccr_calculation_details</title>
<g id="a_node3"><a xlink:href="../../tables/sa_ccr_calculation_details.html" xlink:title="sa_ccr_calculation_details" target="_top">
<polygon fill="#ffffff" stroke="transparent" points="458,-148.2 458,-209.2 670,-209.2 670,-148.2 458,-148.2"/>
<polygon fill="#f5f5f5" stroke="transparent" points="458,-185.7 458,-208.7 670,-208.7 670,-185.7 458,-185.7"/>
<polygon fill="none" stroke="#000000" points="458,-185.7 458,-208.7 670,-208.7 670,-185.7 458,-185.7"/>
<text text-anchor="start" x="463" y="-194.3" font-family="Helvetica,sans-Serif" font-weight="bold" font-size="11.00" fill="#000000">sa_ccr_calculation_details</text>
<text text-anchor="start" x="635.5219" y="-193.8" font-family="Helvetica,sans-Serif" font-size="11.00" fill="#000000">[table]</text>
<polygon fill="none" stroke="#000000" points="458,-166.7 458,-185.7 670,-185.7 670,-166.7 458,-166.7"/>
<text text-anchor="start" x="461" y="-172.8" font-family="Helvetica,sans-Serif" font-size="11.00" fill="#000000">...</text>
<polygon fill="#ffffff" stroke="transparent" points="458,-147.7 458,-166.7 562,-166.7 562,-147.7 458,-147.7"/>
<polygon fill="none" stroke="#000000" points="458,-147.7 458,-166.7 562,-166.7 562,-147.7 458,-147.7"/>
<text text-anchor="start" x="461" y="-153.8" font-family="Helvetica,sans-Serif" font-size="11.00" fill="#000000">&lt; 1</text>
<polygon fill="#ffffff" stroke="transparent" points="562,-147.7 562,-166.7 616,-166.7 616,-147.7 562,-147.7"/>
<polygon fill="none" stroke="#000000" points="562,-147.7 562,-166.7 616,-166.7 616,-147.7 562,-147.7"/>
<text text-anchor="start" x="606.8862" y="-153.8" font-family="Helvetica,sans-Serif" font-size="11.00" fill="#000000"> &#160;</text>
<polygon fill="#ffffff" stroke="transparent" points="616,-147.7 616,-166.7 670,-166.7 670,-147.7 616,-147.7"/>
<polygon fill="none" stroke="#000000" points="616,-147.7 616,-166.7 670,-166.7 670,-147.7 616,-147.7"/>
<text text-anchor="start" x="660.8862" y="-153.8" font-family="Helvetica,sans-Serif" font-size="11.00" fill="#000000"> &#160;</text>
</a>
</g>
</g>
<!-- sa_ccr_calculation_details&#45;&gt;sa_ccr_calculations -->
<g id="edge2" class="edge">
<title>sa_ccr_calculation_details:w&#45;&gt;sa_ccr_calculations:e</title>
<path fill="none" stroke="#000000" d="M443.4137,-176.5934C418.4441,-179.8226 408.1775,-190.7 377,-190.7"/>
<polygon fill="#000000" stroke="#000000" points="450.015,-176.1891 458.2201,-179.2933 454.0075,-175.9446 458,-175.7 458,-175.7 458,-175.7 454.0075,-175.9446 457.7799,-172.1067 450.015,-176.1891 450.015,-176.1891"/>
<ellipse fill="none" stroke="#000000" cx="446.8209" cy="-176.3848" rx="3.2" ry="3.2"/>
</g>
<!-- sa_ccr_trade_mappings -->
<g id="node5" class="node">
<title>sa_ccr_trade_mappings</title>
<g id="a_node5"><a xlink:href="../../tables/sa_ccr_trade_mappings.html" xlink:title="sa_ccr_trade_mappings" target="_top">
<polygon fill="#ffffff" stroke="transparent" points="466.5,-38.2 466.5,-99.2 661.5,-99.2 661.5,-38.2 466.5,-38.2"/>
<polygon fill="#f5f5f5" stroke="transparent" points="467,-75.7 467,-98.7 662,-98.7 662,-75.7 467,-75.7"/>
<polygon fill="none" stroke="#000000" points="467,-75.7 467,-98.7 662,-98.7 662,-75.7 467,-75.7"/>
<text text-anchor="start" x="472" y="-84.3" font-family="Helvetica,sans-Serif" font-weight="bold" font-size="11.00" fill="#000000">sa_ccr_trade_mappings</text>
<text text-anchor="start" x="627.5219" y="-83.8" font-family="Helvetica,sans-Serif" font-size="11.00" fill="#000000">[table]</text>
<polygon fill="none" stroke="#000000" points="467,-56.7 467,-75.7 662,-75.7 662,-56.7 467,-56.7"/>
<text text-anchor="start" x="470" y="-62.8" font-family="Helvetica,sans-Serif" font-size="11.00" fill="#000000">...</text>
<polygon fill="#ffffff" stroke="transparent" points="467,-37.7 467,-56.7 563,-56.7 563,-37.7 467,-37.7"/>
<polygon fill="none" stroke="#000000" points="467,-37.7 467,-56.7 563,-56.7 563,-37.7 467,-37.7"/>
<text text-anchor="start" x="470" y="-43.8" font-family="Helvetica,sans-Serif" font-size="11.00" fill="#000000">&lt; 3</text>
<polygon fill="#ffffff" stroke="transparent" points="563,-37.7 563,-56.7 612,-56.7 612,-37.7 563,-37.7"/>
<polygon fill="none" stroke="#000000" points="563,-37.7 563,-56.7 612,-56.7 612,-37.7 563,-37.7"/>
<text text-anchor="start" x="602.8862" y="-43.8" font-family="Helvetica,sans-Serif" font-size="11.00" fill="#000000"> &#160;</text>
<polygon fill="#ffffff" stroke="transparent" points="612,-37.7 612,-56.7 662,-56.7 662,-37.7 612,-37.7"/>
<polygon fill="none" stroke="#000000" points="612,-37.7 612,-56.7 662,-56.7 662,-37.7 612,-37.7"/>
<text text-anchor="start" x="652.8862" y="-43.8" font-family="Helvetica,sans-Serif" font-size="11.00" fill="#000000"> &#160;</text>
</a>
</g>
</g>
<!-- sa_ccr_trade_mappings&#45;&gt;sa_ccr_calculations -->
<g id="edge4" class="edge">
<title>sa_ccr_trade_mappings:w&#45;&gt;sa_ccr_calculations:e</title>
<path fill="none" stroke="#000000" d="M453.6074,-72.0706C426.6436,-97.5432 406.549,-190.7 377,-190.7"/>
<polygon fill="#000000" stroke="#000000" points="459.7757,-69.1365 468.5464,-68.9509 463.3878,-67.4183 467,-65.7 467,-65.7 467,-65.7 463.3878,-67.4183 465.4536,-62.4491 459.7757,-69.1365 459.7757,-69.1365"/>
<ellipse fill="none" stroke="#000000" cx="456.886" cy="-70.5111" rx="3.2" ry="3.2"/>
</g>
<!-- sa_ccr_trade_mappings&#45;&gt;netting_sets -->
<g id="edge5" class="edge">
<title>sa_ccr_trade_mappings:w&#45;&gt;netting_sets:e</title>
<path fill="none" stroke="#000000" d="M452.3415,-65.4803C331.9959,-61.8547 287.0401,-15.2186 171,-65.7 146.4894,-76.363 156.7296,-109.7 130,-109.7"/>
<polygon fill="#000000" stroke="#000000" points="459.0009,-65.5801 466.946,-69.2996 463.0004,-65.64 467,-65.7 467,-65.7 467,-65.7 463.0004,-65.64 467.054,-62.1004 459.0009,-65.5801 459.0009,-65.5801"/>
<ellipse fill="none" stroke="#000000" cx="455.8013" cy="-65.5321" rx="3.2" ry="3.2"/>
</g>
</g>
</svg>
