<?xml version="1.0" encoding="UTF-8" standalone="no"?>
<!DOCTYPE svg PUBLIC "-//W3C//DTD SVG 1.1//EN"
 "http://www.w3.org/Graphics/SVG/1.1/DTD/svg11.dtd">
<!-- Generated by graphviz version 2.40.1 (20161225.0304)
 -->
<!-- Title: oneDegreeRelationshipsDiagram Pages: 1 -->
<svg width="344pt" height="316pt"
 viewBox="0.00 0.00 344.00 316.20" xmlns="http://www.w3.org/2000/svg" xmlns:xlink="http://www.w3.org/1999/xlink">
<g id="graph0" class="graph" transform="scale(1 1) rotate(0) translate(4 312.2)">
<title>oneDegreeRelationshipsDiagram</title>
<polygon fill="#ffffff" stroke="transparent" points="-4,4 -4,-312.2 340,-312.2 340,4 -4,4"/>
<text text-anchor="middle" x="72.4936" y="-7.3" font-family="Helvetica,sans-Serif" font-size="11.00" fill="#000000">Generated by SchemaSpy</text>
<!-- sa_ccr_supervisory_parameters -->
<g id="node1" class="node">
<title>sa_ccr_supervisory_parameters</title>
<g id="a_node1"><a xlink:href="../../tables/sa_ccr_supervisory_parameters.html" xlink:title="sa_ccr_supervisory_parameters" target="_top">
<polygon fill="#ffffff" stroke="transparent" points="8,-38.2 8,-304.2 328,-304.2 328,-38.2 8,-38.2"/>
<polygon fill="#f5f5f5" stroke="transparent" points="10,-279.2 10,-302.2 326,-302.2 326,-279.2 10,-279.2"/>
<polygon fill="none" stroke="#000000" points="10,-279.2 10,-302.2 326,-302.2 326,-279.2 10,-279.2"/>
<text text-anchor="start" x="15" y="-287.8" font-family="Helvetica,sans-Serif" font-weight="bold" font-size="11.00" fill="#000000">sa_ccr_supervisory_parameters</text>
<text text-anchor="start" x="291.0437" y="-287.3" font-family="Helvetica,sans-Serif" font-size="11.00" fill="#000000">[table]</text>
<polygon fill="none" stroke="#000000" points="10,-257.2 10,-279.2 242,-279.2 242,-257.2 10,-257.2"/>
<image xlink:href="../../images/primaryKeys.png" width="11px" height="12px" preserveAspectRatio="xMinYMin meet" x="15" y="-274.2"/>
<text text-anchor="start" x="30" y="-264.3" font-family="Helvetica,sans-Serif" font-size="11.00" fill="#000000">id</text>
<polygon fill="none" stroke="#000000" points="242,-257.2 242,-279.2 326,-279.2 326,-257.2 242,-257.2"/>
<text text-anchor="start" x="245" y="-264.9" font-family="Helvetica,sans-Serif" font-size="11.00" fill="#000000">bigserial[19]</text>
<polygon fill="#ffffff" stroke="transparent" points="10,-235.2 10,-257.2 242,-257.2 242,-235.2 10,-235.2"/>
<polygon fill="none" stroke="#000000" points="10,-235.2 10,-257.2 242,-257.2 242,-235.2 10,-235.2"/>
<text text-anchor="start" x="30" y="-242.3" font-family="Helvetica,sans-Serif" font-size="11.00" fill="#000000">jurisdiction</text>
<polygon fill="none" stroke="#000000" points="242,-235.2 242,-257.2 326,-257.2 326,-235.2 242,-235.2"/>
<text text-anchor="start" x="245" y="-242.9" font-family="Helvetica,sans-Serif" font-size="11.00" fill="#000000">varchar[10]</text>
<polygon fill="#ffffff" stroke="transparent" points="10,-213.2 10,-235.2 242,-235.2 242,-213.2 10,-213.2"/>
<polygon fill="none" stroke="#000000" points="10,-213.2 10,-235.2 242,-235.2 242,-213.2 10,-213.2"/>
<text text-anchor="start" x="30" y="-220.3" font-family="Helvetica,sans-Serif" font-size="11.00" fill="#000000">asset_class</text>
<polygon fill="none" stroke="#000000" points="242,-213.2 242,-235.2 326,-235.2 326,-213.2 242,-213.2"/>
<text text-anchor="start" x="245" y="-220.9" font-family="Helvetica,sans-Serif" font-size="11.00" fill="#000000">varchar[50]</text>
<polygon fill="#ffffff" stroke="transparent" points="10,-191.2 10,-213.2 242,-213.2 242,-191.2 10,-191.2"/>
<polygon fill="none" stroke="#000000" points="10,-191.2 10,-213.2 242,-213.2 242,-191.2 10,-191.2"/>
<text text-anchor="start" x="30" y="-198.3" font-family="Helvetica,sans-Serif" font-size="11.00" fill="#000000">parameter_type</text>
<polygon fill="none" stroke="#000000" points="242,-191.2 242,-213.2 326,-213.2 326,-191.2 242,-191.2"/>
<text text-anchor="start" x="245" y="-198.9" font-family="Helvetica,sans-Serif" font-size="11.00" fill="#000000">varchar[50]</text>
<polygon fill="#ffffff" stroke="transparent" points="10,-169.2 10,-191.2 242,-191.2 242,-169.2 10,-169.2"/>
<polygon fill="none" stroke="#000000" points="10,-169.2 10,-191.2 242,-191.2 242,-169.2 10,-169.2"/>
<text text-anchor="start" x="30" y="-176.3" font-family="Helvetica,sans-Serif" font-size="11.00" fill="#000000">tenor_bucket</text>
<polygon fill="none" stroke="#000000" points="242,-169.2 242,-191.2 326,-191.2 326,-169.2 242,-169.2"/>
<text text-anchor="start" x="245" y="-176.9" font-family="Helvetica,sans-Serif" font-size="11.00" fill="#000000">varchar[20]</text>
<polygon fill="#ffffff" stroke="transparent" points="10,-147.2 10,-169.2 242,-169.2 242,-147.2 10,-147.2"/>
<polygon fill="none" stroke="#000000" points="10,-147.2 10,-169.2 242,-169.2 242,-147.2 10,-147.2"/>
<text text-anchor="start" x="30" y="-154.3" font-family="Helvetica,sans-Serif" font-size="11.00" fill="#000000">credit_quality</text>
<polygon fill="none" stroke="#000000" points="242,-147.2 242,-169.2 326,-169.2 326,-147.2 242,-147.2"/>
<text text-anchor="start" x="245" y="-154.9" font-family="Helvetica,sans-Serif" font-size="11.00" fill="#000000">varchar[20]</text>
<polygon fill="none" stroke="#000000" points="10,-125.2 10,-147.2 242,-147.2 242,-125.2 10,-125.2"/>
<text text-anchor="start" x="30" y="-132.3" font-family="Helvetica,sans-Serif" font-size="11.00" fill="#000000">parameter_value</text>
<polygon fill="none" stroke="#000000" points="242,-125.2 242,-147.2 326,-147.2 326,-125.2 242,-125.2"/>
<text text-anchor="start" x="245" y="-132.9" font-family="Helvetica,sans-Serif" font-size="11.00" fill="#000000">numeric[10,6]</text>
<polygon fill="#ffffff" stroke="transparent" points="10,-103.2 10,-125.2 242,-125.2 242,-103.2 10,-103.2"/>
<polygon fill="none" stroke="#000000" points="10,-103.2 10,-125.2 242,-125.2 242,-103.2 10,-103.2"/>
<text text-anchor="start" x="30" y="-110.3" font-family="Helvetica,sans-Serif" font-size="11.00" fill="#000000">effective_date</text>
<polygon fill="none" stroke="#000000" points="242,-103.2 242,-125.2 326,-125.2 326,-103.2 242,-103.2"/>
<text text-anchor="start" x="245" y="-110.9" font-family="Helvetica,sans-Serif" font-size="11.00" fill="#000000">date[13]</text>
<polygon fill="none" stroke="#000000" points="10,-81.2 10,-103.2 242,-103.2 242,-81.2 10,-81.2"/>
<text text-anchor="start" x="30" y="-88.3" font-family="Helvetica,sans-Serif" font-size="11.00" fill="#000000">expiry_date</text>
<polygon fill="none" stroke="#000000" points="242,-81.2 242,-103.2 326,-103.2 326,-81.2 242,-81.2"/>
<text text-anchor="start" x="245" y="-88.9" font-family="Helvetica,sans-Serif" font-size="11.00" fill="#000000">date[13]</text>
<polygon fill="none" stroke="#000000" points="10,-59.2 10,-81.2 242,-81.2 242,-59.2 10,-59.2"/>
<text text-anchor="start" x="30" y="-66.3" font-family="Helvetica,sans-Serif" font-size="11.00" fill="#000000">created_at</text>
<polygon fill="none" stroke="#000000" points="242,-59.2 242,-81.2 326,-81.2 326,-59.2 242,-59.2"/>
<text text-anchor="start" x="244.8807" y="-66.9" font-family="Helvetica,sans-Serif" font-size="11.00" fill="#000000">timestamp[29,6]</text>
<polygon fill="#ffffff" stroke="transparent" points="10,-40.2 10,-59.2 130,-59.2 130,-40.2 10,-40.2"/>
<polygon fill="none" stroke="#000000" points="10,-40.2 10,-59.2 130,-59.2 130,-40.2 10,-40.2"/>
<text text-anchor="start" x="13" y="-46.3" font-family="Helvetica,sans-Serif" font-size="11.00" fill="#000000">&lt; 0</text>
<polygon fill="#ffffff" stroke="transparent" points="130,-40.2 130,-59.2 242,-59.2 242,-40.2 130,-40.2"/>
<polygon fill="none" stroke="#000000" points="130,-40.2 130,-59.2 242,-59.2 242,-40.2 130,-40.2"/>
<text text-anchor="start" x="232.8862" y="-46.3" font-family="Helvetica,sans-Serif" font-size="11.00" fill="#000000"> &#160;</text>
<polygon fill="#ffffff" stroke="transparent" points="242,-40.2 242,-59.2 326,-59.2 326,-40.2 242,-40.2"/>
<polygon fill="none" stroke="#000000" points="242,-40.2 242,-59.2 326,-59.2 326,-40.2 242,-40.2"/>
<text text-anchor="start" x="307.4053" y="-46.3" font-family="Helvetica,sans-Serif" font-size="11.00" fill="#000000">0 &gt;</text>
<polygon fill="none" stroke="#000000" stroke-width="2" points="9,-39.2 9,-303.2 327,-303.2 327,-39.2 9,-39.2"/>
</a>
</g>
</g>
</g>
</svg>
