<?xml version="1.0" encoding="UTF-8" standalone="no"?>
<!DOCTYPE svg PUBLIC "-//W3C//DTD SVG 1.1//EN"
 "http://www.w3.org/Graphics/SVG/1.1/DTD/svg11.dtd">
<!-- Generated by graphviz version 2.40.1 (20161225.0304)
 -->
<!-- Title: oneDegreeRelationshipsDiagram Pages: 1 -->
<svg width="755pt" height="686pt"
 viewBox="0.00 0.00 755.00 686.42" xmlns="http://www.w3.org/2000/svg" xmlns:xlink="http://www.w3.org/1999/xlink">
<g id="graph0" class="graph" transform="scale(1 1) rotate(0) translate(4 682.421)">
<title>oneDegreeRelationshipsDiagram</title>
<polygon fill="#ffffff" stroke="transparent" points="-4,4 -4,-682.421 751,-682.421 751,4 -4,4"/>
<text text-anchor="middle" x="72.4936" y="-7.3" font-family="Helvetica,sans-Serif" font-size="11.00" fill="#000000">Generated by SchemaSpy</text>
<!-- sa_ccr_calculations -->
<g id="node1" class="node">
<title>sa_ccr_calculations</title>
<g id="a_node1"><a xlink:href="../../tables/sa_ccr_calculations.html" xlink:title="sa_ccr_calculations" target="_top">
<polygon fill="#ffffff" stroke="transparent" points="227,-503.421 227,-674.421 425,-674.421 425,-503.421 227,-503.421"/>
<polygon fill="#f5f5f5" stroke="transparent" points="227,-650.921 227,-673.921 425,-673.921 425,-650.921 227,-650.921"/>
<polygon fill="none" stroke="#000000" points="227,-650.921 227,-673.921 425,-673.921 425,-650.921 227,-650.921"/>
<text text-anchor="start" x="232" y="-659.521" font-family="Helvetica,sans-Serif" font-weight="bold" font-size="11.00" fill="#000000">sa_ccr_calculations</text>
<text text-anchor="start" x="390.0437" y="-659.021" font-family="Helvetica,sans-Serif" font-size="11.00" fill="#000000">[table]</text>
<polygon fill="none" stroke="#000000" points="227,-628.921 227,-650.921 425,-650.921 425,-628.921 227,-628.921"/>
<image xlink:href="../../images/primaryKeys.png" width="11px" height="12px" preserveAspectRatio="xMinYMin meet" x="232" y="-645.921"/>
<text text-anchor="start" x="247" y="-636.021" font-family="Helvetica,sans-Serif" font-size="11.00" fill="#000000">id</text>
<polygon fill="#ffffff" stroke="transparent" points="227,-606.921 227,-628.921 425,-628.921 425,-606.921 227,-606.921"/>
<polygon fill="none" stroke="#000000" points="227,-606.921 227,-628.921 425,-628.921 425,-606.921 227,-606.921"/>
<text text-anchor="start" x="247" y="-614.021" font-family="Helvetica,sans-Serif" font-size="11.00" fill="#000000">calculation_id</text>
<polygon fill="#ffffff" stroke="transparent" points="227,-584.921 227,-606.921 425,-606.921 425,-584.921 227,-584.921"/>
<polygon fill="none" stroke="#000000" points="227,-584.921 227,-606.921 425,-606.921 425,-584.921 227,-584.921"/>
<image xlink:href="../../images/foreignKeys.png" width="11px" height="12px" preserveAspectRatio="xMinYMin meet" x="232" y="-601.921"/>
<text text-anchor="start" x="247" y="-592.021" font-family="Helvetica,sans-Serif" font-size="11.00" fill="#000000">netting_set_id</text>
<polygon fill="#ffffff" stroke="transparent" points="227,-562.921 227,-584.921 425,-584.921 425,-562.921 227,-562.921"/>
<polygon fill="none" stroke="#000000" points="227,-562.921 227,-584.921 425,-584.921 425,-562.921 227,-562.921"/>
<text text-anchor="start" x="247" y="-570.021" font-family="Helvetica,sans-Serif" font-size="11.00" fill="#000000">calculation_date</text>
<polygon fill="#ffffff" stroke="transparent" points="227,-540.921 227,-562.921 425,-562.921 425,-540.921 227,-540.921"/>
<polygon fill="none" stroke="#000000" points="227,-540.921 227,-562.921 425,-562.921 425,-540.921 227,-540.921"/>
<text text-anchor="start" x="247" y="-548.021" font-family="Helvetica,sans-Serif" font-size="11.00" fill="#000000">jurisdiction</text>
<polygon fill="none" stroke="#000000" points="227,-521.921 227,-540.921 425,-540.921 425,-521.921 227,-521.921"/>
<text text-anchor="start" x="230" y="-528.021" font-family="Helvetica,sans-Serif" font-size="11.00" fill="#000000">...</text>
<polygon fill="#ffffff" stroke="transparent" points="227,-502.921 227,-521.921 320,-521.921 320,-502.921 227,-502.921"/>
<polygon fill="none" stroke="#000000" points="227,-502.921 227,-521.921 320,-521.921 320,-502.921 227,-502.921"/>
<text text-anchor="start" x="230" y="-509.021" font-family="Helvetica,sans-Serif" font-size="11.00" fill="#000000">&lt; 1</text>
<polygon fill="#ffffff" stroke="transparent" points="320,-502.921 320,-521.921 368,-521.921 368,-502.921 320,-502.921"/>
<polygon fill="none" stroke="#000000" points="320,-502.921 320,-521.921 368,-521.921 368,-502.921 320,-502.921"/>
<text text-anchor="start" x="358.8862" y="-509.021" font-family="Helvetica,sans-Serif" font-size="11.00" fill="#000000"> &#160;</text>
<polygon fill="#ffffff" stroke="transparent" points="368,-502.921 368,-521.921 425,-521.921 425,-502.921 368,-502.921"/>
<polygon fill="none" stroke="#000000" points="368,-502.921 368,-521.921 425,-521.921 425,-502.921 368,-502.921"/>
<text text-anchor="start" x="406.4053" y="-509.021" font-family="Helvetica,sans-Serif" font-size="11.00" fill="#000000">3 &gt;</text>
</a>
</g>
</g>
<!-- netting_sets -->
<g id="node2" class="node">
<title>netting_sets</title>
<g id="a_node2"><a xlink:href="../../tables/netting_sets.html" xlink:title="netting_sets" target="_top">
<polygon fill="#ffffff" stroke="transparent" points="8,-260.421 8,-387.421 178,-387.421 178,-260.421 8,-260.421"/>
<polygon fill="#f5f5f5" stroke="transparent" points="8,-363.921 8,-386.921 178,-386.921 178,-363.921 8,-363.921"/>
<polygon fill="none" stroke="#000000" points="8,-363.921 8,-386.921 178,-386.921 178,-363.921 8,-363.921"/>
<text text-anchor="start" x="13" y="-372.521" font-family="Helvetica,sans-Serif" font-weight="bold" font-size="11.00" fill="#000000">netting_sets</text>
<text text-anchor="start" x="143.0437" y="-372.021" font-family="Helvetica,sans-Serif" font-size="11.00" fill="#000000">[table]</text>
<polygon fill="none" stroke="#000000" points="8,-341.921 8,-363.921 178,-363.921 178,-341.921 8,-341.921"/>
<image xlink:href="../../images/primaryKeys.png" width="11px" height="12px" preserveAspectRatio="xMinYMin meet" x="13" y="-358.921"/>
<text text-anchor="start" x="28" y="-349.021" font-family="Helvetica,sans-Serif" font-size="11.00" fill="#000000">id</text>
<polygon fill="#ffffff" stroke="transparent" points="8,-319.921 8,-341.921 178,-341.921 178,-319.921 8,-319.921"/>
<polygon fill="none" stroke="#000000" points="8,-319.921 8,-341.921 178,-341.921 178,-319.921 8,-319.921"/>
<text text-anchor="start" x="28" y="-327.021" font-family="Helvetica,sans-Serif" font-size="11.00" fill="#000000">netting_set_id</text>
<polygon fill="#ffffff" stroke="transparent" points="8,-297.921 8,-319.921 178,-319.921 178,-297.921 8,-297.921"/>
<polygon fill="none" stroke="#000000" points="8,-297.921 8,-319.921 178,-319.921 178,-297.921 8,-297.921"/>
<text text-anchor="start" x="28" y="-305.021" font-family="Helvetica,sans-Serif" font-size="11.00" fill="#000000">counterparty_id</text>
<polygon fill="none" stroke="#000000" points="8,-278.921 8,-297.921 178,-297.921 178,-278.921 8,-278.921"/>
<text text-anchor="start" x="11" y="-285.021" font-family="Helvetica,sans-Serif" font-size="11.00" fill="#000000">...</text>
<polygon fill="#ffffff" stroke="transparent" points="8,-259.921 8,-278.921 82,-278.921 82,-259.921 8,-259.921"/>
<polygon fill="none" stroke="#000000" points="8,-259.921 8,-278.921 82,-278.921 82,-259.921 8,-259.921"/>
<text text-anchor="start" x="11" y="-266.021" font-family="Helvetica,sans-Serif" font-size="11.00" fill="#000000"> &#160;</text>
<polygon fill="#ffffff" stroke="transparent" points="82,-259.921 82,-278.921 125,-278.921 125,-259.921 82,-259.921"/>
<polygon fill="none" stroke="#000000" points="82,-259.921 82,-278.921 125,-278.921 125,-259.921 82,-259.921"/>
<text text-anchor="start" x="115.8862" y="-266.021" font-family="Helvetica,sans-Serif" font-size="11.00" fill="#000000"> &#160;</text>
<polygon fill="#ffffff" stroke="transparent" points="125,-259.921 125,-278.921 178,-278.921 178,-259.921 125,-259.921"/>
<polygon fill="none" stroke="#000000" points="125,-259.921 125,-278.921 178,-278.921 178,-259.921 125,-259.921"/>
<text text-anchor="start" x="159.4053" y="-266.021" font-family="Helvetica,sans-Serif" font-size="11.00" fill="#000000">2 &gt;</text>
</a>
</g>
</g>
<!-- sa_ccr_calculations&#45;&gt;netting_sets -->
<g id="edge1" class="edge">
<title>sa_ccr_calculations:w&#45;&gt;netting_sets:e</title>
<path fill="none" stroke="#000000" d="M213.8331,-589.8882C178.7754,-550.4429 232.5067,-330.921 178,-330.921"/>
<polygon fill="#000000" stroke="#000000" points="219.7271,-592.5887 225.5004,-599.1939 223.3635,-594.2549 227,-595.921 227,-595.921 227,-595.921 223.3635,-594.2549 228.4996,-592.6482 219.7271,-592.5887 219.7271,-592.5887"/>
<ellipse fill="none" stroke="#000000" cx="216.8179" cy="-591.2558" rx="3.2" ry="3.2"/>
</g>
<!-- sa_ccr_trade_mappings -->
<g id="node3" class="node">
<title>sa_ccr_trade_mappings</title>
<g id="a_node3"><a xlink:href="../../tables/sa_ccr_trade_mappings.html" xlink:title="sa_ccr_trade_mappings" target="_top">
<polygon fill="#ffffff" stroke="transparent" points="474,-239.921 474,-527.921 739,-527.921 739,-239.921 474,-239.921"/>
<polygon fill="#f5f5f5" stroke="transparent" points="476.5,-502.921 476.5,-525.921 737.5,-525.921 737.5,-502.921 476.5,-502.921"/>
<polygon fill="none" stroke="#000000" points="476.5,-502.921 476.5,-525.921 737.5,-525.921 737.5,-502.921 476.5,-502.921"/>
<text text-anchor="start" x="481.5" y="-511.521" font-family="Helvetica,sans-Serif" font-weight="bold" font-size="11.00" fill="#000000">sa_ccr_trade_mappings</text>
<text text-anchor="start" x="702.5437" y="-511.021" font-family="Helvetica,sans-Serif" font-size="11.00" fill="#000000">[table]</text>
<polygon fill="none" stroke="#000000" points="476.5,-480.921 476.5,-502.921 653.5,-502.921 653.5,-480.921 476.5,-480.921"/>
<image xlink:href="../../images/primaryKeys.png" width="11px" height="12px" preserveAspectRatio="xMinYMin meet" x="481.5" y="-497.921"/>
<text text-anchor="start" x="496.5" y="-488.021" font-family="Helvetica,sans-Serif" font-size="11.00" fill="#000000">id</text>
<polygon fill="none" stroke="#000000" points="653.5,-480.921 653.5,-502.921 737.5,-502.921 737.5,-480.921 653.5,-480.921"/>
<text text-anchor="start" x="656.5" y="-488.621" font-family="Helvetica,sans-Serif" font-size="11.00" fill="#000000">bigserial[19]</text>
<polygon fill="#ffffff" stroke="transparent" points="476.5,-458.921 476.5,-480.921 653.5,-480.921 653.5,-458.921 476.5,-458.921"/>
<polygon fill="none" stroke="#000000" points="476.5,-458.921 476.5,-480.921 653.5,-480.921 653.5,-458.921 476.5,-458.921"/>
<image xlink:href="../../images/foreignKeys.png" width="11px" height="12px" preserveAspectRatio="xMinYMin meet" x="481.5" y="-475.921"/>
<text text-anchor="start" x="496.5" y="-466.021" font-family="Helvetica,sans-Serif" font-size="11.00" fill="#000000">calculation_id</text>
<polygon fill="none" stroke="#000000" points="653.5,-458.921 653.5,-480.921 737.5,-480.921 737.5,-458.921 653.5,-458.921"/>
<text text-anchor="start" x="656.5" y="-466.621" font-family="Helvetica,sans-Serif" font-size="11.00" fill="#000000">varchar[100]</text>
<polygon fill="none" stroke="#000000" points="476.5,-436.921 476.5,-458.921 653.5,-458.921 653.5,-436.921 476.5,-436.921"/>
<image xlink:href="../../images/foreignKeys.png" width="11px" height="12px" preserveAspectRatio="xMinYMin meet" x="481.5" y="-453.921"/>
<text text-anchor="start" x="496.5" y="-444.021" font-family="Helvetica,sans-Serif" font-size="11.00" fill="#000000">trade_id</text>
<polygon fill="none" stroke="#000000" points="653.5,-436.921 653.5,-458.921 737.5,-458.921 737.5,-436.921 653.5,-436.921"/>
<text text-anchor="start" x="656.5" y="-444.621" font-family="Helvetica,sans-Serif" font-size="11.00" fill="#000000">int8[19]</text>
<polygon fill="none" stroke="#000000" points="476.5,-414.921 476.5,-436.921 653.5,-436.921 653.5,-414.921 476.5,-414.921"/>
<image xlink:href="../../images/foreignKeys.png" width="11px" height="12px" preserveAspectRatio="xMinYMin meet" x="481.5" y="-431.921"/>
<text text-anchor="start" x="496.5" y="-422.021" font-family="Helvetica,sans-Serif" font-size="11.00" fill="#000000">netting_set_id</text>
<polygon fill="none" stroke="#000000" points="653.5,-414.921 653.5,-436.921 737.5,-436.921 737.5,-414.921 653.5,-414.921"/>
<text text-anchor="start" x="656.5" y="-422.621" font-family="Helvetica,sans-Serif" font-size="11.00" fill="#000000">varchar[100]</text>
<polygon fill="none" stroke="#000000" points="476.5,-392.921 476.5,-414.921 653.5,-414.921 653.5,-392.921 476.5,-392.921"/>
<text text-anchor="start" x="496.5" y="-400.021" font-family="Helvetica,sans-Serif" font-size="11.00" fill="#000000">asset_class</text>
<polygon fill="none" stroke="#000000" points="653.5,-392.921 653.5,-414.921 737.5,-414.921 737.5,-392.921 653.5,-392.921"/>
<text text-anchor="start" x="656.5" y="-400.621" font-family="Helvetica,sans-Serif" font-size="11.00" fill="#000000">varchar[50]</text>
<polygon fill="none" stroke="#000000" points="476.5,-370.921 476.5,-392.921 653.5,-392.921 653.5,-370.921 476.5,-370.921"/>
<text text-anchor="start" x="496.5" y="-378.021" font-family="Helvetica,sans-Serif" font-size="11.00" fill="#000000">notional_amount</text>
<polygon fill="none" stroke="#000000" points="653.5,-370.921 653.5,-392.921 737.5,-392.921 737.5,-370.921 653.5,-370.921"/>
<text text-anchor="start" x="656.5" y="-378.621" font-family="Helvetica,sans-Serif" font-size="11.00" fill="#000000">numeric[20,8]</text>
<polygon fill="none" stroke="#000000" points="476.5,-348.921 476.5,-370.921 653.5,-370.921 653.5,-348.921 476.5,-348.921"/>
<text text-anchor="start" x="496.5" y="-356.021" font-family="Helvetica,sans-Serif" font-size="11.00" fill="#000000">maturity_date</text>
<polygon fill="none" stroke="#000000" points="653.5,-348.921 653.5,-370.921 737.5,-370.921 737.5,-348.921 653.5,-348.921"/>
<text text-anchor="start" x="656.5" y="-356.621" font-family="Helvetica,sans-Serif" font-size="11.00" fill="#000000">date[13]</text>
<polygon fill="none" stroke="#000000" points="476.5,-326.921 476.5,-348.921 653.5,-348.921 653.5,-326.921 476.5,-326.921"/>
<text text-anchor="start" x="496.5" y="-334.021" font-family="Helvetica,sans-Serif" font-size="11.00" fill="#000000">effective_maturity</text>
<polygon fill="none" stroke="#000000" points="653.5,-326.921 653.5,-348.921 737.5,-348.921 737.5,-326.921 653.5,-326.921"/>
<text text-anchor="start" x="656.5" y="-334.621" font-family="Helvetica,sans-Serif" font-size="11.00" fill="#000000">numeric[10,3]</text>
<polygon fill="none" stroke="#000000" points="476.5,-304.921 476.5,-326.921 653.5,-326.921 653.5,-304.921 476.5,-304.921"/>
<text text-anchor="start" x="496.5" y="-312.021" font-family="Helvetica,sans-Serif" font-size="11.00" fill="#000000">current_mtm</text>
<polygon fill="none" stroke="#000000" points="653.5,-304.921 653.5,-326.921 737.5,-326.921 737.5,-304.921 653.5,-304.921"/>
<text text-anchor="start" x="656.5" y="-312.621" font-family="Helvetica,sans-Serif" font-size="11.00" fill="#000000">numeric[20,8]</text>
<polygon fill="none" stroke="#000000" points="476.5,-282.921 476.5,-304.921 653.5,-304.921 653.5,-282.921 476.5,-282.921"/>
<text text-anchor="start" x="496.5" y="-290.021" font-family="Helvetica,sans-Serif" font-size="11.00" fill="#000000">supervisory_delta</text>
<polygon fill="none" stroke="#000000" points="653.5,-282.921 653.5,-304.921 737.5,-304.921 737.5,-282.921 653.5,-282.921"/>
<text text-anchor="start" x="656.5" y="-290.621" font-family="Helvetica,sans-Serif" font-size="11.00" fill="#000000">numeric[10,6]</text>
<polygon fill="none" stroke="#000000" points="476.5,-260.921 476.5,-282.921 653.5,-282.921 653.5,-260.921 476.5,-260.921"/>
<text text-anchor="start" x="496.5" y="-268.021" font-family="Helvetica,sans-Serif" font-size="11.00" fill="#000000">created_at</text>
<polygon fill="none" stroke="#000000" points="653.5,-260.921 653.5,-282.921 737.5,-282.921 737.5,-260.921 653.5,-260.921"/>
<text text-anchor="start" x="656.3807" y="-268.621" font-family="Helvetica,sans-Serif" font-size="11.00" fill="#000000">timestamp[29,6]</text>
<polygon fill="#ffffff" stroke="transparent" points="476.5,-241.921 476.5,-260.921 569.5,-260.921 569.5,-241.921 476.5,-241.921"/>
<polygon fill="none" stroke="#000000" points="476.5,-241.921 476.5,-260.921 569.5,-260.921 569.5,-241.921 476.5,-241.921"/>
<text text-anchor="start" x="479.5" y="-248.021" font-family="Helvetica,sans-Serif" font-size="11.00" fill="#000000">&lt; 3</text>
<polygon fill="#ffffff" stroke="transparent" points="569.5,-241.921 569.5,-260.921 653.5,-260.921 653.5,-241.921 569.5,-241.921"/>
<polygon fill="none" stroke="#000000" points="569.5,-241.921 569.5,-260.921 653.5,-260.921 653.5,-241.921 569.5,-241.921"/>
<text text-anchor="start" x="644.3862" y="-248.021" font-family="Helvetica,sans-Serif" font-size="11.00" fill="#000000"> &#160;</text>
<polygon fill="#ffffff" stroke="transparent" points="653.5,-241.921 653.5,-260.921 737.5,-260.921 737.5,-241.921 653.5,-241.921"/>
<polygon fill="none" stroke="#000000" points="653.5,-241.921 653.5,-260.921 737.5,-260.921 737.5,-241.921 653.5,-241.921"/>
<text text-anchor="start" x="718.9053" y="-248.021" font-family="Helvetica,sans-Serif" font-size="11.00" fill="#000000">0 &gt;</text>
<polygon fill="none" stroke="#000000" stroke-width="2" points="475,-240.921 475,-526.921 738,-526.921 738,-240.921 475,-240.921"/>
</a>
</g>
</g>
<!-- sa_ccr_trade_mappings&#45;&gt;sa_ccr_calculations -->
<g id="edge2" class="edge">
<title>sa_ccr_trade_mappings:w&#45;&gt;sa_ccr_calculations:e</title>
<path fill="none" stroke="#000000" d="M462.3649,-472.7454C420.1977,-493.2064 488.9332,-617.921 425,-617.921"/>
<polygon fill="#000000" stroke="#000000" points="468.6551,-471.4886 477.2054,-473.4513 472.5775,-470.7048 476.5,-469.921 476.5,-469.921 476.5,-469.921 472.5775,-470.7048 475.7946,-466.3908 468.6551,-471.4886 468.6551,-471.4886"/>
<ellipse fill="none" stroke="#000000" cx="465.5171" cy="-472.1156" rx="3.2" ry="3.2"/>
</g>
<!-- sa_ccr_trade_mappings&#45;&gt;netting_sets -->
<g id="edge3" class="edge">
<title>sa_ccr_trade_mappings:w&#45;&gt;netting_sets:e</title>
<path fill="none" stroke="#000000" d="M462.5959,-421.7487C411.386,-385.7929 486.8826,-128.4364 433,-80.921 361.6636,-18.0144 291.4918,-19.3495 219,-80.921 176.091,-117.3662 234.2977,-330.921 178,-330.921"/>
<polygon fill="#000000" stroke="#000000" points="468.8376,-423.6217 475.4653,-429.3691 472.6688,-424.7714 476.5,-425.921 476.5,-425.921 476.5,-425.921 472.6688,-424.7714 477.5347,-422.4729 468.8376,-423.6217 468.8376,-423.6217"/>
<ellipse fill="none" stroke="#000000" cx="465.7726" cy="-422.7019" rx="3.2" ry="3.2"/>
</g>
<!-- cds_trades -->
<g id="node4" class="node">
<title>cds_trades</title>
<g id="a_node4"><a xlink:href="../../tables/cds_trades.html" xlink:title="cds_trades" target="_top">
<polygon fill="#ffffff" stroke="transparent" points="240,-91.421 240,-482.421 412,-482.421 412,-91.421 240,-91.421"/>
<polygon fill="#f5f5f5" stroke="transparent" points="240,-458.921 240,-481.921 412,-481.921 412,-458.921 240,-458.921"/>
<polygon fill="none" stroke="#000000" points="240,-458.921 240,-481.921 412,-481.921 412,-458.921 240,-458.921"/>
<text text-anchor="start" x="245" y="-467.521" font-family="Helvetica,sans-Serif" font-weight="bold" font-size="11.00" fill="#000000">cds_trades</text>
<text text-anchor="start" x="377.0437" y="-467.021" font-family="Helvetica,sans-Serif" font-size="11.00" fill="#000000">[table]</text>
<polygon fill="none" stroke="#000000" points="240,-436.921 240,-458.921 412,-458.921 412,-436.921 240,-436.921"/>
<image xlink:href="../../images/primaryKeys.png" width="11px" height="12px" preserveAspectRatio="xMinYMin meet" x="245" y="-453.921"/>
<text text-anchor="start" x="260" y="-444.021" font-family="Helvetica,sans-Serif" font-size="11.00" fill="#000000">id</text>
<polygon fill="#ffffff" stroke="transparent" points="240,-414.921 240,-436.921 412,-436.921 412,-414.921 240,-414.921"/>
<polygon fill="none" stroke="#000000" points="240,-414.921 240,-436.921 412,-436.921 412,-414.921 240,-414.921"/>
<text text-anchor="start" x="260" y="-422.021" font-family="Helvetica,sans-Serif" font-size="11.00" fill="#000000">reference_entity</text>
<polygon fill="#ffffff" stroke="transparent" points="240,-392.921 240,-414.921 412,-414.921 412,-392.921 240,-392.921"/>
<polygon fill="none" stroke="#000000" points="240,-392.921 240,-414.921 412,-414.921 412,-392.921 240,-392.921"/>
<text text-anchor="start" x="260" y="-400.021" font-family="Helvetica,sans-Serif" font-size="11.00" fill="#000000">counterparty</text>
<polygon fill="#ffffff" stroke="transparent" points="240,-370.921 240,-392.921 412,-392.921 412,-370.921 240,-370.921"/>
<polygon fill="none" stroke="#000000" points="240,-370.921 240,-392.921 412,-392.921 412,-370.921 240,-370.921"/>
<text text-anchor="start" x="260" y="-378.021" font-family="Helvetica,sans-Serif" font-size="11.00" fill="#000000">trade_date</text>
<polygon fill="#ffffff" stroke="transparent" points="240,-348.921 240,-370.921 412,-370.921 412,-348.921 240,-348.921"/>
<polygon fill="none" stroke="#000000" points="240,-348.921 240,-370.921 412,-370.921 412,-348.921 240,-348.921"/>
<text text-anchor="start" x="260" y="-356.021" font-family="Helvetica,sans-Serif" font-size="11.00" fill="#000000">created_at</text>
<polygon fill="#ffffff" stroke="transparent" points="240,-326.921 240,-348.921 412,-348.921 412,-326.921 240,-326.921"/>
<polygon fill="none" stroke="#000000" points="240,-326.921 240,-348.921 412,-348.921 412,-326.921 240,-326.921"/>
<image xlink:href="../../images/foreignKeys.png" width="11px" height="12px" preserveAspectRatio="xMinYMin meet" x="245" y="-343.921"/>
<text text-anchor="start" x="260" y="-334.021" font-family="Helvetica,sans-Serif" font-size="11.00" fill="#000000">obligation_id</text>
<polygon fill="#ffffff" stroke="transparent" points="240,-304.921 240,-326.921 412,-326.921 412,-304.921 240,-304.921"/>
<polygon fill="none" stroke="#000000" points="240,-304.921 240,-326.921 412,-326.921 412,-304.921 240,-304.921"/>
<text text-anchor="start" x="260" y="-312.021" font-family="Helvetica,sans-Serif" font-size="11.00" fill="#000000">settlement_type</text>
<polygon fill="#ffffff" stroke="transparent" points="240,-282.921 240,-304.921 412,-304.921 412,-282.921 240,-282.921"/>
<polygon fill="none" stroke="#000000" points="240,-282.921 240,-304.921 412,-304.921 412,-282.921 240,-282.921"/>
<text text-anchor="start" x="260" y="-290.021" font-family="Helvetica,sans-Serif" font-size="11.00" fill="#000000">ccp_name</text>
<polygon fill="#ffffff" stroke="transparent" points="240,-260.921 240,-282.921 412,-282.921 412,-260.921 240,-260.921"/>
<polygon fill="none" stroke="#000000" points="240,-260.921 240,-282.921 412,-282.921 412,-260.921 240,-260.921"/>
<image xlink:href="../../images/foreignKeys.png" width="11px" height="12px" preserveAspectRatio="xMinYMin meet" x="245" y="-277.921"/>
<text text-anchor="start" x="260" y="-268.021" font-family="Helvetica,sans-Serif" font-size="11.00" fill="#000000">original_trade_id</text>
<polygon fill="#ffffff" stroke="transparent" points="240,-238.921 240,-260.921 412,-260.921 412,-238.921 240,-238.921"/>
<polygon fill="none" stroke="#000000" points="240,-238.921 240,-260.921 412,-260.921 412,-238.921 240,-238.921"/>
<text text-anchor="start" x="260" y="-246.021" font-family="Helvetica,sans-Serif" font-size="11.00" fill="#000000">novation_timestamp</text>
<polygon fill="#ffffff" stroke="transparent" points="240,-216.921 240,-238.921 412,-238.921 412,-216.921 240,-216.921"/>
<polygon fill="none" stroke="#000000" points="240,-216.921 240,-238.921 412,-238.921 412,-216.921 240,-216.921"/>
<text text-anchor="start" x="260" y="-224.021" font-family="Helvetica,sans-Serif" font-size="11.00" fill="#000000">novation_reference</text>
<polygon fill="#ffffff" stroke="transparent" points="240,-194.921 240,-216.921 412,-216.921 412,-194.921 240,-194.921"/>
<polygon fill="none" stroke="#000000" points="240,-194.921 240,-216.921 412,-216.921 412,-194.921 240,-194.921"/>
<text text-anchor="start" x="260" y="-202.021" font-family="Helvetica,sans-Serif" font-size="11.00" fill="#000000">uti</text>
<polygon fill="#ffffff" stroke="transparent" points="240,-172.921 240,-194.921 412,-194.921 412,-172.921 240,-172.921"/>
<polygon fill="none" stroke="#000000" points="240,-172.921 240,-194.921 412,-194.921 412,-172.921 240,-172.921"/>
<text text-anchor="start" x="260" y="-180.021" font-family="Helvetica,sans-Serif" font-size="11.00" fill="#000000">usi</text>
<polygon fill="#ffffff" stroke="transparent" points="240,-150.921 240,-172.921 412,-172.921 412,-150.921 240,-150.921"/>
<polygon fill="none" stroke="#000000" points="240,-150.921 240,-172.921 412,-172.921 412,-150.921 240,-150.921"/>
<text text-anchor="start" x="260" y="-158.021" font-family="Helvetica,sans-Serif" font-size="11.00" fill="#000000">is_cleared</text>
<polygon fill="#ffffff" stroke="transparent" points="240,-128.921 240,-150.921 412,-150.921 412,-128.921 240,-128.921"/>
<polygon fill="none" stroke="#000000" points="240,-128.921 240,-150.921 412,-150.921 412,-128.921 240,-128.921"/>
<text text-anchor="start" x="260" y="-136.021" font-family="Helvetica,sans-Serif" font-size="11.00" fill="#000000">mark_to_market_value</text>
<polygon fill="none" stroke="#000000" points="240,-109.921 240,-128.921 412,-128.921 412,-109.921 240,-109.921"/>
<text text-anchor="start" x="243" y="-116.021" font-family="Helvetica,sans-Serif" font-size="11.00" fill="#000000">...</text>
<polygon fill="#ffffff" stroke="transparent" points="240,-90.921 240,-109.921 317,-109.921 317,-90.921 240,-90.921"/>
<polygon fill="none" stroke="#000000" points="240,-90.921 240,-109.921 317,-109.921 317,-90.921 240,-90.921"/>
<text text-anchor="start" x="243" y="-97.021" font-family="Helvetica,sans-Serif" font-size="11.00" fill="#000000">&lt; 2</text>
<polygon fill="#ffffff" stroke="transparent" points="317,-90.921 317,-109.921 357,-109.921 357,-90.921 317,-90.921"/>
<polygon fill="none" stroke="#000000" points="317,-90.921 317,-109.921 357,-109.921 357,-90.921 317,-90.921"/>
<text text-anchor="start" x="347.8862" y="-97.021" font-family="Helvetica,sans-Serif" font-size="11.00" fill="#000000"> &#160;</text>
<polygon fill="#ffffff" stroke="transparent" points="357,-90.921 357,-109.921 412,-109.921 412,-90.921 357,-90.921"/>
<polygon fill="none" stroke="#000000" points="357,-90.921 357,-109.921 412,-109.921 412,-90.921 357,-90.921"/>
<text text-anchor="start" x="387.2904" y="-97.021" font-family="Helvetica,sans-Serif" font-size="11.00" fill="#000000">13 &gt;</text>
</a>
</g>
</g>
<!-- sa_ccr_trade_mappings&#45;&gt;cds_trades -->
<g id="edge4" class="edge">
<title>sa_ccr_trade_mappings:w&#45;&gt;cds_trades:e</title>
<path fill="none" stroke="#000000" d="M461.8432,-447.921C444.2137,-447.921 435.0677,-447.921 412,-447.921"/>
<polygon fill="#000000" stroke="#000000" points="468.5,-447.9211 476.5,-451.521 472.5,-447.9211 476.5,-447.921 476.5,-447.921 476.5,-447.921 472.5,-447.9211 476.5,-444.321 468.5,-447.9211 468.5,-447.9211"/>
<ellipse fill="none" stroke="#000000" cx="465.3" cy="-447.9211" rx="3.2" ry="3.2"/>
</g>
</g>
</svg>
