<?xml version="1.0" encoding="UTF-8" standalone="no"?>
<!DOCTYPE svg PUBLIC "-//W3C//DTD SVG 1.1//EN"
 "http://www.w3.org/Graphics/SVG/1.1/DTD/svg11.dtd">
<!-- Generated by graphviz version 2.40.1 (20161225.0304)
 -->
<!-- Title: twoDegreesRelationshipsDiagram Pages: 1 -->
<svg width="724pt" height="437pt"
 viewBox="0.00 0.00 724.00 437.20" xmlns="http://www.w3.org/2000/svg" xmlns:xlink="http://www.w3.org/1999/xlink">
<g id="graph0" class="graph" transform="scale(1 1) rotate(0) translate(4 433.2)">
<title>twoDegreesRelationshipsDiagram</title>
<polygon fill="#ffffff" stroke="transparent" points="-4,4 -4,-433.2 720,-433.2 720,4 -4,4"/>
<text text-anchor="middle" x="72.4936" y="-7.3" font-family="Helvetica,sans-Serif" font-size="11.00" fill="#000000">Generated by SchemaSpy</text>
<!-- sa_ccr_audit_trail -->
<g id="node1" class="node">
<title>sa_ccr_audit_trail</title>
<g id="a_node1"><a xlink:href="../../tables/sa_ccr_audit_trail.html" xlink:title="sa_ccr_audit_trail" target="_top">
<polygon fill="#ffffff" stroke="transparent" points="489.5,-364.2 489.5,-425.2 644.5,-425.2 644.5,-364.2 489.5,-364.2"/>
<polygon fill="#f5f5f5" stroke="transparent" points="490,-401.7 490,-424.7 645,-424.7 645,-401.7 490,-401.7"/>
<polygon fill="none" stroke="#000000" points="490,-401.7 490,-424.7 645,-424.7 645,-401.7 490,-401.7"/>
<text text-anchor="start" x="495" y="-410.3" font-family="Helvetica,sans-Serif" font-weight="bold" font-size="11.00" fill="#000000">sa_ccr_audit_trail</text>
<text text-anchor="start" x="610.5219" y="-409.8" font-family="Helvetica,sans-Serif" font-size="11.00" fill="#000000">[table]</text>
<polygon fill="none" stroke="#000000" points="490,-382.7 490,-401.7 645,-401.7 645,-382.7 490,-382.7"/>
<text text-anchor="start" x="493" y="-388.8" font-family="Helvetica,sans-Serif" font-size="11.00" fill="#000000">...</text>
<polygon fill="#ffffff" stroke="transparent" points="490,-363.7 490,-382.7 566,-382.7 566,-363.7 490,-363.7"/>
<polygon fill="none" stroke="#000000" points="490,-363.7 490,-382.7 566,-382.7 566,-363.7 490,-363.7"/>
<text text-anchor="start" x="493" y="-369.8" font-family="Helvetica,sans-Serif" font-size="11.00" fill="#000000">&lt; 1</text>
<polygon fill="#ffffff" stroke="transparent" points="566,-363.7 566,-382.7 605,-382.7 605,-363.7 566,-363.7"/>
<polygon fill="none" stroke="#000000" points="566,-363.7 566,-382.7 605,-382.7 605,-363.7 566,-363.7"/>
<text text-anchor="start" x="595.8862" y="-369.8" font-family="Helvetica,sans-Serif" font-size="11.00" fill="#000000"> &#160;</text>
<polygon fill="#ffffff" stroke="transparent" points="605,-363.7 605,-382.7 645,-382.7 645,-363.7 605,-363.7"/>
<polygon fill="none" stroke="#000000" points="605,-363.7 605,-382.7 645,-382.7 645,-363.7 605,-363.7"/>
<text text-anchor="start" x="635.8862" y="-369.8" font-family="Helvetica,sans-Serif" font-size="11.00" fill="#000000"> &#160;</text>
</a>
</g>
</g>
<!-- sa_ccr_calculations -->
<g id="node2" class="node">
<title>sa_ccr_calculations</title>
<g id="a_node2"><a xlink:href="../../tables/sa_ccr_calculations.html" xlink:title="sa_ccr_calculations" target="_top">
<polygon fill="#ffffff" stroke="transparent" points="179,-150.2 179,-321.2 377,-321.2 377,-150.2 179,-150.2"/>
<polygon fill="#f5f5f5" stroke="transparent" points="179,-297.7 179,-320.7 377,-320.7 377,-297.7 179,-297.7"/>
<polygon fill="none" stroke="#000000" points="179,-297.7 179,-320.7 377,-320.7 377,-297.7 179,-297.7"/>
<text text-anchor="start" x="184" y="-306.3" font-family="Helvetica,sans-Serif" font-weight="bold" font-size="11.00" fill="#000000">sa_ccr_calculations</text>
<text text-anchor="start" x="342.0437" y="-305.8" font-family="Helvetica,sans-Serif" font-size="11.00" fill="#000000">[table]</text>
<polygon fill="none" stroke="#000000" points="179,-275.7 179,-297.7 377,-297.7 377,-275.7 179,-275.7"/>
<image xlink:href="../../images/primaryKeys.png" width="11px" height="12px" preserveAspectRatio="xMinYMin meet" x="184" y="-292.7"/>
<text text-anchor="start" x="199" y="-282.8" font-family="Helvetica,sans-Serif" font-size="11.00" fill="#000000">id</text>
<polygon fill="#ffffff" stroke="transparent" points="179,-253.7 179,-275.7 377,-275.7 377,-253.7 179,-253.7"/>
<polygon fill="none" stroke="#000000" points="179,-253.7 179,-275.7 377,-275.7 377,-253.7 179,-253.7"/>
<text text-anchor="start" x="199" y="-260.8" font-family="Helvetica,sans-Serif" font-size="11.00" fill="#000000">calculation_id</text>
<polygon fill="#ffffff" stroke="transparent" points="179,-231.7 179,-253.7 377,-253.7 377,-231.7 179,-231.7"/>
<polygon fill="none" stroke="#000000" points="179,-231.7 179,-253.7 377,-253.7 377,-231.7 179,-231.7"/>
<image xlink:href="../../images/foreignKeys.png" width="11px" height="12px" preserveAspectRatio="xMinYMin meet" x="184" y="-248.7"/>
<text text-anchor="start" x="199" y="-238.8" font-family="Helvetica,sans-Serif" font-size="11.00" fill="#000000">netting_set_id</text>
<polygon fill="#ffffff" stroke="transparent" points="179,-209.7 179,-231.7 377,-231.7 377,-209.7 179,-209.7"/>
<polygon fill="none" stroke="#000000" points="179,-209.7 179,-231.7 377,-231.7 377,-209.7 179,-209.7"/>
<text text-anchor="start" x="199" y="-216.8" font-family="Helvetica,sans-Serif" font-size="11.00" fill="#000000">calculation_date</text>
<polygon fill="#ffffff" stroke="transparent" points="179,-187.7 179,-209.7 377,-209.7 377,-187.7 179,-187.7"/>
<polygon fill="none" stroke="#000000" points="179,-187.7 179,-209.7 377,-209.7 377,-187.7 179,-187.7"/>
<text text-anchor="start" x="199" y="-194.8" font-family="Helvetica,sans-Serif" font-size="11.00" fill="#000000">jurisdiction</text>
<polygon fill="none" stroke="#000000" points="179,-168.7 179,-187.7 377,-187.7 377,-168.7 179,-168.7"/>
<text text-anchor="start" x="182" y="-174.8" font-family="Helvetica,sans-Serif" font-size="11.00" fill="#000000">...</text>
<polygon fill="#ffffff" stroke="transparent" points="179,-149.7 179,-168.7 272,-168.7 272,-149.7 179,-149.7"/>
<polygon fill="none" stroke="#000000" points="179,-149.7 179,-168.7 272,-168.7 272,-149.7 179,-149.7"/>
<text text-anchor="start" x="182" y="-155.8" font-family="Helvetica,sans-Serif" font-size="11.00" fill="#000000">&lt; 1</text>
<polygon fill="#ffffff" stroke="transparent" points="272,-149.7 272,-168.7 320,-168.7 320,-149.7 272,-149.7"/>
<polygon fill="none" stroke="#000000" points="272,-149.7 272,-168.7 320,-168.7 320,-149.7 272,-149.7"/>
<text text-anchor="start" x="310.8862" y="-155.8" font-family="Helvetica,sans-Serif" font-size="11.00" fill="#000000"> &#160;</text>
<polygon fill="#ffffff" stroke="transparent" points="320,-149.7 320,-168.7 377,-168.7 377,-149.7 320,-149.7"/>
<polygon fill="none" stroke="#000000" points="320,-149.7 320,-168.7 377,-168.7 377,-149.7 320,-149.7"/>
<text text-anchor="start" x="358.4053" y="-155.8" font-family="Helvetica,sans-Serif" font-size="11.00" fill="#000000">3 &gt;</text>
</a>
</g>
</g>
<!-- sa_ccr_audit_trail&#45;&gt;sa_ccr_calculations -->
<g id="edge1" class="edge">
<title>sa_ccr_audit_trail:w&#45;&gt;sa_ccr_calculations:e</title>
<path fill="none" stroke="#000000" d="M475.4281,-390.9152C450.2642,-387.8963 439.1923,-376.0671 418,-353.7 388.0462,-322.0857 420.551,-264.7 377,-264.7"/>
<polygon fill="#000000" stroke="#000000" points="482.0116,-391.2697 489.8064,-395.2948 486.0058,-391.4849 490,-391.7 490,-391.7 490,-391.7 486.0058,-391.4849 490.1936,-388.1052 482.0116,-391.2697 482.0116,-391.2697"/>
<ellipse fill="none" stroke="#000000" cx="478.8162" cy="-391.0976" rx="3.2" ry="3.2"/>
</g>
<!-- netting_sets -->
<g id="node4" class="node">
<title>netting_sets</title>
<g id="a_node4"><a xlink:href="../../tables/netting_sets.html" xlink:title="netting_sets" target="_top">
<polygon fill="#ffffff" stroke="transparent" points="8,-146.2 8,-207.2 130,-207.2 130,-146.2 8,-146.2"/>
<polygon fill="#f5f5f5" stroke="transparent" points="8,-183.7 8,-206.7 130,-206.7 130,-183.7 8,-183.7"/>
<polygon fill="none" stroke="#000000" points="8,-183.7 8,-206.7 130,-206.7 130,-183.7 8,-183.7"/>
<text text-anchor="start" x="13" y="-192.3" font-family="Helvetica,sans-Serif" font-weight="bold" font-size="11.00" fill="#000000">netting_sets</text>
<text text-anchor="start" x="95.5219" y="-191.8" font-family="Helvetica,sans-Serif" font-size="11.00" fill="#000000">[table]</text>
<polygon fill="none" stroke="#000000" points="8,-164.7 8,-183.7 130,-183.7 130,-164.7 8,-164.7"/>
<text text-anchor="start" x="11" y="-170.8" font-family="Helvetica,sans-Serif" font-size="11.00" fill="#000000">...</text>
<polygon fill="#ffffff" stroke="transparent" points="8,-145.7 8,-164.7 58,-164.7 58,-145.7 8,-145.7"/>
<polygon fill="none" stroke="#000000" points="8,-145.7 8,-164.7 58,-164.7 58,-145.7 8,-145.7"/>
<text text-anchor="start" x="11" y="-151.8" font-family="Helvetica,sans-Serif" font-size="11.00" fill="#000000"> &#160;</text>
<polygon fill="#ffffff" stroke="transparent" points="58,-145.7 58,-164.7 89,-164.7 89,-145.7 58,-145.7"/>
<polygon fill="none" stroke="#000000" points="58,-145.7 58,-164.7 89,-164.7 89,-145.7 58,-145.7"/>
<text text-anchor="start" x="79.8862" y="-151.8" font-family="Helvetica,sans-Serif" font-size="11.00" fill="#000000"> &#160;</text>
<polygon fill="#ffffff" stroke="transparent" points="89,-145.7 89,-164.7 130,-164.7 130,-145.7 89,-145.7"/>
<polygon fill="none" stroke="#000000" points="89,-145.7 89,-164.7 130,-164.7 130,-145.7 89,-145.7"/>
<text text-anchor="start" x="111.4053" y="-151.8" font-family="Helvetica,sans-Serif" font-size="11.00" fill="#000000">2 &gt;</text>
</a>
</g>
</g>
<!-- sa_ccr_calculations&#45;&gt;netting_sets -->
<g id="edge3" class="edge">
<title>sa_ccr_calculations:w&#45;&gt;netting_sets:e</title>
<path fill="none" stroke="#000000" d="M165.0786,-237.7377C148.2742,-221.9166 161.4419,-173.7 130,-173.7"/>
<polygon fill="#000000" stroke="#000000" points="171.4644,-240.0139 177.7913,-246.091 175.2322,-241.3569 179,-242.7 179,-242.7 179,-242.7 175.2322,-241.3569 180.2087,-239.309 171.4644,-240.0139 171.4644,-240.0139"/>
<ellipse fill="none" stroke="#000000" cx="168.4502" cy="-238.9395" rx="3.2" ry="3.2"/>
</g>
<!-- sa_ccr_calculation_details -->
<g id="node3" class="node">
<title>sa_ccr_calculation_details</title>
<g id="a_node3"><a xlink:href="../../tables/sa_ccr_calculation_details.html" xlink:title="sa_ccr_calculation_details" target="_top">
<polygon fill="#ffffff" stroke="transparent" points="426,-120.7 426,-342.7 708,-342.7 708,-120.7 426,-120.7"/>
<polygon fill="#f5f5f5" stroke="transparent" points="428,-317.7 428,-340.7 706,-340.7 706,-317.7 428,-317.7"/>
<polygon fill="none" stroke="#000000" points="428,-317.7 428,-340.7 706,-340.7 706,-317.7 428,-317.7"/>
<text text-anchor="start" x="433" y="-326.3" font-family="Helvetica,sans-Serif" font-weight="bold" font-size="11.00" fill="#000000">sa_ccr_calculation_details</text>
<text text-anchor="start" x="671.0437" y="-325.8" font-family="Helvetica,sans-Serif" font-size="11.00" fill="#000000">[table]</text>
<polygon fill="none" stroke="#000000" points="428,-295.7 428,-317.7 622,-317.7 622,-295.7 428,-295.7"/>
<image xlink:href="../../images/primaryKeys.png" width="11px" height="12px" preserveAspectRatio="xMinYMin meet" x="433" y="-312.7"/>
<text text-anchor="start" x="448" y="-302.8" font-family="Helvetica,sans-Serif" font-size="11.00" fill="#000000">id</text>
<polygon fill="none" stroke="#000000" points="622,-295.7 622,-317.7 706,-317.7 706,-295.7 622,-295.7"/>
<text text-anchor="start" x="625" y="-303.4" font-family="Helvetica,sans-Serif" font-size="11.00" fill="#000000">bigserial[19]</text>
<polygon fill="none" stroke="#000000" points="428,-273.7 428,-295.7 622,-295.7 622,-273.7 428,-273.7"/>
<image xlink:href="../../images/foreignKeys.png" width="11px" height="12px" preserveAspectRatio="xMinYMin meet" x="433" y="-290.7"/>
<text text-anchor="start" x="448" y="-280.8" font-family="Helvetica,sans-Serif" font-size="11.00" fill="#000000">calculation_id</text>
<polygon fill="none" stroke="#000000" points="622,-273.7 622,-295.7 706,-295.7 706,-273.7 622,-273.7"/>
<text text-anchor="start" x="625" y="-281.4" font-family="Helvetica,sans-Serif" font-size="11.00" fill="#000000">varchar[100]</text>
<polygon fill="none" stroke="#000000" points="428,-251.7 428,-273.7 622,-273.7 622,-251.7 428,-251.7"/>
<text text-anchor="start" x="448" y="-258.8" font-family="Helvetica,sans-Serif" font-size="11.00" fill="#000000">asset_class</text>
<polygon fill="none" stroke="#000000" points="622,-251.7 622,-273.7 706,-273.7 706,-251.7 622,-251.7"/>
<text text-anchor="start" x="625" y="-259.4" font-family="Helvetica,sans-Serif" font-size="11.00" fill="#000000">varchar[50]</text>
<polygon fill="none" stroke="#000000" points="428,-229.7 428,-251.7 622,-251.7 622,-229.7 428,-229.7"/>
<text text-anchor="start" x="448" y="-236.8" font-family="Helvetica,sans-Serif" font-size="11.00" fill="#000000">effective_notional</text>
<polygon fill="none" stroke="#000000" points="622,-229.7 622,-251.7 706,-251.7 706,-229.7 622,-229.7"/>
<text text-anchor="start" x="625" y="-237.4" font-family="Helvetica,sans-Serif" font-size="11.00" fill="#000000">numeric[20,8]</text>
<polygon fill="none" stroke="#000000" points="428,-207.7 428,-229.7 622,-229.7 622,-207.7 428,-207.7"/>
<text text-anchor="start" x="448" y="-214.8" font-family="Helvetica,sans-Serif" font-size="11.00" fill="#000000">supervisory_factor</text>
<polygon fill="none" stroke="#000000" points="622,-207.7 622,-229.7 706,-229.7 706,-207.7 622,-207.7"/>
<text text-anchor="start" x="625" y="-215.4" font-family="Helvetica,sans-Serif" font-size="11.00" fill="#000000">numeric[10,6]</text>
<polygon fill="none" stroke="#000000" points="428,-185.7 428,-207.7 622,-207.7 622,-185.7 428,-185.7"/>
<text text-anchor="start" x="448" y="-192.8" font-family="Helvetica,sans-Serif" font-size="11.00" fill="#000000">supervisory_addon</text>
<polygon fill="none" stroke="#000000" points="622,-185.7 622,-207.7 706,-207.7 706,-185.7 622,-185.7"/>
<text text-anchor="start" x="625" y="-193.4" font-family="Helvetica,sans-Serif" font-size="11.00" fill="#000000">numeric[20,8]</text>
<polygon fill="none" stroke="#000000" points="428,-163.7 428,-185.7 622,-185.7 622,-163.7 428,-163.7"/>
<text text-anchor="start" x="448" y="-170.8" font-family="Helvetica,sans-Serif" font-size="11.00" fill="#000000">hedge_ratio</text>
<polygon fill="none" stroke="#000000" points="622,-163.7 622,-185.7 706,-185.7 706,-163.7 622,-163.7"/>
<text text-anchor="start" x="625" y="-171.4" font-family="Helvetica,sans-Serif" font-size="11.00" fill="#000000">numeric[10,6]</text>
<polygon fill="none" stroke="#000000" points="428,-141.7 428,-163.7 622,-163.7 622,-141.7 428,-141.7"/>
<text text-anchor="start" x="448" y="-148.8" font-family="Helvetica,sans-Serif" font-size="11.00" fill="#000000">created_at</text>
<polygon fill="none" stroke="#000000" points="622,-141.7 622,-163.7 706,-163.7 706,-141.7 622,-141.7"/>
<text text-anchor="start" x="624.8807" y="-149.4" font-family="Helvetica,sans-Serif" font-size="11.00" fill="#000000">timestamp[29,6]</text>
<polygon fill="#ffffff" stroke="transparent" points="428,-122.7 428,-141.7 529,-141.7 529,-122.7 428,-122.7"/>
<polygon fill="none" stroke="#000000" points="428,-122.7 428,-141.7 529,-141.7 529,-122.7 428,-122.7"/>
<text text-anchor="start" x="431" y="-128.8" font-family="Helvetica,sans-Serif" font-size="11.00" fill="#000000">&lt; 1</text>
<polygon fill="#ffffff" stroke="transparent" points="529,-122.7 529,-141.7 622,-141.7 622,-122.7 529,-122.7"/>
<polygon fill="none" stroke="#000000" points="529,-122.7 529,-141.7 622,-141.7 622,-122.7 529,-122.7"/>
<text text-anchor="start" x="612.8862" y="-128.8" font-family="Helvetica,sans-Serif" font-size="11.00" fill="#000000"> &#160;</text>
<polygon fill="#ffffff" stroke="transparent" points="622,-122.7 622,-141.7 706,-141.7 706,-122.7 622,-122.7"/>
<polygon fill="none" stroke="#000000" points="622,-122.7 622,-141.7 706,-141.7 706,-122.7 622,-122.7"/>
<text text-anchor="start" x="687.4053" y="-128.8" font-family="Helvetica,sans-Serif" font-size="11.00" fill="#000000">0 &gt;</text>
<polygon fill="none" stroke="#000000" stroke-width="2" points="427,-121.7 427,-341.7 707,-341.7 707,-121.7 427,-121.7"/>
</a>
</g>
</g>
<!-- sa_ccr_calculation_details&#45;&gt;sa_ccr_calculations -->
<g id="edge2" class="edge">
<title>sa_ccr_calculation_details:w&#45;&gt;sa_ccr_calculations:e</title>
<path fill="none" stroke="#000000" d="M413.5625,-281.7489C401.2432,-276.1856 395.4507,-264.7 377,-264.7"/>
<polygon fill="#000000" stroke="#000000" points="420.1621,-283.0979 427.279,-288.2271 424.081,-283.8989 428,-284.7 428,-284.7 428,-284.7 424.081,-283.8989 428.721,-281.1729 420.1621,-283.0979 420.1621,-283.0979"/>
<ellipse fill="none" stroke="#000000" cx="417.0269" cy="-282.457" rx="3.2" ry="3.2"/>
</g>
<!-- sa_ccr_trade_mappings -->
<g id="node5" class="node">
<title>sa_ccr_trade_mappings</title>
<g id="a_node5"><a xlink:href="../../tables/sa_ccr_trade_mappings.html" xlink:title="sa_ccr_trade_mappings" target="_top">
<polygon fill="#ffffff" stroke="transparent" points="469.5,-38.2 469.5,-99.2 664.5,-99.2 664.5,-38.2 469.5,-38.2"/>
<polygon fill="#f5f5f5" stroke="transparent" points="470,-75.7 470,-98.7 665,-98.7 665,-75.7 470,-75.7"/>
<polygon fill="none" stroke="#000000" points="470,-75.7 470,-98.7 665,-98.7 665,-75.7 470,-75.7"/>
<text text-anchor="start" x="475" y="-84.3" font-family="Helvetica,sans-Serif" font-weight="bold" font-size="11.00" fill="#000000">sa_ccr_trade_mappings</text>
<text text-anchor="start" x="630.5219" y="-83.8" font-family="Helvetica,sans-Serif" font-size="11.00" fill="#000000">[table]</text>
<polygon fill="none" stroke="#000000" points="470,-56.7 470,-75.7 665,-75.7 665,-56.7 470,-56.7"/>
<text text-anchor="start" x="473" y="-62.8" font-family="Helvetica,sans-Serif" font-size="11.00" fill="#000000">...</text>
<polygon fill="#ffffff" stroke="transparent" points="470,-37.7 470,-56.7 566,-56.7 566,-37.7 470,-37.7"/>
<polygon fill="none" stroke="#000000" points="470,-37.7 470,-56.7 566,-56.7 566,-37.7 470,-37.7"/>
<text text-anchor="start" x="473" y="-43.8" font-family="Helvetica,sans-Serif" font-size="11.00" fill="#000000">&lt; 3</text>
<polygon fill="#ffffff" stroke="transparent" points="566,-37.7 566,-56.7 615,-56.7 615,-37.7 566,-37.7"/>
<polygon fill="none" stroke="#000000" points="566,-37.7 566,-56.7 615,-56.7 615,-37.7 566,-37.7"/>
<text text-anchor="start" x="605.8862" y="-43.8" font-family="Helvetica,sans-Serif" font-size="11.00" fill="#000000"> &#160;</text>
<polygon fill="#ffffff" stroke="transparent" points="615,-37.7 615,-56.7 665,-56.7 665,-37.7 615,-37.7"/>
<polygon fill="none" stroke="#000000" points="615,-37.7 615,-56.7 665,-56.7 665,-37.7 615,-37.7"/>
<text text-anchor="start" x="655.8862" y="-43.8" font-family="Helvetica,sans-Serif" font-size="11.00" fill="#000000"> &#160;</text>
</a>
</g>
</g>
<!-- sa_ccr_trade_mappings&#45;&gt;sa_ccr_calculations -->
<g id="edge4" class="edge">
<title>sa_ccr_trade_mappings:w&#45;&gt;sa_ccr_calculations:e</title>
<path fill="none" stroke="#000000" d="M455.6065,-67.4919C437.3287,-72.7011 431.2035,-88.806 418,-109.7 379.9336,-169.9385 448.2582,-264.7 377,-264.7"/>
<polygon fill="#000000" stroke="#000000" points="462.0613,-66.6884 470.4448,-69.2724 466.0306,-66.1942 470,-65.7 470,-65.7 470,-65.7 466.0306,-66.1942 469.5552,-62.1276 462.0613,-66.6884 462.0613,-66.6884"/>
<ellipse fill="none" stroke="#000000" cx="458.8858" cy="-67.0837" rx="3.2" ry="3.2"/>
</g>
<!-- sa_ccr_trade_mappings&#45;&gt;netting_sets -->
<g id="edge5" class="edge">
<title>sa_ccr_trade_mappings:w&#45;&gt;netting_sets:e</title>
<path fill="none" stroke="#000000" d="M455.5319,-65.75C330.1115,-66.654 288.7945,-80.2381 171,-139.7 149.8672,-150.3677 153.6727,-173.7 130,-173.7"/>
<polygon fill="#000000" stroke="#000000" points="462,-65.7277 470.0125,-69.3 466,-65.7138 470,-65.7 470,-65.7 470,-65.7 466,-65.7138 469.9875,-62.1 462,-65.7277 462,-65.7277"/>
<ellipse fill="none" stroke="#000000" cx="458.8001" cy="-65.7388" rx="3.2" ry="3.2"/>
</g>
</g>
</svg>
