<?xml version="1.0" encoding="UTF-8" standalone="no"?>
<!DOCTYPE svg PUBLIC "-//W3C//DTD SVG 1.1//EN"
 "http://www.w3.org/Graphics/SVG/1.1/DTD/svg11.dtd">
<!-- Generated by graphviz version 2.40.1 (20161225.0304)
 -->
<!-- Title: oneDegreeRelationshipsDiagram Pages: 1 -->
<svg width="547pt" height="294pt"
 viewBox="0.00 0.00 547.00 294.20" xmlns="http://www.w3.org/2000/svg" xmlns:xlink="http://www.w3.org/1999/xlink">
<g id="graph0" class="graph" transform="scale(1 1) rotate(0) translate(4 290.2)">
<title>oneDegreeRelationshipsDiagram</title>
<polygon fill="#ffffff" stroke="transparent" points="-4,4 -4,-290.2 543,-290.2 543,4 -4,4"/>
<text text-anchor="middle" x="72.4936" y="-7.3" font-family="Helvetica,sans-Serif" font-size="11.00" fill="#000000">Generated by SchemaSpy</text>
<!-- sa_ccr_audit_trail -->
<g id="node1" class="node">
<title>sa_ccr_audit_trail</title>
<g id="a_node1"><a xlink:href="../../tables/sa_ccr_audit_trail.html" xlink:title="sa_ccr_audit_trail" target="_top">
<polygon fill="#ffffff" stroke="transparent" points="255,-38.2 255,-282.2 531,-282.2 531,-38.2 255,-38.2"/>
<polygon fill="#f5f5f5" stroke="transparent" points="257,-257.2 257,-280.2 529,-280.2 529,-257.2 257,-257.2"/>
<polygon fill="none" stroke="#000000" points="257,-257.2 257,-280.2 529,-280.2 529,-257.2 257,-257.2"/>
<text text-anchor="start" x="262" y="-265.8" font-family="Helvetica,sans-Serif" font-weight="bold" font-size="11.00" fill="#000000">sa_ccr_audit_trail</text>
<text text-anchor="start" x="494.0437" y="-265.3" font-family="Helvetica,sans-Serif" font-size="11.00" fill="#000000">[table]</text>
<polygon fill="none" stroke="#000000" points="257,-235.2 257,-257.2 430,-257.2 430,-235.2 257,-235.2"/>
<image xlink:href="../../images/primaryKeys.png" width="11px" height="12px" preserveAspectRatio="xMinYMin meet" x="262" y="-252.2"/>
<text text-anchor="start" x="277" y="-242.3" font-family="Helvetica,sans-Serif" font-size="11.00" fill="#000000">id</text>
<polygon fill="none" stroke="#000000" points="430,-235.2 430,-257.2 529,-257.2 529,-235.2 430,-235.2"/>
<text text-anchor="start" x="433" y="-242.9" font-family="Helvetica,sans-Serif" font-size="11.00" fill="#000000">bigserial[19]</text>
<polygon fill="#ffffff" stroke="transparent" points="257,-213.2 257,-235.2 430,-235.2 430,-213.2 257,-213.2"/>
<polygon fill="none" stroke="#000000" points="257,-213.2 257,-235.2 430,-235.2 430,-213.2 257,-213.2"/>
<image xlink:href="../../images/foreignKeys.png" width="11px" height="12px" preserveAspectRatio="xMinYMin meet" x="262" y="-230.2"/>
<text text-anchor="start" x="277" y="-220.3" font-family="Helvetica,sans-Serif" font-size="11.00" fill="#000000">calculation_id</text>
<polygon fill="none" stroke="#000000" points="430,-213.2 430,-235.2 529,-235.2 529,-213.2 430,-213.2"/>
<text text-anchor="start" x="433" y="-220.9" font-family="Helvetica,sans-Serif" font-size="11.00" fill="#000000">varchar[100]</text>
<polygon fill="none" stroke="#000000" points="257,-191.2 257,-213.2 430,-213.2 430,-191.2 257,-191.2"/>
<text text-anchor="start" x="277" y="-198.3" font-family="Helvetica,sans-Serif" font-size="11.00" fill="#000000">step_number</text>
<polygon fill="none" stroke="#000000" points="430,-191.2 430,-213.2 529,-213.2 529,-191.2 430,-191.2"/>
<text text-anchor="start" x="433" y="-198.9" font-family="Helvetica,sans-Serif" font-size="11.00" fill="#000000">int4[10]</text>
<polygon fill="none" stroke="#000000" points="257,-169.2 257,-191.2 430,-191.2 430,-169.2 257,-169.2"/>
<text text-anchor="start" x="277" y="-176.3" font-family="Helvetica,sans-Serif" font-size="11.00" fill="#000000">step_name</text>
<polygon fill="none" stroke="#000000" points="430,-169.2 430,-191.2 529,-191.2 529,-169.2 430,-169.2"/>
<text text-anchor="start" x="433" y="-176.9" font-family="Helvetica,sans-Serif" font-size="11.00" fill="#000000">varchar[100]</text>
<polygon fill="none" stroke="#000000" points="257,-147.2 257,-169.2 430,-169.2 430,-147.2 257,-147.2"/>
<text text-anchor="start" x="277" y="-154.3" font-family="Helvetica,sans-Serif" font-size="11.00" fill="#000000">description</text>
<polygon fill="none" stroke="#000000" points="430,-147.2 430,-169.2 529,-169.2 529,-147.2 430,-147.2"/>
<text text-anchor="start" x="433" y="-154.9" font-family="Helvetica,sans-Serif" font-size="11.00" fill="#000000">text[2147483647]</text>
<polygon fill="none" stroke="#000000" points="257,-125.2 257,-147.2 430,-147.2 430,-125.2 257,-125.2"/>
<text text-anchor="start" x="277" y="-132.3" font-family="Helvetica,sans-Serif" font-size="11.00" fill="#000000">input_values</text>
<polygon fill="none" stroke="#000000" points="430,-125.2 430,-147.2 529,-147.2 529,-125.2 430,-125.2"/>
<text text-anchor="start" x="432.7258" y="-132.9" font-family="Helvetica,sans-Serif" font-size="11.00" fill="#000000">jsonb[2147483647]</text>
<polygon fill="none" stroke="#000000" points="257,-103.2 257,-125.2 430,-125.2 430,-103.2 257,-103.2"/>
<text text-anchor="start" x="277" y="-110.3" font-family="Helvetica,sans-Serif" font-size="11.00" fill="#000000">output_values</text>
<polygon fill="none" stroke="#000000" points="430,-103.2 430,-125.2 529,-125.2 529,-103.2 430,-103.2"/>
<text text-anchor="start" x="432.7258" y="-110.9" font-family="Helvetica,sans-Serif" font-size="11.00" fill="#000000">jsonb[2147483647]</text>
<polygon fill="none" stroke="#000000" points="257,-81.2 257,-103.2 430,-103.2 430,-81.2 257,-81.2"/>
<text text-anchor="start" x="277" y="-88.3" font-family="Helvetica,sans-Serif" font-size="11.00" fill="#000000">parameters_used</text>
<polygon fill="none" stroke="#000000" points="430,-81.2 430,-103.2 529,-103.2 529,-81.2 430,-81.2"/>
<text text-anchor="start" x="432.7258" y="-88.9" font-family="Helvetica,sans-Serif" font-size="11.00" fill="#000000">jsonb[2147483647]</text>
<polygon fill="none" stroke="#000000" points="257,-59.2 257,-81.2 430,-81.2 430,-59.2 257,-59.2"/>
<text text-anchor="start" x="277" y="-66.3" font-family="Helvetica,sans-Serif" font-size="11.00" fill="#000000">calculation_timestamp</text>
<polygon fill="none" stroke="#000000" points="430,-59.2 430,-81.2 529,-81.2 529,-59.2 430,-59.2"/>
<text text-anchor="start" x="433" y="-66.9" font-family="Helvetica,sans-Serif" font-size="11.00" fill="#000000">timestamp[29,6]</text>
<polygon fill="#ffffff" stroke="transparent" points="257,-40.2 257,-59.2 348,-59.2 348,-40.2 257,-40.2"/>
<polygon fill="none" stroke="#000000" points="257,-40.2 257,-59.2 348,-59.2 348,-40.2 257,-40.2"/>
<text text-anchor="start" x="260" y="-46.3" font-family="Helvetica,sans-Serif" font-size="11.00" fill="#000000">&lt; 1</text>
<polygon fill="#ffffff" stroke="transparent" points="348,-40.2 348,-59.2 430,-59.2 430,-40.2 348,-40.2"/>
<polygon fill="none" stroke="#000000" points="348,-40.2 348,-59.2 430,-59.2 430,-40.2 348,-40.2"/>
<text text-anchor="start" x="420.8862" y="-46.3" font-family="Helvetica,sans-Serif" font-size="11.00" fill="#000000"> &#160;</text>
<polygon fill="#ffffff" stroke="transparent" points="430,-40.2 430,-59.2 529,-59.2 529,-40.2 430,-40.2"/>
<polygon fill="none" stroke="#000000" points="430,-40.2 430,-59.2 529,-59.2 529,-40.2 430,-40.2"/>
<text text-anchor="start" x="510.4053" y="-46.3" font-family="Helvetica,sans-Serif" font-size="11.00" fill="#000000">0 &gt;</text>
<polygon fill="none" stroke="#000000" stroke-width="2" points="256,-39.2 256,-281.2 530,-281.2 530,-39.2 256,-39.2"/>
</a>
</g>
</g>
<!-- sa_ccr_calculations -->
<g id="node2" class="node">
<title>sa_ccr_calculations</title>
<g id="a_node2"><a xlink:href="../../tables/sa_ccr_calculations.html" xlink:title="sa_ccr_calculations" target="_top">
<polygon fill="#ffffff" stroke="transparent" points="8,-109.7 8,-280.7 206,-280.7 206,-109.7 8,-109.7"/>
<polygon fill="#f5f5f5" stroke="transparent" points="8,-257.2 8,-280.2 206,-280.2 206,-257.2 8,-257.2"/>
<polygon fill="none" stroke="#000000" points="8,-257.2 8,-280.2 206,-280.2 206,-257.2 8,-257.2"/>
<text text-anchor="start" x="13" y="-265.8" font-family="Helvetica,sans-Serif" font-weight="bold" font-size="11.00" fill="#000000">sa_ccr_calculations</text>
<text text-anchor="start" x="171.0437" y="-265.3" font-family="Helvetica,sans-Serif" font-size="11.00" fill="#000000">[table]</text>
<polygon fill="none" stroke="#000000" points="8,-235.2 8,-257.2 206,-257.2 206,-235.2 8,-235.2"/>
<image xlink:href="../../images/primaryKeys.png" width="11px" height="12px" preserveAspectRatio="xMinYMin meet" x="13" y="-252.2"/>
<text text-anchor="start" x="28" y="-242.3" font-family="Helvetica,sans-Serif" font-size="11.00" fill="#000000">id</text>
<polygon fill="#ffffff" stroke="transparent" points="8,-213.2 8,-235.2 206,-235.2 206,-213.2 8,-213.2"/>
<polygon fill="none" stroke="#000000" points="8,-213.2 8,-235.2 206,-235.2 206,-213.2 8,-213.2"/>
<text text-anchor="start" x="28" y="-220.3" font-family="Helvetica,sans-Serif" font-size="11.00" fill="#000000">calculation_id</text>
<polygon fill="#ffffff" stroke="transparent" points="8,-191.2 8,-213.2 206,-213.2 206,-191.2 8,-191.2"/>
<polygon fill="none" stroke="#000000" points="8,-191.2 8,-213.2 206,-213.2 206,-191.2 8,-191.2"/>
<image xlink:href="../../images/foreignKeys.png" width="11px" height="12px" preserveAspectRatio="xMinYMin meet" x="13" y="-208.2"/>
<text text-anchor="start" x="28" y="-198.3" font-family="Helvetica,sans-Serif" font-size="11.00" fill="#000000">netting_set_id</text>
<polygon fill="#ffffff" stroke="transparent" points="8,-169.2 8,-191.2 206,-191.2 206,-169.2 8,-169.2"/>
<polygon fill="none" stroke="#000000" points="8,-169.2 8,-191.2 206,-191.2 206,-169.2 8,-169.2"/>
<text text-anchor="start" x="28" y="-176.3" font-family="Helvetica,sans-Serif" font-size="11.00" fill="#000000">calculation_date</text>
<polygon fill="#ffffff" stroke="transparent" points="8,-147.2 8,-169.2 206,-169.2 206,-147.2 8,-147.2"/>
<polygon fill="none" stroke="#000000" points="8,-147.2 8,-169.2 206,-169.2 206,-147.2 8,-147.2"/>
<text text-anchor="start" x="28" y="-154.3" font-family="Helvetica,sans-Serif" font-size="11.00" fill="#000000">jurisdiction</text>
<polygon fill="none" stroke="#000000" points="8,-128.2 8,-147.2 206,-147.2 206,-128.2 8,-128.2"/>
<text text-anchor="start" x="11" y="-134.3" font-family="Helvetica,sans-Serif" font-size="11.00" fill="#000000">...</text>
<polygon fill="#ffffff" stroke="transparent" points="8,-109.2 8,-128.2 101,-128.2 101,-109.2 8,-109.2"/>
<polygon fill="none" stroke="#000000" points="8,-109.2 8,-128.2 101,-128.2 101,-109.2 8,-109.2"/>
<text text-anchor="start" x="11" y="-115.3" font-family="Helvetica,sans-Serif" font-size="11.00" fill="#000000">&lt; 1</text>
<polygon fill="#ffffff" stroke="transparent" points="101,-109.2 101,-128.2 149,-128.2 149,-109.2 101,-109.2"/>
<polygon fill="none" stroke="#000000" points="101,-109.2 101,-128.2 149,-128.2 149,-109.2 101,-109.2"/>
<text text-anchor="start" x="139.8862" y="-115.3" font-family="Helvetica,sans-Serif" font-size="11.00" fill="#000000"> &#160;</text>
<polygon fill="#ffffff" stroke="transparent" points="149,-109.2 149,-128.2 206,-128.2 206,-109.2 149,-109.2"/>
<polygon fill="none" stroke="#000000" points="149,-109.2 149,-128.2 206,-128.2 206,-109.2 149,-109.2"/>
<text text-anchor="start" x="187.4053" y="-115.3" font-family="Helvetica,sans-Serif" font-size="11.00" fill="#000000">3 &gt;</text>
</a>
</g>
</g>
<!-- sa_ccr_audit_trail&#45;&gt;sa_ccr_calculations -->
<g id="edge1" class="edge">
<title>sa_ccr_audit_trail:w&#45;&gt;sa_ccr_calculations:e</title>
<path fill="none" stroke="#000000" d="M242.276,-224.2C230.2815,-224.2 222.8229,-224.2 206,-224.2"/>
<polygon fill="#000000" stroke="#000000" points="249,-224.2001 257,-227.8 253,-224.2 257,-224.2 257,-224.2 257,-224.2 253,-224.2 257,-220.6 249,-224.2001 249,-224.2001"/>
<ellipse fill="none" stroke="#000000" cx="245.8" cy="-224.2001" rx="3.2" ry="3.2"/>
</g>
</g>
</svg>
