<?xml version="1.0" encoding="UTF-8" standalone="no"?>
<!DOCTYPE svg PUBLIC "-//W3C//DTD SVG 1.1//EN"
 "http://www.w3.org/Graphics/SVG/1.1/DTD/svg11.dtd">
<!-- Generated by graphviz version 2.40.1 (20161225.0304)
 -->
<!-- Title: twoDegreesRelationshipsDiagram Pages: 1 -->
<svg width="790pt" height="841pt"
 viewBox="0.00 0.00 790.00 841.20" xmlns="http://www.w3.org/2000/svg" xmlns:xlink="http://www.w3.org/1999/xlink">
<g id="graph0" class="graph" transform="scale(1 1) rotate(0) translate(4 837.2)">
<title>twoDegreesRelationshipsDiagram</title>
<polygon fill="#ffffff" stroke="transparent" points="-4,4 -4,-837.2 786,-837.2 786,4 -4,4"/>
<text text-anchor="middle" x="72.4936" y="-7.3" font-family="Helvetica,sans-Serif" font-size="11.00" fill="#000000">Generated by SchemaSpy</text>
<!-- simm_bucket_mappings -->
<g id="node1" class="node">
<title>simm_bucket_mappings</title>
<g id="a_node1"><a xlink:href="../../tables/simm_bucket_mappings.html" xlink:title="simm_bucket_mappings" target="_top">
<polygon fill="#ffffff" stroke="transparent" points="319,-680.2 319,-829.2 518,-829.2 518,-680.2 319,-680.2"/>
<polygon fill="#f5f5f5" stroke="transparent" points="319.5,-805.7 319.5,-828.7 518.5,-828.7 518.5,-805.7 319.5,-805.7"/>
<polygon fill="none" stroke="#000000" points="319.5,-805.7 319.5,-828.7 518.5,-828.7 518.5,-805.7 319.5,-805.7"/>
<text text-anchor="start" x="324.5" y="-814.3" font-family="Helvetica,sans-Serif" font-weight="bold" font-size="11.00" fill="#000000">simm_bucket_mappings</text>
<text text-anchor="start" x="484.0219" y="-813.8" font-family="Helvetica,sans-Serif" font-size="11.00" fill="#000000">[table]</text>
<polygon fill="none" stroke="#000000" points="319.5,-783.7 319.5,-805.7 518.5,-805.7 518.5,-783.7 319.5,-783.7"/>
<image xlink:href="../../images/primaryKeys.png" width="11px" height="12px" preserveAspectRatio="xMinYMin meet" x="324.5" y="-800.7"/>
<text text-anchor="start" x="348.5" y="-790.8" font-family="Helvetica,sans-Serif" font-size="11.00" fill="#000000">id</text>
<polygon fill="#ffffff" stroke="transparent" points="319.5,-761.7 319.5,-783.7 518.5,-783.7 518.5,-761.7 319.5,-761.7"/>
<polygon fill="none" stroke="#000000" points="319.5,-761.7 319.5,-783.7 518.5,-783.7 518.5,-761.7 319.5,-761.7"/>
<image xlink:href="../../images/foreignKeys.png" width="11px" height="12px" preserveAspectRatio="xMinYMin meet" x="324.5" y="-778.7"/>
<text text-anchor="start" x="348.5" y="-768.8" font-family="Helvetica,sans-Serif" font-size="11.00" fill="#000000">parameter_set_id</text>
<polygon fill="#ffffff" stroke="transparent" points="319.5,-739.7 319.5,-761.7 518.5,-761.7 518.5,-739.7 319.5,-739.7"/>
<polygon fill="none" stroke="#000000" points="319.5,-739.7 319.5,-761.7 518.5,-761.7 518.5,-739.7 319.5,-739.7"/>
<text text-anchor="start" x="348.5" y="-746.8" font-family="Helvetica,sans-Serif" font-size="11.00" fill="#000000">risk_class</text>
<polygon fill="#ffffff" stroke="transparent" points="319.5,-717.7 319.5,-739.7 518.5,-739.7 518.5,-717.7 319.5,-717.7"/>
<polygon fill="none" stroke="#000000" points="319.5,-717.7 319.5,-739.7 518.5,-739.7 518.5,-717.7 319.5,-717.7"/>
<text text-anchor="start" x="348.5" y="-724.8" font-family="Helvetica,sans-Serif" font-size="11.00" fill="#000000">risk_factor</text>
<polygon fill="none" stroke="#000000" points="319.5,-698.7 319.5,-717.7 518.5,-717.7 518.5,-698.7 319.5,-698.7"/>
<text text-anchor="start" x="322.5" y="-704.8" font-family="Helvetica,sans-Serif" font-size="11.00" fill="#000000">...</text>
<polygon fill="#ffffff" stroke="transparent" points="319.5,-679.7 319.5,-698.7 417.5,-698.7 417.5,-679.7 319.5,-679.7"/>
<polygon fill="none" stroke="#000000" points="319.5,-679.7 319.5,-698.7 417.5,-698.7 417.5,-679.7 319.5,-679.7"/>
<text text-anchor="start" x="322.5" y="-685.8" font-family="Helvetica,sans-Serif" font-size="11.00" fill="#000000">&lt; 1</text>
<polygon fill="#ffffff" stroke="transparent" points="417.5,-679.7 417.5,-698.7 467.5,-698.7 467.5,-679.7 417.5,-679.7"/>
<polygon fill="none" stroke="#000000" points="417.5,-679.7 417.5,-698.7 467.5,-698.7 467.5,-679.7 417.5,-679.7"/>
<text text-anchor="start" x="458.3862" y="-685.8" font-family="Helvetica,sans-Serif" font-size="11.00" fill="#000000"> &#160;</text>
<polygon fill="#ffffff" stroke="transparent" points="467.5,-679.7 467.5,-698.7 518.5,-698.7 518.5,-679.7 467.5,-679.7"/>
<polygon fill="none" stroke="#000000" points="467.5,-679.7 467.5,-698.7 518.5,-698.7 518.5,-679.7 467.5,-679.7"/>
<text text-anchor="start" x="509.3862" y="-685.8" font-family="Helvetica,sans-Serif" font-size="11.00" fill="#000000"> &#160;</text>
</a>
</g>
</g>
<!-- simm_parameter_sets -->
<g id="node2" class="node">
<title>simm_parameter_sets</title>
<g id="a_node2"><a xlink:href="../../tables/simm_parameter_sets.html" xlink:title="simm_parameter_sets" target="_top">
<polygon fill="#ffffff" stroke="transparent" points="8,-322.7 8,-566.7 270,-566.7 270,-322.7 8,-322.7"/>
<polygon fill="#f5f5f5" stroke="transparent" points="10,-541.7 10,-564.7 268,-564.7 268,-541.7 10,-541.7"/>
<polygon fill="none" stroke="#000000" points="10,-541.7 10,-564.7 268,-564.7 268,-541.7 10,-541.7"/>
<text text-anchor="start" x="15" y="-550.3" font-family="Helvetica,sans-Serif" font-weight="bold" font-size="11.00" fill="#000000">simm_parameter_sets</text>
<text text-anchor="start" x="233.0437" y="-549.8" font-family="Helvetica,sans-Serif" font-size="11.00" fill="#000000">[table]</text>
<polygon fill="none" stroke="#000000" points="10,-519.7 10,-541.7 178,-541.7 178,-519.7 10,-519.7"/>
<image xlink:href="../../images/primaryKeys.png" width="11px" height="12px" preserveAspectRatio="xMinYMin meet" x="15" y="-536.7"/>
<text text-anchor="start" x="30" y="-526.8" font-family="Helvetica,sans-Serif" font-size="11.00" fill="#000000">id</text>
<polygon fill="none" stroke="#000000" points="178,-519.7 178,-541.7 268,-541.7 268,-519.7 178,-519.7"/>
<text text-anchor="start" x="181" y="-527.4" font-family="Helvetica,sans-Serif" font-size="11.00" fill="#000000">bigserial[19]</text>
<polygon fill="#ffffff" stroke="transparent" points="10,-497.7 10,-519.7 178,-519.7 178,-497.7 10,-497.7"/>
<polygon fill="none" stroke="#000000" points="10,-497.7 10,-519.7 178,-519.7 178,-497.7 10,-497.7"/>
<text text-anchor="start" x="30" y="-504.8" font-family="Helvetica,sans-Serif" font-size="11.00" fill="#000000">version_name</text>
<polygon fill="none" stroke="#000000" points="178,-497.7 178,-519.7 268,-519.7 268,-497.7 178,-497.7"/>
<text text-anchor="start" x="181" y="-505.4" font-family="Helvetica,sans-Serif" font-size="11.00" fill="#000000">varchar[50]</text>
<polygon fill="#ffffff" stroke="transparent" points="10,-475.7 10,-497.7 178,-497.7 178,-475.7 10,-475.7"/>
<polygon fill="none" stroke="#000000" points="10,-475.7 10,-497.7 178,-497.7 178,-475.7 10,-475.7"/>
<text text-anchor="start" x="30" y="-482.8" font-family="Helvetica,sans-Serif" font-size="11.00" fill="#000000">isda_version</text>
<polygon fill="none" stroke="#000000" points="178,-475.7 178,-497.7 268,-497.7 268,-475.7 178,-475.7"/>
<text text-anchor="start" x="181" y="-483.4" font-family="Helvetica,sans-Serif" font-size="11.00" fill="#000000">varchar[20]</text>
<polygon fill="#ffffff" stroke="transparent" points="10,-453.7 10,-475.7 178,-475.7 178,-453.7 10,-453.7"/>
<polygon fill="none" stroke="#000000" points="10,-453.7 10,-475.7 178,-475.7 178,-453.7 10,-453.7"/>
<text text-anchor="start" x="30" y="-460.8" font-family="Helvetica,sans-Serif" font-size="11.00" fill="#000000">effective_date</text>
<polygon fill="none" stroke="#000000" points="178,-453.7 178,-475.7 268,-475.7 268,-453.7 178,-453.7"/>
<text text-anchor="start" x="181" y="-461.4" font-family="Helvetica,sans-Serif" font-size="11.00" fill="#000000">date[13]</text>
<polygon fill="none" stroke="#000000" points="10,-431.7 10,-453.7 178,-453.7 178,-431.7 10,-431.7"/>
<text text-anchor="start" x="30" y="-438.8" font-family="Helvetica,sans-Serif" font-size="11.00" fill="#000000">end_date</text>
<polygon fill="none" stroke="#000000" points="178,-431.7 178,-453.7 268,-453.7 268,-431.7 178,-431.7"/>
<text text-anchor="start" x="181" y="-439.4" font-family="Helvetica,sans-Serif" font-size="11.00" fill="#000000">date[13]</text>
<polygon fill="none" stroke="#000000" points="10,-409.7 10,-431.7 178,-431.7 178,-409.7 10,-409.7"/>
<text text-anchor="start" x="30" y="-416.8" font-family="Helvetica,sans-Serif" font-size="11.00" fill="#000000">description</text>
<polygon fill="none" stroke="#000000" points="178,-409.7 178,-431.7 268,-431.7 268,-409.7 178,-409.7"/>
<text text-anchor="start" x="180.5042" y="-417.4" font-family="Helvetica,sans-Serif" font-size="11.00" fill="#000000">text[2147483647]</text>
<polygon fill="#ffffff" stroke="transparent" points="10,-387.7 10,-409.7 178,-409.7 178,-387.7 10,-387.7"/>
<polygon fill="none" stroke="#000000" points="10,-387.7 10,-409.7 178,-409.7 178,-387.7 10,-387.7"/>
<text text-anchor="start" x="30" y="-394.8" font-family="Helvetica,sans-Serif" font-size="11.00" fill="#000000">is_active</text>
<polygon fill="none" stroke="#000000" points="178,-387.7 178,-409.7 268,-409.7 268,-387.7 178,-387.7"/>
<text text-anchor="start" x="181" y="-395.4" font-family="Helvetica,sans-Serif" font-size="11.00" fill="#000000">bool[1]</text>
<polygon fill="none" stroke="#000000" points="10,-365.7 10,-387.7 178,-387.7 178,-365.7 10,-365.7"/>
<text text-anchor="start" x="30" y="-372.8" font-family="Helvetica,sans-Serif" font-size="11.00" fill="#000000">created_at</text>
<polygon fill="none" stroke="#000000" points="178,-365.7 178,-387.7 268,-387.7 268,-365.7 178,-365.7"/>
<text text-anchor="start" x="181" y="-373.4" font-family="Helvetica,sans-Serif" font-size="11.00" fill="#000000">timestamp[29,6]</text>
<polygon fill="none" stroke="#000000" points="10,-343.7 10,-365.7 178,-365.7 178,-343.7 10,-343.7"/>
<text text-anchor="start" x="30" y="-350.8" font-family="Helvetica,sans-Serif" font-size="11.00" fill="#000000">updated_at</text>
<polygon fill="none" stroke="#000000" points="178,-343.7 178,-365.7 268,-365.7 268,-343.7 178,-343.7"/>
<text text-anchor="start" x="181" y="-351.4" font-family="Helvetica,sans-Serif" font-size="11.00" fill="#000000">timestamp[29,6]</text>
<polygon fill="#ffffff" stroke="transparent" points="10,-324.7 10,-343.7 98,-343.7 98,-324.7 10,-324.7"/>
<polygon fill="none" stroke="#000000" points="10,-324.7 10,-343.7 98,-343.7 98,-324.7 10,-324.7"/>
<text text-anchor="start" x="13" y="-330.8" font-family="Helvetica,sans-Serif" font-size="11.00" fill="#000000">&lt; 0</text>
<polygon fill="#ffffff" stroke="transparent" points="98,-324.7 98,-343.7 178,-343.7 178,-324.7 98,-324.7"/>
<polygon fill="none" stroke="#000000" points="98,-324.7 98,-343.7 178,-343.7 178,-324.7 98,-324.7"/>
<text text-anchor="start" x="168.8862" y="-330.8" font-family="Helvetica,sans-Serif" font-size="11.00" fill="#000000"> &#160;</text>
<polygon fill="#ffffff" stroke="transparent" points="178,-324.7 178,-343.7 268,-343.7 268,-324.7 178,-324.7"/>
<polygon fill="none" stroke="#000000" points="178,-324.7 178,-343.7 268,-343.7 268,-324.7 178,-324.7"/>
<text text-anchor="start" x="249.4053" y="-330.8" font-family="Helvetica,sans-Serif" font-size="11.00" fill="#000000">4 &gt;</text>
<polygon fill="none" stroke="#000000" stroke-width="2" points="9,-323.7 9,-565.7 269,-565.7 269,-323.7 9,-323.7"/>
</a>
</g>
</g>
<!-- simm_bucket_mappings&#45;&gt;simm_parameter_sets -->
<g id="edge1" class="edge">
<title>simm_bucket_mappings:w&#45;&gt;simm_parameter_sets:e</title>
<path fill="none" stroke="#000000" d="M304.8284,-770.8912C225.924,-748.7459 372.38,-530.7 268,-530.7"/>
<polygon fill="#000000" stroke="#000000" points="311.5601,-771.7211 319.0595,-776.2729 315.5301,-772.2105 319.5,-772.7 319.5,-772.7 319.5,-772.7 315.5301,-772.2105 319.9405,-769.1271 311.5601,-771.7211 311.5601,-771.7211"/>
<ellipse fill="none" stroke="#000000" cx="308.3842" cy="-771.3295" rx="3.2" ry="3.2"/>
</g>
<!-- simm_calculation_audit -->
<g id="node3" class="node">
<title>simm_calculation_audit</title>
<g id="a_node3"><a xlink:href="../../tables/simm_calculation_audit.html" xlink:title="simm_calculation_audit" target="_top">
<polygon fill="#ffffff" stroke="transparent" points="572.5,-254.2 572.5,-315.2 768.5,-315.2 768.5,-254.2 572.5,-254.2"/>
<polygon fill="#f5f5f5" stroke="transparent" points="572.5,-291.7 572.5,-314.7 768.5,-314.7 768.5,-291.7 572.5,-291.7"/>
<polygon fill="none" stroke="#000000" points="572.5,-291.7 572.5,-314.7 768.5,-314.7 768.5,-291.7 572.5,-291.7"/>
<text text-anchor="start" x="577.5" y="-300.3" font-family="Helvetica,sans-Serif" font-weight="bold" font-size="11.00" fill="#000000">simm_calculation_audit</text>
<text text-anchor="start" x="734.0219" y="-299.8" font-family="Helvetica,sans-Serif" font-size="11.00" fill="#000000">[table]</text>
<polygon fill="none" stroke="#000000" points="572.5,-272.7 572.5,-291.7 768.5,-291.7 768.5,-272.7 572.5,-272.7"/>
<text text-anchor="start" x="575.5" y="-278.8" font-family="Helvetica,sans-Serif" font-size="11.00" fill="#000000">...</text>
<polygon fill="#ffffff" stroke="transparent" points="572.5,-253.7 572.5,-272.7 668.5,-272.7 668.5,-253.7 572.5,-253.7"/>
<polygon fill="none" stroke="#000000" points="572.5,-253.7 572.5,-272.7 668.5,-272.7 668.5,-253.7 572.5,-253.7"/>
<text text-anchor="start" x="575.5" y="-259.8" font-family="Helvetica,sans-Serif" font-size="11.00" fill="#000000">&lt; 1</text>
<polygon fill="#ffffff" stroke="transparent" points="668.5,-253.7 668.5,-272.7 718.5,-272.7 718.5,-253.7 668.5,-253.7"/>
<polygon fill="none" stroke="#000000" points="668.5,-253.7 668.5,-272.7 718.5,-272.7 718.5,-253.7 668.5,-253.7"/>
<text text-anchor="start" x="709.3862" y="-259.8" font-family="Helvetica,sans-Serif" font-size="11.00" fill="#000000"> &#160;</text>
<polygon fill="#ffffff" stroke="transparent" points="718.5,-253.7 718.5,-272.7 768.5,-272.7 768.5,-253.7 718.5,-253.7"/>
<polygon fill="none" stroke="#000000" points="718.5,-253.7 718.5,-272.7 768.5,-272.7 768.5,-253.7 718.5,-253.7"/>
<text text-anchor="start" x="759.3862" y="-259.8" font-family="Helvetica,sans-Serif" font-size="11.00" fill="#000000"> &#160;</text>
</a>
</g>
</g>
<!-- simm_calculations -->
<g id="node4" class="node">
<title>simm_calculations</title>
<g id="a_node4"><a xlink:href="../../tables/simm_calculations.html" xlink:title="simm_calculations" target="_top">
<polygon fill="#ffffff" stroke="transparent" points="332.5,-38.2 332.5,-275.2 504.5,-275.2 504.5,-38.2 332.5,-38.2"/>
<polygon fill="#f5f5f5" stroke="transparent" points="332.5,-251.7 332.5,-274.7 504.5,-274.7 504.5,-251.7 332.5,-251.7"/>
<polygon fill="none" stroke="#000000" points="332.5,-251.7 332.5,-274.7 504.5,-274.7 504.5,-251.7 332.5,-251.7"/>
<text text-anchor="start" x="337.5" y="-260.3" font-family="Helvetica,sans-Serif" font-weight="bold" font-size="11.00" fill="#000000">simm_calculations</text>
<text text-anchor="start" x="469.5437" y="-259.8" font-family="Helvetica,sans-Serif" font-size="11.00" fill="#000000">[table]</text>
<polygon fill="none" stroke="#000000" points="332.5,-229.7 332.5,-251.7 504.5,-251.7 504.5,-229.7 332.5,-229.7"/>
<image xlink:href="../../images/primaryKeys.png" width="11px" height="12px" preserveAspectRatio="xMinYMin meet" x="337.5" y="-246.7"/>
<text text-anchor="start" x="352.5" y="-236.8" font-family="Helvetica,sans-Serif" font-size="11.00" fill="#000000">id</text>
<polygon fill="#ffffff" stroke="transparent" points="332.5,-207.7 332.5,-229.7 504.5,-229.7 504.5,-207.7 332.5,-207.7"/>
<polygon fill="none" stroke="#000000" points="332.5,-207.7 332.5,-229.7 504.5,-229.7 504.5,-207.7 332.5,-207.7"/>
<text text-anchor="start" x="352.5" y="-214.8" font-family="Helvetica,sans-Serif" font-size="11.00" fill="#000000">calculation_id</text>
<polygon fill="#ffffff" stroke="transparent" points="332.5,-185.7 332.5,-207.7 504.5,-207.7 504.5,-185.7 332.5,-185.7"/>
<polygon fill="none" stroke="#000000" points="332.5,-185.7 332.5,-207.7 504.5,-207.7 504.5,-185.7 332.5,-185.7"/>
<image xlink:href="../../images/foreignKeys.png" width="11px" height="12px" preserveAspectRatio="xMinYMin meet" x="337.5" y="-202.7"/>
<text text-anchor="start" x="352.5" y="-192.8" font-family="Helvetica,sans-Serif" font-size="11.00" fill="#000000">upload_id</text>
<polygon fill="none" stroke="#000000" points="332.5,-163.7 332.5,-185.7 504.5,-185.7 504.5,-163.7 332.5,-163.7"/>
<image xlink:href="../../images/foreignKeys.png" width="11px" height="12px" preserveAspectRatio="xMinYMin meet" x="337.5" y="-180.7"/>
<text text-anchor="start" x="352.5" y="-170.8" font-family="Helvetica,sans-Serif" font-size="11.00" fill="#000000">parameter_set_id</text>
<polygon fill="#ffffff" stroke="transparent" points="332.5,-141.7 332.5,-163.7 504.5,-163.7 504.5,-141.7 332.5,-141.7"/>
<polygon fill="none" stroke="#000000" points="332.5,-141.7 332.5,-163.7 504.5,-163.7 504.5,-141.7 332.5,-141.7"/>
<text text-anchor="start" x="352.5" y="-148.8" font-family="Helvetica,sans-Serif" font-size="11.00" fill="#000000">portfolio_id</text>
<polygon fill="#ffffff" stroke="transparent" points="332.5,-119.7 332.5,-141.7 504.5,-141.7 504.5,-119.7 332.5,-119.7"/>
<polygon fill="none" stroke="#000000" points="332.5,-119.7 332.5,-141.7 504.5,-141.7 504.5,-119.7 332.5,-119.7"/>
<text text-anchor="start" x="352.5" y="-126.8" font-family="Helvetica,sans-Serif" font-size="11.00" fill="#000000">calculation_date</text>
<polygon fill="#ffffff" stroke="transparent" points="332.5,-97.7 332.5,-119.7 504.5,-119.7 504.5,-97.7 332.5,-97.7"/>
<polygon fill="none" stroke="#000000" points="332.5,-97.7 332.5,-119.7 504.5,-119.7 504.5,-97.7 332.5,-97.7"/>
<text text-anchor="start" x="352.5" y="-104.8" font-family="Helvetica,sans-Serif" font-size="11.00" fill="#000000">calculation_status</text>
<polygon fill="#ffffff" stroke="transparent" points="332.5,-75.7 332.5,-97.7 504.5,-97.7 504.5,-75.7 332.5,-75.7"/>
<polygon fill="none" stroke="#000000" points="332.5,-75.7 332.5,-97.7 504.5,-97.7 504.5,-75.7 332.5,-75.7"/>
<text text-anchor="start" x="352.5" y="-82.8" font-family="Helvetica,sans-Serif" font-size="11.00" fill="#000000">created_at</text>
<polygon fill="none" stroke="#000000" points="332.5,-56.7 332.5,-75.7 504.5,-75.7 504.5,-56.7 332.5,-56.7"/>
<text text-anchor="start" x="335.5" y="-62.8" font-family="Helvetica,sans-Serif" font-size="11.00" fill="#000000">...</text>
<polygon fill="#ffffff" stroke="transparent" points="332.5,-37.7 332.5,-56.7 412.5,-56.7 412.5,-37.7 332.5,-37.7"/>
<polygon fill="none" stroke="#000000" points="332.5,-37.7 332.5,-56.7 412.5,-56.7 412.5,-37.7 332.5,-37.7"/>
<text text-anchor="start" x="335.5" y="-43.8" font-family="Helvetica,sans-Serif" font-size="11.00" fill="#000000">&lt; 2</text>
<polygon fill="#ffffff" stroke="transparent" points="412.5,-37.7 412.5,-56.7 453.5,-56.7 453.5,-37.7 412.5,-37.7"/>
<polygon fill="none" stroke="#000000" points="412.5,-37.7 412.5,-56.7 453.5,-56.7 453.5,-37.7 412.5,-37.7"/>
<text text-anchor="start" x="444.3862" y="-43.8" font-family="Helvetica,sans-Serif" font-size="11.00" fill="#000000"> &#160;</text>
<polygon fill="#ffffff" stroke="transparent" points="453.5,-37.7 453.5,-56.7 504.5,-56.7 504.5,-37.7 453.5,-37.7"/>
<polygon fill="none" stroke="#000000" points="453.5,-37.7 453.5,-56.7 504.5,-56.7 504.5,-37.7 453.5,-37.7"/>
<text text-anchor="start" x="485.9053" y="-43.8" font-family="Helvetica,sans-Serif" font-size="11.00" fill="#000000">2 &gt;</text>
</a>
</g>
</g>
<!-- simm_calculation_audit&#45;&gt;simm_calculations -->
<g id="edge2" class="edge">
<title>simm_calculation_audit:w&#45;&gt;simm_calculations:e</title>
<path fill="none" stroke="#000000" d="M558.147,-278.8819C537.0647,-269.6188 534.1387,-240.7 504.5,-240.7"/>
<polygon fill="#000000" stroke="#000000" points="564.6499,-280.1586 571.8064,-285.2326 568.5749,-280.9293 572.5,-281.7 572.5,-281.7 572.5,-281.7 568.5749,-280.9293 573.1936,-278.1674 564.6499,-280.1586 564.6499,-280.1586"/>
<ellipse fill="none" stroke="#000000" cx="561.5098" cy="-279.5421" rx="3.2" ry="3.2"/>
</g>
<!-- simm_calculations&#45;&gt;simm_parameter_sets -->
<g id="edge4" class="edge">
<title>simm_calculations:w&#45;&gt;simm_parameter_sets:e</title>
<path fill="none" stroke="#000000" d="M318.7171,-179.2012C264.1113,-220.4114 343.0601,-530.7 268,-530.7"/>
<polygon fill="#000000" stroke="#000000" points="324.8953,-177.1836 333.6176,-178.1221 328.6976,-175.9418 332.5,-174.7 332.5,-174.7 332.5,-174.7 328.6976,-175.9418 331.3824,-171.2779 324.8953,-177.1836 324.8953,-177.1836"/>
<ellipse fill="none" stroke="#000000" cx="321.8534" cy="-178.177" rx="3.2" ry="3.2"/>
</g>
<!-- crif_uploads -->
<g id="node6" class="node">
<title>crif_uploads</title>
<g id="a_node6"><a xlink:href="../../tables/crif_uploads.html" xlink:title="crif_uploads" target="_top">
<polygon fill="#ffffff" stroke="transparent" points="79,-169.2 79,-230.2 199,-230.2 199,-169.2 79,-169.2"/>
<polygon fill="#f5f5f5" stroke="transparent" points="79,-206.7 79,-229.7 199,-229.7 199,-206.7 79,-206.7"/>
<polygon fill="none" stroke="#000000" points="79,-206.7 79,-229.7 199,-229.7 199,-206.7 79,-206.7"/>
<text text-anchor="start" x="84" y="-215.3" font-family="Helvetica,sans-Serif" font-weight="bold" font-size="11.00" fill="#000000">crif_uploads</text>
<text text-anchor="start" x="164.5219" y="-214.8" font-family="Helvetica,sans-Serif" font-size="11.00" fill="#000000">[table]</text>
<polygon fill="none" stroke="#000000" points="79,-187.7 79,-206.7 199,-206.7 199,-187.7 79,-187.7"/>
<text text-anchor="start" x="82" y="-193.8" font-family="Helvetica,sans-Serif" font-size="11.00" fill="#000000">...</text>
<polygon fill="#ffffff" stroke="transparent" points="79,-168.7 79,-187.7 128,-187.7 128,-168.7 79,-168.7"/>
<polygon fill="none" stroke="#000000" points="79,-168.7 79,-187.7 128,-187.7 128,-168.7 79,-168.7"/>
<text text-anchor="start" x="82" y="-174.8" font-family="Helvetica,sans-Serif" font-size="11.00" fill="#000000"> &#160;</text>
<polygon fill="#ffffff" stroke="transparent" points="128,-168.7 128,-187.7 159,-187.7 159,-168.7 128,-168.7"/>
<polygon fill="none" stroke="#000000" points="128,-168.7 128,-187.7 159,-187.7 159,-168.7 128,-168.7"/>
<text text-anchor="start" x="149.8862" y="-174.8" font-family="Helvetica,sans-Serif" font-size="11.00" fill="#000000"> &#160;</text>
<polygon fill="#ffffff" stroke="transparent" points="159,-168.7 159,-187.7 199,-187.7 199,-168.7 159,-168.7"/>
<polygon fill="none" stroke="#000000" points="159,-168.7 159,-187.7 199,-187.7 199,-168.7 159,-168.7"/>
<text text-anchor="start" x="180.4053" y="-174.8" font-family="Helvetica,sans-Serif" font-size="11.00" fill="#000000">2 &gt;</text>
</a>
</g>
</g>
<!-- simm_calculations&#45;&gt;crif_uploads -->
<g id="edge5" class="edge">
<title>simm_calculations:w&#45;&gt;crif_uploads:e</title>
<path fill="none" stroke="#000000" d="M317.8263,-196.7C270.2155,-196.7 253.1185,-196.7 199,-196.7"/>
<polygon fill="#000000" stroke="#000000" points="324.5,-196.7001 332.5,-200.3 328.5,-196.7 332.5,-196.7 332.5,-196.7 332.5,-196.7 328.5,-196.7 332.5,-193.1 324.5,-196.7001 324.5,-196.7001"/>
<ellipse fill="none" stroke="#000000" cx="321.3" cy="-196.7001" rx="3.2" ry="3.2"/>
</g>
<!-- simm_calculation_results -->
<g id="node5" class="node">
<title>simm_calculation_results</title>
<g id="a_node5"><a xlink:href="../../tables/simm_calculation_results.html" xlink:title="simm_calculation_results" target="_top">
<polygon fill="#ffffff" stroke="transparent" points="567,-172.2 567,-233.2 774,-233.2 774,-172.2 567,-172.2"/>
<polygon fill="#f5f5f5" stroke="transparent" points="567.5,-209.7 567.5,-232.7 774.5,-232.7 774.5,-209.7 567.5,-209.7"/>
<polygon fill="none" stroke="#000000" points="567.5,-209.7 567.5,-232.7 774.5,-232.7 774.5,-209.7 567.5,-209.7"/>
<text text-anchor="start" x="572.5" y="-218.3" font-family="Helvetica,sans-Serif" font-weight="bold" font-size="11.00" fill="#000000">simm_calculation_results</text>
<text text-anchor="start" x="740.0219" y="-217.8" font-family="Helvetica,sans-Serif" font-size="11.00" fill="#000000">[table]</text>
<polygon fill="none" stroke="#000000" points="567.5,-190.7 567.5,-209.7 774.5,-209.7 774.5,-190.7 567.5,-190.7"/>
<text text-anchor="start" x="570.5" y="-196.8" font-family="Helvetica,sans-Serif" font-size="11.00" fill="#000000">...</text>
<polygon fill="#ffffff" stroke="transparent" points="567.5,-171.7 567.5,-190.7 669.5,-190.7 669.5,-171.7 567.5,-171.7"/>
<polygon fill="none" stroke="#000000" points="567.5,-171.7 567.5,-190.7 669.5,-190.7 669.5,-171.7 567.5,-171.7"/>
<text text-anchor="start" x="570.5" y="-177.8" font-family="Helvetica,sans-Serif" font-size="11.00" fill="#000000">&lt; 1</text>
<polygon fill="#ffffff" stroke="transparent" points="669.5,-171.7 669.5,-190.7 721.5,-190.7 721.5,-171.7 669.5,-171.7"/>
<polygon fill="none" stroke="#000000" points="669.5,-171.7 669.5,-190.7 721.5,-190.7 721.5,-171.7 669.5,-171.7"/>
<text text-anchor="start" x="712.3862" y="-177.8" font-family="Helvetica,sans-Serif" font-size="11.00" fill="#000000"> &#160;</text>
<polygon fill="#ffffff" stroke="transparent" points="721.5,-171.7 721.5,-190.7 774.5,-190.7 774.5,-171.7 721.5,-171.7"/>
<polygon fill="none" stroke="#000000" points="721.5,-171.7 721.5,-190.7 774.5,-190.7 774.5,-171.7 721.5,-171.7"/>
<text text-anchor="start" x="765.3862" y="-177.8" font-family="Helvetica,sans-Serif" font-size="11.00" fill="#000000"> &#160;</text>
</a>
</g>
</g>
<!-- simm_calculation_results&#45;&gt;simm_calculations -->
<g id="edge3" class="edge">
<title>simm_calculation_results:w&#45;&gt;simm_calculations:e</title>
<path fill="none" stroke="#000000" d="M553.1951,-202.9172C534.3044,-212.5826 532.1654,-240.7 504.5,-240.7"/>
<polygon fill="#000000" stroke="#000000" points="559.695,-201.4554 568.2899,-203.2123 563.5975,-200.5777 567.5,-199.7 567.5,-199.7 567.5,-199.7 563.5975,-200.5777 566.7101,-196.1877 559.695,-201.4554 559.695,-201.4554"/>
<ellipse fill="none" stroke="#000000" cx="556.5729" cy="-202.1576" rx="3.2" ry="3.2"/>
</g>
<!-- simm_correlations -->
<g id="node7" class="node">
<title>simm_correlations</title>
<g id="a_node7"><a xlink:href="../../tables/simm_correlations.html" xlink:title="simm_correlations" target="_top">
<polygon fill="#ffffff" stroke="transparent" points="337.5,-466.2 337.5,-659.2 499.5,-659.2 499.5,-466.2 337.5,-466.2"/>
<polygon fill="#f5f5f5" stroke="transparent" points="337.5,-635.7 337.5,-658.7 499.5,-658.7 499.5,-635.7 337.5,-635.7"/>
<polygon fill="none" stroke="#000000" points="337.5,-635.7 337.5,-658.7 499.5,-658.7 499.5,-635.7 337.5,-635.7"/>
<text text-anchor="start" x="342.5" y="-644.3" font-family="Helvetica,sans-Serif" font-weight="bold" font-size="11.00" fill="#000000">simm_correlations</text>
<text text-anchor="start" x="465.0219" y="-643.8" font-family="Helvetica,sans-Serif" font-size="11.00" fill="#000000">[table]</text>
<polygon fill="none" stroke="#000000" points="337.5,-613.7 337.5,-635.7 499.5,-635.7 499.5,-613.7 337.5,-613.7"/>
<image xlink:href="../../images/primaryKeys.png" width="11px" height="12px" preserveAspectRatio="xMinYMin meet" x="342.5" y="-630.7"/>
<text text-anchor="start" x="366.5" y="-620.8" font-family="Helvetica,sans-Serif" font-size="11.00" fill="#000000">id</text>
<polygon fill="#ffffff" stroke="transparent" points="337.5,-591.7 337.5,-613.7 499.5,-613.7 499.5,-591.7 337.5,-591.7"/>
<polygon fill="none" stroke="#000000" points="337.5,-591.7 337.5,-613.7 499.5,-613.7 499.5,-591.7 337.5,-591.7"/>
<image xlink:href="../../images/foreignKeys.png" width="11px" height="12px" preserveAspectRatio="xMinYMin meet" x="342.5" y="-608.7"/>
<text text-anchor="start" x="366.5" y="-598.8" font-family="Helvetica,sans-Serif" font-size="11.00" fill="#000000">parameter_set_id</text>
<polygon fill="#ffffff" stroke="transparent" points="337.5,-569.7 337.5,-591.7 499.5,-591.7 499.5,-569.7 337.5,-569.7"/>
<polygon fill="none" stroke="#000000" points="337.5,-569.7 337.5,-591.7 499.5,-591.7 499.5,-569.7 337.5,-569.7"/>
<text text-anchor="start" x="366.5" y="-576.8" font-family="Helvetica,sans-Serif" font-size="11.00" fill="#000000">risk_class</text>
<polygon fill="#ffffff" stroke="transparent" points="337.5,-547.7 337.5,-569.7 499.5,-569.7 499.5,-547.7 337.5,-547.7"/>
<polygon fill="none" stroke="#000000" points="337.5,-547.7 337.5,-569.7 499.5,-569.7 499.5,-547.7 337.5,-547.7"/>
<text text-anchor="start" x="366.5" y="-554.8" font-family="Helvetica,sans-Serif" font-size="11.00" fill="#000000">correlation_type</text>
<polygon fill="#ffffff" stroke="transparent" points="337.5,-525.7 337.5,-547.7 499.5,-547.7 499.5,-525.7 337.5,-525.7"/>
<polygon fill="none" stroke="#000000" points="337.5,-525.7 337.5,-547.7 499.5,-547.7 499.5,-525.7 337.5,-525.7"/>
<text text-anchor="start" x="366.5" y="-532.8" font-family="Helvetica,sans-Serif" font-size="11.00" fill="#000000">bucket_from</text>
<polygon fill="#ffffff" stroke="transparent" points="337.5,-503.7 337.5,-525.7 499.5,-525.7 499.5,-503.7 337.5,-503.7"/>
<polygon fill="none" stroke="#000000" points="337.5,-503.7 337.5,-525.7 499.5,-525.7 499.5,-503.7 337.5,-503.7"/>
<text text-anchor="start" x="366.5" y="-510.8" font-family="Helvetica,sans-Serif" font-size="11.00" fill="#000000">bucket_to</text>
<polygon fill="none" stroke="#000000" points="337.5,-484.7 337.5,-503.7 499.5,-503.7 499.5,-484.7 337.5,-484.7"/>
<text text-anchor="start" x="340.5" y="-490.8" font-family="Helvetica,sans-Serif" font-size="11.00" fill="#000000">...</text>
<polygon fill="#ffffff" stroke="transparent" points="337.5,-465.7 337.5,-484.7 416.5,-484.7 416.5,-465.7 337.5,-465.7"/>
<polygon fill="none" stroke="#000000" points="337.5,-465.7 337.5,-484.7 416.5,-484.7 416.5,-465.7 337.5,-465.7"/>
<text text-anchor="start" x="340.5" y="-471.8" font-family="Helvetica,sans-Serif" font-size="11.00" fill="#000000">&lt; 1</text>
<polygon fill="#ffffff" stroke="transparent" points="416.5,-465.7 416.5,-484.7 457.5,-484.7 457.5,-465.7 416.5,-465.7"/>
<polygon fill="none" stroke="#000000" points="416.5,-465.7 416.5,-484.7 457.5,-484.7 457.5,-465.7 416.5,-465.7"/>
<text text-anchor="start" x="448.3862" y="-471.8" font-family="Helvetica,sans-Serif" font-size="11.00" fill="#000000"> &#160;</text>
<polygon fill="#ffffff" stroke="transparent" points="457.5,-465.7 457.5,-484.7 499.5,-484.7 499.5,-465.7 457.5,-465.7"/>
<polygon fill="none" stroke="#000000" points="457.5,-465.7 457.5,-484.7 499.5,-484.7 499.5,-465.7 457.5,-465.7"/>
<text text-anchor="start" x="490.3862" y="-471.8" font-family="Helvetica,sans-Serif" font-size="11.00" fill="#000000"> &#160;</text>
</a>
</g>
</g>
<!-- simm_correlations&#45;&gt;simm_parameter_sets -->
<g id="edge6" class="edge">
<title>simm_correlations:w&#45;&gt;simm_parameter_sets:e</title>
<path fill="none" stroke="#000000" d="M323.2132,-599.4192C296.9766,-585.3339 306.7429,-530.7 268,-530.7"/>
<polygon fill="#000000" stroke="#000000" points="329.7029,-600.9095 336.6943,-606.2087 333.6015,-601.8047 337.5,-602.7 337.5,-602.7 337.5,-602.7 333.6015,-601.8047 338.3057,-599.1913 329.7029,-600.9095 329.7029,-600.9095"/>
<ellipse fill="none" stroke="#000000" cx="326.5841" cy="-600.1932" rx="3.2" ry="3.2"/>
</g>
<!-- simm_risk_weights -->
<g id="node8" class="node">
<title>simm_risk_weights</title>
<g id="a_node8"><a xlink:href="../../tables/simm_risk_weights.html" xlink:title="simm_risk_weights" target="_top">
<polygon fill="#ffffff" stroke="transparent" points="336,-296.2 336,-445.2 501,-445.2 501,-296.2 336,-296.2"/>
<polygon fill="#f5f5f5" stroke="transparent" points="336.5,-421.7 336.5,-444.7 501.5,-444.7 501.5,-421.7 336.5,-421.7"/>
<polygon fill="none" stroke="#000000" points="336.5,-421.7 336.5,-444.7 501.5,-444.7 501.5,-421.7 336.5,-421.7"/>
<text text-anchor="start" x="341.5" y="-430.3" font-family="Helvetica,sans-Serif" font-weight="bold" font-size="11.00" fill="#000000">simm_risk_weights</text>
<text text-anchor="start" x="467.0219" y="-429.8" font-family="Helvetica,sans-Serif" font-size="11.00" fill="#000000">[table]</text>
<polygon fill="none" stroke="#000000" points="336.5,-399.7 336.5,-421.7 501.5,-421.7 501.5,-399.7 336.5,-399.7"/>
<image xlink:href="../../images/primaryKeys.png" width="11px" height="12px" preserveAspectRatio="xMinYMin meet" x="341.5" y="-416.7"/>
<text text-anchor="start" x="365.5" y="-406.8" font-family="Helvetica,sans-Serif" font-size="11.00" fill="#000000">id</text>
<polygon fill="#ffffff" stroke="transparent" points="336.5,-377.7 336.5,-399.7 501.5,-399.7 501.5,-377.7 336.5,-377.7"/>
<polygon fill="none" stroke="#000000" points="336.5,-377.7 336.5,-399.7 501.5,-399.7 501.5,-377.7 336.5,-377.7"/>
<image xlink:href="../../images/foreignKeys.png" width="11px" height="12px" preserveAspectRatio="xMinYMin meet" x="341.5" y="-394.7"/>
<text text-anchor="start" x="365.5" y="-384.8" font-family="Helvetica,sans-Serif" font-size="11.00" fill="#000000">parameter_set_id</text>
<polygon fill="#ffffff" stroke="transparent" points="336.5,-355.7 336.5,-377.7 501.5,-377.7 501.5,-355.7 336.5,-355.7"/>
<polygon fill="none" stroke="#000000" points="336.5,-355.7 336.5,-377.7 501.5,-377.7 501.5,-355.7 336.5,-355.7"/>
<text text-anchor="start" x="365.5" y="-362.8" font-family="Helvetica,sans-Serif" font-size="11.00" fill="#000000">risk_class</text>
<polygon fill="#ffffff" stroke="transparent" points="336.5,-333.7 336.5,-355.7 501.5,-355.7 501.5,-333.7 336.5,-333.7"/>
<polygon fill="none" stroke="#000000" points="336.5,-333.7 336.5,-355.7 501.5,-355.7 501.5,-333.7 336.5,-333.7"/>
<text text-anchor="start" x="365.5" y="-340.8" font-family="Helvetica,sans-Serif" font-size="11.00" fill="#000000">bucket</text>
<polygon fill="none" stroke="#000000" points="336.5,-314.7 336.5,-333.7 501.5,-333.7 501.5,-314.7 336.5,-314.7"/>
<text text-anchor="start" x="339.5" y="-320.8" font-family="Helvetica,sans-Serif" font-size="11.00" fill="#000000">...</text>
<polygon fill="#ffffff" stroke="transparent" points="336.5,-295.7 336.5,-314.7 417.5,-314.7 417.5,-295.7 336.5,-295.7"/>
<polygon fill="none" stroke="#000000" points="336.5,-295.7 336.5,-314.7 417.5,-314.7 417.5,-295.7 336.5,-295.7"/>
<text text-anchor="start" x="339.5" y="-301.8" font-family="Helvetica,sans-Serif" font-size="11.00" fill="#000000">&lt; 1</text>
<polygon fill="#ffffff" stroke="transparent" points="417.5,-295.7 417.5,-314.7 459.5,-314.7 459.5,-295.7 417.5,-295.7"/>
<polygon fill="none" stroke="#000000" points="417.5,-295.7 417.5,-314.7 459.5,-314.7 459.5,-295.7 417.5,-295.7"/>
<text text-anchor="start" x="450.3862" y="-301.8" font-family="Helvetica,sans-Serif" font-size="11.00" fill="#000000"> &#160;</text>
<polygon fill="#ffffff" stroke="transparent" points="459.5,-295.7 459.5,-314.7 501.5,-314.7 501.5,-295.7 459.5,-295.7"/>
<polygon fill="none" stroke="#000000" points="459.5,-295.7 459.5,-314.7 501.5,-314.7 501.5,-295.7 459.5,-295.7"/>
<text text-anchor="start" x="492.3862" y="-301.8" font-family="Helvetica,sans-Serif" font-size="11.00" fill="#000000"> &#160;</text>
</a>
</g>
</g>
<!-- simm_risk_weights&#45;&gt;simm_parameter_sets -->
<g id="edge7" class="edge">
<title>simm_risk_weights:w&#45;&gt;simm_parameter_sets:e</title>
<path fill="none" stroke="#000000" d="M322.2473,-391.2859C276.9945,-410.5316 332.4594,-530.7 268,-530.7"/>
<polygon fill="#000000" stroke="#000000" points="328.6285,-390.1282 337.1427,-392.2422 332.5643,-389.4141 336.5,-388.7 336.5,-388.7 336.5,-388.7 332.5643,-389.4141 335.8573,-385.1578 328.6285,-390.1282 328.6285,-390.1282"/>
<ellipse fill="none" stroke="#000000" cx="325.4799" cy="-390.6995" rx="3.2" ry="3.2"/>
</g>
</g>
</svg>
