<?xml version="1.0" encoding="UTF-8" standalone="no"?>
<!DOCTYPE svg PUBLIC "-//W3C//DTD SVG 1.1//EN"
 "http://www.w3.org/Graphics/SVG/1.1/DTD/svg11.dtd">
<!-- Generated by graphviz version 2.40.1 (20161225.0304)
 -->
<!-- Title: oneDegreeRelationshipsDiagram Pages: 1 -->
<svg width="781pt" height="521pt"
 viewBox="0.00 0.00 781.00 520.70" xmlns="http://www.w3.org/2000/svg" xmlns:xlink="http://www.w3.org/1999/xlink">
<g id="graph0" class="graph" transform="scale(1 1) rotate(0) translate(4 516.7)">
<title>oneDegreeRelationshipsDiagram</title>
<polygon fill="#ffffff" stroke="transparent" points="-4,4 -4,-516.7 777,-516.7 777,4 -4,4"/>
<text text-anchor="middle" x="72.4936" y="-7.3" font-family="Helvetica,sans-Serif" font-size="11.00" fill="#000000">Generated by SchemaSpy</text>
<!-- simm_calculation_audit -->
<g id="node1" class="node">
<title>simm_calculation_audit</title>
<g id="a_node1"><a xlink:href="../../tables/simm_calculation_audit.html" xlink:title="simm_calculation_audit" target="_top">
<polygon fill="#ffffff" stroke="transparent" points="563.5,-381.7 563.5,-508.7 759.5,-508.7 759.5,-381.7 563.5,-381.7"/>
<polygon fill="#f5f5f5" stroke="transparent" points="563.5,-485.2 563.5,-508.2 759.5,-508.2 759.5,-485.2 563.5,-485.2"/>
<polygon fill="none" stroke="#000000" points="563.5,-485.2 563.5,-508.2 759.5,-508.2 759.5,-485.2 563.5,-485.2"/>
<text text-anchor="start" x="568.5" y="-493.8" font-family="Helvetica,sans-Serif" font-weight="bold" font-size="11.00" fill="#000000">simm_calculation_audit</text>
<text text-anchor="start" x="725.0219" y="-493.3" font-family="Helvetica,sans-Serif" font-size="11.00" fill="#000000">[table]</text>
<polygon fill="none" stroke="#000000" points="563.5,-463.2 563.5,-485.2 759.5,-485.2 759.5,-463.2 563.5,-463.2"/>
<image xlink:href="../../images/primaryKeys.png" width="11px" height="12px" preserveAspectRatio="xMinYMin meet" x="568.5" y="-480.2"/>
<text text-anchor="start" x="592.5" y="-470.3" font-family="Helvetica,sans-Serif" font-size="11.00" fill="#000000">id</text>
<polygon fill="#ffffff" stroke="transparent" points="563.5,-441.2 563.5,-463.2 759.5,-463.2 759.5,-441.2 563.5,-441.2"/>
<polygon fill="none" stroke="#000000" points="563.5,-441.2 563.5,-463.2 759.5,-463.2 759.5,-441.2 563.5,-441.2"/>
<image xlink:href="../../images/foreignKeys.png" width="11px" height="12px" preserveAspectRatio="xMinYMin meet" x="568.5" y="-458.2"/>
<text text-anchor="start" x="592.5" y="-448.3" font-family="Helvetica,sans-Serif" font-size="11.00" fill="#000000">calculation_id</text>
<polygon fill="#ffffff" stroke="transparent" points="563.5,-419.2 563.5,-441.2 759.5,-441.2 759.5,-419.2 563.5,-419.2"/>
<polygon fill="none" stroke="#000000" points="563.5,-419.2 563.5,-441.2 759.5,-441.2 759.5,-419.2 563.5,-419.2"/>
<text text-anchor="start" x="592.5" y="-426.3" font-family="Helvetica,sans-Serif" font-size="11.00" fill="#000000">step_order</text>
<polygon fill="none" stroke="#000000" points="563.5,-400.2 563.5,-419.2 759.5,-419.2 759.5,-400.2 563.5,-400.2"/>
<text text-anchor="start" x="566.5" y="-406.3" font-family="Helvetica,sans-Serif" font-size="11.00" fill="#000000">...</text>
<polygon fill="#ffffff" stroke="transparent" points="563.5,-381.2 563.5,-400.2 659.5,-400.2 659.5,-381.2 563.5,-381.2"/>
<polygon fill="none" stroke="#000000" points="563.5,-381.2 563.5,-400.2 659.5,-400.2 659.5,-381.2 563.5,-381.2"/>
<text text-anchor="start" x="566.5" y="-387.3" font-family="Helvetica,sans-Serif" font-size="11.00" fill="#000000">&lt; 1</text>
<polygon fill="#ffffff" stroke="transparent" points="659.5,-381.2 659.5,-400.2 709.5,-400.2 709.5,-381.2 659.5,-381.2"/>
<polygon fill="none" stroke="#000000" points="659.5,-381.2 659.5,-400.2 709.5,-400.2 709.5,-381.2 659.5,-381.2"/>
<text text-anchor="start" x="700.3862" y="-387.3" font-family="Helvetica,sans-Serif" font-size="11.00" fill="#000000"> &#160;</text>
<polygon fill="#ffffff" stroke="transparent" points="709.5,-381.2 709.5,-400.2 759.5,-400.2 759.5,-381.2 709.5,-381.2"/>
<polygon fill="none" stroke="#000000" points="709.5,-381.2 709.5,-400.2 759.5,-400.2 759.5,-381.2 709.5,-381.2"/>
<text text-anchor="start" x="750.3862" y="-387.3" font-family="Helvetica,sans-Serif" font-size="11.00" fill="#000000"> &#160;</text>
</a>
</g>
</g>
<!-- simm_calculations -->
<g id="node2" class="node">
<title>simm_calculations</title>
<g id="a_node2"><a xlink:href="../../tables/simm_calculations.html" xlink:title="simm_calculations" target="_top">
<polygon fill="#ffffff" stroke="transparent" points="243,-38.2 243,-414.2 509,-414.2 509,-38.2 243,-38.2"/>
<polygon fill="#f5f5f5" stroke="transparent" points="245,-389.2 245,-412.2 507,-412.2 507,-389.2 245,-389.2"/>
<polygon fill="none" stroke="#000000" points="245,-389.2 245,-412.2 507,-412.2 507,-389.2 245,-389.2"/>
<text text-anchor="start" x="250" y="-397.8" font-family="Helvetica,sans-Serif" font-weight="bold" font-size="11.00" fill="#000000">simm_calculations</text>
<text text-anchor="start" x="472.0437" y="-397.3" font-family="Helvetica,sans-Serif" font-size="11.00" fill="#000000">[table]</text>
<polygon fill="none" stroke="#000000" points="245,-367.2 245,-389.2 417,-389.2 417,-367.2 245,-367.2"/>
<image xlink:href="../../images/primaryKeys.png" width="11px" height="12px" preserveAspectRatio="xMinYMin meet" x="250" y="-384.2"/>
<text text-anchor="start" x="265" y="-374.3" font-family="Helvetica,sans-Serif" font-size="11.00" fill="#000000">id</text>
<polygon fill="none" stroke="#000000" points="417,-367.2 417,-389.2 507,-389.2 507,-367.2 417,-367.2"/>
<text text-anchor="start" x="420" y="-374.9" font-family="Helvetica,sans-Serif" font-size="11.00" fill="#000000">bigserial[19]</text>
<polygon fill="#ffffff" stroke="transparent" points="245,-345.2 245,-367.2 417,-367.2 417,-345.2 245,-345.2"/>
<polygon fill="none" stroke="#000000" points="245,-345.2 245,-367.2 417,-367.2 417,-345.2 245,-345.2"/>
<text text-anchor="start" x="265" y="-352.3" font-family="Helvetica,sans-Serif" font-size="11.00" fill="#000000">calculation_id</text>
<polygon fill="none" stroke="#000000" points="417,-345.2 417,-367.2 507,-367.2 507,-345.2 417,-345.2"/>
<text text-anchor="start" x="420" y="-352.9" font-family="Helvetica,sans-Serif" font-size="11.00" fill="#000000">varchar[100]</text>
<polygon fill="#ffffff" stroke="transparent" points="245,-323.2 245,-345.2 417,-345.2 417,-323.2 245,-323.2"/>
<polygon fill="none" stroke="#000000" points="245,-323.2 245,-345.2 417,-345.2 417,-323.2 245,-323.2"/>
<image xlink:href="../../images/foreignKeys.png" width="11px" height="12px" preserveAspectRatio="xMinYMin meet" x="250" y="-340.2"/>
<text text-anchor="start" x="265" y="-330.3" font-family="Helvetica,sans-Serif" font-size="11.00" fill="#000000">upload_id</text>
<polygon fill="none" stroke="#000000" points="417,-323.2 417,-345.2 507,-345.2 507,-323.2 417,-323.2"/>
<text text-anchor="start" x="420" y="-330.9" font-family="Helvetica,sans-Serif" font-size="11.00" fill="#000000">int8[19]</text>
<polygon fill="none" stroke="#000000" points="245,-301.2 245,-323.2 417,-323.2 417,-301.2 245,-301.2"/>
<image xlink:href="../../images/foreignKeys.png" width="11px" height="12px" preserveAspectRatio="xMinYMin meet" x="250" y="-318.2"/>
<text text-anchor="start" x="265" y="-308.3" font-family="Helvetica,sans-Serif" font-size="11.00" fill="#000000">parameter_set_id</text>
<polygon fill="none" stroke="#000000" points="417,-301.2 417,-323.2 507,-323.2 507,-301.2 417,-301.2"/>
<text text-anchor="start" x="420" y="-308.9" font-family="Helvetica,sans-Serif" font-size="11.00" fill="#000000">int8[19]</text>
<polygon fill="#ffffff" stroke="transparent" points="245,-279.2 245,-301.2 417,-301.2 417,-279.2 245,-279.2"/>
<polygon fill="none" stroke="#000000" points="245,-279.2 245,-301.2 417,-301.2 417,-279.2 245,-279.2"/>
<text text-anchor="start" x="265" y="-286.3" font-family="Helvetica,sans-Serif" font-size="11.00" fill="#000000">portfolio_id</text>
<polygon fill="none" stroke="#000000" points="417,-279.2 417,-301.2 507,-301.2 507,-279.2 417,-279.2"/>
<text text-anchor="start" x="420" y="-286.9" font-family="Helvetica,sans-Serif" font-size="11.00" fill="#000000">varchar[100]</text>
<polygon fill="#ffffff" stroke="transparent" points="245,-257.2 245,-279.2 417,-279.2 417,-257.2 245,-257.2"/>
<polygon fill="none" stroke="#000000" points="245,-257.2 245,-279.2 417,-279.2 417,-257.2 245,-257.2"/>
<text text-anchor="start" x="265" y="-264.3" font-family="Helvetica,sans-Serif" font-size="11.00" fill="#000000">calculation_date</text>
<polygon fill="none" stroke="#000000" points="417,-257.2 417,-279.2 507,-279.2 507,-257.2 417,-257.2"/>
<text text-anchor="start" x="420" y="-264.9" font-family="Helvetica,sans-Serif" font-size="11.00" fill="#000000">date[13]</text>
<polygon fill="none" stroke="#000000" points="245,-235.2 245,-257.2 417,-257.2 417,-235.2 245,-235.2"/>
<text text-anchor="start" x="265" y="-242.3" font-family="Helvetica,sans-Serif" font-size="11.00" fill="#000000">reporting_currency</text>
<polygon fill="none" stroke="#000000" points="417,-235.2 417,-257.2 507,-257.2 507,-235.2 417,-235.2"/>
<text text-anchor="start" x="420" y="-242.9" font-family="Helvetica,sans-Serif" font-size="11.00" fill="#000000">varchar[3]</text>
<polygon fill="#ffffff" stroke="transparent" points="245,-213.2 245,-235.2 417,-235.2 417,-213.2 245,-213.2"/>
<polygon fill="none" stroke="#000000" points="245,-213.2 245,-235.2 417,-235.2 417,-213.2 245,-213.2"/>
<text text-anchor="start" x="265" y="-220.3" font-family="Helvetica,sans-Serif" font-size="11.00" fill="#000000">calculation_status</text>
<polygon fill="none" stroke="#000000" points="417,-213.2 417,-235.2 507,-235.2 507,-213.2 417,-213.2"/>
<text text-anchor="start" x="420" y="-220.9" font-family="Helvetica,sans-Serif" font-size="11.00" fill="#000000">varchar[20]</text>
<polygon fill="none" stroke="#000000" points="245,-191.2 245,-213.2 417,-213.2 417,-191.2 245,-191.2"/>
<text text-anchor="start" x="265" y="-198.3" font-family="Helvetica,sans-Serif" font-size="11.00" fill="#000000">total_im</text>
<polygon fill="none" stroke="#000000" points="417,-191.2 417,-213.2 507,-213.2 507,-191.2 417,-191.2"/>
<text text-anchor="start" x="420" y="-198.9" font-family="Helvetica,sans-Serif" font-size="11.00" fill="#000000">numeric[20,8]</text>
<polygon fill="none" stroke="#000000" points="245,-169.2 245,-191.2 417,-191.2 417,-169.2 245,-169.2"/>
<text text-anchor="start" x="265" y="-176.3" font-family="Helvetica,sans-Serif" font-size="11.00" fill="#000000">total_im_usd</text>
<polygon fill="none" stroke="#000000" points="417,-169.2 417,-191.2 507,-191.2 507,-169.2 417,-169.2"/>
<text text-anchor="start" x="420" y="-176.9" font-family="Helvetica,sans-Serif" font-size="11.00" fill="#000000">numeric[20,8]</text>
<polygon fill="none" stroke="#000000" points="245,-147.2 245,-169.2 417,-169.2 417,-147.2 245,-147.2"/>
<text text-anchor="start" x="265" y="-154.3" font-family="Helvetica,sans-Serif" font-size="11.00" fill="#000000">diversification_benefit</text>
<polygon fill="none" stroke="#000000" points="417,-147.2 417,-169.2 507,-169.2 507,-147.2 417,-147.2"/>
<text text-anchor="start" x="420" y="-154.9" font-family="Helvetica,sans-Serif" font-size="11.00" fill="#000000">numeric[20,8]</text>
<polygon fill="none" stroke="#000000" points="245,-125.2 245,-147.2 417,-147.2 417,-125.2 245,-125.2"/>
<text text-anchor="start" x="265" y="-132.3" font-family="Helvetica,sans-Serif" font-size="11.00" fill="#000000">calculation_time_ms</text>
<polygon fill="none" stroke="#000000" points="417,-125.2 417,-147.2 507,-147.2 507,-125.2 417,-125.2"/>
<text text-anchor="start" x="420" y="-132.9" font-family="Helvetica,sans-Serif" font-size="11.00" fill="#000000">int8[19]</text>
<polygon fill="none" stroke="#000000" points="245,-103.2 245,-125.2 417,-125.2 417,-103.2 245,-103.2"/>
<text text-anchor="start" x="265" y="-110.3" font-family="Helvetica,sans-Serif" font-size="11.00" fill="#000000">error_message</text>
<polygon fill="none" stroke="#000000" points="417,-103.2 417,-125.2 507,-125.2 507,-103.2 417,-103.2"/>
<text text-anchor="start" x="419.5043" y="-110.9" font-family="Helvetica,sans-Serif" font-size="11.00" fill="#000000">text[2147483647]</text>
<polygon fill="#ffffff" stroke="transparent" points="245,-81.2 245,-103.2 417,-103.2 417,-81.2 245,-81.2"/>
<polygon fill="none" stroke="#000000" points="245,-81.2 245,-103.2 417,-103.2 417,-81.2 245,-81.2"/>
<text text-anchor="start" x="265" y="-88.3" font-family="Helvetica,sans-Serif" font-size="11.00" fill="#000000">created_at</text>
<polygon fill="none" stroke="#000000" points="417,-81.2 417,-103.2 507,-103.2 507,-81.2 417,-81.2"/>
<text text-anchor="start" x="420" y="-88.9" font-family="Helvetica,sans-Serif" font-size="11.00" fill="#000000">timestamp[29,6]</text>
<polygon fill="none" stroke="#000000" points="245,-59.2 245,-81.2 417,-81.2 417,-59.2 245,-59.2"/>
<text text-anchor="start" x="265" y="-66.3" font-family="Helvetica,sans-Serif" font-size="11.00" fill="#000000">updated_at</text>
<polygon fill="none" stroke="#000000" points="417,-59.2 417,-81.2 507,-81.2 507,-59.2 417,-59.2"/>
<text text-anchor="start" x="420" y="-66.9" font-family="Helvetica,sans-Serif" font-size="11.00" fill="#000000">timestamp[29,6]</text>
<polygon fill="#ffffff" stroke="transparent" points="245,-40.2 245,-59.2 335,-59.2 335,-40.2 245,-40.2"/>
<polygon fill="none" stroke="#000000" points="245,-40.2 245,-59.2 335,-59.2 335,-40.2 245,-40.2"/>
<text text-anchor="start" x="248" y="-46.3" font-family="Helvetica,sans-Serif" font-size="11.00" fill="#000000">&lt; 2</text>
<polygon fill="#ffffff" stroke="transparent" points="335,-40.2 335,-59.2 417,-59.2 417,-40.2 335,-40.2"/>
<polygon fill="none" stroke="#000000" points="335,-40.2 335,-59.2 417,-59.2 417,-40.2 335,-40.2"/>
<text text-anchor="start" x="407.8862" y="-46.3" font-family="Helvetica,sans-Serif" font-size="11.00" fill="#000000"> &#160;</text>
<polygon fill="#ffffff" stroke="transparent" points="417,-40.2 417,-59.2 507,-59.2 507,-40.2 417,-40.2"/>
<polygon fill="none" stroke="#000000" points="417,-40.2 417,-59.2 507,-59.2 507,-40.2 417,-40.2"/>
<text text-anchor="start" x="488.4053" y="-46.3" font-family="Helvetica,sans-Serif" font-size="11.00" fill="#000000">2 &gt;</text>
<polygon fill="none" stroke="#000000" stroke-width="2" points="244,-39.2 244,-413.2 508,-413.2 508,-39.2 244,-39.2"/>
</a>
</g>
</g>
<!-- simm_calculation_audit&#45;&gt;simm_calculations -->
<g id="edge1" class="edge">
<title>simm_calculation_audit:w&#45;&gt;simm_calculations:e</title>
<path fill="none" stroke="#000000" d="M549.3885,-448.0094C528.2982,-432.3552 542.3987,-378.2 507,-378.2"/>
<polygon fill="#000000" stroke="#000000" points="555.831,-449.9226 562.4752,-455.651 559.6655,-451.0613 563.5,-452.2 563.5,-452.2 563.5,-452.2 559.6655,-451.0613 564.5248,-448.749 555.831,-449.9226 555.831,-449.9226"/>
<ellipse fill="none" stroke="#000000" cx="552.7634" cy="-449.0116" rx="3.2" ry="3.2"/>
</g>
<!-- simm_parameter_sets -->
<g id="node4" class="node">
<title>simm_parameter_sets</title>
<g id="a_node4"><a xlink:href="../../tables/simm_parameter_sets.html" xlink:title="simm_parameter_sets" target="_top">
<polygon fill="#ffffff" stroke="transparent" points="8,-79.7 8,-250.7 194,-250.7 194,-79.7 8,-79.7"/>
<polygon fill="#f5f5f5" stroke="transparent" points="8,-227.2 8,-250.2 194,-250.2 194,-227.2 8,-227.2"/>
<polygon fill="none" stroke="#000000" points="8,-227.2 8,-250.2 194,-250.2 194,-227.2 8,-227.2"/>
<text text-anchor="start" x="13" y="-235.8" font-family="Helvetica,sans-Serif" font-weight="bold" font-size="11.00" fill="#000000">simm_parameter_sets</text>
<text text-anchor="start" x="159.5219" y="-235.3" font-family="Helvetica,sans-Serif" font-size="11.00" fill="#000000">[table]</text>
<polygon fill="none" stroke="#000000" points="8,-205.2 8,-227.2 194,-227.2 194,-205.2 8,-205.2"/>
<image xlink:href="../../images/primaryKeys.png" width="11px" height="12px" preserveAspectRatio="xMinYMin meet" x="13" y="-222.2"/>
<text text-anchor="start" x="37" y="-212.3" font-family="Helvetica,sans-Serif" font-size="11.00" fill="#000000">id</text>
<polygon fill="#ffffff" stroke="transparent" points="8,-183.2 8,-205.2 194,-205.2 194,-183.2 8,-183.2"/>
<polygon fill="none" stroke="#000000" points="8,-183.2 8,-205.2 194,-205.2 194,-183.2 8,-183.2"/>
<text text-anchor="start" x="37" y="-190.3" font-family="Helvetica,sans-Serif" font-size="11.00" fill="#000000">version_name</text>
<polygon fill="#ffffff" stroke="transparent" points="8,-161.2 8,-183.2 194,-183.2 194,-161.2 8,-161.2"/>
<polygon fill="none" stroke="#000000" points="8,-161.2 8,-183.2 194,-183.2 194,-161.2 8,-161.2"/>
<text text-anchor="start" x="37" y="-168.3" font-family="Helvetica,sans-Serif" font-size="11.00" fill="#000000">isda_version</text>
<polygon fill="#ffffff" stroke="transparent" points="8,-139.2 8,-161.2 194,-161.2 194,-139.2 8,-139.2"/>
<polygon fill="none" stroke="#000000" points="8,-139.2 8,-161.2 194,-161.2 194,-139.2 8,-139.2"/>
<text text-anchor="start" x="37" y="-146.3" font-family="Helvetica,sans-Serif" font-size="11.00" fill="#000000">effective_date</text>
<polygon fill="#ffffff" stroke="transparent" points="8,-117.2 8,-139.2 194,-139.2 194,-117.2 8,-117.2"/>
<polygon fill="none" stroke="#000000" points="8,-117.2 8,-139.2 194,-139.2 194,-117.2 8,-117.2"/>
<text text-anchor="start" x="37" y="-124.3" font-family="Helvetica,sans-Serif" font-size="11.00" fill="#000000">is_active</text>
<polygon fill="none" stroke="#000000" points="8,-98.2 8,-117.2 194,-117.2 194,-98.2 8,-98.2"/>
<text text-anchor="start" x="11" y="-104.3" font-family="Helvetica,sans-Serif" font-size="11.00" fill="#000000">...</text>
<polygon fill="#ffffff" stroke="transparent" points="8,-79.2 8,-98.2 90,-98.2 90,-79.2 8,-79.2"/>
<polygon fill="none" stroke="#000000" points="8,-79.2 8,-98.2 90,-98.2 90,-79.2 8,-79.2"/>
<text text-anchor="start" x="11" y="-85.3" font-family="Helvetica,sans-Serif" font-size="11.00" fill="#000000"> &#160;</text>
<polygon fill="#ffffff" stroke="transparent" points="90,-79.2 90,-98.2 137,-98.2 137,-79.2 90,-79.2"/>
<polygon fill="none" stroke="#000000" points="90,-79.2 90,-98.2 137,-98.2 137,-79.2 90,-79.2"/>
<text text-anchor="start" x="127.8862" y="-85.3" font-family="Helvetica,sans-Serif" font-size="11.00" fill="#000000"> &#160;</text>
<polygon fill="#ffffff" stroke="transparent" points="137,-79.2 137,-98.2 194,-98.2 194,-79.2 137,-79.2"/>
<polygon fill="none" stroke="#000000" points="137,-79.2 137,-98.2 194,-98.2 194,-79.2 137,-79.2"/>
<text text-anchor="start" x="175.4053" y="-85.3" font-family="Helvetica,sans-Serif" font-size="11.00" fill="#000000">4 &gt;</text>
</a>
</g>
</g>
<!-- simm_calculations&#45;&gt;simm_parameter_sets -->
<g id="edge3" class="edge">
<title>simm_calculations:w&#45;&gt;simm_parameter_sets:e</title>
<path fill="none" stroke="#000000" d="M230.9189,-308.075C206.6253,-289.7 236.2746,-216.2 194,-216.2"/>
<polygon fill="#000000" stroke="#000000" points="237.3226,-309.9509 243.9879,-315.6548 241.1613,-311.0755 245,-312.2 245,-312.2 245,-312.2 241.1613,-311.0755 246.0121,-308.7452 237.3226,-309.9509 237.3226,-309.9509"/>
<ellipse fill="none" stroke="#000000" cx="234.2517" cy="-309.0513" rx="3.2" ry="3.2"/>
</g>
<!-- crif_uploads -->
<g id="node5" class="node">
<title>crif_uploads</title>
<g id="a_node5"><a xlink:href="../../tables/crif_uploads.html" xlink:title="crif_uploads" target="_top">
<polygon fill="#ffffff" stroke="transparent" points="28.5,-271.7 28.5,-464.7 173.5,-464.7 173.5,-271.7 28.5,-271.7"/>
<polygon fill="#f5f5f5" stroke="transparent" points="29,-441.2 29,-464.2 174,-464.2 174,-441.2 29,-441.2"/>
<polygon fill="none" stroke="#000000" points="29,-441.2 29,-464.2 174,-464.2 174,-441.2 29,-441.2"/>
<text text-anchor="start" x="34" y="-449.8" font-family="Helvetica,sans-Serif" font-weight="bold" font-size="11.00" fill="#000000">crif_uploads</text>
<text text-anchor="start" x="139.0437" y="-449.3" font-family="Helvetica,sans-Serif" font-size="11.00" fill="#000000">[table]</text>
<polygon fill="none" stroke="#000000" points="29,-419.2 29,-441.2 174,-441.2 174,-419.2 29,-419.2"/>
<image xlink:href="../../images/primaryKeys.png" width="11px" height="12px" preserveAspectRatio="xMinYMin meet" x="34" y="-436.2"/>
<text text-anchor="start" x="49" y="-426.3" font-family="Helvetica,sans-Serif" font-size="11.00" fill="#000000">id</text>
<polygon fill="#ffffff" stroke="transparent" points="29,-397.2 29,-419.2 174,-419.2 174,-397.2 29,-397.2"/>
<polygon fill="none" stroke="#000000" points="29,-397.2 29,-419.2 174,-419.2 174,-397.2 29,-397.2"/>
<text text-anchor="start" x="49" y="-404.3" font-family="Helvetica,sans-Serif" font-size="11.00" fill="#000000">upload_id</text>
<polygon fill="#ffffff" stroke="transparent" points="29,-375.2 29,-397.2 174,-397.2 174,-375.2 29,-375.2"/>
<polygon fill="none" stroke="#000000" points="29,-375.2 29,-397.2 174,-397.2 174,-375.2 29,-375.2"/>
<text text-anchor="start" x="49" y="-382.3" font-family="Helvetica,sans-Serif" font-size="11.00" fill="#000000">portfolio_id</text>
<polygon fill="#ffffff" stroke="transparent" points="29,-353.2 29,-375.2 174,-375.2 174,-353.2 29,-353.2"/>
<polygon fill="none" stroke="#000000" points="29,-353.2 29,-375.2 174,-375.2 174,-353.2 29,-353.2"/>
<text text-anchor="start" x="49" y="-360.3" font-family="Helvetica,sans-Serif" font-size="11.00" fill="#000000">valuation_date</text>
<polygon fill="#ffffff" stroke="transparent" points="29,-331.2 29,-353.2 174,-353.2 174,-331.2 29,-331.2"/>
<polygon fill="none" stroke="#000000" points="29,-331.2 29,-353.2 174,-353.2 174,-331.2 29,-331.2"/>
<text text-anchor="start" x="49" y="-338.3" font-family="Helvetica,sans-Serif" font-size="11.00" fill="#000000">processing_status</text>
<polygon fill="#ffffff" stroke="transparent" points="29,-309.2 29,-331.2 174,-331.2 174,-309.2 29,-309.2"/>
<polygon fill="none" stroke="#000000" points="29,-309.2 29,-331.2 174,-331.2 174,-309.2 29,-309.2"/>
<text text-anchor="start" x="49" y="-316.3" font-family="Helvetica,sans-Serif" font-size="11.00" fill="#000000">created_at</text>
<polygon fill="none" stroke="#000000" points="29,-290.2 29,-309.2 174,-309.2 174,-290.2 29,-290.2"/>
<text text-anchor="start" x="32" y="-296.3" font-family="Helvetica,sans-Serif" font-size="11.00" fill="#000000">...</text>
<polygon fill="#ffffff" stroke="transparent" points="29,-271.2 29,-290.2 91,-290.2 91,-271.2 29,-271.2"/>
<polygon fill="none" stroke="#000000" points="29,-271.2 29,-290.2 91,-290.2 91,-271.2 29,-271.2"/>
<text text-anchor="start" x="32" y="-277.3" font-family="Helvetica,sans-Serif" font-size="11.00" fill="#000000"> &#160;</text>
<polygon fill="#ffffff" stroke="transparent" points="91,-271.2 91,-290.2 128,-290.2 128,-271.2 91,-271.2"/>
<polygon fill="none" stroke="#000000" points="91,-271.2 91,-290.2 128,-290.2 128,-271.2 91,-271.2"/>
<text text-anchor="start" x="118.8862" y="-277.3" font-family="Helvetica,sans-Serif" font-size="11.00" fill="#000000"> &#160;</text>
<polygon fill="#ffffff" stroke="transparent" points="128,-271.2 128,-290.2 174,-290.2 174,-271.2 128,-271.2"/>
<polygon fill="none" stroke="#000000" points="128,-271.2 128,-290.2 174,-290.2 174,-271.2 128,-271.2"/>
<text text-anchor="start" x="155.4053" y="-277.3" font-family="Helvetica,sans-Serif" font-size="11.00" fill="#000000">2 &gt;</text>
</a>
</g>
</g>
<!-- simm_calculations&#45;&gt;crif_uploads -->
<g id="edge4" class="edge">
<title>simm_calculations:w&#45;&gt;crif_uploads:e</title>
<path fill="none" stroke="#000000" d="M230.5218,-337.3941C198.5629,-354.0516 221.2636,-430.2 174,-430.2"/>
<polygon fill="#000000" stroke="#000000" points="237.1879,-335.9235 245.7756,-337.7155 241.0939,-335.0618 245,-334.2 245,-334.2 245,-334.2 241.0939,-335.0618 244.2244,-330.6845 237.1879,-335.9235 237.1879,-335.9235"/>
<ellipse fill="none" stroke="#000000" cx="234.063" cy="-336.6129" rx="3.2" ry="3.2"/>
</g>
<!-- simm_calculation_results -->
<g id="node3" class="node">
<title>simm_calculation_results</title>
<g id="a_node3"><a xlink:href="../../tables/simm_calculation_results.html" xlink:title="simm_calculation_results" target="_top">
<polygon fill="#ffffff" stroke="transparent" points="558,-211.7 558,-360.7 765,-360.7 765,-211.7 558,-211.7"/>
<polygon fill="#f5f5f5" stroke="transparent" points="558.5,-337.2 558.5,-360.2 765.5,-360.2 765.5,-337.2 558.5,-337.2"/>
<polygon fill="none" stroke="#000000" points="558.5,-337.2 558.5,-360.2 765.5,-360.2 765.5,-337.2 558.5,-337.2"/>
<text text-anchor="start" x="563.5" y="-345.8" font-family="Helvetica,sans-Serif" font-weight="bold" font-size="11.00" fill="#000000">simm_calculation_results</text>
<text text-anchor="start" x="731.0219" y="-345.3" font-family="Helvetica,sans-Serif" font-size="11.00" fill="#000000">[table]</text>
<polygon fill="none" stroke="#000000" points="558.5,-315.2 558.5,-337.2 765.5,-337.2 765.5,-315.2 558.5,-315.2"/>
<image xlink:href="../../images/primaryKeys.png" width="11px" height="12px" preserveAspectRatio="xMinYMin meet" x="563.5" y="-332.2"/>
<text text-anchor="start" x="587.5" y="-322.3" font-family="Helvetica,sans-Serif" font-size="11.00" fill="#000000">id</text>
<polygon fill="#ffffff" stroke="transparent" points="558.5,-293.2 558.5,-315.2 765.5,-315.2 765.5,-293.2 558.5,-293.2"/>
<polygon fill="none" stroke="#000000" points="558.5,-293.2 558.5,-315.2 765.5,-315.2 765.5,-293.2 558.5,-293.2"/>
<image xlink:href="../../images/foreignKeys.png" width="11px" height="12px" preserveAspectRatio="xMinYMin meet" x="563.5" y="-310.2"/>
<text text-anchor="start" x="587.5" y="-300.3" font-family="Helvetica,sans-Serif" font-size="11.00" fill="#000000">calculation_id</text>
<polygon fill="#ffffff" stroke="transparent" points="558.5,-271.2 558.5,-293.2 765.5,-293.2 765.5,-271.2 558.5,-271.2"/>
<polygon fill="none" stroke="#000000" points="558.5,-271.2 558.5,-293.2 765.5,-293.2 765.5,-271.2 558.5,-271.2"/>
<text text-anchor="start" x="587.5" y="-278.3" font-family="Helvetica,sans-Serif" font-size="11.00" fill="#000000">risk_class</text>
<polygon fill="#ffffff" stroke="transparent" points="558.5,-249.2 558.5,-271.2 765.5,-271.2 765.5,-249.2 558.5,-249.2"/>
<polygon fill="none" stroke="#000000" points="558.5,-249.2 558.5,-271.2 765.5,-271.2 765.5,-249.2 558.5,-249.2"/>
<text text-anchor="start" x="587.5" y="-256.3" font-family="Helvetica,sans-Serif" font-size="11.00" fill="#000000">bucket</text>
<polygon fill="none" stroke="#000000" points="558.5,-230.2 558.5,-249.2 765.5,-249.2 765.5,-230.2 558.5,-230.2"/>
<text text-anchor="start" x="561.5" y="-236.3" font-family="Helvetica,sans-Serif" font-size="11.00" fill="#000000">...</text>
<polygon fill="#ffffff" stroke="transparent" points="558.5,-211.2 558.5,-230.2 660.5,-230.2 660.5,-211.2 558.5,-211.2"/>
<polygon fill="none" stroke="#000000" points="558.5,-211.2 558.5,-230.2 660.5,-230.2 660.5,-211.2 558.5,-211.2"/>
<text text-anchor="start" x="561.5" y="-217.3" font-family="Helvetica,sans-Serif" font-size="11.00" fill="#000000">&lt; 1</text>
<polygon fill="#ffffff" stroke="transparent" points="660.5,-211.2 660.5,-230.2 712.5,-230.2 712.5,-211.2 660.5,-211.2"/>
<polygon fill="none" stroke="#000000" points="660.5,-211.2 660.5,-230.2 712.5,-230.2 712.5,-211.2 660.5,-211.2"/>
<text text-anchor="start" x="703.3862" y="-217.3" font-family="Helvetica,sans-Serif" font-size="11.00" fill="#000000"> &#160;</text>
<polygon fill="#ffffff" stroke="transparent" points="712.5,-211.2 712.5,-230.2 765.5,-230.2 765.5,-211.2 712.5,-211.2"/>
<polygon fill="none" stroke="#000000" points="712.5,-211.2 712.5,-230.2 765.5,-230.2 765.5,-211.2 712.5,-211.2"/>
<text text-anchor="start" x="756.3862" y="-217.3" font-family="Helvetica,sans-Serif" font-size="11.00" fill="#000000"> &#160;</text>
</a>
</g>
</g>
<!-- simm_calculation_results&#45;&gt;simm_calculations -->
<g id="edge2" class="edge">
<title>simm_calculation_results:w&#45;&gt;simm_calculations:e</title>
<path fill="none" stroke="#000000" d="M544.7488,-308.6074C525.4187,-324.5383 541.1218,-378.2 507,-378.2"/>
<polygon fill="#000000" stroke="#000000" points="550.8817,-306.6418 559.5988,-307.6282 554.6909,-305.4209 558.5,-304.2 558.5,-304.2 558.5,-304.2 554.6909,-305.4209 557.4012,-300.7718 550.8817,-306.6418 550.8817,-306.6418"/>
<ellipse fill="none" stroke="#000000" cx="547.8344" cy="-307.6185" rx="3.2" ry="3.2"/>
</g>
</g>
</svg>
