<?xml version="1.0" encoding="UTF-8" standalone="no"?>
<!DOCTYPE svg PUBLIC "-//W3C//DTD SVG 1.1//EN"
 "http://www.w3.org/Graphics/SVG/1.1/DTD/svg11.dtd">
<!-- Generated by graphviz version 2.40.1 (20161225.0304)
 -->
<!-- Title: twoDegreesRelationshipsDiagram Pages: 1 -->
<svg width="752pt" height="432pt"
 viewBox="0.00 0.00 752.00 431.70" xmlns="http://www.w3.org/2000/svg" xmlns:xlink="http://www.w3.org/1999/xlink">
<g id="graph0" class="graph" transform="scale(1 1) rotate(0) translate(4 427.7)">
<title>twoDegreesRelationshipsDiagram</title>
<polygon fill="#ffffff" stroke="transparent" points="-4,4 -4,-427.7 748,-427.7 748,4 -4,4"/>
<text text-anchor="middle" x="72.4936" y="-7.3" font-family="Helvetica,sans-Serif" font-size="11.00" fill="#000000">Generated by SchemaSpy</text>
<!-- simm_calculation_audit -->
<g id="node1" class="node">
<title>simm_calculation_audit</title>
<g id="a_node1"><a xlink:href="../../tables/simm_calculation_audit.html" xlink:title="simm_calculation_audit" target="_top">
<polygon fill="#ffffff" stroke="transparent" points="464,-175.7 464,-419.7 736,-419.7 736,-175.7 464,-175.7"/>
<polygon fill="#f5f5f5" stroke="transparent" points="466,-394.7 466,-417.7 734,-417.7 734,-394.7 466,-394.7"/>
<polygon fill="none" stroke="#000000" points="466,-394.7 466,-417.7 734,-417.7 734,-394.7 466,-394.7"/>
<text text-anchor="start" x="471" y="-403.3" font-family="Helvetica,sans-Serif" font-weight="bold" font-size="11.00" fill="#000000">simm_calculation_audit</text>
<text text-anchor="start" x="699.0437" y="-402.8" font-family="Helvetica,sans-Serif" font-size="11.00" fill="#000000">[table]</text>
<polygon fill="none" stroke="#000000" points="466,-372.7 466,-394.7 644,-394.7 644,-372.7 466,-372.7"/>
<image xlink:href="../../images/primaryKeys.png" width="11px" height="12px" preserveAspectRatio="xMinYMin meet" x="471" y="-389.7"/>
<text text-anchor="start" x="486" y="-379.8" font-family="Helvetica,sans-Serif" font-size="11.00" fill="#000000">id</text>
<polygon fill="none" stroke="#000000" points="644,-372.7 644,-394.7 734,-394.7 734,-372.7 644,-372.7"/>
<text text-anchor="start" x="647" y="-380.4" font-family="Helvetica,sans-Serif" font-size="11.00" fill="#000000">bigserial[19]</text>
<polygon fill="#ffffff" stroke="transparent" points="466,-350.7 466,-372.7 644,-372.7 644,-350.7 466,-350.7"/>
<polygon fill="none" stroke="#000000" points="466,-350.7 466,-372.7 644,-372.7 644,-350.7 466,-350.7"/>
<image xlink:href="../../images/foreignKeys.png" width="11px" height="12px" preserveAspectRatio="xMinYMin meet" x="471" y="-367.7"/>
<text text-anchor="start" x="486" y="-357.8" font-family="Helvetica,sans-Serif" font-size="11.00" fill="#000000">calculation_id</text>
<polygon fill="none" stroke="#000000" points="644,-350.7 644,-372.7 734,-372.7 734,-350.7 644,-350.7"/>
<text text-anchor="start" x="647" y="-358.4" font-family="Helvetica,sans-Serif" font-size="11.00" fill="#000000">int8[19]</text>
<polygon fill="none" stroke="#000000" points="466,-328.7 466,-350.7 644,-350.7 644,-328.7 466,-328.7"/>
<text text-anchor="start" x="486" y="-335.8" font-family="Helvetica,sans-Serif" font-size="11.00" fill="#000000">step_name</text>
<polygon fill="none" stroke="#000000" points="644,-328.7 644,-350.7 734,-350.7 734,-328.7 644,-328.7"/>
<text text-anchor="start" x="647" y="-336.4" font-family="Helvetica,sans-Serif" font-size="11.00" fill="#000000">varchar[100]</text>
<polygon fill="#ffffff" stroke="transparent" points="466,-306.7 466,-328.7 644,-328.7 644,-306.7 466,-306.7"/>
<polygon fill="none" stroke="#000000" points="466,-306.7 466,-328.7 644,-328.7 644,-306.7 466,-306.7"/>
<text text-anchor="start" x="486" y="-313.8" font-family="Helvetica,sans-Serif" font-size="11.00" fill="#000000">step_order</text>
<polygon fill="none" stroke="#000000" points="644,-306.7 644,-328.7 734,-328.7 734,-306.7 644,-306.7"/>
<text text-anchor="start" x="647" y="-314.4" font-family="Helvetica,sans-Serif" font-size="11.00" fill="#000000">int4[10]</text>
<polygon fill="none" stroke="#000000" points="466,-284.7 466,-306.7 644,-306.7 644,-284.7 466,-284.7"/>
<text text-anchor="start" x="486" y="-291.8" font-family="Helvetica,sans-Serif" font-size="11.00" fill="#000000">input_data</text>
<polygon fill="none" stroke="#000000" points="644,-284.7 644,-306.7 734,-306.7 734,-284.7 644,-284.7"/>
<text text-anchor="start" x="646.5043" y="-292.4" font-family="Helvetica,sans-Serif" font-size="11.00" fill="#000000">text[2147483647]</text>
<polygon fill="none" stroke="#000000" points="466,-262.7 466,-284.7 644,-284.7 644,-262.7 466,-262.7"/>
<text text-anchor="start" x="486" y="-269.8" font-family="Helvetica,sans-Serif" font-size="11.00" fill="#000000">output_data</text>
<polygon fill="none" stroke="#000000" points="644,-262.7 644,-284.7 734,-284.7 734,-262.7 644,-262.7"/>
<text text-anchor="start" x="646.5043" y="-270.4" font-family="Helvetica,sans-Serif" font-size="11.00" fill="#000000">text[2147483647]</text>
<polygon fill="none" stroke="#000000" points="466,-240.7 466,-262.7 644,-262.7 644,-240.7 466,-240.7"/>
<text text-anchor="start" x="486" y="-247.8" font-family="Helvetica,sans-Serif" font-size="11.00" fill="#000000">calculation_details</text>
<polygon fill="none" stroke="#000000" points="644,-240.7 644,-262.7 734,-262.7 734,-240.7 644,-240.7"/>
<text text-anchor="start" x="646.5043" y="-248.4" font-family="Helvetica,sans-Serif" font-size="11.00" fill="#000000">text[2147483647]</text>
<polygon fill="none" stroke="#000000" points="466,-218.7 466,-240.7 644,-240.7 644,-218.7 466,-218.7"/>
<text text-anchor="start" x="486" y="-225.8" font-family="Helvetica,sans-Serif" font-size="11.00" fill="#000000">processing_time_ms</text>
<polygon fill="none" stroke="#000000" points="644,-218.7 644,-240.7 734,-240.7 734,-218.7 644,-218.7"/>
<text text-anchor="start" x="647" y="-226.4" font-family="Helvetica,sans-Serif" font-size="11.00" fill="#000000">int8[19]</text>
<polygon fill="none" stroke="#000000" points="466,-196.7 466,-218.7 644,-218.7 644,-196.7 466,-196.7"/>
<text text-anchor="start" x="486" y="-203.8" font-family="Helvetica,sans-Serif" font-size="11.00" fill="#000000">created_at</text>
<polygon fill="none" stroke="#000000" points="644,-196.7 644,-218.7 734,-218.7 734,-196.7 644,-196.7"/>
<text text-anchor="start" x="647" y="-204.4" font-family="Helvetica,sans-Serif" font-size="11.00" fill="#000000">timestamp[29,6]</text>
<polygon fill="#ffffff" stroke="transparent" points="466,-177.7 466,-196.7 559,-196.7 559,-177.7 466,-177.7"/>
<polygon fill="none" stroke="#000000" points="466,-177.7 466,-196.7 559,-196.7 559,-177.7 466,-177.7"/>
<text text-anchor="start" x="469" y="-183.8" font-family="Helvetica,sans-Serif" font-size="11.00" fill="#000000">&lt; 1</text>
<polygon fill="#ffffff" stroke="transparent" points="559,-177.7 559,-196.7 644,-196.7 644,-177.7 559,-177.7"/>
<polygon fill="none" stroke="#000000" points="559,-177.7 559,-196.7 644,-196.7 644,-177.7 559,-177.7"/>
<text text-anchor="start" x="634.8862" y="-183.8" font-family="Helvetica,sans-Serif" font-size="11.00" fill="#000000"> &#160;</text>
<polygon fill="#ffffff" stroke="transparent" points="644,-177.7 644,-196.7 734,-196.7 734,-177.7 644,-177.7"/>
<polygon fill="none" stroke="#000000" points="644,-177.7 644,-196.7 734,-196.7 734,-177.7 644,-177.7"/>
<text text-anchor="start" x="715.4053" y="-183.8" font-family="Helvetica,sans-Serif" font-size="11.00" fill="#000000">0 &gt;</text>
<polygon fill="none" stroke="#000000" stroke-width="2" points="465,-176.7 465,-418.7 735,-418.7 735,-176.7 465,-176.7"/>
</a>
</g>
</g>
<!-- simm_calculations -->
<g id="node2" class="node">
<title>simm_calculations</title>
<g id="a_node2"><a xlink:href="../../tables/simm_calculations.html" xlink:title="simm_calculations" target="_top">
<polygon fill="#ffffff" stroke="transparent" points="243,-38.2 243,-275.2 415,-275.2 415,-38.2 243,-38.2"/>
<polygon fill="#f5f5f5" stroke="transparent" points="243,-251.7 243,-274.7 415,-274.7 415,-251.7 243,-251.7"/>
<polygon fill="none" stroke="#000000" points="243,-251.7 243,-274.7 415,-274.7 415,-251.7 243,-251.7"/>
<text text-anchor="start" x="248" y="-260.3" font-family="Helvetica,sans-Serif" font-weight="bold" font-size="11.00" fill="#000000">simm_calculations</text>
<text text-anchor="start" x="380.0437" y="-259.8" font-family="Helvetica,sans-Serif" font-size="11.00" fill="#000000">[table]</text>
<polygon fill="none" stroke="#000000" points="243,-229.7 243,-251.7 415,-251.7 415,-229.7 243,-229.7"/>
<image xlink:href="../../images/primaryKeys.png" width="11px" height="12px" preserveAspectRatio="xMinYMin meet" x="248" y="-246.7"/>
<text text-anchor="start" x="263" y="-236.8" font-family="Helvetica,sans-Serif" font-size="11.00" fill="#000000">id</text>
<polygon fill="#ffffff" stroke="transparent" points="243,-207.7 243,-229.7 415,-229.7 415,-207.7 243,-207.7"/>
<polygon fill="none" stroke="#000000" points="243,-207.7 243,-229.7 415,-229.7 415,-207.7 243,-207.7"/>
<text text-anchor="start" x="263" y="-214.8" font-family="Helvetica,sans-Serif" font-size="11.00" fill="#000000">calculation_id</text>
<polygon fill="#ffffff" stroke="transparent" points="243,-185.7 243,-207.7 415,-207.7 415,-185.7 243,-185.7"/>
<polygon fill="none" stroke="#000000" points="243,-185.7 243,-207.7 415,-207.7 415,-185.7 243,-185.7"/>
<image xlink:href="../../images/foreignKeys.png" width="11px" height="12px" preserveAspectRatio="xMinYMin meet" x="248" y="-202.7"/>
<text text-anchor="start" x="263" y="-192.8" font-family="Helvetica,sans-Serif" font-size="11.00" fill="#000000">upload_id</text>
<polygon fill="none" stroke="#000000" points="243,-163.7 243,-185.7 415,-185.7 415,-163.7 243,-163.7"/>
<image xlink:href="../../images/foreignKeys.png" width="11px" height="12px" preserveAspectRatio="xMinYMin meet" x="248" y="-180.7"/>
<text text-anchor="start" x="263" y="-170.8" font-family="Helvetica,sans-Serif" font-size="11.00" fill="#000000">parameter_set_id</text>
<polygon fill="#ffffff" stroke="transparent" points="243,-141.7 243,-163.7 415,-163.7 415,-141.7 243,-141.7"/>
<polygon fill="none" stroke="#000000" points="243,-141.7 243,-163.7 415,-163.7 415,-141.7 243,-141.7"/>
<text text-anchor="start" x="263" y="-148.8" font-family="Helvetica,sans-Serif" font-size="11.00" fill="#000000">portfolio_id</text>
<polygon fill="#ffffff" stroke="transparent" points="243,-119.7 243,-141.7 415,-141.7 415,-119.7 243,-119.7"/>
<polygon fill="none" stroke="#000000" points="243,-119.7 243,-141.7 415,-141.7 415,-119.7 243,-119.7"/>
<text text-anchor="start" x="263" y="-126.8" font-family="Helvetica,sans-Serif" font-size="11.00" fill="#000000">calculation_date</text>
<polygon fill="#ffffff" stroke="transparent" points="243,-97.7 243,-119.7 415,-119.7 415,-97.7 243,-97.7"/>
<polygon fill="none" stroke="#000000" points="243,-97.7 243,-119.7 415,-119.7 415,-97.7 243,-97.7"/>
<text text-anchor="start" x="263" y="-104.8" font-family="Helvetica,sans-Serif" font-size="11.00" fill="#000000">calculation_status</text>
<polygon fill="#ffffff" stroke="transparent" points="243,-75.7 243,-97.7 415,-97.7 415,-75.7 243,-75.7"/>
<polygon fill="none" stroke="#000000" points="243,-75.7 243,-97.7 415,-97.7 415,-75.7 243,-75.7"/>
<text text-anchor="start" x="263" y="-82.8" font-family="Helvetica,sans-Serif" font-size="11.00" fill="#000000">created_at</text>
<polygon fill="none" stroke="#000000" points="243,-56.7 243,-75.7 415,-75.7 415,-56.7 243,-56.7"/>
<text text-anchor="start" x="246" y="-62.8" font-family="Helvetica,sans-Serif" font-size="11.00" fill="#000000">...</text>
<polygon fill="#ffffff" stroke="transparent" points="243,-37.7 243,-56.7 323,-56.7 323,-37.7 243,-37.7"/>
<polygon fill="none" stroke="#000000" points="243,-37.7 243,-56.7 323,-56.7 323,-37.7 243,-37.7"/>
<text text-anchor="start" x="246" y="-43.8" font-family="Helvetica,sans-Serif" font-size="11.00" fill="#000000">&lt; 2</text>
<polygon fill="#ffffff" stroke="transparent" points="323,-37.7 323,-56.7 364,-56.7 364,-37.7 323,-37.7"/>
<polygon fill="none" stroke="#000000" points="323,-37.7 323,-56.7 364,-56.7 364,-37.7 323,-37.7"/>
<text text-anchor="start" x="354.8862" y="-43.8" font-family="Helvetica,sans-Serif" font-size="11.00" fill="#000000"> &#160;</text>
<polygon fill="#ffffff" stroke="transparent" points="364,-37.7 364,-56.7 415,-56.7 415,-37.7 364,-37.7"/>
<polygon fill="none" stroke="#000000" points="364,-37.7 364,-56.7 415,-56.7 415,-37.7 364,-37.7"/>
<text text-anchor="start" x="396.4053" y="-43.8" font-family="Helvetica,sans-Serif" font-size="11.00" fill="#000000">2 &gt;</text>
</a>
</g>
</g>
<!-- simm_calculation_audit&#45;&gt;simm_calculations -->
<g id="edge1" class="edge">
<title>simm_calculation_audit:w&#45;&gt;simm_calculations:e</title>
<path fill="none" stroke="#000000" d="M451.7982,-358.2092C419.7098,-338.37 467.4323,-240.7 415,-240.7"/>
<polygon fill="#000000" stroke="#000000" points="458.2312,-359.7904 465.1407,-365.1959 462.1156,-360.7452 466,-361.7 466,-361.7 466,-361.7 462.1156,-360.7452 466.8593,-358.2041 458.2312,-359.7904 458.2312,-359.7904"/>
<ellipse fill="none" stroke="#000000" cx="455.1237" cy="-359.0266" rx="3.2" ry="3.2"/>
</g>
<!-- simm_parameter_sets -->
<g id="node4" class="node">
<title>simm_parameter_sets</title>
<g id="a_node4"><a xlink:href="../../tables/simm_parameter_sets.html" xlink:title="simm_parameter_sets" target="_top">
<polygon fill="#ffffff" stroke="transparent" points="8,-117.2 8,-178.2 194,-178.2 194,-117.2 8,-117.2"/>
<polygon fill="#f5f5f5" stroke="transparent" points="8,-154.7 8,-177.7 194,-177.7 194,-154.7 8,-154.7"/>
<polygon fill="none" stroke="#000000" points="8,-154.7 8,-177.7 194,-177.7 194,-154.7 8,-154.7"/>
<text text-anchor="start" x="13" y="-163.3" font-family="Helvetica,sans-Serif" font-weight="bold" font-size="11.00" fill="#000000">simm_parameter_sets</text>
<text text-anchor="start" x="159.5219" y="-162.8" font-family="Helvetica,sans-Serif" font-size="11.00" fill="#000000">[table]</text>
<polygon fill="none" stroke="#000000" points="8,-135.7 8,-154.7 194,-154.7 194,-135.7 8,-135.7"/>
<text text-anchor="start" x="11" y="-141.8" font-family="Helvetica,sans-Serif" font-size="11.00" fill="#000000">...</text>
<polygon fill="#ffffff" stroke="transparent" points="8,-116.7 8,-135.7 90,-135.7 90,-116.7 8,-116.7"/>
<polygon fill="none" stroke="#000000" points="8,-116.7 8,-135.7 90,-135.7 90,-116.7 8,-116.7"/>
<text text-anchor="start" x="11" y="-122.8" font-family="Helvetica,sans-Serif" font-size="11.00" fill="#000000"> &#160;</text>
<polygon fill="#ffffff" stroke="transparent" points="90,-116.7 90,-135.7 137,-135.7 137,-116.7 90,-116.7"/>
<polygon fill="none" stroke="#000000" points="90,-116.7 90,-135.7 137,-135.7 137,-116.7 90,-116.7"/>
<text text-anchor="start" x="127.8862" y="-122.8" font-family="Helvetica,sans-Serif" font-size="11.00" fill="#000000"> &#160;</text>
<polygon fill="#ffffff" stroke="transparent" points="137,-116.7 137,-135.7 194,-135.7 194,-116.7 137,-116.7"/>
<polygon fill="none" stroke="#000000" points="137,-116.7 137,-135.7 194,-135.7 194,-116.7 137,-116.7"/>
<text text-anchor="start" x="175.4053" y="-122.8" font-family="Helvetica,sans-Serif" font-size="11.00" fill="#000000">4 &gt;</text>
</a>
</g>
</g>
<!-- simm_calculations&#45;&gt;simm_parameter_sets -->
<g id="edge3" class="edge">
<title>simm_calculations:w&#45;&gt;simm_parameter_sets:e</title>
<path fill="none" stroke="#000000" d="M228.884,-170.5286C216.9189,-162.2854 213.5504,-144.7 194,-144.7"/>
<polygon fill="#000000" stroke="#000000" points="235.328,-172.4328 241.9798,-178.1524 239.164,-173.5664 243,-174.7 243,-174.7 243,-174.7 239.164,-173.5664 244.0202,-171.2476 235.328,-172.4328 235.328,-172.4328"/>
<ellipse fill="none" stroke="#000000" cx="232.2591" cy="-171.526" rx="3.2" ry="3.2"/>
</g>
<!-- crif_uploads -->
<g id="node5" class="node">
<title>crif_uploads</title>
<g id="a_node5"><a xlink:href="../../tables/crif_uploads.html" xlink:title="crif_uploads" target="_top">
<polygon fill="#ffffff" stroke="transparent" points="41,-199.2 41,-260.2 161,-260.2 161,-199.2 41,-199.2"/>
<polygon fill="#f5f5f5" stroke="transparent" points="41,-236.7 41,-259.7 161,-259.7 161,-236.7 41,-236.7"/>
<polygon fill="none" stroke="#000000" points="41,-236.7 41,-259.7 161,-259.7 161,-236.7 41,-236.7"/>
<text text-anchor="start" x="46" y="-245.3" font-family="Helvetica,sans-Serif" font-weight="bold" font-size="11.00" fill="#000000">crif_uploads</text>
<text text-anchor="start" x="126.5219" y="-244.8" font-family="Helvetica,sans-Serif" font-size="11.00" fill="#000000">[table]</text>
<polygon fill="none" stroke="#000000" points="41,-217.7 41,-236.7 161,-236.7 161,-217.7 41,-217.7"/>
<text text-anchor="start" x="44" y="-223.8" font-family="Helvetica,sans-Serif" font-size="11.00" fill="#000000">...</text>
<polygon fill="#ffffff" stroke="transparent" points="41,-198.7 41,-217.7 90,-217.7 90,-198.7 41,-198.7"/>
<polygon fill="none" stroke="#000000" points="41,-198.7 41,-217.7 90,-217.7 90,-198.7 41,-198.7"/>
<text text-anchor="start" x="44" y="-204.8" font-family="Helvetica,sans-Serif" font-size="11.00" fill="#000000"> &#160;</text>
<polygon fill="#ffffff" stroke="transparent" points="90,-198.7 90,-217.7 121,-217.7 121,-198.7 90,-198.7"/>
<polygon fill="none" stroke="#000000" points="90,-198.7 90,-217.7 121,-217.7 121,-198.7 90,-198.7"/>
<text text-anchor="start" x="111.8862" y="-204.8" font-family="Helvetica,sans-Serif" font-size="11.00" fill="#000000"> &#160;</text>
<polygon fill="#ffffff" stroke="transparent" points="121,-198.7 121,-217.7 161,-217.7 161,-198.7 121,-198.7"/>
<polygon fill="none" stroke="#000000" points="121,-198.7 121,-217.7 161,-217.7 161,-198.7 121,-198.7"/>
<text text-anchor="start" x="142.4053" y="-204.8" font-family="Helvetica,sans-Serif" font-size="11.00" fill="#000000">2 &gt;</text>
</a>
</g>
</g>
<!-- simm_calculations&#45;&gt;crif_uploads -->
<g id="edge4" class="edge">
<title>simm_calculations:w&#45;&gt;crif_uploads:e</title>
<path fill="none" stroke="#000000" d="M228.4789,-198.3129C202.2788,-204.5442 194.3497,-226.7 161,-226.7"/>
<polygon fill="#000000" stroke="#000000" points="235.0489,-197.5832 243.3974,-200.278 239.0244,-197.1416 243,-196.7 243,-196.7 243,-196.7 239.0244,-197.1416 242.6026,-193.122 235.0489,-197.5832 235.0489,-197.5832"/>
<ellipse fill="none" stroke="#000000" cx="231.8685" cy="-197.9365" rx="3.2" ry="3.2"/>
</g>
<!-- simm_calculation_results -->
<g id="node3" class="node">
<title>simm_calculation_results</title>
<g id="a_node3"><a xlink:href="../../tables/simm_calculation_results.html" xlink:title="simm_calculation_results" target="_top">
<polygon fill="#ffffff" stroke="transparent" points="496.5,-93.2 496.5,-154.2 703.5,-154.2 703.5,-93.2 496.5,-93.2"/>
<polygon fill="#f5f5f5" stroke="transparent" points="497,-130.7 497,-153.7 704,-153.7 704,-130.7 497,-130.7"/>
<polygon fill="none" stroke="#000000" points="497,-130.7 497,-153.7 704,-153.7 704,-130.7 497,-130.7"/>
<text text-anchor="start" x="502" y="-139.3" font-family="Helvetica,sans-Serif" font-weight="bold" font-size="11.00" fill="#000000">simm_calculation_results</text>
<text text-anchor="start" x="669.5219" y="-138.8" font-family="Helvetica,sans-Serif" font-size="11.00" fill="#000000">[table]</text>
<polygon fill="none" stroke="#000000" points="497,-111.7 497,-130.7 704,-130.7 704,-111.7 497,-111.7"/>
<text text-anchor="start" x="500" y="-117.8" font-family="Helvetica,sans-Serif" font-size="11.00" fill="#000000">...</text>
<polygon fill="#ffffff" stroke="transparent" points="497,-92.7 497,-111.7 599,-111.7 599,-92.7 497,-92.7"/>
<polygon fill="none" stroke="#000000" points="497,-92.7 497,-111.7 599,-111.7 599,-92.7 497,-92.7"/>
<text text-anchor="start" x="500" y="-98.8" font-family="Helvetica,sans-Serif" font-size="11.00" fill="#000000">&lt; 1</text>
<polygon fill="#ffffff" stroke="transparent" points="599,-92.7 599,-111.7 651,-111.7 651,-92.7 599,-92.7"/>
<polygon fill="none" stroke="#000000" points="599,-92.7 599,-111.7 651,-111.7 651,-92.7 599,-92.7"/>
<text text-anchor="start" x="641.8862" y="-98.8" font-family="Helvetica,sans-Serif" font-size="11.00" fill="#000000"> &#160;</text>
<polygon fill="#ffffff" stroke="transparent" points="651,-92.7 651,-111.7 704,-111.7 704,-92.7 651,-92.7"/>
<polygon fill="none" stroke="#000000" points="651,-92.7 651,-111.7 704,-111.7 704,-92.7 651,-92.7"/>
<text text-anchor="start" x="694.8862" y="-98.8" font-family="Helvetica,sans-Serif" font-size="11.00" fill="#000000"> &#160;</text>
</a>
</g>
</g>
<!-- simm_calculation_results&#45;&gt;simm_calculations -->
<g id="edge2" class="edge">
<title>simm_calculation_results:w&#45;&gt;simm_calculations:e</title>
<path fill="none" stroke="#000000" d="M482.8975,-123.7475C469.8808,-130.7054 468.2749,-148.4915 456,-165.7 433.9394,-196.6272 452.989,-240.7 415,-240.7"/>
<polygon fill="#000000" stroke="#000000" points="489.1805,-122.3898 497.7604,-124.2188 493.0902,-121.5449 497,-120.7 497,-120.7 497,-120.7 493.0902,-121.5449 496.2396,-117.1812 489.1805,-122.3898 489.1805,-122.3898"/>
<ellipse fill="none" stroke="#000000" cx="486.0527" cy="-123.0657" rx="3.2" ry="3.2"/>
</g>
</g>
</svg>
