<?xml version="1.0" encoding="UTF-8" standalone="no"?>
<!DOCTYPE svg PUBLIC "-//W3C//DTD SVG 1.1//EN"
 "http://www.w3.org/Graphics/SVG/1.1/DTD/svg11.dtd">
<!-- Generated by graphviz version 2.40.1 (20161225.0304)
 -->
<!-- Title: oneDegreeRelationshipsDiagram Pages: 1 -->
<svg width="534pt" height="841pt"
 viewBox="0.00 0.00 534.00 841.20" xmlns="http://www.w3.org/2000/svg" xmlns:xlink="http://www.w3.org/1999/xlink">
<g id="graph0" class="graph" transform="scale(1 1) rotate(0) translate(4 837.2)">
<title>oneDegreeRelationshipsDiagram</title>
<polygon fill="#ffffff" stroke="transparent" points="-4,4 -4,-837.2 530,-837.2 530,4 -4,4"/>
<text text-anchor="middle" x="72.4936" y="-7.3" font-family="Helvetica,sans-Serif" font-size="11.00" fill="#000000">Generated by SchemaSpy</text>
<!-- simm_bucket_mappings -->
<g id="node1" class="node">
<title>simm_bucket_mappings</title>
<g id="a_node1"><a xlink:href="../../tables/simm_bucket_mappings.html" xlink:title="simm_bucket_mappings" target="_top">
<polygon fill="#ffffff" stroke="transparent" points="319,-680.2 319,-829.2 518,-829.2 518,-680.2 319,-680.2"/>
<polygon fill="#f5f5f5" stroke="transparent" points="319.5,-805.7 319.5,-828.7 518.5,-828.7 518.5,-805.7 319.5,-805.7"/>
<polygon fill="none" stroke="#000000" points="319.5,-805.7 319.5,-828.7 518.5,-828.7 518.5,-805.7 319.5,-805.7"/>
<text text-anchor="start" x="324.5" y="-814.3" font-family="Helvetica,sans-Serif" font-weight="bold" font-size="11.00" fill="#000000">simm_bucket_mappings</text>
<text text-anchor="start" x="484.0219" y="-813.8" font-family="Helvetica,sans-Serif" font-size="11.00" fill="#000000">[table]</text>
<polygon fill="none" stroke="#000000" points="319.5,-783.7 319.5,-805.7 518.5,-805.7 518.5,-783.7 319.5,-783.7"/>
<image xlink:href="../../images/primaryKeys.png" width="11px" height="12px" preserveAspectRatio="xMinYMin meet" x="324.5" y="-800.7"/>
<text text-anchor="start" x="348.5" y="-790.8" font-family="Helvetica,sans-Serif" font-size="11.00" fill="#000000">id</text>
<polygon fill="#ffffff" stroke="transparent" points="319.5,-761.7 319.5,-783.7 518.5,-783.7 518.5,-761.7 319.5,-761.7"/>
<polygon fill="none" stroke="#000000" points="319.5,-761.7 319.5,-783.7 518.5,-783.7 518.5,-761.7 319.5,-761.7"/>
<image xlink:href="../../images/foreignKeys.png" width="11px" height="12px" preserveAspectRatio="xMinYMin meet" x="324.5" y="-778.7"/>
<text text-anchor="start" x="348.5" y="-768.8" font-family="Helvetica,sans-Serif" font-size="11.00" fill="#000000">parameter_set_id</text>
<polygon fill="#ffffff" stroke="transparent" points="319.5,-739.7 319.5,-761.7 518.5,-761.7 518.5,-739.7 319.5,-739.7"/>
<polygon fill="none" stroke="#000000" points="319.5,-739.7 319.5,-761.7 518.5,-761.7 518.5,-739.7 319.5,-739.7"/>
<text text-anchor="start" x="348.5" y="-746.8" font-family="Helvetica,sans-Serif" font-size="11.00" fill="#000000">risk_class</text>
<polygon fill="#ffffff" stroke="transparent" points="319.5,-717.7 319.5,-739.7 518.5,-739.7 518.5,-717.7 319.5,-717.7"/>
<polygon fill="none" stroke="#000000" points="319.5,-717.7 319.5,-739.7 518.5,-739.7 518.5,-717.7 319.5,-717.7"/>
<text text-anchor="start" x="348.5" y="-724.8" font-family="Helvetica,sans-Serif" font-size="11.00" fill="#000000">risk_factor</text>
<polygon fill="none" stroke="#000000" points="319.5,-698.7 319.5,-717.7 518.5,-717.7 518.5,-698.7 319.5,-698.7"/>
<text text-anchor="start" x="322.5" y="-704.8" font-family="Helvetica,sans-Serif" font-size="11.00" fill="#000000">...</text>
<polygon fill="#ffffff" stroke="transparent" points="319.5,-679.7 319.5,-698.7 417.5,-698.7 417.5,-679.7 319.5,-679.7"/>
<polygon fill="none" stroke="#000000" points="319.5,-679.7 319.5,-698.7 417.5,-698.7 417.5,-679.7 319.5,-679.7"/>
<text text-anchor="start" x="322.5" y="-685.8" font-family="Helvetica,sans-Serif" font-size="11.00" fill="#000000">&lt; 1</text>
<polygon fill="#ffffff" stroke="transparent" points="417.5,-679.7 417.5,-698.7 467.5,-698.7 467.5,-679.7 417.5,-679.7"/>
<polygon fill="none" stroke="#000000" points="417.5,-679.7 417.5,-698.7 467.5,-698.7 467.5,-679.7 417.5,-679.7"/>
<text text-anchor="start" x="458.3862" y="-685.8" font-family="Helvetica,sans-Serif" font-size="11.00" fill="#000000"> &#160;</text>
<polygon fill="#ffffff" stroke="transparent" points="467.5,-679.7 467.5,-698.7 518.5,-698.7 518.5,-679.7 467.5,-679.7"/>
<polygon fill="none" stroke="#000000" points="467.5,-679.7 467.5,-698.7 518.5,-698.7 518.5,-679.7 467.5,-679.7"/>
<text text-anchor="start" x="509.3862" y="-685.8" font-family="Helvetica,sans-Serif" font-size="11.00" fill="#000000"> &#160;</text>
</a>
</g>
</g>
<!-- simm_parameter_sets -->
<g id="node2" class="node">
<title>simm_parameter_sets</title>
<g id="a_node2"><a xlink:href="../../tables/simm_parameter_sets.html" xlink:title="simm_parameter_sets" target="_top">
<polygon fill="#ffffff" stroke="transparent" points="8,-243.7 8,-487.7 270,-487.7 270,-243.7 8,-243.7"/>
<polygon fill="#f5f5f5" stroke="transparent" points="10,-462.7 10,-485.7 268,-485.7 268,-462.7 10,-462.7"/>
<polygon fill="none" stroke="#000000" points="10,-462.7 10,-485.7 268,-485.7 268,-462.7 10,-462.7"/>
<text text-anchor="start" x="15" y="-471.3" font-family="Helvetica,sans-Serif" font-weight="bold" font-size="11.00" fill="#000000">simm_parameter_sets</text>
<text text-anchor="start" x="233.0437" y="-470.8" font-family="Helvetica,sans-Serif" font-size="11.00" fill="#000000">[table]</text>
<polygon fill="none" stroke="#000000" points="10,-440.7 10,-462.7 178,-462.7 178,-440.7 10,-440.7"/>
<image xlink:href="../../images/primaryKeys.png" width="11px" height="12px" preserveAspectRatio="xMinYMin meet" x="15" y="-457.7"/>
<text text-anchor="start" x="30" y="-447.8" font-family="Helvetica,sans-Serif" font-size="11.00" fill="#000000">id</text>
<polygon fill="none" stroke="#000000" points="178,-440.7 178,-462.7 268,-462.7 268,-440.7 178,-440.7"/>
<text text-anchor="start" x="181" y="-448.4" font-family="Helvetica,sans-Serif" font-size="11.00" fill="#000000">bigserial[19]</text>
<polygon fill="#ffffff" stroke="transparent" points="10,-418.7 10,-440.7 178,-440.7 178,-418.7 10,-418.7"/>
<polygon fill="none" stroke="#000000" points="10,-418.7 10,-440.7 178,-440.7 178,-418.7 10,-418.7"/>
<text text-anchor="start" x="30" y="-425.8" font-family="Helvetica,sans-Serif" font-size="11.00" fill="#000000">version_name</text>
<polygon fill="none" stroke="#000000" points="178,-418.7 178,-440.7 268,-440.7 268,-418.7 178,-418.7"/>
<text text-anchor="start" x="181" y="-426.4" font-family="Helvetica,sans-Serif" font-size="11.00" fill="#000000">varchar[50]</text>
<polygon fill="#ffffff" stroke="transparent" points="10,-396.7 10,-418.7 178,-418.7 178,-396.7 10,-396.7"/>
<polygon fill="none" stroke="#000000" points="10,-396.7 10,-418.7 178,-418.7 178,-396.7 10,-396.7"/>
<text text-anchor="start" x="30" y="-403.8" font-family="Helvetica,sans-Serif" font-size="11.00" fill="#000000">isda_version</text>
<polygon fill="none" stroke="#000000" points="178,-396.7 178,-418.7 268,-418.7 268,-396.7 178,-396.7"/>
<text text-anchor="start" x="181" y="-404.4" font-family="Helvetica,sans-Serif" font-size="11.00" fill="#000000">varchar[20]</text>
<polygon fill="#ffffff" stroke="transparent" points="10,-374.7 10,-396.7 178,-396.7 178,-374.7 10,-374.7"/>
<polygon fill="none" stroke="#000000" points="10,-374.7 10,-396.7 178,-396.7 178,-374.7 10,-374.7"/>
<text text-anchor="start" x="30" y="-381.8" font-family="Helvetica,sans-Serif" font-size="11.00" fill="#000000">effective_date</text>
<polygon fill="none" stroke="#000000" points="178,-374.7 178,-396.7 268,-396.7 268,-374.7 178,-374.7"/>
<text text-anchor="start" x="181" y="-382.4" font-family="Helvetica,sans-Serif" font-size="11.00" fill="#000000">date[13]</text>
<polygon fill="none" stroke="#000000" points="10,-352.7 10,-374.7 178,-374.7 178,-352.7 10,-352.7"/>
<text text-anchor="start" x="30" y="-359.8" font-family="Helvetica,sans-Serif" font-size="11.00" fill="#000000">end_date</text>
<polygon fill="none" stroke="#000000" points="178,-352.7 178,-374.7 268,-374.7 268,-352.7 178,-352.7"/>
<text text-anchor="start" x="181" y="-360.4" font-family="Helvetica,sans-Serif" font-size="11.00" fill="#000000">date[13]</text>
<polygon fill="none" stroke="#000000" points="10,-330.7 10,-352.7 178,-352.7 178,-330.7 10,-330.7"/>
<text text-anchor="start" x="30" y="-337.8" font-family="Helvetica,sans-Serif" font-size="11.00" fill="#000000">description</text>
<polygon fill="none" stroke="#000000" points="178,-330.7 178,-352.7 268,-352.7 268,-330.7 178,-330.7"/>
<text text-anchor="start" x="180.5042" y="-338.4" font-family="Helvetica,sans-Serif" font-size="11.00" fill="#000000">text[2147483647]</text>
<polygon fill="#ffffff" stroke="transparent" points="10,-308.7 10,-330.7 178,-330.7 178,-308.7 10,-308.7"/>
<polygon fill="none" stroke="#000000" points="10,-308.7 10,-330.7 178,-330.7 178,-308.7 10,-308.7"/>
<text text-anchor="start" x="30" y="-315.8" font-family="Helvetica,sans-Serif" font-size="11.00" fill="#000000">is_active</text>
<polygon fill="none" stroke="#000000" points="178,-308.7 178,-330.7 268,-330.7 268,-308.7 178,-308.7"/>
<text text-anchor="start" x="181" y="-316.4" font-family="Helvetica,sans-Serif" font-size="11.00" fill="#000000">bool[1]</text>
<polygon fill="none" stroke="#000000" points="10,-286.7 10,-308.7 178,-308.7 178,-286.7 10,-286.7"/>
<text text-anchor="start" x="30" y="-293.8" font-family="Helvetica,sans-Serif" font-size="11.00" fill="#000000">created_at</text>
<polygon fill="none" stroke="#000000" points="178,-286.7 178,-308.7 268,-308.7 268,-286.7 178,-286.7"/>
<text text-anchor="start" x="181" y="-294.4" font-family="Helvetica,sans-Serif" font-size="11.00" fill="#000000">timestamp[29,6]</text>
<polygon fill="none" stroke="#000000" points="10,-264.7 10,-286.7 178,-286.7 178,-264.7 10,-264.7"/>
<text text-anchor="start" x="30" y="-271.8" font-family="Helvetica,sans-Serif" font-size="11.00" fill="#000000">updated_at</text>
<polygon fill="none" stroke="#000000" points="178,-264.7 178,-286.7 268,-286.7 268,-264.7 178,-264.7"/>
<text text-anchor="start" x="181" y="-272.4" font-family="Helvetica,sans-Serif" font-size="11.00" fill="#000000">timestamp[29,6]</text>
<polygon fill="#ffffff" stroke="transparent" points="10,-245.7 10,-264.7 98,-264.7 98,-245.7 10,-245.7"/>
<polygon fill="none" stroke="#000000" points="10,-245.7 10,-264.7 98,-264.7 98,-245.7 10,-245.7"/>
<text text-anchor="start" x="13" y="-251.8" font-family="Helvetica,sans-Serif" font-size="11.00" fill="#000000">&lt; 0</text>
<polygon fill="#ffffff" stroke="transparent" points="98,-245.7 98,-264.7 178,-264.7 178,-245.7 98,-245.7"/>
<polygon fill="none" stroke="#000000" points="98,-245.7 98,-264.7 178,-264.7 178,-245.7 98,-245.7"/>
<text text-anchor="start" x="168.8862" y="-251.8" font-family="Helvetica,sans-Serif" font-size="11.00" fill="#000000"> &#160;</text>
<polygon fill="#ffffff" stroke="transparent" points="178,-245.7 178,-264.7 268,-264.7 268,-245.7 178,-245.7"/>
<polygon fill="none" stroke="#000000" points="178,-245.7 178,-264.7 268,-264.7 268,-245.7 178,-245.7"/>
<text text-anchor="start" x="249.4053" y="-251.8" font-family="Helvetica,sans-Serif" font-size="11.00" fill="#000000">4 &gt;</text>
<polygon fill="none" stroke="#000000" stroke-width="2" points="9,-244.7 9,-486.7 269,-486.7 269,-244.7 9,-244.7"/>
</a>
</g>
</g>
<!-- simm_bucket_mappings&#45;&gt;simm_parameter_sets -->
<g id="edge1" class="edge">
<title>simm_bucket_mappings:w&#45;&gt;simm_parameter_sets:e</title>
<path fill="none" stroke="#000000" d="M306.0095,-767.6579C260.1476,-726.8198 334.8836,-451.7 268,-451.7"/>
<polygon fill="#000000" stroke="#000000" points="312.0063,-769.8991 318.2396,-776.0722 315.7532,-771.2996 319.5,-772.7 319.5,-772.7 319.5,-772.7 315.7532,-771.2996 320.7604,-769.3278 312.0063,-769.8991 312.0063,-769.8991"/>
<ellipse fill="none" stroke="#000000" cx="309.0088" cy="-768.7788" rx="3.2" ry="3.2"/>
</g>
<!-- simm_calculations -->
<g id="node3" class="node">
<title>simm_calculations</title>
<g id="a_node3"><a xlink:href="../../tables/simm_calculations.html" xlink:title="simm_calculations" target="_top">
<polygon fill="#ffffff" stroke="transparent" points="332.5,-422.2 332.5,-659.2 504.5,-659.2 504.5,-422.2 332.5,-422.2"/>
<polygon fill="#f5f5f5" stroke="transparent" points="332.5,-635.7 332.5,-658.7 504.5,-658.7 504.5,-635.7 332.5,-635.7"/>
<polygon fill="none" stroke="#000000" points="332.5,-635.7 332.5,-658.7 504.5,-658.7 504.5,-635.7 332.5,-635.7"/>
<text text-anchor="start" x="337.5" y="-644.3" font-family="Helvetica,sans-Serif" font-weight="bold" font-size="11.00" fill="#000000">simm_calculations</text>
<text text-anchor="start" x="469.5437" y="-643.8" font-family="Helvetica,sans-Serif" font-size="11.00" fill="#000000">[table]</text>
<polygon fill="none" stroke="#000000" points="332.5,-613.7 332.5,-635.7 504.5,-635.7 504.5,-613.7 332.5,-613.7"/>
<image xlink:href="../../images/primaryKeys.png" width="11px" height="12px" preserveAspectRatio="xMinYMin meet" x="337.5" y="-630.7"/>
<text text-anchor="start" x="352.5" y="-620.8" font-family="Helvetica,sans-Serif" font-size="11.00" fill="#000000">id</text>
<polygon fill="#ffffff" stroke="transparent" points="332.5,-591.7 332.5,-613.7 504.5,-613.7 504.5,-591.7 332.5,-591.7"/>
<polygon fill="none" stroke="#000000" points="332.5,-591.7 332.5,-613.7 504.5,-613.7 504.5,-591.7 332.5,-591.7"/>
<text text-anchor="start" x="352.5" y="-598.8" font-family="Helvetica,sans-Serif" font-size="11.00" fill="#000000">calculation_id</text>
<polygon fill="#ffffff" stroke="transparent" points="332.5,-569.7 332.5,-591.7 504.5,-591.7 504.5,-569.7 332.5,-569.7"/>
<polygon fill="none" stroke="#000000" points="332.5,-569.7 332.5,-591.7 504.5,-591.7 504.5,-569.7 332.5,-569.7"/>
<image xlink:href="../../images/foreignKeys.png" width="11px" height="12px" preserveAspectRatio="xMinYMin meet" x="337.5" y="-586.7"/>
<text text-anchor="start" x="352.5" y="-576.8" font-family="Helvetica,sans-Serif" font-size="11.00" fill="#000000">upload_id</text>
<polygon fill="none" stroke="#000000" points="332.5,-547.7 332.5,-569.7 504.5,-569.7 504.5,-547.7 332.5,-547.7"/>
<image xlink:href="../../images/foreignKeys.png" width="11px" height="12px" preserveAspectRatio="xMinYMin meet" x="337.5" y="-564.7"/>
<text text-anchor="start" x="352.5" y="-554.8" font-family="Helvetica,sans-Serif" font-size="11.00" fill="#000000">parameter_set_id</text>
<polygon fill="#ffffff" stroke="transparent" points="332.5,-525.7 332.5,-547.7 504.5,-547.7 504.5,-525.7 332.5,-525.7"/>
<polygon fill="none" stroke="#000000" points="332.5,-525.7 332.5,-547.7 504.5,-547.7 504.5,-525.7 332.5,-525.7"/>
<text text-anchor="start" x="352.5" y="-532.8" font-family="Helvetica,sans-Serif" font-size="11.00" fill="#000000">portfolio_id</text>
<polygon fill="#ffffff" stroke="transparent" points="332.5,-503.7 332.5,-525.7 504.5,-525.7 504.5,-503.7 332.5,-503.7"/>
<polygon fill="none" stroke="#000000" points="332.5,-503.7 332.5,-525.7 504.5,-525.7 504.5,-503.7 332.5,-503.7"/>
<text text-anchor="start" x="352.5" y="-510.8" font-family="Helvetica,sans-Serif" font-size="11.00" fill="#000000">calculation_date</text>
<polygon fill="#ffffff" stroke="transparent" points="332.5,-481.7 332.5,-503.7 504.5,-503.7 504.5,-481.7 332.5,-481.7"/>
<polygon fill="none" stroke="#000000" points="332.5,-481.7 332.5,-503.7 504.5,-503.7 504.5,-481.7 332.5,-481.7"/>
<text text-anchor="start" x="352.5" y="-488.8" font-family="Helvetica,sans-Serif" font-size="11.00" fill="#000000">calculation_status</text>
<polygon fill="#ffffff" stroke="transparent" points="332.5,-459.7 332.5,-481.7 504.5,-481.7 504.5,-459.7 332.5,-459.7"/>
<polygon fill="none" stroke="#000000" points="332.5,-459.7 332.5,-481.7 504.5,-481.7 504.5,-459.7 332.5,-459.7"/>
<text text-anchor="start" x="352.5" y="-466.8" font-family="Helvetica,sans-Serif" font-size="11.00" fill="#000000">created_at</text>
<polygon fill="none" stroke="#000000" points="332.5,-440.7 332.5,-459.7 504.5,-459.7 504.5,-440.7 332.5,-440.7"/>
<text text-anchor="start" x="335.5" y="-446.8" font-family="Helvetica,sans-Serif" font-size="11.00" fill="#000000">...</text>
<polygon fill="#ffffff" stroke="transparent" points="332.5,-421.7 332.5,-440.7 412.5,-440.7 412.5,-421.7 332.5,-421.7"/>
<polygon fill="none" stroke="#000000" points="332.5,-421.7 332.5,-440.7 412.5,-440.7 412.5,-421.7 332.5,-421.7"/>
<text text-anchor="start" x="335.5" y="-427.8" font-family="Helvetica,sans-Serif" font-size="11.00" fill="#000000">&lt; 2</text>
<polygon fill="#ffffff" stroke="transparent" points="412.5,-421.7 412.5,-440.7 453.5,-440.7 453.5,-421.7 412.5,-421.7"/>
<polygon fill="none" stroke="#000000" points="412.5,-421.7 412.5,-440.7 453.5,-440.7 453.5,-421.7 412.5,-421.7"/>
<text text-anchor="start" x="444.3862" y="-427.8" font-family="Helvetica,sans-Serif" font-size="11.00" fill="#000000"> &#160;</text>
<polygon fill="#ffffff" stroke="transparent" points="453.5,-421.7 453.5,-440.7 504.5,-440.7 504.5,-421.7 453.5,-421.7"/>
<polygon fill="none" stroke="#000000" points="453.5,-421.7 453.5,-440.7 504.5,-440.7 504.5,-421.7 453.5,-421.7"/>
<text text-anchor="start" x="485.9053" y="-427.8" font-family="Helvetica,sans-Serif" font-size="11.00" fill="#000000">2 &gt;</text>
</a>
</g>
</g>
<!-- simm_calculations&#45;&gt;simm_parameter_sets -->
<g id="edge2" class="edge">
<title>simm_calculations:w&#45;&gt;simm_parameter_sets:e</title>
<path fill="none" stroke="#000000" d="M318.0978,-555.3804C285.6571,-537.3199 317.6711,-451.7 268,-451.7"/>
<polygon fill="#000000" stroke="#000000" points="324.7044,-556.9031 331.6914,-562.208 328.6022,-557.8016 332.5,-558.7 332.5,-558.7 332.5,-558.7 328.6022,-557.8016 333.3086,-555.192 324.7044,-556.9031 324.7044,-556.9031"/>
<ellipse fill="none" stroke="#000000" cx="321.5862" cy="-556.1844" rx="3.2" ry="3.2"/>
</g>
<!-- simm_correlations -->
<g id="node4" class="node">
<title>simm_correlations</title>
<g id="a_node4"><a xlink:href="../../tables/simm_correlations.html" xlink:title="simm_correlations" target="_top">
<polygon fill="#ffffff" stroke="transparent" points="337.5,-208.2 337.5,-401.2 499.5,-401.2 499.5,-208.2 337.5,-208.2"/>
<polygon fill="#f5f5f5" stroke="transparent" points="337.5,-377.7 337.5,-400.7 499.5,-400.7 499.5,-377.7 337.5,-377.7"/>
<polygon fill="none" stroke="#000000" points="337.5,-377.7 337.5,-400.7 499.5,-400.7 499.5,-377.7 337.5,-377.7"/>
<text text-anchor="start" x="342.5" y="-386.3" font-family="Helvetica,sans-Serif" font-weight="bold" font-size="11.00" fill="#000000">simm_correlations</text>
<text text-anchor="start" x="465.0219" y="-385.8" font-family="Helvetica,sans-Serif" font-size="11.00" fill="#000000">[table]</text>
<polygon fill="none" stroke="#000000" points="337.5,-355.7 337.5,-377.7 499.5,-377.7 499.5,-355.7 337.5,-355.7"/>
<image xlink:href="../../images/primaryKeys.png" width="11px" height="12px" preserveAspectRatio="xMinYMin meet" x="342.5" y="-372.7"/>
<text text-anchor="start" x="366.5" y="-362.8" font-family="Helvetica,sans-Serif" font-size="11.00" fill="#000000">id</text>
<polygon fill="#ffffff" stroke="transparent" points="337.5,-333.7 337.5,-355.7 499.5,-355.7 499.5,-333.7 337.5,-333.7"/>
<polygon fill="none" stroke="#000000" points="337.5,-333.7 337.5,-355.7 499.5,-355.7 499.5,-333.7 337.5,-333.7"/>
<image xlink:href="../../images/foreignKeys.png" width="11px" height="12px" preserveAspectRatio="xMinYMin meet" x="342.5" y="-350.7"/>
<text text-anchor="start" x="366.5" y="-340.8" font-family="Helvetica,sans-Serif" font-size="11.00" fill="#000000">parameter_set_id</text>
<polygon fill="#ffffff" stroke="transparent" points="337.5,-311.7 337.5,-333.7 499.5,-333.7 499.5,-311.7 337.5,-311.7"/>
<polygon fill="none" stroke="#000000" points="337.5,-311.7 337.5,-333.7 499.5,-333.7 499.5,-311.7 337.5,-311.7"/>
<text text-anchor="start" x="366.5" y="-318.8" font-family="Helvetica,sans-Serif" font-size="11.00" fill="#000000">risk_class</text>
<polygon fill="#ffffff" stroke="transparent" points="337.5,-289.7 337.5,-311.7 499.5,-311.7 499.5,-289.7 337.5,-289.7"/>
<polygon fill="none" stroke="#000000" points="337.5,-289.7 337.5,-311.7 499.5,-311.7 499.5,-289.7 337.5,-289.7"/>
<text text-anchor="start" x="366.5" y="-296.8" font-family="Helvetica,sans-Serif" font-size="11.00" fill="#000000">correlation_type</text>
<polygon fill="#ffffff" stroke="transparent" points="337.5,-267.7 337.5,-289.7 499.5,-289.7 499.5,-267.7 337.5,-267.7"/>
<polygon fill="none" stroke="#000000" points="337.5,-267.7 337.5,-289.7 499.5,-289.7 499.5,-267.7 337.5,-267.7"/>
<text text-anchor="start" x="366.5" y="-274.8" font-family="Helvetica,sans-Serif" font-size="11.00" fill="#000000">bucket_from</text>
<polygon fill="#ffffff" stroke="transparent" points="337.5,-245.7 337.5,-267.7 499.5,-267.7 499.5,-245.7 337.5,-245.7"/>
<polygon fill="none" stroke="#000000" points="337.5,-245.7 337.5,-267.7 499.5,-267.7 499.5,-245.7 337.5,-245.7"/>
<text text-anchor="start" x="366.5" y="-252.8" font-family="Helvetica,sans-Serif" font-size="11.00" fill="#000000">bucket_to</text>
<polygon fill="none" stroke="#000000" points="337.5,-226.7 337.5,-245.7 499.5,-245.7 499.5,-226.7 337.5,-226.7"/>
<text text-anchor="start" x="340.5" y="-232.8" font-family="Helvetica,sans-Serif" font-size="11.00" fill="#000000">...</text>
<polygon fill="#ffffff" stroke="transparent" points="337.5,-207.7 337.5,-226.7 416.5,-226.7 416.5,-207.7 337.5,-207.7"/>
<polygon fill="none" stroke="#000000" points="337.5,-207.7 337.5,-226.7 416.5,-226.7 416.5,-207.7 337.5,-207.7"/>
<text text-anchor="start" x="340.5" y="-213.8" font-family="Helvetica,sans-Serif" font-size="11.00" fill="#000000">&lt; 1</text>
<polygon fill="#ffffff" stroke="transparent" points="416.5,-207.7 416.5,-226.7 457.5,-226.7 457.5,-207.7 416.5,-207.7"/>
<polygon fill="none" stroke="#000000" points="416.5,-207.7 416.5,-226.7 457.5,-226.7 457.5,-207.7 416.5,-207.7"/>
<text text-anchor="start" x="448.3862" y="-213.8" font-family="Helvetica,sans-Serif" font-size="11.00" fill="#000000"> &#160;</text>
<polygon fill="#ffffff" stroke="transparent" points="457.5,-207.7 457.5,-226.7 499.5,-226.7 499.5,-207.7 457.5,-207.7"/>
<polygon fill="none" stroke="#000000" points="457.5,-207.7 457.5,-226.7 499.5,-226.7 499.5,-207.7 457.5,-207.7"/>
<text text-anchor="start" x="490.3862" y="-213.8" font-family="Helvetica,sans-Serif" font-size="11.00" fill="#000000"> &#160;</text>
</a>
</g>
</g>
<!-- simm_correlations&#45;&gt;simm_parameter_sets -->
<g id="edge3" class="edge">
<title>simm_correlations:w&#45;&gt;simm_parameter_sets:e</title>
<path fill="none" stroke="#000000" d="M323.125,-347.7869C288.6753,-365.3307 318.9475,-451.7 268,-451.7"/>
<polygon fill="#000000" stroke="#000000" points="329.6783,-346.3797 338.2559,-348.2198 333.5892,-345.5398 337.5,-344.7 337.5,-344.7 337.5,-344.7 333.5892,-345.5398 336.7441,-341.1802 329.6783,-346.3797 329.6783,-346.3797"/>
<ellipse fill="none" stroke="#000000" cx="326.5496" cy="-347.0516" rx="3.2" ry="3.2"/>
</g>
<!-- simm_risk_weights -->
<g id="node5" class="node">
<title>simm_risk_weights</title>
<g id="a_node5"><a xlink:href="../../tables/simm_risk_weights.html" xlink:title="simm_risk_weights" target="_top">
<polygon fill="#ffffff" stroke="transparent" points="336,-38.2 336,-187.2 501,-187.2 501,-38.2 336,-38.2"/>
<polygon fill="#f5f5f5" stroke="transparent" points="336.5,-163.7 336.5,-186.7 501.5,-186.7 501.5,-163.7 336.5,-163.7"/>
<polygon fill="none" stroke="#000000" points="336.5,-163.7 336.5,-186.7 501.5,-186.7 501.5,-163.7 336.5,-163.7"/>
<text text-anchor="start" x="341.5" y="-172.3" font-family="Helvetica,sans-Serif" font-weight="bold" font-size="11.00" fill="#000000">simm_risk_weights</text>
<text text-anchor="start" x="467.0219" y="-171.8" font-family="Helvetica,sans-Serif" font-size="11.00" fill="#000000">[table]</text>
<polygon fill="none" stroke="#000000" points="336.5,-141.7 336.5,-163.7 501.5,-163.7 501.5,-141.7 336.5,-141.7"/>
<image xlink:href="../../images/primaryKeys.png" width="11px" height="12px" preserveAspectRatio="xMinYMin meet" x="341.5" y="-158.7"/>
<text text-anchor="start" x="365.5" y="-148.8" font-family="Helvetica,sans-Serif" font-size="11.00" fill="#000000">id</text>
<polygon fill="#ffffff" stroke="transparent" points="336.5,-119.7 336.5,-141.7 501.5,-141.7 501.5,-119.7 336.5,-119.7"/>
<polygon fill="none" stroke="#000000" points="336.5,-119.7 336.5,-141.7 501.5,-141.7 501.5,-119.7 336.5,-119.7"/>
<image xlink:href="../../images/foreignKeys.png" width="11px" height="12px" preserveAspectRatio="xMinYMin meet" x="341.5" y="-136.7"/>
<text text-anchor="start" x="365.5" y="-126.8" font-family="Helvetica,sans-Serif" font-size="11.00" fill="#000000">parameter_set_id</text>
<polygon fill="#ffffff" stroke="transparent" points="336.5,-97.7 336.5,-119.7 501.5,-119.7 501.5,-97.7 336.5,-97.7"/>
<polygon fill="none" stroke="#000000" points="336.5,-97.7 336.5,-119.7 501.5,-119.7 501.5,-97.7 336.5,-97.7"/>
<text text-anchor="start" x="365.5" y="-104.8" font-family="Helvetica,sans-Serif" font-size="11.00" fill="#000000">risk_class</text>
<polygon fill="#ffffff" stroke="transparent" points="336.5,-75.7 336.5,-97.7 501.5,-97.7 501.5,-75.7 336.5,-75.7"/>
<polygon fill="none" stroke="#000000" points="336.5,-75.7 336.5,-97.7 501.5,-97.7 501.5,-75.7 336.5,-75.7"/>
<text text-anchor="start" x="365.5" y="-82.8" font-family="Helvetica,sans-Serif" font-size="11.00" fill="#000000">bucket</text>
<polygon fill="none" stroke="#000000" points="336.5,-56.7 336.5,-75.7 501.5,-75.7 501.5,-56.7 336.5,-56.7"/>
<text text-anchor="start" x="339.5" y="-62.8" font-family="Helvetica,sans-Serif" font-size="11.00" fill="#000000">...</text>
<polygon fill="#ffffff" stroke="transparent" points="336.5,-37.7 336.5,-56.7 417.5,-56.7 417.5,-37.7 336.5,-37.7"/>
<polygon fill="none" stroke="#000000" points="336.5,-37.7 336.5,-56.7 417.5,-56.7 417.5,-37.7 336.5,-37.7"/>
<text text-anchor="start" x="339.5" y="-43.8" font-family="Helvetica,sans-Serif" font-size="11.00" fill="#000000">&lt; 1</text>
<polygon fill="#ffffff" stroke="transparent" points="417.5,-37.7 417.5,-56.7 459.5,-56.7 459.5,-37.7 417.5,-37.7"/>
<polygon fill="none" stroke="#000000" points="417.5,-37.7 417.5,-56.7 459.5,-56.7 459.5,-37.7 417.5,-37.7"/>
<text text-anchor="start" x="450.3862" y="-43.8" font-family="Helvetica,sans-Serif" font-size="11.00" fill="#000000"> &#160;</text>
<polygon fill="#ffffff" stroke="transparent" points="459.5,-37.7 459.5,-56.7 501.5,-56.7 501.5,-37.7 459.5,-37.7"/>
<polygon fill="none" stroke="#000000" points="459.5,-37.7 459.5,-56.7 501.5,-56.7 501.5,-37.7 459.5,-37.7"/>
<text text-anchor="start" x="492.3862" y="-43.8" font-family="Helvetica,sans-Serif" font-size="11.00" fill="#000000"> &#160;</text>
</a>
</g>
</g>
<!-- simm_risk_weights&#45;&gt;simm_parameter_sets -->
<g id="edge4" class="edge">
<title>simm_risk_weights:w&#45;&gt;simm_parameter_sets:e</title>
<path fill="none" stroke="#000000" d="M322.6207,-135.7421C274.2185,-176.5802 335.526,-451.7 268,-451.7"/>
<polygon fill="#000000" stroke="#000000" points="328.9808,-133.4317 337.7292,-134.0836 332.7404,-132.0658 336.5,-130.7 336.5,-130.7 336.5,-130.7 332.7404,-132.0658 335.2708,-127.3164 328.9808,-133.4317 328.9808,-133.4317"/>
<ellipse fill="none" stroke="#000000" cx="325.9731" cy="-134.5243" rx="3.2" ry="3.2"/>
</g>
</g>
</svg>
