<?xml version="1.0" encoding="UTF-8" standalone="no"?>
<!DOCTYPE svg PUBLIC "-//W3C//DTD SVG 1.1//EN"
 "http://www.w3.org/Graphics/SVG/1.1/DTD/svg11.dtd">
<!-- Generated by graphviz version 2.40.1 (20161225.0304)
 -->
<!-- Title: oneDegreeRelationshipsDiagram Pages: 1 -->
<svg width="517pt" height="311pt"
 viewBox="0.00 0.00 517.00 310.70" xmlns="http://www.w3.org/2000/svg" xmlns:xlink="http://www.w3.org/1999/xlink">
<g id="graph0" class="graph" transform="scale(1 1) rotate(0) translate(4 306.7)">
<title>oneDegreeRelationshipsDiagram</title>
<polygon fill="#ffffff" stroke="transparent" points="-4,4 -4,-306.7 513,-306.7 513,4 -4,4"/>
<text text-anchor="middle" x="72.4936" y="-7.3" font-family="Helvetica,sans-Serif" font-size="11.00" fill="#000000">Generated by SchemaSpy</text>
<!-- simm_calculation_audit -->
<g id="node1" class="node">
<title>simm_calculation_audit</title>
<g id="a_node1"><a xlink:href="../../tables/simm_calculation_audit.html" xlink:title="simm_calculation_audit" target="_top">
<polygon fill="#ffffff" stroke="transparent" points="229,-54.7 229,-298.7 501,-298.7 501,-54.7 229,-54.7"/>
<polygon fill="#f5f5f5" stroke="transparent" points="231,-273.7 231,-296.7 499,-296.7 499,-273.7 231,-273.7"/>
<polygon fill="none" stroke="#000000" points="231,-273.7 231,-296.7 499,-296.7 499,-273.7 231,-273.7"/>
<text text-anchor="start" x="236" y="-282.3" font-family="Helvetica,sans-Serif" font-weight="bold" font-size="11.00" fill="#000000">simm_calculation_audit</text>
<text text-anchor="start" x="464.0437" y="-281.8" font-family="Helvetica,sans-Serif" font-size="11.00" fill="#000000">[table]</text>
<polygon fill="none" stroke="#000000" points="231,-251.7 231,-273.7 409,-273.7 409,-251.7 231,-251.7"/>
<image xlink:href="../../images/primaryKeys.png" width="11px" height="12px" preserveAspectRatio="xMinYMin meet" x="236" y="-268.7"/>
<text text-anchor="start" x="251" y="-258.8" font-family="Helvetica,sans-Serif" font-size="11.00" fill="#000000">id</text>
<polygon fill="none" stroke="#000000" points="409,-251.7 409,-273.7 499,-273.7 499,-251.7 409,-251.7"/>
<text text-anchor="start" x="412" y="-259.4" font-family="Helvetica,sans-Serif" font-size="11.00" fill="#000000">bigserial[19]</text>
<polygon fill="#ffffff" stroke="transparent" points="231,-229.7 231,-251.7 409,-251.7 409,-229.7 231,-229.7"/>
<polygon fill="none" stroke="#000000" points="231,-229.7 231,-251.7 409,-251.7 409,-229.7 231,-229.7"/>
<image xlink:href="../../images/foreignKeys.png" width="11px" height="12px" preserveAspectRatio="xMinYMin meet" x="236" y="-246.7"/>
<text text-anchor="start" x="251" y="-236.8" font-family="Helvetica,sans-Serif" font-size="11.00" fill="#000000">calculation_id</text>
<polygon fill="none" stroke="#000000" points="409,-229.7 409,-251.7 499,-251.7 499,-229.7 409,-229.7"/>
<text text-anchor="start" x="412" y="-237.4" font-family="Helvetica,sans-Serif" font-size="11.00" fill="#000000">int8[19]</text>
<polygon fill="none" stroke="#000000" points="231,-207.7 231,-229.7 409,-229.7 409,-207.7 231,-207.7"/>
<text text-anchor="start" x="251" y="-214.8" font-family="Helvetica,sans-Serif" font-size="11.00" fill="#000000">step_name</text>
<polygon fill="none" stroke="#000000" points="409,-207.7 409,-229.7 499,-229.7 499,-207.7 409,-207.7"/>
<text text-anchor="start" x="412" y="-215.4" font-family="Helvetica,sans-Serif" font-size="11.00" fill="#000000">varchar[100]</text>
<polygon fill="#ffffff" stroke="transparent" points="231,-185.7 231,-207.7 409,-207.7 409,-185.7 231,-185.7"/>
<polygon fill="none" stroke="#000000" points="231,-185.7 231,-207.7 409,-207.7 409,-185.7 231,-185.7"/>
<text text-anchor="start" x="251" y="-192.8" font-family="Helvetica,sans-Serif" font-size="11.00" fill="#000000">step_order</text>
<polygon fill="none" stroke="#000000" points="409,-185.7 409,-207.7 499,-207.7 499,-185.7 409,-185.7"/>
<text text-anchor="start" x="412" y="-193.4" font-family="Helvetica,sans-Serif" font-size="11.00" fill="#000000">int4[10]</text>
<polygon fill="none" stroke="#000000" points="231,-163.7 231,-185.7 409,-185.7 409,-163.7 231,-163.7"/>
<text text-anchor="start" x="251" y="-170.8" font-family="Helvetica,sans-Serif" font-size="11.00" fill="#000000">input_data</text>
<polygon fill="none" stroke="#000000" points="409,-163.7 409,-185.7 499,-185.7 499,-163.7 409,-163.7"/>
<text text-anchor="start" x="411.5043" y="-171.4" font-family="Helvetica,sans-Serif" font-size="11.00" fill="#000000">text[2147483647]</text>
<polygon fill="none" stroke="#000000" points="231,-141.7 231,-163.7 409,-163.7 409,-141.7 231,-141.7"/>
<text text-anchor="start" x="251" y="-148.8" font-family="Helvetica,sans-Serif" font-size="11.00" fill="#000000">output_data</text>
<polygon fill="none" stroke="#000000" points="409,-141.7 409,-163.7 499,-163.7 499,-141.7 409,-141.7"/>
<text text-anchor="start" x="411.5043" y="-149.4" font-family="Helvetica,sans-Serif" font-size="11.00" fill="#000000">text[2147483647]</text>
<polygon fill="none" stroke="#000000" points="231,-119.7 231,-141.7 409,-141.7 409,-119.7 231,-119.7"/>
<text text-anchor="start" x="251" y="-126.8" font-family="Helvetica,sans-Serif" font-size="11.00" fill="#000000">calculation_details</text>
<polygon fill="none" stroke="#000000" points="409,-119.7 409,-141.7 499,-141.7 499,-119.7 409,-119.7"/>
<text text-anchor="start" x="411.5043" y="-127.4" font-family="Helvetica,sans-Serif" font-size="11.00" fill="#000000">text[2147483647]</text>
<polygon fill="none" stroke="#000000" points="231,-97.7 231,-119.7 409,-119.7 409,-97.7 231,-97.7"/>
<text text-anchor="start" x="251" y="-104.8" font-family="Helvetica,sans-Serif" font-size="11.00" fill="#000000">processing_time_ms</text>
<polygon fill="none" stroke="#000000" points="409,-97.7 409,-119.7 499,-119.7 499,-97.7 409,-97.7"/>
<text text-anchor="start" x="412" y="-105.4" font-family="Helvetica,sans-Serif" font-size="11.00" fill="#000000">int8[19]</text>
<polygon fill="none" stroke="#000000" points="231,-75.7 231,-97.7 409,-97.7 409,-75.7 231,-75.7"/>
<text text-anchor="start" x="251" y="-82.8" font-family="Helvetica,sans-Serif" font-size="11.00" fill="#000000">created_at</text>
<polygon fill="none" stroke="#000000" points="409,-75.7 409,-97.7 499,-97.7 499,-75.7 409,-75.7"/>
<text text-anchor="start" x="412" y="-83.4" font-family="Helvetica,sans-Serif" font-size="11.00" fill="#000000">timestamp[29,6]</text>
<polygon fill="#ffffff" stroke="transparent" points="231,-56.7 231,-75.7 324,-75.7 324,-56.7 231,-56.7"/>
<polygon fill="none" stroke="#000000" points="231,-56.7 231,-75.7 324,-75.7 324,-56.7 231,-56.7"/>
<text text-anchor="start" x="234" y="-62.8" font-family="Helvetica,sans-Serif" font-size="11.00" fill="#000000">&lt; 1</text>
<polygon fill="#ffffff" stroke="transparent" points="324,-56.7 324,-75.7 409,-75.7 409,-56.7 324,-56.7"/>
<polygon fill="none" stroke="#000000" points="324,-56.7 324,-75.7 409,-75.7 409,-56.7 324,-56.7"/>
<text text-anchor="start" x="399.8862" y="-62.8" font-family="Helvetica,sans-Serif" font-size="11.00" fill="#000000"> &#160;</text>
<polygon fill="#ffffff" stroke="transparent" points="409,-56.7 409,-75.7 499,-75.7 499,-56.7 409,-56.7"/>
<polygon fill="none" stroke="#000000" points="409,-56.7 409,-75.7 499,-75.7 499,-56.7 409,-56.7"/>
<text text-anchor="start" x="480.4053" y="-62.8" font-family="Helvetica,sans-Serif" font-size="11.00" fill="#000000">0 &gt;</text>
<polygon fill="none" stroke="#000000" stroke-width="2" points="230,-55.7 230,-297.7 500,-297.7 500,-55.7 230,-55.7"/>
</a>
</g>
</g>
<!-- simm_calculations -->
<g id="node2" class="node">
<title>simm_calculations</title>
<g id="a_node2"><a xlink:href="../../tables/simm_calculations.html" xlink:title="simm_calculations" target="_top">
<polygon fill="#ffffff" stroke="transparent" points="8,-38.2 8,-275.2 180,-275.2 180,-38.2 8,-38.2"/>
<polygon fill="#f5f5f5" stroke="transparent" points="8,-251.7 8,-274.7 180,-274.7 180,-251.7 8,-251.7"/>
<polygon fill="none" stroke="#000000" points="8,-251.7 8,-274.7 180,-274.7 180,-251.7 8,-251.7"/>
<text text-anchor="start" x="13" y="-260.3" font-family="Helvetica,sans-Serif" font-weight="bold" font-size="11.00" fill="#000000">simm_calculations</text>
<text text-anchor="start" x="145.0437" y="-259.8" font-family="Helvetica,sans-Serif" font-size="11.00" fill="#000000">[table]</text>
<polygon fill="none" stroke="#000000" points="8,-229.7 8,-251.7 180,-251.7 180,-229.7 8,-229.7"/>
<image xlink:href="../../images/primaryKeys.png" width="11px" height="12px" preserveAspectRatio="xMinYMin meet" x="13" y="-246.7"/>
<text text-anchor="start" x="28" y="-236.8" font-family="Helvetica,sans-Serif" font-size="11.00" fill="#000000">id</text>
<polygon fill="#ffffff" stroke="transparent" points="8,-207.7 8,-229.7 180,-229.7 180,-207.7 8,-207.7"/>
<polygon fill="none" stroke="#000000" points="8,-207.7 8,-229.7 180,-229.7 180,-207.7 8,-207.7"/>
<text text-anchor="start" x="28" y="-214.8" font-family="Helvetica,sans-Serif" font-size="11.00" fill="#000000">calculation_id</text>
<polygon fill="#ffffff" stroke="transparent" points="8,-185.7 8,-207.7 180,-207.7 180,-185.7 8,-185.7"/>
<polygon fill="none" stroke="#000000" points="8,-185.7 8,-207.7 180,-207.7 180,-185.7 8,-185.7"/>
<image xlink:href="../../images/foreignKeys.png" width="11px" height="12px" preserveAspectRatio="xMinYMin meet" x="13" y="-202.7"/>
<text text-anchor="start" x="28" y="-192.8" font-family="Helvetica,sans-Serif" font-size="11.00" fill="#000000">upload_id</text>
<polygon fill="none" stroke="#000000" points="8,-163.7 8,-185.7 180,-185.7 180,-163.7 8,-163.7"/>
<image xlink:href="../../images/foreignKeys.png" width="11px" height="12px" preserveAspectRatio="xMinYMin meet" x="13" y="-180.7"/>
<text text-anchor="start" x="28" y="-170.8" font-family="Helvetica,sans-Serif" font-size="11.00" fill="#000000">parameter_set_id</text>
<polygon fill="#ffffff" stroke="transparent" points="8,-141.7 8,-163.7 180,-163.7 180,-141.7 8,-141.7"/>
<polygon fill="none" stroke="#000000" points="8,-141.7 8,-163.7 180,-163.7 180,-141.7 8,-141.7"/>
<text text-anchor="start" x="28" y="-148.8" font-family="Helvetica,sans-Serif" font-size="11.00" fill="#000000">portfolio_id</text>
<polygon fill="#ffffff" stroke="transparent" points="8,-119.7 8,-141.7 180,-141.7 180,-119.7 8,-119.7"/>
<polygon fill="none" stroke="#000000" points="8,-119.7 8,-141.7 180,-141.7 180,-119.7 8,-119.7"/>
<text text-anchor="start" x="28" y="-126.8" font-family="Helvetica,sans-Serif" font-size="11.00" fill="#000000">calculation_date</text>
<polygon fill="#ffffff" stroke="transparent" points="8,-97.7 8,-119.7 180,-119.7 180,-97.7 8,-97.7"/>
<polygon fill="none" stroke="#000000" points="8,-97.7 8,-119.7 180,-119.7 180,-97.7 8,-97.7"/>
<text text-anchor="start" x="28" y="-104.8" font-family="Helvetica,sans-Serif" font-size="11.00" fill="#000000">calculation_status</text>
<polygon fill="#ffffff" stroke="transparent" points="8,-75.7 8,-97.7 180,-97.7 180,-75.7 8,-75.7"/>
<polygon fill="none" stroke="#000000" points="8,-75.7 8,-97.7 180,-97.7 180,-75.7 8,-75.7"/>
<text text-anchor="start" x="28" y="-82.8" font-family="Helvetica,sans-Serif" font-size="11.00" fill="#000000">created_at</text>
<polygon fill="none" stroke="#000000" points="8,-56.7 8,-75.7 180,-75.7 180,-56.7 8,-56.7"/>
<text text-anchor="start" x="11" y="-62.8" font-family="Helvetica,sans-Serif" font-size="11.00" fill="#000000">...</text>
<polygon fill="#ffffff" stroke="transparent" points="8,-37.7 8,-56.7 88,-56.7 88,-37.7 8,-37.7"/>
<polygon fill="none" stroke="#000000" points="8,-37.7 8,-56.7 88,-56.7 88,-37.7 8,-37.7"/>
<text text-anchor="start" x="11" y="-43.8" font-family="Helvetica,sans-Serif" font-size="11.00" fill="#000000">&lt; 2</text>
<polygon fill="#ffffff" stroke="transparent" points="88,-37.7 88,-56.7 129,-56.7 129,-37.7 88,-37.7"/>
<polygon fill="none" stroke="#000000" points="88,-37.7 88,-56.7 129,-56.7 129,-37.7 88,-37.7"/>
<text text-anchor="start" x="119.8862" y="-43.8" font-family="Helvetica,sans-Serif" font-size="11.00" fill="#000000"> &#160;</text>
<polygon fill="#ffffff" stroke="transparent" points="129,-37.7 129,-56.7 180,-56.7 180,-37.7 129,-37.7"/>
<polygon fill="none" stroke="#000000" points="129,-37.7 129,-56.7 180,-56.7 180,-37.7 129,-37.7"/>
<text text-anchor="start" x="161.4053" y="-43.8" font-family="Helvetica,sans-Serif" font-size="11.00" fill="#000000">2 &gt;</text>
</a>
</g>
</g>
<!-- simm_calculation_audit&#45;&gt;simm_calculations -->
<g id="edge1" class="edge">
<title>simm_calculation_audit:w&#45;&gt;simm_calculations:e</title>
<path fill="none" stroke="#000000" d="M216.276,-240.7C204.2815,-240.7 196.8229,-240.7 180,-240.7"/>
<polygon fill="#000000" stroke="#000000" points="223,-240.7001 231,-244.3 227,-240.7 231,-240.7 231,-240.7 231,-240.7 227,-240.7 231,-237.1 223,-240.7001 223,-240.7001"/>
<ellipse fill="none" stroke="#000000" cx="219.8" cy="-240.7001" rx="3.2" ry="3.2"/>
</g>
</g>
</svg>
