<?xml version="1.0" encoding="UTF-8" standalone="no"?>
<!DOCTYPE svg PUBLIC "-//W3C//DTD SVG 1.1//EN"
 "http://www.w3.org/Graphics/SVG/1.1/DTD/svg11.dtd">
<!-- Generated by graphviz version 2.40.1 (20161225.0304)
 -->
<!-- Title: oneDegreeRelationshipsDiagram Pages: 1 -->
<svg width="522pt" height="311pt"
 viewBox="0.00 0.00 522.00 310.70" xmlns="http://www.w3.org/2000/svg" xmlns:xlink="http://www.w3.org/1999/xlink">
<g id="graph0" class="graph" transform="scale(1 1) rotate(0) translate(4 306.7)">
<title>oneDegreeRelationshipsDiagram</title>
<polygon fill="#ffffff" stroke="transparent" points="-4,4 -4,-306.7 518,-306.7 518,4 -4,4"/>
<text text-anchor="middle" x="72.4936" y="-7.3" font-family="Helvetica,sans-Serif" font-size="11.00" fill="#000000">Generated by SchemaSpy</text>
<!-- simm_calculation_results -->
<g id="node1" class="node">
<title>simm_calculation_results</title>
<g id="a_node1"><a xlink:href="../../tables/simm_calculation_results.html" xlink:title="simm_calculation_results" target="_top">
<polygon fill="#ffffff" stroke="transparent" points="229,-54.7 229,-298.7 506,-298.7 506,-54.7 229,-54.7"/>
<polygon fill="#f5f5f5" stroke="transparent" points="231.5,-273.7 231.5,-296.7 504.5,-296.7 504.5,-273.7 231.5,-273.7"/>
<polygon fill="none" stroke="#000000" points="231.5,-273.7 231.5,-296.7 504.5,-296.7 504.5,-273.7 231.5,-273.7"/>
<text text-anchor="start" x="236.5" y="-282.3" font-family="Helvetica,sans-Serif" font-weight="bold" font-size="11.00" fill="#000000">simm_calculation_results</text>
<text text-anchor="start" x="469.5437" y="-281.8" font-family="Helvetica,sans-Serif" font-size="11.00" fill="#000000">[table]</text>
<polygon fill="none" stroke="#000000" points="231.5,-251.7 231.5,-273.7 420.5,-273.7 420.5,-251.7 231.5,-251.7"/>
<image xlink:href="../../images/primaryKeys.png" width="11px" height="12px" preserveAspectRatio="xMinYMin meet" x="236.5" y="-268.7"/>
<text text-anchor="start" x="251.5" y="-258.8" font-family="Helvetica,sans-Serif" font-size="11.00" fill="#000000">id</text>
<polygon fill="none" stroke="#000000" points="420.5,-251.7 420.5,-273.7 504.5,-273.7 504.5,-251.7 420.5,-251.7"/>
<text text-anchor="start" x="423.5" y="-259.4" font-family="Helvetica,sans-Serif" font-size="11.00" fill="#000000">bigserial[19]</text>
<polygon fill="#ffffff" stroke="transparent" points="231.5,-229.7 231.5,-251.7 420.5,-251.7 420.5,-229.7 231.5,-229.7"/>
<polygon fill="none" stroke="#000000" points="231.5,-229.7 231.5,-251.7 420.5,-251.7 420.5,-229.7 231.5,-229.7"/>
<image xlink:href="../../images/foreignKeys.png" width="11px" height="12px" preserveAspectRatio="xMinYMin meet" x="236.5" y="-246.7"/>
<text text-anchor="start" x="251.5" y="-236.8" font-family="Helvetica,sans-Serif" font-size="11.00" fill="#000000">calculation_id</text>
<polygon fill="none" stroke="#000000" points="420.5,-229.7 420.5,-251.7 504.5,-251.7 504.5,-229.7 420.5,-229.7"/>
<text text-anchor="start" x="423.5" y="-237.4" font-family="Helvetica,sans-Serif" font-size="11.00" fill="#000000">int8[19]</text>
<polygon fill="#ffffff" stroke="transparent" points="231.5,-207.7 231.5,-229.7 420.5,-229.7 420.5,-207.7 231.5,-207.7"/>
<polygon fill="none" stroke="#000000" points="231.5,-207.7 231.5,-229.7 420.5,-229.7 420.5,-207.7 231.5,-207.7"/>
<text text-anchor="start" x="251.5" y="-214.8" font-family="Helvetica,sans-Serif" font-size="11.00" fill="#000000">risk_class</text>
<polygon fill="none" stroke="#000000" points="420.5,-207.7 420.5,-229.7 504.5,-229.7 504.5,-207.7 420.5,-207.7"/>
<text text-anchor="start" x="423.5" y="-215.4" font-family="Helvetica,sans-Serif" font-size="11.00" fill="#000000">varchar[20]</text>
<polygon fill="#ffffff" stroke="transparent" points="231.5,-185.7 231.5,-207.7 420.5,-207.7 420.5,-185.7 231.5,-185.7"/>
<polygon fill="none" stroke="#000000" points="231.5,-185.7 231.5,-207.7 420.5,-207.7 420.5,-185.7 231.5,-185.7"/>
<text text-anchor="start" x="251.5" y="-192.8" font-family="Helvetica,sans-Serif" font-size="11.00" fill="#000000">bucket</text>
<polygon fill="none" stroke="#000000" points="420.5,-185.7 420.5,-207.7 504.5,-207.7 504.5,-185.7 420.5,-185.7"/>
<text text-anchor="start" x="423.5" y="-193.4" font-family="Helvetica,sans-Serif" font-size="11.00" fill="#000000">varchar[10]</text>
<polygon fill="none" stroke="#000000" points="231.5,-163.7 231.5,-185.7 420.5,-185.7 420.5,-163.7 231.5,-163.7"/>
<text text-anchor="start" x="251.5" y="-170.8" font-family="Helvetica,sans-Serif" font-size="11.00" fill="#000000">weighted_sensitivity</text>
<polygon fill="none" stroke="#000000" points="420.5,-163.7 420.5,-185.7 504.5,-185.7 504.5,-163.7 420.5,-163.7"/>
<text text-anchor="start" x="423.5" y="-171.4" font-family="Helvetica,sans-Serif" font-size="11.00" fill="#000000">numeric[20,8]</text>
<polygon fill="none" stroke="#000000" points="231.5,-141.7 231.5,-163.7 420.5,-163.7 420.5,-141.7 231.5,-141.7"/>
<text text-anchor="start" x="251.5" y="-148.8" font-family="Helvetica,sans-Serif" font-size="11.00" fill="#000000">correlation_adjustment</text>
<polygon fill="none" stroke="#000000" points="420.5,-141.7 420.5,-163.7 504.5,-163.7 504.5,-141.7 420.5,-141.7"/>
<text text-anchor="start" x="423.5" y="-149.4" font-family="Helvetica,sans-Serif" font-size="11.00" fill="#000000">numeric[20,8]</text>
<polygon fill="none" stroke="#000000" points="231.5,-119.7 231.5,-141.7 420.5,-141.7 420.5,-119.7 231.5,-119.7"/>
<text text-anchor="start" x="251.5" y="-126.8" font-family="Helvetica,sans-Serif" font-size="11.00" fill="#000000">margin_component</text>
<polygon fill="none" stroke="#000000" points="420.5,-119.7 420.5,-141.7 504.5,-141.7 504.5,-119.7 420.5,-119.7"/>
<text text-anchor="start" x="423.5" y="-127.4" font-family="Helvetica,sans-Serif" font-size="11.00" fill="#000000">numeric[20,8]</text>
<polygon fill="none" stroke="#000000" points="231.5,-97.7 231.5,-119.7 420.5,-119.7 420.5,-97.7 231.5,-97.7"/>
<text text-anchor="start" x="251.5" y="-104.8" font-family="Helvetica,sans-Serif" font-size="11.00" fill="#000000">margin_component_usd</text>
<polygon fill="none" stroke="#000000" points="420.5,-97.7 420.5,-119.7 504.5,-119.7 504.5,-97.7 420.5,-97.7"/>
<text text-anchor="start" x="423.5" y="-105.4" font-family="Helvetica,sans-Serif" font-size="11.00" fill="#000000">numeric[20,8]</text>
<polygon fill="none" stroke="#000000" points="231.5,-75.7 231.5,-97.7 420.5,-97.7 420.5,-75.7 231.5,-75.7"/>
<text text-anchor="start" x="251.5" y="-82.8" font-family="Helvetica,sans-Serif" font-size="11.00" fill="#000000">created_at</text>
<polygon fill="none" stroke="#000000" points="420.5,-75.7 420.5,-97.7 504.5,-97.7 504.5,-75.7 420.5,-75.7"/>
<text text-anchor="start" x="423.3807" y="-83.4" font-family="Helvetica,sans-Serif" font-size="11.00" fill="#000000">timestamp[29,6]</text>
<polygon fill="#ffffff" stroke="transparent" points="231.5,-56.7 231.5,-75.7 330.5,-75.7 330.5,-56.7 231.5,-56.7"/>
<polygon fill="none" stroke="#000000" points="231.5,-56.7 231.5,-75.7 330.5,-75.7 330.5,-56.7 231.5,-56.7"/>
<text text-anchor="start" x="234.5" y="-62.8" font-family="Helvetica,sans-Serif" font-size="11.00" fill="#000000">&lt; 1</text>
<polygon fill="#ffffff" stroke="transparent" points="330.5,-56.7 330.5,-75.7 420.5,-75.7 420.5,-56.7 330.5,-56.7"/>
<polygon fill="none" stroke="#000000" points="330.5,-56.7 330.5,-75.7 420.5,-75.7 420.5,-56.7 330.5,-56.7"/>
<text text-anchor="start" x="411.3862" y="-62.8" font-family="Helvetica,sans-Serif" font-size="11.00" fill="#000000"> &#160;</text>
<polygon fill="#ffffff" stroke="transparent" points="420.5,-56.7 420.5,-75.7 504.5,-75.7 504.5,-56.7 420.5,-56.7"/>
<polygon fill="none" stroke="#000000" points="420.5,-56.7 420.5,-75.7 504.5,-75.7 504.5,-56.7 420.5,-56.7"/>
<text text-anchor="start" x="485.9053" y="-62.8" font-family="Helvetica,sans-Serif" font-size="11.00" fill="#000000">0 &gt;</text>
<polygon fill="none" stroke="#000000" stroke-width="2" points="230,-55.7 230,-297.7 505,-297.7 505,-55.7 230,-55.7"/>
</a>
</g>
</g>
<!-- simm_calculations -->
<g id="node2" class="node">
<title>simm_calculations</title>
<g id="a_node2"><a xlink:href="../../tables/simm_calculations.html" xlink:title="simm_calculations" target="_top">
<polygon fill="#ffffff" stroke="transparent" points="8,-38.2 8,-275.2 180,-275.2 180,-38.2 8,-38.2"/>
<polygon fill="#f5f5f5" stroke="transparent" points="8,-251.7 8,-274.7 180,-274.7 180,-251.7 8,-251.7"/>
<polygon fill="none" stroke="#000000" points="8,-251.7 8,-274.7 180,-274.7 180,-251.7 8,-251.7"/>
<text text-anchor="start" x="13" y="-260.3" font-family="Helvetica,sans-Serif" font-weight="bold" font-size="11.00" fill="#000000">simm_calculations</text>
<text text-anchor="start" x="145.0437" y="-259.8" font-family="Helvetica,sans-Serif" font-size="11.00" fill="#000000">[table]</text>
<polygon fill="none" stroke="#000000" points="8,-229.7 8,-251.7 180,-251.7 180,-229.7 8,-229.7"/>
<image xlink:href="../../images/primaryKeys.png" width="11px" height="12px" preserveAspectRatio="xMinYMin meet" x="13" y="-246.7"/>
<text text-anchor="start" x="28" y="-236.8" font-family="Helvetica,sans-Serif" font-size="11.00" fill="#000000">id</text>
<polygon fill="#ffffff" stroke="transparent" points="8,-207.7 8,-229.7 180,-229.7 180,-207.7 8,-207.7"/>
<polygon fill="none" stroke="#000000" points="8,-207.7 8,-229.7 180,-229.7 180,-207.7 8,-207.7"/>
<text text-anchor="start" x="28" y="-214.8" font-family="Helvetica,sans-Serif" font-size="11.00" fill="#000000">calculation_id</text>
<polygon fill="#ffffff" stroke="transparent" points="8,-185.7 8,-207.7 180,-207.7 180,-185.7 8,-185.7"/>
<polygon fill="none" stroke="#000000" points="8,-185.7 8,-207.7 180,-207.7 180,-185.7 8,-185.7"/>
<image xlink:href="../../images/foreignKeys.png" width="11px" height="12px" preserveAspectRatio="xMinYMin meet" x="13" y="-202.7"/>
<text text-anchor="start" x="28" y="-192.8" font-family="Helvetica,sans-Serif" font-size="11.00" fill="#000000">upload_id</text>
<polygon fill="none" stroke="#000000" points="8,-163.7 8,-185.7 180,-185.7 180,-163.7 8,-163.7"/>
<image xlink:href="../../images/foreignKeys.png" width="11px" height="12px" preserveAspectRatio="xMinYMin meet" x="13" y="-180.7"/>
<text text-anchor="start" x="28" y="-170.8" font-family="Helvetica,sans-Serif" font-size="11.00" fill="#000000">parameter_set_id</text>
<polygon fill="#ffffff" stroke="transparent" points="8,-141.7 8,-163.7 180,-163.7 180,-141.7 8,-141.7"/>
<polygon fill="none" stroke="#000000" points="8,-141.7 8,-163.7 180,-163.7 180,-141.7 8,-141.7"/>
<text text-anchor="start" x="28" y="-148.8" font-family="Helvetica,sans-Serif" font-size="11.00" fill="#000000">portfolio_id</text>
<polygon fill="#ffffff" stroke="transparent" points="8,-119.7 8,-141.7 180,-141.7 180,-119.7 8,-119.7"/>
<polygon fill="none" stroke="#000000" points="8,-119.7 8,-141.7 180,-141.7 180,-119.7 8,-119.7"/>
<text text-anchor="start" x="28" y="-126.8" font-family="Helvetica,sans-Serif" font-size="11.00" fill="#000000">calculation_date</text>
<polygon fill="#ffffff" stroke="transparent" points="8,-97.7 8,-119.7 180,-119.7 180,-97.7 8,-97.7"/>
<polygon fill="none" stroke="#000000" points="8,-97.7 8,-119.7 180,-119.7 180,-97.7 8,-97.7"/>
<text text-anchor="start" x="28" y="-104.8" font-family="Helvetica,sans-Serif" font-size="11.00" fill="#000000">calculation_status</text>
<polygon fill="#ffffff" stroke="transparent" points="8,-75.7 8,-97.7 180,-97.7 180,-75.7 8,-75.7"/>
<polygon fill="none" stroke="#000000" points="8,-75.7 8,-97.7 180,-97.7 180,-75.7 8,-75.7"/>
<text text-anchor="start" x="28" y="-82.8" font-family="Helvetica,sans-Serif" font-size="11.00" fill="#000000">created_at</text>
<polygon fill="none" stroke="#000000" points="8,-56.7 8,-75.7 180,-75.7 180,-56.7 8,-56.7"/>
<text text-anchor="start" x="11" y="-62.8" font-family="Helvetica,sans-Serif" font-size="11.00" fill="#000000">...</text>
<polygon fill="#ffffff" stroke="transparent" points="8,-37.7 8,-56.7 88,-56.7 88,-37.7 8,-37.7"/>
<polygon fill="none" stroke="#000000" points="8,-37.7 8,-56.7 88,-56.7 88,-37.7 8,-37.7"/>
<text text-anchor="start" x="11" y="-43.8" font-family="Helvetica,sans-Serif" font-size="11.00" fill="#000000">&lt; 2</text>
<polygon fill="#ffffff" stroke="transparent" points="88,-37.7 88,-56.7 129,-56.7 129,-37.7 88,-37.7"/>
<polygon fill="none" stroke="#000000" points="88,-37.7 88,-56.7 129,-56.7 129,-37.7 88,-37.7"/>
<text text-anchor="start" x="119.8862" y="-43.8" font-family="Helvetica,sans-Serif" font-size="11.00" fill="#000000"> &#160;</text>
<polygon fill="#ffffff" stroke="transparent" points="129,-37.7 129,-56.7 180,-56.7 180,-37.7 129,-37.7"/>
<polygon fill="none" stroke="#000000" points="129,-37.7 129,-56.7 180,-56.7 180,-37.7 129,-37.7"/>
<text text-anchor="start" x="161.4053" y="-43.8" font-family="Helvetica,sans-Serif" font-size="11.00" fill="#000000">2 &gt;</text>
</a>
</g>
</g>
<!-- simm_calculation_results&#45;&gt;simm_calculations -->
<g id="edge1" class="edge">
<title>simm_calculation_results:w&#45;&gt;simm_calculations:e</title>
<path fill="none" stroke="#000000" d="M217.0156,-240.7C204.6771,-240.7 197.1667,-240.7 180,-240.7"/>
<polygon fill="#000000" stroke="#000000" points="223.5,-240.7001 231.5,-244.3 227.5,-240.7 231.5,-240.7 231.5,-240.7 231.5,-240.7 227.5,-240.7 231.5,-237.1 223.5,-240.7001 223.5,-240.7001"/>
<ellipse fill="none" stroke="#000000" cx="220.3" cy="-240.7001" rx="3.2" ry="3.2"/>
</g>
</g>
</svg>
