<?xml version="1.0" encoding="UTF-8" standalone="no"?>
<!DOCTYPE svg PUBLIC "-//W3C//DTD SVG 1.1//EN"
 "http://www.w3.org/Graphics/SVG/1.1/DTD/svg11.dtd">
<!-- Generated by graphviz version 2.40.1 (20161225.0304)
 -->
<!-- Title: twoDegreesRelationshipsDiagram Pages: 1 -->
<svg width="491pt" height="563pt"
 viewBox="0.00 0.00 491.00 563.20" xmlns="http://www.w3.org/2000/svg" xmlns:xlink="http://www.w3.org/1999/xlink">
<g id="graph0" class="graph" transform="scale(1 1) rotate(0) translate(4 559.2)">
<title>twoDegreesRelationshipsDiagram</title>
<polygon fill="#ffffff" stroke="transparent" points="-4,4 -4,-559.2 487,-559.2 487,4 -4,4"/>
<text text-anchor="middle" x="72.4936" y="-7.3" font-family="Helvetica,sans-Serif" font-size="11.00" fill="#000000">Generated by SchemaSpy</text>
<!-- simm_bucket_mappings -->
<g id="node1" class="node">
<title>simm_bucket_mappings</title>
<g id="a_node1"><a xlink:href="../../tables/simm_bucket_mappings.html" xlink:title="simm_bucket_mappings" target="_top">
<polygon fill="#ffffff" stroke="transparent" points="259.5,-490.2 259.5,-551.2 458.5,-551.2 458.5,-490.2 259.5,-490.2"/>
<polygon fill="#f5f5f5" stroke="transparent" points="260,-527.7 260,-550.7 459,-550.7 459,-527.7 260,-527.7"/>
<polygon fill="none" stroke="#000000" points="260,-527.7 260,-550.7 459,-550.7 459,-527.7 260,-527.7"/>
<text text-anchor="start" x="265" y="-536.3" font-family="Helvetica,sans-Serif" font-weight="bold" font-size="11.00" fill="#000000">simm_bucket_mappings</text>
<text text-anchor="start" x="424.5219" y="-535.8" font-family="Helvetica,sans-Serif" font-size="11.00" fill="#000000">[table]</text>
<polygon fill="none" stroke="#000000" points="260,-508.7 260,-527.7 459,-527.7 459,-508.7 260,-508.7"/>
<text text-anchor="start" x="263" y="-514.8" font-family="Helvetica,sans-Serif" font-size="11.00" fill="#000000">...</text>
<polygon fill="#ffffff" stroke="transparent" points="260,-489.7 260,-508.7 358,-508.7 358,-489.7 260,-489.7"/>
<polygon fill="none" stroke="#000000" points="260,-489.7 260,-508.7 358,-508.7 358,-489.7 260,-489.7"/>
<text text-anchor="start" x="263" y="-495.8" font-family="Helvetica,sans-Serif" font-size="11.00" fill="#000000">&lt; 1</text>
<polygon fill="#ffffff" stroke="transparent" points="358,-489.7 358,-508.7 408,-508.7 408,-489.7 358,-489.7"/>
<polygon fill="none" stroke="#000000" points="358,-489.7 358,-508.7 408,-508.7 408,-489.7 358,-489.7"/>
<text text-anchor="start" x="398.8862" y="-495.8" font-family="Helvetica,sans-Serif" font-size="11.00" fill="#000000"> &#160;</text>
<polygon fill="#ffffff" stroke="transparent" points="408,-489.7 408,-508.7 459,-508.7 459,-489.7 408,-489.7"/>
<polygon fill="none" stroke="#000000" points="408,-489.7 408,-508.7 459,-508.7 459,-489.7 408,-489.7"/>
<text text-anchor="start" x="449.8862" y="-495.8" font-family="Helvetica,sans-Serif" font-size="11.00" fill="#000000"> &#160;</text>
</a>
</g>
</g>
<!-- simm_parameter_sets -->
<g id="node2" class="node">
<title>simm_parameter_sets</title>
<g id="a_node2"><a xlink:href="../../tables/simm_parameter_sets.html" xlink:title="simm_parameter_sets" target="_top">
<polygon fill="#ffffff" stroke="transparent" points="8,-245.2 8,-416.2 194,-416.2 194,-245.2 8,-245.2"/>
<polygon fill="#f5f5f5" stroke="transparent" points="8,-392.7 8,-415.7 194,-415.7 194,-392.7 8,-392.7"/>
<polygon fill="none" stroke="#000000" points="8,-392.7 8,-415.7 194,-415.7 194,-392.7 8,-392.7"/>
<text text-anchor="start" x="13" y="-401.3" font-family="Helvetica,sans-Serif" font-weight="bold" font-size="11.00" fill="#000000">simm_parameter_sets</text>
<text text-anchor="start" x="159.5219" y="-400.8" font-family="Helvetica,sans-Serif" font-size="11.00" fill="#000000">[table]</text>
<polygon fill="none" stroke="#000000" points="8,-370.7 8,-392.7 194,-392.7 194,-370.7 8,-370.7"/>
<image xlink:href="../../images/primaryKeys.png" width="11px" height="12px" preserveAspectRatio="xMinYMin meet" x="13" y="-387.7"/>
<text text-anchor="start" x="37" y="-377.8" font-family="Helvetica,sans-Serif" font-size="11.00" fill="#000000">id</text>
<polygon fill="#ffffff" stroke="transparent" points="8,-348.7 8,-370.7 194,-370.7 194,-348.7 8,-348.7"/>
<polygon fill="none" stroke="#000000" points="8,-348.7 8,-370.7 194,-370.7 194,-348.7 8,-348.7"/>
<text text-anchor="start" x="37" y="-355.8" font-family="Helvetica,sans-Serif" font-size="11.00" fill="#000000">version_name</text>
<polygon fill="#ffffff" stroke="transparent" points="8,-326.7 8,-348.7 194,-348.7 194,-326.7 8,-326.7"/>
<polygon fill="none" stroke="#000000" points="8,-326.7 8,-348.7 194,-348.7 194,-326.7 8,-326.7"/>
<text text-anchor="start" x="37" y="-333.8" font-family="Helvetica,sans-Serif" font-size="11.00" fill="#000000">isda_version</text>
<polygon fill="#ffffff" stroke="transparent" points="8,-304.7 8,-326.7 194,-326.7 194,-304.7 8,-304.7"/>
<polygon fill="none" stroke="#000000" points="8,-304.7 8,-326.7 194,-326.7 194,-304.7 8,-304.7"/>
<text text-anchor="start" x="37" y="-311.8" font-family="Helvetica,sans-Serif" font-size="11.00" fill="#000000">effective_date</text>
<polygon fill="#ffffff" stroke="transparent" points="8,-282.7 8,-304.7 194,-304.7 194,-282.7 8,-282.7"/>
<polygon fill="none" stroke="#000000" points="8,-282.7 8,-304.7 194,-304.7 194,-282.7 8,-282.7"/>
<text text-anchor="start" x="37" y="-289.8" font-family="Helvetica,sans-Serif" font-size="11.00" fill="#000000">is_active</text>
<polygon fill="none" stroke="#000000" points="8,-263.7 8,-282.7 194,-282.7 194,-263.7 8,-263.7"/>
<text text-anchor="start" x="11" y="-269.8" font-family="Helvetica,sans-Serif" font-size="11.00" fill="#000000">...</text>
<polygon fill="#ffffff" stroke="transparent" points="8,-244.7 8,-263.7 90,-263.7 90,-244.7 8,-244.7"/>
<polygon fill="none" stroke="#000000" points="8,-244.7 8,-263.7 90,-263.7 90,-244.7 8,-244.7"/>
<text text-anchor="start" x="11" y="-250.8" font-family="Helvetica,sans-Serif" font-size="11.00" fill="#000000"> &#160;</text>
<polygon fill="#ffffff" stroke="transparent" points="90,-244.7 90,-263.7 137,-263.7 137,-244.7 90,-244.7"/>
<polygon fill="none" stroke="#000000" points="90,-244.7 90,-263.7 137,-263.7 137,-244.7 90,-244.7"/>
<text text-anchor="start" x="127.8862" y="-250.8" font-family="Helvetica,sans-Serif" font-size="11.00" fill="#000000"> &#160;</text>
<polygon fill="#ffffff" stroke="transparent" points="137,-244.7 137,-263.7 194,-263.7 194,-244.7 137,-244.7"/>
<polygon fill="none" stroke="#000000" points="137,-244.7 137,-263.7 194,-263.7 194,-244.7 137,-244.7"/>
<text text-anchor="start" x="175.4053" y="-250.8" font-family="Helvetica,sans-Serif" font-size="11.00" fill="#000000">4 &gt;</text>
</a>
</g>
</g>
<!-- simm_bucket_mappings&#45;&gt;simm_parameter_sets -->
<g id="edge1" class="edge">
<title>simm_bucket_mappings:w&#45;&gt;simm_parameter_sets:e</title>
<path fill="none" stroke="#000000" d="M245.7801,-514.9833C203.3421,-495.8155 255.5435,-381.7 194,-381.7"/>
<polygon fill="#000000" stroke="#000000" points="252.1421,-516.1987 259.3244,-521.236 256.0711,-516.9494 260,-517.7 260,-517.7 260,-517.7 256.0711,-516.9494 260.6756,-514.164 252.1421,-516.1987 252.1421,-516.1987"/>
<ellipse fill="none" stroke="#000000" cx="248.999" cy="-515.5982" rx="3.2" ry="3.2"/>
</g>
<!-- simm_calculations -->
<g id="node3" class="node">
<title>simm_calculations</title>
<g id="a_node3"><a xlink:href="../../tables/simm_calculations.html" xlink:title="simm_calculations" target="_top">
<polygon fill="#ffffff" stroke="transparent" points="278,-408.2 278,-469.2 440,-469.2 440,-408.2 278,-408.2"/>
<polygon fill="#f5f5f5" stroke="transparent" points="278,-445.7 278,-468.7 440,-468.7 440,-445.7 278,-445.7"/>
<polygon fill="none" stroke="#000000" points="278,-445.7 278,-468.7 440,-468.7 440,-445.7 278,-445.7"/>
<text text-anchor="start" x="283" y="-454.3" font-family="Helvetica,sans-Serif" font-weight="bold" font-size="11.00" fill="#000000">simm_calculations</text>
<text text-anchor="start" x="405.5219" y="-453.8" font-family="Helvetica,sans-Serif" font-size="11.00" fill="#000000">[table]</text>
<polygon fill="none" stroke="#000000" points="278,-426.7 278,-445.7 440,-445.7 440,-426.7 278,-426.7"/>
<text text-anchor="start" x="281" y="-432.8" font-family="Helvetica,sans-Serif" font-size="11.00" fill="#000000">...</text>
<polygon fill="#ffffff" stroke="transparent" points="278,-407.7 278,-426.7 353,-426.7 353,-407.7 278,-407.7"/>
<polygon fill="none" stroke="#000000" points="278,-407.7 278,-426.7 353,-426.7 353,-407.7 278,-407.7"/>
<text text-anchor="start" x="281" y="-413.8" font-family="Helvetica,sans-Serif" font-size="11.00" fill="#000000">&lt; 2</text>
<polygon fill="#ffffff" stroke="transparent" points="353,-407.7 353,-426.7 392,-426.7 392,-407.7 353,-407.7"/>
<polygon fill="none" stroke="#000000" points="353,-407.7 353,-426.7 392,-426.7 392,-407.7 353,-407.7"/>
<text text-anchor="start" x="382.8862" y="-413.8" font-family="Helvetica,sans-Serif" font-size="11.00" fill="#000000"> &#160;</text>
<polygon fill="#ffffff" stroke="transparent" points="392,-407.7 392,-426.7 440,-426.7 440,-407.7 392,-407.7"/>
<polygon fill="none" stroke="#000000" points="392,-407.7 392,-426.7 440,-426.7 440,-407.7 392,-407.7"/>
<text text-anchor="start" x="421.4053" y="-413.8" font-family="Helvetica,sans-Serif" font-size="11.00" fill="#000000">2 &gt;</text>
</a>
</g>
</g>
<!-- simm_calculations&#45;&gt;simm_parameter_sets -->
<g id="edge2" class="edge">
<title>simm_calculations:w&#45;&gt;simm_parameter_sets:e</title>
<path fill="none" stroke="#000000" d="M263.4684,-433.3797C234.041,-423.0438 232.8344,-381.7 194,-381.7"/>
<polygon fill="#000000" stroke="#000000" points="270.1001,-434.4385 277.4323,-439.255 274.05,-435.0693 278,-435.7 278,-435.7 278,-435.7 274.05,-435.0693 278.5677,-432.145 270.1001,-434.4385 270.1001,-434.4385"/>
<ellipse fill="none" stroke="#000000" cx="266.9401" cy="-433.934" rx="3.2" ry="3.2"/>
</g>
<!-- simm_correlations -->
<g id="node4" class="node">
<title>simm_correlations</title>
<g id="a_node4"><a xlink:href="../../tables/simm_correlations.html" xlink:title="simm_correlations" target="_top">
<polygon fill="#ffffff" stroke="transparent" points="243,-120.7 243,-386.7 475,-386.7 475,-120.7 243,-120.7"/>
<polygon fill="#f5f5f5" stroke="transparent" points="245,-361.7 245,-384.7 473,-384.7 473,-361.7 245,-361.7"/>
<polygon fill="none" stroke="#000000" points="245,-361.7 245,-384.7 473,-384.7 473,-361.7 245,-361.7"/>
<text text-anchor="start" x="250" y="-370.3" font-family="Helvetica,sans-Serif" font-weight="bold" font-size="11.00" fill="#000000">simm_correlations</text>
<text text-anchor="start" x="438.0437" y="-369.8" font-family="Helvetica,sans-Serif" font-size="11.00" fill="#000000">[table]</text>
<polygon fill="none" stroke="#000000" points="245,-339.7 245,-361.7 389,-361.7 389,-339.7 245,-339.7"/>
<image xlink:href="../../images/primaryKeys.png" width="11px" height="12px" preserveAspectRatio="xMinYMin meet" x="250" y="-356.7"/>
<text text-anchor="start" x="265" y="-346.8" font-family="Helvetica,sans-Serif" font-size="11.00" fill="#000000">id</text>
<polygon fill="none" stroke="#000000" points="389,-339.7 389,-361.7 473,-361.7 473,-339.7 389,-339.7"/>
<text text-anchor="start" x="392" y="-347.4" font-family="Helvetica,sans-Serif" font-size="11.00" fill="#000000">bigserial[19]</text>
<polygon fill="#ffffff" stroke="transparent" points="245,-317.7 245,-339.7 389,-339.7 389,-317.7 245,-317.7"/>
<polygon fill="none" stroke="#000000" points="245,-317.7 245,-339.7 389,-339.7 389,-317.7 245,-317.7"/>
<image xlink:href="../../images/foreignKeys.png" width="11px" height="12px" preserveAspectRatio="xMinYMin meet" x="250" y="-334.7"/>
<text text-anchor="start" x="265" y="-324.8" font-family="Helvetica,sans-Serif" font-size="11.00" fill="#000000">parameter_set_id</text>
<polygon fill="none" stroke="#000000" points="389,-317.7 389,-339.7 473,-339.7 473,-317.7 389,-317.7"/>
<text text-anchor="start" x="392" y="-325.4" font-family="Helvetica,sans-Serif" font-size="11.00" fill="#000000">int8[19]</text>
<polygon fill="#ffffff" stroke="transparent" points="245,-295.7 245,-317.7 389,-317.7 389,-295.7 245,-295.7"/>
<polygon fill="none" stroke="#000000" points="245,-295.7 245,-317.7 389,-317.7 389,-295.7 245,-295.7"/>
<text text-anchor="start" x="265" y="-302.8" font-family="Helvetica,sans-Serif" font-size="11.00" fill="#000000">risk_class</text>
<polygon fill="none" stroke="#000000" points="389,-295.7 389,-317.7 473,-317.7 473,-295.7 389,-295.7"/>
<text text-anchor="start" x="392" y="-303.4" font-family="Helvetica,sans-Serif" font-size="11.00" fill="#000000">varchar[20]</text>
<polygon fill="#ffffff" stroke="transparent" points="245,-273.7 245,-295.7 389,-295.7 389,-273.7 245,-273.7"/>
<polygon fill="none" stroke="#000000" points="245,-273.7 245,-295.7 389,-295.7 389,-273.7 245,-273.7"/>
<text text-anchor="start" x="265" y="-280.8" font-family="Helvetica,sans-Serif" font-size="11.00" fill="#000000">correlation_type</text>
<polygon fill="none" stroke="#000000" points="389,-273.7 389,-295.7 473,-295.7 473,-273.7 389,-273.7"/>
<text text-anchor="start" x="392" y="-281.4" font-family="Helvetica,sans-Serif" font-size="11.00" fill="#000000">varchar[20]</text>
<polygon fill="#ffffff" stroke="transparent" points="245,-251.7 245,-273.7 389,-273.7 389,-251.7 245,-251.7"/>
<polygon fill="none" stroke="#000000" points="245,-251.7 245,-273.7 389,-273.7 389,-251.7 245,-251.7"/>
<text text-anchor="start" x="265" y="-258.8" font-family="Helvetica,sans-Serif" font-size="11.00" fill="#000000">bucket_from</text>
<polygon fill="none" stroke="#000000" points="389,-251.7 389,-273.7 473,-273.7 473,-251.7 389,-251.7"/>
<text text-anchor="start" x="392" y="-259.4" font-family="Helvetica,sans-Serif" font-size="11.00" fill="#000000">varchar[10]</text>
<polygon fill="#ffffff" stroke="transparent" points="245,-229.7 245,-251.7 389,-251.7 389,-229.7 245,-229.7"/>
<polygon fill="none" stroke="#000000" points="245,-229.7 245,-251.7 389,-251.7 389,-229.7 245,-229.7"/>
<text text-anchor="start" x="265" y="-236.8" font-family="Helvetica,sans-Serif" font-size="11.00" fill="#000000">bucket_to</text>
<polygon fill="none" stroke="#000000" points="389,-229.7 389,-251.7 473,-251.7 473,-229.7 389,-229.7"/>
<text text-anchor="start" x="392" y="-237.4" font-family="Helvetica,sans-Serif" font-size="11.00" fill="#000000">varchar[10]</text>
<polygon fill="none" stroke="#000000" points="245,-207.7 245,-229.7 389,-229.7 389,-207.7 245,-207.7"/>
<text text-anchor="start" x="265" y="-214.8" font-family="Helvetica,sans-Serif" font-size="11.00" fill="#000000">risk_factor_from</text>
<polygon fill="none" stroke="#000000" points="389,-207.7 389,-229.7 473,-229.7 473,-207.7 389,-207.7"/>
<text text-anchor="start" x="392" y="-215.4" font-family="Helvetica,sans-Serif" font-size="11.00" fill="#000000">varchar[100]</text>
<polygon fill="none" stroke="#000000" points="245,-185.7 245,-207.7 389,-207.7 389,-185.7 245,-185.7"/>
<text text-anchor="start" x="265" y="-192.8" font-family="Helvetica,sans-Serif" font-size="11.00" fill="#000000">risk_factor_to</text>
<polygon fill="none" stroke="#000000" points="389,-185.7 389,-207.7 473,-207.7 473,-185.7 389,-185.7"/>
<text text-anchor="start" x="392" y="-193.4" font-family="Helvetica,sans-Serif" font-size="11.00" fill="#000000">varchar[100]</text>
<polygon fill="none" stroke="#000000" points="245,-163.7 245,-185.7 389,-185.7 389,-163.7 245,-163.7"/>
<text text-anchor="start" x="265" y="-170.8" font-family="Helvetica,sans-Serif" font-size="11.00" fill="#000000">correlation</text>
<polygon fill="none" stroke="#000000" points="389,-163.7 389,-185.7 473,-185.7 473,-163.7 389,-163.7"/>
<text text-anchor="start" x="392" y="-171.4" font-family="Helvetica,sans-Serif" font-size="11.00" fill="#000000">numeric[8,6]</text>
<polygon fill="none" stroke="#000000" points="245,-141.7 245,-163.7 389,-163.7 389,-141.7 245,-141.7"/>
<text text-anchor="start" x="265" y="-148.8" font-family="Helvetica,sans-Serif" font-size="11.00" fill="#000000">created_at</text>
<polygon fill="none" stroke="#000000" points="389,-141.7 389,-163.7 473,-163.7 473,-141.7 389,-141.7"/>
<text text-anchor="start" x="391.8807" y="-149.4" font-family="Helvetica,sans-Serif" font-size="11.00" fill="#000000">timestamp[29,6]</text>
<polygon fill="#ffffff" stroke="transparent" points="245,-122.7 245,-141.7 321,-141.7 321,-122.7 245,-122.7"/>
<polygon fill="none" stroke="#000000" points="245,-122.7 245,-141.7 321,-141.7 321,-122.7 245,-122.7"/>
<text text-anchor="start" x="248" y="-128.8" font-family="Helvetica,sans-Serif" font-size="11.00" fill="#000000">&lt; 1</text>
<polygon fill="#ffffff" stroke="transparent" points="321,-122.7 321,-141.7 389,-141.7 389,-122.7 321,-122.7"/>
<polygon fill="none" stroke="#000000" points="321,-122.7 321,-141.7 389,-141.7 389,-122.7 321,-122.7"/>
<text text-anchor="start" x="379.8862" y="-128.8" font-family="Helvetica,sans-Serif" font-size="11.00" fill="#000000"> &#160;</text>
<polygon fill="#ffffff" stroke="transparent" points="389,-122.7 389,-141.7 473,-141.7 473,-122.7 389,-122.7"/>
<polygon fill="none" stroke="#000000" points="389,-122.7 389,-141.7 473,-141.7 473,-122.7 389,-122.7"/>
<text text-anchor="start" x="454.4053" y="-128.8" font-family="Helvetica,sans-Serif" font-size="11.00" fill="#000000">0 &gt;</text>
<polygon fill="none" stroke="#000000" stroke-width="2" points="244,-121.7 244,-385.7 474,-385.7 474,-121.7 244,-121.7"/>
</a>
</g>
</g>
<!-- simm_correlations&#45;&gt;simm_parameter_sets -->
<g id="edge3" class="edge">
<title>simm_correlations:w&#45;&gt;simm_parameter_sets:e</title>
<path fill="none" stroke="#000000" d="M230.9557,-333.5911C216.0477,-346.7117 220.5607,-381.7 194,-381.7"/>
<polygon fill="#000000" stroke="#000000" points="237.445,-331.3311 246.184,-332.0997 241.2225,-330.0156 245,-328.7 245,-328.7 245,-328.7 241.2225,-330.0156 243.816,-325.3003 237.445,-331.3311 237.445,-331.3311"/>
<ellipse fill="none" stroke="#000000" cx="234.4231" cy="-332.3836" rx="3.2" ry="3.2"/>
</g>
<!-- simm_risk_weights -->
<g id="node5" class="node">
<title>simm_risk_weights</title>
<g id="a_node5"><a xlink:href="../../tables/simm_risk_weights.html" xlink:title="simm_risk_weights" target="_top">
<polygon fill="#ffffff" stroke="transparent" points="276.5,-38.2 276.5,-99.2 441.5,-99.2 441.5,-38.2 276.5,-38.2"/>
<polygon fill="#f5f5f5" stroke="transparent" points="277,-75.7 277,-98.7 442,-98.7 442,-75.7 277,-75.7"/>
<polygon fill="none" stroke="#000000" points="277,-75.7 277,-98.7 442,-98.7 442,-75.7 277,-75.7"/>
<text text-anchor="start" x="282" y="-84.3" font-family="Helvetica,sans-Serif" font-weight="bold" font-size="11.00" fill="#000000">simm_risk_weights</text>
<text text-anchor="start" x="407.5219" y="-83.8" font-family="Helvetica,sans-Serif" font-size="11.00" fill="#000000">[table]</text>
<polygon fill="none" stroke="#000000" points="277,-56.7 277,-75.7 442,-75.7 442,-56.7 277,-56.7"/>
<text text-anchor="start" x="280" y="-62.8" font-family="Helvetica,sans-Serif" font-size="11.00" fill="#000000">...</text>
<polygon fill="#ffffff" stroke="transparent" points="277,-37.7 277,-56.7 358,-56.7 358,-37.7 277,-37.7"/>
<polygon fill="none" stroke="#000000" points="277,-37.7 277,-56.7 358,-56.7 358,-37.7 277,-37.7"/>
<text text-anchor="start" x="280" y="-43.8" font-family="Helvetica,sans-Serif" font-size="11.00" fill="#000000">&lt; 1</text>
<polygon fill="#ffffff" stroke="transparent" points="358,-37.7 358,-56.7 400,-56.7 400,-37.7 358,-37.7"/>
<polygon fill="none" stroke="#000000" points="358,-37.7 358,-56.7 400,-56.7 400,-37.7 358,-37.7"/>
<text text-anchor="start" x="390.8862" y="-43.8" font-family="Helvetica,sans-Serif" font-size="11.00" fill="#000000"> &#160;</text>
<polygon fill="#ffffff" stroke="transparent" points="400,-37.7 400,-56.7 442,-56.7 442,-37.7 400,-37.7"/>
<polygon fill="none" stroke="#000000" points="400,-37.7 400,-56.7 442,-56.7 442,-37.7 400,-37.7"/>
<text text-anchor="start" x="432.8862" y="-43.8" font-family="Helvetica,sans-Serif" font-size="11.00" fill="#000000"> &#160;</text>
</a>
</g>
</g>
<!-- simm_risk_weights&#45;&gt;simm_parameter_sets -->
<g id="edge4" class="edge">
<title>simm_risk_weights:w&#45;&gt;simm_parameter_sets:e</title>
<path fill="none" stroke="#000000" d="M262.6578,-68.2681C248.0822,-74.4839 244.4001,-91.2672 235,-110.7 208.4777,-165.5297 254.9075,-381.7 194,-381.7"/>
<polygon fill="#000000" stroke="#000000" points="269.1252,-67.1101 277.6345,-69.2436 273.0626,-66.405 277,-65.7 277,-65.7 277,-65.7 273.0626,-66.405 276.3655,-62.1564 269.1252,-67.1101 269.1252,-67.1101"/>
<ellipse fill="none" stroke="#000000" cx="265.9753" cy="-67.6741" rx="3.2" ry="3.2"/>
</g>
</g>
</svg>
