<?xml version="1.0" encoding="UTF-8" standalone="no"?>
<!DOCTYPE svg PUBLIC "-//W3C//DTD SVG 1.1//EN"
 "http://www.w3.org/Graphics/SVG/1.1/DTD/svg11.dtd">
<!-- Generated by graphviz version 2.40.1 (20161225.0304)
 -->
<!-- Title: oneDegreeRelationshipsDiagram Pages: 1 -->
<svg width="534pt" height="250pt"
 viewBox="0.00 0.00 534.00 250.20" xmlns="http://www.w3.org/2000/svg" xmlns:xlink="http://www.w3.org/1999/xlink">
<g id="graph0" class="graph" transform="scale(1 1) rotate(0) translate(4 246.2)">
<title>oneDegreeRelationshipsDiagram</title>
<polygon fill="#ffffff" stroke="transparent" points="-4,4 -4,-246.2 530,-246.2 530,4 -4,4"/>
<text text-anchor="middle" x="72.4936" y="-7.3" font-family="Helvetica,sans-Serif" font-size="11.00" fill="#000000">Generated by SchemaSpy</text>
<!-- simm_bucket_mappings -->
<g id="node1" class="node">
<title>simm_bucket_mappings</title>
<g id="a_node1"><a xlink:href="../../tables/simm_bucket_mappings.html" xlink:title="simm_bucket_mappings" target="_top">
<polygon fill="#ffffff" stroke="transparent" points="243,-38.2 243,-238.2 518,-238.2 518,-38.2 243,-38.2"/>
<polygon fill="#f5f5f5" stroke="transparent" points="245.5,-213.2 245.5,-236.2 516.5,-236.2 516.5,-213.2 245.5,-213.2"/>
<polygon fill="none" stroke="#000000" points="245.5,-213.2 245.5,-236.2 516.5,-236.2 516.5,-213.2 245.5,-213.2"/>
<text text-anchor="start" x="250.5" y="-221.8" font-family="Helvetica,sans-Serif" font-weight="bold" font-size="11.00" fill="#000000">simm_bucket_mappings</text>
<text text-anchor="start" x="481.5437" y="-221.3" font-family="Helvetica,sans-Serif" font-size="11.00" fill="#000000">[table]</text>
<polygon fill="none" stroke="#000000" points="245.5,-191.2 245.5,-213.2 426.5,-213.2 426.5,-191.2 245.5,-191.2"/>
<image xlink:href="../../images/primaryKeys.png" width="11px" height="12px" preserveAspectRatio="xMinYMin meet" x="250.5" y="-208.2"/>
<text text-anchor="start" x="265.5" y="-198.3" font-family="Helvetica,sans-Serif" font-size="11.00" fill="#000000">id</text>
<polygon fill="none" stroke="#000000" points="426.5,-191.2 426.5,-213.2 516.5,-213.2 516.5,-191.2 426.5,-191.2"/>
<text text-anchor="start" x="429.5" y="-198.9" font-family="Helvetica,sans-Serif" font-size="11.00" fill="#000000">bigserial[19]</text>
<polygon fill="#ffffff" stroke="transparent" points="245.5,-169.2 245.5,-191.2 426.5,-191.2 426.5,-169.2 245.5,-169.2"/>
<polygon fill="none" stroke="#000000" points="245.5,-169.2 245.5,-191.2 426.5,-191.2 426.5,-169.2 245.5,-169.2"/>
<image xlink:href="../../images/foreignKeys.png" width="11px" height="12px" preserveAspectRatio="xMinYMin meet" x="250.5" y="-186.2"/>
<text text-anchor="start" x="265.5" y="-176.3" font-family="Helvetica,sans-Serif" font-size="11.00" fill="#000000">parameter_set_id</text>
<polygon fill="none" stroke="#000000" points="426.5,-169.2 426.5,-191.2 516.5,-191.2 516.5,-169.2 426.5,-169.2"/>
<text text-anchor="start" x="429.5" y="-176.9" font-family="Helvetica,sans-Serif" font-size="11.00" fill="#000000">int8[19]</text>
<polygon fill="#ffffff" stroke="transparent" points="245.5,-147.2 245.5,-169.2 426.5,-169.2 426.5,-147.2 245.5,-147.2"/>
<polygon fill="none" stroke="#000000" points="245.5,-147.2 245.5,-169.2 426.5,-169.2 426.5,-147.2 245.5,-147.2"/>
<text text-anchor="start" x="265.5" y="-154.3" font-family="Helvetica,sans-Serif" font-size="11.00" fill="#000000">risk_class</text>
<polygon fill="none" stroke="#000000" points="426.5,-147.2 426.5,-169.2 516.5,-169.2 516.5,-147.2 426.5,-147.2"/>
<text text-anchor="start" x="429.5" y="-154.9" font-family="Helvetica,sans-Serif" font-size="11.00" fill="#000000">varchar[20]</text>
<polygon fill="#ffffff" stroke="transparent" points="245.5,-125.2 245.5,-147.2 426.5,-147.2 426.5,-125.2 245.5,-125.2"/>
<polygon fill="none" stroke="#000000" points="245.5,-125.2 245.5,-147.2 426.5,-147.2 426.5,-125.2 245.5,-125.2"/>
<text text-anchor="start" x="265.5" y="-132.3" font-family="Helvetica,sans-Serif" font-size="11.00" fill="#000000">risk_factor</text>
<polygon fill="none" stroke="#000000" points="426.5,-125.2 426.5,-147.2 516.5,-147.2 516.5,-125.2 426.5,-125.2"/>
<text text-anchor="start" x="429.5" y="-132.9" font-family="Helvetica,sans-Serif" font-size="11.00" fill="#000000">varchar[100]</text>
<polygon fill="none" stroke="#000000" points="245.5,-103.2 245.5,-125.2 426.5,-125.2 426.5,-103.2 245.5,-103.2"/>
<text text-anchor="start" x="265.5" y="-110.3" font-family="Helvetica,sans-Serif" font-size="11.00" fill="#000000">bucket</text>
<polygon fill="none" stroke="#000000" points="426.5,-103.2 426.5,-125.2 516.5,-125.2 516.5,-103.2 426.5,-103.2"/>
<text text-anchor="start" x="429.5" y="-110.9" font-family="Helvetica,sans-Serif" font-size="11.00" fill="#000000">varchar[10]</text>
<polygon fill="none" stroke="#000000" points="245.5,-81.2 245.5,-103.2 426.5,-103.2 426.5,-81.2 245.5,-81.2"/>
<text text-anchor="start" x="265.5" y="-88.3" font-family="Helvetica,sans-Serif" font-size="11.00" fill="#000000">description</text>
<polygon fill="none" stroke="#000000" points="426.5,-81.2 426.5,-103.2 516.5,-103.2 516.5,-81.2 426.5,-81.2"/>
<text text-anchor="start" x="429.0043" y="-88.9" font-family="Helvetica,sans-Serif" font-size="11.00" fill="#000000">text[2147483647]</text>
<polygon fill="none" stroke="#000000" points="245.5,-59.2 245.5,-81.2 426.5,-81.2 426.5,-59.2 245.5,-59.2"/>
<text text-anchor="start" x="265.5" y="-66.3" font-family="Helvetica,sans-Serif" font-size="11.00" fill="#000000">created_at</text>
<polygon fill="none" stroke="#000000" points="426.5,-59.2 426.5,-81.2 516.5,-81.2 516.5,-59.2 426.5,-59.2"/>
<text text-anchor="start" x="429.5" y="-66.9" font-family="Helvetica,sans-Serif" font-size="11.00" fill="#000000">timestamp[29,6]</text>
<polygon fill="#ffffff" stroke="transparent" points="245.5,-40.2 245.5,-59.2 340.5,-59.2 340.5,-40.2 245.5,-40.2"/>
<polygon fill="none" stroke="#000000" points="245.5,-40.2 245.5,-59.2 340.5,-59.2 340.5,-40.2 245.5,-40.2"/>
<text text-anchor="start" x="248.5" y="-46.3" font-family="Helvetica,sans-Serif" font-size="11.00" fill="#000000">&lt; 1</text>
<polygon fill="#ffffff" stroke="transparent" points="340.5,-40.2 340.5,-59.2 426.5,-59.2 426.5,-40.2 340.5,-40.2"/>
<polygon fill="none" stroke="#000000" points="340.5,-40.2 340.5,-59.2 426.5,-59.2 426.5,-40.2 340.5,-40.2"/>
<text text-anchor="start" x="417.3862" y="-46.3" font-family="Helvetica,sans-Serif" font-size="11.00" fill="#000000"> &#160;</text>
<polygon fill="#ffffff" stroke="transparent" points="426.5,-40.2 426.5,-59.2 516.5,-59.2 516.5,-40.2 426.5,-40.2"/>
<polygon fill="none" stroke="#000000" points="426.5,-40.2 426.5,-59.2 516.5,-59.2 516.5,-40.2 426.5,-40.2"/>
<text text-anchor="start" x="497.9053" y="-46.3" font-family="Helvetica,sans-Serif" font-size="11.00" fill="#000000">0 &gt;</text>
<polygon fill="none" stroke="#000000" stroke-width="2" points="244,-39.2 244,-237.2 517,-237.2 517,-39.2 244,-39.2"/>
</a>
</g>
</g>
<!-- simm_parameter_sets -->
<g id="node2" class="node">
<title>simm_parameter_sets</title>
<g id="a_node2"><a xlink:href="../../tables/simm_parameter_sets.html" xlink:title="simm_parameter_sets" target="_top">
<polygon fill="#ffffff" stroke="transparent" points="8,-43.7 8,-214.7 194,-214.7 194,-43.7 8,-43.7"/>
<polygon fill="#f5f5f5" stroke="transparent" points="8,-191.2 8,-214.2 194,-214.2 194,-191.2 8,-191.2"/>
<polygon fill="none" stroke="#000000" points="8,-191.2 8,-214.2 194,-214.2 194,-191.2 8,-191.2"/>
<text text-anchor="start" x="13" y="-199.8" font-family="Helvetica,sans-Serif" font-weight="bold" font-size="11.00" fill="#000000">simm_parameter_sets</text>
<text text-anchor="start" x="159.5219" y="-199.3" font-family="Helvetica,sans-Serif" font-size="11.00" fill="#000000">[table]</text>
<polygon fill="none" stroke="#000000" points="8,-169.2 8,-191.2 194,-191.2 194,-169.2 8,-169.2"/>
<image xlink:href="../../images/primaryKeys.png" width="11px" height="12px" preserveAspectRatio="xMinYMin meet" x="13" y="-186.2"/>
<text text-anchor="start" x="37" y="-176.3" font-family="Helvetica,sans-Serif" font-size="11.00" fill="#000000">id</text>
<polygon fill="#ffffff" stroke="transparent" points="8,-147.2 8,-169.2 194,-169.2 194,-147.2 8,-147.2"/>
<polygon fill="none" stroke="#000000" points="8,-147.2 8,-169.2 194,-169.2 194,-147.2 8,-147.2"/>
<text text-anchor="start" x="37" y="-154.3" font-family="Helvetica,sans-Serif" font-size="11.00" fill="#000000">version_name</text>
<polygon fill="#ffffff" stroke="transparent" points="8,-125.2 8,-147.2 194,-147.2 194,-125.2 8,-125.2"/>
<polygon fill="none" stroke="#000000" points="8,-125.2 8,-147.2 194,-147.2 194,-125.2 8,-125.2"/>
<text text-anchor="start" x="37" y="-132.3" font-family="Helvetica,sans-Serif" font-size="11.00" fill="#000000">isda_version</text>
<polygon fill="#ffffff" stroke="transparent" points="8,-103.2 8,-125.2 194,-125.2 194,-103.2 8,-103.2"/>
<polygon fill="none" stroke="#000000" points="8,-103.2 8,-125.2 194,-125.2 194,-103.2 8,-103.2"/>
<text text-anchor="start" x="37" y="-110.3" font-family="Helvetica,sans-Serif" font-size="11.00" fill="#000000">effective_date</text>
<polygon fill="#ffffff" stroke="transparent" points="8,-81.2 8,-103.2 194,-103.2 194,-81.2 8,-81.2"/>
<polygon fill="none" stroke="#000000" points="8,-81.2 8,-103.2 194,-103.2 194,-81.2 8,-81.2"/>
<text text-anchor="start" x="37" y="-88.3" font-family="Helvetica,sans-Serif" font-size="11.00" fill="#000000">is_active</text>
<polygon fill="none" stroke="#000000" points="8,-62.2 8,-81.2 194,-81.2 194,-62.2 8,-62.2"/>
<text text-anchor="start" x="11" y="-68.3" font-family="Helvetica,sans-Serif" font-size="11.00" fill="#000000">...</text>
<polygon fill="#ffffff" stroke="transparent" points="8,-43.2 8,-62.2 90,-62.2 90,-43.2 8,-43.2"/>
<polygon fill="none" stroke="#000000" points="8,-43.2 8,-62.2 90,-62.2 90,-43.2 8,-43.2"/>
<text text-anchor="start" x="11" y="-49.3" font-family="Helvetica,sans-Serif" font-size="11.00" fill="#000000"> &#160;</text>
<polygon fill="#ffffff" stroke="transparent" points="90,-43.2 90,-62.2 137,-62.2 137,-43.2 90,-43.2"/>
<polygon fill="none" stroke="#000000" points="90,-43.2 90,-62.2 137,-62.2 137,-43.2 90,-43.2"/>
<text text-anchor="start" x="127.8862" y="-49.3" font-family="Helvetica,sans-Serif" font-size="11.00" fill="#000000"> &#160;</text>
<polygon fill="#ffffff" stroke="transparent" points="137,-43.2 137,-62.2 194,-62.2 194,-43.2 137,-43.2"/>
<polygon fill="none" stroke="#000000" points="137,-43.2 137,-62.2 194,-62.2 194,-43.2 137,-43.2"/>
<text text-anchor="start" x="175.4053" y="-49.3" font-family="Helvetica,sans-Serif" font-size="11.00" fill="#000000">4 &gt;</text>
</a>
</g>
</g>
<!-- simm_bucket_mappings&#45;&gt;simm_parameter_sets -->
<g id="edge1" class="edge">
<title>simm_bucket_mappings:w&#45;&gt;simm_parameter_sets:e</title>
<path fill="none" stroke="#000000" d="M231.0156,-180.2C218.6771,-180.2 211.1667,-180.2 194,-180.2"/>
<polygon fill="#000000" stroke="#000000" points="237.5,-180.2001 245.5,-183.8 241.5,-180.2 245.5,-180.2 245.5,-180.2 245.5,-180.2 241.5,-180.2 245.5,-176.6 237.5,-180.2001 237.5,-180.2001"/>
<ellipse fill="none" stroke="#000000" cx="234.3" cy="-180.2001" rx="3.2" ry="3.2"/>
</g>
</g>
</svg>
