<?xml version="1.0" encoding="UTF-8" standalone="no"?>
<!DOCTYPE svg PUBLIC "-//W3C//DTD SVG 1.1//EN"
 "http://www.w3.org/Graphics/SVG/1.1/DTD/svg11.dtd">
<!-- Generated by graphviz version 2.40.1 (20161225.0304)
 -->
<!-- Title: oneDegreeRelationshipsDiagram Pages: 1 -->
<svg width="491pt" height="316pt"
 viewBox="0.00 0.00 491.00 316.20" xmlns="http://www.w3.org/2000/svg" xmlns:xlink="http://www.w3.org/1999/xlink">
<g id="graph0" class="graph" transform="scale(1 1) rotate(0) translate(4 312.2)">
<title>oneDegreeRelationshipsDiagram</title>
<polygon fill="#ffffff" stroke="transparent" points="-4,4 -4,-312.2 487,-312.2 487,4 -4,4"/>
<text text-anchor="middle" x="72.4936" y="-7.3" font-family="Helvetica,sans-Serif" font-size="11.00" fill="#000000">Generated by SchemaSpy</text>
<!-- simm_correlations -->
<g id="node1" class="node">
<title>simm_correlations</title>
<g id="a_node1"><a xlink:href="../../tables/simm_correlations.html" xlink:title="simm_correlations" target="_top">
<polygon fill="#ffffff" stroke="transparent" points="243,-38.2 243,-304.2 475,-304.2 475,-38.2 243,-38.2"/>
<polygon fill="#f5f5f5" stroke="transparent" points="245,-279.2 245,-302.2 473,-302.2 473,-279.2 245,-279.2"/>
<polygon fill="none" stroke="#000000" points="245,-279.2 245,-302.2 473,-302.2 473,-279.2 245,-279.2"/>
<text text-anchor="start" x="250" y="-287.8" font-family="Helvetica,sans-Serif" font-weight="bold" font-size="11.00" fill="#000000">simm_correlations</text>
<text text-anchor="start" x="438.0437" y="-287.3" font-family="Helvetica,sans-Serif" font-size="11.00" fill="#000000">[table]</text>
<polygon fill="none" stroke="#000000" points="245,-257.2 245,-279.2 389,-279.2 389,-257.2 245,-257.2"/>
<image xlink:href="../../images/primaryKeys.png" width="11px" height="12px" preserveAspectRatio="xMinYMin meet" x="250" y="-274.2"/>
<text text-anchor="start" x="265" y="-264.3" font-family="Helvetica,sans-Serif" font-size="11.00" fill="#000000">id</text>
<polygon fill="none" stroke="#000000" points="389,-257.2 389,-279.2 473,-279.2 473,-257.2 389,-257.2"/>
<text text-anchor="start" x="392" y="-264.9" font-family="Helvetica,sans-Serif" font-size="11.00" fill="#000000">bigserial[19]</text>
<polygon fill="#ffffff" stroke="transparent" points="245,-235.2 245,-257.2 389,-257.2 389,-235.2 245,-235.2"/>
<polygon fill="none" stroke="#000000" points="245,-235.2 245,-257.2 389,-257.2 389,-235.2 245,-235.2"/>
<image xlink:href="../../images/foreignKeys.png" width="11px" height="12px" preserveAspectRatio="xMinYMin meet" x="250" y="-252.2"/>
<text text-anchor="start" x="265" y="-242.3" font-family="Helvetica,sans-Serif" font-size="11.00" fill="#000000">parameter_set_id</text>
<polygon fill="none" stroke="#000000" points="389,-235.2 389,-257.2 473,-257.2 473,-235.2 389,-235.2"/>
<text text-anchor="start" x="392" y="-242.9" font-family="Helvetica,sans-Serif" font-size="11.00" fill="#000000">int8[19]</text>
<polygon fill="#ffffff" stroke="transparent" points="245,-213.2 245,-235.2 389,-235.2 389,-213.2 245,-213.2"/>
<polygon fill="none" stroke="#000000" points="245,-213.2 245,-235.2 389,-235.2 389,-213.2 245,-213.2"/>
<text text-anchor="start" x="265" y="-220.3" font-family="Helvetica,sans-Serif" font-size="11.00" fill="#000000">risk_class</text>
<polygon fill="none" stroke="#000000" points="389,-213.2 389,-235.2 473,-235.2 473,-213.2 389,-213.2"/>
<text text-anchor="start" x="392" y="-220.9" font-family="Helvetica,sans-Serif" font-size="11.00" fill="#000000">varchar[20]</text>
<polygon fill="#ffffff" stroke="transparent" points="245,-191.2 245,-213.2 389,-213.2 389,-191.2 245,-191.2"/>
<polygon fill="none" stroke="#000000" points="245,-191.2 245,-213.2 389,-213.2 389,-191.2 245,-191.2"/>
<text text-anchor="start" x="265" y="-198.3" font-family="Helvetica,sans-Serif" font-size="11.00" fill="#000000">correlation_type</text>
<polygon fill="none" stroke="#000000" points="389,-191.2 389,-213.2 473,-213.2 473,-191.2 389,-191.2"/>
<text text-anchor="start" x="392" y="-198.9" font-family="Helvetica,sans-Serif" font-size="11.00" fill="#000000">varchar[20]</text>
<polygon fill="#ffffff" stroke="transparent" points="245,-169.2 245,-191.2 389,-191.2 389,-169.2 245,-169.2"/>
<polygon fill="none" stroke="#000000" points="245,-169.2 245,-191.2 389,-191.2 389,-169.2 245,-169.2"/>
<text text-anchor="start" x="265" y="-176.3" font-family="Helvetica,sans-Serif" font-size="11.00" fill="#000000">bucket_from</text>
<polygon fill="none" stroke="#000000" points="389,-169.2 389,-191.2 473,-191.2 473,-169.2 389,-169.2"/>
<text text-anchor="start" x="392" y="-176.9" font-family="Helvetica,sans-Serif" font-size="11.00" fill="#000000">varchar[10]</text>
<polygon fill="#ffffff" stroke="transparent" points="245,-147.2 245,-169.2 389,-169.2 389,-147.2 245,-147.2"/>
<polygon fill="none" stroke="#000000" points="245,-147.2 245,-169.2 389,-169.2 389,-147.2 245,-147.2"/>
<text text-anchor="start" x="265" y="-154.3" font-family="Helvetica,sans-Serif" font-size="11.00" fill="#000000">bucket_to</text>
<polygon fill="none" stroke="#000000" points="389,-147.2 389,-169.2 473,-169.2 473,-147.2 389,-147.2"/>
<text text-anchor="start" x="392" y="-154.9" font-family="Helvetica,sans-Serif" font-size="11.00" fill="#000000">varchar[10]</text>
<polygon fill="none" stroke="#000000" points="245,-125.2 245,-147.2 389,-147.2 389,-125.2 245,-125.2"/>
<text text-anchor="start" x="265" y="-132.3" font-family="Helvetica,sans-Serif" font-size="11.00" fill="#000000">risk_factor_from</text>
<polygon fill="none" stroke="#000000" points="389,-125.2 389,-147.2 473,-147.2 473,-125.2 389,-125.2"/>
<text text-anchor="start" x="392" y="-132.9" font-family="Helvetica,sans-Serif" font-size="11.00" fill="#000000">varchar[100]</text>
<polygon fill="none" stroke="#000000" points="245,-103.2 245,-125.2 389,-125.2 389,-103.2 245,-103.2"/>
<text text-anchor="start" x="265" y="-110.3" font-family="Helvetica,sans-Serif" font-size="11.00" fill="#000000">risk_factor_to</text>
<polygon fill="none" stroke="#000000" points="389,-103.2 389,-125.2 473,-125.2 473,-103.2 389,-103.2"/>
<text text-anchor="start" x="392" y="-110.9" font-family="Helvetica,sans-Serif" font-size="11.00" fill="#000000">varchar[100]</text>
<polygon fill="none" stroke="#000000" points="245,-81.2 245,-103.2 389,-103.2 389,-81.2 245,-81.2"/>
<text text-anchor="start" x="265" y="-88.3" font-family="Helvetica,sans-Serif" font-size="11.00" fill="#000000">correlation</text>
<polygon fill="none" stroke="#000000" points="389,-81.2 389,-103.2 473,-103.2 473,-81.2 389,-81.2"/>
<text text-anchor="start" x="392" y="-88.9" font-family="Helvetica,sans-Serif" font-size="11.00" fill="#000000">numeric[8,6]</text>
<polygon fill="none" stroke="#000000" points="245,-59.2 245,-81.2 389,-81.2 389,-59.2 245,-59.2"/>
<text text-anchor="start" x="265" y="-66.3" font-family="Helvetica,sans-Serif" font-size="11.00" fill="#000000">created_at</text>
<polygon fill="none" stroke="#000000" points="389,-59.2 389,-81.2 473,-81.2 473,-59.2 389,-59.2"/>
<text text-anchor="start" x="391.8807" y="-66.9" font-family="Helvetica,sans-Serif" font-size="11.00" fill="#000000">timestamp[29,6]</text>
<polygon fill="#ffffff" stroke="transparent" points="245,-40.2 245,-59.2 321,-59.2 321,-40.2 245,-40.2"/>
<polygon fill="none" stroke="#000000" points="245,-40.2 245,-59.2 321,-59.2 321,-40.2 245,-40.2"/>
<text text-anchor="start" x="248" y="-46.3" font-family="Helvetica,sans-Serif" font-size="11.00" fill="#000000">&lt; 1</text>
<polygon fill="#ffffff" stroke="transparent" points="321,-40.2 321,-59.2 389,-59.2 389,-40.2 321,-40.2"/>
<polygon fill="none" stroke="#000000" points="321,-40.2 321,-59.2 389,-59.2 389,-40.2 321,-40.2"/>
<text text-anchor="start" x="379.8862" y="-46.3" font-family="Helvetica,sans-Serif" font-size="11.00" fill="#000000"> &#160;</text>
<polygon fill="#ffffff" stroke="transparent" points="389,-40.2 389,-59.2 473,-59.2 473,-40.2 389,-40.2"/>
<polygon fill="none" stroke="#000000" points="389,-40.2 389,-59.2 473,-59.2 473,-40.2 389,-40.2"/>
<text text-anchor="start" x="454.4053" y="-46.3" font-family="Helvetica,sans-Serif" font-size="11.00" fill="#000000">0 &gt;</text>
<polygon fill="none" stroke="#000000" stroke-width="2" points="244,-39.2 244,-303.2 474,-303.2 474,-39.2 244,-39.2"/>
</a>
</g>
</g>
<!-- simm_parameter_sets -->
<g id="node2" class="node">
<title>simm_parameter_sets</title>
<g id="a_node2"><a xlink:href="../../tables/simm_parameter_sets.html" xlink:title="simm_parameter_sets" target="_top">
<polygon fill="#ffffff" stroke="transparent" points="8,-109.7 8,-280.7 194,-280.7 194,-109.7 8,-109.7"/>
<polygon fill="#f5f5f5" stroke="transparent" points="8,-257.2 8,-280.2 194,-280.2 194,-257.2 8,-257.2"/>
<polygon fill="none" stroke="#000000" points="8,-257.2 8,-280.2 194,-280.2 194,-257.2 8,-257.2"/>
<text text-anchor="start" x="13" y="-265.8" font-family="Helvetica,sans-Serif" font-weight="bold" font-size="11.00" fill="#000000">simm_parameter_sets</text>
<text text-anchor="start" x="159.5219" y="-265.3" font-family="Helvetica,sans-Serif" font-size="11.00" fill="#000000">[table]</text>
<polygon fill="none" stroke="#000000" points="8,-235.2 8,-257.2 194,-257.2 194,-235.2 8,-235.2"/>
<image xlink:href="../../images/primaryKeys.png" width="11px" height="12px" preserveAspectRatio="xMinYMin meet" x="13" y="-252.2"/>
<text text-anchor="start" x="37" y="-242.3" font-family="Helvetica,sans-Serif" font-size="11.00" fill="#000000">id</text>
<polygon fill="#ffffff" stroke="transparent" points="8,-213.2 8,-235.2 194,-235.2 194,-213.2 8,-213.2"/>
<polygon fill="none" stroke="#000000" points="8,-213.2 8,-235.2 194,-235.2 194,-213.2 8,-213.2"/>
<text text-anchor="start" x="37" y="-220.3" font-family="Helvetica,sans-Serif" font-size="11.00" fill="#000000">version_name</text>
<polygon fill="#ffffff" stroke="transparent" points="8,-191.2 8,-213.2 194,-213.2 194,-191.2 8,-191.2"/>
<polygon fill="none" stroke="#000000" points="8,-191.2 8,-213.2 194,-213.2 194,-191.2 8,-191.2"/>
<text text-anchor="start" x="37" y="-198.3" font-family="Helvetica,sans-Serif" font-size="11.00" fill="#000000">isda_version</text>
<polygon fill="#ffffff" stroke="transparent" points="8,-169.2 8,-191.2 194,-191.2 194,-169.2 8,-169.2"/>
<polygon fill="none" stroke="#000000" points="8,-169.2 8,-191.2 194,-191.2 194,-169.2 8,-169.2"/>
<text text-anchor="start" x="37" y="-176.3" font-family="Helvetica,sans-Serif" font-size="11.00" fill="#000000">effective_date</text>
<polygon fill="#ffffff" stroke="transparent" points="8,-147.2 8,-169.2 194,-169.2 194,-147.2 8,-147.2"/>
<polygon fill="none" stroke="#000000" points="8,-147.2 8,-169.2 194,-169.2 194,-147.2 8,-147.2"/>
<text text-anchor="start" x="37" y="-154.3" font-family="Helvetica,sans-Serif" font-size="11.00" fill="#000000">is_active</text>
<polygon fill="none" stroke="#000000" points="8,-128.2 8,-147.2 194,-147.2 194,-128.2 8,-128.2"/>
<text text-anchor="start" x="11" y="-134.3" font-family="Helvetica,sans-Serif" font-size="11.00" fill="#000000">...</text>
<polygon fill="#ffffff" stroke="transparent" points="8,-109.2 8,-128.2 90,-128.2 90,-109.2 8,-109.2"/>
<polygon fill="none" stroke="#000000" points="8,-109.2 8,-128.2 90,-128.2 90,-109.2 8,-109.2"/>
<text text-anchor="start" x="11" y="-115.3" font-family="Helvetica,sans-Serif" font-size="11.00" fill="#000000"> &#160;</text>
<polygon fill="#ffffff" stroke="transparent" points="90,-109.2 90,-128.2 137,-128.2 137,-109.2 90,-109.2"/>
<polygon fill="none" stroke="#000000" points="90,-109.2 90,-128.2 137,-128.2 137,-109.2 90,-109.2"/>
<text text-anchor="start" x="127.8862" y="-115.3" font-family="Helvetica,sans-Serif" font-size="11.00" fill="#000000"> &#160;</text>
<polygon fill="#ffffff" stroke="transparent" points="137,-109.2 137,-128.2 194,-128.2 194,-109.2 137,-109.2"/>
<polygon fill="none" stroke="#000000" points="137,-109.2 137,-128.2 194,-128.2 194,-109.2 137,-109.2"/>
<text text-anchor="start" x="175.4053" y="-115.3" font-family="Helvetica,sans-Serif" font-size="11.00" fill="#000000">4 &gt;</text>
</a>
</g>
</g>
<!-- simm_correlations&#45;&gt;simm_parameter_sets -->
<g id="edge1" class="edge">
<title>simm_correlations:w&#45;&gt;simm_parameter_sets:e</title>
<path fill="none" stroke="#000000" d="M230.276,-246.2C218.2815,-246.2 210.8229,-246.2 194,-246.2"/>
<polygon fill="#000000" stroke="#000000" points="237,-246.2001 245,-249.8 241,-246.2 245,-246.2 245,-246.2 245,-246.2 241,-246.2 245,-242.6 237,-246.2001 237,-246.2001"/>
<ellipse fill="none" stroke="#000000" cx="233.8" cy="-246.2001" rx="3.2" ry="3.2"/>
</g>
</g>
</svg>
