<?xml version="1.0" encoding="UTF-8" standalone="no"?>
<!DOCTYPE svg PUBLIC "-//W3C//DTD SVG 1.1//EN"
 "http://www.w3.org/Graphics/SVG/1.1/DTD/svg11.dtd">
<!-- Generated by graphviz version 2.40.1 (20161225.0304)
 -->
<!-- Title: twoDegreesRelationshipsDiagram Pages: 1 -->
<svg width="757pt" height="377pt"
 viewBox="0.00 0.00 757.00 376.70" xmlns="http://www.w3.org/2000/svg" xmlns:xlink="http://www.w3.org/1999/xlink">
<g id="graph0" class="graph" transform="scale(1 1) rotate(0) translate(4 372.7)">
<title>twoDegreesRelationshipsDiagram</title>
<polygon fill="#ffffff" stroke="transparent" points="-4,4 -4,-372.7 753,-372.7 753,4 -4,4"/>
<text text-anchor="middle" x="72.4936" y="-7.3" font-family="Helvetica,sans-Serif" font-size="11.00" fill="#000000">Generated by SchemaSpy</text>
<!-- simm_calculation_audit -->
<g id="node1" class="node">
<title>simm_calculation_audit</title>
<g id="a_node1"><a xlink:href="../../tables/simm_calculation_audit.html" xlink:title="simm_calculation_audit" target="_top">
<polygon fill="#ffffff" stroke="transparent" points="504.5,-303.7 504.5,-364.7 700.5,-364.7 700.5,-303.7 504.5,-303.7"/>
<polygon fill="#f5f5f5" stroke="transparent" points="504.5,-341.2 504.5,-364.2 700.5,-364.2 700.5,-341.2 504.5,-341.2"/>
<polygon fill="none" stroke="#000000" points="504.5,-341.2 504.5,-364.2 700.5,-364.2 700.5,-341.2 504.5,-341.2"/>
<text text-anchor="start" x="509.5" y="-349.8" font-family="Helvetica,sans-Serif" font-weight="bold" font-size="11.00" fill="#000000">simm_calculation_audit</text>
<text text-anchor="start" x="666.0219" y="-349.3" font-family="Helvetica,sans-Serif" font-size="11.00" fill="#000000">[table]</text>
<polygon fill="none" stroke="#000000" points="504.5,-322.2 504.5,-341.2 700.5,-341.2 700.5,-322.2 504.5,-322.2"/>
<text text-anchor="start" x="507.5" y="-328.3" font-family="Helvetica,sans-Serif" font-size="11.00" fill="#000000">...</text>
<polygon fill="#ffffff" stroke="transparent" points="504.5,-303.2 504.5,-322.2 600.5,-322.2 600.5,-303.2 504.5,-303.2"/>
<polygon fill="none" stroke="#000000" points="504.5,-303.2 504.5,-322.2 600.5,-322.2 600.5,-303.2 504.5,-303.2"/>
<text text-anchor="start" x="507.5" y="-309.3" font-family="Helvetica,sans-Serif" font-size="11.00" fill="#000000">&lt; 1</text>
<polygon fill="#ffffff" stroke="transparent" points="600.5,-303.2 600.5,-322.2 650.5,-322.2 650.5,-303.2 600.5,-303.2"/>
<polygon fill="none" stroke="#000000" points="600.5,-303.2 600.5,-322.2 650.5,-322.2 650.5,-303.2 600.5,-303.2"/>
<text text-anchor="start" x="641.3862" y="-309.3" font-family="Helvetica,sans-Serif" font-size="11.00" fill="#000000"> &#160;</text>
<polygon fill="#ffffff" stroke="transparent" points="650.5,-303.2 650.5,-322.2 700.5,-322.2 700.5,-303.2 650.5,-303.2"/>
<polygon fill="none" stroke="#000000" points="650.5,-303.2 650.5,-322.2 700.5,-322.2 700.5,-303.2 650.5,-303.2"/>
<text text-anchor="start" x="691.3862" y="-309.3" font-family="Helvetica,sans-Serif" font-size="11.00" fill="#000000"> &#160;</text>
</a>
</g>
</g>
<!-- simm_calculations -->
<g id="node2" class="node">
<title>simm_calculations</title>
<g id="a_node2"><a xlink:href="../../tables/simm_calculations.html" xlink:title="simm_calculations" target="_top">
<polygon fill="#ffffff" stroke="transparent" points="243,-74.7 243,-311.7 415,-311.7 415,-74.7 243,-74.7"/>
<polygon fill="#f5f5f5" stroke="transparent" points="243,-288.2 243,-311.2 415,-311.2 415,-288.2 243,-288.2"/>
<polygon fill="none" stroke="#000000" points="243,-288.2 243,-311.2 415,-311.2 415,-288.2 243,-288.2"/>
<text text-anchor="start" x="248" y="-296.8" font-family="Helvetica,sans-Serif" font-weight="bold" font-size="11.00" fill="#000000">simm_calculations</text>
<text text-anchor="start" x="380.0437" y="-296.3" font-family="Helvetica,sans-Serif" font-size="11.00" fill="#000000">[table]</text>
<polygon fill="none" stroke="#000000" points="243,-266.2 243,-288.2 415,-288.2 415,-266.2 243,-266.2"/>
<image xlink:href="../../images/primaryKeys.png" width="11px" height="12px" preserveAspectRatio="xMinYMin meet" x="248" y="-283.2"/>
<text text-anchor="start" x="263" y="-273.3" font-family="Helvetica,sans-Serif" font-size="11.00" fill="#000000">id</text>
<polygon fill="#ffffff" stroke="transparent" points="243,-244.2 243,-266.2 415,-266.2 415,-244.2 243,-244.2"/>
<polygon fill="none" stroke="#000000" points="243,-244.2 243,-266.2 415,-266.2 415,-244.2 243,-244.2"/>
<text text-anchor="start" x="263" y="-251.3" font-family="Helvetica,sans-Serif" font-size="11.00" fill="#000000">calculation_id</text>
<polygon fill="#ffffff" stroke="transparent" points="243,-222.2 243,-244.2 415,-244.2 415,-222.2 243,-222.2"/>
<polygon fill="none" stroke="#000000" points="243,-222.2 243,-244.2 415,-244.2 415,-222.2 243,-222.2"/>
<image xlink:href="../../images/foreignKeys.png" width="11px" height="12px" preserveAspectRatio="xMinYMin meet" x="248" y="-239.2"/>
<text text-anchor="start" x="263" y="-229.3" font-family="Helvetica,sans-Serif" font-size="11.00" fill="#000000">upload_id</text>
<polygon fill="none" stroke="#000000" points="243,-200.2 243,-222.2 415,-222.2 415,-200.2 243,-200.2"/>
<image xlink:href="../../images/foreignKeys.png" width="11px" height="12px" preserveAspectRatio="xMinYMin meet" x="248" y="-217.2"/>
<text text-anchor="start" x="263" y="-207.3" font-family="Helvetica,sans-Serif" font-size="11.00" fill="#000000">parameter_set_id</text>
<polygon fill="#ffffff" stroke="transparent" points="243,-178.2 243,-200.2 415,-200.2 415,-178.2 243,-178.2"/>
<polygon fill="none" stroke="#000000" points="243,-178.2 243,-200.2 415,-200.2 415,-178.2 243,-178.2"/>
<text text-anchor="start" x="263" y="-185.3" font-family="Helvetica,sans-Serif" font-size="11.00" fill="#000000">portfolio_id</text>
<polygon fill="#ffffff" stroke="transparent" points="243,-156.2 243,-178.2 415,-178.2 415,-156.2 243,-156.2"/>
<polygon fill="none" stroke="#000000" points="243,-156.2 243,-178.2 415,-178.2 415,-156.2 243,-156.2"/>
<text text-anchor="start" x="263" y="-163.3" font-family="Helvetica,sans-Serif" font-size="11.00" fill="#000000">calculation_date</text>
<polygon fill="#ffffff" stroke="transparent" points="243,-134.2 243,-156.2 415,-156.2 415,-134.2 243,-134.2"/>
<polygon fill="none" stroke="#000000" points="243,-134.2 243,-156.2 415,-156.2 415,-134.2 243,-134.2"/>
<text text-anchor="start" x="263" y="-141.3" font-family="Helvetica,sans-Serif" font-size="11.00" fill="#000000">calculation_status</text>
<polygon fill="#ffffff" stroke="transparent" points="243,-112.2 243,-134.2 415,-134.2 415,-112.2 243,-112.2"/>
<polygon fill="none" stroke="#000000" points="243,-112.2 243,-134.2 415,-134.2 415,-112.2 243,-112.2"/>
<text text-anchor="start" x="263" y="-119.3" font-family="Helvetica,sans-Serif" font-size="11.00" fill="#000000">created_at</text>
<polygon fill="none" stroke="#000000" points="243,-93.2 243,-112.2 415,-112.2 415,-93.2 243,-93.2"/>
<text text-anchor="start" x="246" y="-99.3" font-family="Helvetica,sans-Serif" font-size="11.00" fill="#000000">...</text>
<polygon fill="#ffffff" stroke="transparent" points="243,-74.2 243,-93.2 323,-93.2 323,-74.2 243,-74.2"/>
<polygon fill="none" stroke="#000000" points="243,-74.2 243,-93.2 323,-93.2 323,-74.2 243,-74.2"/>
<text text-anchor="start" x="246" y="-80.3" font-family="Helvetica,sans-Serif" font-size="11.00" fill="#000000">&lt; 2</text>
<polygon fill="#ffffff" stroke="transparent" points="323,-74.2 323,-93.2 364,-93.2 364,-74.2 323,-74.2"/>
<polygon fill="none" stroke="#000000" points="323,-74.2 323,-93.2 364,-93.2 364,-74.2 323,-74.2"/>
<text text-anchor="start" x="354.8862" y="-80.3" font-family="Helvetica,sans-Serif" font-size="11.00" fill="#000000"> &#160;</text>
<polygon fill="#ffffff" stroke="transparent" points="364,-74.2 364,-93.2 415,-93.2 415,-74.2 364,-74.2"/>
<polygon fill="none" stroke="#000000" points="364,-74.2 364,-93.2 415,-93.2 415,-74.2 364,-74.2"/>
<text text-anchor="start" x="396.4053" y="-80.3" font-family="Helvetica,sans-Serif" font-size="11.00" fill="#000000">2 &gt;</text>
</a>
</g>
</g>
<!-- simm_calculation_audit&#45;&gt;simm_calculations -->
<g id="edge1" class="edge">
<title>simm_calculation_audit:w&#45;&gt;simm_calculations:e</title>
<path fill="none" stroke="#000000" d="M490.0615,-329.1491C458.1582,-319.2853 456.013,-277.2 415,-277.2"/>
<polygon fill="#000000" stroke="#000000" points="496.5795,-330.0749 503.9937,-334.7642 500.5398,-330.6374 504.5,-331.2 504.5,-331.2 504.5,-331.2 500.5398,-330.6374 505.0063,-327.6358 496.5795,-330.0749 496.5795,-330.0749"/>
<ellipse fill="none" stroke="#000000" cx="493.4113" cy="-329.6248" rx="3.2" ry="3.2"/>
</g>
<!-- simm_parameter_sets -->
<g id="node4" class="node">
<title>simm_parameter_sets</title>
<g id="a_node4"><a xlink:href="../../tables/simm_parameter_sets.html" xlink:title="simm_parameter_sets" target="_top">
<polygon fill="#ffffff" stroke="transparent" points="8,-153.7 8,-214.7 194,-214.7 194,-153.7 8,-153.7"/>
<polygon fill="#f5f5f5" stroke="transparent" points="8,-191.2 8,-214.2 194,-214.2 194,-191.2 8,-191.2"/>
<polygon fill="none" stroke="#000000" points="8,-191.2 8,-214.2 194,-214.2 194,-191.2 8,-191.2"/>
<text text-anchor="start" x="13" y="-199.8" font-family="Helvetica,sans-Serif" font-weight="bold" font-size="11.00" fill="#000000">simm_parameter_sets</text>
<text text-anchor="start" x="159.5219" y="-199.3" font-family="Helvetica,sans-Serif" font-size="11.00" fill="#000000">[table]</text>
<polygon fill="none" stroke="#000000" points="8,-172.2 8,-191.2 194,-191.2 194,-172.2 8,-172.2"/>
<text text-anchor="start" x="11" y="-178.3" font-family="Helvetica,sans-Serif" font-size="11.00" fill="#000000">...</text>
<polygon fill="#ffffff" stroke="transparent" points="8,-153.2 8,-172.2 90,-172.2 90,-153.2 8,-153.2"/>
<polygon fill="none" stroke="#000000" points="8,-153.2 8,-172.2 90,-172.2 90,-153.2 8,-153.2"/>
<text text-anchor="start" x="11" y="-159.3" font-family="Helvetica,sans-Serif" font-size="11.00" fill="#000000"> &#160;</text>
<polygon fill="#ffffff" stroke="transparent" points="90,-153.2 90,-172.2 137,-172.2 137,-153.2 90,-153.2"/>
<polygon fill="none" stroke="#000000" points="90,-153.2 90,-172.2 137,-172.2 137,-153.2 90,-153.2"/>
<text text-anchor="start" x="127.8862" y="-159.3" font-family="Helvetica,sans-Serif" font-size="11.00" fill="#000000"> &#160;</text>
<polygon fill="#ffffff" stroke="transparent" points="137,-153.2 137,-172.2 194,-172.2 194,-153.2 137,-153.2"/>
<polygon fill="none" stroke="#000000" points="137,-153.2 137,-172.2 194,-172.2 194,-153.2 137,-153.2"/>
<text text-anchor="start" x="175.4053" y="-159.3" font-family="Helvetica,sans-Serif" font-size="11.00" fill="#000000">4 &gt;</text>
</a>
</g>
</g>
<!-- simm_calculations&#45;&gt;simm_parameter_sets -->
<g id="edge3" class="edge">
<title>simm_calculations:w&#45;&gt;simm_parameter_sets:e</title>
<path fill="none" stroke="#000000" d="M228.884,-207.0286C216.9189,-198.7854 213.5504,-181.2 194,-181.2"/>
<polygon fill="#000000" stroke="#000000" points="235.328,-208.9328 241.9798,-214.6524 239.164,-210.0664 243,-211.2 243,-211.2 243,-211.2 239.164,-210.0664 244.0202,-207.7476 235.328,-208.9328 235.328,-208.9328"/>
<ellipse fill="none" stroke="#000000" cx="232.2591" cy="-208.026" rx="3.2" ry="3.2"/>
</g>
<!-- crif_uploads -->
<g id="node5" class="node">
<title>crif_uploads</title>
<g id="a_node5"><a xlink:href="../../tables/crif_uploads.html" xlink:title="crif_uploads" target="_top">
<polygon fill="#ffffff" stroke="transparent" points="41,-235.7 41,-296.7 161,-296.7 161,-235.7 41,-235.7"/>
<polygon fill="#f5f5f5" stroke="transparent" points="41,-273.2 41,-296.2 161,-296.2 161,-273.2 41,-273.2"/>
<polygon fill="none" stroke="#000000" points="41,-273.2 41,-296.2 161,-296.2 161,-273.2 41,-273.2"/>
<text text-anchor="start" x="46" y="-281.8" font-family="Helvetica,sans-Serif" font-weight="bold" font-size="11.00" fill="#000000">crif_uploads</text>
<text text-anchor="start" x="126.5219" y="-281.3" font-family="Helvetica,sans-Serif" font-size="11.00" fill="#000000">[table]</text>
<polygon fill="none" stroke="#000000" points="41,-254.2 41,-273.2 161,-273.2 161,-254.2 41,-254.2"/>
<text text-anchor="start" x="44" y="-260.3" font-family="Helvetica,sans-Serif" font-size="11.00" fill="#000000">...</text>
<polygon fill="#ffffff" stroke="transparent" points="41,-235.2 41,-254.2 90,-254.2 90,-235.2 41,-235.2"/>
<polygon fill="none" stroke="#000000" points="41,-235.2 41,-254.2 90,-254.2 90,-235.2 41,-235.2"/>
<text text-anchor="start" x="44" y="-241.3" font-family="Helvetica,sans-Serif" font-size="11.00" fill="#000000"> &#160;</text>
<polygon fill="#ffffff" stroke="transparent" points="90,-235.2 90,-254.2 121,-254.2 121,-235.2 90,-235.2"/>
<polygon fill="none" stroke="#000000" points="90,-235.2 90,-254.2 121,-254.2 121,-235.2 90,-235.2"/>
<text text-anchor="start" x="111.8862" y="-241.3" font-family="Helvetica,sans-Serif" font-size="11.00" fill="#000000"> &#160;</text>
<polygon fill="#ffffff" stroke="transparent" points="121,-235.2 121,-254.2 161,-254.2 161,-235.2 121,-235.2"/>
<polygon fill="none" stroke="#000000" points="121,-235.2 121,-254.2 161,-254.2 161,-235.2 121,-235.2"/>
<text text-anchor="start" x="142.4053" y="-241.3" font-family="Helvetica,sans-Serif" font-size="11.00" fill="#000000">2 &gt;</text>
</a>
</g>
</g>
<!-- simm_calculations&#45;&gt;crif_uploads -->
<g id="edge4" class="edge">
<title>simm_calculations:w&#45;&gt;crif_uploads:e</title>
<path fill="none" stroke="#000000" d="M228.4789,-234.8129C202.2788,-241.0442 194.3497,-263.2 161,-263.2"/>
<polygon fill="#000000" stroke="#000000" points="235.0489,-234.0832 243.3974,-236.778 239.0244,-233.6416 243,-233.2 243,-233.2 243,-233.2 239.0244,-233.6416 242.6026,-229.622 235.0489,-234.0832 235.0489,-234.0832"/>
<ellipse fill="none" stroke="#000000" cx="231.8685" cy="-234.4365" rx="3.2" ry="3.2"/>
</g>
<!-- simm_calculation_results -->
<g id="node3" class="node">
<title>simm_calculation_results</title>
<g id="a_node3"><a xlink:href="../../tables/simm_calculation_results.html" xlink:title="simm_calculation_results" target="_top">
<polygon fill="#ffffff" stroke="transparent" points="464,-38.2 464,-282.2 741,-282.2 741,-38.2 464,-38.2"/>
<polygon fill="#f5f5f5" stroke="transparent" points="466.5,-257.2 466.5,-280.2 739.5,-280.2 739.5,-257.2 466.5,-257.2"/>
<polygon fill="none" stroke="#000000" points="466.5,-257.2 466.5,-280.2 739.5,-280.2 739.5,-257.2 466.5,-257.2"/>
<text text-anchor="start" x="471.5" y="-265.8" font-family="Helvetica,sans-Serif" font-weight="bold" font-size="11.00" fill="#000000">simm_calculation_results</text>
<text text-anchor="start" x="704.5437" y="-265.3" font-family="Helvetica,sans-Serif" font-size="11.00" fill="#000000">[table]</text>
<polygon fill="none" stroke="#000000" points="466.5,-235.2 466.5,-257.2 655.5,-257.2 655.5,-235.2 466.5,-235.2"/>
<image xlink:href="../../images/primaryKeys.png" width="11px" height="12px" preserveAspectRatio="xMinYMin meet" x="471.5" y="-252.2"/>
<text text-anchor="start" x="486.5" y="-242.3" font-family="Helvetica,sans-Serif" font-size="11.00" fill="#000000">id</text>
<polygon fill="none" stroke="#000000" points="655.5,-235.2 655.5,-257.2 739.5,-257.2 739.5,-235.2 655.5,-235.2"/>
<text text-anchor="start" x="658.5" y="-242.9" font-family="Helvetica,sans-Serif" font-size="11.00" fill="#000000">bigserial[19]</text>
<polygon fill="#ffffff" stroke="transparent" points="466.5,-213.2 466.5,-235.2 655.5,-235.2 655.5,-213.2 466.5,-213.2"/>
<polygon fill="none" stroke="#000000" points="466.5,-213.2 466.5,-235.2 655.5,-235.2 655.5,-213.2 466.5,-213.2"/>
<image xlink:href="../../images/foreignKeys.png" width="11px" height="12px" preserveAspectRatio="xMinYMin meet" x="471.5" y="-230.2"/>
<text text-anchor="start" x="486.5" y="-220.3" font-family="Helvetica,sans-Serif" font-size="11.00" fill="#000000">calculation_id</text>
<polygon fill="none" stroke="#000000" points="655.5,-213.2 655.5,-235.2 739.5,-235.2 739.5,-213.2 655.5,-213.2"/>
<text text-anchor="start" x="658.5" y="-220.9" font-family="Helvetica,sans-Serif" font-size="11.00" fill="#000000">int8[19]</text>
<polygon fill="#ffffff" stroke="transparent" points="466.5,-191.2 466.5,-213.2 655.5,-213.2 655.5,-191.2 466.5,-191.2"/>
<polygon fill="none" stroke="#000000" points="466.5,-191.2 466.5,-213.2 655.5,-213.2 655.5,-191.2 466.5,-191.2"/>
<text text-anchor="start" x="486.5" y="-198.3" font-family="Helvetica,sans-Serif" font-size="11.00" fill="#000000">risk_class</text>
<polygon fill="none" stroke="#000000" points="655.5,-191.2 655.5,-213.2 739.5,-213.2 739.5,-191.2 655.5,-191.2"/>
<text text-anchor="start" x="658.5" y="-198.9" font-family="Helvetica,sans-Serif" font-size="11.00" fill="#000000">varchar[20]</text>
<polygon fill="#ffffff" stroke="transparent" points="466.5,-169.2 466.5,-191.2 655.5,-191.2 655.5,-169.2 466.5,-169.2"/>
<polygon fill="none" stroke="#000000" points="466.5,-169.2 466.5,-191.2 655.5,-191.2 655.5,-169.2 466.5,-169.2"/>
<text text-anchor="start" x="486.5" y="-176.3" font-family="Helvetica,sans-Serif" font-size="11.00" fill="#000000">bucket</text>
<polygon fill="none" stroke="#000000" points="655.5,-169.2 655.5,-191.2 739.5,-191.2 739.5,-169.2 655.5,-169.2"/>
<text text-anchor="start" x="658.5" y="-176.9" font-family="Helvetica,sans-Serif" font-size="11.00" fill="#000000">varchar[10]</text>
<polygon fill="none" stroke="#000000" points="466.5,-147.2 466.5,-169.2 655.5,-169.2 655.5,-147.2 466.5,-147.2"/>
<text text-anchor="start" x="486.5" y="-154.3" font-family="Helvetica,sans-Serif" font-size="11.00" fill="#000000">weighted_sensitivity</text>
<polygon fill="none" stroke="#000000" points="655.5,-147.2 655.5,-169.2 739.5,-169.2 739.5,-147.2 655.5,-147.2"/>
<text text-anchor="start" x="658.5" y="-154.9" font-family="Helvetica,sans-Serif" font-size="11.00" fill="#000000">numeric[20,8]</text>
<polygon fill="none" stroke="#000000" points="466.5,-125.2 466.5,-147.2 655.5,-147.2 655.5,-125.2 466.5,-125.2"/>
<text text-anchor="start" x="486.5" y="-132.3" font-family="Helvetica,sans-Serif" font-size="11.00" fill="#000000">correlation_adjustment</text>
<polygon fill="none" stroke="#000000" points="655.5,-125.2 655.5,-147.2 739.5,-147.2 739.5,-125.2 655.5,-125.2"/>
<text text-anchor="start" x="658.5" y="-132.9" font-family="Helvetica,sans-Serif" font-size="11.00" fill="#000000">numeric[20,8]</text>
<polygon fill="none" stroke="#000000" points="466.5,-103.2 466.5,-125.2 655.5,-125.2 655.5,-103.2 466.5,-103.2"/>
<text text-anchor="start" x="486.5" y="-110.3" font-family="Helvetica,sans-Serif" font-size="11.00" fill="#000000">margin_component</text>
<polygon fill="none" stroke="#000000" points="655.5,-103.2 655.5,-125.2 739.5,-125.2 739.5,-103.2 655.5,-103.2"/>
<text text-anchor="start" x="658.5" y="-110.9" font-family="Helvetica,sans-Serif" font-size="11.00" fill="#000000">numeric[20,8]</text>
<polygon fill="none" stroke="#000000" points="466.5,-81.2 466.5,-103.2 655.5,-103.2 655.5,-81.2 466.5,-81.2"/>
<text text-anchor="start" x="486.5" y="-88.3" font-family="Helvetica,sans-Serif" font-size="11.00" fill="#000000">margin_component_usd</text>
<polygon fill="none" stroke="#000000" points="655.5,-81.2 655.5,-103.2 739.5,-103.2 739.5,-81.2 655.5,-81.2"/>
<text text-anchor="start" x="658.5" y="-88.9" font-family="Helvetica,sans-Serif" font-size="11.00" fill="#000000">numeric[20,8]</text>
<polygon fill="none" stroke="#000000" points="466.5,-59.2 466.5,-81.2 655.5,-81.2 655.5,-59.2 466.5,-59.2"/>
<text text-anchor="start" x="486.5" y="-66.3" font-family="Helvetica,sans-Serif" font-size="11.00" fill="#000000">created_at</text>
<polygon fill="none" stroke="#000000" points="655.5,-59.2 655.5,-81.2 739.5,-81.2 739.5,-59.2 655.5,-59.2"/>
<text text-anchor="start" x="658.3807" y="-66.9" font-family="Helvetica,sans-Serif" font-size="11.00" fill="#000000">timestamp[29,6]</text>
<polygon fill="#ffffff" stroke="transparent" points="466.5,-40.2 466.5,-59.2 565.5,-59.2 565.5,-40.2 466.5,-40.2"/>
<polygon fill="none" stroke="#000000" points="466.5,-40.2 466.5,-59.2 565.5,-59.2 565.5,-40.2 466.5,-40.2"/>
<text text-anchor="start" x="469.5" y="-46.3" font-family="Helvetica,sans-Serif" font-size="11.00" fill="#000000">&lt; 1</text>
<polygon fill="#ffffff" stroke="transparent" points="565.5,-40.2 565.5,-59.2 655.5,-59.2 655.5,-40.2 565.5,-40.2"/>
<polygon fill="none" stroke="#000000" points="565.5,-40.2 565.5,-59.2 655.5,-59.2 655.5,-40.2 565.5,-40.2"/>
<text text-anchor="start" x="646.3862" y="-46.3" font-family="Helvetica,sans-Serif" font-size="11.00" fill="#000000"> &#160;</text>
<polygon fill="#ffffff" stroke="transparent" points="655.5,-40.2 655.5,-59.2 739.5,-59.2 739.5,-40.2 655.5,-40.2"/>
<polygon fill="none" stroke="#000000" points="655.5,-40.2 655.5,-59.2 739.5,-59.2 739.5,-40.2 655.5,-40.2"/>
<text text-anchor="start" x="720.9053" y="-46.3" font-family="Helvetica,sans-Serif" font-size="11.00" fill="#000000">0 &gt;</text>
<polygon fill="none" stroke="#000000" stroke-width="2" points="465,-39.2 465,-281.2 740,-281.2 740,-39.2 465,-39.2"/>
</a>
</g>
</g>
<!-- simm_calculation_results&#45;&gt;simm_calculations -->
<g id="edge2" class="edge">
<title>simm_calculation_results:w&#45;&gt;simm_calculations:e</title>
<path fill="none" stroke="#000000" d="M452.8048,-228.7188C437.236,-241.5356 441.9428,-277.2 415,-277.2"/>
<polygon fill="#000000" stroke="#000000" points="458.9029,-226.7067 467.628,-227.6187 462.7014,-225.4534 466.5,-224.2 466.5,-224.2 466.5,-224.2 462.7014,-225.4534 465.372,-220.7813 458.9029,-226.7067 458.9029,-226.7067"/>
<ellipse fill="none" stroke="#000000" cx="455.864" cy="-227.7094" rx="3.2" ry="3.2"/>
</g>
</g>
</svg>
