<?xml version="1.0" encoding="UTF-8" standalone="no"?>
<!DOCTYPE svg PUBLIC "-//W3C//DTD SVG 1.1//EN"
 "http://www.w3.org/Graphics/SVG/1.1/DTD/svg11.dtd">
<!-- Generated by graphviz version 2.40.1 (20161225.0304)
 -->
<!-- Title: twoDegreesRelationshipsDiagram Pages: 1 -->
<svg width="494pt" height="475pt"
 viewBox="0.00 0.00 494.00 474.70" xmlns="http://www.w3.org/2000/svg" xmlns:xlink="http://www.w3.org/1999/xlink">
<g id="graph0" class="graph" transform="scale(1 1) rotate(0) translate(4 470.7)">
<title>twoDegreesRelationshipsDiagram</title>
<polygon fill="#ffffff" stroke="transparent" points="-4,4 -4,-470.7 490,-470.7 490,4 -4,4"/>
<text text-anchor="middle" x="72.4936" y="-7.3" font-family="Helvetica,sans-Serif" font-size="11.00" fill="#000000">Generated by SchemaSpy</text>
<!-- simm_bucket_mappings -->
<g id="node1" class="node">
<title>simm_bucket_mappings</title>
<g id="a_node1"><a xlink:href="../../tables/simm_bucket_mappings.html" xlink:title="simm_bucket_mappings" target="_top">
<polygon fill="#ffffff" stroke="transparent" points="261,-401.7 261,-462.7 460,-462.7 460,-401.7 261,-401.7"/>
<polygon fill="#f5f5f5" stroke="transparent" points="261.5,-439.2 261.5,-462.2 460.5,-462.2 460.5,-439.2 261.5,-439.2"/>
<polygon fill="none" stroke="#000000" points="261.5,-439.2 261.5,-462.2 460.5,-462.2 460.5,-439.2 261.5,-439.2"/>
<text text-anchor="start" x="266.5" y="-447.8" font-family="Helvetica,sans-Serif" font-weight="bold" font-size="11.00" fill="#000000">simm_bucket_mappings</text>
<text text-anchor="start" x="426.0219" y="-447.3" font-family="Helvetica,sans-Serif" font-size="11.00" fill="#000000">[table]</text>
<polygon fill="none" stroke="#000000" points="261.5,-420.2 261.5,-439.2 460.5,-439.2 460.5,-420.2 261.5,-420.2"/>
<text text-anchor="start" x="264.5" y="-426.3" font-family="Helvetica,sans-Serif" font-size="11.00" fill="#000000">...</text>
<polygon fill="#ffffff" stroke="transparent" points="261.5,-401.2 261.5,-420.2 359.5,-420.2 359.5,-401.2 261.5,-401.2"/>
<polygon fill="none" stroke="#000000" points="261.5,-401.2 261.5,-420.2 359.5,-420.2 359.5,-401.2 261.5,-401.2"/>
<text text-anchor="start" x="264.5" y="-407.3" font-family="Helvetica,sans-Serif" font-size="11.00" fill="#000000">&lt; 1</text>
<polygon fill="#ffffff" stroke="transparent" points="359.5,-401.2 359.5,-420.2 409.5,-420.2 409.5,-401.2 359.5,-401.2"/>
<polygon fill="none" stroke="#000000" points="359.5,-401.2 359.5,-420.2 409.5,-420.2 409.5,-401.2 359.5,-401.2"/>
<text text-anchor="start" x="400.3862" y="-407.3" font-family="Helvetica,sans-Serif" font-size="11.00" fill="#000000"> &#160;</text>
<polygon fill="#ffffff" stroke="transparent" points="409.5,-401.2 409.5,-420.2 460.5,-420.2 460.5,-401.2 409.5,-401.2"/>
<polygon fill="none" stroke="#000000" points="409.5,-401.2 409.5,-420.2 460.5,-420.2 460.5,-401.2 409.5,-401.2"/>
<text text-anchor="start" x="451.3862" y="-407.3" font-family="Helvetica,sans-Serif" font-size="11.00" fill="#000000"> &#160;</text>
</a>
</g>
</g>
<!-- simm_parameter_sets -->
<g id="node2" class="node">
<title>simm_parameter_sets</title>
<g id="a_node2"><a xlink:href="../../tables/simm_parameter_sets.html" xlink:title="simm_parameter_sets" target="_top">
<polygon fill="#ffffff" stroke="transparent" points="8,-169.7 8,-340.7 194,-340.7 194,-169.7 8,-169.7"/>
<polygon fill="#f5f5f5" stroke="transparent" points="8,-317.2 8,-340.2 194,-340.2 194,-317.2 8,-317.2"/>
<polygon fill="none" stroke="#000000" points="8,-317.2 8,-340.2 194,-340.2 194,-317.2 8,-317.2"/>
<text text-anchor="start" x="13" y="-325.8" font-family="Helvetica,sans-Serif" font-weight="bold" font-size="11.00" fill="#000000">simm_parameter_sets</text>
<text text-anchor="start" x="159.5219" y="-325.3" font-family="Helvetica,sans-Serif" font-size="11.00" fill="#000000">[table]</text>
<polygon fill="none" stroke="#000000" points="8,-295.2 8,-317.2 194,-317.2 194,-295.2 8,-295.2"/>
<image xlink:href="../../images/primaryKeys.png" width="11px" height="12px" preserveAspectRatio="xMinYMin meet" x="13" y="-312.2"/>
<text text-anchor="start" x="37" y="-302.3" font-family="Helvetica,sans-Serif" font-size="11.00" fill="#000000">id</text>
<polygon fill="#ffffff" stroke="transparent" points="8,-273.2 8,-295.2 194,-295.2 194,-273.2 8,-273.2"/>
<polygon fill="none" stroke="#000000" points="8,-273.2 8,-295.2 194,-295.2 194,-273.2 8,-273.2"/>
<text text-anchor="start" x="37" y="-280.3" font-family="Helvetica,sans-Serif" font-size="11.00" fill="#000000">version_name</text>
<polygon fill="#ffffff" stroke="transparent" points="8,-251.2 8,-273.2 194,-273.2 194,-251.2 8,-251.2"/>
<polygon fill="none" stroke="#000000" points="8,-251.2 8,-273.2 194,-273.2 194,-251.2 8,-251.2"/>
<text text-anchor="start" x="37" y="-258.3" font-family="Helvetica,sans-Serif" font-size="11.00" fill="#000000">isda_version</text>
<polygon fill="#ffffff" stroke="transparent" points="8,-229.2 8,-251.2 194,-251.2 194,-229.2 8,-229.2"/>
<polygon fill="none" stroke="#000000" points="8,-229.2 8,-251.2 194,-251.2 194,-229.2 8,-229.2"/>
<text text-anchor="start" x="37" y="-236.3" font-family="Helvetica,sans-Serif" font-size="11.00" fill="#000000">effective_date</text>
<polygon fill="#ffffff" stroke="transparent" points="8,-207.2 8,-229.2 194,-229.2 194,-207.2 8,-207.2"/>
<polygon fill="none" stroke="#000000" points="8,-207.2 8,-229.2 194,-229.2 194,-207.2 8,-207.2"/>
<text text-anchor="start" x="37" y="-214.3" font-family="Helvetica,sans-Serif" font-size="11.00" fill="#000000">is_active</text>
<polygon fill="none" stroke="#000000" points="8,-188.2 8,-207.2 194,-207.2 194,-188.2 8,-188.2"/>
<text text-anchor="start" x="11" y="-194.3" font-family="Helvetica,sans-Serif" font-size="11.00" fill="#000000">...</text>
<polygon fill="#ffffff" stroke="transparent" points="8,-169.2 8,-188.2 90,-188.2 90,-169.2 8,-169.2"/>
<polygon fill="none" stroke="#000000" points="8,-169.2 8,-188.2 90,-188.2 90,-169.2 8,-169.2"/>
<text text-anchor="start" x="11" y="-175.3" font-family="Helvetica,sans-Serif" font-size="11.00" fill="#000000"> &#160;</text>
<polygon fill="#ffffff" stroke="transparent" points="90,-169.2 90,-188.2 137,-188.2 137,-169.2 90,-169.2"/>
<polygon fill="none" stroke="#000000" points="90,-169.2 90,-188.2 137,-188.2 137,-169.2 90,-169.2"/>
<text text-anchor="start" x="127.8862" y="-175.3" font-family="Helvetica,sans-Serif" font-size="11.00" fill="#000000"> &#160;</text>
<polygon fill="#ffffff" stroke="transparent" points="137,-169.2 137,-188.2 194,-188.2 194,-169.2 137,-169.2"/>
<polygon fill="none" stroke="#000000" points="137,-169.2 137,-188.2 194,-188.2 194,-169.2 137,-169.2"/>
<text text-anchor="start" x="175.4053" y="-175.3" font-family="Helvetica,sans-Serif" font-size="11.00" fill="#000000">4 &gt;</text>
</a>
</g>
</g>
<!-- simm_bucket_mappings&#45;&gt;simm_parameter_sets -->
<g id="edge1" class="edge">
<title>simm_bucket_mappings:w&#45;&gt;simm_parameter_sets:e</title>
<path fill="none" stroke="#000000" d="M247.1652,-426.2809C208.6393,-407.6544 250.6332,-306.2 194,-306.2"/>
<polygon fill="#000000" stroke="#000000" points="253.6609,-427.6036 260.7816,-432.7276 257.5804,-428.4018 261.5,-429.2 261.5,-429.2 261.5,-429.2 257.5804,-428.4018 262.2184,-425.6724 253.6609,-427.6036 253.6609,-427.6036"/>
<ellipse fill="none" stroke="#000000" cx="250.5252" cy="-426.965" rx="3.2" ry="3.2"/>
</g>
<!-- simm_calculations -->
<g id="node3" class="node">
<title>simm_calculations</title>
<g id="a_node3"><a xlink:href="../../tables/simm_calculations.html" xlink:title="simm_calculations" target="_top">
<polygon fill="#ffffff" stroke="transparent" points="279.5,-319.7 279.5,-380.7 441.5,-380.7 441.5,-319.7 279.5,-319.7"/>
<polygon fill="#f5f5f5" stroke="transparent" points="279.5,-357.2 279.5,-380.2 441.5,-380.2 441.5,-357.2 279.5,-357.2"/>
<polygon fill="none" stroke="#000000" points="279.5,-357.2 279.5,-380.2 441.5,-380.2 441.5,-357.2 279.5,-357.2"/>
<text text-anchor="start" x="284.5" y="-365.8" font-family="Helvetica,sans-Serif" font-weight="bold" font-size="11.00" fill="#000000">simm_calculations</text>
<text text-anchor="start" x="407.0219" y="-365.3" font-family="Helvetica,sans-Serif" font-size="11.00" fill="#000000">[table]</text>
<polygon fill="none" stroke="#000000" points="279.5,-338.2 279.5,-357.2 441.5,-357.2 441.5,-338.2 279.5,-338.2"/>
<text text-anchor="start" x="282.5" y="-344.3" font-family="Helvetica,sans-Serif" font-size="11.00" fill="#000000">...</text>
<polygon fill="#ffffff" stroke="transparent" points="279.5,-319.2 279.5,-338.2 354.5,-338.2 354.5,-319.2 279.5,-319.2"/>
<polygon fill="none" stroke="#000000" points="279.5,-319.2 279.5,-338.2 354.5,-338.2 354.5,-319.2 279.5,-319.2"/>
<text text-anchor="start" x="282.5" y="-325.3" font-family="Helvetica,sans-Serif" font-size="11.00" fill="#000000">&lt; 2</text>
<polygon fill="#ffffff" stroke="transparent" points="354.5,-319.2 354.5,-338.2 393.5,-338.2 393.5,-319.2 354.5,-319.2"/>
<polygon fill="none" stroke="#000000" points="354.5,-319.2 354.5,-338.2 393.5,-338.2 393.5,-319.2 354.5,-319.2"/>
<text text-anchor="start" x="384.3862" y="-325.3" font-family="Helvetica,sans-Serif" font-size="11.00" fill="#000000"> &#160;</text>
<polygon fill="#ffffff" stroke="transparent" points="393.5,-319.2 393.5,-338.2 441.5,-338.2 441.5,-319.2 393.5,-319.2"/>
<polygon fill="none" stroke="#000000" points="393.5,-319.2 393.5,-338.2 441.5,-338.2 441.5,-319.2 393.5,-319.2"/>
<text text-anchor="start" x="422.9053" y="-325.3" font-family="Helvetica,sans-Serif" font-size="11.00" fill="#000000">2 &gt;</text>
</a>
</g>
</g>
<!-- simm_calculations&#45;&gt;simm_parameter_sets -->
<g id="edge2" class="edge">
<title>simm_calculations:w&#45;&gt;simm_parameter_sets:e</title>
<path fill="none" stroke="#000000" d="M265.0675,-345.3318C236.3638,-337.311 230.7107,-306.2 194,-306.2"/>
<polygon fill="#000000" stroke="#000000" points="271.5662,-346.173 279.0378,-350.7702 275.5331,-346.6865 279.5,-347.2 279.5,-347.2 279.5,-347.2 275.5331,-346.6865 279.9622,-343.6298 271.5662,-346.173 271.5662,-346.173"/>
<ellipse fill="none" stroke="#000000" cx="268.3927" cy="-345.7621" rx="3.2" ry="3.2"/>
</g>
<!-- simm_correlations -->
<g id="node4" class="node">
<title>simm_correlations</title>
<g id="a_node4"><a xlink:href="../../tables/simm_correlations.html" xlink:title="simm_correlations" target="_top">
<polygon fill="#ffffff" stroke="transparent" points="279.5,-237.7 279.5,-298.7 441.5,-298.7 441.5,-237.7 279.5,-237.7"/>
<polygon fill="#f5f5f5" stroke="transparent" points="279.5,-275.2 279.5,-298.2 441.5,-298.2 441.5,-275.2 279.5,-275.2"/>
<polygon fill="none" stroke="#000000" points="279.5,-275.2 279.5,-298.2 441.5,-298.2 441.5,-275.2 279.5,-275.2"/>
<text text-anchor="start" x="284.5" y="-283.8" font-family="Helvetica,sans-Serif" font-weight="bold" font-size="11.00" fill="#000000">simm_correlations</text>
<text text-anchor="start" x="407.0219" y="-283.3" font-family="Helvetica,sans-Serif" font-size="11.00" fill="#000000">[table]</text>
<polygon fill="none" stroke="#000000" points="279.5,-256.2 279.5,-275.2 441.5,-275.2 441.5,-256.2 279.5,-256.2"/>
<text text-anchor="start" x="282.5" y="-262.3" font-family="Helvetica,sans-Serif" font-size="11.00" fill="#000000">...</text>
<polygon fill="#ffffff" stroke="transparent" points="279.5,-237.2 279.5,-256.2 358.5,-256.2 358.5,-237.2 279.5,-237.2"/>
<polygon fill="none" stroke="#000000" points="279.5,-237.2 279.5,-256.2 358.5,-256.2 358.5,-237.2 279.5,-237.2"/>
<text text-anchor="start" x="282.5" y="-243.3" font-family="Helvetica,sans-Serif" font-size="11.00" fill="#000000">&lt; 1</text>
<polygon fill="#ffffff" stroke="transparent" points="358.5,-237.2 358.5,-256.2 399.5,-256.2 399.5,-237.2 358.5,-237.2"/>
<polygon fill="none" stroke="#000000" points="358.5,-237.2 358.5,-256.2 399.5,-256.2 399.5,-237.2 358.5,-237.2"/>
<text text-anchor="start" x="390.3862" y="-243.3" font-family="Helvetica,sans-Serif" font-size="11.00" fill="#000000"> &#160;</text>
<polygon fill="#ffffff" stroke="transparent" points="399.5,-237.2 399.5,-256.2 441.5,-256.2 441.5,-237.2 399.5,-237.2"/>
<polygon fill="none" stroke="#000000" points="399.5,-237.2 399.5,-256.2 441.5,-256.2 441.5,-237.2 399.5,-237.2"/>
<text text-anchor="start" x="432.3862" y="-243.3" font-family="Helvetica,sans-Serif" font-size="11.00" fill="#000000"> &#160;</text>
</a>
</g>
</g>
<!-- simm_correlations&#45;&gt;simm_parameter_sets -->
<g id="edge3" class="edge">
<title>simm_correlations:w&#45;&gt;simm_parameter_sets:e</title>
<path fill="none" stroke="#000000" d="M265.0675,-267.0682C236.3638,-275.089 230.7107,-306.2 194,-306.2"/>
<polygon fill="#000000" stroke="#000000" points="271.5662,-266.227 279.9622,-268.7702 275.5331,-265.7135 279.5,-265.2 279.5,-265.2 279.5,-265.2 275.5331,-265.7135 279.0378,-261.6298 271.5662,-266.227 271.5662,-266.227"/>
<ellipse fill="none" stroke="#000000" cx="268.3927" cy="-266.6379" rx="3.2" ry="3.2"/>
</g>
<!-- simm_risk_weights -->
<g id="node5" class="node">
<title>simm_risk_weights</title>
<g id="a_node5"><a xlink:href="../../tables/simm_risk_weights.html" xlink:title="simm_risk_weights" target="_top">
<polygon fill="#ffffff" stroke="transparent" points="243,-38.2 243,-216.2 478,-216.2 478,-38.2 243,-38.2"/>
<polygon fill="#f5f5f5" stroke="transparent" points="245.5,-191.2 245.5,-214.2 476.5,-214.2 476.5,-191.2 245.5,-191.2"/>
<polygon fill="none" stroke="#000000" points="245.5,-191.2 245.5,-214.2 476.5,-214.2 476.5,-191.2 245.5,-191.2"/>
<text text-anchor="start" x="250.5" y="-199.8" font-family="Helvetica,sans-Serif" font-weight="bold" font-size="11.00" fill="#000000">simm_risk_weights</text>
<text text-anchor="start" x="441.5437" y="-199.3" font-family="Helvetica,sans-Serif" font-size="11.00" fill="#000000">[table]</text>
<polygon fill="none" stroke="#000000" points="245.5,-169.2 245.5,-191.2 392.5,-191.2 392.5,-169.2 245.5,-169.2"/>
<image xlink:href="../../images/primaryKeys.png" width="11px" height="12px" preserveAspectRatio="xMinYMin meet" x="250.5" y="-186.2"/>
<text text-anchor="start" x="265.5" y="-176.3" font-family="Helvetica,sans-Serif" font-size="11.00" fill="#000000">id</text>
<polygon fill="none" stroke="#000000" points="392.5,-169.2 392.5,-191.2 476.5,-191.2 476.5,-169.2 392.5,-169.2"/>
<text text-anchor="start" x="395.5" y="-176.9" font-family="Helvetica,sans-Serif" font-size="11.00" fill="#000000">bigserial[19]</text>
<polygon fill="#ffffff" stroke="transparent" points="245.5,-147.2 245.5,-169.2 392.5,-169.2 392.5,-147.2 245.5,-147.2"/>
<polygon fill="none" stroke="#000000" points="245.5,-147.2 245.5,-169.2 392.5,-169.2 392.5,-147.2 245.5,-147.2"/>
<image xlink:href="../../images/foreignKeys.png" width="11px" height="12px" preserveAspectRatio="xMinYMin meet" x="250.5" y="-164.2"/>
<text text-anchor="start" x="265.5" y="-154.3" font-family="Helvetica,sans-Serif" font-size="11.00" fill="#000000">parameter_set_id</text>
<polygon fill="none" stroke="#000000" points="392.5,-147.2 392.5,-169.2 476.5,-169.2 476.5,-147.2 392.5,-147.2"/>
<text text-anchor="start" x="395.5" y="-154.9" font-family="Helvetica,sans-Serif" font-size="11.00" fill="#000000">int8[19]</text>
<polygon fill="#ffffff" stroke="transparent" points="245.5,-125.2 245.5,-147.2 392.5,-147.2 392.5,-125.2 245.5,-125.2"/>
<polygon fill="none" stroke="#000000" points="245.5,-125.2 245.5,-147.2 392.5,-147.2 392.5,-125.2 245.5,-125.2"/>
<text text-anchor="start" x="265.5" y="-132.3" font-family="Helvetica,sans-Serif" font-size="11.00" fill="#000000">risk_class</text>
<polygon fill="none" stroke="#000000" points="392.5,-125.2 392.5,-147.2 476.5,-147.2 476.5,-125.2 392.5,-125.2"/>
<text text-anchor="start" x="395.5" y="-132.9" font-family="Helvetica,sans-Serif" font-size="11.00" fill="#000000">varchar[20]</text>
<polygon fill="#ffffff" stroke="transparent" points="245.5,-103.2 245.5,-125.2 392.5,-125.2 392.5,-103.2 245.5,-103.2"/>
<polygon fill="none" stroke="#000000" points="245.5,-103.2 245.5,-125.2 392.5,-125.2 392.5,-103.2 245.5,-103.2"/>
<text text-anchor="start" x="265.5" y="-110.3" font-family="Helvetica,sans-Serif" font-size="11.00" fill="#000000">bucket</text>
<polygon fill="none" stroke="#000000" points="392.5,-103.2 392.5,-125.2 476.5,-125.2 476.5,-103.2 392.5,-103.2"/>
<text text-anchor="start" x="395.5" y="-110.9" font-family="Helvetica,sans-Serif" font-size="11.00" fill="#000000">varchar[10]</text>
<polygon fill="none" stroke="#000000" points="245.5,-81.2 245.5,-103.2 392.5,-103.2 392.5,-81.2 245.5,-81.2"/>
<text text-anchor="start" x="265.5" y="-88.3" font-family="Helvetica,sans-Serif" font-size="11.00" fill="#000000">risk_weight</text>
<polygon fill="none" stroke="#000000" points="392.5,-81.2 392.5,-103.2 476.5,-103.2 476.5,-81.2 392.5,-81.2"/>
<text text-anchor="start" x="395.5" y="-88.9" font-family="Helvetica,sans-Serif" font-size="11.00" fill="#000000">numeric[10,6]</text>
<polygon fill="none" stroke="#000000" points="245.5,-59.2 245.5,-81.2 392.5,-81.2 392.5,-59.2 245.5,-59.2"/>
<text text-anchor="start" x="265.5" y="-66.3" font-family="Helvetica,sans-Serif" font-size="11.00" fill="#000000">created_at</text>
<polygon fill="none" stroke="#000000" points="392.5,-59.2 392.5,-81.2 476.5,-81.2 476.5,-59.2 392.5,-59.2"/>
<text text-anchor="start" x="395.3807" y="-66.9" font-family="Helvetica,sans-Serif" font-size="11.00" fill="#000000">timestamp[29,6]</text>
<polygon fill="#ffffff" stroke="transparent" points="245.5,-40.2 245.5,-59.2 323.5,-59.2 323.5,-40.2 245.5,-40.2"/>
<polygon fill="none" stroke="#000000" points="245.5,-40.2 245.5,-59.2 323.5,-59.2 323.5,-40.2 245.5,-40.2"/>
<text text-anchor="start" x="248.5" y="-46.3" font-family="Helvetica,sans-Serif" font-size="11.00" fill="#000000">&lt; 1</text>
<polygon fill="#ffffff" stroke="transparent" points="323.5,-40.2 323.5,-59.2 392.5,-59.2 392.5,-40.2 323.5,-40.2"/>
<polygon fill="none" stroke="#000000" points="323.5,-40.2 323.5,-59.2 392.5,-59.2 392.5,-40.2 323.5,-40.2"/>
<text text-anchor="start" x="383.3862" y="-46.3" font-family="Helvetica,sans-Serif" font-size="11.00" fill="#000000"> &#160;</text>
<polygon fill="#ffffff" stroke="transparent" points="392.5,-40.2 392.5,-59.2 476.5,-59.2 476.5,-40.2 392.5,-40.2"/>
<polygon fill="none" stroke="#000000" points="392.5,-40.2 392.5,-59.2 476.5,-59.2 476.5,-40.2 392.5,-40.2"/>
<text text-anchor="start" x="457.9053" y="-46.3" font-family="Helvetica,sans-Serif" font-size="11.00" fill="#000000">0 &gt;</text>
<polygon fill="none" stroke="#000000" stroke-width="2" points="244,-39.2 244,-215.2 477,-215.2 477,-39.2 244,-39.2"/>
</a>
</g>
</g>
<!-- simm_risk_weights&#45;&gt;simm_parameter_sets -->
<g id="edge4" class="edge">
<title>simm_risk_weights:w&#45;&gt;simm_parameter_sets:e</title>
<path fill="none" stroke="#000000" d="M231.3649,-161.0243C189.1977,-181.4853 257.9332,-306.2 194,-306.2"/>
<polygon fill="#000000" stroke="#000000" points="237.6551,-159.7675 246.2054,-161.7302 241.5775,-158.9838 245.5,-158.2 245.5,-158.2 245.5,-158.2 241.5775,-158.9838 244.7946,-154.6698 237.6551,-159.7675 237.6551,-159.7675"/>
<ellipse fill="none" stroke="#000000" cx="234.5171" cy="-160.3946" rx="3.2" ry="3.2"/>
</g>
</g>
</svg>
