<?xml version="1.0" encoding="UTF-8" standalone="no"?>
<!DOCTYPE svg PUBLIC "-//W3C//DTD SVG 1.1//EN"
 "http://www.w3.org/Graphics/SVG/1.1/DTD/svg11.dtd">
<!-- Generated by graphviz version 2.40.1 (20161225.0304)
 -->
<!-- Title: twoDegreesRelationshipsDiagram Pages: 1 -->
<svg width="781pt" height="767pt"
 viewBox="0.00 0.00 781.00 767.20" xmlns="http://www.w3.org/2000/svg" xmlns:xlink="http://www.w3.org/1999/xlink">
<g id="graph0" class="graph" transform="scale(1 1) rotate(0) translate(4 763.2)">
<title>twoDegreesRelationshipsDiagram</title>
<polygon fill="#ffffff" stroke="transparent" points="-4,4 -4,-763.2 777,-763.2 777,4 -4,4"/>
<text text-anchor="middle" x="72.4936" y="-7.3" font-family="Helvetica,sans-Serif" font-size="11.00" fill="#000000">Generated by SchemaSpy</text>
<!-- crif_sensitivities -->
<g id="node1" class="node">
<title>crif_sensitivities</title>
<g id="a_node1"><a xlink:href="../../tables/crif_sensitivities.html" xlink:title="crif_sensitivities" target="_top">
<polygon fill="#ffffff" stroke="transparent" points="301.5,-682.2 301.5,-743.2 450.5,-743.2 450.5,-682.2 301.5,-682.2"/>
<polygon fill="#f5f5f5" stroke="transparent" points="302,-719.7 302,-742.7 451,-742.7 451,-719.7 302,-719.7"/>
<polygon fill="none" stroke="#000000" points="302,-719.7 302,-742.7 451,-742.7 451,-719.7 302,-719.7"/>
<text text-anchor="start" x="307" y="-728.3" font-family="Helvetica,sans-Serif" font-weight="bold" font-size="11.00" fill="#000000">crif_sensitivities</text>
<text text-anchor="start" x="416.5219" y="-727.8" font-family="Helvetica,sans-Serif" font-size="11.00" fill="#000000">[table]</text>
<polygon fill="none" stroke="#000000" points="302,-700.7 302,-719.7 451,-719.7 451,-700.7 302,-700.7"/>
<text text-anchor="start" x="305" y="-706.8" font-family="Helvetica,sans-Serif" font-size="11.00" fill="#000000">...</text>
<polygon fill="#ffffff" stroke="transparent" points="302,-681.7 302,-700.7 375,-700.7 375,-681.7 302,-681.7"/>
<polygon fill="none" stroke="#000000" points="302,-681.7 302,-700.7 375,-700.7 375,-681.7 302,-681.7"/>
<text text-anchor="start" x="305" y="-687.8" font-family="Helvetica,sans-Serif" font-size="11.00" fill="#000000">&lt; 1</text>
<polygon fill="#ffffff" stroke="transparent" points="375,-681.7 375,-700.7 413,-700.7 413,-681.7 375,-681.7"/>
<polygon fill="none" stroke="#000000" points="375,-681.7 375,-700.7 413,-700.7 413,-681.7 375,-681.7"/>
<text text-anchor="start" x="403.8862" y="-687.8" font-family="Helvetica,sans-Serif" font-size="11.00" fill="#000000"> &#160;</text>
<polygon fill="#ffffff" stroke="transparent" points="413,-681.7 413,-700.7 451,-700.7 451,-681.7 413,-681.7"/>
<polygon fill="none" stroke="#000000" points="413,-681.7 413,-700.7 451,-700.7 451,-681.7 413,-681.7"/>
<text text-anchor="start" x="441.8862" y="-687.8" font-family="Helvetica,sans-Serif" font-size="11.00" fill="#000000"> &#160;</text>
</a>
</g>
</g>
<!-- crif_uploads -->
<g id="node2" class="node">
<title>crif_uploads</title>
<g id="a_node2"><a xlink:href="../../tables/crif_uploads.html" xlink:title="crif_uploads" target="_top">
<polygon fill="#ffffff" stroke="transparent" points="28.5,-486.2 28.5,-679.2 173.5,-679.2 173.5,-486.2 28.5,-486.2"/>
<polygon fill="#f5f5f5" stroke="transparent" points="29,-655.7 29,-678.7 174,-678.7 174,-655.7 29,-655.7"/>
<polygon fill="none" stroke="#000000" points="29,-655.7 29,-678.7 174,-678.7 174,-655.7 29,-655.7"/>
<text text-anchor="start" x="34" y="-664.3" font-family="Helvetica,sans-Serif" font-weight="bold" font-size="11.00" fill="#000000">crif_uploads</text>
<text text-anchor="start" x="139.0437" y="-663.8" font-family="Helvetica,sans-Serif" font-size="11.00" fill="#000000">[table]</text>
<polygon fill="none" stroke="#000000" points="29,-633.7 29,-655.7 174,-655.7 174,-633.7 29,-633.7"/>
<image xlink:href="../../images/primaryKeys.png" width="11px" height="12px" preserveAspectRatio="xMinYMin meet" x="34" y="-650.7"/>
<text text-anchor="start" x="49" y="-640.8" font-family="Helvetica,sans-Serif" font-size="11.00" fill="#000000">id</text>
<polygon fill="#ffffff" stroke="transparent" points="29,-611.7 29,-633.7 174,-633.7 174,-611.7 29,-611.7"/>
<polygon fill="none" stroke="#000000" points="29,-611.7 29,-633.7 174,-633.7 174,-611.7 29,-611.7"/>
<text text-anchor="start" x="49" y="-618.8" font-family="Helvetica,sans-Serif" font-size="11.00" fill="#000000">upload_id</text>
<polygon fill="#ffffff" stroke="transparent" points="29,-589.7 29,-611.7 174,-611.7 174,-589.7 29,-589.7"/>
<polygon fill="none" stroke="#000000" points="29,-589.7 29,-611.7 174,-611.7 174,-589.7 29,-589.7"/>
<text text-anchor="start" x="49" y="-596.8" font-family="Helvetica,sans-Serif" font-size="11.00" fill="#000000">portfolio_id</text>
<polygon fill="#ffffff" stroke="transparent" points="29,-567.7 29,-589.7 174,-589.7 174,-567.7 29,-567.7"/>
<polygon fill="none" stroke="#000000" points="29,-567.7 29,-589.7 174,-589.7 174,-567.7 29,-567.7"/>
<text text-anchor="start" x="49" y="-574.8" font-family="Helvetica,sans-Serif" font-size="11.00" fill="#000000">valuation_date</text>
<polygon fill="#ffffff" stroke="transparent" points="29,-545.7 29,-567.7 174,-567.7 174,-545.7 29,-545.7"/>
<polygon fill="none" stroke="#000000" points="29,-545.7 29,-567.7 174,-567.7 174,-545.7 29,-545.7"/>
<text text-anchor="start" x="49" y="-552.8" font-family="Helvetica,sans-Serif" font-size="11.00" fill="#000000">processing_status</text>
<polygon fill="#ffffff" stroke="transparent" points="29,-523.7 29,-545.7 174,-545.7 174,-523.7 29,-523.7"/>
<polygon fill="none" stroke="#000000" points="29,-523.7 29,-545.7 174,-545.7 174,-523.7 29,-523.7"/>
<text text-anchor="start" x="49" y="-530.8" font-family="Helvetica,sans-Serif" font-size="11.00" fill="#000000">created_at</text>
<polygon fill="none" stroke="#000000" points="29,-504.7 29,-523.7 174,-523.7 174,-504.7 29,-504.7"/>
<text text-anchor="start" x="32" y="-510.8" font-family="Helvetica,sans-Serif" font-size="11.00" fill="#000000">...</text>
<polygon fill="#ffffff" stroke="transparent" points="29,-485.7 29,-504.7 91,-504.7 91,-485.7 29,-485.7"/>
<polygon fill="none" stroke="#000000" points="29,-485.7 29,-504.7 91,-504.7 91,-485.7 29,-485.7"/>
<text text-anchor="start" x="32" y="-491.8" font-family="Helvetica,sans-Serif" font-size="11.00" fill="#000000"> &#160;</text>
<polygon fill="#ffffff" stroke="transparent" points="91,-485.7 91,-504.7 128,-504.7 128,-485.7 91,-485.7"/>
<polygon fill="none" stroke="#000000" points="91,-485.7 91,-504.7 128,-504.7 128,-485.7 91,-485.7"/>
<text text-anchor="start" x="118.8862" y="-491.8" font-family="Helvetica,sans-Serif" font-size="11.00" fill="#000000"> &#160;</text>
<polygon fill="#ffffff" stroke="transparent" points="128,-485.7 128,-504.7 174,-504.7 174,-485.7 128,-485.7"/>
<polygon fill="none" stroke="#000000" points="128,-485.7 128,-504.7 174,-504.7 174,-485.7 128,-485.7"/>
<text text-anchor="start" x="155.4053" y="-491.8" font-family="Helvetica,sans-Serif" font-size="11.00" fill="#000000">2 &gt;</text>
</a>
</g>
</g>
<!-- crif_sensitivities&#45;&gt;crif_uploads -->
<g id="edge1" class="edge">
<title>crif_sensitivities:w&#45;&gt;crif_uploads:e</title>
<path fill="none" stroke="#000000" d="M287.5084,-708.4596C237.7052,-699.4733 232.5698,-644.7 174,-644.7"/>
<polygon fill="#000000" stroke="#000000" points="294.0291,-709.0177 301.693,-713.2869 298.0146,-709.3588 302,-709.7 302,-709.7 302,-709.7 298.0146,-709.3588 302.307,-706.1131 294.0291,-709.0177 294.0291,-709.0177"/>
<ellipse fill="none" stroke="#000000" cx="290.8408" cy="-708.7447" rx="3.2" ry="3.2"/>
</g>
<!-- simm_bucket_mappings -->
<g id="node3" class="node">
<title>simm_bucket_mappings</title>
<g id="a_node3"><a xlink:href="../../tables/simm_bucket_mappings.html" xlink:title="simm_bucket_mappings" target="_top">
<polygon fill="#ffffff" stroke="transparent" points="276.5,-202.2 276.5,-263.2 475.5,-263.2 475.5,-202.2 276.5,-202.2"/>
<polygon fill="#f5f5f5" stroke="transparent" points="277,-239.7 277,-262.7 476,-262.7 476,-239.7 277,-239.7"/>
<polygon fill="none" stroke="#000000" points="277,-239.7 277,-262.7 476,-262.7 476,-239.7 277,-239.7"/>
<text text-anchor="start" x="282" y="-248.3" font-family="Helvetica,sans-Serif" font-weight="bold" font-size="11.00" fill="#000000">simm_bucket_mappings</text>
<text text-anchor="start" x="441.5219" y="-247.8" font-family="Helvetica,sans-Serif" font-size="11.00" fill="#000000">[table]</text>
<polygon fill="none" stroke="#000000" points="277,-220.7 277,-239.7 476,-239.7 476,-220.7 277,-220.7"/>
<text text-anchor="start" x="280" y="-226.8" font-family="Helvetica,sans-Serif" font-size="11.00" fill="#000000">...</text>
<polygon fill="#ffffff" stroke="transparent" points="277,-201.7 277,-220.7 375,-220.7 375,-201.7 277,-201.7"/>
<polygon fill="none" stroke="#000000" points="277,-201.7 277,-220.7 375,-220.7 375,-201.7 277,-201.7"/>
<text text-anchor="start" x="280" y="-207.8" font-family="Helvetica,sans-Serif" font-size="11.00" fill="#000000">&lt; 1</text>
<polygon fill="#ffffff" stroke="transparent" points="375,-201.7 375,-220.7 425,-220.7 425,-201.7 375,-201.7"/>
<polygon fill="none" stroke="#000000" points="375,-201.7 375,-220.7 425,-220.7 425,-201.7 375,-201.7"/>
<text text-anchor="start" x="415.8862" y="-207.8" font-family="Helvetica,sans-Serif" font-size="11.00" fill="#000000"> &#160;</text>
<polygon fill="#ffffff" stroke="transparent" points="425,-201.7 425,-220.7 476,-220.7 476,-201.7 425,-201.7"/>
<polygon fill="none" stroke="#000000" points="425,-201.7 425,-220.7 476,-220.7 476,-201.7 425,-201.7"/>
<text text-anchor="start" x="466.8862" y="-207.8" font-family="Helvetica,sans-Serif" font-size="11.00" fill="#000000"> &#160;</text>
</a>
</g>
</g>
<!-- simm_parameter_sets -->
<g id="node4" class="node">
<title>simm_parameter_sets</title>
<g id="a_node4"><a xlink:href="../../tables/simm_parameter_sets.html" xlink:title="simm_parameter_sets" target="_top">
<polygon fill="#ffffff" stroke="transparent" points="8,-52.2 8,-223.2 194,-223.2 194,-52.2 8,-52.2"/>
<polygon fill="#f5f5f5" stroke="transparent" points="8,-199.7 8,-222.7 194,-222.7 194,-199.7 8,-199.7"/>
<polygon fill="none" stroke="#000000" points="8,-199.7 8,-222.7 194,-222.7 194,-199.7 8,-199.7"/>
<text text-anchor="start" x="13" y="-208.3" font-family="Helvetica,sans-Serif" font-weight="bold" font-size="11.00" fill="#000000">simm_parameter_sets</text>
<text text-anchor="start" x="159.5219" y="-207.8" font-family="Helvetica,sans-Serif" font-size="11.00" fill="#000000">[table]</text>
<polygon fill="none" stroke="#000000" points="8,-177.7 8,-199.7 194,-199.7 194,-177.7 8,-177.7"/>
<image xlink:href="../../images/primaryKeys.png" width="11px" height="12px" preserveAspectRatio="xMinYMin meet" x="13" y="-194.7"/>
<text text-anchor="start" x="37" y="-184.8" font-family="Helvetica,sans-Serif" font-size="11.00" fill="#000000">id</text>
<polygon fill="#ffffff" stroke="transparent" points="8,-155.7 8,-177.7 194,-177.7 194,-155.7 8,-155.7"/>
<polygon fill="none" stroke="#000000" points="8,-155.7 8,-177.7 194,-177.7 194,-155.7 8,-155.7"/>
<text text-anchor="start" x="37" y="-162.8" font-family="Helvetica,sans-Serif" font-size="11.00" fill="#000000">version_name</text>
<polygon fill="#ffffff" stroke="transparent" points="8,-133.7 8,-155.7 194,-155.7 194,-133.7 8,-133.7"/>
<polygon fill="none" stroke="#000000" points="8,-133.7 8,-155.7 194,-155.7 194,-133.7 8,-133.7"/>
<text text-anchor="start" x="37" y="-140.8" font-family="Helvetica,sans-Serif" font-size="11.00" fill="#000000">isda_version</text>
<polygon fill="#ffffff" stroke="transparent" points="8,-111.7 8,-133.7 194,-133.7 194,-111.7 8,-111.7"/>
<polygon fill="none" stroke="#000000" points="8,-111.7 8,-133.7 194,-133.7 194,-111.7 8,-111.7"/>
<text text-anchor="start" x="37" y="-118.8" font-family="Helvetica,sans-Serif" font-size="11.00" fill="#000000">effective_date</text>
<polygon fill="#ffffff" stroke="transparent" points="8,-89.7 8,-111.7 194,-111.7 194,-89.7 8,-89.7"/>
<polygon fill="none" stroke="#000000" points="8,-89.7 8,-111.7 194,-111.7 194,-89.7 8,-89.7"/>
<text text-anchor="start" x="37" y="-96.8" font-family="Helvetica,sans-Serif" font-size="11.00" fill="#000000">is_active</text>
<polygon fill="none" stroke="#000000" points="8,-70.7 8,-89.7 194,-89.7 194,-70.7 8,-70.7"/>
<text text-anchor="start" x="11" y="-76.8" font-family="Helvetica,sans-Serif" font-size="11.00" fill="#000000">...</text>
<polygon fill="#ffffff" stroke="transparent" points="8,-51.7 8,-70.7 90,-70.7 90,-51.7 8,-51.7"/>
<polygon fill="none" stroke="#000000" points="8,-51.7 8,-70.7 90,-70.7 90,-51.7 8,-51.7"/>
<text text-anchor="start" x="11" y="-57.8" font-family="Helvetica,sans-Serif" font-size="11.00" fill="#000000"> &#160;</text>
<polygon fill="#ffffff" stroke="transparent" points="90,-51.7 90,-70.7 137,-70.7 137,-51.7 90,-51.7"/>
<polygon fill="none" stroke="#000000" points="90,-51.7 90,-70.7 137,-70.7 137,-51.7 90,-51.7"/>
<text text-anchor="start" x="127.8862" y="-57.8" font-family="Helvetica,sans-Serif" font-size="11.00" fill="#000000"> &#160;</text>
<polygon fill="#ffffff" stroke="transparent" points="137,-51.7 137,-70.7 194,-70.7 194,-51.7 137,-51.7"/>
<polygon fill="none" stroke="#000000" points="137,-51.7 137,-70.7 194,-70.7 194,-51.7 137,-51.7"/>
<text text-anchor="start" x="175.4053" y="-57.8" font-family="Helvetica,sans-Serif" font-size="11.00" fill="#000000">4 &gt;</text>
</a>
</g>
</g>
<!-- simm_bucket_mappings&#45;&gt;simm_parameter_sets -->
<g id="edge2" class="edge">
<title>simm_bucket_mappings:w&#45;&gt;simm_parameter_sets:e</title>
<path fill="none" stroke="#000000" d="M262.5568,-227.7225C234.9536,-219.5326 229.6797,-188.7 194,-188.7"/>
<polygon fill="#000000" stroke="#000000" points="269.0739,-228.6147 276.5116,-233.2667 273.037,-229.1574 277,-229.7 277,-229.7 277,-229.7 273.037,-229.1574 277.4884,-226.1333 269.0739,-228.6147 269.0739,-228.6147"/>
<ellipse fill="none" stroke="#000000" cx="265.9035" cy="-228.1806" rx="3.2" ry="3.2"/>
</g>
<!-- simm_calculation_audit -->
<g id="node5" class="node">
<title>simm_calculation_audit</title>
<g id="a_node5"><a xlink:href="../../tables/simm_calculation_audit.html" xlink:title="simm_calculation_audit" target="_top">
<polygon fill="#ffffff" stroke="transparent" points="563.5,-628.2 563.5,-755.2 759.5,-755.2 759.5,-628.2 563.5,-628.2"/>
<polygon fill="#f5f5f5" stroke="transparent" points="563.5,-731.7 563.5,-754.7 759.5,-754.7 759.5,-731.7 563.5,-731.7"/>
<polygon fill="none" stroke="#000000" points="563.5,-731.7 563.5,-754.7 759.5,-754.7 759.5,-731.7 563.5,-731.7"/>
<text text-anchor="start" x="568.5" y="-740.3" font-family="Helvetica,sans-Serif" font-weight="bold" font-size="11.00" fill="#000000">simm_calculation_audit</text>
<text text-anchor="start" x="725.0219" y="-739.8" font-family="Helvetica,sans-Serif" font-size="11.00" fill="#000000">[table]</text>
<polygon fill="none" stroke="#000000" points="563.5,-709.7 563.5,-731.7 759.5,-731.7 759.5,-709.7 563.5,-709.7"/>
<image xlink:href="../../images/primaryKeys.png" width="11px" height="12px" preserveAspectRatio="xMinYMin meet" x="568.5" y="-726.7"/>
<text text-anchor="start" x="592.5" y="-716.8" font-family="Helvetica,sans-Serif" font-size="11.00" fill="#000000">id</text>
<polygon fill="#ffffff" stroke="transparent" points="563.5,-687.7 563.5,-709.7 759.5,-709.7 759.5,-687.7 563.5,-687.7"/>
<polygon fill="none" stroke="#000000" points="563.5,-687.7 563.5,-709.7 759.5,-709.7 759.5,-687.7 563.5,-687.7"/>
<image xlink:href="../../images/foreignKeys.png" width="11px" height="12px" preserveAspectRatio="xMinYMin meet" x="568.5" y="-704.7"/>
<text text-anchor="start" x="592.5" y="-694.8" font-family="Helvetica,sans-Serif" font-size="11.00" fill="#000000">calculation_id</text>
<polygon fill="#ffffff" stroke="transparent" points="563.5,-665.7 563.5,-687.7 759.5,-687.7 759.5,-665.7 563.5,-665.7"/>
<polygon fill="none" stroke="#000000" points="563.5,-665.7 563.5,-687.7 759.5,-687.7 759.5,-665.7 563.5,-665.7"/>
<text text-anchor="start" x="592.5" y="-672.8" font-family="Helvetica,sans-Serif" font-size="11.00" fill="#000000">step_order</text>
<polygon fill="none" stroke="#000000" points="563.5,-646.7 563.5,-665.7 759.5,-665.7 759.5,-646.7 563.5,-646.7"/>
<text text-anchor="start" x="566.5" y="-652.8" font-family="Helvetica,sans-Serif" font-size="11.00" fill="#000000">...</text>
<polygon fill="#ffffff" stroke="transparent" points="563.5,-627.7 563.5,-646.7 659.5,-646.7 659.5,-627.7 563.5,-627.7"/>
<polygon fill="none" stroke="#000000" points="563.5,-627.7 563.5,-646.7 659.5,-646.7 659.5,-627.7 563.5,-627.7"/>
<text text-anchor="start" x="566.5" y="-633.8" font-family="Helvetica,sans-Serif" font-size="11.00" fill="#000000">&lt; 1</text>
<polygon fill="#ffffff" stroke="transparent" points="659.5,-627.7 659.5,-646.7 709.5,-646.7 709.5,-627.7 659.5,-627.7"/>
<polygon fill="none" stroke="#000000" points="659.5,-627.7 659.5,-646.7 709.5,-646.7 709.5,-627.7 659.5,-627.7"/>
<text text-anchor="start" x="700.3862" y="-633.8" font-family="Helvetica,sans-Serif" font-size="11.00" fill="#000000"> &#160;</text>
<polygon fill="#ffffff" stroke="transparent" points="709.5,-627.7 709.5,-646.7 759.5,-646.7 759.5,-627.7 709.5,-627.7"/>
<polygon fill="none" stroke="#000000" points="709.5,-627.7 709.5,-646.7 759.5,-646.7 759.5,-627.7 709.5,-627.7"/>
<text text-anchor="start" x="750.3862" y="-633.8" font-family="Helvetica,sans-Serif" font-size="11.00" fill="#000000"> &#160;</text>
</a>
</g>
</g>
<!-- simm_calculations -->
<g id="node6" class="node">
<title>simm_calculations</title>
<g id="a_node6"><a xlink:href="../../tables/simm_calculations.html" xlink:title="simm_calculations" target="_top">
<polygon fill="#ffffff" stroke="transparent" points="243,-284.7 243,-660.7 509,-660.7 509,-284.7 243,-284.7"/>
<polygon fill="#f5f5f5" stroke="transparent" points="245,-635.7 245,-658.7 507,-658.7 507,-635.7 245,-635.7"/>
<polygon fill="none" stroke="#000000" points="245,-635.7 245,-658.7 507,-658.7 507,-635.7 245,-635.7"/>
<text text-anchor="start" x="250" y="-644.3" font-family="Helvetica,sans-Serif" font-weight="bold" font-size="11.00" fill="#000000">simm_calculations</text>
<text text-anchor="start" x="472.0437" y="-643.8" font-family="Helvetica,sans-Serif" font-size="11.00" fill="#000000">[table]</text>
<polygon fill="none" stroke="#000000" points="245,-613.7 245,-635.7 417,-635.7 417,-613.7 245,-613.7"/>
<image xlink:href="../../images/primaryKeys.png" width="11px" height="12px" preserveAspectRatio="xMinYMin meet" x="250" y="-630.7"/>
<text text-anchor="start" x="265" y="-620.8" font-family="Helvetica,sans-Serif" font-size="11.00" fill="#000000">id</text>
<polygon fill="none" stroke="#000000" points="417,-613.7 417,-635.7 507,-635.7 507,-613.7 417,-613.7"/>
<text text-anchor="start" x="420" y="-621.4" font-family="Helvetica,sans-Serif" font-size="11.00" fill="#000000">bigserial[19]</text>
<polygon fill="#ffffff" stroke="transparent" points="245,-591.7 245,-613.7 417,-613.7 417,-591.7 245,-591.7"/>
<polygon fill="none" stroke="#000000" points="245,-591.7 245,-613.7 417,-613.7 417,-591.7 245,-591.7"/>
<text text-anchor="start" x="265" y="-598.8" font-family="Helvetica,sans-Serif" font-size="11.00" fill="#000000">calculation_id</text>
<polygon fill="none" stroke="#000000" points="417,-591.7 417,-613.7 507,-613.7 507,-591.7 417,-591.7"/>
<text text-anchor="start" x="420" y="-599.4" font-family="Helvetica,sans-Serif" font-size="11.00" fill="#000000">varchar[100]</text>
<polygon fill="#ffffff" stroke="transparent" points="245,-569.7 245,-591.7 417,-591.7 417,-569.7 245,-569.7"/>
<polygon fill="none" stroke="#000000" points="245,-569.7 245,-591.7 417,-591.7 417,-569.7 245,-569.7"/>
<image xlink:href="../../images/foreignKeys.png" width="11px" height="12px" preserveAspectRatio="xMinYMin meet" x="250" y="-586.7"/>
<text text-anchor="start" x="265" y="-576.8" font-family="Helvetica,sans-Serif" font-size="11.00" fill="#000000">upload_id</text>
<polygon fill="none" stroke="#000000" points="417,-569.7 417,-591.7 507,-591.7 507,-569.7 417,-569.7"/>
<text text-anchor="start" x="420" y="-577.4" font-family="Helvetica,sans-Serif" font-size="11.00" fill="#000000">int8[19]</text>
<polygon fill="none" stroke="#000000" points="245,-547.7 245,-569.7 417,-569.7 417,-547.7 245,-547.7"/>
<image xlink:href="../../images/foreignKeys.png" width="11px" height="12px" preserveAspectRatio="xMinYMin meet" x="250" y="-564.7"/>
<text text-anchor="start" x="265" y="-554.8" font-family="Helvetica,sans-Serif" font-size="11.00" fill="#000000">parameter_set_id</text>
<polygon fill="none" stroke="#000000" points="417,-547.7 417,-569.7 507,-569.7 507,-547.7 417,-547.7"/>
<text text-anchor="start" x="420" y="-555.4" font-family="Helvetica,sans-Serif" font-size="11.00" fill="#000000">int8[19]</text>
<polygon fill="#ffffff" stroke="transparent" points="245,-525.7 245,-547.7 417,-547.7 417,-525.7 245,-525.7"/>
<polygon fill="none" stroke="#000000" points="245,-525.7 245,-547.7 417,-547.7 417,-525.7 245,-525.7"/>
<text text-anchor="start" x="265" y="-532.8" font-family="Helvetica,sans-Serif" font-size="11.00" fill="#000000">portfolio_id</text>
<polygon fill="none" stroke="#000000" points="417,-525.7 417,-547.7 507,-547.7 507,-525.7 417,-525.7"/>
<text text-anchor="start" x="420" y="-533.4" font-family="Helvetica,sans-Serif" font-size="11.00" fill="#000000">varchar[100]</text>
<polygon fill="#ffffff" stroke="transparent" points="245,-503.7 245,-525.7 417,-525.7 417,-503.7 245,-503.7"/>
<polygon fill="none" stroke="#000000" points="245,-503.7 245,-525.7 417,-525.7 417,-503.7 245,-503.7"/>
<text text-anchor="start" x="265" y="-510.8" font-family="Helvetica,sans-Serif" font-size="11.00" fill="#000000">calculation_date</text>
<polygon fill="none" stroke="#000000" points="417,-503.7 417,-525.7 507,-525.7 507,-503.7 417,-503.7"/>
<text text-anchor="start" x="420" y="-511.4" font-family="Helvetica,sans-Serif" font-size="11.00" fill="#000000">date[13]</text>
<polygon fill="none" stroke="#000000" points="245,-481.7 245,-503.7 417,-503.7 417,-481.7 245,-481.7"/>
<text text-anchor="start" x="265" y="-488.8" font-family="Helvetica,sans-Serif" font-size="11.00" fill="#000000">reporting_currency</text>
<polygon fill="none" stroke="#000000" points="417,-481.7 417,-503.7 507,-503.7 507,-481.7 417,-481.7"/>
<text text-anchor="start" x="420" y="-489.4" font-family="Helvetica,sans-Serif" font-size="11.00" fill="#000000">varchar[3]</text>
<polygon fill="#ffffff" stroke="transparent" points="245,-459.7 245,-481.7 417,-481.7 417,-459.7 245,-459.7"/>
<polygon fill="none" stroke="#000000" points="245,-459.7 245,-481.7 417,-481.7 417,-459.7 245,-459.7"/>
<text text-anchor="start" x="265" y="-466.8" font-family="Helvetica,sans-Serif" font-size="11.00" fill="#000000">calculation_status</text>
<polygon fill="none" stroke="#000000" points="417,-459.7 417,-481.7 507,-481.7 507,-459.7 417,-459.7"/>
<text text-anchor="start" x="420" y="-467.4" font-family="Helvetica,sans-Serif" font-size="11.00" fill="#000000">varchar[20]</text>
<polygon fill="none" stroke="#000000" points="245,-437.7 245,-459.7 417,-459.7 417,-437.7 245,-437.7"/>
<text text-anchor="start" x="265" y="-444.8" font-family="Helvetica,sans-Serif" font-size="11.00" fill="#000000">total_im</text>
<polygon fill="none" stroke="#000000" points="417,-437.7 417,-459.7 507,-459.7 507,-437.7 417,-437.7"/>
<text text-anchor="start" x="420" y="-445.4" font-family="Helvetica,sans-Serif" font-size="11.00" fill="#000000">numeric[20,8]</text>
<polygon fill="none" stroke="#000000" points="245,-415.7 245,-437.7 417,-437.7 417,-415.7 245,-415.7"/>
<text text-anchor="start" x="265" y="-422.8" font-family="Helvetica,sans-Serif" font-size="11.00" fill="#000000">total_im_usd</text>
<polygon fill="none" stroke="#000000" points="417,-415.7 417,-437.7 507,-437.7 507,-415.7 417,-415.7"/>
<text text-anchor="start" x="420" y="-423.4" font-family="Helvetica,sans-Serif" font-size="11.00" fill="#000000">numeric[20,8]</text>
<polygon fill="none" stroke="#000000" points="245,-393.7 245,-415.7 417,-415.7 417,-393.7 245,-393.7"/>
<text text-anchor="start" x="265" y="-400.8" font-family="Helvetica,sans-Serif" font-size="11.00" fill="#000000">diversification_benefit</text>
<polygon fill="none" stroke="#000000" points="417,-393.7 417,-415.7 507,-415.7 507,-393.7 417,-393.7"/>
<text text-anchor="start" x="420" y="-401.4" font-family="Helvetica,sans-Serif" font-size="11.00" fill="#000000">numeric[20,8]</text>
<polygon fill="none" stroke="#000000" points="245,-371.7 245,-393.7 417,-393.7 417,-371.7 245,-371.7"/>
<text text-anchor="start" x="265" y="-378.8" font-family="Helvetica,sans-Serif" font-size="11.00" fill="#000000">calculation_time_ms</text>
<polygon fill="none" stroke="#000000" points="417,-371.7 417,-393.7 507,-393.7 507,-371.7 417,-371.7"/>
<text text-anchor="start" x="420" y="-379.4" font-family="Helvetica,sans-Serif" font-size="11.00" fill="#000000">int8[19]</text>
<polygon fill="none" stroke="#000000" points="245,-349.7 245,-371.7 417,-371.7 417,-349.7 245,-349.7"/>
<text text-anchor="start" x="265" y="-356.8" font-family="Helvetica,sans-Serif" font-size="11.00" fill="#000000">error_message</text>
<polygon fill="none" stroke="#000000" points="417,-349.7 417,-371.7 507,-371.7 507,-349.7 417,-349.7"/>
<text text-anchor="start" x="419.5043" y="-357.4" font-family="Helvetica,sans-Serif" font-size="11.00" fill="#000000">text[2147483647]</text>
<polygon fill="#ffffff" stroke="transparent" points="245,-327.7 245,-349.7 417,-349.7 417,-327.7 245,-327.7"/>
<polygon fill="none" stroke="#000000" points="245,-327.7 245,-349.7 417,-349.7 417,-327.7 245,-327.7"/>
<text text-anchor="start" x="265" y="-334.8" font-family="Helvetica,sans-Serif" font-size="11.00" fill="#000000">created_at</text>
<polygon fill="none" stroke="#000000" points="417,-327.7 417,-349.7 507,-349.7 507,-327.7 417,-327.7"/>
<text text-anchor="start" x="420" y="-335.4" font-family="Helvetica,sans-Serif" font-size="11.00" fill="#000000">timestamp[29,6]</text>
<polygon fill="none" stroke="#000000" points="245,-305.7 245,-327.7 417,-327.7 417,-305.7 245,-305.7"/>
<text text-anchor="start" x="265" y="-312.8" font-family="Helvetica,sans-Serif" font-size="11.00" fill="#000000">updated_at</text>
<polygon fill="none" stroke="#000000" points="417,-305.7 417,-327.7 507,-327.7 507,-305.7 417,-305.7"/>
<text text-anchor="start" x="420" y="-313.4" font-family="Helvetica,sans-Serif" font-size="11.00" fill="#000000">timestamp[29,6]</text>
<polygon fill="#ffffff" stroke="transparent" points="245,-286.7 245,-305.7 335,-305.7 335,-286.7 245,-286.7"/>
<polygon fill="none" stroke="#000000" points="245,-286.7 245,-305.7 335,-305.7 335,-286.7 245,-286.7"/>
<text text-anchor="start" x="248" y="-292.8" font-family="Helvetica,sans-Serif" font-size="11.00" fill="#000000">&lt; 2</text>
<polygon fill="#ffffff" stroke="transparent" points="335,-286.7 335,-305.7 417,-305.7 417,-286.7 335,-286.7"/>
<polygon fill="none" stroke="#000000" points="335,-286.7 335,-305.7 417,-305.7 417,-286.7 335,-286.7"/>
<text text-anchor="start" x="407.8862" y="-292.8" font-family="Helvetica,sans-Serif" font-size="11.00" fill="#000000"> &#160;</text>
<polygon fill="#ffffff" stroke="transparent" points="417,-286.7 417,-305.7 507,-305.7 507,-286.7 417,-286.7"/>
<polygon fill="none" stroke="#000000" points="417,-286.7 417,-305.7 507,-305.7 507,-286.7 417,-286.7"/>
<text text-anchor="start" x="488.4053" y="-292.8" font-family="Helvetica,sans-Serif" font-size="11.00" fill="#000000">2 &gt;</text>
<polygon fill="none" stroke="#000000" stroke-width="2" points="244,-285.7 244,-659.7 508,-659.7 508,-285.7 244,-285.7"/>
</a>
</g>
</g>
<!-- simm_calculation_audit&#45;&gt;simm_calculations -->
<g id="edge3" class="edge">
<title>simm_calculation_audit:w&#45;&gt;simm_calculations:e</title>
<path fill="none" stroke="#000000" d="M549.3885,-694.5094C528.2982,-678.8552 542.3987,-624.7 507,-624.7"/>
<polygon fill="#000000" stroke="#000000" points="555.831,-696.4226 562.4752,-702.151 559.6655,-697.5613 563.5,-698.7 563.5,-698.7 563.5,-698.7 559.6655,-697.5613 564.5248,-695.249 555.831,-696.4226 555.831,-696.4226"/>
<ellipse fill="none" stroke="#000000" cx="552.7634" cy="-695.5116" rx="3.2" ry="3.2"/>
</g>
<!-- simm_calculations&#45;&gt;crif_uploads -->
<g id="edge6" class="edge">
<title>simm_calculations:w&#45;&gt;crif_uploads:e</title>
<path fill="none" stroke="#000000" d="M230.7957,-583.7869C205.2308,-596.5711 210.8411,-644.7 174,-644.7"/>
<polygon fill="#000000" stroke="#000000" points="237.1825,-582.3989 245.7645,-584.2179 241.0912,-581.5495 245,-580.7 245,-580.7 245,-580.7 241.0912,-581.5495 244.2355,-577.1821 237.1825,-582.3989 237.1825,-582.3989"/>
<ellipse fill="none" stroke="#000000" cx="234.0555" cy="-583.0785" rx="3.2" ry="3.2"/>
</g>
<!-- simm_calculations&#45;&gt;simm_parameter_sets -->
<g id="edge5" class="edge">
<title>simm_calculations:w&#45;&gt;simm_parameter_sets:e</title>
<path fill="none" stroke="#000000" d="M230.9684,-554.0218C176.4006,-511.191 271.4879,-188.7 194,-188.7"/>
<polygon fill="#000000" stroke="#000000" points="237.4107,-556.1697 243.8614,-562.1152 241.2053,-557.4348 245,-558.7 245,-558.7 245,-558.7 241.2053,-557.4348 246.1386,-555.2848 237.4107,-556.1697 237.4107,-556.1697"/>
<ellipse fill="none" stroke="#000000" cx="234.375" cy="-555.1575" rx="3.2" ry="3.2"/>
</g>
<!-- simm_calculation_results -->
<g id="node7" class="node">
<title>simm_calculation_results</title>
<g id="a_node7"><a xlink:href="../../tables/simm_calculation_results.html" xlink:title="simm_calculation_results" target="_top">
<polygon fill="#ffffff" stroke="transparent" points="558,-458.2 558,-607.2 765,-607.2 765,-458.2 558,-458.2"/>
<polygon fill="#f5f5f5" stroke="transparent" points="558.5,-583.7 558.5,-606.7 765.5,-606.7 765.5,-583.7 558.5,-583.7"/>
<polygon fill="none" stroke="#000000" points="558.5,-583.7 558.5,-606.7 765.5,-606.7 765.5,-583.7 558.5,-583.7"/>
<text text-anchor="start" x="563.5" y="-592.3" font-family="Helvetica,sans-Serif" font-weight="bold" font-size="11.00" fill="#000000">simm_calculation_results</text>
<text text-anchor="start" x="731.0219" y="-591.8" font-family="Helvetica,sans-Serif" font-size="11.00" fill="#000000">[table]</text>
<polygon fill="none" stroke="#000000" points="558.5,-561.7 558.5,-583.7 765.5,-583.7 765.5,-561.7 558.5,-561.7"/>
<image xlink:href="../../images/primaryKeys.png" width="11px" height="12px" preserveAspectRatio="xMinYMin meet" x="563.5" y="-578.7"/>
<text text-anchor="start" x="587.5" y="-568.8" font-family="Helvetica,sans-Serif" font-size="11.00" fill="#000000">id</text>
<polygon fill="#ffffff" stroke="transparent" points="558.5,-539.7 558.5,-561.7 765.5,-561.7 765.5,-539.7 558.5,-539.7"/>
<polygon fill="none" stroke="#000000" points="558.5,-539.7 558.5,-561.7 765.5,-561.7 765.5,-539.7 558.5,-539.7"/>
<image xlink:href="../../images/foreignKeys.png" width="11px" height="12px" preserveAspectRatio="xMinYMin meet" x="563.5" y="-556.7"/>
<text text-anchor="start" x="587.5" y="-546.8" font-family="Helvetica,sans-Serif" font-size="11.00" fill="#000000">calculation_id</text>
<polygon fill="#ffffff" stroke="transparent" points="558.5,-517.7 558.5,-539.7 765.5,-539.7 765.5,-517.7 558.5,-517.7"/>
<polygon fill="none" stroke="#000000" points="558.5,-517.7 558.5,-539.7 765.5,-539.7 765.5,-517.7 558.5,-517.7"/>
<text text-anchor="start" x="587.5" y="-524.8" font-family="Helvetica,sans-Serif" font-size="11.00" fill="#000000">risk_class</text>
<polygon fill="#ffffff" stroke="transparent" points="558.5,-495.7 558.5,-517.7 765.5,-517.7 765.5,-495.7 558.5,-495.7"/>
<polygon fill="none" stroke="#000000" points="558.5,-495.7 558.5,-517.7 765.5,-517.7 765.5,-495.7 558.5,-495.7"/>
<text text-anchor="start" x="587.5" y="-502.8" font-family="Helvetica,sans-Serif" font-size="11.00" fill="#000000">bucket</text>
<polygon fill="none" stroke="#000000" points="558.5,-476.7 558.5,-495.7 765.5,-495.7 765.5,-476.7 558.5,-476.7"/>
<text text-anchor="start" x="561.5" y="-482.8" font-family="Helvetica,sans-Serif" font-size="11.00" fill="#000000">...</text>
<polygon fill="#ffffff" stroke="transparent" points="558.5,-457.7 558.5,-476.7 660.5,-476.7 660.5,-457.7 558.5,-457.7"/>
<polygon fill="none" stroke="#000000" points="558.5,-457.7 558.5,-476.7 660.5,-476.7 660.5,-457.7 558.5,-457.7"/>
<text text-anchor="start" x="561.5" y="-463.8" font-family="Helvetica,sans-Serif" font-size="11.00" fill="#000000">&lt; 1</text>
<polygon fill="#ffffff" stroke="transparent" points="660.5,-457.7 660.5,-476.7 712.5,-476.7 712.5,-457.7 660.5,-457.7"/>
<polygon fill="none" stroke="#000000" points="660.5,-457.7 660.5,-476.7 712.5,-476.7 712.5,-457.7 660.5,-457.7"/>
<text text-anchor="start" x="703.3862" y="-463.8" font-family="Helvetica,sans-Serif" font-size="11.00" fill="#000000"> &#160;</text>
<polygon fill="#ffffff" stroke="transparent" points="712.5,-457.7 712.5,-476.7 765.5,-476.7 765.5,-457.7 712.5,-457.7"/>
<polygon fill="none" stroke="#000000" points="712.5,-457.7 712.5,-476.7 765.5,-476.7 765.5,-457.7 712.5,-457.7"/>
<text text-anchor="start" x="756.3862" y="-463.8" font-family="Helvetica,sans-Serif" font-size="11.00" fill="#000000"> &#160;</text>
</a>
</g>
</g>
<!-- simm_calculation_results&#45;&gt;simm_calculations -->
<g id="edge4" class="edge">
<title>simm_calculation_results:w&#45;&gt;simm_calculations:e</title>
<path fill="none" stroke="#000000" d="M544.7488,-555.1074C525.4187,-571.0383 541.1218,-624.7 507,-624.7"/>
<polygon fill="#000000" stroke="#000000" points="550.8817,-553.1418 559.5988,-554.1282 554.6909,-551.9209 558.5,-550.7 558.5,-550.7 558.5,-550.7 554.6909,-551.9209 557.4012,-547.2718 550.8817,-553.1418 550.8817,-553.1418"/>
<ellipse fill="none" stroke="#000000" cx="547.8344" cy="-554.1185" rx="3.2" ry="3.2"/>
</g>
<!-- simm_correlations -->
<g id="node8" class="node">
<title>simm_correlations</title>
<g id="a_node8"><a xlink:href="../../tables/simm_correlations.html" xlink:title="simm_correlations" target="_top">
<polygon fill="#ffffff" stroke="transparent" points="295,-120.2 295,-181.2 457,-181.2 457,-120.2 295,-120.2"/>
<polygon fill="#f5f5f5" stroke="transparent" points="295,-157.7 295,-180.7 457,-180.7 457,-157.7 295,-157.7"/>
<polygon fill="none" stroke="#000000" points="295,-157.7 295,-180.7 457,-180.7 457,-157.7 295,-157.7"/>
<text text-anchor="start" x="300" y="-166.3" font-family="Helvetica,sans-Serif" font-weight="bold" font-size="11.00" fill="#000000">simm_correlations</text>
<text text-anchor="start" x="422.5219" y="-165.8" font-family="Helvetica,sans-Serif" font-size="11.00" fill="#000000">[table]</text>
<polygon fill="none" stroke="#000000" points="295,-138.7 295,-157.7 457,-157.7 457,-138.7 295,-138.7"/>
<text text-anchor="start" x="298" y="-144.8" font-family="Helvetica,sans-Serif" font-size="11.00" fill="#000000">...</text>
<polygon fill="#ffffff" stroke="transparent" points="295,-119.7 295,-138.7 374,-138.7 374,-119.7 295,-119.7"/>
<polygon fill="none" stroke="#000000" points="295,-119.7 295,-138.7 374,-138.7 374,-119.7 295,-119.7"/>
<text text-anchor="start" x="298" y="-125.8" font-family="Helvetica,sans-Serif" font-size="11.00" fill="#000000">&lt; 1</text>
<polygon fill="#ffffff" stroke="transparent" points="374,-119.7 374,-138.7 415,-138.7 415,-119.7 374,-119.7"/>
<polygon fill="none" stroke="#000000" points="374,-119.7 374,-138.7 415,-138.7 415,-119.7 374,-119.7"/>
<text text-anchor="start" x="405.8862" y="-125.8" font-family="Helvetica,sans-Serif" font-size="11.00" fill="#000000"> &#160;</text>
<polygon fill="#ffffff" stroke="transparent" points="415,-119.7 415,-138.7 457,-138.7 457,-119.7 415,-119.7"/>
<polygon fill="none" stroke="#000000" points="415,-119.7 415,-138.7 457,-138.7 457,-119.7 415,-119.7"/>
<text text-anchor="start" x="447.8862" y="-125.8" font-family="Helvetica,sans-Serif" font-size="11.00" fill="#000000"> &#160;</text>
</a>
</g>
</g>
<!-- simm_correlations&#45;&gt;simm_parameter_sets -->
<g id="edge7" class="edge">
<title>simm_correlations:w&#45;&gt;simm_parameter_sets:e</title>
<path fill="none" stroke="#000000" d="M280.5788,-149.0641C245.1247,-156.1783 237.1476,-188.7 194,-188.7"/>
<polygon fill="#000000" stroke="#000000" points="287.0356,-148.4534 295.339,-151.284 291.0178,-148.0767 295,-147.7 295,-147.7 295,-147.7 291.0178,-148.0767 294.661,-144.116 287.0356,-148.4534 287.0356,-148.4534"/>
<ellipse fill="none" stroke="#000000" cx="283.8498" cy="-148.7548" rx="3.2" ry="3.2"/>
</g>
<!-- simm_risk_weights -->
<g id="node9" class="node">
<title>simm_risk_weights</title>
<g id="a_node9"><a xlink:href="../../tables/simm_risk_weights.html" xlink:title="simm_risk_weights" target="_top">
<polygon fill="#ffffff" stroke="transparent" points="293.5,-38.2 293.5,-99.2 458.5,-99.2 458.5,-38.2 293.5,-38.2"/>
<polygon fill="#f5f5f5" stroke="transparent" points="294,-75.7 294,-98.7 459,-98.7 459,-75.7 294,-75.7"/>
<polygon fill="none" stroke="#000000" points="294,-75.7 294,-98.7 459,-98.7 459,-75.7 294,-75.7"/>
<text text-anchor="start" x="299" y="-84.3" font-family="Helvetica,sans-Serif" font-weight="bold" font-size="11.00" fill="#000000">simm_risk_weights</text>
<text text-anchor="start" x="424.5219" y="-83.8" font-family="Helvetica,sans-Serif" font-size="11.00" fill="#000000">[table]</text>
<polygon fill="none" stroke="#000000" points="294,-56.7 294,-75.7 459,-75.7 459,-56.7 294,-56.7"/>
<text text-anchor="start" x="297" y="-62.8" font-family="Helvetica,sans-Serif" font-size="11.00" fill="#000000">...</text>
<polygon fill="#ffffff" stroke="transparent" points="294,-37.7 294,-56.7 375,-56.7 375,-37.7 294,-37.7"/>
<polygon fill="none" stroke="#000000" points="294,-37.7 294,-56.7 375,-56.7 375,-37.7 294,-37.7"/>
<text text-anchor="start" x="297" y="-43.8" font-family="Helvetica,sans-Serif" font-size="11.00" fill="#000000">&lt; 1</text>
<polygon fill="#ffffff" stroke="transparent" points="375,-37.7 375,-56.7 417,-56.7 417,-37.7 375,-37.7"/>
<polygon fill="none" stroke="#000000" points="375,-37.7 375,-56.7 417,-56.7 417,-37.7 375,-37.7"/>
<text text-anchor="start" x="407.8862" y="-43.8" font-family="Helvetica,sans-Serif" font-size="11.00" fill="#000000"> &#160;</text>
<polygon fill="#ffffff" stroke="transparent" points="417,-37.7 417,-56.7 459,-56.7 459,-37.7 417,-37.7"/>
<polygon fill="none" stroke="#000000" points="417,-37.7 417,-56.7 459,-56.7 459,-37.7 417,-37.7"/>
<text text-anchor="start" x="449.8862" y="-43.8" font-family="Helvetica,sans-Serif" font-size="11.00" fill="#000000"> &#160;</text>
</a>
</g>
</g>
<!-- simm_risk_weights&#45;&gt;simm_parameter_sets -->
<g id="edge8" class="edge">
<title>simm_risk_weights:w&#45;&gt;simm_parameter_sets:e</title>
<path fill="none" stroke="#000000" d="M279.6461,-67.2517C259.1197,-72.2726 252.6243,-88.9602 235,-109.7 209.3841,-139.8441 233.5581,-188.7 194,-188.7"/>
<polygon fill="#000000" stroke="#000000" points="286.0463,-66.5599 294.3869,-69.2791 290.0232,-66.1299 294,-65.7 294,-65.7 294,-65.7 290.0232,-66.1299 293.6131,-62.1209 286.0463,-66.5599 286.0463,-66.5599"/>
<ellipse fill="none" stroke="#000000" cx="282.8649" cy="-66.9038" rx="3.2" ry="3.2"/>
</g>
</g>
</svg>
