<?xml version="1.0" encoding="UTF-8" standalone="no"?>
<!DOCTYPE svg PUBLIC "-//W3C//DTD SVG 1.1//EN"
 "http://www.w3.org/Graphics/SVG/1.1/DTD/svg11.dtd">
<!-- Generated by graphviz version 2.40.1 (20161225.0304)
 -->
<!-- Title: twoDegreesRelationshipsDiagram Pages: 1 -->
<svg width="534pt" height="497pt"
 viewBox="0.00 0.00 534.00 496.70" xmlns="http://www.w3.org/2000/svg" xmlns:xlink="http://www.w3.org/1999/xlink">
<g id="graph0" class="graph" transform="scale(1 1) rotate(0) translate(4 492.7)">
<title>twoDegreesRelationshipsDiagram</title>
<polygon fill="#ffffff" stroke="transparent" points="-4,4 -4,-492.7 530,-492.7 530,4 -4,4"/>
<text text-anchor="middle" x="72.4936" y="-7.3" font-family="Helvetica,sans-Serif" font-size="11.00" fill="#000000">Generated by SchemaSpy</text>
<!-- simm_bucket_mappings -->
<g id="node1" class="node">
<title>simm_bucket_mappings</title>
<g id="a_node1"><a xlink:href="../../tables/simm_bucket_mappings.html" xlink:title="simm_bucket_mappings" target="_top">
<polygon fill="#ffffff" stroke="transparent" points="243,-284.7 243,-484.7 518,-484.7 518,-284.7 243,-284.7"/>
<polygon fill="#f5f5f5" stroke="transparent" points="245.5,-459.7 245.5,-482.7 516.5,-482.7 516.5,-459.7 245.5,-459.7"/>
<polygon fill="none" stroke="#000000" points="245.5,-459.7 245.5,-482.7 516.5,-482.7 516.5,-459.7 245.5,-459.7"/>
<text text-anchor="start" x="250.5" y="-468.3" font-family="Helvetica,sans-Serif" font-weight="bold" font-size="11.00" fill="#000000">simm_bucket_mappings</text>
<text text-anchor="start" x="481.5437" y="-467.8" font-family="Helvetica,sans-Serif" font-size="11.00" fill="#000000">[table]</text>
<polygon fill="none" stroke="#000000" points="245.5,-437.7 245.5,-459.7 426.5,-459.7 426.5,-437.7 245.5,-437.7"/>
<image xlink:href="../../images/primaryKeys.png" width="11px" height="12px" preserveAspectRatio="xMinYMin meet" x="250.5" y="-454.7"/>
<text text-anchor="start" x="265.5" y="-444.8" font-family="Helvetica,sans-Serif" font-size="11.00" fill="#000000">id</text>
<polygon fill="none" stroke="#000000" points="426.5,-437.7 426.5,-459.7 516.5,-459.7 516.5,-437.7 426.5,-437.7"/>
<text text-anchor="start" x="429.5" y="-445.4" font-family="Helvetica,sans-Serif" font-size="11.00" fill="#000000">bigserial[19]</text>
<polygon fill="#ffffff" stroke="transparent" points="245.5,-415.7 245.5,-437.7 426.5,-437.7 426.5,-415.7 245.5,-415.7"/>
<polygon fill="none" stroke="#000000" points="245.5,-415.7 245.5,-437.7 426.5,-437.7 426.5,-415.7 245.5,-415.7"/>
<image xlink:href="../../images/foreignKeys.png" width="11px" height="12px" preserveAspectRatio="xMinYMin meet" x="250.5" y="-432.7"/>
<text text-anchor="start" x="265.5" y="-422.8" font-family="Helvetica,sans-Serif" font-size="11.00" fill="#000000">parameter_set_id</text>
<polygon fill="none" stroke="#000000" points="426.5,-415.7 426.5,-437.7 516.5,-437.7 516.5,-415.7 426.5,-415.7"/>
<text text-anchor="start" x="429.5" y="-423.4" font-family="Helvetica,sans-Serif" font-size="11.00" fill="#000000">int8[19]</text>
<polygon fill="#ffffff" stroke="transparent" points="245.5,-393.7 245.5,-415.7 426.5,-415.7 426.5,-393.7 245.5,-393.7"/>
<polygon fill="none" stroke="#000000" points="245.5,-393.7 245.5,-415.7 426.5,-415.7 426.5,-393.7 245.5,-393.7"/>
<text text-anchor="start" x="265.5" y="-400.8" font-family="Helvetica,sans-Serif" font-size="11.00" fill="#000000">risk_class</text>
<polygon fill="none" stroke="#000000" points="426.5,-393.7 426.5,-415.7 516.5,-415.7 516.5,-393.7 426.5,-393.7"/>
<text text-anchor="start" x="429.5" y="-401.4" font-family="Helvetica,sans-Serif" font-size="11.00" fill="#000000">varchar[20]</text>
<polygon fill="#ffffff" stroke="transparent" points="245.5,-371.7 245.5,-393.7 426.5,-393.7 426.5,-371.7 245.5,-371.7"/>
<polygon fill="none" stroke="#000000" points="245.5,-371.7 245.5,-393.7 426.5,-393.7 426.5,-371.7 245.5,-371.7"/>
<text text-anchor="start" x="265.5" y="-378.8" font-family="Helvetica,sans-Serif" font-size="11.00" fill="#000000">risk_factor</text>
<polygon fill="none" stroke="#000000" points="426.5,-371.7 426.5,-393.7 516.5,-393.7 516.5,-371.7 426.5,-371.7"/>
<text text-anchor="start" x="429.5" y="-379.4" font-family="Helvetica,sans-Serif" font-size="11.00" fill="#000000">varchar[100]</text>
<polygon fill="none" stroke="#000000" points="245.5,-349.7 245.5,-371.7 426.5,-371.7 426.5,-349.7 245.5,-349.7"/>
<text text-anchor="start" x="265.5" y="-356.8" font-family="Helvetica,sans-Serif" font-size="11.00" fill="#000000">bucket</text>
<polygon fill="none" stroke="#000000" points="426.5,-349.7 426.5,-371.7 516.5,-371.7 516.5,-349.7 426.5,-349.7"/>
<text text-anchor="start" x="429.5" y="-357.4" font-family="Helvetica,sans-Serif" font-size="11.00" fill="#000000">varchar[10]</text>
<polygon fill="none" stroke="#000000" points="245.5,-327.7 245.5,-349.7 426.5,-349.7 426.5,-327.7 245.5,-327.7"/>
<text text-anchor="start" x="265.5" y="-334.8" font-family="Helvetica,sans-Serif" font-size="11.00" fill="#000000">description</text>
<polygon fill="none" stroke="#000000" points="426.5,-327.7 426.5,-349.7 516.5,-349.7 516.5,-327.7 426.5,-327.7"/>
<text text-anchor="start" x="429.0043" y="-335.4" font-family="Helvetica,sans-Serif" font-size="11.00" fill="#000000">text[2147483647]</text>
<polygon fill="none" stroke="#000000" points="245.5,-305.7 245.5,-327.7 426.5,-327.7 426.5,-305.7 245.5,-305.7"/>
<text text-anchor="start" x="265.5" y="-312.8" font-family="Helvetica,sans-Serif" font-size="11.00" fill="#000000">created_at</text>
<polygon fill="none" stroke="#000000" points="426.5,-305.7 426.5,-327.7 516.5,-327.7 516.5,-305.7 426.5,-305.7"/>
<text text-anchor="start" x="429.5" y="-313.4" font-family="Helvetica,sans-Serif" font-size="11.00" fill="#000000">timestamp[29,6]</text>
<polygon fill="#ffffff" stroke="transparent" points="245.5,-286.7 245.5,-305.7 340.5,-305.7 340.5,-286.7 245.5,-286.7"/>
<polygon fill="none" stroke="#000000" points="245.5,-286.7 245.5,-305.7 340.5,-305.7 340.5,-286.7 245.5,-286.7"/>
<text text-anchor="start" x="248.5" y="-292.8" font-family="Helvetica,sans-Serif" font-size="11.00" fill="#000000">&lt; 1</text>
<polygon fill="#ffffff" stroke="transparent" points="340.5,-286.7 340.5,-305.7 426.5,-305.7 426.5,-286.7 340.5,-286.7"/>
<polygon fill="none" stroke="#000000" points="340.5,-286.7 340.5,-305.7 426.5,-305.7 426.5,-286.7 340.5,-286.7"/>
<text text-anchor="start" x="417.3862" y="-292.8" font-family="Helvetica,sans-Serif" font-size="11.00" fill="#000000"> &#160;</text>
<polygon fill="#ffffff" stroke="transparent" points="426.5,-286.7 426.5,-305.7 516.5,-305.7 516.5,-286.7 426.5,-286.7"/>
<polygon fill="none" stroke="#000000" points="426.5,-286.7 426.5,-305.7 516.5,-305.7 516.5,-286.7 426.5,-286.7"/>
<text text-anchor="start" x="497.9053" y="-292.8" font-family="Helvetica,sans-Serif" font-size="11.00" fill="#000000">0 &gt;</text>
<polygon fill="none" stroke="#000000" stroke-width="2" points="244,-285.7 244,-483.7 517,-483.7 517,-285.7 244,-285.7"/>
</a>
</g>
</g>
<!-- simm_parameter_sets -->
<g id="node2" class="node">
<title>simm_parameter_sets</title>
<g id="a_node2"><a xlink:href="../../tables/simm_parameter_sets.html" xlink:title="simm_parameter_sets" target="_top">
<polygon fill="#ffffff" stroke="transparent" points="8,-52.2 8,-223.2 194,-223.2 194,-52.2 8,-52.2"/>
<polygon fill="#f5f5f5" stroke="transparent" points="8,-199.7 8,-222.7 194,-222.7 194,-199.7 8,-199.7"/>
<polygon fill="none" stroke="#000000" points="8,-199.7 8,-222.7 194,-222.7 194,-199.7 8,-199.7"/>
<text text-anchor="start" x="13" y="-208.3" font-family="Helvetica,sans-Serif" font-weight="bold" font-size="11.00" fill="#000000">simm_parameter_sets</text>
<text text-anchor="start" x="159.5219" y="-207.8" font-family="Helvetica,sans-Serif" font-size="11.00" fill="#000000">[table]</text>
<polygon fill="none" stroke="#000000" points="8,-177.7 8,-199.7 194,-199.7 194,-177.7 8,-177.7"/>
<image xlink:href="../../images/primaryKeys.png" width="11px" height="12px" preserveAspectRatio="xMinYMin meet" x="13" y="-194.7"/>
<text text-anchor="start" x="37" y="-184.8" font-family="Helvetica,sans-Serif" font-size="11.00" fill="#000000">id</text>
<polygon fill="#ffffff" stroke="transparent" points="8,-155.7 8,-177.7 194,-177.7 194,-155.7 8,-155.7"/>
<polygon fill="none" stroke="#000000" points="8,-155.7 8,-177.7 194,-177.7 194,-155.7 8,-155.7"/>
<text text-anchor="start" x="37" y="-162.8" font-family="Helvetica,sans-Serif" font-size="11.00" fill="#000000">version_name</text>
<polygon fill="#ffffff" stroke="transparent" points="8,-133.7 8,-155.7 194,-155.7 194,-133.7 8,-133.7"/>
<polygon fill="none" stroke="#000000" points="8,-133.7 8,-155.7 194,-155.7 194,-133.7 8,-133.7"/>
<text text-anchor="start" x="37" y="-140.8" font-family="Helvetica,sans-Serif" font-size="11.00" fill="#000000">isda_version</text>
<polygon fill="#ffffff" stroke="transparent" points="8,-111.7 8,-133.7 194,-133.7 194,-111.7 8,-111.7"/>
<polygon fill="none" stroke="#000000" points="8,-111.7 8,-133.7 194,-133.7 194,-111.7 8,-111.7"/>
<text text-anchor="start" x="37" y="-118.8" font-family="Helvetica,sans-Serif" font-size="11.00" fill="#000000">effective_date</text>
<polygon fill="#ffffff" stroke="transparent" points="8,-89.7 8,-111.7 194,-111.7 194,-89.7 8,-89.7"/>
<polygon fill="none" stroke="#000000" points="8,-89.7 8,-111.7 194,-111.7 194,-89.7 8,-89.7"/>
<text text-anchor="start" x="37" y="-96.8" font-family="Helvetica,sans-Serif" font-size="11.00" fill="#000000">is_active</text>
<polygon fill="none" stroke="#000000" points="8,-70.7 8,-89.7 194,-89.7 194,-70.7 8,-70.7"/>
<text text-anchor="start" x="11" y="-76.8" font-family="Helvetica,sans-Serif" font-size="11.00" fill="#000000">...</text>
<polygon fill="#ffffff" stroke="transparent" points="8,-51.7 8,-70.7 90,-70.7 90,-51.7 8,-51.7"/>
<polygon fill="none" stroke="#000000" points="8,-51.7 8,-70.7 90,-70.7 90,-51.7 8,-51.7"/>
<text text-anchor="start" x="11" y="-57.8" font-family="Helvetica,sans-Serif" font-size="11.00" fill="#000000"> &#160;</text>
<polygon fill="#ffffff" stroke="transparent" points="90,-51.7 90,-70.7 137,-70.7 137,-51.7 90,-51.7"/>
<polygon fill="none" stroke="#000000" points="90,-51.7 90,-70.7 137,-70.7 137,-51.7 90,-51.7"/>
<text text-anchor="start" x="127.8862" y="-57.8" font-family="Helvetica,sans-Serif" font-size="11.00" fill="#000000"> &#160;</text>
<polygon fill="#ffffff" stroke="transparent" points="137,-51.7 137,-70.7 194,-70.7 194,-51.7 137,-51.7"/>
<polygon fill="none" stroke="#000000" points="137,-51.7 137,-70.7 194,-70.7 194,-51.7 137,-51.7"/>
<text text-anchor="start" x="175.4053" y="-57.8" font-family="Helvetica,sans-Serif" font-size="11.00" fill="#000000">4 &gt;</text>
</a>
</g>
</g>
<!-- simm_bucket_mappings&#45;&gt;simm_parameter_sets -->
<g id="edge1" class="edge">
<title>simm_bucket_mappings:w&#45;&gt;simm_parameter_sets:e</title>
<path fill="none" stroke="#000000" d="M231.0543,-424.9211C153.3226,-403.1419 296.73,-188.7 194,-188.7"/>
<polygon fill="#000000" stroke="#000000" points="237.56,-425.7222 245.06,-430.273 241.53,-426.2111 245.5,-426.7 245.5,-426.7 245.5,-426.7 241.53,-426.2111 245.94,-423.127 237.56,-425.7222 237.56,-425.7222"/>
<ellipse fill="none" stroke="#000000" cx="234.384" cy="-425.3311" rx="3.2" ry="3.2"/>
</g>
<!-- simm_calculations -->
<g id="node3" class="node">
<title>simm_calculations</title>
<g id="a_node3"><a xlink:href="../../tables/simm_calculations.html" xlink:title="simm_calculations" target="_top">
<polygon fill="#ffffff" stroke="transparent" points="299.5,-202.2 299.5,-263.2 461.5,-263.2 461.5,-202.2 299.5,-202.2"/>
<polygon fill="#f5f5f5" stroke="transparent" points="299.5,-239.7 299.5,-262.7 461.5,-262.7 461.5,-239.7 299.5,-239.7"/>
<polygon fill="none" stroke="#000000" points="299.5,-239.7 299.5,-262.7 461.5,-262.7 461.5,-239.7 299.5,-239.7"/>
<text text-anchor="start" x="304.5" y="-248.3" font-family="Helvetica,sans-Serif" font-weight="bold" font-size="11.00" fill="#000000">simm_calculations</text>
<text text-anchor="start" x="427.0219" y="-247.8" font-family="Helvetica,sans-Serif" font-size="11.00" fill="#000000">[table]</text>
<polygon fill="none" stroke="#000000" points="299.5,-220.7 299.5,-239.7 461.5,-239.7 461.5,-220.7 299.5,-220.7"/>
<text text-anchor="start" x="302.5" y="-226.8" font-family="Helvetica,sans-Serif" font-size="11.00" fill="#000000">...</text>
<polygon fill="#ffffff" stroke="transparent" points="299.5,-201.7 299.5,-220.7 374.5,-220.7 374.5,-201.7 299.5,-201.7"/>
<polygon fill="none" stroke="#000000" points="299.5,-201.7 299.5,-220.7 374.5,-220.7 374.5,-201.7 299.5,-201.7"/>
<text text-anchor="start" x="302.5" y="-207.8" font-family="Helvetica,sans-Serif" font-size="11.00" fill="#000000">&lt; 2</text>
<polygon fill="#ffffff" stroke="transparent" points="374.5,-201.7 374.5,-220.7 413.5,-220.7 413.5,-201.7 374.5,-201.7"/>
<polygon fill="none" stroke="#000000" points="374.5,-201.7 374.5,-220.7 413.5,-220.7 413.5,-201.7 374.5,-201.7"/>
<text text-anchor="start" x="404.3862" y="-207.8" font-family="Helvetica,sans-Serif" font-size="11.00" fill="#000000"> &#160;</text>
<polygon fill="#ffffff" stroke="transparent" points="413.5,-201.7 413.5,-220.7 461.5,-220.7 461.5,-201.7 413.5,-201.7"/>
<polygon fill="none" stroke="#000000" points="413.5,-201.7 413.5,-220.7 461.5,-220.7 461.5,-201.7 413.5,-201.7"/>
<text text-anchor="start" x="442.9053" y="-207.8" font-family="Helvetica,sans-Serif" font-size="11.00" fill="#000000">2 &gt;</text>
</a>
</g>
</g>
<!-- simm_calculations&#45;&gt;simm_parameter_sets -->
<g id="edge2" class="edge">
<title>simm_calculations:w&#45;&gt;simm_parameter_sets:e</title>
<path fill="none" stroke="#000000" d="M284.9921,-228.428C247.6582,-221.5076 238.9996,-188.7 194,-188.7"/>
<polygon fill="#000000" stroke="#000000" points="291.5306,-229.0012 299.1855,-233.2862 295.5153,-229.3506 299.5,-229.7 299.5,-229.7 299.5,-229.7 295.5153,-229.3506 299.8145,-226.1138 291.5306,-229.0012 291.5306,-229.0012"/>
<ellipse fill="none" stroke="#000000" cx="288.3428" cy="-228.7217" rx="3.2" ry="3.2"/>
</g>
<!-- simm_correlations -->
<g id="node4" class="node">
<title>simm_correlations</title>
<g id="a_node4"><a xlink:href="../../tables/simm_correlations.html" xlink:title="simm_correlations" target="_top">
<polygon fill="#ffffff" stroke="transparent" points="299.5,-120.2 299.5,-181.2 461.5,-181.2 461.5,-120.2 299.5,-120.2"/>
<polygon fill="#f5f5f5" stroke="transparent" points="299.5,-157.7 299.5,-180.7 461.5,-180.7 461.5,-157.7 299.5,-157.7"/>
<polygon fill="none" stroke="#000000" points="299.5,-157.7 299.5,-180.7 461.5,-180.7 461.5,-157.7 299.5,-157.7"/>
<text text-anchor="start" x="304.5" y="-166.3" font-family="Helvetica,sans-Serif" font-weight="bold" font-size="11.00" fill="#000000">simm_correlations</text>
<text text-anchor="start" x="427.0219" y="-165.8" font-family="Helvetica,sans-Serif" font-size="11.00" fill="#000000">[table]</text>
<polygon fill="none" stroke="#000000" points="299.5,-138.7 299.5,-157.7 461.5,-157.7 461.5,-138.7 299.5,-138.7"/>
<text text-anchor="start" x="302.5" y="-144.8" font-family="Helvetica,sans-Serif" font-size="11.00" fill="#000000">...</text>
<polygon fill="#ffffff" stroke="transparent" points="299.5,-119.7 299.5,-138.7 378.5,-138.7 378.5,-119.7 299.5,-119.7"/>
<polygon fill="none" stroke="#000000" points="299.5,-119.7 299.5,-138.7 378.5,-138.7 378.5,-119.7 299.5,-119.7"/>
<text text-anchor="start" x="302.5" y="-125.8" font-family="Helvetica,sans-Serif" font-size="11.00" fill="#000000">&lt; 1</text>
<polygon fill="#ffffff" stroke="transparent" points="378.5,-119.7 378.5,-138.7 419.5,-138.7 419.5,-119.7 378.5,-119.7"/>
<polygon fill="none" stroke="#000000" points="378.5,-119.7 378.5,-138.7 419.5,-138.7 419.5,-119.7 378.5,-119.7"/>
<text text-anchor="start" x="410.3862" y="-125.8" font-family="Helvetica,sans-Serif" font-size="11.00" fill="#000000"> &#160;</text>
<polygon fill="#ffffff" stroke="transparent" points="419.5,-119.7 419.5,-138.7 461.5,-138.7 461.5,-119.7 419.5,-119.7"/>
<polygon fill="none" stroke="#000000" points="419.5,-119.7 419.5,-138.7 461.5,-138.7 461.5,-119.7 419.5,-119.7"/>
<text text-anchor="start" x="452.3862" y="-125.8" font-family="Helvetica,sans-Serif" font-size="11.00" fill="#000000"> &#160;</text>
</a>
</g>
</g>
<!-- simm_correlations&#45;&gt;simm_parameter_sets -->
<g id="edge3" class="edge">
<title>simm_correlations:w&#45;&gt;simm_parameter_sets:e</title>
<path fill="none" stroke="#000000" d="M284.9921,-148.972C247.6582,-155.8924 238.9996,-188.7 194,-188.7"/>
<polygon fill="#000000" stroke="#000000" points="291.5306,-148.3988 299.8145,-151.2862 295.5153,-148.0494 299.5,-147.7 299.5,-147.7 299.5,-147.7 295.5153,-148.0494 299.1855,-144.1138 291.5306,-148.3988 291.5306,-148.3988"/>
<ellipse fill="none" stroke="#000000" cx="288.3428" cy="-148.6783" rx="3.2" ry="3.2"/>
</g>
<!-- simm_risk_weights -->
<g id="node5" class="node">
<title>simm_risk_weights</title>
<g id="a_node5"><a xlink:href="../../tables/simm_risk_weights.html" xlink:title="simm_risk_weights" target="_top">
<polygon fill="#ffffff" stroke="transparent" points="298,-38.2 298,-99.2 463,-99.2 463,-38.2 298,-38.2"/>
<polygon fill="#f5f5f5" stroke="transparent" points="298.5,-75.7 298.5,-98.7 463.5,-98.7 463.5,-75.7 298.5,-75.7"/>
<polygon fill="none" stroke="#000000" points="298.5,-75.7 298.5,-98.7 463.5,-98.7 463.5,-75.7 298.5,-75.7"/>
<text text-anchor="start" x="303.5" y="-84.3" font-family="Helvetica,sans-Serif" font-weight="bold" font-size="11.00" fill="#000000">simm_risk_weights</text>
<text text-anchor="start" x="429.0219" y="-83.8" font-family="Helvetica,sans-Serif" font-size="11.00" fill="#000000">[table]</text>
<polygon fill="none" stroke="#000000" points="298.5,-56.7 298.5,-75.7 463.5,-75.7 463.5,-56.7 298.5,-56.7"/>
<text text-anchor="start" x="301.5" y="-62.8" font-family="Helvetica,sans-Serif" font-size="11.00" fill="#000000">...</text>
<polygon fill="#ffffff" stroke="transparent" points="298.5,-37.7 298.5,-56.7 379.5,-56.7 379.5,-37.7 298.5,-37.7"/>
<polygon fill="none" stroke="#000000" points="298.5,-37.7 298.5,-56.7 379.5,-56.7 379.5,-37.7 298.5,-37.7"/>
<text text-anchor="start" x="301.5" y="-43.8" font-family="Helvetica,sans-Serif" font-size="11.00" fill="#000000">&lt; 1</text>
<polygon fill="#ffffff" stroke="transparent" points="379.5,-37.7 379.5,-56.7 421.5,-56.7 421.5,-37.7 379.5,-37.7"/>
<polygon fill="none" stroke="#000000" points="379.5,-37.7 379.5,-56.7 421.5,-56.7 421.5,-37.7 379.5,-37.7"/>
<text text-anchor="start" x="412.3862" y="-43.8" font-family="Helvetica,sans-Serif" font-size="11.00" fill="#000000"> &#160;</text>
<polygon fill="#ffffff" stroke="transparent" points="421.5,-37.7 421.5,-56.7 463.5,-56.7 463.5,-37.7 421.5,-37.7"/>
<polygon fill="none" stroke="#000000" points="421.5,-37.7 421.5,-56.7 463.5,-56.7 463.5,-37.7 421.5,-37.7"/>
<text text-anchor="start" x="454.3862" y="-43.8" font-family="Helvetica,sans-Serif" font-size="11.00" fill="#000000"> &#160;</text>
</a>
</g>
</g>
<!-- simm_risk_weights&#45;&gt;simm_parameter_sets -->
<g id="edge4" class="edge">
<title>simm_risk_weights:w&#45;&gt;simm_parameter_sets:e</title>
<path fill="none" stroke="#000000" d="M283.9655,-67.0587C261.6738,-71.7319 254.0528,-88.0546 235,-109.7 208.8631,-139.3934 233.5581,-188.7 194,-188.7"/>
<polygon fill="#000000" stroke="#000000" points="290.5347,-66.4446 298.8351,-69.2844 294.5174,-66.0723 298.5,-65.7 298.5,-65.7 298.5,-65.7 294.5174,-66.0723 298.1649,-62.1156 290.5347,-66.4446 290.5347,-66.4446"/>
<ellipse fill="none" stroke="#000000" cx="287.3486" cy="-66.7425" rx="3.2" ry="3.2"/>
</g>
</g>
</svg>
