<?xml version="1.0" encoding="UTF-8" standalone="no"?>
<!DOCTYPE svg PUBLIC "-//W3C//DTD SVG 1.1//EN"
 "http://www.w3.org/Graphics/SVG/1.1/DTD/svg11.dtd">
<!-- Generated by graphviz version 2.40.1 (20161225.0304)
 -->
<!-- Title: oneDegreeRelationshipsDiagram Pages: 1 -->
<svg width="494pt" height="245pt"
 viewBox="0.00 0.00 494.00 244.70" xmlns="http://www.w3.org/2000/svg" xmlns:xlink="http://www.w3.org/1999/xlink">
<g id="graph0" class="graph" transform="scale(1 1) rotate(0) translate(4 240.7)">
<title>oneDegreeRelationshipsDiagram</title>
<polygon fill="#ffffff" stroke="transparent" points="-4,4 -4,-240.7 490,-240.7 490,4 -4,4"/>
<text text-anchor="middle" x="72.4936" y="-7.3" font-family="Helvetica,sans-Serif" font-size="11.00" fill="#000000">Generated by SchemaSpy</text>
<!-- simm_risk_weights -->
<g id="node1" class="node">
<title>simm_risk_weights</title>
<g id="a_node1"><a xlink:href="../../tables/simm_risk_weights.html" xlink:title="simm_risk_weights" target="_top">
<polygon fill="#ffffff" stroke="transparent" points="243,-54.7 243,-232.7 478,-232.7 478,-54.7 243,-54.7"/>
<polygon fill="#f5f5f5" stroke="transparent" points="245.5,-207.7 245.5,-230.7 476.5,-230.7 476.5,-207.7 245.5,-207.7"/>
<polygon fill="none" stroke="#000000" points="245.5,-207.7 245.5,-230.7 476.5,-230.7 476.5,-207.7 245.5,-207.7"/>
<text text-anchor="start" x="250.5" y="-216.3" font-family="Helvetica,sans-Serif" font-weight="bold" font-size="11.00" fill="#000000">simm_risk_weights</text>
<text text-anchor="start" x="441.5437" y="-215.8" font-family="Helvetica,sans-Serif" font-size="11.00" fill="#000000">[table]</text>
<polygon fill="none" stroke="#000000" points="245.5,-185.7 245.5,-207.7 392.5,-207.7 392.5,-185.7 245.5,-185.7"/>
<image xlink:href="../../images/primaryKeys.png" width="11px" height="12px" preserveAspectRatio="xMinYMin meet" x="250.5" y="-202.7"/>
<text text-anchor="start" x="265.5" y="-192.8" font-family="Helvetica,sans-Serif" font-size="11.00" fill="#000000">id</text>
<polygon fill="none" stroke="#000000" points="392.5,-185.7 392.5,-207.7 476.5,-207.7 476.5,-185.7 392.5,-185.7"/>
<text text-anchor="start" x="395.5" y="-193.4" font-family="Helvetica,sans-Serif" font-size="11.00" fill="#000000">bigserial[19]</text>
<polygon fill="#ffffff" stroke="transparent" points="245.5,-163.7 245.5,-185.7 392.5,-185.7 392.5,-163.7 245.5,-163.7"/>
<polygon fill="none" stroke="#000000" points="245.5,-163.7 245.5,-185.7 392.5,-185.7 392.5,-163.7 245.5,-163.7"/>
<image xlink:href="../../images/foreignKeys.png" width="11px" height="12px" preserveAspectRatio="xMinYMin meet" x="250.5" y="-180.7"/>
<text text-anchor="start" x="265.5" y="-170.8" font-family="Helvetica,sans-Serif" font-size="11.00" fill="#000000">parameter_set_id</text>
<polygon fill="none" stroke="#000000" points="392.5,-163.7 392.5,-185.7 476.5,-185.7 476.5,-163.7 392.5,-163.7"/>
<text text-anchor="start" x="395.5" y="-171.4" font-family="Helvetica,sans-Serif" font-size="11.00" fill="#000000">int8[19]</text>
<polygon fill="#ffffff" stroke="transparent" points="245.5,-141.7 245.5,-163.7 392.5,-163.7 392.5,-141.7 245.5,-141.7"/>
<polygon fill="none" stroke="#000000" points="245.5,-141.7 245.5,-163.7 392.5,-163.7 392.5,-141.7 245.5,-141.7"/>
<text text-anchor="start" x="265.5" y="-148.8" font-family="Helvetica,sans-Serif" font-size="11.00" fill="#000000">risk_class</text>
<polygon fill="none" stroke="#000000" points="392.5,-141.7 392.5,-163.7 476.5,-163.7 476.5,-141.7 392.5,-141.7"/>
<text text-anchor="start" x="395.5" y="-149.4" font-family="Helvetica,sans-Serif" font-size="11.00" fill="#000000">varchar[20]</text>
<polygon fill="#ffffff" stroke="transparent" points="245.5,-119.7 245.5,-141.7 392.5,-141.7 392.5,-119.7 245.5,-119.7"/>
<polygon fill="none" stroke="#000000" points="245.5,-119.7 245.5,-141.7 392.5,-141.7 392.5,-119.7 245.5,-119.7"/>
<text text-anchor="start" x="265.5" y="-126.8" font-family="Helvetica,sans-Serif" font-size="11.00" fill="#000000">bucket</text>
<polygon fill="none" stroke="#000000" points="392.5,-119.7 392.5,-141.7 476.5,-141.7 476.5,-119.7 392.5,-119.7"/>
<text text-anchor="start" x="395.5" y="-127.4" font-family="Helvetica,sans-Serif" font-size="11.00" fill="#000000">varchar[10]</text>
<polygon fill="none" stroke="#000000" points="245.5,-97.7 245.5,-119.7 392.5,-119.7 392.5,-97.7 245.5,-97.7"/>
<text text-anchor="start" x="265.5" y="-104.8" font-family="Helvetica,sans-Serif" font-size="11.00" fill="#000000">risk_weight</text>
<polygon fill="none" stroke="#000000" points="392.5,-97.7 392.5,-119.7 476.5,-119.7 476.5,-97.7 392.5,-97.7"/>
<text text-anchor="start" x="395.5" y="-105.4" font-family="Helvetica,sans-Serif" font-size="11.00" fill="#000000">numeric[10,6]</text>
<polygon fill="none" stroke="#000000" points="245.5,-75.7 245.5,-97.7 392.5,-97.7 392.5,-75.7 245.5,-75.7"/>
<text text-anchor="start" x="265.5" y="-82.8" font-family="Helvetica,sans-Serif" font-size="11.00" fill="#000000">created_at</text>
<polygon fill="none" stroke="#000000" points="392.5,-75.7 392.5,-97.7 476.5,-97.7 476.5,-75.7 392.5,-75.7"/>
<text text-anchor="start" x="395.3807" y="-83.4" font-family="Helvetica,sans-Serif" font-size="11.00" fill="#000000">timestamp[29,6]</text>
<polygon fill="#ffffff" stroke="transparent" points="245.5,-56.7 245.5,-75.7 323.5,-75.7 323.5,-56.7 245.5,-56.7"/>
<polygon fill="none" stroke="#000000" points="245.5,-56.7 245.5,-75.7 323.5,-75.7 323.5,-56.7 245.5,-56.7"/>
<text text-anchor="start" x="248.5" y="-62.8" font-family="Helvetica,sans-Serif" font-size="11.00" fill="#000000">&lt; 1</text>
<polygon fill="#ffffff" stroke="transparent" points="323.5,-56.7 323.5,-75.7 392.5,-75.7 392.5,-56.7 323.5,-56.7"/>
<polygon fill="none" stroke="#000000" points="323.5,-56.7 323.5,-75.7 392.5,-75.7 392.5,-56.7 323.5,-56.7"/>
<text text-anchor="start" x="383.3862" y="-62.8" font-family="Helvetica,sans-Serif" font-size="11.00" fill="#000000"> &#160;</text>
<polygon fill="#ffffff" stroke="transparent" points="392.5,-56.7 392.5,-75.7 476.5,-75.7 476.5,-56.7 392.5,-56.7"/>
<polygon fill="none" stroke="#000000" points="392.5,-56.7 392.5,-75.7 476.5,-75.7 476.5,-56.7 392.5,-56.7"/>
<text text-anchor="start" x="457.9053" y="-62.8" font-family="Helvetica,sans-Serif" font-size="11.00" fill="#000000">0 &gt;</text>
<polygon fill="none" stroke="#000000" stroke-width="2" points="244,-55.7 244,-231.7 477,-231.7 477,-55.7 244,-55.7"/>
</a>
</g>
</g>
<!-- simm_parameter_sets -->
<g id="node2" class="node">
<title>simm_parameter_sets</title>
<g id="a_node2"><a xlink:href="../../tables/simm_parameter_sets.html" xlink:title="simm_parameter_sets" target="_top">
<polygon fill="#ffffff" stroke="transparent" points="8,-38.2 8,-209.2 194,-209.2 194,-38.2 8,-38.2"/>
<polygon fill="#f5f5f5" stroke="transparent" points="8,-185.7 8,-208.7 194,-208.7 194,-185.7 8,-185.7"/>
<polygon fill="none" stroke="#000000" points="8,-185.7 8,-208.7 194,-208.7 194,-185.7 8,-185.7"/>
<text text-anchor="start" x="13" y="-194.3" font-family="Helvetica,sans-Serif" font-weight="bold" font-size="11.00" fill="#000000">simm_parameter_sets</text>
<text text-anchor="start" x="159.5219" y="-193.8" font-family="Helvetica,sans-Serif" font-size="11.00" fill="#000000">[table]</text>
<polygon fill="none" stroke="#000000" points="8,-163.7 8,-185.7 194,-185.7 194,-163.7 8,-163.7"/>
<image xlink:href="../../images/primaryKeys.png" width="11px" height="12px" preserveAspectRatio="xMinYMin meet" x="13" y="-180.7"/>
<text text-anchor="start" x="37" y="-170.8" font-family="Helvetica,sans-Serif" font-size="11.00" fill="#000000">id</text>
<polygon fill="#ffffff" stroke="transparent" points="8,-141.7 8,-163.7 194,-163.7 194,-141.7 8,-141.7"/>
<polygon fill="none" stroke="#000000" points="8,-141.7 8,-163.7 194,-163.7 194,-141.7 8,-141.7"/>
<text text-anchor="start" x="37" y="-148.8" font-family="Helvetica,sans-Serif" font-size="11.00" fill="#000000">version_name</text>
<polygon fill="#ffffff" stroke="transparent" points="8,-119.7 8,-141.7 194,-141.7 194,-119.7 8,-119.7"/>
<polygon fill="none" stroke="#000000" points="8,-119.7 8,-141.7 194,-141.7 194,-119.7 8,-119.7"/>
<text text-anchor="start" x="37" y="-126.8" font-family="Helvetica,sans-Serif" font-size="11.00" fill="#000000">isda_version</text>
<polygon fill="#ffffff" stroke="transparent" points="8,-97.7 8,-119.7 194,-119.7 194,-97.7 8,-97.7"/>
<polygon fill="none" stroke="#000000" points="8,-97.7 8,-119.7 194,-119.7 194,-97.7 8,-97.7"/>
<text text-anchor="start" x="37" y="-104.8" font-family="Helvetica,sans-Serif" font-size="11.00" fill="#000000">effective_date</text>
<polygon fill="#ffffff" stroke="transparent" points="8,-75.7 8,-97.7 194,-97.7 194,-75.7 8,-75.7"/>
<polygon fill="none" stroke="#000000" points="8,-75.7 8,-97.7 194,-97.7 194,-75.7 8,-75.7"/>
<text text-anchor="start" x="37" y="-82.8" font-family="Helvetica,sans-Serif" font-size="11.00" fill="#000000">is_active</text>
<polygon fill="none" stroke="#000000" points="8,-56.7 8,-75.7 194,-75.7 194,-56.7 8,-56.7"/>
<text text-anchor="start" x="11" y="-62.8" font-family="Helvetica,sans-Serif" font-size="11.00" fill="#000000">...</text>
<polygon fill="#ffffff" stroke="transparent" points="8,-37.7 8,-56.7 90,-56.7 90,-37.7 8,-37.7"/>
<polygon fill="none" stroke="#000000" points="8,-37.7 8,-56.7 90,-56.7 90,-37.7 8,-37.7"/>
<text text-anchor="start" x="11" y="-43.8" font-family="Helvetica,sans-Serif" font-size="11.00" fill="#000000"> &#160;</text>
<polygon fill="#ffffff" stroke="transparent" points="90,-37.7 90,-56.7 137,-56.7 137,-37.7 90,-37.7"/>
<polygon fill="none" stroke="#000000" points="90,-37.7 90,-56.7 137,-56.7 137,-37.7 90,-37.7"/>
<text text-anchor="start" x="127.8862" y="-43.8" font-family="Helvetica,sans-Serif" font-size="11.00" fill="#000000"> &#160;</text>
<polygon fill="#ffffff" stroke="transparent" points="137,-37.7 137,-56.7 194,-56.7 194,-37.7 137,-37.7"/>
<polygon fill="none" stroke="#000000" points="137,-37.7 137,-56.7 194,-56.7 194,-37.7 137,-37.7"/>
<text text-anchor="start" x="175.4053" y="-43.8" font-family="Helvetica,sans-Serif" font-size="11.00" fill="#000000">4 &gt;</text>
</a>
</g>
</g>
<!-- simm_risk_weights&#45;&gt;simm_parameter_sets -->
<g id="edge1" class="edge">
<title>simm_risk_weights:w&#45;&gt;simm_parameter_sets:e</title>
<path fill="none" stroke="#000000" d="M231.0156,-174.7C218.6771,-174.7 211.1667,-174.7 194,-174.7"/>
<polygon fill="#000000" stroke="#000000" points="237.5,-174.7001 245.5,-178.3 241.5,-174.7 245.5,-174.7 245.5,-174.7 245.5,-174.7 241.5,-174.7 245.5,-171.1 237.5,-174.7001 237.5,-174.7001"/>
<ellipse fill="none" stroke="#000000" cx="234.3" cy="-174.7001" rx="3.2" ry="3.2"/>
</g>
</g>
</svg>
