<?xml version="1.0" encoding="UTF-8" standalone="no"?>
<!DOCTYPE svg PUBLIC "-//W3C//DTD SVG 1.1//EN"
 "http://www.w3.org/Graphics/SVG/1.1/DTD/svg11.dtd">
<!-- Generated by graphviz version 2.40.1 (20161225.0304)
 -->
<!-- Title: twoDegreesRelationshipsDiagram Pages: 1 -->
<svg width="658pt" height="437pt"
 viewBox="0.00 0.00 658.00 437.20" xmlns="http://www.w3.org/2000/svg" xmlns:xlink="http://www.w3.org/1999/xlink">
<g id="graph0" class="graph" transform="scale(1 1) rotate(0) translate(4 433.2)">
<title>twoDegreesRelationshipsDiagram</title>
<polygon fill="#ffffff" stroke="transparent" points="-4,4 -4,-433.2 654,-433.2 654,4 -4,4"/>
<text text-anchor="middle" x="72.4936" y="-7.3" font-family="Helvetica,sans-Serif" font-size="11.00" fill="#000000">Generated by SchemaSpy</text>
<!-- simulation_audit -->
<g id="node1" class="node">
<title>simulation_audit</title>
<g id="a_node1"><a xlink:href="../../tables/simulation_audit.html" xlink:title="simulation_audit" target="_top">
<polygon fill="#ffffff" stroke="transparent" points="438,-364.2 438,-425.2 589,-425.2 589,-364.2 438,-364.2"/>
<polygon fill="#f5f5f5" stroke="transparent" points="438.5,-401.7 438.5,-424.7 589.5,-424.7 589.5,-401.7 438.5,-401.7"/>
<polygon fill="none" stroke="#000000" points="438.5,-401.7 438.5,-424.7 589.5,-424.7 589.5,-401.7 438.5,-401.7"/>
<text text-anchor="start" x="443.5" y="-410.3" font-family="Helvetica,sans-Serif" font-weight="bold" font-size="11.00" fill="#000000">simulation_audit</text>
<text text-anchor="start" x="555.0219" y="-409.8" font-family="Helvetica,sans-Serif" font-size="11.00" fill="#000000">[table]</text>
<polygon fill="none" stroke="#000000" points="438.5,-382.7 438.5,-401.7 589.5,-401.7 589.5,-382.7 438.5,-382.7"/>
<text text-anchor="start" x="441.5" y="-388.8" font-family="Helvetica,sans-Serif" font-size="11.00" fill="#000000">...</text>
<polygon fill="#ffffff" stroke="transparent" points="438.5,-363.7 438.5,-382.7 512.5,-382.7 512.5,-363.7 438.5,-363.7"/>
<polygon fill="none" stroke="#000000" points="438.5,-363.7 438.5,-382.7 512.5,-382.7 512.5,-363.7 438.5,-363.7"/>
<text text-anchor="start" x="441.5" y="-369.8" font-family="Helvetica,sans-Serif" font-size="11.00" fill="#000000">&lt; 1</text>
<polygon fill="#ffffff" stroke="transparent" points="512.5,-363.7 512.5,-382.7 550.5,-382.7 550.5,-363.7 512.5,-363.7"/>
<polygon fill="none" stroke="#000000" points="512.5,-363.7 512.5,-382.7 550.5,-382.7 550.5,-363.7 512.5,-363.7"/>
<text text-anchor="start" x="541.3862" y="-369.8" font-family="Helvetica,sans-Serif" font-size="11.00" fill="#000000"> &#160;</text>
<polygon fill="#ffffff" stroke="transparent" points="550.5,-363.7 550.5,-382.7 589.5,-382.7 589.5,-363.7 550.5,-363.7"/>
<polygon fill="none" stroke="#000000" points="550.5,-363.7 550.5,-382.7 589.5,-382.7 589.5,-363.7 550.5,-363.7"/>
<text text-anchor="start" x="580.3862" y="-369.8" font-family="Helvetica,sans-Serif" font-size="11.00" fill="#000000"> &#160;</text>
</a>
</g>
</g>
<!-- simulation_runs -->
<g id="node2" class="node">
<title>simulation_runs</title>
<g id="a_node2"><a xlink:href="../../tables/simulation_runs.html" xlink:title="simulation_runs" target="_top">
<polygon fill="#ffffff" stroke="transparent" points="190,-170.2 190,-341.2 336,-341.2 336,-170.2 190,-170.2"/>
<polygon fill="#f5f5f5" stroke="transparent" points="190,-317.7 190,-340.7 336,-340.7 336,-317.7 190,-317.7"/>
<polygon fill="none" stroke="#000000" points="190,-317.7 190,-340.7 336,-340.7 336,-317.7 190,-317.7"/>
<text text-anchor="start" x="195" y="-326.3" font-family="Helvetica,sans-Serif" font-weight="bold" font-size="11.00" fill="#000000">simulation_runs</text>
<text text-anchor="start" x="301.5219" y="-325.8" font-family="Helvetica,sans-Serif" font-size="11.00" fill="#000000">[table]</text>
<polygon fill="none" stroke="#000000" points="190,-295.7 190,-317.7 336,-317.7 336,-295.7 190,-295.7"/>
<image xlink:href="../../images/primaryKeys.png" width="11px" height="12px" preserveAspectRatio="xMinYMin meet" x="195" y="-312.7"/>
<text text-anchor="start" x="217" y="-302.8" font-family="Helvetica,sans-Serif" font-size="11.00" fill="#000000">id</text>
<polygon fill="#ffffff" stroke="transparent" points="190,-273.7 190,-295.7 336,-295.7 336,-273.7 190,-273.7"/>
<polygon fill="none" stroke="#000000" points="190,-273.7 190,-295.7 336,-295.7 336,-273.7 190,-273.7"/>
<text text-anchor="start" x="217" y="-280.8" font-family="Helvetica,sans-Serif" font-size="11.00" fill="#000000">run_id</text>
<polygon fill="#ffffff" stroke="transparent" points="190,-251.7 190,-273.7 336,-273.7 336,-251.7 190,-251.7"/>
<polygon fill="none" stroke="#000000" points="190,-251.7 190,-273.7 336,-273.7 336,-251.7 190,-251.7"/>
<image xlink:href="../../images/foreignKeys.png" width="11px" height="12px" preserveAspectRatio="xMinYMin meet" x="195" y="-268.7"/>
<text text-anchor="start" x="217" y="-258.8" font-family="Helvetica,sans-Serif" font-size="11.00" fill="#000000">portfolio_id</text>
<polygon fill="#ffffff" stroke="transparent" points="190,-229.7 190,-251.7 336,-251.7 336,-229.7 190,-229.7"/>
<polygon fill="none" stroke="#000000" points="190,-229.7 190,-251.7 336,-251.7 336,-229.7 190,-229.7"/>
<text text-anchor="start" x="217" y="-236.8" font-family="Helvetica,sans-Serif" font-size="11.00" fill="#000000">status</text>
<polygon fill="#ffffff" stroke="transparent" points="190,-207.7 190,-229.7 336,-229.7 336,-207.7 190,-207.7"/>
<polygon fill="none" stroke="#000000" points="190,-207.7 190,-229.7 336,-229.7 336,-207.7 190,-207.7"/>
<text text-anchor="start" x="217" y="-214.8" font-family="Helvetica,sans-Serif" font-size="11.00" fill="#000000">created_at</text>
<polygon fill="none" stroke="#000000" points="190,-188.7 190,-207.7 336,-207.7 336,-188.7 190,-188.7"/>
<text text-anchor="start" x="193" y="-194.8" font-family="Helvetica,sans-Serif" font-size="11.00" fill="#000000">...</text>
<polygon fill="#ffffff" stroke="transparent" points="190,-169.7 190,-188.7 257,-188.7 257,-169.7 190,-169.7"/>
<polygon fill="none" stroke="#000000" points="190,-169.7 190,-188.7 257,-188.7 257,-169.7 190,-169.7"/>
<text text-anchor="start" x="193" y="-175.8" font-family="Helvetica,sans-Serif" font-size="11.00" fill="#000000">&lt; 1</text>
<polygon fill="#ffffff" stroke="transparent" points="257,-169.7 257,-188.7 292,-188.7 292,-169.7 257,-169.7"/>
<polygon fill="none" stroke="#000000" points="257,-169.7 257,-188.7 292,-188.7 292,-169.7 257,-169.7"/>
<text text-anchor="start" x="282.8862" y="-175.8" font-family="Helvetica,sans-Serif" font-size="11.00" fill="#000000"> &#160;</text>
<polygon fill="#ffffff" stroke="transparent" points="292,-169.7 292,-188.7 336,-188.7 336,-169.7 292,-169.7"/>
<polygon fill="none" stroke="#000000" points="292,-169.7 292,-188.7 336,-188.7 336,-169.7 292,-169.7"/>
<text text-anchor="start" x="317.4053" y="-175.8" font-family="Helvetica,sans-Serif" font-size="11.00" fill="#000000">3 &gt;</text>
</a>
</g>
</g>
<!-- simulation_audit&#45;&gt;simulation_runs -->
<g id="edge1" class="edge">
<title>simulation_audit:w&#45;&gt;simulation_runs:e</title>
<path fill="none" stroke="#000000" d="M423.9655,-390.4C403.5528,-386.2833 395.6509,-372.6768 377,-353.7 351.9955,-328.2586 371.672,-284.7 336,-284.7"/>
<polygon fill="#000000" stroke="#000000" points="430.5318,-390.9872 438.1793,-395.2857 434.5159,-391.3436 438.5,-391.7 438.5,-391.7 438.5,-391.7 434.5159,-391.3436 438.8207,-388.1143 430.5318,-390.9872 430.5318,-390.9872"/>
<ellipse fill="none" stroke="#000000" cx="427.3445" cy="-390.7021" rx="3.2" ry="3.2"/>
</g>
<!-- cds_portfolios -->
<g id="node5" class="node">
<title>cds_portfolios</title>
<g id="a_node5"><a xlink:href="../../tables/cds_portfolios.html" xlink:title="cds_portfolios" target="_top">
<polygon fill="#ffffff" stroke="transparent" points="8,-235.2 8,-296.2 141,-296.2 141,-235.2 8,-235.2"/>
<polygon fill="#f5f5f5" stroke="transparent" points="8.5,-272.7 8.5,-295.7 141.5,-295.7 141.5,-272.7 8.5,-272.7"/>
<polygon fill="none" stroke="#000000" points="8.5,-272.7 8.5,-295.7 141.5,-295.7 141.5,-272.7 8.5,-272.7"/>
<text text-anchor="start" x="13.5" y="-281.3" font-family="Helvetica,sans-Serif" font-weight="bold" font-size="11.00" fill="#000000">cds_portfolios</text>
<text text-anchor="start" x="107.0219" y="-280.8" font-family="Helvetica,sans-Serif" font-size="11.00" fill="#000000">[table]</text>
<polygon fill="none" stroke="#000000" points="8.5,-253.7 8.5,-272.7 141.5,-272.7 141.5,-253.7 8.5,-253.7"/>
<text text-anchor="start" x="11.5" y="-259.8" font-family="Helvetica,sans-Serif" font-size="11.00" fill="#000000">...</text>
<polygon fill="#ffffff" stroke="transparent" points="8.5,-234.7 8.5,-253.7 64.5,-253.7 64.5,-234.7 8.5,-234.7"/>
<polygon fill="none" stroke="#000000" points="8.5,-234.7 8.5,-253.7 64.5,-253.7 64.5,-234.7 8.5,-234.7"/>
<text text-anchor="start" x="11.5" y="-240.8" font-family="Helvetica,sans-Serif" font-size="11.00" fill="#000000"> &#160;</text>
<polygon fill="#ffffff" stroke="transparent" points="64.5,-234.7 64.5,-253.7 98.5,-253.7 98.5,-234.7 64.5,-234.7"/>
<polygon fill="none" stroke="#000000" points="64.5,-234.7 64.5,-253.7 98.5,-253.7 98.5,-234.7 64.5,-234.7"/>
<text text-anchor="start" x="89.3862" y="-240.8" font-family="Helvetica,sans-Serif" font-size="11.00" fill="#000000"> &#160;</text>
<polygon fill="#ffffff" stroke="transparent" points="98.5,-234.7 98.5,-253.7 141.5,-253.7 141.5,-234.7 98.5,-234.7"/>
<polygon fill="none" stroke="#000000" points="98.5,-234.7 98.5,-253.7 141.5,-253.7 141.5,-234.7 98.5,-234.7"/>
<text text-anchor="start" x="122.9053" y="-240.8" font-family="Helvetica,sans-Serif" font-size="11.00" fill="#000000">5 &gt;</text>
</a>
</g>
</g>
<!-- simulation_runs&#45;&gt;cds_portfolios -->
<g id="edge4" class="edge">
<title>simulation_runs:w&#45;&gt;cds_portfolios:e</title>
<path fill="none" stroke="#000000" d="M175.2829,-262.7C164.2886,-262.7 157.1615,-262.7 141.5,-262.7"/>
<polygon fill="#000000" stroke="#000000" points="182,-262.7001 190,-266.3 186,-262.7 190,-262.7 190,-262.7 190,-262.7 186,-262.7 190,-259.1 182,-262.7001 182,-262.7001"/>
<ellipse fill="none" stroke="#000000" cx="178.8" cy="-262.7001" rx="3.2" ry="3.2"/>
</g>
<!-- simulation_contributors -->
<g id="node3" class="node">
<title>simulation_contributors</title>
<g id="a_node3"><a xlink:href="../../tables/simulation_contributors.html" xlink:title="simulation_contributors" target="_top">
<polygon fill="#ffffff" stroke="transparent" points="385,-120.7 385,-342.7 642,-342.7 642,-120.7 385,-120.7"/>
<polygon fill="#f5f5f5" stroke="transparent" points="387.5,-317.7 387.5,-340.7 640.5,-340.7 640.5,-317.7 387.5,-317.7"/>
<polygon fill="none" stroke="#000000" points="387.5,-317.7 387.5,-340.7 640.5,-340.7 640.5,-317.7 387.5,-317.7"/>
<text text-anchor="start" x="392.5" y="-326.3" font-family="Helvetica,sans-Serif" font-weight="bold" font-size="11.00" fill="#000000">simulation_contributors</text>
<text text-anchor="start" x="605.5437" y="-325.8" font-family="Helvetica,sans-Serif" font-size="11.00" fill="#000000">[table]</text>
<polygon fill="none" stroke="#000000" points="387.5,-295.7 387.5,-317.7 568.5,-317.7 568.5,-295.7 387.5,-295.7"/>
<image xlink:href="../../images/primaryKeys.png" width="11px" height="12px" preserveAspectRatio="xMinYMin meet" x="392.5" y="-312.7"/>
<text text-anchor="start" x="407.5" y="-302.8" font-family="Helvetica,sans-Serif" font-size="11.00" fill="#000000">id</text>
<polygon fill="none" stroke="#000000" points="568.5,-295.7 568.5,-317.7 640.5,-317.7 640.5,-295.7 568.5,-295.7"/>
<text text-anchor="start" x="571.5" y="-303.4" font-family="Helvetica,sans-Serif" font-size="11.00" fill="#000000">bigserial[19]</text>
<polygon fill="#ffffff" stroke="transparent" points="387.5,-273.7 387.5,-295.7 568.5,-295.7 568.5,-273.7 387.5,-273.7"/>
<polygon fill="none" stroke="#000000" points="387.5,-273.7 387.5,-295.7 568.5,-295.7 568.5,-273.7 387.5,-273.7"/>
<image xlink:href="../../images/foreignKeys.png" width="11px" height="12px" preserveAspectRatio="xMinYMin meet" x="392.5" y="-290.7"/>
<text text-anchor="start" x="407.5" y="-280.8" font-family="Helvetica,sans-Serif" font-size="11.00" fill="#000000">run_id</text>
<polygon fill="none" stroke="#000000" points="568.5,-273.7 568.5,-295.7 640.5,-295.7 640.5,-273.7 568.5,-273.7"/>
<text text-anchor="start" x="571.5" y="-281.4" font-family="Helvetica,sans-Serif" font-size="11.00" fill="#000000">varchar[50]</text>
<polygon fill="#ffffff" stroke="transparent" points="387.5,-251.7 387.5,-273.7 568.5,-273.7 568.5,-251.7 387.5,-251.7"/>
<polygon fill="none" stroke="#000000" points="387.5,-251.7 387.5,-273.7 568.5,-273.7 568.5,-251.7 387.5,-251.7"/>
<text text-anchor="start" x="407.5" y="-258.8" font-family="Helvetica,sans-Serif" font-size="11.00" fill="#000000">entity_name</text>
<polygon fill="none" stroke="#000000" points="568.5,-251.7 568.5,-273.7 640.5,-273.7 640.5,-251.7 568.5,-251.7"/>
<text text-anchor="start" x="571.5" y="-259.4" font-family="Helvetica,sans-Serif" font-size="11.00" fill="#000000">varchar[50]</text>
<polygon fill="none" stroke="#000000" points="387.5,-229.7 387.5,-251.7 568.5,-251.7 568.5,-229.7 387.5,-229.7"/>
<text text-anchor="start" x="407.5" y="-236.8" font-family="Helvetica,sans-Serif" font-size="11.00" fill="#000000">marginal_el_pct</text>
<polygon fill="none" stroke="#000000" points="568.5,-229.7 568.5,-251.7 640.5,-251.7 640.5,-229.7 568.5,-229.7"/>
<text text-anchor="start" x="571.1876" y="-237.4" font-family="Helvetica,sans-Serif" font-size="11.00" fill="#000000">numeric[10,4]</text>
<polygon fill="none" stroke="#000000" points="387.5,-207.7 387.5,-229.7 568.5,-229.7 568.5,-207.7 387.5,-207.7"/>
<text text-anchor="start" x="407.5" y="-214.8" font-family="Helvetica,sans-Serif" font-size="11.00" fill="#000000">beta</text>
<polygon fill="none" stroke="#000000" points="568.5,-207.7 568.5,-229.7 640.5,-229.7 640.5,-207.7 568.5,-207.7"/>
<text text-anchor="start" x="571.5" y="-215.4" font-family="Helvetica,sans-Serif" font-size="11.00" fill="#000000">numeric[6,4]</text>
<polygon fill="none" stroke="#000000" points="387.5,-185.7 387.5,-207.7 568.5,-207.7 568.5,-185.7 387.5,-185.7"/>
<text text-anchor="start" x="407.5" y="-192.8" font-family="Helvetica,sans-Serif" font-size="11.00" fill="#000000">standalone_el</text>
<polygon fill="none" stroke="#000000" points="568.5,-185.7 568.5,-207.7 640.5,-207.7 640.5,-185.7 568.5,-185.7"/>
<text text-anchor="start" x="571.1876" y="-193.4" font-family="Helvetica,sans-Serif" font-size="11.00" fill="#000000">numeric[18,4]</text>
<polygon fill="none" stroke="#000000" points="387.5,-163.7 387.5,-185.7 568.5,-185.7 568.5,-163.7 387.5,-163.7"/>
<text text-anchor="start" x="407.5" y="-170.8" font-family="Helvetica,sans-Serif" font-size="11.00" fill="#000000">recovery_mean</text>
<polygon fill="none" stroke="#000000" points="568.5,-163.7 568.5,-185.7 640.5,-185.7 640.5,-163.7 568.5,-163.7"/>
<text text-anchor="start" x="571.5" y="-171.4" font-family="Helvetica,sans-Serif" font-size="11.00" fill="#000000">numeric[6,4]</text>
<polygon fill="none" stroke="#000000" points="387.5,-141.7 387.5,-163.7 568.5,-163.7 568.5,-141.7 387.5,-141.7"/>
<text text-anchor="start" x="407.5" y="-148.8" font-family="Helvetica,sans-Serif" font-size="11.00" fill="#000000">recovery_stdev</text>
<polygon fill="none" stroke="#000000" points="568.5,-141.7 568.5,-163.7 640.5,-163.7 640.5,-141.7 568.5,-141.7"/>
<text text-anchor="start" x="571.5" y="-149.4" font-family="Helvetica,sans-Serif" font-size="11.00" fill="#000000">numeric[6,4]</text>
<polygon fill="#ffffff" stroke="transparent" points="387.5,-122.7 387.5,-141.7 482.5,-141.7 482.5,-122.7 387.5,-122.7"/>
<polygon fill="none" stroke="#000000" points="387.5,-122.7 387.5,-141.7 482.5,-141.7 482.5,-122.7 387.5,-122.7"/>
<text text-anchor="start" x="390.5" y="-128.8" font-family="Helvetica,sans-Serif" font-size="11.00" fill="#000000">&lt; 1</text>
<polygon fill="#ffffff" stroke="transparent" points="482.5,-122.7 482.5,-141.7 568.5,-141.7 568.5,-122.7 482.5,-122.7"/>
<polygon fill="none" stroke="#000000" points="482.5,-122.7 482.5,-141.7 568.5,-141.7 568.5,-122.7 482.5,-122.7"/>
<text text-anchor="start" x="559.3862" y="-128.8" font-family="Helvetica,sans-Serif" font-size="11.00" fill="#000000"> &#160;</text>
<polygon fill="#ffffff" stroke="transparent" points="568.5,-122.7 568.5,-141.7 640.5,-141.7 640.5,-122.7 568.5,-122.7"/>
<polygon fill="none" stroke="#000000" points="568.5,-122.7 568.5,-141.7 640.5,-141.7 640.5,-122.7 568.5,-122.7"/>
<text text-anchor="start" x="621.9053" y="-128.8" font-family="Helvetica,sans-Serif" font-size="11.00" fill="#000000">0 &gt;</text>
<polygon fill="none" stroke="#000000" stroke-width="2" points="386,-121.7 386,-341.7 641,-341.7 641,-121.7 386,-121.7"/>
</a>
</g>
</g>
<!-- simulation_contributors&#45;&gt;simulation_runs -->
<g id="edge2" class="edge">
<title>simulation_contributors:w&#45;&gt;simulation_runs:e</title>
<path fill="none" stroke="#000000" d="M373.0156,-284.7C360.6771,-284.7 353.1667,-284.7 336,-284.7"/>
<polygon fill="#000000" stroke="#000000" points="379.5,-284.7001 387.5,-288.3 383.5,-284.7 387.5,-284.7 387.5,-284.7 387.5,-284.7 383.5,-284.7 387.5,-281.1 379.5,-284.7001 379.5,-284.7001"/>
<ellipse fill="none" stroke="#000000" cx="376.3" cy="-284.7001" rx="3.2" ry="3.2"/>
</g>
<!-- simulation_horizon_metrics -->
<g id="node4" class="node">
<title>simulation_horizon_metrics</title>
<g id="a_node4"><a xlink:href="../../tables/simulation_horizon_metrics.html" xlink:title="simulation_horizon_metrics" target="_top">
<polygon fill="#ffffff" stroke="transparent" points="402,-38.2 402,-99.2 625,-99.2 625,-38.2 402,-38.2"/>
<polygon fill="#f5f5f5" stroke="transparent" points="402.5,-75.7 402.5,-98.7 625.5,-98.7 625.5,-75.7 402.5,-75.7"/>
<polygon fill="none" stroke="#000000" points="402.5,-75.7 402.5,-98.7 625.5,-98.7 625.5,-75.7 402.5,-75.7"/>
<text text-anchor="start" x="407.5" y="-84.3" font-family="Helvetica,sans-Serif" font-weight="bold" font-size="11.00" fill="#000000">simulation_horizon_metrics</text>
<text text-anchor="start" x="591.0219" y="-83.8" font-family="Helvetica,sans-Serif" font-size="11.00" fill="#000000">[table]</text>
<polygon fill="none" stroke="#000000" points="402.5,-56.7 402.5,-75.7 625.5,-75.7 625.5,-56.7 402.5,-56.7"/>
<text text-anchor="start" x="405.5" y="-62.8" font-family="Helvetica,sans-Serif" font-size="11.00" fill="#000000">...</text>
<polygon fill="#ffffff" stroke="transparent" points="402.5,-37.7 402.5,-56.7 512.5,-56.7 512.5,-37.7 402.5,-37.7"/>
<polygon fill="none" stroke="#000000" points="402.5,-37.7 402.5,-56.7 512.5,-56.7 512.5,-37.7 402.5,-37.7"/>
<text text-anchor="start" x="405.5" y="-43.8" font-family="Helvetica,sans-Serif" font-size="11.00" fill="#000000">&lt; 1</text>
<polygon fill="#ffffff" stroke="transparent" points="512.5,-37.7 512.5,-56.7 568.5,-56.7 568.5,-37.7 512.5,-37.7"/>
<polygon fill="none" stroke="#000000" points="512.5,-37.7 512.5,-56.7 568.5,-56.7 568.5,-37.7 512.5,-37.7"/>
<text text-anchor="start" x="559.3862" y="-43.8" font-family="Helvetica,sans-Serif" font-size="11.00" fill="#000000"> &#160;</text>
<polygon fill="#ffffff" stroke="transparent" points="568.5,-37.7 568.5,-56.7 625.5,-56.7 625.5,-37.7 568.5,-37.7"/>
<polygon fill="none" stroke="#000000" points="568.5,-37.7 568.5,-56.7 625.5,-56.7 625.5,-37.7 568.5,-37.7"/>
<text text-anchor="start" x="616.3862" y="-43.8" font-family="Helvetica,sans-Serif" font-size="11.00" fill="#000000"> &#160;</text>
</a>
</g>
</g>
<!-- simulation_horizon_metrics&#45;&gt;simulation_runs -->
<g id="edge3" class="edge">
<title>simulation_horizon_metrics:w&#45;&gt;simulation_runs:e</title>
<path fill="none" stroke="#000000" d="M387.8746,-67.5933C315.0427,-88.9982 432.1588,-284.7 336,-284.7"/>
<polygon fill="#000000" stroke="#000000" points="394.5662,-66.7271 402.9622,-69.2702 398.5331,-66.2135 402.5,-65.7 402.5,-65.7 402.5,-65.7 398.5331,-66.2135 402.0378,-62.1298 394.5662,-66.7271 394.5662,-66.7271"/>
<ellipse fill="none" stroke="#000000" cx="391.3927" cy="-67.1379" rx="3.2" ry="3.2"/>
</g>
</g>
</svg>
