<?xml version="1.0" encoding="UTF-8" standalone="no"?>
<!DOCTYPE svg PUBLIC "-//W3C//DTD SVG 1.1//EN"
 "http://www.w3.org/Graphics/SVG/1.1/DTD/svg11.dtd">
<!-- Generated by graphviz version 2.40.1 (20161225.0304)
 -->
<!-- Title: twoDegreesRelationshipsDiagram Pages: 1 -->
<svg width="641pt" height="398pt"
 viewBox="0.00 0.00 641.00 397.70" xmlns="http://www.w3.org/2000/svg" xmlns:xlink="http://www.w3.org/1999/xlink">
<g id="graph0" class="graph" transform="scale(1 1) rotate(0) translate(4 393.7)">
<title>twoDegreesRelationshipsDiagram</title>
<polygon fill="#ffffff" stroke="transparent" points="-4,4 -4,-393.7 637,-393.7 637,4 -4,4"/>
<text text-anchor="middle" x="72.4936" y="-7.3" font-family="Helvetica,sans-Serif" font-size="11.00" fill="#000000">Generated by SchemaSpy</text>
<!-- simulation_audit -->
<g id="node1" class="node">
<title>simulation_audit</title>
<g id="a_node1"><a xlink:href="../../tables/simulation_audit.html" xlink:title="simulation_audit" target="_top">
<polygon fill="#ffffff" stroke="transparent" points="385,-207.7 385,-385.7 625,-385.7 625,-207.7 385,-207.7"/>
<polygon fill="#f5f5f5" stroke="transparent" points="387,-360.7 387,-383.7 623,-383.7 623,-360.7 387,-360.7"/>
<polygon fill="none" stroke="#000000" points="387,-360.7 387,-383.7 623,-383.7 623,-360.7 387,-360.7"/>
<text text-anchor="start" x="392" y="-369.3" font-family="Helvetica,sans-Serif" font-weight="bold" font-size="11.00" fill="#000000">simulation_audit</text>
<text text-anchor="start" x="588.0437" y="-368.8" font-family="Helvetica,sans-Serif" font-size="11.00" fill="#000000">[table]</text>
<polygon fill="none" stroke="#000000" points="387,-338.7 387,-360.7 524,-360.7 524,-338.7 387,-338.7"/>
<image xlink:href="../../images/primaryKeys.png" width="11px" height="12px" preserveAspectRatio="xMinYMin meet" x="392" y="-355.7"/>
<text text-anchor="start" x="407" y="-345.8" font-family="Helvetica,sans-Serif" font-size="11.00" fill="#000000">id</text>
<polygon fill="none" stroke="#000000" points="524,-338.7 524,-360.7 623,-360.7 623,-338.7 524,-338.7"/>
<text text-anchor="start" x="527" y="-346.4" font-family="Helvetica,sans-Serif" font-size="11.00" fill="#000000">bigserial[19]</text>
<polygon fill="#ffffff" stroke="transparent" points="387,-316.7 387,-338.7 524,-338.7 524,-316.7 387,-316.7"/>
<polygon fill="none" stroke="#000000" points="387,-316.7 387,-338.7 524,-338.7 524,-316.7 387,-316.7"/>
<image xlink:href="../../images/foreignKeys.png" width="11px" height="12px" preserveAspectRatio="xMinYMin meet" x="392" y="-333.7"/>
<text text-anchor="start" x="407" y="-323.8" font-family="Helvetica,sans-Serif" font-size="11.00" fill="#000000">run_id</text>
<polygon fill="none" stroke="#000000" points="524,-316.7 524,-338.7 623,-338.7 623,-316.7 524,-316.7"/>
<text text-anchor="start" x="527" y="-324.4" font-family="Helvetica,sans-Serif" font-size="11.00" fill="#000000">varchar[50]</text>
<polygon fill="none" stroke="#000000" points="387,-294.7 387,-316.7 524,-316.7 524,-294.7 387,-294.7"/>
<text text-anchor="start" x="407" y="-301.8" font-family="Helvetica,sans-Serif" font-size="11.00" fill="#000000">event_type</text>
<polygon fill="none" stroke="#000000" points="524,-294.7 524,-316.7 623,-316.7 623,-294.7 524,-294.7"/>
<text text-anchor="start" x="527" y="-302.4" font-family="Helvetica,sans-Serif" font-size="11.00" fill="#000000">varchar[30]</text>
<polygon fill="#ffffff" stroke="transparent" points="387,-272.7 387,-294.7 524,-294.7 524,-272.7 387,-272.7"/>
<polygon fill="none" stroke="#000000" points="387,-272.7 387,-294.7 524,-294.7 524,-272.7 387,-272.7"/>
<text text-anchor="start" x="407" y="-279.8" font-family="Helvetica,sans-Serif" font-size="11.00" fill="#000000">event_timestamp</text>
<polygon fill="none" stroke="#000000" points="524,-272.7 524,-294.7 623,-294.7 623,-272.7 524,-272.7"/>
<text text-anchor="start" x="527" y="-280.4" font-family="Helvetica,sans-Serif" font-size="11.00" fill="#000000">timestamp[29,6]</text>
<polygon fill="none" stroke="#000000" points="387,-250.7 387,-272.7 524,-272.7 524,-250.7 387,-250.7"/>
<text text-anchor="start" x="407" y="-257.8" font-family="Helvetica,sans-Serif" font-size="11.00" fill="#000000">user_id</text>
<polygon fill="none" stroke="#000000" points="524,-250.7 524,-272.7 623,-272.7 623,-250.7 524,-250.7"/>
<text text-anchor="start" x="527" y="-258.4" font-family="Helvetica,sans-Serif" font-size="11.00" fill="#000000">varchar[50]</text>
<polygon fill="none" stroke="#000000" points="387,-228.7 387,-250.7 524,-250.7 524,-228.7 387,-228.7"/>
<text text-anchor="start" x="407" y="-235.8" font-family="Helvetica,sans-Serif" font-size="11.00" fill="#000000">event_data</text>
<polygon fill="none" stroke="#000000" points="524,-228.7 524,-250.7 623,-250.7 623,-228.7 524,-228.7"/>
<text text-anchor="start" x="526.7258" y="-236.4" font-family="Helvetica,sans-Serif" font-size="11.00" fill="#000000">jsonb[2147483647]</text>
<polygon fill="#ffffff" stroke="transparent" points="387,-209.7 387,-228.7 460,-228.7 460,-209.7 387,-209.7"/>
<polygon fill="none" stroke="#000000" points="387,-209.7 387,-228.7 460,-228.7 460,-209.7 387,-209.7"/>
<text text-anchor="start" x="390" y="-215.8" font-family="Helvetica,sans-Serif" font-size="11.00" fill="#000000">&lt; 1</text>
<polygon fill="#ffffff" stroke="transparent" points="460,-209.7 460,-228.7 524,-228.7 524,-209.7 460,-209.7"/>
<polygon fill="none" stroke="#000000" points="460,-209.7 460,-228.7 524,-228.7 524,-209.7 460,-209.7"/>
<text text-anchor="start" x="514.8862" y="-215.8" font-family="Helvetica,sans-Serif" font-size="11.00" fill="#000000"> &#160;</text>
<polygon fill="#ffffff" stroke="transparent" points="524,-209.7 524,-228.7 623,-228.7 623,-209.7 524,-209.7"/>
<polygon fill="none" stroke="#000000" points="524,-209.7 524,-228.7 623,-228.7 623,-209.7 524,-209.7"/>
<text text-anchor="start" x="604.4053" y="-215.8" font-family="Helvetica,sans-Serif" font-size="11.00" fill="#000000">0 &gt;</text>
<polygon fill="none" stroke="#000000" stroke-width="2" points="386,-208.7 386,-384.7 624,-384.7 624,-208.7 386,-208.7"/>
</a>
</g>
</g>
<!-- simulation_runs -->
<g id="node2" class="node">
<title>simulation_runs</title>
<g id="a_node2"><a xlink:href="../../tables/simulation_runs.html" xlink:title="simulation_runs" target="_top">
<polygon fill="#ffffff" stroke="transparent" points="190,-38.2 190,-209.2 336,-209.2 336,-38.2 190,-38.2"/>
<polygon fill="#f5f5f5" stroke="transparent" points="190,-185.7 190,-208.7 336,-208.7 336,-185.7 190,-185.7"/>
<polygon fill="none" stroke="#000000" points="190,-185.7 190,-208.7 336,-208.7 336,-185.7 190,-185.7"/>
<text text-anchor="start" x="195" y="-194.3" font-family="Helvetica,sans-Serif" font-weight="bold" font-size="11.00" fill="#000000">simulation_runs</text>
<text text-anchor="start" x="301.5219" y="-193.8" font-family="Helvetica,sans-Serif" font-size="11.00" fill="#000000">[table]</text>
<polygon fill="none" stroke="#000000" points="190,-163.7 190,-185.7 336,-185.7 336,-163.7 190,-163.7"/>
<image xlink:href="../../images/primaryKeys.png" width="11px" height="12px" preserveAspectRatio="xMinYMin meet" x="195" y="-180.7"/>
<text text-anchor="start" x="217" y="-170.8" font-family="Helvetica,sans-Serif" font-size="11.00" fill="#000000">id</text>
<polygon fill="#ffffff" stroke="transparent" points="190,-141.7 190,-163.7 336,-163.7 336,-141.7 190,-141.7"/>
<polygon fill="none" stroke="#000000" points="190,-141.7 190,-163.7 336,-163.7 336,-141.7 190,-141.7"/>
<text text-anchor="start" x="217" y="-148.8" font-family="Helvetica,sans-Serif" font-size="11.00" fill="#000000">run_id</text>
<polygon fill="#ffffff" stroke="transparent" points="190,-119.7 190,-141.7 336,-141.7 336,-119.7 190,-119.7"/>
<polygon fill="none" stroke="#000000" points="190,-119.7 190,-141.7 336,-141.7 336,-119.7 190,-119.7"/>
<image xlink:href="../../images/foreignKeys.png" width="11px" height="12px" preserveAspectRatio="xMinYMin meet" x="195" y="-136.7"/>
<text text-anchor="start" x="217" y="-126.8" font-family="Helvetica,sans-Serif" font-size="11.00" fill="#000000">portfolio_id</text>
<polygon fill="#ffffff" stroke="transparent" points="190,-97.7 190,-119.7 336,-119.7 336,-97.7 190,-97.7"/>
<polygon fill="none" stroke="#000000" points="190,-97.7 190,-119.7 336,-119.7 336,-97.7 190,-97.7"/>
<text text-anchor="start" x="217" y="-104.8" font-family="Helvetica,sans-Serif" font-size="11.00" fill="#000000">status</text>
<polygon fill="#ffffff" stroke="transparent" points="190,-75.7 190,-97.7 336,-97.7 336,-75.7 190,-75.7"/>
<polygon fill="none" stroke="#000000" points="190,-75.7 190,-97.7 336,-97.7 336,-75.7 190,-75.7"/>
<text text-anchor="start" x="217" y="-82.8" font-family="Helvetica,sans-Serif" font-size="11.00" fill="#000000">created_at</text>
<polygon fill="none" stroke="#000000" points="190,-56.7 190,-75.7 336,-75.7 336,-56.7 190,-56.7"/>
<text text-anchor="start" x="193" y="-62.8" font-family="Helvetica,sans-Serif" font-size="11.00" fill="#000000">...</text>
<polygon fill="#ffffff" stroke="transparent" points="190,-37.7 190,-56.7 257,-56.7 257,-37.7 190,-37.7"/>
<polygon fill="none" stroke="#000000" points="190,-37.7 190,-56.7 257,-56.7 257,-37.7 190,-37.7"/>
<text text-anchor="start" x="193" y="-43.8" font-family="Helvetica,sans-Serif" font-size="11.00" fill="#000000">&lt; 1</text>
<polygon fill="#ffffff" stroke="transparent" points="257,-37.7 257,-56.7 292,-56.7 292,-37.7 257,-37.7"/>
<polygon fill="none" stroke="#000000" points="257,-37.7 257,-56.7 292,-56.7 292,-37.7 257,-37.7"/>
<text text-anchor="start" x="282.8862" y="-43.8" font-family="Helvetica,sans-Serif" font-size="11.00" fill="#000000"> &#160;</text>
<polygon fill="#ffffff" stroke="transparent" points="292,-37.7 292,-56.7 336,-56.7 336,-37.7 292,-37.7"/>
<polygon fill="none" stroke="#000000" points="292,-37.7 292,-56.7 336,-56.7 336,-37.7 292,-37.7"/>
<text text-anchor="start" x="317.4053" y="-43.8" font-family="Helvetica,sans-Serif" font-size="11.00" fill="#000000">3 &gt;</text>
</a>
</g>
</g>
<!-- simulation_audit&#45;&gt;simulation_runs -->
<g id="edge1" class="edge">
<title>simulation_audit:w&#45;&gt;simulation_runs:e</title>
<path fill="none" stroke="#000000" d="M372.626,-325.2261C320.6504,-303.9558 411.3171,-152.7 336,-152.7"/>
<polygon fill="#000000" stroke="#000000" points="379.1159,-326.3431 386.3894,-331.2478 383.058,-327.0215 387,-327.7 387,-327.7 387,-327.7 383.058,-327.0215 387.6106,-324.1522 379.1159,-326.3431 379.1159,-326.3431"/>
<ellipse fill="none" stroke="#000000" cx="375.9623" cy="-325.8003" rx="3.2" ry="3.2"/>
</g>
<!-- cds_portfolios -->
<g id="node5" class="node">
<title>cds_portfolios</title>
<g id="a_node5"><a xlink:href="../../tables/cds_portfolios.html" xlink:title="cds_portfolios" target="_top">
<polygon fill="#ffffff" stroke="transparent" points="8,-103.2 8,-164.2 141,-164.2 141,-103.2 8,-103.2"/>
<polygon fill="#f5f5f5" stroke="transparent" points="8.5,-140.7 8.5,-163.7 141.5,-163.7 141.5,-140.7 8.5,-140.7"/>
<polygon fill="none" stroke="#000000" points="8.5,-140.7 8.5,-163.7 141.5,-163.7 141.5,-140.7 8.5,-140.7"/>
<text text-anchor="start" x="13.5" y="-149.3" font-family="Helvetica,sans-Serif" font-weight="bold" font-size="11.00" fill="#000000">cds_portfolios</text>
<text text-anchor="start" x="107.0219" y="-148.8" font-family="Helvetica,sans-Serif" font-size="11.00" fill="#000000">[table]</text>
<polygon fill="none" stroke="#000000" points="8.5,-121.7 8.5,-140.7 141.5,-140.7 141.5,-121.7 8.5,-121.7"/>
<text text-anchor="start" x="11.5" y="-127.8" font-family="Helvetica,sans-Serif" font-size="11.00" fill="#000000">...</text>
<polygon fill="#ffffff" stroke="transparent" points="8.5,-102.7 8.5,-121.7 64.5,-121.7 64.5,-102.7 8.5,-102.7"/>
<polygon fill="none" stroke="#000000" points="8.5,-102.7 8.5,-121.7 64.5,-121.7 64.5,-102.7 8.5,-102.7"/>
<text text-anchor="start" x="11.5" y="-108.8" font-family="Helvetica,sans-Serif" font-size="11.00" fill="#000000"> &#160;</text>
<polygon fill="#ffffff" stroke="transparent" points="64.5,-102.7 64.5,-121.7 98.5,-121.7 98.5,-102.7 64.5,-102.7"/>
<polygon fill="none" stroke="#000000" points="64.5,-102.7 64.5,-121.7 98.5,-121.7 98.5,-102.7 64.5,-102.7"/>
<text text-anchor="start" x="89.3862" y="-108.8" font-family="Helvetica,sans-Serif" font-size="11.00" fill="#000000"> &#160;</text>
<polygon fill="#ffffff" stroke="transparent" points="98.5,-102.7 98.5,-121.7 141.5,-121.7 141.5,-102.7 98.5,-102.7"/>
<polygon fill="none" stroke="#000000" points="98.5,-102.7 98.5,-121.7 141.5,-121.7 141.5,-102.7 98.5,-102.7"/>
<text text-anchor="start" x="122.9053" y="-108.8" font-family="Helvetica,sans-Serif" font-size="11.00" fill="#000000">5 &gt;</text>
</a>
</g>
</g>
<!-- simulation_runs&#45;&gt;cds_portfolios -->
<g id="edge4" class="edge">
<title>simulation_runs:w&#45;&gt;cds_portfolios:e</title>
<path fill="none" stroke="#000000" d="M175.2829,-130.7C164.2886,-130.7 157.1615,-130.7 141.5,-130.7"/>
<polygon fill="#000000" stroke="#000000" points="182,-130.7001 190,-134.3 186,-130.7 190,-130.7 190,-130.7 190,-130.7 186,-130.7 190,-127.1 182,-130.7001 182,-130.7001"/>
<ellipse fill="none" stroke="#000000" cx="178.8" cy="-130.7001" rx="3.2" ry="3.2"/>
</g>
<!-- simulation_contributors -->
<g id="node3" class="node">
<title>simulation_contributors</title>
<g id="a_node3"><a xlink:href="../../tables/simulation_contributors.html" xlink:title="simulation_contributors" target="_top">
<polygon fill="#ffffff" stroke="transparent" points="405.5,-125.2 405.5,-186.2 604.5,-186.2 604.5,-125.2 405.5,-125.2"/>
<polygon fill="#f5f5f5" stroke="transparent" points="406,-162.7 406,-185.7 605,-185.7 605,-162.7 406,-162.7"/>
<polygon fill="none" stroke="#000000" points="406,-162.7 406,-185.7 605,-185.7 605,-162.7 406,-162.7"/>
<text text-anchor="start" x="411" y="-171.3" font-family="Helvetica,sans-Serif" font-weight="bold" font-size="11.00" fill="#000000">simulation_contributors</text>
<text text-anchor="start" x="570.5219" y="-170.8" font-family="Helvetica,sans-Serif" font-size="11.00" fill="#000000">[table]</text>
<polygon fill="none" stroke="#000000" points="406,-143.7 406,-162.7 605,-162.7 605,-143.7 406,-143.7"/>
<text text-anchor="start" x="409" y="-149.8" font-family="Helvetica,sans-Serif" font-size="11.00" fill="#000000">...</text>
<polygon fill="#ffffff" stroke="transparent" points="406,-124.7 406,-143.7 504,-143.7 504,-124.7 406,-124.7"/>
<polygon fill="none" stroke="#000000" points="406,-124.7 406,-143.7 504,-143.7 504,-124.7 406,-124.7"/>
<text text-anchor="start" x="409" y="-130.8" font-family="Helvetica,sans-Serif" font-size="11.00" fill="#000000">&lt; 1</text>
<polygon fill="#ffffff" stroke="transparent" points="504,-124.7 504,-143.7 554,-143.7 554,-124.7 504,-124.7"/>
<polygon fill="none" stroke="#000000" points="504,-124.7 504,-143.7 554,-143.7 554,-124.7 504,-124.7"/>
<text text-anchor="start" x="544.8862" y="-130.8" font-family="Helvetica,sans-Serif" font-size="11.00" fill="#000000"> &#160;</text>
<polygon fill="#ffffff" stroke="transparent" points="554,-124.7 554,-143.7 605,-143.7 605,-124.7 554,-124.7"/>
<polygon fill="none" stroke="#000000" points="554,-124.7 554,-143.7 605,-143.7 605,-124.7 554,-124.7"/>
<text text-anchor="start" x="595.8862" y="-130.8" font-family="Helvetica,sans-Serif" font-size="11.00" fill="#000000"> &#160;</text>
</a>
</g>
</g>
<!-- simulation_contributors&#45;&gt;simulation_runs -->
<g id="edge2" class="edge">
<title>simulation_contributors:w&#45;&gt;simulation_runs:e</title>
<path fill="none" stroke="#000000" d="M391.5032,-152.7C371.4335,-152.7 361.6424,-152.7 336,-152.7"/>
<polygon fill="#000000" stroke="#000000" points="398,-152.7001 406,-156.3 402,-152.7 406,-152.7 406,-152.7 406,-152.7 402,-152.7 406,-149.1 398,-152.7001 398,-152.7001"/>
<ellipse fill="none" stroke="#000000" cx="394.8" cy="-152.7001" rx="3.2" ry="3.2"/>
</g>
<!-- simulation_horizon_metrics -->
<g id="node4" class="node">
<title>simulation_horizon_metrics</title>
<g id="a_node4"><a xlink:href="../../tables/simulation_horizon_metrics.html" xlink:title="simulation_horizon_metrics" target="_top">
<polygon fill="#ffffff" stroke="transparent" points="393.5,-43.2 393.5,-104.2 616.5,-104.2 616.5,-43.2 393.5,-43.2"/>
<polygon fill="#f5f5f5" stroke="transparent" points="394,-80.7 394,-103.7 617,-103.7 617,-80.7 394,-80.7"/>
<polygon fill="none" stroke="#000000" points="394,-80.7 394,-103.7 617,-103.7 617,-80.7 394,-80.7"/>
<text text-anchor="start" x="399" y="-89.3" font-family="Helvetica,sans-Serif" font-weight="bold" font-size="11.00" fill="#000000">simulation_horizon_metrics</text>
<text text-anchor="start" x="582.5219" y="-88.8" font-family="Helvetica,sans-Serif" font-size="11.00" fill="#000000">[table]</text>
<polygon fill="none" stroke="#000000" points="394,-61.7 394,-80.7 617,-80.7 617,-61.7 394,-61.7"/>
<text text-anchor="start" x="397" y="-67.8" font-family="Helvetica,sans-Serif" font-size="11.00" fill="#000000">...</text>
<polygon fill="#ffffff" stroke="transparent" points="394,-42.7 394,-61.7 504,-61.7 504,-42.7 394,-42.7"/>
<polygon fill="none" stroke="#000000" points="394,-42.7 394,-61.7 504,-61.7 504,-42.7 394,-42.7"/>
<text text-anchor="start" x="397" y="-48.8" font-family="Helvetica,sans-Serif" font-size="11.00" fill="#000000">&lt; 1</text>
<polygon fill="#ffffff" stroke="transparent" points="504,-42.7 504,-61.7 560,-61.7 560,-42.7 504,-42.7"/>
<polygon fill="none" stroke="#000000" points="504,-42.7 504,-61.7 560,-61.7 560,-42.7 504,-42.7"/>
<text text-anchor="start" x="550.8862" y="-48.8" font-family="Helvetica,sans-Serif" font-size="11.00" fill="#000000"> &#160;</text>
<polygon fill="#ffffff" stroke="transparent" points="560,-42.7 560,-61.7 617,-61.7 617,-42.7 560,-42.7"/>
<polygon fill="none" stroke="#000000" points="560,-42.7 560,-61.7 617,-61.7 617,-42.7 560,-42.7"/>
<text text-anchor="start" x="607.8862" y="-48.8" font-family="Helvetica,sans-Serif" font-size="11.00" fill="#000000"> &#160;</text>
</a>
</g>
</g>
<!-- simulation_horizon_metrics&#45;&gt;simulation_runs -->
<g id="edge3" class="edge">
<title>simulation_horizon_metrics:w&#45;&gt;simulation_runs:e</title>
<path fill="none" stroke="#000000" d="M379.8756,-74.655C356.3298,-91.0348 374.7109,-152.7 336,-152.7"/>
<polygon fill="#000000" stroke="#000000" points="386.2963,-72.8572 394.9707,-74.1667 390.1482,-71.7786 394,-70.7 394,-70.7 394,-70.7 390.1482,-71.7786 393.0293,-67.2333 386.2963,-72.8572 386.2963,-72.8572"/>
<ellipse fill="none" stroke="#000000" cx="383.2148" cy="-73.7201" rx="3.2" ry="3.2"/>
</g>
</g>
</svg>
