<?xml version="1.0" encoding="UTF-8" standalone="no"?>
<!DOCTYPE svg PUBLIC "-//W3C//DTD SVG 1.1//EN"
 "http://www.w3.org/Graphics/SVG/1.1/DTD/svg11.dtd">
<!-- Generated by graphviz version 2.40.1 (20161225.0304)
 -->
<!-- Title: oneDegreeRelationshipsDiagram Pages: 1 -->
<svg width="476pt" height="272pt"
 viewBox="0.00 0.00 476.00 272.20" xmlns="http://www.w3.org/2000/svg" xmlns:xlink="http://www.w3.org/1999/xlink">
<g id="graph0" class="graph" transform="scale(1 1) rotate(0) translate(4 268.2)">
<title>oneDegreeRelationshipsDiagram</title>
<polygon fill="#ffffff" stroke="transparent" points="-4,4 -4,-268.2 472,-268.2 472,4 -4,4"/>
<text text-anchor="middle" x="72.4936" y="-7.3" font-family="Helvetica,sans-Serif" font-size="11.00" fill="#000000">Generated by SchemaSpy</text>
<!-- simulation_contributors -->
<g id="node1" class="node">
<title>simulation_contributors</title>
<g id="a_node1"><a xlink:href="../../tables/simulation_contributors.html" xlink:title="simulation_contributors" target="_top">
<polygon fill="#ffffff" stroke="transparent" points="203,-38.2 203,-260.2 460,-260.2 460,-38.2 203,-38.2"/>
<polygon fill="#f5f5f5" stroke="transparent" points="205.5,-235.2 205.5,-258.2 458.5,-258.2 458.5,-235.2 205.5,-235.2"/>
<polygon fill="none" stroke="#000000" points="205.5,-235.2 205.5,-258.2 458.5,-258.2 458.5,-235.2 205.5,-235.2"/>
<text text-anchor="start" x="210.5" y="-243.8" font-family="Helvetica,sans-Serif" font-weight="bold" font-size="11.00" fill="#000000">simulation_contributors</text>
<text text-anchor="start" x="423.5437" y="-243.3" font-family="Helvetica,sans-Serif" font-size="11.00" fill="#000000">[table]</text>
<polygon fill="none" stroke="#000000" points="205.5,-213.2 205.5,-235.2 386.5,-235.2 386.5,-213.2 205.5,-213.2"/>
<image xlink:href="../../images/primaryKeys.png" width="11px" height="12px" preserveAspectRatio="xMinYMin meet" x="210.5" y="-230.2"/>
<text text-anchor="start" x="225.5" y="-220.3" font-family="Helvetica,sans-Serif" font-size="11.00" fill="#000000">id</text>
<polygon fill="none" stroke="#000000" points="386.5,-213.2 386.5,-235.2 458.5,-235.2 458.5,-213.2 386.5,-213.2"/>
<text text-anchor="start" x="389.5" y="-220.9" font-family="Helvetica,sans-Serif" font-size="11.00" fill="#000000">bigserial[19]</text>
<polygon fill="#ffffff" stroke="transparent" points="205.5,-191.2 205.5,-213.2 386.5,-213.2 386.5,-191.2 205.5,-191.2"/>
<polygon fill="none" stroke="#000000" points="205.5,-191.2 205.5,-213.2 386.5,-213.2 386.5,-191.2 205.5,-191.2"/>
<image xlink:href="../../images/foreignKeys.png" width="11px" height="12px" preserveAspectRatio="xMinYMin meet" x="210.5" y="-208.2"/>
<text text-anchor="start" x="225.5" y="-198.3" font-family="Helvetica,sans-Serif" font-size="11.00" fill="#000000">run_id</text>
<polygon fill="none" stroke="#000000" points="386.5,-191.2 386.5,-213.2 458.5,-213.2 458.5,-191.2 386.5,-191.2"/>
<text text-anchor="start" x="389.5" y="-198.9" font-family="Helvetica,sans-Serif" font-size="11.00" fill="#000000">varchar[50]</text>
<polygon fill="#ffffff" stroke="transparent" points="205.5,-169.2 205.5,-191.2 386.5,-191.2 386.5,-169.2 205.5,-169.2"/>
<polygon fill="none" stroke="#000000" points="205.5,-169.2 205.5,-191.2 386.5,-191.2 386.5,-169.2 205.5,-169.2"/>
<text text-anchor="start" x="225.5" y="-176.3" font-family="Helvetica,sans-Serif" font-size="11.00" fill="#000000">entity_name</text>
<polygon fill="none" stroke="#000000" points="386.5,-169.2 386.5,-191.2 458.5,-191.2 458.5,-169.2 386.5,-169.2"/>
<text text-anchor="start" x="389.5" y="-176.9" font-family="Helvetica,sans-Serif" font-size="11.00" fill="#000000">varchar[50]</text>
<polygon fill="none" stroke="#000000" points="205.5,-147.2 205.5,-169.2 386.5,-169.2 386.5,-147.2 205.5,-147.2"/>
<text text-anchor="start" x="225.5" y="-154.3" font-family="Helvetica,sans-Serif" font-size="11.00" fill="#000000">marginal_el_pct</text>
<polygon fill="none" stroke="#000000" points="386.5,-147.2 386.5,-169.2 458.5,-169.2 458.5,-147.2 386.5,-147.2"/>
<text text-anchor="start" x="389.1876" y="-154.9" font-family="Helvetica,sans-Serif" font-size="11.00" fill="#000000">numeric[10,4]</text>
<polygon fill="none" stroke="#000000" points="205.5,-125.2 205.5,-147.2 386.5,-147.2 386.5,-125.2 205.5,-125.2"/>
<text text-anchor="start" x="225.5" y="-132.3" font-family="Helvetica,sans-Serif" font-size="11.00" fill="#000000">beta</text>
<polygon fill="none" stroke="#000000" points="386.5,-125.2 386.5,-147.2 458.5,-147.2 458.5,-125.2 386.5,-125.2"/>
<text text-anchor="start" x="389.5" y="-132.9" font-family="Helvetica,sans-Serif" font-size="11.00" fill="#000000">numeric[6,4]</text>
<polygon fill="none" stroke="#000000" points="205.5,-103.2 205.5,-125.2 386.5,-125.2 386.5,-103.2 205.5,-103.2"/>
<text text-anchor="start" x="225.5" y="-110.3" font-family="Helvetica,sans-Serif" font-size="11.00" fill="#000000">standalone_el</text>
<polygon fill="none" stroke="#000000" points="386.5,-103.2 386.5,-125.2 458.5,-125.2 458.5,-103.2 386.5,-103.2"/>
<text text-anchor="start" x="389.1876" y="-110.9" font-family="Helvetica,sans-Serif" font-size="11.00" fill="#000000">numeric[18,4]</text>
<polygon fill="none" stroke="#000000" points="205.5,-81.2 205.5,-103.2 386.5,-103.2 386.5,-81.2 205.5,-81.2"/>
<text text-anchor="start" x="225.5" y="-88.3" font-family="Helvetica,sans-Serif" font-size="11.00" fill="#000000">recovery_mean</text>
<polygon fill="none" stroke="#000000" points="386.5,-81.2 386.5,-103.2 458.5,-103.2 458.5,-81.2 386.5,-81.2"/>
<text text-anchor="start" x="389.5" y="-88.9" font-family="Helvetica,sans-Serif" font-size="11.00" fill="#000000">numeric[6,4]</text>
<polygon fill="none" stroke="#000000" points="205.5,-59.2 205.5,-81.2 386.5,-81.2 386.5,-59.2 205.5,-59.2"/>
<text text-anchor="start" x="225.5" y="-66.3" font-family="Helvetica,sans-Serif" font-size="11.00" fill="#000000">recovery_stdev</text>
<polygon fill="none" stroke="#000000" points="386.5,-59.2 386.5,-81.2 458.5,-81.2 458.5,-59.2 386.5,-59.2"/>
<text text-anchor="start" x="389.5" y="-66.9" font-family="Helvetica,sans-Serif" font-size="11.00" fill="#000000">numeric[6,4]</text>
<polygon fill="#ffffff" stroke="transparent" points="205.5,-40.2 205.5,-59.2 300.5,-59.2 300.5,-40.2 205.5,-40.2"/>
<polygon fill="none" stroke="#000000" points="205.5,-40.2 205.5,-59.2 300.5,-59.2 300.5,-40.2 205.5,-40.2"/>
<text text-anchor="start" x="208.5" y="-46.3" font-family="Helvetica,sans-Serif" font-size="11.00" fill="#000000">&lt; 1</text>
<polygon fill="#ffffff" stroke="transparent" points="300.5,-40.2 300.5,-59.2 386.5,-59.2 386.5,-40.2 300.5,-40.2"/>
<polygon fill="none" stroke="#000000" points="300.5,-40.2 300.5,-59.2 386.5,-59.2 386.5,-40.2 300.5,-40.2"/>
<text text-anchor="start" x="377.3862" y="-46.3" font-family="Helvetica,sans-Serif" font-size="11.00" fill="#000000"> &#160;</text>
<polygon fill="#ffffff" stroke="transparent" points="386.5,-40.2 386.5,-59.2 458.5,-59.2 458.5,-40.2 386.5,-40.2"/>
<polygon fill="none" stroke="#000000" points="386.5,-40.2 386.5,-59.2 458.5,-59.2 458.5,-40.2 386.5,-40.2"/>
<text text-anchor="start" x="439.9053" y="-46.3" font-family="Helvetica,sans-Serif" font-size="11.00" fill="#000000">0 &gt;</text>
<polygon fill="none" stroke="#000000" stroke-width="2" points="204,-39.2 204,-259.2 459,-259.2 459,-39.2 204,-39.2"/>
</a>
</g>
</g>
<!-- simulation_runs -->
<g id="node2" class="node">
<title>simulation_runs</title>
<g id="a_node2"><a xlink:href="../../tables/simulation_runs.html" xlink:title="simulation_runs" target="_top">
<polygon fill="#ffffff" stroke="transparent" points="8,-87.7 8,-258.7 154,-258.7 154,-87.7 8,-87.7"/>
<polygon fill="#f5f5f5" stroke="transparent" points="8,-235.2 8,-258.2 154,-258.2 154,-235.2 8,-235.2"/>
<polygon fill="none" stroke="#000000" points="8,-235.2 8,-258.2 154,-258.2 154,-235.2 8,-235.2"/>
<text text-anchor="start" x="13" y="-243.8" font-family="Helvetica,sans-Serif" font-weight="bold" font-size="11.00" fill="#000000">simulation_runs</text>
<text text-anchor="start" x="119.5219" y="-243.3" font-family="Helvetica,sans-Serif" font-size="11.00" fill="#000000">[table]</text>
<polygon fill="none" stroke="#000000" points="8,-213.2 8,-235.2 154,-235.2 154,-213.2 8,-213.2"/>
<image xlink:href="../../images/primaryKeys.png" width="11px" height="12px" preserveAspectRatio="xMinYMin meet" x="13" y="-230.2"/>
<text text-anchor="start" x="35" y="-220.3" font-family="Helvetica,sans-Serif" font-size="11.00" fill="#000000">id</text>
<polygon fill="#ffffff" stroke="transparent" points="8,-191.2 8,-213.2 154,-213.2 154,-191.2 8,-191.2"/>
<polygon fill="none" stroke="#000000" points="8,-191.2 8,-213.2 154,-213.2 154,-191.2 8,-191.2"/>
<text text-anchor="start" x="35" y="-198.3" font-family="Helvetica,sans-Serif" font-size="11.00" fill="#000000">run_id</text>
<polygon fill="#ffffff" stroke="transparent" points="8,-169.2 8,-191.2 154,-191.2 154,-169.2 8,-169.2"/>
<polygon fill="none" stroke="#000000" points="8,-169.2 8,-191.2 154,-191.2 154,-169.2 8,-169.2"/>
<image xlink:href="../../images/foreignKeys.png" width="11px" height="12px" preserveAspectRatio="xMinYMin meet" x="13" y="-186.2"/>
<text text-anchor="start" x="35" y="-176.3" font-family="Helvetica,sans-Serif" font-size="11.00" fill="#000000">portfolio_id</text>
<polygon fill="#ffffff" stroke="transparent" points="8,-147.2 8,-169.2 154,-169.2 154,-147.2 8,-147.2"/>
<polygon fill="none" stroke="#000000" points="8,-147.2 8,-169.2 154,-169.2 154,-147.2 8,-147.2"/>
<text text-anchor="start" x="35" y="-154.3" font-family="Helvetica,sans-Serif" font-size="11.00" fill="#000000">status</text>
<polygon fill="#ffffff" stroke="transparent" points="8,-125.2 8,-147.2 154,-147.2 154,-125.2 8,-125.2"/>
<polygon fill="none" stroke="#000000" points="8,-125.2 8,-147.2 154,-147.2 154,-125.2 8,-125.2"/>
<text text-anchor="start" x="35" y="-132.3" font-family="Helvetica,sans-Serif" font-size="11.00" fill="#000000">created_at</text>
<polygon fill="none" stroke="#000000" points="8,-106.2 8,-125.2 154,-125.2 154,-106.2 8,-106.2"/>
<text text-anchor="start" x="11" y="-112.3" font-family="Helvetica,sans-Serif" font-size="11.00" fill="#000000">...</text>
<polygon fill="#ffffff" stroke="transparent" points="8,-87.2 8,-106.2 75,-106.2 75,-87.2 8,-87.2"/>
<polygon fill="none" stroke="#000000" points="8,-87.2 8,-106.2 75,-106.2 75,-87.2 8,-87.2"/>
<text text-anchor="start" x="11" y="-93.3" font-family="Helvetica,sans-Serif" font-size="11.00" fill="#000000">&lt; 1</text>
<polygon fill="#ffffff" stroke="transparent" points="75,-87.2 75,-106.2 110,-106.2 110,-87.2 75,-87.2"/>
<polygon fill="none" stroke="#000000" points="75,-87.2 75,-106.2 110,-106.2 110,-87.2 75,-87.2"/>
<text text-anchor="start" x="100.8862" y="-93.3" font-family="Helvetica,sans-Serif" font-size="11.00" fill="#000000"> &#160;</text>
<polygon fill="#ffffff" stroke="transparent" points="110,-87.2 110,-106.2 154,-106.2 154,-87.2 110,-87.2"/>
<polygon fill="none" stroke="#000000" points="110,-87.2 110,-106.2 154,-106.2 154,-87.2 110,-87.2"/>
<text text-anchor="start" x="135.4053" y="-93.3" font-family="Helvetica,sans-Serif" font-size="11.00" fill="#000000">3 &gt;</text>
</a>
</g>
</g>
<!-- simulation_contributors&#45;&gt;simulation_runs -->
<g id="edge1" class="edge">
<title>simulation_contributors:w&#45;&gt;simulation_runs:e</title>
<path fill="none" stroke="#000000" d="M191.0156,-202.2C178.6771,-202.2 171.1667,-202.2 154,-202.2"/>
<polygon fill="#000000" stroke="#000000" points="197.5,-202.2001 205.5,-205.8 201.5,-202.2 205.5,-202.2 205.5,-202.2 205.5,-202.2 201.5,-202.2 205.5,-198.6 197.5,-202.2001 197.5,-202.2001"/>
<ellipse fill="none" stroke="#000000" cx="194.3" cy="-202.2001" rx="3.2" ry="3.2"/>
</g>
</g>
</svg>
