<?xml version="1.0" encoding="UTF-8" standalone="no"?>
<!DOCTYPE svg PUBLIC "-//W3C//DTD SVG 1.1//EN"
 "http://www.w3.org/Graphics/SVG/1.1/DTD/svg11.dtd">
<!-- Generated by graphviz version 2.40.1 (20161225.0304)
 -->
<!-- Title: twoDegreesRelationshipsDiagram Pages: 1 -->
<svg width="717pt" height="711pt"
 viewBox="0.00 0.00 717.00 710.70" xmlns="http://www.w3.org/2000/svg" xmlns:xlink="http://www.w3.org/1999/xlink">
<g id="graph0" class="graph" transform="scale(1 1) rotate(0) translate(4 706.7)">
<title>twoDegreesRelationshipsDiagram</title>
<polygon fill="#ffffff" stroke="transparent" points="-4,4 -4,-706.7 713,-706.7 713,4 -4,4"/>
<text text-anchor="middle" x="72.4936" y="-7.3" font-family="Helvetica,sans-Serif" font-size="11.00" fill="#000000">Generated by SchemaSpy</text>
<!-- basket_portfolio_constituents -->
<g id="node1" class="node">
<title>basket_portfolio_constituents</title>
<g id="a_node1"><a xlink:href="../../tables/basket_portfolio_constituents.html" xlink:title="basket_portfolio_constituents" target="_top">
<polygon fill="#ffffff" stroke="transparent" points="190,-637.7 190,-698.7 429,-698.7 429,-637.7 190,-637.7"/>
<polygon fill="#f5f5f5" stroke="transparent" points="190.5,-675.2 190.5,-698.2 429.5,-698.2 429.5,-675.2 190.5,-675.2"/>
<polygon fill="none" stroke="#000000" points="190.5,-675.2 190.5,-698.2 429.5,-698.2 429.5,-675.2 190.5,-675.2"/>
<text text-anchor="start" x="195.5" y="-683.8" font-family="Helvetica,sans-Serif" font-weight="bold" font-size="11.00" fill="#000000">basket_portfolio_constituents</text>
<text text-anchor="start" x="395.0219" y="-683.3" font-family="Helvetica,sans-Serif" font-size="11.00" fill="#000000">[table]</text>
<polygon fill="none" stroke="#000000" points="190.5,-656.2 190.5,-675.2 429.5,-675.2 429.5,-656.2 190.5,-656.2"/>
<text text-anchor="start" x="193.5" y="-662.3" font-family="Helvetica,sans-Serif" font-size="11.00" fill="#000000">...</text>
<polygon fill="#ffffff" stroke="transparent" points="190.5,-637.2 190.5,-656.2 308.5,-656.2 308.5,-637.2 190.5,-637.2"/>
<polygon fill="none" stroke="#000000" points="190.5,-637.2 190.5,-656.2 308.5,-656.2 308.5,-637.2 190.5,-637.2"/>
<text text-anchor="start" x="193.5" y="-643.3" font-family="Helvetica,sans-Serif" font-size="11.00" fill="#000000">&lt; 2</text>
<polygon fill="#ffffff" stroke="transparent" points="308.5,-637.2 308.5,-656.2 368.5,-656.2 368.5,-637.2 308.5,-637.2"/>
<polygon fill="none" stroke="#000000" points="308.5,-637.2 308.5,-656.2 368.5,-656.2 368.5,-637.2 308.5,-637.2"/>
<text text-anchor="start" x="359.3862" y="-643.3" font-family="Helvetica,sans-Serif" font-size="11.00" fill="#000000"> &#160;</text>
<polygon fill="#ffffff" stroke="transparent" points="368.5,-637.2 368.5,-656.2 429.5,-656.2 429.5,-637.2 368.5,-637.2"/>
<polygon fill="none" stroke="#000000" points="368.5,-637.2 368.5,-656.2 429.5,-656.2 429.5,-637.2 368.5,-637.2"/>
<text text-anchor="start" x="420.3862" y="-643.3" font-family="Helvetica,sans-Serif" font-size="11.00" fill="#000000"> &#160;</text>
</a>
</g>
</g>
<!-- cds_portfolios -->
<g id="node2" class="node">
<title>cds_portfolios</title>
<g id="a_node2"><a xlink:href="../../tables/cds_portfolios.html" xlink:title="cds_portfolios" target="_top">
<polygon fill="#ffffff" stroke="transparent" points="8,-452.7 8,-535.7 141,-535.7 141,-452.7 8,-452.7"/>
<polygon fill="#f5f5f5" stroke="transparent" points="8.5,-512.2 8.5,-535.2 141.5,-535.2 141.5,-512.2 8.5,-512.2"/>
<polygon fill="none" stroke="#000000" points="8.5,-512.2 8.5,-535.2 141.5,-535.2 141.5,-512.2 8.5,-512.2"/>
<text text-anchor="start" x="13.5" y="-520.8" font-family="Helvetica,sans-Serif" font-weight="bold" font-size="11.00" fill="#000000">cds_portfolios</text>
<text text-anchor="start" x="107.0219" y="-520.3" font-family="Helvetica,sans-Serif" font-size="11.00" fill="#000000">[table]</text>
<polygon fill="none" stroke="#000000" points="8.5,-490.2 8.5,-512.2 141.5,-512.2 141.5,-490.2 8.5,-490.2"/>
<image xlink:href="../../images/primaryKeys.png" width="11px" height="12px" preserveAspectRatio="xMinYMin meet" x="13.5" y="-507.2"/>
<text text-anchor="start" x="37.5" y="-497.3" font-family="Helvetica,sans-Serif" font-size="11.00" fill="#000000">id</text>
<polygon fill="none" stroke="#000000" points="8.5,-471.2 8.5,-490.2 141.5,-490.2 141.5,-471.2 8.5,-471.2"/>
<text text-anchor="start" x="11.5" y="-477.3" font-family="Helvetica,sans-Serif" font-size="11.00" fill="#000000">...</text>
<polygon fill="#ffffff" stroke="transparent" points="8.5,-452.2 8.5,-471.2 64.5,-471.2 64.5,-452.2 8.5,-452.2"/>
<polygon fill="none" stroke="#000000" points="8.5,-452.2 8.5,-471.2 64.5,-471.2 64.5,-452.2 8.5,-452.2"/>
<text text-anchor="start" x="11.5" y="-458.3" font-family="Helvetica,sans-Serif" font-size="11.00" fill="#000000"> &#160;</text>
<polygon fill="#ffffff" stroke="transparent" points="64.5,-452.2 64.5,-471.2 98.5,-471.2 98.5,-452.2 64.5,-452.2"/>
<polygon fill="none" stroke="#000000" points="64.5,-452.2 64.5,-471.2 98.5,-471.2 98.5,-452.2 64.5,-452.2"/>
<text text-anchor="start" x="89.3862" y="-458.3" font-family="Helvetica,sans-Serif" font-size="11.00" fill="#000000"> &#160;</text>
<polygon fill="#ffffff" stroke="transparent" points="98.5,-452.2 98.5,-471.2 141.5,-471.2 141.5,-452.2 98.5,-452.2"/>
<polygon fill="none" stroke="#000000" points="98.5,-452.2 98.5,-471.2 141.5,-471.2 141.5,-452.2 98.5,-452.2"/>
<text text-anchor="start" x="122.9053" y="-458.3" font-family="Helvetica,sans-Serif" font-size="11.00" fill="#000000">5 &gt;</text>
</a>
</g>
</g>
<!-- basket_portfolio_constituents&#45;&gt;cds_portfolios -->
<g id="edge1" class="edge">
<title>basket_portfolio_constituents:w&#45;&gt;cds_portfolios:e</title>
<path fill="none" stroke="#000000" d="M176.0773,-662.4903C129.101,-641.1672 211.7781,-501.2 141.5,-501.2"/>
<polygon fill="#000000" stroke="#000000" points="182.6376,-663.7228 189.8353,-668.7381 186.5688,-664.4614 190.5,-665.2 190.5,-665.2 190.5,-665.2 186.5688,-664.4614 191.1647,-661.6619 182.6376,-663.7228 182.6376,-663.7228"/>
<ellipse fill="none" stroke="#000000" cx="179.4926" cy="-663.1319" rx="3.2" ry="3.2"/>
</g>
<!-- bond_portfolio_constituents -->
<g id="node3" class="node">
<title>bond_portfolio_constituents</title>
<g id="a_node3"><a xlink:href="../../tables/bond_portfolio_constituents.html" xlink:title="bond_portfolio_constituents" target="_top">
<polygon fill="#ffffff" stroke="transparent" points="195.5,-555.7 195.5,-616.7 423.5,-616.7 423.5,-555.7 195.5,-555.7"/>
<polygon fill="#f5f5f5" stroke="transparent" points="195.5,-593.2 195.5,-616.2 423.5,-616.2 423.5,-593.2 195.5,-593.2"/>
<polygon fill="none" stroke="#000000" points="195.5,-593.2 195.5,-616.2 423.5,-616.2 423.5,-593.2 195.5,-593.2"/>
<text text-anchor="start" x="200.5" y="-601.8" font-family="Helvetica,sans-Serif" font-weight="bold" font-size="11.00" fill="#000000">bond_portfolio_constituents</text>
<text text-anchor="start" x="389.0219" y="-601.3" font-family="Helvetica,sans-Serif" font-size="11.00" fill="#000000">[table]</text>
<polygon fill="none" stroke="#000000" points="195.5,-574.2 195.5,-593.2 423.5,-593.2 423.5,-574.2 195.5,-574.2"/>
<text text-anchor="start" x="198.5" y="-580.3" font-family="Helvetica,sans-Serif" font-size="11.00" fill="#000000">...</text>
<polygon fill="#ffffff" stroke="transparent" points="195.5,-555.2 195.5,-574.2 307.5,-574.2 307.5,-555.2 195.5,-555.2"/>
<polygon fill="none" stroke="#000000" points="195.5,-555.2 195.5,-574.2 307.5,-574.2 307.5,-555.2 195.5,-555.2"/>
<text text-anchor="start" x="198.5" y="-561.3" font-family="Helvetica,sans-Serif" font-size="11.00" fill="#000000">&lt; 2</text>
<polygon fill="#ffffff" stroke="transparent" points="307.5,-555.2 307.5,-574.2 365.5,-574.2 365.5,-555.2 307.5,-555.2"/>
<polygon fill="none" stroke="#000000" points="307.5,-555.2 307.5,-574.2 365.5,-574.2 365.5,-555.2 307.5,-555.2"/>
<text text-anchor="start" x="356.3862" y="-561.3" font-family="Helvetica,sans-Serif" font-size="11.00" fill="#000000"> &#160;</text>
<polygon fill="#ffffff" stroke="transparent" points="365.5,-555.2 365.5,-574.2 423.5,-574.2 423.5,-555.2 365.5,-555.2"/>
<polygon fill="none" stroke="#000000" points="365.5,-555.2 365.5,-574.2 423.5,-574.2 423.5,-555.2 365.5,-555.2"/>
<text text-anchor="start" x="414.3862" y="-561.3" font-family="Helvetica,sans-Serif" font-size="11.00" fill="#000000"> &#160;</text>
</a>
</g>
</g>
<!-- bond_portfolio_constituents&#45;&gt;cds_portfolios -->
<g id="edge2" class="edge">
<title>bond_portfolio_constituents:w&#45;&gt;cds_portfolios:e</title>
<path fill="none" stroke="#000000" d="M181.5217,-579.0209C159.5237,-562.3109 179.1711,-501.2 141.5,-501.2"/>
<polygon fill="#000000" stroke="#000000" points="187.8352,-580.9084 194.4688,-586.6491 191.6676,-582.0542 195.5,-583.2 195.5,-583.2 195.5,-583.2 191.6676,-582.0542 196.5312,-579.7509 187.8352,-580.9084 187.8352,-580.9084"/>
<ellipse fill="none" stroke="#000000" cx="184.7693" cy="-579.9918" rx="3.2" ry="3.2"/>
</g>
<!-- cds_portfolio_constituents -->
<g id="node4" class="node">
<title>cds_portfolio_constituents</title>
<g id="a_node4"><a xlink:href="../../tables/cds_portfolio_constituents.html" xlink:title="cds_portfolio_constituents" target="_top">
<polygon fill="#ffffff" stroke="transparent" points="201,-473.7 201,-534.7 418,-534.7 418,-473.7 201,-473.7"/>
<polygon fill="#f5f5f5" stroke="transparent" points="201.5,-511.2 201.5,-534.2 418.5,-534.2 418.5,-511.2 201.5,-511.2"/>
<polygon fill="none" stroke="#000000" points="201.5,-511.2 201.5,-534.2 418.5,-534.2 418.5,-511.2 201.5,-511.2"/>
<text text-anchor="start" x="206.5" y="-519.8" font-family="Helvetica,sans-Serif" font-weight="bold" font-size="11.00" fill="#000000">cds_portfolio_constituents</text>
<text text-anchor="start" x="384.0219" y="-519.3" font-family="Helvetica,sans-Serif" font-size="11.00" fill="#000000">[table]</text>
<polygon fill="none" stroke="#000000" points="201.5,-492.2 201.5,-511.2 418.5,-511.2 418.5,-492.2 201.5,-492.2"/>
<text text-anchor="start" x="204.5" y="-498.3" font-family="Helvetica,sans-Serif" font-size="11.00" fill="#000000">...</text>
<polygon fill="#ffffff" stroke="transparent" points="201.5,-473.2 201.5,-492.2 308.5,-492.2 308.5,-473.2 201.5,-473.2"/>
<polygon fill="none" stroke="#000000" points="201.5,-473.2 201.5,-492.2 308.5,-492.2 308.5,-473.2 201.5,-473.2"/>
<text text-anchor="start" x="204.5" y="-479.3" font-family="Helvetica,sans-Serif" font-size="11.00" fill="#000000">&lt; 2</text>
<polygon fill="#ffffff" stroke="transparent" points="308.5,-473.2 308.5,-492.2 363.5,-492.2 363.5,-473.2 308.5,-473.2"/>
<polygon fill="none" stroke="#000000" points="308.5,-473.2 308.5,-492.2 363.5,-492.2 363.5,-473.2 308.5,-473.2"/>
<text text-anchor="start" x="354.3862" y="-479.3" font-family="Helvetica,sans-Serif" font-size="11.00" fill="#000000"> &#160;</text>
<polygon fill="#ffffff" stroke="transparent" points="363.5,-473.2 363.5,-492.2 418.5,-492.2 418.5,-473.2 363.5,-473.2"/>
<polygon fill="none" stroke="#000000" points="363.5,-473.2 363.5,-492.2 418.5,-492.2 418.5,-473.2 363.5,-473.2"/>
<text text-anchor="start" x="409.3862" y="-479.3" font-family="Helvetica,sans-Serif" font-size="11.00" fill="#000000"> &#160;</text>
</a>
</g>
</g>
<!-- cds_portfolio_constituents&#45;&gt;cds_portfolios -->
<g id="edge3" class="edge">
<title>cds_portfolio_constituents:w&#45;&gt;cds_portfolios:e</title>
<path fill="none" stroke="#000000" d="M186.9193,-501.2C171.1309,-501.2 162.5417,-501.2 141.5,-501.2"/>
<polygon fill="#000000" stroke="#000000" points="193.5,-501.2001 201.5,-504.8 197.5,-501.2 201.5,-501.2 201.5,-501.2 201.5,-501.2 197.5,-501.2 201.5,-497.6 193.5,-501.2001 193.5,-501.2001"/>
<ellipse fill="none" stroke="#000000" cx="190.3" cy="-501.2001" rx="3.2" ry="3.2"/>
</g>
<!-- portfolio_risk_cache -->
<g id="node5" class="node">
<title>portfolio_risk_cache</title>
<g id="a_node5"><a xlink:href="../../tables/portfolio_risk_cache.html" xlink:title="portfolio_risk_cache" target="_top">
<polygon fill="#ffffff" stroke="transparent" points="223,-391.7 223,-452.7 396,-452.7 396,-391.7 223,-391.7"/>
<polygon fill="#f5f5f5" stroke="transparent" points="223.5,-429.2 223.5,-452.2 396.5,-452.2 396.5,-429.2 223.5,-429.2"/>
<polygon fill="none" stroke="#000000" points="223.5,-429.2 223.5,-452.2 396.5,-452.2 396.5,-429.2 223.5,-429.2"/>
<text text-anchor="start" x="228.5" y="-437.8" font-family="Helvetica,sans-Serif" font-weight="bold" font-size="11.00" fill="#000000">portfolio_risk_cache</text>
<text text-anchor="start" x="362.0219" y="-437.3" font-family="Helvetica,sans-Serif" font-size="11.00" fill="#000000">[table]</text>
<polygon fill="none" stroke="#000000" points="223.5,-410.2 223.5,-429.2 396.5,-429.2 396.5,-410.2 223.5,-410.2"/>
<text text-anchor="start" x="226.5" y="-416.3" font-family="Helvetica,sans-Serif" font-size="11.00" fill="#000000">...</text>
<polygon fill="#ffffff" stroke="transparent" points="223.5,-391.2 223.5,-410.2 308.5,-410.2 308.5,-391.2 223.5,-391.2"/>
<polygon fill="none" stroke="#000000" points="223.5,-391.2 223.5,-410.2 308.5,-410.2 308.5,-391.2 223.5,-391.2"/>
<text text-anchor="start" x="226.5" y="-397.3" font-family="Helvetica,sans-Serif" font-size="11.00" fill="#000000">&lt; 1</text>
<polygon fill="#ffffff" stroke="transparent" points="308.5,-391.2 308.5,-410.2 352.5,-410.2 352.5,-391.2 308.5,-391.2"/>
<polygon fill="none" stroke="#000000" points="308.5,-391.2 308.5,-410.2 352.5,-410.2 352.5,-391.2 308.5,-391.2"/>
<text text-anchor="start" x="343.3862" y="-397.3" font-family="Helvetica,sans-Serif" font-size="11.00" fill="#000000"> &#160;</text>
<polygon fill="#ffffff" stroke="transparent" points="352.5,-391.2 352.5,-410.2 396.5,-410.2 396.5,-391.2 352.5,-391.2"/>
<polygon fill="none" stroke="#000000" points="352.5,-391.2 352.5,-410.2 396.5,-410.2 396.5,-391.2 352.5,-391.2"/>
<text text-anchor="start" x="387.3862" y="-397.3" font-family="Helvetica,sans-Serif" font-size="11.00" fill="#000000"> &#160;</text>
</a>
</g>
</g>
<!-- portfolio_risk_cache&#45;&gt;cds_portfolios -->
<g id="edge4" class="edge">
<title>portfolio_risk_cache:w&#45;&gt;cds_portfolios:e</title>
<path fill="none" stroke="#000000" d="M209.0046,-421.9283C175.7024,-436.1565 187.403,-501.2 141.5,-501.2"/>
<polygon fill="#000000" stroke="#000000" points="215.638,-420.6798 224.1659,-422.7379 219.569,-419.9399 223.5,-419.2 223.5,-419.2 223.5,-419.2 219.569,-419.9399 222.8341,-415.6621 215.638,-420.6798 215.638,-420.6798"/>
<ellipse fill="none" stroke="#000000" cx="212.4933" cy="-421.2717" rx="3.2" ry="3.2"/>
</g>
<!-- simulation_audit -->
<g id="node6" class="node">
<title>simulation_audit</title>
<g id="a_node6"><a xlink:href="../../tables/simulation_audit.html" xlink:title="simulation_audit" target="_top">
<polygon fill="#ffffff" stroke="transparent" points="514,-389.7 514,-516.7 665,-516.7 665,-389.7 514,-389.7"/>
<polygon fill="#f5f5f5" stroke="transparent" points="514.5,-493.2 514.5,-516.2 665.5,-516.2 665.5,-493.2 514.5,-493.2"/>
<polygon fill="none" stroke="#000000" points="514.5,-493.2 514.5,-516.2 665.5,-516.2 665.5,-493.2 514.5,-493.2"/>
<text text-anchor="start" x="519.5" y="-501.8" font-family="Helvetica,sans-Serif" font-weight="bold" font-size="11.00" fill="#000000">simulation_audit</text>
<text text-anchor="start" x="631.0219" y="-501.3" font-family="Helvetica,sans-Serif" font-size="11.00" fill="#000000">[table]</text>
<polygon fill="none" stroke="#000000" points="514.5,-471.2 514.5,-493.2 665.5,-493.2 665.5,-471.2 514.5,-471.2"/>
<image xlink:href="../../images/primaryKeys.png" width="11px" height="12px" preserveAspectRatio="xMinYMin meet" x="519.5" y="-488.2"/>
<text text-anchor="start" x="541.5" y="-478.3" font-family="Helvetica,sans-Serif" font-size="11.00" fill="#000000">id</text>
<polygon fill="#ffffff" stroke="transparent" points="514.5,-449.2 514.5,-471.2 665.5,-471.2 665.5,-449.2 514.5,-449.2"/>
<polygon fill="none" stroke="#000000" points="514.5,-449.2 514.5,-471.2 665.5,-471.2 665.5,-449.2 514.5,-449.2"/>
<image xlink:href="../../images/foreignKeys.png" width="11px" height="12px" preserveAspectRatio="xMinYMin meet" x="519.5" y="-466.2"/>
<text text-anchor="start" x="541.5" y="-456.3" font-family="Helvetica,sans-Serif" font-size="11.00" fill="#000000">run_id</text>
<polygon fill="#ffffff" stroke="transparent" points="514.5,-427.2 514.5,-449.2 665.5,-449.2 665.5,-427.2 514.5,-427.2"/>
<polygon fill="none" stroke="#000000" points="514.5,-427.2 514.5,-449.2 665.5,-449.2 665.5,-427.2 514.5,-427.2"/>
<text text-anchor="start" x="541.5" y="-434.3" font-family="Helvetica,sans-Serif" font-size="11.00" fill="#000000">event_timestamp</text>
<polygon fill="none" stroke="#000000" points="514.5,-408.2 514.5,-427.2 665.5,-427.2 665.5,-408.2 514.5,-408.2"/>
<text text-anchor="start" x="517.5" y="-414.3" font-family="Helvetica,sans-Serif" font-size="11.00" fill="#000000">...</text>
<polygon fill="#ffffff" stroke="transparent" points="514.5,-389.2 514.5,-408.2 588.5,-408.2 588.5,-389.2 514.5,-389.2"/>
<polygon fill="none" stroke="#000000" points="514.5,-389.2 514.5,-408.2 588.5,-408.2 588.5,-389.2 514.5,-389.2"/>
<text text-anchor="start" x="517.5" y="-395.3" font-family="Helvetica,sans-Serif" font-size="11.00" fill="#000000">&lt; 1</text>
<polygon fill="#ffffff" stroke="transparent" points="588.5,-389.2 588.5,-408.2 626.5,-408.2 626.5,-389.2 588.5,-389.2"/>
<polygon fill="none" stroke="#000000" points="588.5,-389.2 588.5,-408.2 626.5,-408.2 626.5,-389.2 588.5,-389.2"/>
<text text-anchor="start" x="617.3862" y="-395.3" font-family="Helvetica,sans-Serif" font-size="11.00" fill="#000000"> &#160;</text>
<polygon fill="#ffffff" stroke="transparent" points="626.5,-389.2 626.5,-408.2 665.5,-408.2 665.5,-389.2 626.5,-389.2"/>
<polygon fill="none" stroke="#000000" points="626.5,-389.2 626.5,-408.2 665.5,-408.2 665.5,-389.2 626.5,-389.2"/>
<text text-anchor="start" x="656.3862" y="-395.3" font-family="Helvetica,sans-Serif" font-size="11.00" fill="#000000"> &#160;</text>
</a>
</g>
</g>
<!-- simulation_runs -->
<g id="node7" class="node">
<title>simulation_runs</title>
<g id="a_node7"><a xlink:href="../../tables/simulation_runs.html" xlink:title="simulation_runs" target="_top">
<polygon fill="#ffffff" stroke="transparent" points="192,-38.2 192,-370.2 427,-370.2 427,-38.2 192,-38.2"/>
<polygon fill="#f5f5f5" stroke="transparent" points="194.5,-345.2 194.5,-368.2 425.5,-368.2 425.5,-345.2 194.5,-345.2"/>
<polygon fill="none" stroke="#000000" points="194.5,-345.2 194.5,-368.2 425.5,-368.2 425.5,-345.2 194.5,-345.2"/>
<text text-anchor="start" x="199.5" y="-353.8" font-family="Helvetica,sans-Serif" font-weight="bold" font-size="11.00" fill="#000000">simulation_runs</text>
<text text-anchor="start" x="390.5437" y="-353.3" font-family="Helvetica,sans-Serif" font-size="11.00" fill="#000000">[table]</text>
<polygon fill="none" stroke="#000000" points="194.5,-323.2 194.5,-345.2 326.5,-345.2 326.5,-323.2 194.5,-323.2"/>
<image xlink:href="../../images/primaryKeys.png" width="11px" height="12px" preserveAspectRatio="xMinYMin meet" x="199.5" y="-340.2"/>
<text text-anchor="start" x="214.5" y="-330.3" font-family="Helvetica,sans-Serif" font-size="11.00" fill="#000000">id</text>
<polygon fill="none" stroke="#000000" points="326.5,-323.2 326.5,-345.2 425.5,-345.2 425.5,-323.2 326.5,-323.2"/>
<text text-anchor="start" x="329.5" y="-330.9" font-family="Helvetica,sans-Serif" font-size="11.00" fill="#000000">bigserial[19]</text>
<polygon fill="#ffffff" stroke="transparent" points="194.5,-301.2 194.5,-323.2 326.5,-323.2 326.5,-301.2 194.5,-301.2"/>
<polygon fill="none" stroke="#000000" points="194.5,-301.2 194.5,-323.2 326.5,-323.2 326.5,-301.2 194.5,-301.2"/>
<text text-anchor="start" x="214.5" y="-308.3" font-family="Helvetica,sans-Serif" font-size="11.00" fill="#000000">run_id</text>
<polygon fill="none" stroke="#000000" points="326.5,-301.2 326.5,-323.2 425.5,-323.2 425.5,-301.2 326.5,-301.2"/>
<text text-anchor="start" x="329.5" y="-308.9" font-family="Helvetica,sans-Serif" font-size="11.00" fill="#000000">varchar[50]</text>
<polygon fill="#ffffff" stroke="transparent" points="194.5,-279.2 194.5,-301.2 326.5,-301.2 326.5,-279.2 194.5,-279.2"/>
<polygon fill="none" stroke="#000000" points="194.5,-279.2 194.5,-301.2 326.5,-301.2 326.5,-279.2 194.5,-279.2"/>
<image xlink:href="../../images/foreignKeys.png" width="11px" height="12px" preserveAspectRatio="xMinYMin meet" x="199.5" y="-296.2"/>
<text text-anchor="start" x="214.5" y="-286.3" font-family="Helvetica,sans-Serif" font-size="11.00" fill="#000000">portfolio_id</text>
<polygon fill="none" stroke="#000000" points="326.5,-279.2 326.5,-301.2 425.5,-301.2 425.5,-279.2 326.5,-279.2"/>
<text text-anchor="start" x="329.5" y="-286.9" font-family="Helvetica,sans-Serif" font-size="11.00" fill="#000000">int8[19]</text>
<polygon fill="#ffffff" stroke="transparent" points="194.5,-257.2 194.5,-279.2 326.5,-279.2 326.5,-257.2 194.5,-257.2"/>
<polygon fill="none" stroke="#000000" points="194.5,-257.2 194.5,-279.2 326.5,-279.2 326.5,-257.2 194.5,-257.2"/>
<text text-anchor="start" x="214.5" y="-264.3" font-family="Helvetica,sans-Serif" font-size="11.00" fill="#000000">status</text>
<polygon fill="none" stroke="#000000" points="326.5,-257.2 326.5,-279.2 425.5,-279.2 425.5,-257.2 326.5,-257.2"/>
<text text-anchor="start" x="329.5" y="-264.9" font-family="Helvetica,sans-Serif" font-size="11.00" fill="#000000">varchar[20]</text>
<polygon fill="none" stroke="#000000" points="194.5,-235.2 194.5,-257.2 326.5,-257.2 326.5,-235.2 194.5,-235.2"/>
<text text-anchor="start" x="214.5" y="-242.3" font-family="Helvetica,sans-Serif" font-size="11.00" fill="#000000">valuation_date</text>
<polygon fill="none" stroke="#000000" points="326.5,-235.2 326.5,-257.2 425.5,-257.2 425.5,-235.2 326.5,-235.2"/>
<text text-anchor="start" x="329.5" y="-242.9" font-family="Helvetica,sans-Serif" font-size="11.00" fill="#000000">date[13]</text>
<polygon fill="none" stroke="#000000" points="194.5,-213.2 194.5,-235.2 326.5,-235.2 326.5,-213.2 194.5,-213.2"/>
<text text-anchor="start" x="214.5" y="-220.3" font-family="Helvetica,sans-Serif" font-size="11.00" fill="#000000">paths</text>
<polygon fill="none" stroke="#000000" points="326.5,-213.2 326.5,-235.2 425.5,-235.2 425.5,-213.2 326.5,-213.2"/>
<text text-anchor="start" x="329.5" y="-220.9" font-family="Helvetica,sans-Serif" font-size="11.00" fill="#000000">int4[10]</text>
<polygon fill="none" stroke="#000000" points="194.5,-191.2 194.5,-213.2 326.5,-213.2 326.5,-191.2 194.5,-191.2"/>
<text text-anchor="start" x="214.5" y="-198.3" font-family="Helvetica,sans-Serif" font-size="11.00" fill="#000000">request_payload</text>
<polygon fill="none" stroke="#000000" points="326.5,-191.2 326.5,-213.2 425.5,-213.2 425.5,-191.2 326.5,-191.2"/>
<text text-anchor="start" x="329.2258" y="-198.9" font-family="Helvetica,sans-Serif" font-size="11.00" fill="#000000">jsonb[2147483647]</text>
<polygon fill="none" stroke="#000000" points="194.5,-169.2 194.5,-191.2 326.5,-191.2 326.5,-169.2 194.5,-169.2"/>
<text text-anchor="start" x="214.5" y="-176.3" font-family="Helvetica,sans-Serif" font-size="11.00" fill="#000000">seed_used</text>
<polygon fill="none" stroke="#000000" points="326.5,-169.2 326.5,-191.2 425.5,-191.2 425.5,-169.2 326.5,-169.2"/>
<text text-anchor="start" x="329.5" y="-176.9" font-family="Helvetica,sans-Serif" font-size="11.00" fill="#000000">int8[19]</text>
<polygon fill="none" stroke="#000000" points="194.5,-147.2 194.5,-169.2 326.5,-169.2 326.5,-147.2 194.5,-147.2"/>
<text text-anchor="start" x="214.5" y="-154.3" font-family="Helvetica,sans-Serif" font-size="11.00" fill="#000000">error_message</text>
<polygon fill="none" stroke="#000000" points="326.5,-147.2 326.5,-169.2 425.5,-169.2 425.5,-147.2 326.5,-147.2"/>
<text text-anchor="start" x="329.5" y="-154.9" font-family="Helvetica,sans-Serif" font-size="11.00" fill="#000000">text[2147483647]</text>
<polygon fill="#ffffff" stroke="transparent" points="194.5,-125.2 194.5,-147.2 326.5,-147.2 326.5,-125.2 194.5,-125.2"/>
<polygon fill="none" stroke="#000000" points="194.5,-125.2 194.5,-147.2 326.5,-147.2 326.5,-125.2 194.5,-125.2"/>
<text text-anchor="start" x="214.5" y="-132.3" font-family="Helvetica,sans-Serif" font-size="11.00" fill="#000000">created_at</text>
<polygon fill="none" stroke="#000000" points="326.5,-125.2 326.5,-147.2 425.5,-147.2 425.5,-125.2 326.5,-125.2"/>
<text text-anchor="start" x="329.5" y="-132.9" font-family="Helvetica,sans-Serif" font-size="11.00" fill="#000000">timestamp[29,6]</text>
<polygon fill="none" stroke="#000000" points="194.5,-103.2 194.5,-125.2 326.5,-125.2 326.5,-103.2 194.5,-103.2"/>
<text text-anchor="start" x="214.5" y="-110.3" font-family="Helvetica,sans-Serif" font-size="11.00" fill="#000000">started_at</text>
<polygon fill="none" stroke="#000000" points="326.5,-103.2 326.5,-125.2 425.5,-125.2 425.5,-103.2 326.5,-103.2"/>
<text text-anchor="start" x="329.5" y="-110.9" font-family="Helvetica,sans-Serif" font-size="11.00" fill="#000000">timestamp[29,6]</text>
<polygon fill="none" stroke="#000000" points="194.5,-81.2 194.5,-103.2 326.5,-103.2 326.5,-81.2 194.5,-81.2"/>
<text text-anchor="start" x="214.5" y="-88.3" font-family="Helvetica,sans-Serif" font-size="11.00" fill="#000000">completed_at</text>
<polygon fill="none" stroke="#000000" points="326.5,-81.2 326.5,-103.2 425.5,-103.2 425.5,-81.2 326.5,-81.2"/>
<text text-anchor="start" x="329.5" y="-88.9" font-family="Helvetica,sans-Serif" font-size="11.00" fill="#000000">timestamp[29,6]</text>
<polygon fill="none" stroke="#000000" points="194.5,-59.2 194.5,-81.2 326.5,-81.2 326.5,-59.2 194.5,-59.2"/>
<text text-anchor="start" x="214.5" y="-66.3" font-family="Helvetica,sans-Serif" font-size="11.00" fill="#000000">runtime_ms</text>
<polygon fill="none" stroke="#000000" points="326.5,-59.2 326.5,-81.2 425.5,-81.2 425.5,-59.2 326.5,-59.2"/>
<text text-anchor="start" x="329.5" y="-66.9" font-family="Helvetica,sans-Serif" font-size="11.00" fill="#000000">int8[19]</text>
<polygon fill="#ffffff" stroke="transparent" points="194.5,-40.2 194.5,-59.2 264.5,-59.2 264.5,-40.2 194.5,-40.2"/>
<polygon fill="none" stroke="#000000" points="194.5,-40.2 194.5,-59.2 264.5,-59.2 264.5,-40.2 194.5,-40.2"/>
<text text-anchor="start" x="197.5" y="-46.3" font-family="Helvetica,sans-Serif" font-size="11.00" fill="#000000">&lt; 1</text>
<polygon fill="#ffffff" stroke="transparent" points="264.5,-40.2 264.5,-59.2 326.5,-59.2 326.5,-40.2 264.5,-40.2"/>
<polygon fill="none" stroke="#000000" points="264.5,-40.2 264.5,-59.2 326.5,-59.2 326.5,-40.2 264.5,-40.2"/>
<text text-anchor="start" x="317.3862" y="-46.3" font-family="Helvetica,sans-Serif" font-size="11.00" fill="#000000"> &#160;</text>
<polygon fill="#ffffff" stroke="transparent" points="326.5,-40.2 326.5,-59.2 425.5,-59.2 425.5,-40.2 326.5,-40.2"/>
<polygon fill="none" stroke="#000000" points="326.5,-40.2 326.5,-59.2 425.5,-59.2 425.5,-40.2 326.5,-40.2"/>
<text text-anchor="start" x="406.9053" y="-46.3" font-family="Helvetica,sans-Serif" font-size="11.00" fill="#000000">3 &gt;</text>
<polygon fill="none" stroke="#000000" stroke-width="2" points="193,-39.2 193,-369.2 426,-369.2 426,-39.2 193,-39.2"/>
</a>
</g>
</g>
<!-- simulation_audit&#45;&gt;simulation_runs -->
<g id="edge5" class="edge">
<title>simulation_audit:w&#45;&gt;simulation_runs:e</title>
<path fill="none" stroke="#000000" d="M499.9663,-457.993C446.3308,-439.5823 496.7084,-312.2 425.5,-312.2"/>
<polygon fill="#000000" stroke="#000000" points="506.5907,-458.9989 513.9595,-463.7592 510.5453,-459.5994 514.5,-460.2 514.5,-460.2 514.5,-460.2 510.5453,-459.5994 515.0405,-456.6408 506.5907,-458.9989 506.5907,-458.9989"/>
<ellipse fill="none" stroke="#000000" cx="503.4269" cy="-458.5184" rx="3.2" ry="3.2"/>
</g>
<!-- simulation_runs&#45;&gt;cds_portfolios -->
<g id="edge8" class="edge">
<title>simulation_runs:w&#45;&gt;cds_portfolios:e</title>
<path fill="none" stroke="#000000" d="M179.8499,-292.2883C113.4461,-314.2022 232.5254,-501.2 141.5,-501.2"/>
<polygon fill="#000000" stroke="#000000" points="186.5801,-291.329 195.0081,-293.764 190.54,-290.7645 194.5,-290.2 194.5,-290.2 194.5,-290.2 190.54,-290.7645 193.9919,-286.636 186.5801,-291.329 186.5801,-291.329"/>
<ellipse fill="none" stroke="#000000" cx="183.4121" cy="-291.7806" rx="3.2" ry="3.2"/>
</g>
<!-- simulation_contributors -->
<g id="node8" class="node">
<title>simulation_contributors</title>
<g id="a_node8"><a xlink:href="../../tables/simulation_contributors.html" xlink:title="simulation_contributors" target="_top">
<polygon fill="#ffffff" stroke="transparent" points="490,-241.7 490,-368.7 689,-368.7 689,-241.7 490,-241.7"/>
<polygon fill="#f5f5f5" stroke="transparent" points="490.5,-345.2 490.5,-368.2 689.5,-368.2 689.5,-345.2 490.5,-345.2"/>
<polygon fill="none" stroke="#000000" points="490.5,-345.2 490.5,-368.2 689.5,-368.2 689.5,-345.2 490.5,-345.2"/>
<text text-anchor="start" x="495.5" y="-353.8" font-family="Helvetica,sans-Serif" font-weight="bold" font-size="11.00" fill="#000000">simulation_contributors</text>
<text text-anchor="start" x="655.0219" y="-353.3" font-family="Helvetica,sans-Serif" font-size="11.00" fill="#000000">[table]</text>
<polygon fill="none" stroke="#000000" points="490.5,-323.2 490.5,-345.2 689.5,-345.2 689.5,-323.2 490.5,-323.2"/>
<image xlink:href="../../images/primaryKeys.png" width="11px" height="12px" preserveAspectRatio="xMinYMin meet" x="495.5" y="-340.2"/>
<text text-anchor="start" x="519.5" y="-330.3" font-family="Helvetica,sans-Serif" font-size="11.00" fill="#000000">id</text>
<polygon fill="#ffffff" stroke="transparent" points="490.5,-301.2 490.5,-323.2 689.5,-323.2 689.5,-301.2 490.5,-301.2"/>
<polygon fill="none" stroke="#000000" points="490.5,-301.2 490.5,-323.2 689.5,-323.2 689.5,-301.2 490.5,-301.2"/>
<image xlink:href="../../images/foreignKeys.png" width="11px" height="12px" preserveAspectRatio="xMinYMin meet" x="495.5" y="-318.2"/>
<text text-anchor="start" x="519.5" y="-308.3" font-family="Helvetica,sans-Serif" font-size="11.00" fill="#000000">run_id</text>
<polygon fill="#ffffff" stroke="transparent" points="490.5,-279.2 490.5,-301.2 689.5,-301.2 689.5,-279.2 490.5,-279.2"/>
<polygon fill="none" stroke="#000000" points="490.5,-279.2 490.5,-301.2 689.5,-301.2 689.5,-279.2 490.5,-279.2"/>
<text text-anchor="start" x="519.5" y="-286.3" font-family="Helvetica,sans-Serif" font-size="11.00" fill="#000000">entity_name</text>
<polygon fill="none" stroke="#000000" points="490.5,-260.2 490.5,-279.2 689.5,-279.2 689.5,-260.2 490.5,-260.2"/>
<text text-anchor="start" x="493.5" y="-266.3" font-family="Helvetica,sans-Serif" font-size="11.00" fill="#000000">...</text>
<polygon fill="#ffffff" stroke="transparent" points="490.5,-241.2 490.5,-260.2 588.5,-260.2 588.5,-241.2 490.5,-241.2"/>
<polygon fill="none" stroke="#000000" points="490.5,-241.2 490.5,-260.2 588.5,-260.2 588.5,-241.2 490.5,-241.2"/>
<text text-anchor="start" x="493.5" y="-247.3" font-family="Helvetica,sans-Serif" font-size="11.00" fill="#000000">&lt; 1</text>
<polygon fill="#ffffff" stroke="transparent" points="588.5,-241.2 588.5,-260.2 638.5,-260.2 638.5,-241.2 588.5,-241.2"/>
<polygon fill="none" stroke="#000000" points="588.5,-241.2 588.5,-260.2 638.5,-260.2 638.5,-241.2 588.5,-241.2"/>
<text text-anchor="start" x="629.3862" y="-247.3" font-family="Helvetica,sans-Serif" font-size="11.00" fill="#000000"> &#160;</text>
<polygon fill="#ffffff" stroke="transparent" points="638.5,-241.2 638.5,-260.2 689.5,-260.2 689.5,-241.2 638.5,-241.2"/>
<polygon fill="none" stroke="#000000" points="638.5,-241.2 638.5,-260.2 689.5,-260.2 689.5,-241.2 638.5,-241.2"/>
<text text-anchor="start" x="680.3862" y="-247.3" font-family="Helvetica,sans-Serif" font-size="11.00" fill="#000000"> &#160;</text>
</a>
</g>
</g>
<!-- simulation_contributors&#45;&gt;simulation_runs -->
<g id="edge6" class="edge">
<title>simulation_contributors:w&#45;&gt;simulation_runs:e</title>
<path fill="none" stroke="#000000" d="M475.9889,-312.2C458.0526,-312.2 448.8594,-312.2 425.5,-312.2"/>
<polygon fill="#000000" stroke="#000000" points="482.5,-312.2001 490.5,-315.8 486.5,-312.2 490.5,-312.2 490.5,-312.2 490.5,-312.2 486.5,-312.2 490.5,-308.6 482.5,-312.2001 482.5,-312.2001"/>
<ellipse fill="none" stroke="#000000" cx="479.3" cy="-312.2001" rx="3.2" ry="3.2"/>
</g>
<!-- simulation_horizon_metrics -->
<g id="node9" class="node">
<title>simulation_horizon_metrics</title>
<g id="a_node9"><a xlink:href="../../tables/simulation_horizon_metrics.html" xlink:title="simulation_horizon_metrics" target="_top">
<polygon fill="#ffffff" stroke="transparent" points="478,-93.7 478,-220.7 701,-220.7 701,-93.7 478,-93.7"/>
<polygon fill="#f5f5f5" stroke="transparent" points="478.5,-197.2 478.5,-220.2 701.5,-220.2 701.5,-197.2 478.5,-197.2"/>
<polygon fill="none" stroke="#000000" points="478.5,-197.2 478.5,-220.2 701.5,-220.2 701.5,-197.2 478.5,-197.2"/>
<text text-anchor="start" x="483.5" y="-205.8" font-family="Helvetica,sans-Serif" font-weight="bold" font-size="11.00" fill="#000000">simulation_horizon_metrics</text>
<text text-anchor="start" x="667.0219" y="-205.3" font-family="Helvetica,sans-Serif" font-size="11.00" fill="#000000">[table]</text>
<polygon fill="none" stroke="#000000" points="478.5,-175.2 478.5,-197.2 701.5,-197.2 701.5,-175.2 478.5,-175.2"/>
<image xlink:href="../../images/primaryKeys.png" width="11px" height="12px" preserveAspectRatio="xMinYMin meet" x="483.5" y="-192.2"/>
<text text-anchor="start" x="507.5" y="-182.3" font-family="Helvetica,sans-Serif" font-size="11.00" fill="#000000">id</text>
<polygon fill="#ffffff" stroke="transparent" points="478.5,-153.2 478.5,-175.2 701.5,-175.2 701.5,-153.2 478.5,-153.2"/>
<polygon fill="none" stroke="#000000" points="478.5,-153.2 478.5,-175.2 701.5,-175.2 701.5,-153.2 478.5,-153.2"/>
<image xlink:href="../../images/foreignKeys.png" width="11px" height="12px" preserveAspectRatio="xMinYMin meet" x="483.5" y="-170.2"/>
<text text-anchor="start" x="507.5" y="-160.3" font-family="Helvetica,sans-Serif" font-size="11.00" fill="#000000">run_id</text>
<polygon fill="#ffffff" stroke="transparent" points="478.5,-131.2 478.5,-153.2 701.5,-153.2 701.5,-131.2 478.5,-131.2"/>
<polygon fill="none" stroke="#000000" points="478.5,-131.2 478.5,-153.2 701.5,-153.2 701.5,-131.2 478.5,-131.2"/>
<text text-anchor="start" x="507.5" y="-138.3" font-family="Helvetica,sans-Serif" font-size="11.00" fill="#000000">tenor</text>
<polygon fill="none" stroke="#000000" points="478.5,-112.2 478.5,-131.2 701.5,-131.2 701.5,-112.2 478.5,-112.2"/>
<text text-anchor="start" x="481.5" y="-118.3" font-family="Helvetica,sans-Serif" font-size="11.00" fill="#000000">...</text>
<polygon fill="#ffffff" stroke="transparent" points="478.5,-93.2 478.5,-112.2 588.5,-112.2 588.5,-93.2 478.5,-93.2"/>
<polygon fill="none" stroke="#000000" points="478.5,-93.2 478.5,-112.2 588.5,-112.2 588.5,-93.2 478.5,-93.2"/>
<text text-anchor="start" x="481.5" y="-99.3" font-family="Helvetica,sans-Serif" font-size="11.00" fill="#000000">&lt; 1</text>
<polygon fill="#ffffff" stroke="transparent" points="588.5,-93.2 588.5,-112.2 644.5,-112.2 644.5,-93.2 588.5,-93.2"/>
<polygon fill="none" stroke="#000000" points="588.5,-93.2 588.5,-112.2 644.5,-112.2 644.5,-93.2 588.5,-93.2"/>
<text text-anchor="start" x="635.3862" y="-99.3" font-family="Helvetica,sans-Serif" font-size="11.00" fill="#000000"> &#160;</text>
<polygon fill="#ffffff" stroke="transparent" points="644.5,-93.2 644.5,-112.2 701.5,-112.2 701.5,-93.2 644.5,-93.2"/>
<polygon fill="none" stroke="#000000" points="644.5,-93.2 644.5,-112.2 701.5,-112.2 701.5,-93.2 644.5,-93.2"/>
<text text-anchor="start" x="692.3862" y="-99.3" font-family="Helvetica,sans-Serif" font-size="11.00" fill="#000000"> &#160;</text>
</a>
</g>
</g>
<!-- simulation_horizon_metrics&#45;&gt;simulation_runs -->
<g id="edge7" class="edge">
<title>simulation_horizon_metrics:w&#45;&gt;simulation_runs:e</title>
<path fill="none" stroke="#000000" d="M464.2944,-167.0243C421.8081,-187.4853 489.6369,-312.2 425.5,-312.2"/>
<polygon fill="#000000" stroke="#000000" points="470.6536,-165.7601 479.202,-167.7309 474.5768,-164.98 478.5,-164.2 478.5,-164.2 478.5,-164.2 474.5768,-164.98 477.798,-160.6691 470.6536,-165.7601 470.6536,-165.7601"/>
<ellipse fill="none" stroke="#000000" cx="467.515" cy="-166.3841" rx="3.2" ry="3.2"/>
</g>
</g>
</svg>
