<?xml version="1.0" encoding="UTF-8" standalone="no"?>
<!DOCTYPE svg PUBLIC "-//W3C//DTD SVG 1.1//EN"
 "http://www.w3.org/Graphics/SVG/1.1/DTD/svg11.dtd">
<!-- Generated by graphviz version 2.40.1 (20161225.0304)
 -->
<!-- Title: twoDegreesRelationshipsDiagram Pages: 1 -->
<svg width="682pt" height="525pt"
 viewBox="0.00 0.00 682.00 524.70" xmlns="http://www.w3.org/2000/svg" xmlns:xlink="http://www.w3.org/1999/xlink">
<g id="graph0" class="graph" transform="scale(1 1) rotate(0) translate(4 520.7)">
<title>twoDegreesRelationshipsDiagram</title>
<polygon fill="#ffffff" stroke="transparent" points="-4,4 -4,-520.7 678,-520.7 678,4 -4,4"/>
<text text-anchor="middle" x="72.4936" y="-7.3" font-family="Helvetica,sans-Serif" font-size="11.00" fill="#000000">Generated by SchemaSpy</text>
<!-- simulation_audit -->
<g id="node1" class="node">
<title>simulation_audit</title>
<g id="a_node1"><a xlink:href="../../tables/simulation_audit.html" xlink:title="simulation_audit" target="_top">
<polygon fill="#ffffff" stroke="transparent" points="450,-451.7 450,-512.7 601,-512.7 601,-451.7 450,-451.7"/>
<polygon fill="#f5f5f5" stroke="transparent" points="450.5,-489.2 450.5,-512.2 601.5,-512.2 601.5,-489.2 450.5,-489.2"/>
<polygon fill="none" stroke="#000000" points="450.5,-489.2 450.5,-512.2 601.5,-512.2 601.5,-489.2 450.5,-489.2"/>
<text text-anchor="start" x="455.5" y="-497.8" font-family="Helvetica,sans-Serif" font-weight="bold" font-size="11.00" fill="#000000">simulation_audit</text>
<text text-anchor="start" x="567.0219" y="-497.3" font-family="Helvetica,sans-Serif" font-size="11.00" fill="#000000">[table]</text>
<polygon fill="none" stroke="#000000" points="450.5,-470.2 450.5,-489.2 601.5,-489.2 601.5,-470.2 450.5,-470.2"/>
<text text-anchor="start" x="453.5" y="-476.3" font-family="Helvetica,sans-Serif" font-size="11.00" fill="#000000">...</text>
<polygon fill="#ffffff" stroke="transparent" points="450.5,-451.2 450.5,-470.2 524.5,-470.2 524.5,-451.2 450.5,-451.2"/>
<polygon fill="none" stroke="#000000" points="450.5,-451.2 450.5,-470.2 524.5,-470.2 524.5,-451.2 450.5,-451.2"/>
<text text-anchor="start" x="453.5" y="-457.3" font-family="Helvetica,sans-Serif" font-size="11.00" fill="#000000">&lt; 1</text>
<polygon fill="#ffffff" stroke="transparent" points="524.5,-451.2 524.5,-470.2 562.5,-470.2 562.5,-451.2 524.5,-451.2"/>
<polygon fill="none" stroke="#000000" points="524.5,-451.2 524.5,-470.2 562.5,-470.2 562.5,-451.2 524.5,-451.2"/>
<text text-anchor="start" x="553.3862" y="-457.3" font-family="Helvetica,sans-Serif" font-size="11.00" fill="#000000"> &#160;</text>
<polygon fill="#ffffff" stroke="transparent" points="562.5,-451.2 562.5,-470.2 601.5,-470.2 601.5,-451.2 562.5,-451.2"/>
<polygon fill="none" stroke="#000000" points="562.5,-451.2 562.5,-470.2 601.5,-470.2 601.5,-451.2 562.5,-451.2"/>
<text text-anchor="start" x="592.3862" y="-457.3" font-family="Helvetica,sans-Serif" font-size="11.00" fill="#000000"> &#160;</text>
</a>
</g>
</g>
<!-- simulation_runs -->
<g id="node2" class="node">
<title>simulation_runs</title>
<g id="a_node2"><a xlink:href="../../tables/simulation_runs.html" xlink:title="simulation_runs" target="_top">
<polygon fill="#ffffff" stroke="transparent" points="190,-282.7 190,-453.7 336,-453.7 336,-282.7 190,-282.7"/>
<polygon fill="#f5f5f5" stroke="transparent" points="190,-430.2 190,-453.2 336,-453.2 336,-430.2 190,-430.2"/>
<polygon fill="none" stroke="#000000" points="190,-430.2 190,-453.2 336,-453.2 336,-430.2 190,-430.2"/>
<text text-anchor="start" x="195" y="-438.8" font-family="Helvetica,sans-Serif" font-weight="bold" font-size="11.00" fill="#000000">simulation_runs</text>
<text text-anchor="start" x="301.5219" y="-438.3" font-family="Helvetica,sans-Serif" font-size="11.00" fill="#000000">[table]</text>
<polygon fill="none" stroke="#000000" points="190,-408.2 190,-430.2 336,-430.2 336,-408.2 190,-408.2"/>
<image xlink:href="../../images/primaryKeys.png" width="11px" height="12px" preserveAspectRatio="xMinYMin meet" x="195" y="-425.2"/>
<text text-anchor="start" x="217" y="-415.3" font-family="Helvetica,sans-Serif" font-size="11.00" fill="#000000">id</text>
<polygon fill="#ffffff" stroke="transparent" points="190,-386.2 190,-408.2 336,-408.2 336,-386.2 190,-386.2"/>
<polygon fill="none" stroke="#000000" points="190,-386.2 190,-408.2 336,-408.2 336,-386.2 190,-386.2"/>
<text text-anchor="start" x="217" y="-393.3" font-family="Helvetica,sans-Serif" font-size="11.00" fill="#000000">run_id</text>
<polygon fill="#ffffff" stroke="transparent" points="190,-364.2 190,-386.2 336,-386.2 336,-364.2 190,-364.2"/>
<polygon fill="none" stroke="#000000" points="190,-364.2 190,-386.2 336,-386.2 336,-364.2 190,-364.2"/>
<image xlink:href="../../images/foreignKeys.png" width="11px" height="12px" preserveAspectRatio="xMinYMin meet" x="195" y="-381.2"/>
<text text-anchor="start" x="217" y="-371.3" font-family="Helvetica,sans-Serif" font-size="11.00" fill="#000000">portfolio_id</text>
<polygon fill="#ffffff" stroke="transparent" points="190,-342.2 190,-364.2 336,-364.2 336,-342.2 190,-342.2"/>
<polygon fill="none" stroke="#000000" points="190,-342.2 190,-364.2 336,-364.2 336,-342.2 190,-342.2"/>
<text text-anchor="start" x="217" y="-349.3" font-family="Helvetica,sans-Serif" font-size="11.00" fill="#000000">status</text>
<polygon fill="#ffffff" stroke="transparent" points="190,-320.2 190,-342.2 336,-342.2 336,-320.2 190,-320.2"/>
<polygon fill="none" stroke="#000000" points="190,-320.2 190,-342.2 336,-342.2 336,-320.2 190,-320.2"/>
<text text-anchor="start" x="217" y="-327.3" font-family="Helvetica,sans-Serif" font-size="11.00" fill="#000000">created_at</text>
<polygon fill="none" stroke="#000000" points="190,-301.2 190,-320.2 336,-320.2 336,-301.2 190,-301.2"/>
<text text-anchor="start" x="193" y="-307.3" font-family="Helvetica,sans-Serif" font-size="11.00" fill="#000000">...</text>
<polygon fill="#ffffff" stroke="transparent" points="190,-282.2 190,-301.2 257,-301.2 257,-282.2 190,-282.2"/>
<polygon fill="none" stroke="#000000" points="190,-282.2 190,-301.2 257,-301.2 257,-282.2 190,-282.2"/>
<text text-anchor="start" x="193" y="-288.3" font-family="Helvetica,sans-Serif" font-size="11.00" fill="#000000">&lt; 1</text>
<polygon fill="#ffffff" stroke="transparent" points="257,-282.2 257,-301.2 292,-301.2 292,-282.2 257,-282.2"/>
<polygon fill="none" stroke="#000000" points="257,-282.2 257,-301.2 292,-301.2 292,-282.2 257,-282.2"/>
<text text-anchor="start" x="282.8862" y="-288.3" font-family="Helvetica,sans-Serif" font-size="11.00" fill="#000000"> &#160;</text>
<polygon fill="#ffffff" stroke="transparent" points="292,-282.2 292,-301.2 336,-301.2 336,-282.2 292,-282.2"/>
<polygon fill="none" stroke="#000000" points="292,-282.2 292,-301.2 336,-301.2 336,-282.2 292,-282.2"/>
<text text-anchor="start" x="317.4053" y="-288.3" font-family="Helvetica,sans-Serif" font-size="11.00" fill="#000000">3 &gt;</text>
</a>
</g>
</g>
<!-- simulation_audit&#45;&gt;simulation_runs -->
<g id="edge1" class="edge">
<title>simulation_audit:w&#45;&gt;simulation_runs:e</title>
<path fill="none" stroke="#000000" d="M435.8964,-478.1877C411.0391,-474.3743 401.9503,-460.1248 377,-441.2 355.7036,-425.0466 362.7296,-397.2 336,-397.2"/>
<polygon fill="#000000" stroke="#000000" points="442.5192,-478.6467 450.251,-482.7914 446.5096,-478.9234 450.5,-479.2 450.5,-479.2 450.5,-479.2 446.5096,-478.9234 450.749,-475.6086 442.5192,-478.6467 442.5192,-478.6467"/>
<ellipse fill="none" stroke="#000000" cx="439.3268" cy="-478.4254" rx="3.2" ry="3.2"/>
</g>
<!-- cds_portfolios -->
<g id="node5" class="node">
<title>cds_portfolios</title>
<g id="a_node5"><a xlink:href="../../tables/cds_portfolios.html" xlink:title="cds_portfolios" target="_top">
<polygon fill="#ffffff" stroke="transparent" points="8,-347.7 8,-408.7 141,-408.7 141,-347.7 8,-347.7"/>
<polygon fill="#f5f5f5" stroke="transparent" points="8.5,-385.2 8.5,-408.2 141.5,-408.2 141.5,-385.2 8.5,-385.2"/>
<polygon fill="none" stroke="#000000" points="8.5,-385.2 8.5,-408.2 141.5,-408.2 141.5,-385.2 8.5,-385.2"/>
<text text-anchor="start" x="13.5" y="-393.8" font-family="Helvetica,sans-Serif" font-weight="bold" font-size="11.00" fill="#000000">cds_portfolios</text>
<text text-anchor="start" x="107.0219" y="-393.3" font-family="Helvetica,sans-Serif" font-size="11.00" fill="#000000">[table]</text>
<polygon fill="none" stroke="#000000" points="8.5,-366.2 8.5,-385.2 141.5,-385.2 141.5,-366.2 8.5,-366.2"/>
<text text-anchor="start" x="11.5" y="-372.3" font-family="Helvetica,sans-Serif" font-size="11.00" fill="#000000">...</text>
<polygon fill="#ffffff" stroke="transparent" points="8.5,-347.2 8.5,-366.2 64.5,-366.2 64.5,-347.2 8.5,-347.2"/>
<polygon fill="none" stroke="#000000" points="8.5,-347.2 8.5,-366.2 64.5,-366.2 64.5,-347.2 8.5,-347.2"/>
<text text-anchor="start" x="11.5" y="-353.3" font-family="Helvetica,sans-Serif" font-size="11.00" fill="#000000"> &#160;</text>
<polygon fill="#ffffff" stroke="transparent" points="64.5,-347.2 64.5,-366.2 98.5,-366.2 98.5,-347.2 64.5,-347.2"/>
<polygon fill="none" stroke="#000000" points="64.5,-347.2 64.5,-366.2 98.5,-366.2 98.5,-347.2 64.5,-347.2"/>
<text text-anchor="start" x="89.3862" y="-353.3" font-family="Helvetica,sans-Serif" font-size="11.00" fill="#000000"> &#160;</text>
<polygon fill="#ffffff" stroke="transparent" points="98.5,-347.2 98.5,-366.2 141.5,-366.2 141.5,-347.2 98.5,-347.2"/>
<polygon fill="none" stroke="#000000" points="98.5,-347.2 98.5,-366.2 141.5,-366.2 141.5,-347.2 98.5,-347.2"/>
<text text-anchor="start" x="122.9053" y="-353.3" font-family="Helvetica,sans-Serif" font-size="11.00" fill="#000000">5 &gt;</text>
</a>
</g>
</g>
<!-- simulation_runs&#45;&gt;cds_portfolios -->
<g id="edge4" class="edge">
<title>simulation_runs:w&#45;&gt;cds_portfolios:e</title>
<path fill="none" stroke="#000000" d="M175.2829,-375.2C164.2886,-375.2 157.1615,-375.2 141.5,-375.2"/>
<polygon fill="#000000" stroke="#000000" points="182,-375.2001 190,-378.8 186,-375.2 190,-375.2 190,-375.2 190,-375.2 186,-375.2 190,-371.6 182,-375.2001 182,-375.2001"/>
<ellipse fill="none" stroke="#000000" cx="178.8" cy="-375.2001" rx="3.2" ry="3.2"/>
</g>
<!-- simulation_contributors -->
<g id="node3" class="node">
<title>simulation_contributors</title>
<g id="a_node3"><a xlink:href="../../tables/simulation_contributors.html" xlink:title="simulation_contributors" target="_top">
<polygon fill="#ffffff" stroke="transparent" points="426,-369.7 426,-430.7 625,-430.7 625,-369.7 426,-369.7"/>
<polygon fill="#f5f5f5" stroke="transparent" points="426.5,-407.2 426.5,-430.2 625.5,-430.2 625.5,-407.2 426.5,-407.2"/>
<polygon fill="none" stroke="#000000" points="426.5,-407.2 426.5,-430.2 625.5,-430.2 625.5,-407.2 426.5,-407.2"/>
<text text-anchor="start" x="431.5" y="-415.8" font-family="Helvetica,sans-Serif" font-weight="bold" font-size="11.00" fill="#000000">simulation_contributors</text>
<text text-anchor="start" x="591.0219" y="-415.3" font-family="Helvetica,sans-Serif" font-size="11.00" fill="#000000">[table]</text>
<polygon fill="none" stroke="#000000" points="426.5,-388.2 426.5,-407.2 625.5,-407.2 625.5,-388.2 426.5,-388.2"/>
<text text-anchor="start" x="429.5" y="-394.3" font-family="Helvetica,sans-Serif" font-size="11.00" fill="#000000">...</text>
<polygon fill="#ffffff" stroke="transparent" points="426.5,-369.2 426.5,-388.2 524.5,-388.2 524.5,-369.2 426.5,-369.2"/>
<polygon fill="none" stroke="#000000" points="426.5,-369.2 426.5,-388.2 524.5,-388.2 524.5,-369.2 426.5,-369.2"/>
<text text-anchor="start" x="429.5" y="-375.3" font-family="Helvetica,sans-Serif" font-size="11.00" fill="#000000">&lt; 1</text>
<polygon fill="#ffffff" stroke="transparent" points="524.5,-369.2 524.5,-388.2 574.5,-388.2 574.5,-369.2 524.5,-369.2"/>
<polygon fill="none" stroke="#000000" points="524.5,-369.2 524.5,-388.2 574.5,-388.2 574.5,-369.2 524.5,-369.2"/>
<text text-anchor="start" x="565.3862" y="-375.3" font-family="Helvetica,sans-Serif" font-size="11.00" fill="#000000"> &#160;</text>
<polygon fill="#ffffff" stroke="transparent" points="574.5,-369.2 574.5,-388.2 625.5,-388.2 625.5,-369.2 574.5,-369.2"/>
<polygon fill="none" stroke="#000000" points="574.5,-369.2 574.5,-388.2 625.5,-388.2 625.5,-369.2 574.5,-369.2"/>
<text text-anchor="start" x="616.3862" y="-375.3" font-family="Helvetica,sans-Serif" font-size="11.00" fill="#000000"> &#160;</text>
</a>
</g>
</g>
<!-- simulation_contributors&#45;&gt;simulation_runs -->
<g id="edge2" class="edge">
<title>simulation_contributors:w&#45;&gt;simulation_runs:e</title>
<path fill="none" stroke="#000000" d="M411.929,-397.2C383.0747,-397.2 370.8802,-397.2 336,-397.2"/>
<polygon fill="#000000" stroke="#000000" points="418.5,-397.2001 426.5,-400.8 422.5,-397.2 426.5,-397.2 426.5,-397.2 426.5,-397.2 422.5,-397.2 426.5,-393.6 418.5,-397.2001 418.5,-397.2001"/>
<ellipse fill="none" stroke="#000000" cx="415.3" cy="-397.2001" rx="3.2" ry="3.2"/>
</g>
<!-- simulation_horizon_metrics -->
<g id="node4" class="node">
<title>simulation_horizon_metrics</title>
<g id="a_node4"><a xlink:href="../../tables/simulation_horizon_metrics.html" xlink:title="simulation_horizon_metrics" target="_top">
<polygon fill="#ffffff" stroke="transparent" points="385,-38.2 385,-348.2 666,-348.2 666,-38.2 385,-38.2"/>
<polygon fill="#f5f5f5" stroke="transparent" points="387.5,-323.2 387.5,-346.2 664.5,-346.2 664.5,-323.2 387.5,-323.2"/>
<polygon fill="none" stroke="#000000" points="387.5,-323.2 387.5,-346.2 664.5,-346.2 664.5,-323.2 387.5,-323.2"/>
<text text-anchor="start" x="392.5" y="-331.8" font-family="Helvetica,sans-Serif" font-weight="bold" font-size="11.00" fill="#000000">simulation_horizon_metrics</text>
<text text-anchor="start" x="629.5437" y="-331.3" font-family="Helvetica,sans-Serif" font-size="11.00" fill="#000000">[table]</text>
<polygon fill="none" stroke="#000000" points="387.5,-301.2 387.5,-323.2 592.5,-323.2 592.5,-301.2 387.5,-301.2"/>
<image xlink:href="../../images/primaryKeys.png" width="11px" height="12px" preserveAspectRatio="xMinYMin meet" x="392.5" y="-318.2"/>
<text text-anchor="start" x="407.5" y="-308.3" font-family="Helvetica,sans-Serif" font-size="11.00" fill="#000000">id</text>
<polygon fill="none" stroke="#000000" points="592.5,-301.2 592.5,-323.2 664.5,-323.2 664.5,-301.2 592.5,-301.2"/>
<text text-anchor="start" x="595.5" y="-308.9" font-family="Helvetica,sans-Serif" font-size="11.00" fill="#000000">bigserial[19]</text>
<polygon fill="#ffffff" stroke="transparent" points="387.5,-279.2 387.5,-301.2 592.5,-301.2 592.5,-279.2 387.5,-279.2"/>
<polygon fill="none" stroke="#000000" points="387.5,-279.2 387.5,-301.2 592.5,-301.2 592.5,-279.2 387.5,-279.2"/>
<image xlink:href="../../images/foreignKeys.png" width="11px" height="12px" preserveAspectRatio="xMinYMin meet" x="392.5" y="-296.2"/>
<text text-anchor="start" x="407.5" y="-286.3" font-family="Helvetica,sans-Serif" font-size="11.00" fill="#000000">run_id</text>
<polygon fill="none" stroke="#000000" points="592.5,-279.2 592.5,-301.2 664.5,-301.2 664.5,-279.2 592.5,-279.2"/>
<text text-anchor="start" x="595.5" y="-286.9" font-family="Helvetica,sans-Serif" font-size="11.00" fill="#000000">varchar[50]</text>
<polygon fill="#ffffff" stroke="transparent" points="387.5,-257.2 387.5,-279.2 592.5,-279.2 592.5,-257.2 387.5,-257.2"/>
<polygon fill="none" stroke="#000000" points="387.5,-257.2 387.5,-279.2 592.5,-279.2 592.5,-257.2 387.5,-257.2"/>
<text text-anchor="start" x="407.5" y="-264.3" font-family="Helvetica,sans-Serif" font-size="11.00" fill="#000000">tenor</text>
<polygon fill="none" stroke="#000000" points="592.5,-257.2 592.5,-279.2 664.5,-279.2 664.5,-257.2 592.5,-257.2"/>
<text text-anchor="start" x="595.5" y="-264.9" font-family="Helvetica,sans-Serif" font-size="11.00" fill="#000000">varchar[10]</text>
<polygon fill="none" stroke="#000000" points="387.5,-235.2 387.5,-257.2 592.5,-257.2 592.5,-235.2 387.5,-235.2"/>
<text text-anchor="start" x="407.5" y="-242.3" font-family="Helvetica,sans-Serif" font-size="11.00" fill="#000000">p_any_default</text>
<polygon fill="none" stroke="#000000" points="592.5,-235.2 592.5,-257.2 664.5,-257.2 664.5,-235.2 592.5,-235.2"/>
<text text-anchor="start" x="595.1876" y="-242.9" font-family="Helvetica,sans-Serif" font-size="11.00" fill="#000000">numeric[10,6]</text>
<polygon fill="none" stroke="#000000" points="387.5,-213.2 387.5,-235.2 592.5,-235.2 592.5,-213.2 387.5,-213.2"/>
<text text-anchor="start" x="407.5" y="-220.3" font-family="Helvetica,sans-Serif" font-size="11.00" fill="#000000">expected_defaults</text>
<polygon fill="none" stroke="#000000" points="592.5,-213.2 592.5,-235.2 664.5,-235.2 664.5,-213.2 592.5,-213.2"/>
<text text-anchor="start" x="595.1876" y="-220.9" font-family="Helvetica,sans-Serif" font-size="11.00" fill="#000000">numeric[10,4]</text>
<polygon fill="none" stroke="#000000" points="387.5,-191.2 387.5,-213.2 592.5,-213.2 592.5,-191.2 387.5,-191.2"/>
<text text-anchor="start" x="407.5" y="-198.3" font-family="Helvetica,sans-Serif" font-size="11.00" fill="#000000">loss_mean</text>
<polygon fill="none" stroke="#000000" points="592.5,-191.2 592.5,-213.2 664.5,-213.2 664.5,-191.2 592.5,-191.2"/>
<text text-anchor="start" x="595.1876" y="-198.9" font-family="Helvetica,sans-Serif" font-size="11.00" fill="#000000">numeric[18,4]</text>
<polygon fill="none" stroke="#000000" points="387.5,-169.2 387.5,-191.2 592.5,-191.2 592.5,-169.2 387.5,-169.2"/>
<text text-anchor="start" x="407.5" y="-176.3" font-family="Helvetica,sans-Serif" font-size="11.00" fill="#000000">loss_var95</text>
<polygon fill="none" stroke="#000000" points="592.5,-169.2 592.5,-191.2 664.5,-191.2 664.5,-169.2 592.5,-169.2"/>
<text text-anchor="start" x="595.1876" y="-176.9" font-family="Helvetica,sans-Serif" font-size="11.00" fill="#000000">numeric[18,4]</text>
<polygon fill="none" stroke="#000000" points="387.5,-147.2 387.5,-169.2 592.5,-169.2 592.5,-147.2 387.5,-147.2"/>
<text text-anchor="start" x="407.5" y="-154.3" font-family="Helvetica,sans-Serif" font-size="11.00" fill="#000000">loss_var99</text>
<polygon fill="none" stroke="#000000" points="592.5,-147.2 592.5,-169.2 664.5,-169.2 664.5,-147.2 592.5,-147.2"/>
<text text-anchor="start" x="595.1876" y="-154.9" font-family="Helvetica,sans-Serif" font-size="11.00" fill="#000000">numeric[18,4]</text>
<polygon fill="none" stroke="#000000" points="387.5,-125.2 387.5,-147.2 592.5,-147.2 592.5,-125.2 387.5,-125.2"/>
<text text-anchor="start" x="407.5" y="-132.3" font-family="Helvetica,sans-Serif" font-size="11.00" fill="#000000">loss_es97_5</text>
<polygon fill="none" stroke="#000000" points="592.5,-125.2 592.5,-147.2 664.5,-147.2 664.5,-125.2 592.5,-125.2"/>
<text text-anchor="start" x="595.1876" y="-132.9" font-family="Helvetica,sans-Serif" font-size="11.00" fill="#000000">numeric[18,4]</text>
<polygon fill="none" stroke="#000000" points="387.5,-103.2 387.5,-125.2 592.5,-125.2 592.5,-103.2 387.5,-103.2"/>
<text text-anchor="start" x="407.5" y="-110.3" font-family="Helvetica,sans-Serif" font-size="11.00" fill="#000000">sum_standalone_el</text>
<polygon fill="none" stroke="#000000" points="592.5,-103.2 592.5,-125.2 664.5,-125.2 664.5,-103.2 592.5,-103.2"/>
<text text-anchor="start" x="595.1876" y="-110.9" font-family="Helvetica,sans-Serif" font-size="11.00" fill="#000000">numeric[18,4]</text>
<polygon fill="none" stroke="#000000" points="387.5,-81.2 387.5,-103.2 592.5,-103.2 592.5,-81.2 387.5,-81.2"/>
<text text-anchor="start" x="407.5" y="-88.3" font-family="Helvetica,sans-Serif" font-size="11.00" fill="#000000">portfolio_el</text>
<polygon fill="none" stroke="#000000" points="592.5,-81.2 592.5,-103.2 664.5,-103.2 664.5,-81.2 592.5,-81.2"/>
<text text-anchor="start" x="595.1876" y="-88.9" font-family="Helvetica,sans-Serif" font-size="11.00" fill="#000000">numeric[18,4]</text>
<polygon fill="none" stroke="#000000" points="387.5,-59.2 387.5,-81.2 592.5,-81.2 592.5,-59.2 387.5,-59.2"/>
<text text-anchor="start" x="407.5" y="-66.3" font-family="Helvetica,sans-Serif" font-size="11.00" fill="#000000">diversification_benefit_pct</text>
<polygon fill="none" stroke="#000000" points="592.5,-59.2 592.5,-81.2 664.5,-81.2 664.5,-59.2 592.5,-59.2"/>
<text text-anchor="start" x="595.1876" y="-66.9" font-family="Helvetica,sans-Serif" font-size="11.00" fill="#000000">numeric[10,4]</text>
<polygon fill="#ffffff" stroke="transparent" points="387.5,-40.2 387.5,-59.2 494.5,-59.2 494.5,-40.2 387.5,-40.2"/>
<polygon fill="none" stroke="#000000" points="387.5,-40.2 387.5,-59.2 494.5,-59.2 494.5,-40.2 387.5,-40.2"/>
<text text-anchor="start" x="390.5" y="-46.3" font-family="Helvetica,sans-Serif" font-size="11.00" fill="#000000">&lt; 1</text>
<polygon fill="#ffffff" stroke="transparent" points="494.5,-40.2 494.5,-59.2 592.5,-59.2 592.5,-40.2 494.5,-40.2"/>
<polygon fill="none" stroke="#000000" points="494.5,-40.2 494.5,-59.2 592.5,-59.2 592.5,-40.2 494.5,-40.2"/>
<text text-anchor="start" x="583.3862" y="-46.3" font-family="Helvetica,sans-Serif" font-size="11.00" fill="#000000"> &#160;</text>
<polygon fill="#ffffff" stroke="transparent" points="592.5,-40.2 592.5,-59.2 664.5,-59.2 664.5,-40.2 592.5,-40.2"/>
<polygon fill="none" stroke="#000000" points="592.5,-40.2 592.5,-59.2 664.5,-59.2 664.5,-40.2 592.5,-40.2"/>
<text text-anchor="start" x="645.9053" y="-46.3" font-family="Helvetica,sans-Serif" font-size="11.00" fill="#000000">0 &gt;</text>
<polygon fill="none" stroke="#000000" stroke-width="2" points="386,-39.2 386,-347.2 665,-347.2 665,-39.2 386,-39.2"/>
</a>
</g>
</g>
<!-- simulation_horizon_metrics&#45;&gt;simulation_runs -->
<g id="edge3" class="edge">
<title>simulation_horizon_metrics:w&#45;&gt;simulation_runs:e</title>
<path fill="none" stroke="#000000" d="M373.3662,-294.0082C345.5986,-313.0691 382.7985,-397.2 336,-397.2"/>
<polygon fill="#000000" stroke="#000000" points="379.7755,-292.2813 388.4366,-293.676 383.6377,-291.2407 387.5,-290.2 387.5,-290.2 387.5,-290.2 383.6377,-291.2407 386.5634,-286.724 379.7755,-292.2813 379.7755,-292.2813"/>
<ellipse fill="none" stroke="#000000" cx="376.6857" cy="-293.1139" rx="3.2" ry="3.2"/>
</g>
</g>
</svg>
