<?xml version="1.0" encoding="UTF-8" standalone="no"?>
<!DOCTYPE svg PUBLIC "-//W3C//DTD SVG 1.1//EN"
 "http://www.w3.org/Graphics/SVG/1.1/DTD/svg11.dtd">
<!-- Generated by graphviz version 2.40.1 (20161225.0304)
 -->
<!-- Title: oneDegreeRelationshipsDiagram Pages: 1 -->
<svg width="459pt" height="228pt"
 viewBox="0.00 0.00 459.00 228.20" xmlns="http://www.w3.org/2000/svg" xmlns:xlink="http://www.w3.org/1999/xlink">
<g id="graph0" class="graph" transform="scale(1 1) rotate(0) translate(4 224.2)">
<title>oneDegreeRelationshipsDiagram</title>
<polygon fill="#ffffff" stroke="transparent" points="-4,4 -4,-224.2 455,-224.2 455,4 -4,4"/>
<text text-anchor="middle" x="72.4936" y="-7.3" font-family="Helvetica,sans-Serif" font-size="11.00" fill="#000000">Generated by SchemaSpy</text>
<!-- simulation_audit -->
<g id="node1" class="node">
<title>simulation_audit</title>
<g id="a_node1"><a xlink:href="../../tables/simulation_audit.html" xlink:title="simulation_audit" target="_top">
<polygon fill="#ffffff" stroke="transparent" points="203,-38.2 203,-216.2 443,-216.2 443,-38.2 203,-38.2"/>
<polygon fill="#f5f5f5" stroke="transparent" points="205,-191.2 205,-214.2 441,-214.2 441,-191.2 205,-191.2"/>
<polygon fill="none" stroke="#000000" points="205,-191.2 205,-214.2 441,-214.2 441,-191.2 205,-191.2"/>
<text text-anchor="start" x="210" y="-199.8" font-family="Helvetica,sans-Serif" font-weight="bold" font-size="11.00" fill="#000000">simulation_audit</text>
<text text-anchor="start" x="406.0437" y="-199.3" font-family="Helvetica,sans-Serif" font-size="11.00" fill="#000000">[table]</text>
<polygon fill="none" stroke="#000000" points="205,-169.2 205,-191.2 342,-191.2 342,-169.2 205,-169.2"/>
<image xlink:href="../../images/primaryKeys.png" width="11px" height="12px" preserveAspectRatio="xMinYMin meet" x="210" y="-186.2"/>
<text text-anchor="start" x="225" y="-176.3" font-family="Helvetica,sans-Serif" font-size="11.00" fill="#000000">id</text>
<polygon fill="none" stroke="#000000" points="342,-169.2 342,-191.2 441,-191.2 441,-169.2 342,-169.2"/>
<text text-anchor="start" x="345" y="-176.9" font-family="Helvetica,sans-Serif" font-size="11.00" fill="#000000">bigserial[19]</text>
<polygon fill="#ffffff" stroke="transparent" points="205,-147.2 205,-169.2 342,-169.2 342,-147.2 205,-147.2"/>
<polygon fill="none" stroke="#000000" points="205,-147.2 205,-169.2 342,-169.2 342,-147.2 205,-147.2"/>
<image xlink:href="../../images/foreignKeys.png" width="11px" height="12px" preserveAspectRatio="xMinYMin meet" x="210" y="-164.2"/>
<text text-anchor="start" x="225" y="-154.3" font-family="Helvetica,sans-Serif" font-size="11.00" fill="#000000">run_id</text>
<polygon fill="none" stroke="#000000" points="342,-147.2 342,-169.2 441,-169.2 441,-147.2 342,-147.2"/>
<text text-anchor="start" x="345" y="-154.9" font-family="Helvetica,sans-Serif" font-size="11.00" fill="#000000">varchar[50]</text>
<polygon fill="none" stroke="#000000" points="205,-125.2 205,-147.2 342,-147.2 342,-125.2 205,-125.2"/>
<text text-anchor="start" x="225" y="-132.3" font-family="Helvetica,sans-Serif" font-size="11.00" fill="#000000">event_type</text>
<polygon fill="none" stroke="#000000" points="342,-125.2 342,-147.2 441,-147.2 441,-125.2 342,-125.2"/>
<text text-anchor="start" x="345" y="-132.9" font-family="Helvetica,sans-Serif" font-size="11.00" fill="#000000">varchar[30]</text>
<polygon fill="#ffffff" stroke="transparent" points="205,-103.2 205,-125.2 342,-125.2 342,-103.2 205,-103.2"/>
<polygon fill="none" stroke="#000000" points="205,-103.2 205,-125.2 342,-125.2 342,-103.2 205,-103.2"/>
<text text-anchor="start" x="225" y="-110.3" font-family="Helvetica,sans-Serif" font-size="11.00" fill="#000000">event_timestamp</text>
<polygon fill="none" stroke="#000000" points="342,-103.2 342,-125.2 441,-125.2 441,-103.2 342,-103.2"/>
<text text-anchor="start" x="345" y="-110.9" font-family="Helvetica,sans-Serif" font-size="11.00" fill="#000000">timestamp[29,6]</text>
<polygon fill="none" stroke="#000000" points="205,-81.2 205,-103.2 342,-103.2 342,-81.2 205,-81.2"/>
<text text-anchor="start" x="225" y="-88.3" font-family="Helvetica,sans-Serif" font-size="11.00" fill="#000000">user_id</text>
<polygon fill="none" stroke="#000000" points="342,-81.2 342,-103.2 441,-103.2 441,-81.2 342,-81.2"/>
<text text-anchor="start" x="345" y="-88.9" font-family="Helvetica,sans-Serif" font-size="11.00" fill="#000000">varchar[50]</text>
<polygon fill="none" stroke="#000000" points="205,-59.2 205,-81.2 342,-81.2 342,-59.2 205,-59.2"/>
<text text-anchor="start" x="225" y="-66.3" font-family="Helvetica,sans-Serif" font-size="11.00" fill="#000000">event_data</text>
<polygon fill="none" stroke="#000000" points="342,-59.2 342,-81.2 441,-81.2 441,-59.2 342,-59.2"/>
<text text-anchor="start" x="344.7258" y="-66.9" font-family="Helvetica,sans-Serif" font-size="11.00" fill="#000000">jsonb[2147483647]</text>
<polygon fill="#ffffff" stroke="transparent" points="205,-40.2 205,-59.2 278,-59.2 278,-40.2 205,-40.2"/>
<polygon fill="none" stroke="#000000" points="205,-40.2 205,-59.2 278,-59.2 278,-40.2 205,-40.2"/>
<text text-anchor="start" x="208" y="-46.3" font-family="Helvetica,sans-Serif" font-size="11.00" fill="#000000">&lt; 1</text>
<polygon fill="#ffffff" stroke="transparent" points="278,-40.2 278,-59.2 342,-59.2 342,-40.2 278,-40.2"/>
<polygon fill="none" stroke="#000000" points="278,-40.2 278,-59.2 342,-59.2 342,-40.2 278,-40.2"/>
<text text-anchor="start" x="332.8862" y="-46.3" font-family="Helvetica,sans-Serif" font-size="11.00" fill="#000000"> &#160;</text>
<polygon fill="#ffffff" stroke="transparent" points="342,-40.2 342,-59.2 441,-59.2 441,-40.2 342,-40.2"/>
<polygon fill="none" stroke="#000000" points="342,-40.2 342,-59.2 441,-59.2 441,-40.2 342,-40.2"/>
<text text-anchor="start" x="422.4053" y="-46.3" font-family="Helvetica,sans-Serif" font-size="11.00" fill="#000000">0 &gt;</text>
<polygon fill="none" stroke="#000000" stroke-width="2" points="204,-39.2 204,-215.2 442,-215.2 442,-39.2 204,-39.2"/>
</a>
</g>
</g>
<!-- simulation_runs -->
<g id="node2" class="node">
<title>simulation_runs</title>
<g id="a_node2"><a xlink:href="../../tables/simulation_runs.html" xlink:title="simulation_runs" target="_top">
<polygon fill="#ffffff" stroke="transparent" points="8,-43.7 8,-214.7 154,-214.7 154,-43.7 8,-43.7"/>
<polygon fill="#f5f5f5" stroke="transparent" points="8,-191.2 8,-214.2 154,-214.2 154,-191.2 8,-191.2"/>
<polygon fill="none" stroke="#000000" points="8,-191.2 8,-214.2 154,-214.2 154,-191.2 8,-191.2"/>
<text text-anchor="start" x="13" y="-199.8" font-family="Helvetica,sans-Serif" font-weight="bold" font-size="11.00" fill="#000000">simulation_runs</text>
<text text-anchor="start" x="119.5219" y="-199.3" font-family="Helvetica,sans-Serif" font-size="11.00" fill="#000000">[table]</text>
<polygon fill="none" stroke="#000000" points="8,-169.2 8,-191.2 154,-191.2 154,-169.2 8,-169.2"/>
<image xlink:href="../../images/primaryKeys.png" width="11px" height="12px" preserveAspectRatio="xMinYMin meet" x="13" y="-186.2"/>
<text text-anchor="start" x="35" y="-176.3" font-family="Helvetica,sans-Serif" font-size="11.00" fill="#000000">id</text>
<polygon fill="#ffffff" stroke="transparent" points="8,-147.2 8,-169.2 154,-169.2 154,-147.2 8,-147.2"/>
<polygon fill="none" stroke="#000000" points="8,-147.2 8,-169.2 154,-169.2 154,-147.2 8,-147.2"/>
<text text-anchor="start" x="35" y="-154.3" font-family="Helvetica,sans-Serif" font-size="11.00" fill="#000000">run_id</text>
<polygon fill="#ffffff" stroke="transparent" points="8,-125.2 8,-147.2 154,-147.2 154,-125.2 8,-125.2"/>
<polygon fill="none" stroke="#000000" points="8,-125.2 8,-147.2 154,-147.2 154,-125.2 8,-125.2"/>
<image xlink:href="../../images/foreignKeys.png" width="11px" height="12px" preserveAspectRatio="xMinYMin meet" x="13" y="-142.2"/>
<text text-anchor="start" x="35" y="-132.3" font-family="Helvetica,sans-Serif" font-size="11.00" fill="#000000">portfolio_id</text>
<polygon fill="#ffffff" stroke="transparent" points="8,-103.2 8,-125.2 154,-125.2 154,-103.2 8,-103.2"/>
<polygon fill="none" stroke="#000000" points="8,-103.2 8,-125.2 154,-125.2 154,-103.2 8,-103.2"/>
<text text-anchor="start" x="35" y="-110.3" font-family="Helvetica,sans-Serif" font-size="11.00" fill="#000000">status</text>
<polygon fill="#ffffff" stroke="transparent" points="8,-81.2 8,-103.2 154,-103.2 154,-81.2 8,-81.2"/>
<polygon fill="none" stroke="#000000" points="8,-81.2 8,-103.2 154,-103.2 154,-81.2 8,-81.2"/>
<text text-anchor="start" x="35" y="-88.3" font-family="Helvetica,sans-Serif" font-size="11.00" fill="#000000">created_at</text>
<polygon fill="none" stroke="#000000" points="8,-62.2 8,-81.2 154,-81.2 154,-62.2 8,-62.2"/>
<text text-anchor="start" x="11" y="-68.3" font-family="Helvetica,sans-Serif" font-size="11.00" fill="#000000">...</text>
<polygon fill="#ffffff" stroke="transparent" points="8,-43.2 8,-62.2 75,-62.2 75,-43.2 8,-43.2"/>
<polygon fill="none" stroke="#000000" points="8,-43.2 8,-62.2 75,-62.2 75,-43.2 8,-43.2"/>
<text text-anchor="start" x="11" y="-49.3" font-family="Helvetica,sans-Serif" font-size="11.00" fill="#000000">&lt; 1</text>
<polygon fill="#ffffff" stroke="transparent" points="75,-43.2 75,-62.2 110,-62.2 110,-43.2 75,-43.2"/>
<polygon fill="none" stroke="#000000" points="75,-43.2 75,-62.2 110,-62.2 110,-43.2 75,-43.2"/>
<text text-anchor="start" x="100.8862" y="-49.3" font-family="Helvetica,sans-Serif" font-size="11.00" fill="#000000"> &#160;</text>
<polygon fill="#ffffff" stroke="transparent" points="110,-43.2 110,-62.2 154,-62.2 154,-43.2 110,-43.2"/>
<polygon fill="none" stroke="#000000" points="110,-43.2 110,-62.2 154,-62.2 154,-43.2 110,-43.2"/>
<text text-anchor="start" x="135.4053" y="-49.3" font-family="Helvetica,sans-Serif" font-size="11.00" fill="#000000">3 &gt;</text>
</a>
</g>
</g>
<!-- simulation_audit&#45;&gt;simulation_runs -->
<g id="edge1" class="edge">
<title>simulation_audit:w&#45;&gt;simulation_runs:e</title>
<path fill="none" stroke="#000000" d="M190.276,-158.2C178.2815,-158.2 170.8229,-158.2 154,-158.2"/>
<polygon fill="#000000" stroke="#000000" points="197,-158.2001 205,-161.8 201,-158.2 205,-158.2 205,-158.2 205,-158.2 201,-158.2 205,-154.6 197,-158.2001 197,-158.2001"/>
<ellipse fill="none" stroke="#000000" cx="193.8" cy="-158.2001" rx="3.2" ry="3.2"/>
</g>
</g>
</svg>
