<?xml version="1.0" encoding="UTF-8" standalone="no"?>
<!DOCTYPE svg PUBLIC "-//W3C//DTD SVG 1.1//EN"
 "http://www.w3.org/Graphics/SVG/1.1/DTD/svg11.dtd">
<!-- Generated by graphviz version 2.40.1 (20161225.0304)
 -->
<!-- Title: oneDegreeRelationshipsDiagram Pages: 1 -->
<svg width="713pt" height="529pt"
 viewBox="0.00 0.00 713.00 528.70" xmlns="http://www.w3.org/2000/svg" xmlns:xlink="http://www.w3.org/1999/xlink">
<g id="graph0" class="graph" transform="scale(1 1) rotate(0) translate(4 524.7)">
<title>oneDegreeRelationshipsDiagram</title>
<polygon fill="#ffffff" stroke="transparent" points="-4,4 -4,-524.7 709,-524.7 709,4 -4,4"/>
<text text-anchor="middle" x="72.4936" y="-7.3" font-family="Helvetica,sans-Serif" font-size="11.00" fill="#000000">Generated by SchemaSpy</text>
<!-- simulation_audit -->
<g id="node1" class="node">
<title>simulation_audit</title>
<g id="a_node1"><a xlink:href="../../tables/simulation_audit.html" xlink:title="simulation_audit" target="_top">
<polygon fill="#ffffff" stroke="transparent" points="510,-389.7 510,-516.7 661,-516.7 661,-389.7 510,-389.7"/>
<polygon fill="#f5f5f5" stroke="transparent" points="510.5,-493.2 510.5,-516.2 661.5,-516.2 661.5,-493.2 510.5,-493.2"/>
<polygon fill="none" stroke="#000000" points="510.5,-493.2 510.5,-516.2 661.5,-516.2 661.5,-493.2 510.5,-493.2"/>
<text text-anchor="start" x="515.5" y="-501.8" font-family="Helvetica,sans-Serif" font-weight="bold" font-size="11.00" fill="#000000">simulation_audit</text>
<text text-anchor="start" x="627.0219" y="-501.3" font-family="Helvetica,sans-Serif" font-size="11.00" fill="#000000">[table]</text>
<polygon fill="none" stroke="#000000" points="510.5,-471.2 510.5,-493.2 661.5,-493.2 661.5,-471.2 510.5,-471.2"/>
<image xlink:href="../../images/primaryKeys.png" width="11px" height="12px" preserveAspectRatio="xMinYMin meet" x="515.5" y="-488.2"/>
<text text-anchor="start" x="537.5" y="-478.3" font-family="Helvetica,sans-Serif" font-size="11.00" fill="#000000">id</text>
<polygon fill="#ffffff" stroke="transparent" points="510.5,-449.2 510.5,-471.2 661.5,-471.2 661.5,-449.2 510.5,-449.2"/>
<polygon fill="none" stroke="#000000" points="510.5,-449.2 510.5,-471.2 661.5,-471.2 661.5,-449.2 510.5,-449.2"/>
<image xlink:href="../../images/foreignKeys.png" width="11px" height="12px" preserveAspectRatio="xMinYMin meet" x="515.5" y="-466.2"/>
<text text-anchor="start" x="537.5" y="-456.3" font-family="Helvetica,sans-Serif" font-size="11.00" fill="#000000">run_id</text>
<polygon fill="#ffffff" stroke="transparent" points="510.5,-427.2 510.5,-449.2 661.5,-449.2 661.5,-427.2 510.5,-427.2"/>
<polygon fill="none" stroke="#000000" points="510.5,-427.2 510.5,-449.2 661.5,-449.2 661.5,-427.2 510.5,-427.2"/>
<text text-anchor="start" x="537.5" y="-434.3" font-family="Helvetica,sans-Serif" font-size="11.00" fill="#000000">event_timestamp</text>
<polygon fill="none" stroke="#000000" points="510.5,-408.2 510.5,-427.2 661.5,-427.2 661.5,-408.2 510.5,-408.2"/>
<text text-anchor="start" x="513.5" y="-414.3" font-family="Helvetica,sans-Serif" font-size="11.00" fill="#000000">...</text>
<polygon fill="#ffffff" stroke="transparent" points="510.5,-389.2 510.5,-408.2 584.5,-408.2 584.5,-389.2 510.5,-389.2"/>
<polygon fill="none" stroke="#000000" points="510.5,-389.2 510.5,-408.2 584.5,-408.2 584.5,-389.2 510.5,-389.2"/>
<text text-anchor="start" x="513.5" y="-395.3" font-family="Helvetica,sans-Serif" font-size="11.00" fill="#000000">&lt; 1</text>
<polygon fill="#ffffff" stroke="transparent" points="584.5,-389.2 584.5,-408.2 622.5,-408.2 622.5,-389.2 584.5,-389.2"/>
<polygon fill="none" stroke="#000000" points="584.5,-389.2 584.5,-408.2 622.5,-408.2 622.5,-389.2 584.5,-389.2"/>
<text text-anchor="start" x="613.3862" y="-395.3" font-family="Helvetica,sans-Serif" font-size="11.00" fill="#000000"> &#160;</text>
<polygon fill="#ffffff" stroke="transparent" points="622.5,-389.2 622.5,-408.2 661.5,-408.2 661.5,-389.2 622.5,-389.2"/>
<polygon fill="none" stroke="#000000" points="622.5,-389.2 622.5,-408.2 661.5,-408.2 661.5,-389.2 622.5,-389.2"/>
<text text-anchor="start" x="652.3862" y="-395.3" font-family="Helvetica,sans-Serif" font-size="11.00" fill="#000000"> &#160;</text>
</a>
</g>
</g>
<!-- simulation_runs -->
<g id="node2" class="node">
<title>simulation_runs</title>
<g id="a_node2"><a xlink:href="../../tables/simulation_runs.html" xlink:title="simulation_runs" target="_top">
<polygon fill="#ffffff" stroke="transparent" points="190,-38.2 190,-370.2 425,-370.2 425,-38.2 190,-38.2"/>
<polygon fill="#f5f5f5" stroke="transparent" points="192.5,-345.2 192.5,-368.2 423.5,-368.2 423.5,-345.2 192.5,-345.2"/>
<polygon fill="none" stroke="#000000" points="192.5,-345.2 192.5,-368.2 423.5,-368.2 423.5,-345.2 192.5,-345.2"/>
<text text-anchor="start" x="197.5" y="-353.8" font-family="Helvetica,sans-Serif" font-weight="bold" font-size="11.00" fill="#000000">simulation_runs</text>
<text text-anchor="start" x="388.5437" y="-353.3" font-family="Helvetica,sans-Serif" font-size="11.00" fill="#000000">[table]</text>
<polygon fill="none" stroke="#000000" points="192.5,-323.2 192.5,-345.2 324.5,-345.2 324.5,-323.2 192.5,-323.2"/>
<image xlink:href="../../images/primaryKeys.png" width="11px" height="12px" preserveAspectRatio="xMinYMin meet" x="197.5" y="-340.2"/>
<text text-anchor="start" x="212.5" y="-330.3" font-family="Helvetica,sans-Serif" font-size="11.00" fill="#000000">id</text>
<polygon fill="none" stroke="#000000" points="324.5,-323.2 324.5,-345.2 423.5,-345.2 423.5,-323.2 324.5,-323.2"/>
<text text-anchor="start" x="327.5" y="-330.9" font-family="Helvetica,sans-Serif" font-size="11.00" fill="#000000">bigserial[19]</text>
<polygon fill="#ffffff" stroke="transparent" points="192.5,-301.2 192.5,-323.2 324.5,-323.2 324.5,-301.2 192.5,-301.2"/>
<polygon fill="none" stroke="#000000" points="192.5,-301.2 192.5,-323.2 324.5,-323.2 324.5,-301.2 192.5,-301.2"/>
<text text-anchor="start" x="212.5" y="-308.3" font-family="Helvetica,sans-Serif" font-size="11.00" fill="#000000">run_id</text>
<polygon fill="none" stroke="#000000" points="324.5,-301.2 324.5,-323.2 423.5,-323.2 423.5,-301.2 324.5,-301.2"/>
<text text-anchor="start" x="327.5" y="-308.9" font-family="Helvetica,sans-Serif" font-size="11.00" fill="#000000">varchar[50]</text>
<polygon fill="#ffffff" stroke="transparent" points="192.5,-279.2 192.5,-301.2 324.5,-301.2 324.5,-279.2 192.5,-279.2"/>
<polygon fill="none" stroke="#000000" points="192.5,-279.2 192.5,-301.2 324.5,-301.2 324.5,-279.2 192.5,-279.2"/>
<image xlink:href="../../images/foreignKeys.png" width="11px" height="12px" preserveAspectRatio="xMinYMin meet" x="197.5" y="-296.2"/>
<text text-anchor="start" x="212.5" y="-286.3" font-family="Helvetica,sans-Serif" font-size="11.00" fill="#000000">portfolio_id</text>
<polygon fill="none" stroke="#000000" points="324.5,-279.2 324.5,-301.2 423.5,-301.2 423.5,-279.2 324.5,-279.2"/>
<text text-anchor="start" x="327.5" y="-286.9" font-family="Helvetica,sans-Serif" font-size="11.00" fill="#000000">int8[19]</text>
<polygon fill="#ffffff" stroke="transparent" points="192.5,-257.2 192.5,-279.2 324.5,-279.2 324.5,-257.2 192.5,-257.2"/>
<polygon fill="none" stroke="#000000" points="192.5,-257.2 192.5,-279.2 324.5,-279.2 324.5,-257.2 192.5,-257.2"/>
<text text-anchor="start" x="212.5" y="-264.3" font-family="Helvetica,sans-Serif" font-size="11.00" fill="#000000">status</text>
<polygon fill="none" stroke="#000000" points="324.5,-257.2 324.5,-279.2 423.5,-279.2 423.5,-257.2 324.5,-257.2"/>
<text text-anchor="start" x="327.5" y="-264.9" font-family="Helvetica,sans-Serif" font-size="11.00" fill="#000000">varchar[20]</text>
<polygon fill="none" stroke="#000000" points="192.5,-235.2 192.5,-257.2 324.5,-257.2 324.5,-235.2 192.5,-235.2"/>
<text text-anchor="start" x="212.5" y="-242.3" font-family="Helvetica,sans-Serif" font-size="11.00" fill="#000000">valuation_date</text>
<polygon fill="none" stroke="#000000" points="324.5,-235.2 324.5,-257.2 423.5,-257.2 423.5,-235.2 324.5,-235.2"/>
<text text-anchor="start" x="327.5" y="-242.9" font-family="Helvetica,sans-Serif" font-size="11.00" fill="#000000">date[13]</text>
<polygon fill="none" stroke="#000000" points="192.5,-213.2 192.5,-235.2 324.5,-235.2 324.5,-213.2 192.5,-213.2"/>
<text text-anchor="start" x="212.5" y="-220.3" font-family="Helvetica,sans-Serif" font-size="11.00" fill="#000000">paths</text>
<polygon fill="none" stroke="#000000" points="324.5,-213.2 324.5,-235.2 423.5,-235.2 423.5,-213.2 324.5,-213.2"/>
<text text-anchor="start" x="327.5" y="-220.9" font-family="Helvetica,sans-Serif" font-size="11.00" fill="#000000">int4[10]</text>
<polygon fill="none" stroke="#000000" points="192.5,-191.2 192.5,-213.2 324.5,-213.2 324.5,-191.2 192.5,-191.2"/>
<text text-anchor="start" x="212.5" y="-198.3" font-family="Helvetica,sans-Serif" font-size="11.00" fill="#000000">request_payload</text>
<polygon fill="none" stroke="#000000" points="324.5,-191.2 324.5,-213.2 423.5,-213.2 423.5,-191.2 324.5,-191.2"/>
<text text-anchor="start" x="327.2258" y="-198.9" font-family="Helvetica,sans-Serif" font-size="11.00" fill="#000000">jsonb[2147483647]</text>
<polygon fill="none" stroke="#000000" points="192.5,-169.2 192.5,-191.2 324.5,-191.2 324.5,-169.2 192.5,-169.2"/>
<text text-anchor="start" x="212.5" y="-176.3" font-family="Helvetica,sans-Serif" font-size="11.00" fill="#000000">seed_used</text>
<polygon fill="none" stroke="#000000" points="324.5,-169.2 324.5,-191.2 423.5,-191.2 423.5,-169.2 324.5,-169.2"/>
<text text-anchor="start" x="327.5" y="-176.9" font-family="Helvetica,sans-Serif" font-size="11.00" fill="#000000">int8[19]</text>
<polygon fill="none" stroke="#000000" points="192.5,-147.2 192.5,-169.2 324.5,-169.2 324.5,-147.2 192.5,-147.2"/>
<text text-anchor="start" x="212.5" y="-154.3" font-family="Helvetica,sans-Serif" font-size="11.00" fill="#000000">error_message</text>
<polygon fill="none" stroke="#000000" points="324.5,-147.2 324.5,-169.2 423.5,-169.2 423.5,-147.2 324.5,-147.2"/>
<text text-anchor="start" x="327.5" y="-154.9" font-family="Helvetica,sans-Serif" font-size="11.00" fill="#000000">text[2147483647]</text>
<polygon fill="#ffffff" stroke="transparent" points="192.5,-125.2 192.5,-147.2 324.5,-147.2 324.5,-125.2 192.5,-125.2"/>
<polygon fill="none" stroke="#000000" points="192.5,-125.2 192.5,-147.2 324.5,-147.2 324.5,-125.2 192.5,-125.2"/>
<text text-anchor="start" x="212.5" y="-132.3" font-family="Helvetica,sans-Serif" font-size="11.00" fill="#000000">created_at</text>
<polygon fill="none" stroke="#000000" points="324.5,-125.2 324.5,-147.2 423.5,-147.2 423.5,-125.2 324.5,-125.2"/>
<text text-anchor="start" x="327.5" y="-132.9" font-family="Helvetica,sans-Serif" font-size="11.00" fill="#000000">timestamp[29,6]</text>
<polygon fill="none" stroke="#000000" points="192.5,-103.2 192.5,-125.2 324.5,-125.2 324.5,-103.2 192.5,-103.2"/>
<text text-anchor="start" x="212.5" y="-110.3" font-family="Helvetica,sans-Serif" font-size="11.00" fill="#000000">started_at</text>
<polygon fill="none" stroke="#000000" points="324.5,-103.2 324.5,-125.2 423.5,-125.2 423.5,-103.2 324.5,-103.2"/>
<text text-anchor="start" x="327.5" y="-110.9" font-family="Helvetica,sans-Serif" font-size="11.00" fill="#000000">timestamp[29,6]</text>
<polygon fill="none" stroke="#000000" points="192.5,-81.2 192.5,-103.2 324.5,-103.2 324.5,-81.2 192.5,-81.2"/>
<text text-anchor="start" x="212.5" y="-88.3" font-family="Helvetica,sans-Serif" font-size="11.00" fill="#000000">completed_at</text>
<polygon fill="none" stroke="#000000" points="324.5,-81.2 324.5,-103.2 423.5,-103.2 423.5,-81.2 324.5,-81.2"/>
<text text-anchor="start" x="327.5" y="-88.9" font-family="Helvetica,sans-Serif" font-size="11.00" fill="#000000">timestamp[29,6]</text>
<polygon fill="none" stroke="#000000" points="192.5,-59.2 192.5,-81.2 324.5,-81.2 324.5,-59.2 192.5,-59.2"/>
<text text-anchor="start" x="212.5" y="-66.3" font-family="Helvetica,sans-Serif" font-size="11.00" fill="#000000">runtime_ms</text>
<polygon fill="none" stroke="#000000" points="324.5,-59.2 324.5,-81.2 423.5,-81.2 423.5,-59.2 324.5,-59.2"/>
<text text-anchor="start" x="327.5" y="-66.9" font-family="Helvetica,sans-Serif" font-size="11.00" fill="#000000">int8[19]</text>
<polygon fill="#ffffff" stroke="transparent" points="192.5,-40.2 192.5,-59.2 262.5,-59.2 262.5,-40.2 192.5,-40.2"/>
<polygon fill="none" stroke="#000000" points="192.5,-40.2 192.5,-59.2 262.5,-59.2 262.5,-40.2 192.5,-40.2"/>
<text text-anchor="start" x="195.5" y="-46.3" font-family="Helvetica,sans-Serif" font-size="11.00" fill="#000000">&lt; 1</text>
<polygon fill="#ffffff" stroke="transparent" points="262.5,-40.2 262.5,-59.2 324.5,-59.2 324.5,-40.2 262.5,-40.2"/>
<polygon fill="none" stroke="#000000" points="262.5,-40.2 262.5,-59.2 324.5,-59.2 324.5,-40.2 262.5,-40.2"/>
<text text-anchor="start" x="315.3862" y="-46.3" font-family="Helvetica,sans-Serif" font-size="11.00" fill="#000000"> &#160;</text>
<polygon fill="#ffffff" stroke="transparent" points="324.5,-40.2 324.5,-59.2 423.5,-59.2 423.5,-40.2 324.5,-40.2"/>
<polygon fill="none" stroke="#000000" points="324.5,-40.2 324.5,-59.2 423.5,-59.2 423.5,-40.2 324.5,-40.2"/>
<text text-anchor="start" x="404.9053" y="-46.3" font-family="Helvetica,sans-Serif" font-size="11.00" fill="#000000">3 &gt;</text>
<polygon fill="none" stroke="#000000" stroke-width="2" points="191,-39.2 191,-369.2 424,-369.2 424,-39.2 191,-39.2"/>
</a>
</g>
</g>
<!-- simulation_audit&#45;&gt;simulation_runs -->
<g id="edge1" class="edge">
<title>simulation_audit:w&#45;&gt;simulation_runs:e</title>
<path fill="none" stroke="#000000" d="M497.3731,-453.8406C469.2458,-425.5125 456.8816,-312.2 423.5,-312.2"/>
<polygon fill="#000000" stroke="#000000" points="503.3004,-456.7121 508.9304,-463.4398 506.9002,-458.456 510.5,-460.2 510.5,-460.2 510.5,-460.2 506.9002,-458.456 512.0696,-456.9602 503.3004,-456.7121 503.3004,-456.7121"/>
<ellipse fill="none" stroke="#000000" cx="500.4205" cy="-455.3169" rx="3.2" ry="3.2"/>
</g>
<!-- cds_portfolios -->
<g id="node5" class="node">
<title>cds_portfolios</title>
<g id="a_node5"><a xlink:href="../../tables/cds_portfolios.html" xlink:title="cds_portfolios" target="_top">
<polygon fill="#ffffff" stroke="transparent" points="8,-241.7 8,-324.7 141,-324.7 141,-241.7 8,-241.7"/>
<polygon fill="#f5f5f5" stroke="transparent" points="8.5,-301.2 8.5,-324.2 141.5,-324.2 141.5,-301.2 8.5,-301.2"/>
<polygon fill="none" stroke="#000000" points="8.5,-301.2 8.5,-324.2 141.5,-324.2 141.5,-301.2 8.5,-301.2"/>
<text text-anchor="start" x="13.5" y="-309.8" font-family="Helvetica,sans-Serif" font-weight="bold" font-size="11.00" fill="#000000">cds_portfolios</text>
<text text-anchor="start" x="107.0219" y="-309.3" font-family="Helvetica,sans-Serif" font-size="11.00" fill="#000000">[table]</text>
<polygon fill="none" stroke="#000000" points="8.5,-279.2 8.5,-301.2 141.5,-301.2 141.5,-279.2 8.5,-279.2"/>
<image xlink:href="../../images/primaryKeys.png" width="11px" height="12px" preserveAspectRatio="xMinYMin meet" x="13.5" y="-296.2"/>
<text text-anchor="start" x="37.5" y="-286.3" font-family="Helvetica,sans-Serif" font-size="11.00" fill="#000000">id</text>
<polygon fill="none" stroke="#000000" points="8.5,-260.2 8.5,-279.2 141.5,-279.2 141.5,-260.2 8.5,-260.2"/>
<text text-anchor="start" x="11.5" y="-266.3" font-family="Helvetica,sans-Serif" font-size="11.00" fill="#000000">...</text>
<polygon fill="#ffffff" stroke="transparent" points="8.5,-241.2 8.5,-260.2 64.5,-260.2 64.5,-241.2 8.5,-241.2"/>
<polygon fill="none" stroke="#000000" points="8.5,-241.2 8.5,-260.2 64.5,-260.2 64.5,-241.2 8.5,-241.2"/>
<text text-anchor="start" x="11.5" y="-247.3" font-family="Helvetica,sans-Serif" font-size="11.00" fill="#000000"> &#160;</text>
<polygon fill="#ffffff" stroke="transparent" points="64.5,-241.2 64.5,-260.2 98.5,-260.2 98.5,-241.2 64.5,-241.2"/>
<polygon fill="none" stroke="#000000" points="64.5,-241.2 64.5,-260.2 98.5,-260.2 98.5,-241.2 64.5,-241.2"/>
<text text-anchor="start" x="89.3862" y="-247.3" font-family="Helvetica,sans-Serif" font-size="11.00" fill="#000000"> &#160;</text>
<polygon fill="#ffffff" stroke="transparent" points="98.5,-241.2 98.5,-260.2 141.5,-260.2 141.5,-241.2 98.5,-241.2"/>
<polygon fill="none" stroke="#000000" points="98.5,-241.2 98.5,-260.2 141.5,-260.2 141.5,-241.2 98.5,-241.2"/>
<text text-anchor="start" x="122.9053" y="-247.3" font-family="Helvetica,sans-Serif" font-size="11.00" fill="#000000">5 &gt;</text>
</a>
</g>
</g>
<!-- simulation_runs&#45;&gt;cds_portfolios -->
<g id="edge4" class="edge">
<title>simulation_runs:w&#45;&gt;cds_portfolios:e</title>
<path fill="none" stroke="#000000" d="M177.776,-290.2C165.7815,-290.2 158.3229,-290.2 141.5,-290.2"/>
<polygon fill="#000000" stroke="#000000" points="184.5,-290.2001 192.5,-293.8 188.5,-290.2 192.5,-290.2 192.5,-290.2 192.5,-290.2 188.5,-290.2 192.5,-286.6 184.5,-290.2001 184.5,-290.2001"/>
<ellipse fill="none" stroke="#000000" cx="181.3" cy="-290.2001" rx="3.2" ry="3.2"/>
</g>
<!-- simulation_contributors -->
<g id="node3" class="node">
<title>simulation_contributors</title>
<g id="a_node3"><a xlink:href="../../tables/simulation_contributors.html" xlink:title="simulation_contributors" target="_top">
<polygon fill="#ffffff" stroke="transparent" points="486,-241.7 486,-368.7 685,-368.7 685,-241.7 486,-241.7"/>
<polygon fill="#f5f5f5" stroke="transparent" points="486.5,-345.2 486.5,-368.2 685.5,-368.2 685.5,-345.2 486.5,-345.2"/>
<polygon fill="none" stroke="#000000" points="486.5,-345.2 486.5,-368.2 685.5,-368.2 685.5,-345.2 486.5,-345.2"/>
<text text-anchor="start" x="491.5" y="-353.8" font-family="Helvetica,sans-Serif" font-weight="bold" font-size="11.00" fill="#000000">simulation_contributors</text>
<text text-anchor="start" x="651.0219" y="-353.3" font-family="Helvetica,sans-Serif" font-size="11.00" fill="#000000">[table]</text>
<polygon fill="none" stroke="#000000" points="486.5,-323.2 486.5,-345.2 685.5,-345.2 685.5,-323.2 486.5,-323.2"/>
<image xlink:href="../../images/primaryKeys.png" width="11px" height="12px" preserveAspectRatio="xMinYMin meet" x="491.5" y="-340.2"/>
<text text-anchor="start" x="515.5" y="-330.3" font-family="Helvetica,sans-Serif" font-size="11.00" fill="#000000">id</text>
<polygon fill="#ffffff" stroke="transparent" points="486.5,-301.2 486.5,-323.2 685.5,-323.2 685.5,-301.2 486.5,-301.2"/>
<polygon fill="none" stroke="#000000" points="486.5,-301.2 486.5,-323.2 685.5,-323.2 685.5,-301.2 486.5,-301.2"/>
<image xlink:href="../../images/foreignKeys.png" width="11px" height="12px" preserveAspectRatio="xMinYMin meet" x="491.5" y="-318.2"/>
<text text-anchor="start" x="515.5" y="-308.3" font-family="Helvetica,sans-Serif" font-size="11.00" fill="#000000">run_id</text>
<polygon fill="#ffffff" stroke="transparent" points="486.5,-279.2 486.5,-301.2 685.5,-301.2 685.5,-279.2 486.5,-279.2"/>
<polygon fill="none" stroke="#000000" points="486.5,-279.2 486.5,-301.2 685.5,-301.2 685.5,-279.2 486.5,-279.2"/>
<text text-anchor="start" x="515.5" y="-286.3" font-family="Helvetica,sans-Serif" font-size="11.00" fill="#000000">entity_name</text>
<polygon fill="none" stroke="#000000" points="486.5,-260.2 486.5,-279.2 685.5,-279.2 685.5,-260.2 486.5,-260.2"/>
<text text-anchor="start" x="489.5" y="-266.3" font-family="Helvetica,sans-Serif" font-size="11.00" fill="#000000">...</text>
<polygon fill="#ffffff" stroke="transparent" points="486.5,-241.2 486.5,-260.2 584.5,-260.2 584.5,-241.2 486.5,-241.2"/>
<polygon fill="none" stroke="#000000" points="486.5,-241.2 486.5,-260.2 584.5,-260.2 584.5,-241.2 486.5,-241.2"/>
<text text-anchor="start" x="489.5" y="-247.3" font-family="Helvetica,sans-Serif" font-size="11.00" fill="#000000">&lt; 1</text>
<polygon fill="#ffffff" stroke="transparent" points="584.5,-241.2 584.5,-260.2 634.5,-260.2 634.5,-241.2 584.5,-241.2"/>
<polygon fill="none" stroke="#000000" points="584.5,-241.2 584.5,-260.2 634.5,-260.2 634.5,-241.2 584.5,-241.2"/>
<text text-anchor="start" x="625.3862" y="-247.3" font-family="Helvetica,sans-Serif" font-size="11.00" fill="#000000"> &#160;</text>
<polygon fill="#ffffff" stroke="transparent" points="634.5,-241.2 634.5,-260.2 685.5,-260.2 685.5,-241.2 634.5,-241.2"/>
<polygon fill="none" stroke="#000000" points="634.5,-241.2 634.5,-260.2 685.5,-260.2 685.5,-241.2 634.5,-241.2"/>
<text text-anchor="start" x="676.3862" y="-247.3" font-family="Helvetica,sans-Serif" font-size="11.00" fill="#000000"> &#160;</text>
</a>
</g>
</g>
<!-- simulation_contributors&#45;&gt;simulation_runs -->
<g id="edge2" class="edge">
<title>simulation_contributors:w&#45;&gt;simulation_runs:e</title>
<path fill="none" stroke="#000000" d="M471.6849,-312.2C454.7898,-312.2 445.8125,-312.2 423.5,-312.2"/>
<polygon fill="#000000" stroke="#000000" points="478.5,-312.2001 486.5,-315.8 482.5,-312.2 486.5,-312.2 486.5,-312.2 486.5,-312.2 482.5,-312.2 486.5,-308.6 478.5,-312.2001 478.5,-312.2001"/>
<ellipse fill="none" stroke="#000000" cx="475.3" cy="-312.2001" rx="3.2" ry="3.2"/>
</g>
<!-- simulation_horizon_metrics -->
<g id="node4" class="node">
<title>simulation_horizon_metrics</title>
<g id="a_node4"><a xlink:href="../../tables/simulation_horizon_metrics.html" xlink:title="simulation_horizon_metrics" target="_top">
<polygon fill="#ffffff" stroke="transparent" points="474,-93.7 474,-220.7 697,-220.7 697,-93.7 474,-93.7"/>
<polygon fill="#f5f5f5" stroke="transparent" points="474.5,-197.2 474.5,-220.2 697.5,-220.2 697.5,-197.2 474.5,-197.2"/>
<polygon fill="none" stroke="#000000" points="474.5,-197.2 474.5,-220.2 697.5,-220.2 697.5,-197.2 474.5,-197.2"/>
<text text-anchor="start" x="479.5" y="-205.8" font-family="Helvetica,sans-Serif" font-weight="bold" font-size="11.00" fill="#000000">simulation_horizon_metrics</text>
<text text-anchor="start" x="663.0219" y="-205.3" font-family="Helvetica,sans-Serif" font-size="11.00" fill="#000000">[table]</text>
<polygon fill="none" stroke="#000000" points="474.5,-175.2 474.5,-197.2 697.5,-197.2 697.5,-175.2 474.5,-175.2"/>
<image xlink:href="../../images/primaryKeys.png" width="11px" height="12px" preserveAspectRatio="xMinYMin meet" x="479.5" y="-192.2"/>
<text text-anchor="start" x="503.5" y="-182.3" font-family="Helvetica,sans-Serif" font-size="11.00" fill="#000000">id</text>
<polygon fill="#ffffff" stroke="transparent" points="474.5,-153.2 474.5,-175.2 697.5,-175.2 697.5,-153.2 474.5,-153.2"/>
<polygon fill="none" stroke="#000000" points="474.5,-153.2 474.5,-175.2 697.5,-175.2 697.5,-153.2 474.5,-153.2"/>
<image xlink:href="../../images/foreignKeys.png" width="11px" height="12px" preserveAspectRatio="xMinYMin meet" x="479.5" y="-170.2"/>
<text text-anchor="start" x="503.5" y="-160.3" font-family="Helvetica,sans-Serif" font-size="11.00" fill="#000000">run_id</text>
<polygon fill="#ffffff" stroke="transparent" points="474.5,-131.2 474.5,-153.2 697.5,-153.2 697.5,-131.2 474.5,-131.2"/>
<polygon fill="none" stroke="#000000" points="474.5,-131.2 474.5,-153.2 697.5,-153.2 697.5,-131.2 474.5,-131.2"/>
<text text-anchor="start" x="503.5" y="-138.3" font-family="Helvetica,sans-Serif" font-size="11.00" fill="#000000">tenor</text>
<polygon fill="none" stroke="#000000" points="474.5,-112.2 474.5,-131.2 697.5,-131.2 697.5,-112.2 474.5,-112.2"/>
<text text-anchor="start" x="477.5" y="-118.3" font-family="Helvetica,sans-Serif" font-size="11.00" fill="#000000">...</text>
<polygon fill="#ffffff" stroke="transparent" points="474.5,-93.2 474.5,-112.2 584.5,-112.2 584.5,-93.2 474.5,-93.2"/>
<polygon fill="none" stroke="#000000" points="474.5,-93.2 474.5,-112.2 584.5,-112.2 584.5,-93.2 474.5,-93.2"/>
<text text-anchor="start" x="477.5" y="-99.3" font-family="Helvetica,sans-Serif" font-size="11.00" fill="#000000">&lt; 1</text>
<polygon fill="#ffffff" stroke="transparent" points="584.5,-93.2 584.5,-112.2 640.5,-112.2 640.5,-93.2 584.5,-93.2"/>
<polygon fill="none" stroke="#000000" points="584.5,-93.2 584.5,-112.2 640.5,-112.2 640.5,-93.2 584.5,-93.2"/>
<text text-anchor="start" x="631.3862" y="-99.3" font-family="Helvetica,sans-Serif" font-size="11.00" fill="#000000"> &#160;</text>
<polygon fill="#ffffff" stroke="transparent" points="640.5,-93.2 640.5,-112.2 697.5,-112.2 697.5,-93.2 640.5,-93.2"/>
<polygon fill="none" stroke="#000000" points="640.5,-93.2 640.5,-112.2 697.5,-112.2 697.5,-93.2 640.5,-93.2"/>
<text text-anchor="start" x="688.3862" y="-99.3" font-family="Helvetica,sans-Serif" font-size="11.00" fill="#000000"> &#160;</text>
</a>
</g>
</g>
<!-- simulation_horizon_metrics&#45;&gt;simulation_runs -->
<g id="edge3" class="edge">
<title>simulation_horizon_metrics:w&#45;&gt;simulation_runs:e</title>
<path fill="none" stroke="#000000" d="M460.1212,-167.1564C418.6199,-188.0155 487.2306,-312.2 423.5,-312.2"/>
<polygon fill="#000000" stroke="#000000" points="466.6639,-165.8112 475.225,-167.7262 470.582,-165.0056 474.5,-164.2 474.5,-164.2 474.5,-164.2 470.582,-165.0056 473.775,-160.6738 466.6639,-165.8112 466.6639,-165.8112"/>
<ellipse fill="none" stroke="#000000" cx="463.5295" cy="-166.4557" rx="3.2" ry="3.2"/>
</g>
</g>
</svg>
