<?xml version="1.0" encoding="UTF-8" standalone="no"?>
<!DOCTYPE svg PUBLIC "-//W3C//DTD SVG 1.1//EN"
 "http://www.w3.org/Graphics/SVG/1.1/DTD/svg11.dtd">
<!-- Generated by graphviz version 2.40.1 (20161225.0304)
 -->
<!-- Title: oneDegreeRelationshipsDiagram Pages: 1 -->
<svg width="500pt" height="360pt"
 viewBox="0.00 0.00 500.00 360.20" xmlns="http://www.w3.org/2000/svg" xmlns:xlink="http://www.w3.org/1999/xlink">
<g id="graph0" class="graph" transform="scale(1 1) rotate(0) translate(4 356.2)">
<title>oneDegreeRelationshipsDiagram</title>
<polygon fill="#ffffff" stroke="transparent" points="-4,4 -4,-356.2 496,-356.2 496,4 -4,4"/>
<text text-anchor="middle" x="72.4936" y="-7.3" font-family="Helvetica,sans-Serif" font-size="11.00" fill="#000000">Generated by SchemaSpy</text>
<!-- simulation_horizon_metrics -->
<g id="node1" class="node">
<title>simulation_horizon_metrics</title>
<g id="a_node1"><a xlink:href="../../tables/simulation_horizon_metrics.html" xlink:title="simulation_horizon_metrics" target="_top">
<polygon fill="#ffffff" stroke="transparent" points="203,-38.2 203,-348.2 484,-348.2 484,-38.2 203,-38.2"/>
<polygon fill="#f5f5f5" stroke="transparent" points="205.5,-323.2 205.5,-346.2 482.5,-346.2 482.5,-323.2 205.5,-323.2"/>
<polygon fill="none" stroke="#000000" points="205.5,-323.2 205.5,-346.2 482.5,-346.2 482.5,-323.2 205.5,-323.2"/>
<text text-anchor="start" x="210.5" y="-331.8" font-family="Helvetica,sans-Serif" font-weight="bold" font-size="11.00" fill="#000000">simulation_horizon_metrics</text>
<text text-anchor="start" x="447.5437" y="-331.3" font-family="Helvetica,sans-Serif" font-size="11.00" fill="#000000">[table]</text>
<polygon fill="none" stroke="#000000" points="205.5,-301.2 205.5,-323.2 410.5,-323.2 410.5,-301.2 205.5,-301.2"/>
<image xlink:href="../../images/primaryKeys.png" width="11px" height="12px" preserveAspectRatio="xMinYMin meet" x="210.5" y="-318.2"/>
<text text-anchor="start" x="225.5" y="-308.3" font-family="Helvetica,sans-Serif" font-size="11.00" fill="#000000">id</text>
<polygon fill="none" stroke="#000000" points="410.5,-301.2 410.5,-323.2 482.5,-323.2 482.5,-301.2 410.5,-301.2"/>
<text text-anchor="start" x="413.5" y="-308.9" font-family="Helvetica,sans-Serif" font-size="11.00" fill="#000000">bigserial[19]</text>
<polygon fill="#ffffff" stroke="transparent" points="205.5,-279.2 205.5,-301.2 410.5,-301.2 410.5,-279.2 205.5,-279.2"/>
<polygon fill="none" stroke="#000000" points="205.5,-279.2 205.5,-301.2 410.5,-301.2 410.5,-279.2 205.5,-279.2"/>
<image xlink:href="../../images/foreignKeys.png" width="11px" height="12px" preserveAspectRatio="xMinYMin meet" x="210.5" y="-296.2"/>
<text text-anchor="start" x="225.5" y="-286.3" font-family="Helvetica,sans-Serif" font-size="11.00" fill="#000000">run_id</text>
<polygon fill="none" stroke="#000000" points="410.5,-279.2 410.5,-301.2 482.5,-301.2 482.5,-279.2 410.5,-279.2"/>
<text text-anchor="start" x="413.5" y="-286.9" font-family="Helvetica,sans-Serif" font-size="11.00" fill="#000000">varchar[50]</text>
<polygon fill="#ffffff" stroke="transparent" points="205.5,-257.2 205.5,-279.2 410.5,-279.2 410.5,-257.2 205.5,-257.2"/>
<polygon fill="none" stroke="#000000" points="205.5,-257.2 205.5,-279.2 410.5,-279.2 410.5,-257.2 205.5,-257.2"/>
<text text-anchor="start" x="225.5" y="-264.3" font-family="Helvetica,sans-Serif" font-size="11.00" fill="#000000">tenor</text>
<polygon fill="none" stroke="#000000" points="410.5,-257.2 410.5,-279.2 482.5,-279.2 482.5,-257.2 410.5,-257.2"/>
<text text-anchor="start" x="413.5" y="-264.9" font-family="Helvetica,sans-Serif" font-size="11.00" fill="#000000">varchar[10]</text>
<polygon fill="none" stroke="#000000" points="205.5,-235.2 205.5,-257.2 410.5,-257.2 410.5,-235.2 205.5,-235.2"/>
<text text-anchor="start" x="225.5" y="-242.3" font-family="Helvetica,sans-Serif" font-size="11.00" fill="#000000">p_any_default</text>
<polygon fill="none" stroke="#000000" points="410.5,-235.2 410.5,-257.2 482.5,-257.2 482.5,-235.2 410.5,-235.2"/>
<text text-anchor="start" x="413.1876" y="-242.9" font-family="Helvetica,sans-Serif" font-size="11.00" fill="#000000">numeric[10,6]</text>
<polygon fill="none" stroke="#000000" points="205.5,-213.2 205.5,-235.2 410.5,-235.2 410.5,-213.2 205.5,-213.2"/>
<text text-anchor="start" x="225.5" y="-220.3" font-family="Helvetica,sans-Serif" font-size="11.00" fill="#000000">expected_defaults</text>
<polygon fill="none" stroke="#000000" points="410.5,-213.2 410.5,-235.2 482.5,-235.2 482.5,-213.2 410.5,-213.2"/>
<text text-anchor="start" x="413.1876" y="-220.9" font-family="Helvetica,sans-Serif" font-size="11.00" fill="#000000">numeric[10,4]</text>
<polygon fill="none" stroke="#000000" points="205.5,-191.2 205.5,-213.2 410.5,-213.2 410.5,-191.2 205.5,-191.2"/>
<text text-anchor="start" x="225.5" y="-198.3" font-family="Helvetica,sans-Serif" font-size="11.00" fill="#000000">loss_mean</text>
<polygon fill="none" stroke="#000000" points="410.5,-191.2 410.5,-213.2 482.5,-213.2 482.5,-191.2 410.5,-191.2"/>
<text text-anchor="start" x="413.1876" y="-198.9" font-family="Helvetica,sans-Serif" font-size="11.00" fill="#000000">numeric[18,4]</text>
<polygon fill="none" stroke="#000000" points="205.5,-169.2 205.5,-191.2 410.5,-191.2 410.5,-169.2 205.5,-169.2"/>
<text text-anchor="start" x="225.5" y="-176.3" font-family="Helvetica,sans-Serif" font-size="11.00" fill="#000000">loss_var95</text>
<polygon fill="none" stroke="#000000" points="410.5,-169.2 410.5,-191.2 482.5,-191.2 482.5,-169.2 410.5,-169.2"/>
<text text-anchor="start" x="413.1876" y="-176.9" font-family="Helvetica,sans-Serif" font-size="11.00" fill="#000000">numeric[18,4]</text>
<polygon fill="none" stroke="#000000" points="205.5,-147.2 205.5,-169.2 410.5,-169.2 410.5,-147.2 205.5,-147.2"/>
<text text-anchor="start" x="225.5" y="-154.3" font-family="Helvetica,sans-Serif" font-size="11.00" fill="#000000">loss_var99</text>
<polygon fill="none" stroke="#000000" points="410.5,-147.2 410.5,-169.2 482.5,-169.2 482.5,-147.2 410.5,-147.2"/>
<text text-anchor="start" x="413.1876" y="-154.9" font-family="Helvetica,sans-Serif" font-size="11.00" fill="#000000">numeric[18,4]</text>
<polygon fill="none" stroke="#000000" points="205.5,-125.2 205.5,-147.2 410.5,-147.2 410.5,-125.2 205.5,-125.2"/>
<text text-anchor="start" x="225.5" y="-132.3" font-family="Helvetica,sans-Serif" font-size="11.00" fill="#000000">loss_es97_5</text>
<polygon fill="none" stroke="#000000" points="410.5,-125.2 410.5,-147.2 482.5,-147.2 482.5,-125.2 410.5,-125.2"/>
<text text-anchor="start" x="413.1876" y="-132.9" font-family="Helvetica,sans-Serif" font-size="11.00" fill="#000000">numeric[18,4]</text>
<polygon fill="none" stroke="#000000" points="205.5,-103.2 205.5,-125.2 410.5,-125.2 410.5,-103.2 205.5,-103.2"/>
<text text-anchor="start" x="225.5" y="-110.3" font-family="Helvetica,sans-Serif" font-size="11.00" fill="#000000">sum_standalone_el</text>
<polygon fill="none" stroke="#000000" points="410.5,-103.2 410.5,-125.2 482.5,-125.2 482.5,-103.2 410.5,-103.2"/>
<text text-anchor="start" x="413.1876" y="-110.9" font-family="Helvetica,sans-Serif" font-size="11.00" fill="#000000">numeric[18,4]</text>
<polygon fill="none" stroke="#000000" points="205.5,-81.2 205.5,-103.2 410.5,-103.2 410.5,-81.2 205.5,-81.2"/>
<text text-anchor="start" x="225.5" y="-88.3" font-family="Helvetica,sans-Serif" font-size="11.00" fill="#000000">portfolio_el</text>
<polygon fill="none" stroke="#000000" points="410.5,-81.2 410.5,-103.2 482.5,-103.2 482.5,-81.2 410.5,-81.2"/>
<text text-anchor="start" x="413.1876" y="-88.9" font-family="Helvetica,sans-Serif" font-size="11.00" fill="#000000">numeric[18,4]</text>
<polygon fill="none" stroke="#000000" points="205.5,-59.2 205.5,-81.2 410.5,-81.2 410.5,-59.2 205.5,-59.2"/>
<text text-anchor="start" x="225.5" y="-66.3" font-family="Helvetica,sans-Serif" font-size="11.00" fill="#000000">diversification_benefit_pct</text>
<polygon fill="none" stroke="#000000" points="410.5,-59.2 410.5,-81.2 482.5,-81.2 482.5,-59.2 410.5,-59.2"/>
<text text-anchor="start" x="413.1876" y="-66.9" font-family="Helvetica,sans-Serif" font-size="11.00" fill="#000000">numeric[10,4]</text>
<polygon fill="#ffffff" stroke="transparent" points="205.5,-40.2 205.5,-59.2 312.5,-59.2 312.5,-40.2 205.5,-40.2"/>
<polygon fill="none" stroke="#000000" points="205.5,-40.2 205.5,-59.2 312.5,-59.2 312.5,-40.2 205.5,-40.2"/>
<text text-anchor="start" x="208.5" y="-46.3" font-family="Helvetica,sans-Serif" font-size="11.00" fill="#000000">&lt; 1</text>
<polygon fill="#ffffff" stroke="transparent" points="312.5,-40.2 312.5,-59.2 410.5,-59.2 410.5,-40.2 312.5,-40.2"/>
<polygon fill="none" stroke="#000000" points="312.5,-40.2 312.5,-59.2 410.5,-59.2 410.5,-40.2 312.5,-40.2"/>
<text text-anchor="start" x="401.3862" y="-46.3" font-family="Helvetica,sans-Serif" font-size="11.00" fill="#000000"> &#160;</text>
<polygon fill="#ffffff" stroke="transparent" points="410.5,-40.2 410.5,-59.2 482.5,-59.2 482.5,-40.2 410.5,-40.2"/>
<polygon fill="none" stroke="#000000" points="410.5,-40.2 410.5,-59.2 482.5,-59.2 482.5,-40.2 410.5,-40.2"/>
<text text-anchor="start" x="463.9053" y="-46.3" font-family="Helvetica,sans-Serif" font-size="11.00" fill="#000000">0 &gt;</text>
<polygon fill="none" stroke="#000000" stroke-width="2" points="204,-39.2 204,-347.2 483,-347.2 483,-39.2 204,-39.2"/>
</a>
</g>
</g>
<!-- simulation_runs -->
<g id="node2" class="node">
<title>simulation_runs</title>
<g id="a_node2"><a xlink:href="../../tables/simulation_runs.html" xlink:title="simulation_runs" target="_top">
<polygon fill="#ffffff" stroke="transparent" points="8,-175.7 8,-346.7 154,-346.7 154,-175.7 8,-175.7"/>
<polygon fill="#f5f5f5" stroke="transparent" points="8,-323.2 8,-346.2 154,-346.2 154,-323.2 8,-323.2"/>
<polygon fill="none" stroke="#000000" points="8,-323.2 8,-346.2 154,-346.2 154,-323.2 8,-323.2"/>
<text text-anchor="start" x="13" y="-331.8" font-family="Helvetica,sans-Serif" font-weight="bold" font-size="11.00" fill="#000000">simulation_runs</text>
<text text-anchor="start" x="119.5219" y="-331.3" font-family="Helvetica,sans-Serif" font-size="11.00" fill="#000000">[table]</text>
<polygon fill="none" stroke="#000000" points="8,-301.2 8,-323.2 154,-323.2 154,-301.2 8,-301.2"/>
<image xlink:href="../../images/primaryKeys.png" width="11px" height="12px" preserveAspectRatio="xMinYMin meet" x="13" y="-318.2"/>
<text text-anchor="start" x="35" y="-308.3" font-family="Helvetica,sans-Serif" font-size="11.00" fill="#000000">id</text>
<polygon fill="#ffffff" stroke="transparent" points="8,-279.2 8,-301.2 154,-301.2 154,-279.2 8,-279.2"/>
<polygon fill="none" stroke="#000000" points="8,-279.2 8,-301.2 154,-301.2 154,-279.2 8,-279.2"/>
<text text-anchor="start" x="35" y="-286.3" font-family="Helvetica,sans-Serif" font-size="11.00" fill="#000000">run_id</text>
<polygon fill="#ffffff" stroke="transparent" points="8,-257.2 8,-279.2 154,-279.2 154,-257.2 8,-257.2"/>
<polygon fill="none" stroke="#000000" points="8,-257.2 8,-279.2 154,-279.2 154,-257.2 8,-257.2"/>
<image xlink:href="../../images/foreignKeys.png" width="11px" height="12px" preserveAspectRatio="xMinYMin meet" x="13" y="-274.2"/>
<text text-anchor="start" x="35" y="-264.3" font-family="Helvetica,sans-Serif" font-size="11.00" fill="#000000">portfolio_id</text>
<polygon fill="#ffffff" stroke="transparent" points="8,-235.2 8,-257.2 154,-257.2 154,-235.2 8,-235.2"/>
<polygon fill="none" stroke="#000000" points="8,-235.2 8,-257.2 154,-257.2 154,-235.2 8,-235.2"/>
<text text-anchor="start" x="35" y="-242.3" font-family="Helvetica,sans-Serif" font-size="11.00" fill="#000000">status</text>
<polygon fill="#ffffff" stroke="transparent" points="8,-213.2 8,-235.2 154,-235.2 154,-213.2 8,-213.2"/>
<polygon fill="none" stroke="#000000" points="8,-213.2 8,-235.2 154,-235.2 154,-213.2 8,-213.2"/>
<text text-anchor="start" x="35" y="-220.3" font-family="Helvetica,sans-Serif" font-size="11.00" fill="#000000">created_at</text>
<polygon fill="none" stroke="#000000" points="8,-194.2 8,-213.2 154,-213.2 154,-194.2 8,-194.2"/>
<text text-anchor="start" x="11" y="-200.3" font-family="Helvetica,sans-Serif" font-size="11.00" fill="#000000">...</text>
<polygon fill="#ffffff" stroke="transparent" points="8,-175.2 8,-194.2 75,-194.2 75,-175.2 8,-175.2"/>
<polygon fill="none" stroke="#000000" points="8,-175.2 8,-194.2 75,-194.2 75,-175.2 8,-175.2"/>
<text text-anchor="start" x="11" y="-181.3" font-family="Helvetica,sans-Serif" font-size="11.00" fill="#000000">&lt; 1</text>
<polygon fill="#ffffff" stroke="transparent" points="75,-175.2 75,-194.2 110,-194.2 110,-175.2 75,-175.2"/>
<polygon fill="none" stroke="#000000" points="75,-175.2 75,-194.2 110,-194.2 110,-175.2 75,-175.2"/>
<text text-anchor="start" x="100.8862" y="-181.3" font-family="Helvetica,sans-Serif" font-size="11.00" fill="#000000"> &#160;</text>
<polygon fill="#ffffff" stroke="transparent" points="110,-175.2 110,-194.2 154,-194.2 154,-175.2 110,-175.2"/>
<polygon fill="none" stroke="#000000" points="110,-175.2 110,-194.2 154,-194.2 154,-175.2 110,-175.2"/>
<text text-anchor="start" x="135.4053" y="-181.3" font-family="Helvetica,sans-Serif" font-size="11.00" fill="#000000">3 &gt;</text>
</a>
</g>
</g>
<!-- simulation_horizon_metrics&#45;&gt;simulation_runs -->
<g id="edge1" class="edge">
<title>simulation_horizon_metrics:w&#45;&gt;simulation_runs:e</title>
<path fill="none" stroke="#000000" d="M191.0156,-290.2C178.6771,-290.2 171.1667,-290.2 154,-290.2"/>
<polygon fill="#000000" stroke="#000000" points="197.5,-290.2001 205.5,-293.8 201.5,-290.2 205.5,-290.2 205.5,-290.2 205.5,-290.2 201.5,-290.2 205.5,-286.6 197.5,-290.2001 197.5,-290.2001"/>
<ellipse fill="none" stroke="#000000" cx="194.3" cy="-290.2001" rx="3.2" ry="3.2"/>
</g>
</g>
</svg>
