<?xml version="1.0" encoding="UTF-8" standalone="no"?>
<!DOCTYPE svg PUBLIC "-//W3C//DTD SVG 1.1//EN"
 "http://www.w3.org/Graphics/SVG/1.1/DTD/svg11.dtd">
<!-- Generated by graphviz version 2.40.1 (20161225.0304)
 -->
<!-- Title: oneDegreeRelationshipsDiagram Pages: 1 -->
<svg width="535pt" height="311pt"
 viewBox="0.00 0.00 535.00 310.70" xmlns="http://www.w3.org/2000/svg" xmlns:xlink="http://www.w3.org/1999/xlink">
<g id="graph0" class="graph" transform="scale(1 1) rotate(0) translate(4 306.7)">
<title>oneDegreeRelationshipsDiagram</title>
<polygon fill="#ffffff" stroke="transparent" points="-4,4 -4,-306.7 531,-306.7 531,4 -4,4"/>
<text text-anchor="middle" x="72.4936" y="-7.3" font-family="Helvetica,sans-Serif" font-size="11.00" fill="#000000">Generated by SchemaSpy</text>
<!-- statement_processing_log -->
<g id="node1" class="node">
<title>statement_processing_log</title>
<g id="a_node1"><a xlink:href="../../tables/statement_processing_log.html" xlink:title="statement_processing_log" target="_top">
<polygon fill="#ffffff" stroke="transparent" points="226,-98.7 226,-298.7 519,-298.7 519,-98.7 226,-98.7"/>
<polygon fill="#f5f5f5" stroke="transparent" points="228.5,-273.7 228.5,-296.7 517.5,-296.7 517.5,-273.7 228.5,-273.7"/>
<polygon fill="none" stroke="#000000" points="228.5,-273.7 228.5,-296.7 517.5,-296.7 517.5,-273.7 228.5,-273.7"/>
<text text-anchor="start" x="233.5" y="-282.3" font-family="Helvetica,sans-Serif" font-weight="bold" font-size="11.00" fill="#000000">statement_processing_log</text>
<text text-anchor="start" x="482.5437" y="-281.8" font-family="Helvetica,sans-Serif" font-size="11.00" fill="#000000">[table]</text>
<polygon fill="none" stroke="#000000" points="228.5,-251.7 228.5,-273.7 425.5,-273.7 425.5,-251.7 228.5,-251.7"/>
<image xlink:href="../../images/primaryKeys.png" width="11px" height="12px" preserveAspectRatio="xMinYMin meet" x="233.5" y="-268.7"/>
<text text-anchor="start" x="248.5" y="-258.8" font-family="Helvetica,sans-Serif" font-size="11.00" fill="#000000">id</text>
<polygon fill="none" stroke="#000000" points="425.5,-251.7 425.5,-273.7 517.5,-273.7 517.5,-251.7 425.5,-251.7"/>
<text text-anchor="start" x="428.5" y="-259.4" font-family="Helvetica,sans-Serif" font-size="11.00" fill="#000000">bigserial[19]</text>
<polygon fill="#ffffff" stroke="transparent" points="228.5,-229.7 228.5,-251.7 425.5,-251.7 425.5,-229.7 228.5,-229.7"/>
<polygon fill="none" stroke="#000000" points="228.5,-229.7 228.5,-251.7 425.5,-251.7 425.5,-229.7 228.5,-229.7"/>
<image xlink:href="../../images/foreignKeys.png" width="11px" height="12px" preserveAspectRatio="xMinYMin meet" x="233.5" y="-246.7"/>
<text text-anchor="start" x="248.5" y="-236.8" font-family="Helvetica,sans-Serif" font-size="11.00" fill="#000000">statement_id</text>
<polygon fill="none" stroke="#000000" points="425.5,-229.7 425.5,-251.7 517.5,-251.7 517.5,-229.7 425.5,-229.7"/>
<text text-anchor="start" x="428.5" y="-237.4" font-family="Helvetica,sans-Serif" font-size="11.00" fill="#000000">int8[19]</text>
<polygon fill="#ffffff" stroke="transparent" points="228.5,-207.7 228.5,-229.7 425.5,-229.7 425.5,-207.7 228.5,-207.7"/>
<polygon fill="none" stroke="#000000" points="228.5,-207.7 228.5,-229.7 425.5,-229.7 425.5,-207.7 228.5,-207.7"/>
<text text-anchor="start" x="248.5" y="-214.8" font-family="Helvetica,sans-Serif" font-size="11.00" fill="#000000">processing_step</text>
<polygon fill="none" stroke="#000000" points="425.5,-207.7 425.5,-229.7 517.5,-229.7 517.5,-207.7 425.5,-207.7"/>
<text text-anchor="start" x="428.5" y="-215.4" font-family="Helvetica,sans-Serif" font-size="11.00" fill="#000000">varchar[100]</text>
<polygon fill="#ffffff" stroke="transparent" points="228.5,-185.7 228.5,-207.7 425.5,-207.7 425.5,-185.7 228.5,-185.7"/>
<polygon fill="none" stroke="#000000" points="228.5,-185.7 228.5,-207.7 425.5,-207.7 425.5,-185.7 228.5,-185.7"/>
<text text-anchor="start" x="248.5" y="-192.8" font-family="Helvetica,sans-Serif" font-size="11.00" fill="#000000">status</text>
<polygon fill="none" stroke="#000000" points="425.5,-185.7 425.5,-207.7 517.5,-207.7 517.5,-185.7 425.5,-185.7"/>
<text text-anchor="start" x="428.5" y="-193.4" font-family="Helvetica,sans-Serif" font-size="11.00" fill="#000000">varchar[50]</text>
<polygon fill="none" stroke="#000000" points="228.5,-163.7 228.5,-185.7 425.5,-185.7 425.5,-163.7 228.5,-163.7"/>
<text text-anchor="start" x="248.5" y="-170.8" font-family="Helvetica,sans-Serif" font-size="11.00" fill="#000000">message</text>
<polygon fill="none" stroke="#000000" points="425.5,-163.7 425.5,-185.7 517.5,-185.7 517.5,-163.7 425.5,-163.7"/>
<text text-anchor="start" x="428.5" y="-171.4" font-family="Helvetica,sans-Serif" font-size="11.00" fill="#000000">text[2147483647]</text>
<polygon fill="none" stroke="#000000" points="228.5,-141.7 228.5,-163.7 425.5,-163.7 425.5,-141.7 228.5,-141.7"/>
<text text-anchor="start" x="248.5" y="-148.8" font-family="Helvetica,sans-Serif" font-size="11.00" fill="#000000">processing_time_ms</text>
<polygon fill="none" stroke="#000000" points="425.5,-141.7 425.5,-163.7 517.5,-163.7 517.5,-141.7 425.5,-141.7"/>
<text text-anchor="start" x="428.5" y="-149.4" font-family="Helvetica,sans-Serif" font-size="11.00" fill="#000000">int4[10]</text>
<polygon fill="none" stroke="#000000" points="228.5,-119.7 228.5,-141.7 425.5,-141.7 425.5,-119.7 228.5,-119.7"/>
<text text-anchor="start" x="248.5" y="-126.8" font-family="Helvetica,sans-Serif" font-size="11.00" fill="#000000">created_at</text>
<polygon fill="none" stroke="#000000" points="425.5,-119.7 425.5,-141.7 517.5,-141.7 517.5,-119.7 425.5,-119.7"/>
<text text-anchor="start" x="428.1023" y="-127.4" font-family="Helvetica,sans-Serif" font-size="11.00" fill="#000000">timestamptz[35,6]</text>
<polygon fill="#ffffff" stroke="transparent" points="228.5,-100.7 228.5,-119.7 331.5,-119.7 331.5,-100.7 228.5,-100.7"/>
<polygon fill="none" stroke="#000000" points="228.5,-100.7 228.5,-119.7 331.5,-119.7 331.5,-100.7 228.5,-100.7"/>
<text text-anchor="start" x="231.5" y="-106.8" font-family="Helvetica,sans-Serif" font-size="11.00" fill="#000000">&lt; 1</text>
<polygon fill="#ffffff" stroke="transparent" points="331.5,-100.7 331.5,-119.7 425.5,-119.7 425.5,-100.7 331.5,-100.7"/>
<polygon fill="none" stroke="#000000" points="331.5,-100.7 331.5,-119.7 425.5,-119.7 425.5,-100.7 331.5,-100.7"/>
<text text-anchor="start" x="416.3862" y="-106.8" font-family="Helvetica,sans-Serif" font-size="11.00" fill="#000000"> &#160;</text>
<polygon fill="#ffffff" stroke="transparent" points="425.5,-100.7 425.5,-119.7 517.5,-119.7 517.5,-100.7 425.5,-100.7"/>
<polygon fill="none" stroke="#000000" points="425.5,-100.7 425.5,-119.7 517.5,-119.7 517.5,-100.7 425.5,-100.7"/>
<text text-anchor="start" x="498.9053" y="-106.8" font-family="Helvetica,sans-Serif" font-size="11.00" fill="#000000">0 &gt;</text>
<polygon fill="none" stroke="#000000" stroke-width="2" points="227,-99.7 227,-297.7 518,-297.7 518,-99.7 227,-99.7"/>
</a>
</g>
</g>
<!-- margin_statements -->
<g id="node2" class="node">
<title>margin_statements</title>
<g id="a_node2"><a xlink:href="../../tables/margin_statements.html" xlink:title="margin_statements" target="_top">
<polygon fill="#ffffff" stroke="transparent" points="8,-38.2 8,-275.2 177,-275.2 177,-38.2 8,-38.2"/>
<polygon fill="#f5f5f5" stroke="transparent" points="8.5,-251.7 8.5,-274.7 177.5,-274.7 177.5,-251.7 8.5,-251.7"/>
<polygon fill="none" stroke="#000000" points="8.5,-251.7 8.5,-274.7 177.5,-274.7 177.5,-251.7 8.5,-251.7"/>
<text text-anchor="start" x="13.5" y="-260.3" font-family="Helvetica,sans-Serif" font-weight="bold" font-size="11.00" fill="#000000">margin_statements</text>
<text text-anchor="start" x="143.0219" y="-259.8" font-family="Helvetica,sans-Serif" font-size="11.00" fill="#000000">[table]</text>
<polygon fill="none" stroke="#000000" points="8.5,-229.7 8.5,-251.7 177.5,-251.7 177.5,-229.7 8.5,-229.7"/>
<image xlink:href="../../images/primaryKeys.png" width="11px" height="12px" preserveAspectRatio="xMinYMin meet" x="13.5" y="-246.7"/>
<text text-anchor="start" x="37.5" y="-236.8" font-family="Helvetica,sans-Serif" font-size="11.00" fill="#000000">id</text>
<polygon fill="#ffffff" stroke="transparent" points="8.5,-207.7 8.5,-229.7 177.5,-229.7 177.5,-207.7 8.5,-207.7"/>
<polygon fill="none" stroke="#000000" points="8.5,-207.7 8.5,-229.7 177.5,-229.7 177.5,-207.7 8.5,-207.7"/>
<text text-anchor="start" x="37.5" y="-214.8" font-family="Helvetica,sans-Serif" font-size="11.00" fill="#000000">statement_id</text>
<polygon fill="#ffffff" stroke="transparent" points="8.5,-185.7 8.5,-207.7 177.5,-207.7 177.5,-185.7 8.5,-185.7"/>
<polygon fill="none" stroke="#000000" points="8.5,-185.7 8.5,-207.7 177.5,-207.7 177.5,-185.7 8.5,-185.7"/>
<text text-anchor="start" x="37.5" y="-192.8" font-family="Helvetica,sans-Serif" font-size="11.00" fill="#000000">ccp_name</text>
<polygon fill="#ffffff" stroke="transparent" points="8.5,-163.7 8.5,-185.7 177.5,-185.7 177.5,-163.7 8.5,-163.7"/>
<polygon fill="none" stroke="#000000" points="8.5,-163.7 8.5,-185.7 177.5,-185.7 177.5,-163.7 8.5,-163.7"/>
<text text-anchor="start" x="37.5" y="-170.8" font-family="Helvetica,sans-Serif" font-size="11.00" fill="#000000">statement_date</text>
<polygon fill="#ffffff" stroke="transparent" points="8.5,-141.7 8.5,-163.7 177.5,-163.7 177.5,-141.7 8.5,-141.7"/>
<polygon fill="none" stroke="#000000" points="8.5,-141.7 8.5,-163.7 177.5,-163.7 177.5,-141.7 8.5,-141.7"/>
<text text-anchor="start" x="37.5" y="-148.8" font-family="Helvetica,sans-Serif" font-size="11.00" fill="#000000">status</text>
<polygon fill="#ffffff" stroke="transparent" points="8.5,-119.7 8.5,-141.7 177.5,-141.7 177.5,-119.7 8.5,-119.7"/>
<polygon fill="none" stroke="#000000" points="8.5,-119.7 8.5,-141.7 177.5,-141.7 177.5,-119.7 8.5,-119.7"/>
<text text-anchor="start" x="37.5" y="-126.8" font-family="Helvetica,sans-Serif" font-size="11.00" fill="#000000">created_at</text>
<polygon fill="#ffffff" stroke="transparent" points="8.5,-97.7 8.5,-119.7 177.5,-119.7 177.5,-97.7 8.5,-97.7"/>
<polygon fill="none" stroke="#000000" points="8.5,-97.7 8.5,-119.7 177.5,-119.7 177.5,-97.7 8.5,-97.7"/>
<text text-anchor="start" x="37.5" y="-104.8" font-family="Helvetica,sans-Serif" font-size="11.00" fill="#000000">variation_margin</text>
<polygon fill="#ffffff" stroke="transparent" points="8.5,-75.7 8.5,-97.7 177.5,-97.7 177.5,-75.7 8.5,-75.7"/>
<polygon fill="none" stroke="#000000" points="8.5,-75.7 8.5,-97.7 177.5,-97.7 177.5,-75.7 8.5,-75.7"/>
<text text-anchor="start" x="37.5" y="-82.8" font-family="Helvetica,sans-Serif" font-size="11.00" fill="#000000">initial_margin</text>
<polygon fill="none" stroke="#000000" points="8.5,-56.7 8.5,-75.7 177.5,-75.7 177.5,-56.7 8.5,-56.7"/>
<text text-anchor="start" x="11.5" y="-62.8" font-family="Helvetica,sans-Serif" font-size="11.00" fill="#000000">...</text>
<polygon fill="#ffffff" stroke="transparent" points="8.5,-37.7 8.5,-56.7 82.5,-56.7 82.5,-37.7 8.5,-37.7"/>
<polygon fill="none" stroke="#000000" points="8.5,-37.7 8.5,-56.7 82.5,-56.7 82.5,-37.7 8.5,-37.7"/>
<text text-anchor="start" x="11.5" y="-43.8" font-family="Helvetica,sans-Serif" font-size="11.00" fill="#000000"> &#160;</text>
<polygon fill="#ffffff" stroke="transparent" points="82.5,-37.7 82.5,-56.7 125.5,-56.7 125.5,-37.7 82.5,-37.7"/>
<polygon fill="none" stroke="#000000" points="82.5,-37.7 82.5,-56.7 125.5,-56.7 125.5,-37.7 82.5,-37.7"/>
<text text-anchor="start" x="116.3862" y="-43.8" font-family="Helvetica,sans-Serif" font-size="11.00" fill="#000000"> &#160;</text>
<polygon fill="#ffffff" stroke="transparent" points="125.5,-37.7 125.5,-56.7 177.5,-56.7 177.5,-37.7 125.5,-37.7"/>
<polygon fill="none" stroke="#000000" points="125.5,-37.7 125.5,-56.7 177.5,-56.7 177.5,-37.7 125.5,-37.7"/>
<text text-anchor="start" x="158.9053" y="-43.8" font-family="Helvetica,sans-Serif" font-size="11.00" fill="#000000">4 &gt;</text>
</a>
</g>
</g>
<!-- statement_processing_log&#45;&gt;margin_statements -->
<g id="edge1" class="edge">
<title>statement_processing_log:w&#45;&gt;margin_statements:e</title>
<path fill="none" stroke="#000000" d="M213.776,-240.7C201.7815,-240.7 194.3229,-240.7 177.5,-240.7"/>
<polygon fill="#000000" stroke="#000000" points="220.5,-240.7001 228.5,-244.3 224.5,-240.7 228.5,-240.7 228.5,-240.7 228.5,-240.7 224.5,-240.7 228.5,-237.1 220.5,-240.7001 220.5,-240.7001"/>
<ellipse fill="none" stroke="#000000" cx="217.3" cy="-240.7001" rx="3.2" ry="3.2"/>
</g>
</g>
</svg>
