<?xml version="1.0" encoding="UTF-8" standalone="no"?>
<!DOCTYPE svg PUBLIC "-//W3C//DTD SVG 1.1//EN"
 "http://www.w3.org/Graphics/SVG/1.1/DTD/svg11.dtd">
<!-- Generated by graphviz version 2.40.1 (20161225.0304)
 -->
<!-- Title: twoDegreesRelationshipsDiagram Pages: 1 -->
<svg width="535pt" height="497pt"
 viewBox="0.00 0.00 535.00 496.70" xmlns="http://www.w3.org/2000/svg" xmlns:xlink="http://www.w3.org/1999/xlink">
<g id="graph0" class="graph" transform="scale(1 1) rotate(0) translate(4 492.7)">
<title>twoDegreesRelationshipsDiagram</title>
<polygon fill="#ffffff" stroke="transparent" points="-4,4 -4,-492.7 531,-492.7 531,4 -4,4"/>
<text text-anchor="middle" x="72.4936" y="-7.3" font-family="Helvetica,sans-Serif" font-size="11.00" fill="#000000">Generated by SchemaSpy</text>
<!-- collateral_ledger -->
<g id="node1" class="node">
<title>collateral_ledger</title>
<g id="a_node1"><a xlink:href="../../tables/collateral_ledger.html" xlink:title="collateral_ledger" target="_top">
<polygon fill="#ffffff" stroke="transparent" points="296.5,-423.7 296.5,-484.7 448.5,-484.7 448.5,-423.7 296.5,-423.7"/>
<polygon fill="#f5f5f5" stroke="transparent" points="296.5,-461.2 296.5,-484.2 448.5,-484.2 448.5,-461.2 296.5,-461.2"/>
<polygon fill="none" stroke="#000000" points="296.5,-461.2 296.5,-484.2 448.5,-484.2 448.5,-461.2 296.5,-461.2"/>
<text text-anchor="start" x="301.5" y="-469.8" font-family="Helvetica,sans-Serif" font-weight="bold" font-size="11.00" fill="#000000">collateral_ledger</text>
<text text-anchor="start" x="414.0219" y="-469.3" font-family="Helvetica,sans-Serif" font-size="11.00" fill="#000000">[table]</text>
<polygon fill="none" stroke="#000000" points="296.5,-442.2 296.5,-461.2 448.5,-461.2 448.5,-442.2 296.5,-442.2"/>
<text text-anchor="start" x="299.5" y="-448.3" font-family="Helvetica,sans-Serif" font-size="11.00" fill="#000000">...</text>
<polygon fill="#ffffff" stroke="transparent" points="296.5,-423.2 296.5,-442.2 370.5,-442.2 370.5,-423.2 296.5,-423.2"/>
<polygon fill="none" stroke="#000000" points="296.5,-423.2 296.5,-442.2 370.5,-442.2 370.5,-423.2 296.5,-423.2"/>
<text text-anchor="start" x="299.5" y="-429.3" font-family="Helvetica,sans-Serif" font-size="11.00" fill="#000000">&lt; 1</text>
<polygon fill="#ffffff" stroke="transparent" points="370.5,-423.2 370.5,-442.2 409.5,-442.2 409.5,-423.2 370.5,-423.2"/>
<polygon fill="none" stroke="#000000" points="370.5,-423.2 370.5,-442.2 409.5,-442.2 409.5,-423.2 370.5,-423.2"/>
<text text-anchor="start" x="400.3862" y="-429.3" font-family="Helvetica,sans-Serif" font-size="11.00" fill="#000000"> &#160;</text>
<polygon fill="#ffffff" stroke="transparent" points="409.5,-423.2 409.5,-442.2 448.5,-442.2 448.5,-423.2 409.5,-423.2"/>
<polygon fill="none" stroke="#000000" points="409.5,-423.2 409.5,-442.2 448.5,-442.2 448.5,-423.2 409.5,-423.2"/>
<text text-anchor="start" x="439.3862" y="-429.3" font-family="Helvetica,sans-Serif" font-size="11.00" fill="#000000"> &#160;</text>
</a>
</g>
</g>
<!-- margin_statements -->
<g id="node2" class="node">
<title>margin_statements</title>
<g id="a_node2"><a xlink:href="../../tables/margin_statements.html" xlink:title="margin_statements" target="_top">
<polygon fill="#ffffff" stroke="transparent" points="8,-125.7 8,-362.7 177,-362.7 177,-125.7 8,-125.7"/>
<polygon fill="#f5f5f5" stroke="transparent" points="8.5,-339.2 8.5,-362.2 177.5,-362.2 177.5,-339.2 8.5,-339.2"/>
<polygon fill="none" stroke="#000000" points="8.5,-339.2 8.5,-362.2 177.5,-362.2 177.5,-339.2 8.5,-339.2"/>
<text text-anchor="start" x="13.5" y="-347.8" font-family="Helvetica,sans-Serif" font-weight="bold" font-size="11.00" fill="#000000">margin_statements</text>
<text text-anchor="start" x="143.0219" y="-347.3" font-family="Helvetica,sans-Serif" font-size="11.00" fill="#000000">[table]</text>
<polygon fill="none" stroke="#000000" points="8.5,-317.2 8.5,-339.2 177.5,-339.2 177.5,-317.2 8.5,-317.2"/>
<image xlink:href="../../images/primaryKeys.png" width="11px" height="12px" preserveAspectRatio="xMinYMin meet" x="13.5" y="-334.2"/>
<text text-anchor="start" x="37.5" y="-324.3" font-family="Helvetica,sans-Serif" font-size="11.00" fill="#000000">id</text>
<polygon fill="#ffffff" stroke="transparent" points="8.5,-295.2 8.5,-317.2 177.5,-317.2 177.5,-295.2 8.5,-295.2"/>
<polygon fill="none" stroke="#000000" points="8.5,-295.2 8.5,-317.2 177.5,-317.2 177.5,-295.2 8.5,-295.2"/>
<text text-anchor="start" x="37.5" y="-302.3" font-family="Helvetica,sans-Serif" font-size="11.00" fill="#000000">statement_id</text>
<polygon fill="#ffffff" stroke="transparent" points="8.5,-273.2 8.5,-295.2 177.5,-295.2 177.5,-273.2 8.5,-273.2"/>
<polygon fill="none" stroke="#000000" points="8.5,-273.2 8.5,-295.2 177.5,-295.2 177.5,-273.2 8.5,-273.2"/>
<text text-anchor="start" x="37.5" y="-280.3" font-family="Helvetica,sans-Serif" font-size="11.00" fill="#000000">ccp_name</text>
<polygon fill="#ffffff" stroke="transparent" points="8.5,-251.2 8.5,-273.2 177.5,-273.2 177.5,-251.2 8.5,-251.2"/>
<polygon fill="none" stroke="#000000" points="8.5,-251.2 8.5,-273.2 177.5,-273.2 177.5,-251.2 8.5,-251.2"/>
<text text-anchor="start" x="37.5" y="-258.3" font-family="Helvetica,sans-Serif" font-size="11.00" fill="#000000">statement_date</text>
<polygon fill="#ffffff" stroke="transparent" points="8.5,-229.2 8.5,-251.2 177.5,-251.2 177.5,-229.2 8.5,-229.2"/>
<polygon fill="none" stroke="#000000" points="8.5,-229.2 8.5,-251.2 177.5,-251.2 177.5,-229.2 8.5,-229.2"/>
<text text-anchor="start" x="37.5" y="-236.3" font-family="Helvetica,sans-Serif" font-size="11.00" fill="#000000">status</text>
<polygon fill="#ffffff" stroke="transparent" points="8.5,-207.2 8.5,-229.2 177.5,-229.2 177.5,-207.2 8.5,-207.2"/>
<polygon fill="none" stroke="#000000" points="8.5,-207.2 8.5,-229.2 177.5,-229.2 177.5,-207.2 8.5,-207.2"/>
<text text-anchor="start" x="37.5" y="-214.3" font-family="Helvetica,sans-Serif" font-size="11.00" fill="#000000">created_at</text>
<polygon fill="#ffffff" stroke="transparent" points="8.5,-185.2 8.5,-207.2 177.5,-207.2 177.5,-185.2 8.5,-185.2"/>
<polygon fill="none" stroke="#000000" points="8.5,-185.2 8.5,-207.2 177.5,-207.2 177.5,-185.2 8.5,-185.2"/>
<text text-anchor="start" x="37.5" y="-192.3" font-family="Helvetica,sans-Serif" font-size="11.00" fill="#000000">variation_margin</text>
<polygon fill="#ffffff" stroke="transparent" points="8.5,-163.2 8.5,-185.2 177.5,-185.2 177.5,-163.2 8.5,-163.2"/>
<polygon fill="none" stroke="#000000" points="8.5,-163.2 8.5,-185.2 177.5,-185.2 177.5,-163.2 8.5,-163.2"/>
<text text-anchor="start" x="37.5" y="-170.3" font-family="Helvetica,sans-Serif" font-size="11.00" fill="#000000">initial_margin</text>
<polygon fill="none" stroke="#000000" points="8.5,-144.2 8.5,-163.2 177.5,-163.2 177.5,-144.2 8.5,-144.2"/>
<text text-anchor="start" x="11.5" y="-150.3" font-family="Helvetica,sans-Serif" font-size="11.00" fill="#000000">...</text>
<polygon fill="#ffffff" stroke="transparent" points="8.5,-125.2 8.5,-144.2 82.5,-144.2 82.5,-125.2 8.5,-125.2"/>
<polygon fill="none" stroke="#000000" points="8.5,-125.2 8.5,-144.2 82.5,-144.2 82.5,-125.2 8.5,-125.2"/>
<text text-anchor="start" x="11.5" y="-131.3" font-family="Helvetica,sans-Serif" font-size="11.00" fill="#000000"> &#160;</text>
<polygon fill="#ffffff" stroke="transparent" points="82.5,-125.2 82.5,-144.2 125.5,-144.2 125.5,-125.2 82.5,-125.2"/>
<polygon fill="none" stroke="#000000" points="82.5,-125.2 82.5,-144.2 125.5,-144.2 125.5,-125.2 82.5,-125.2"/>
<text text-anchor="start" x="116.3862" y="-131.3" font-family="Helvetica,sans-Serif" font-size="11.00" fill="#000000"> &#160;</text>
<polygon fill="#ffffff" stroke="transparent" points="125.5,-125.2 125.5,-144.2 177.5,-144.2 177.5,-125.2 125.5,-125.2"/>
<polygon fill="none" stroke="#000000" points="125.5,-125.2 125.5,-144.2 177.5,-144.2 177.5,-125.2 125.5,-125.2"/>
<text text-anchor="start" x="158.9053" y="-131.3" font-family="Helvetica,sans-Serif" font-size="11.00" fill="#000000">4 &gt;</text>
</a>
</g>
</g>
<!-- collateral_ledger&#45;&gt;margin_statements -->
<g id="edge1" class="edge">
<title>collateral_ledger:w&#45;&gt;margin_statements:e</title>
<path fill="none" stroke="#000000" d="M281.9737,-450.5943C254.065,-448.0095 241.5882,-436.9344 218,-413.2 188.5014,-383.5185 219.3469,-328.2 177.5,-328.2"/>
<polygon fill="#000000" stroke="#000000" points="288.5069,-450.8666 296.35,-454.7969 292.5035,-451.0333 296.5,-451.2 296.5,-451.2 296.5,-451.2 292.5035,-451.0333 296.65,-447.6031 288.5069,-450.8666 288.5069,-450.8666"/>
<ellipse fill="none" stroke="#000000" cx="285.3097" cy="-450.7333" rx="3.2" ry="3.2"/>
</g>
<!-- margin_positions -->
<g id="node3" class="node">
<title>margin_positions</title>
<g id="a_node3"><a xlink:href="../../tables/margin_positions.html" xlink:title="margin_positions" target="_top">
<polygon fill="#ffffff" stroke="transparent" points="295.5,-341.7 295.5,-402.7 449.5,-402.7 449.5,-341.7 295.5,-341.7"/>
<polygon fill="#f5f5f5" stroke="transparent" points="295.5,-379.2 295.5,-402.2 449.5,-402.2 449.5,-379.2 295.5,-379.2"/>
<polygon fill="none" stroke="#000000" points="295.5,-379.2 295.5,-402.2 449.5,-402.2 449.5,-379.2 295.5,-379.2"/>
<text text-anchor="start" x="300.5" y="-387.8" font-family="Helvetica,sans-Serif" font-weight="bold" font-size="11.00" fill="#000000">margin_positions</text>
<text text-anchor="start" x="415.0219" y="-387.3" font-family="Helvetica,sans-Serif" font-size="11.00" fill="#000000">[table]</text>
<polygon fill="none" stroke="#000000" points="295.5,-360.2 295.5,-379.2 449.5,-379.2 449.5,-360.2 295.5,-360.2"/>
<text text-anchor="start" x="298.5" y="-366.3" font-family="Helvetica,sans-Serif" font-size="11.00" fill="#000000">...</text>
<polygon fill="#ffffff" stroke="transparent" points="295.5,-341.2 295.5,-360.2 370.5,-360.2 370.5,-341.2 295.5,-341.2"/>
<polygon fill="none" stroke="#000000" points="295.5,-341.2 295.5,-360.2 370.5,-360.2 370.5,-341.2 295.5,-341.2"/>
<text text-anchor="start" x="298.5" y="-347.3" font-family="Helvetica,sans-Serif" font-size="11.00" fill="#000000">&lt; 1</text>
<polygon fill="#ffffff" stroke="transparent" points="370.5,-341.2 370.5,-360.2 409.5,-360.2 409.5,-341.2 370.5,-341.2"/>
<polygon fill="none" stroke="#000000" points="370.5,-341.2 370.5,-360.2 409.5,-360.2 409.5,-341.2 370.5,-341.2"/>
<text text-anchor="start" x="400.3862" y="-347.3" font-family="Helvetica,sans-Serif" font-size="11.00" fill="#000000"> &#160;</text>
<polygon fill="#ffffff" stroke="transparent" points="409.5,-341.2 409.5,-360.2 449.5,-360.2 449.5,-341.2 409.5,-341.2"/>
<polygon fill="none" stroke="#000000" points="409.5,-341.2 409.5,-360.2 449.5,-360.2 449.5,-341.2 409.5,-341.2"/>
<text text-anchor="start" x="440.3862" y="-347.3" font-family="Helvetica,sans-Serif" font-size="11.00" fill="#000000"> &#160;</text>
</a>
</g>
</g>
<!-- margin_positions&#45;&gt;margin_statements -->
<g id="edge2" class="edge">
<title>margin_positions:w&#45;&gt;margin_statements:e</title>
<path fill="none" stroke="#000000" d="M281.0854,-368.1865C238.2482,-361.8729 227.815,-328.2 177.5,-328.2"/>
<polygon fill="#000000" stroke="#000000" points="287.5197,-368.6389 295.2475,-372.7911 291.5099,-368.9194 295.5,-369.2 295.5,-369.2 295.5,-369.2 291.5099,-368.9194 295.7525,-365.6089 287.5197,-368.6389 287.5197,-368.6389"/>
<ellipse fill="none" stroke="#000000" cx="284.3276" cy="-368.4144" rx="3.2" ry="3.2"/>
</g>
<!-- position_discrepancies -->
<g id="node4" class="node">
<title>position_discrepancies</title>
<g id="a_node4"><a xlink:href="../../tables/position_discrepancies.html" xlink:title="position_discrepancies" target="_top">
<polygon fill="#ffffff" stroke="transparent" points="276.5,-259.7 276.5,-320.7 468.5,-320.7 468.5,-259.7 276.5,-259.7"/>
<polygon fill="#f5f5f5" stroke="transparent" points="276.5,-297.2 276.5,-320.2 468.5,-320.2 468.5,-297.2 276.5,-297.2"/>
<polygon fill="none" stroke="#000000" points="276.5,-297.2 276.5,-320.2 468.5,-320.2 468.5,-297.2 276.5,-297.2"/>
<text text-anchor="start" x="281.5" y="-305.8" font-family="Helvetica,sans-Serif" font-weight="bold" font-size="11.00" fill="#000000">position_discrepancies</text>
<text text-anchor="start" x="434.0219" y="-305.3" font-family="Helvetica,sans-Serif" font-size="11.00" fill="#000000">[table]</text>
<polygon fill="none" stroke="#000000" points="276.5,-278.2 276.5,-297.2 468.5,-297.2 468.5,-278.2 276.5,-278.2"/>
<text text-anchor="start" x="279.5" y="-284.3" font-family="Helvetica,sans-Serif" font-size="11.00" fill="#000000">...</text>
<polygon fill="#ffffff" stroke="transparent" points="276.5,-259.2 276.5,-278.2 370.5,-278.2 370.5,-259.2 276.5,-259.2"/>
<polygon fill="none" stroke="#000000" points="276.5,-259.2 276.5,-278.2 370.5,-278.2 370.5,-259.2 276.5,-259.2"/>
<text text-anchor="start" x="279.5" y="-265.3" font-family="Helvetica,sans-Serif" font-size="11.00" fill="#000000">&lt; 1</text>
<polygon fill="#ffffff" stroke="transparent" points="370.5,-259.2 370.5,-278.2 419.5,-278.2 419.5,-259.2 370.5,-259.2"/>
<polygon fill="none" stroke="#000000" points="370.5,-259.2 370.5,-278.2 419.5,-278.2 419.5,-259.2 370.5,-259.2"/>
<text text-anchor="start" x="410.3862" y="-265.3" font-family="Helvetica,sans-Serif" font-size="11.00" fill="#000000"> &#160;</text>
<polygon fill="#ffffff" stroke="transparent" points="419.5,-259.2 419.5,-278.2 468.5,-278.2 468.5,-259.2 419.5,-259.2"/>
<polygon fill="none" stroke="#000000" points="419.5,-259.2 419.5,-278.2 468.5,-278.2 468.5,-259.2 419.5,-259.2"/>
<text text-anchor="start" x="459.3862" y="-265.3" font-family="Helvetica,sans-Serif" font-size="11.00" fill="#000000"> &#160;</text>
</a>
</g>
</g>
<!-- position_discrepancies&#45;&gt;margin_statements -->
<g id="edge3" class="edge">
<title>position_discrepancies:w&#45;&gt;margin_statements:e</title>
<path fill="none" stroke="#000000" d="M261.8767,-288.6592C227.4629,-295.9629 219.7291,-328.2 177.5,-328.2"/>
<polygon fill="#000000" stroke="#000000" points="268.5395,-287.9944 276.8575,-290.7822 272.5198,-287.5972 276.5,-287.2 276.5,-287.2 276.5,-287.2 272.5198,-287.5972 276.1425,-283.6178 268.5395,-287.9944 268.5395,-287.9944"/>
<ellipse fill="none" stroke="#000000" cx="265.3553" cy="-288.3122" rx="3.2" ry="3.2"/>
</g>
<!-- statement_processing_log -->
<g id="node5" class="node">
<title>statement_processing_log</title>
<g id="a_node5"><a xlink:href="../../tables/statement_processing_log.html" xlink:title="statement_processing_log" target="_top">
<polygon fill="#ffffff" stroke="transparent" points="226,-38.2 226,-238.2 519,-238.2 519,-38.2 226,-38.2"/>
<polygon fill="#f5f5f5" stroke="transparent" points="228.5,-213.2 228.5,-236.2 517.5,-236.2 517.5,-213.2 228.5,-213.2"/>
<polygon fill="none" stroke="#000000" points="228.5,-213.2 228.5,-236.2 517.5,-236.2 517.5,-213.2 228.5,-213.2"/>
<text text-anchor="start" x="233.5" y="-221.8" font-family="Helvetica,sans-Serif" font-weight="bold" font-size="11.00" fill="#000000">statement_processing_log</text>
<text text-anchor="start" x="482.5437" y="-221.3" font-family="Helvetica,sans-Serif" font-size="11.00" fill="#000000">[table]</text>
<polygon fill="none" stroke="#000000" points="228.5,-191.2 228.5,-213.2 425.5,-213.2 425.5,-191.2 228.5,-191.2"/>
<image xlink:href="../../images/primaryKeys.png" width="11px" height="12px" preserveAspectRatio="xMinYMin meet" x="233.5" y="-208.2"/>
<text text-anchor="start" x="248.5" y="-198.3" font-family="Helvetica,sans-Serif" font-size="11.00" fill="#000000">id</text>
<polygon fill="none" stroke="#000000" points="425.5,-191.2 425.5,-213.2 517.5,-213.2 517.5,-191.2 425.5,-191.2"/>
<text text-anchor="start" x="428.5" y="-198.9" font-family="Helvetica,sans-Serif" font-size="11.00" fill="#000000">bigserial[19]</text>
<polygon fill="#ffffff" stroke="transparent" points="228.5,-169.2 228.5,-191.2 425.5,-191.2 425.5,-169.2 228.5,-169.2"/>
<polygon fill="none" stroke="#000000" points="228.5,-169.2 228.5,-191.2 425.5,-191.2 425.5,-169.2 228.5,-169.2"/>
<image xlink:href="../../images/foreignKeys.png" width="11px" height="12px" preserveAspectRatio="xMinYMin meet" x="233.5" y="-186.2"/>
<text text-anchor="start" x="248.5" y="-176.3" font-family="Helvetica,sans-Serif" font-size="11.00" fill="#000000">statement_id</text>
<polygon fill="none" stroke="#000000" points="425.5,-169.2 425.5,-191.2 517.5,-191.2 517.5,-169.2 425.5,-169.2"/>
<text text-anchor="start" x="428.5" y="-176.9" font-family="Helvetica,sans-Serif" font-size="11.00" fill="#000000">int8[19]</text>
<polygon fill="#ffffff" stroke="transparent" points="228.5,-147.2 228.5,-169.2 425.5,-169.2 425.5,-147.2 228.5,-147.2"/>
<polygon fill="none" stroke="#000000" points="228.5,-147.2 228.5,-169.2 425.5,-169.2 425.5,-147.2 228.5,-147.2"/>
<text text-anchor="start" x="248.5" y="-154.3" font-family="Helvetica,sans-Serif" font-size="11.00" fill="#000000">processing_step</text>
<polygon fill="none" stroke="#000000" points="425.5,-147.2 425.5,-169.2 517.5,-169.2 517.5,-147.2 425.5,-147.2"/>
<text text-anchor="start" x="428.5" y="-154.9" font-family="Helvetica,sans-Serif" font-size="11.00" fill="#000000">varchar[100]</text>
<polygon fill="#ffffff" stroke="transparent" points="228.5,-125.2 228.5,-147.2 425.5,-147.2 425.5,-125.2 228.5,-125.2"/>
<polygon fill="none" stroke="#000000" points="228.5,-125.2 228.5,-147.2 425.5,-147.2 425.5,-125.2 228.5,-125.2"/>
<text text-anchor="start" x="248.5" y="-132.3" font-family="Helvetica,sans-Serif" font-size="11.00" fill="#000000">status</text>
<polygon fill="none" stroke="#000000" points="425.5,-125.2 425.5,-147.2 517.5,-147.2 517.5,-125.2 425.5,-125.2"/>
<text text-anchor="start" x="428.5" y="-132.9" font-family="Helvetica,sans-Serif" font-size="11.00" fill="#000000">varchar[50]</text>
<polygon fill="none" stroke="#000000" points="228.5,-103.2 228.5,-125.2 425.5,-125.2 425.5,-103.2 228.5,-103.2"/>
<text text-anchor="start" x="248.5" y="-110.3" font-family="Helvetica,sans-Serif" font-size="11.00" fill="#000000">message</text>
<polygon fill="none" stroke="#000000" points="425.5,-103.2 425.5,-125.2 517.5,-125.2 517.5,-103.2 425.5,-103.2"/>
<text text-anchor="start" x="428.5" y="-110.9" font-family="Helvetica,sans-Serif" font-size="11.00" fill="#000000">text[2147483647]</text>
<polygon fill="none" stroke="#000000" points="228.5,-81.2 228.5,-103.2 425.5,-103.2 425.5,-81.2 228.5,-81.2"/>
<text text-anchor="start" x="248.5" y="-88.3" font-family="Helvetica,sans-Serif" font-size="11.00" fill="#000000">processing_time_ms</text>
<polygon fill="none" stroke="#000000" points="425.5,-81.2 425.5,-103.2 517.5,-103.2 517.5,-81.2 425.5,-81.2"/>
<text text-anchor="start" x="428.5" y="-88.9" font-family="Helvetica,sans-Serif" font-size="11.00" fill="#000000">int4[10]</text>
<polygon fill="none" stroke="#000000" points="228.5,-59.2 228.5,-81.2 425.5,-81.2 425.5,-59.2 228.5,-59.2"/>
<text text-anchor="start" x="248.5" y="-66.3" font-family="Helvetica,sans-Serif" font-size="11.00" fill="#000000">created_at</text>
<polygon fill="none" stroke="#000000" points="425.5,-59.2 425.5,-81.2 517.5,-81.2 517.5,-59.2 425.5,-59.2"/>
<text text-anchor="start" x="428.1023" y="-66.9" font-family="Helvetica,sans-Serif" font-size="11.00" fill="#000000">timestamptz[35,6]</text>
<polygon fill="#ffffff" stroke="transparent" points="228.5,-40.2 228.5,-59.2 331.5,-59.2 331.5,-40.2 228.5,-40.2"/>
<polygon fill="none" stroke="#000000" points="228.5,-40.2 228.5,-59.2 331.5,-59.2 331.5,-40.2 228.5,-40.2"/>
<text text-anchor="start" x="231.5" y="-46.3" font-family="Helvetica,sans-Serif" font-size="11.00" fill="#000000">&lt; 1</text>
<polygon fill="#ffffff" stroke="transparent" points="331.5,-40.2 331.5,-59.2 425.5,-59.2 425.5,-40.2 331.5,-40.2"/>
<polygon fill="none" stroke="#000000" points="331.5,-40.2 331.5,-59.2 425.5,-59.2 425.5,-40.2 331.5,-40.2"/>
<text text-anchor="start" x="416.3862" y="-46.3" font-family="Helvetica,sans-Serif" font-size="11.00" fill="#000000"> &#160;</text>
<polygon fill="#ffffff" stroke="transparent" points="425.5,-40.2 425.5,-59.2 517.5,-59.2 517.5,-40.2 425.5,-40.2"/>
<polygon fill="none" stroke="#000000" points="425.5,-40.2 425.5,-59.2 517.5,-59.2 517.5,-40.2 425.5,-40.2"/>
<text text-anchor="start" x="498.9053" y="-46.3" font-family="Helvetica,sans-Serif" font-size="11.00" fill="#000000">0 &gt;</text>
<polygon fill="none" stroke="#000000" stroke-width="2" points="227,-39.2 227,-237.2 518,-237.2 518,-39.2 227,-39.2"/>
</a>
</g>
</g>
<!-- statement_processing_log&#45;&gt;margin_statements -->
<g id="edge4" class="edge">
<title>statement_processing_log:w&#45;&gt;margin_statements:e</title>
<path fill="none" stroke="#000000" d="M214.1212,-183.1564C172.6199,-204.0155 241.2306,-328.2 177.5,-328.2"/>
<polygon fill="#000000" stroke="#000000" points="220.6639,-181.8112 229.225,-183.7262 224.582,-181.0056 228.5,-180.2 228.5,-180.2 228.5,-180.2 224.582,-181.0056 227.775,-176.6738 220.6639,-181.8112 220.6639,-181.8112"/>
<ellipse fill="none" stroke="#000000" cx="217.5295" cy="-182.4557" rx="3.2" ry="3.2"/>
</g>
</g>
</svg>
