<?xml version="1.0" encoding="UTF-8" standalone="no"?>
<!DOCTYPE svg PUBLIC "-//W3C//DTD SVG 1.1//EN"
 "http://www.w3.org/Graphics/SVG/1.1/DTD/svg11.dtd">
<!-- Generated by graphviz version 2.40.1 (20161225.0304)
 -->
<!-- Title: twoDegreesRelationshipsDiagram Pages: 1 -->
<svg width="967pt" height="1018pt"
 viewBox="0.00 0.00 967.00 1018.20" xmlns="http://www.w3.org/2000/svg" xmlns:xlink="http://www.w3.org/1999/xlink">
<g id="graph0" class="graph" transform="scale(1 1) rotate(0) translate(4 1014.2)">
<title>twoDegreesRelationshipsDiagram</title>
<polygon fill="#ffffff" stroke="transparent" points="-4,4 -4,-1014.2 963,-1014.2 963,4 -4,4"/>
<text text-anchor="middle" x="72.4936" y="-7.3" font-family="Helvetica,sans-Serif" font-size="11.00" fill="#000000">Generated by SchemaSpy</text>
<!-- accrual_events -->
<g id="node1" class="node">
<title>accrual_events</title>
<g id="a_node1"><a xlink:href="../../tables/accrual_events.html" xlink:title="accrual_events" target="_top">
<polygon fill="#ffffff" stroke="transparent" points="736.5,-941.2 736.5,-1002.2 875.5,-1002.2 875.5,-941.2 736.5,-941.2"/>
<polygon fill="#f5f5f5" stroke="transparent" points="737,-978.7 737,-1001.7 876,-1001.7 876,-978.7 737,-978.7"/>
<polygon fill="none" stroke="#000000" points="737,-978.7 737,-1001.7 876,-1001.7 876,-978.7 737,-978.7"/>
<text text-anchor="start" x="742" y="-987.3" font-family="Helvetica,sans-Serif" font-weight="bold" font-size="11.00" fill="#000000">accrual_events</text>
<text text-anchor="start" x="841.5219" y="-986.8" font-family="Helvetica,sans-Serif" font-size="11.00" fill="#000000">[table]</text>
<polygon fill="none" stroke="#000000" points="737,-959.7 737,-978.7 876,-978.7 876,-959.7 737,-959.7"/>
<text text-anchor="start" x="740" y="-965.8" font-family="Helvetica,sans-Serif" font-size="11.00" fill="#000000">...</text>
<polygon fill="#ffffff" stroke="transparent" points="737,-940.7 737,-959.7 805,-959.7 805,-940.7 737,-940.7"/>
<polygon fill="none" stroke="#000000" points="737,-940.7 737,-959.7 805,-959.7 805,-940.7 737,-940.7"/>
<text text-anchor="start" x="740" y="-946.8" font-family="Helvetica,sans-Serif" font-size="11.00" fill="#000000">&lt; 2</text>
<polygon fill="#ffffff" stroke="transparent" points="805,-940.7 805,-959.7 840,-959.7 840,-940.7 805,-940.7"/>
<polygon fill="none" stroke="#000000" points="805,-940.7 805,-959.7 840,-959.7 840,-940.7 805,-940.7"/>
<text text-anchor="start" x="830.8862" y="-946.8" font-family="Helvetica,sans-Serif" font-size="11.00" fill="#000000"> &#160;</text>
<polygon fill="#ffffff" stroke="transparent" points="840,-940.7 840,-959.7 876,-959.7 876,-940.7 840,-940.7"/>
<polygon fill="none" stroke="#000000" points="840,-940.7 840,-959.7 876,-959.7 876,-940.7 840,-940.7"/>
<text text-anchor="start" x="866.8862" y="-946.8" font-family="Helvetica,sans-Serif" font-size="11.00" fill="#000000"> &#160;</text>
</a>
</g>
</g>
<!-- coupon_periods -->
<g id="node2" class="node">
<title>coupon_periods</title>
<g id="a_node2"><a xlink:href="../../tables/coupon_periods.html" xlink:title="coupon_periods" target="_top">
<polygon fill="#ffffff" stroke="transparent" points="412.5,-945.2 412.5,-1006.2 557.5,-1006.2 557.5,-945.2 412.5,-945.2"/>
<polygon fill="#f5f5f5" stroke="transparent" points="413,-982.7 413,-1005.7 558,-1005.7 558,-982.7 413,-982.7"/>
<polygon fill="none" stroke="#000000" points="413,-982.7 413,-1005.7 558,-1005.7 558,-982.7 413,-982.7"/>
<text text-anchor="start" x="418" y="-991.3" font-family="Helvetica,sans-Serif" font-weight="bold" font-size="11.00" fill="#000000">coupon_periods</text>
<text text-anchor="start" x="523.5219" y="-990.8" font-family="Helvetica,sans-Serif" font-size="11.00" fill="#000000">[table]</text>
<polygon fill="none" stroke="#000000" points="413,-963.7 413,-982.7 558,-982.7 558,-963.7 413,-963.7"/>
<text text-anchor="start" x="416" y="-969.8" font-family="Helvetica,sans-Serif" font-size="11.00" fill="#000000">...</text>
<polygon fill="#ffffff" stroke="transparent" points="413,-944.7 413,-963.7 479,-963.7 479,-944.7 413,-944.7"/>
<polygon fill="none" stroke="#000000" points="413,-944.7 413,-963.7 479,-963.7 479,-944.7 413,-944.7"/>
<text text-anchor="start" x="416" y="-950.8" font-family="Helvetica,sans-Serif" font-size="11.00" fill="#000000">&lt; 1</text>
<polygon fill="#ffffff" stroke="transparent" points="479,-944.7 479,-963.7 514,-963.7 514,-944.7 479,-944.7"/>
<polygon fill="none" stroke="#000000" points="479,-944.7 479,-963.7 514,-963.7 514,-944.7 479,-944.7"/>
<text text-anchor="start" x="504.8862" y="-950.8" font-family="Helvetica,sans-Serif" font-size="11.00" fill="#000000"> &#160;</text>
<polygon fill="#ffffff" stroke="transparent" points="514,-944.7 514,-963.7 558,-963.7 558,-944.7 514,-944.7"/>
<polygon fill="none" stroke="#000000" points="514,-944.7 514,-963.7 558,-963.7 558,-944.7 514,-944.7"/>
<text text-anchor="start" x="539.4053" y="-950.8" font-family="Helvetica,sans-Serif" font-size="11.00" fill="#000000">1 &gt;</text>
</a>
</g>
</g>
<!-- accrual_events&#45;&gt;coupon_periods -->
<g id="edge1" class="edge">
<title>accrual_events:w&#45;&gt;coupon_periods:e</title>
<path fill="none" stroke="#000000" d="M722.3257,-968.7477C654.6178,-969.199 632.4465,-972.7 558,-972.7"/>
<polygon fill="#000000" stroke="#000000" points="729,-968.7261 737.0117,-972.3 733,-968.713 737,-968.7 737,-968.7 737,-968.7 733,-968.713 736.9883,-965.1 729,-968.7261 729,-968.7261"/>
<ellipse fill="none" stroke="#000000" cx="725.8001" cy="-968.7365" rx="3.2" ry="3.2"/>
</g>
<!-- cds_trades -->
<g id="node3" class="node">
<title>cds_trades</title>
<g id="a_node3"><a xlink:href="../../tables/cds_trades.html" xlink:title="cds_trades" target="_top">
<polygon fill="#ffffff" stroke="transparent" points="137,-328.2 137,-719.2 309,-719.2 309,-328.2 137,-328.2"/>
<polygon fill="#f5f5f5" stroke="transparent" points="137,-695.7 137,-718.7 309,-718.7 309,-695.7 137,-695.7"/>
<polygon fill="none" stroke="#000000" points="137,-695.7 137,-718.7 309,-718.7 309,-695.7 137,-695.7"/>
<text text-anchor="start" x="142" y="-704.3" font-family="Helvetica,sans-Serif" font-weight="bold" font-size="11.00" fill="#000000">cds_trades</text>
<text text-anchor="start" x="274.0437" y="-703.8" font-family="Helvetica,sans-Serif" font-size="11.00" fill="#000000">[table]</text>
<polygon fill="none" stroke="#000000" points="137,-673.7 137,-695.7 309,-695.7 309,-673.7 137,-673.7"/>
<image xlink:href="../../images/primaryKeys.png" width="11px" height="12px" preserveAspectRatio="xMinYMin meet" x="142" y="-690.7"/>
<text text-anchor="start" x="157" y="-680.8" font-family="Helvetica,sans-Serif" font-size="11.00" fill="#000000">id</text>
<polygon fill="#ffffff" stroke="transparent" points="137,-651.7 137,-673.7 309,-673.7 309,-651.7 137,-651.7"/>
<polygon fill="none" stroke="#000000" points="137,-651.7 137,-673.7 309,-673.7 309,-651.7 137,-651.7"/>
<text text-anchor="start" x="157" y="-658.8" font-family="Helvetica,sans-Serif" font-size="11.00" fill="#000000">reference_entity</text>
<polygon fill="#ffffff" stroke="transparent" points="137,-629.7 137,-651.7 309,-651.7 309,-629.7 137,-629.7"/>
<polygon fill="none" stroke="#000000" points="137,-629.7 137,-651.7 309,-651.7 309,-629.7 137,-629.7"/>
<text text-anchor="start" x="157" y="-636.8" font-family="Helvetica,sans-Serif" font-size="11.00" fill="#000000">counterparty</text>
<polygon fill="#ffffff" stroke="transparent" points="137,-607.7 137,-629.7 309,-629.7 309,-607.7 137,-607.7"/>
<polygon fill="none" stroke="#000000" points="137,-607.7 137,-629.7 309,-629.7 309,-607.7 137,-607.7"/>
<text text-anchor="start" x="157" y="-614.8" font-family="Helvetica,sans-Serif" font-size="11.00" fill="#000000">trade_date</text>
<polygon fill="#ffffff" stroke="transparent" points="137,-585.7 137,-607.7 309,-607.7 309,-585.7 137,-585.7"/>
<polygon fill="none" stroke="#000000" points="137,-585.7 137,-607.7 309,-607.7 309,-585.7 137,-585.7"/>
<text text-anchor="start" x="157" y="-592.8" font-family="Helvetica,sans-Serif" font-size="11.00" fill="#000000">created_at</text>
<polygon fill="#ffffff" stroke="transparent" points="137,-563.7 137,-585.7 309,-585.7 309,-563.7 137,-563.7"/>
<polygon fill="none" stroke="#000000" points="137,-563.7 137,-585.7 309,-585.7 309,-563.7 137,-563.7"/>
<image xlink:href="../../images/foreignKeys.png" width="11px" height="12px" preserveAspectRatio="xMinYMin meet" x="142" y="-580.7"/>
<text text-anchor="start" x="157" y="-570.8" font-family="Helvetica,sans-Serif" font-size="11.00" fill="#000000">obligation_id</text>
<polygon fill="#ffffff" stroke="transparent" points="137,-541.7 137,-563.7 309,-563.7 309,-541.7 137,-541.7"/>
<polygon fill="none" stroke="#000000" points="137,-541.7 137,-563.7 309,-563.7 309,-541.7 137,-541.7"/>
<text text-anchor="start" x="157" y="-548.8" font-family="Helvetica,sans-Serif" font-size="11.00" fill="#000000">settlement_type</text>
<polygon fill="#ffffff" stroke="transparent" points="137,-519.7 137,-541.7 309,-541.7 309,-519.7 137,-519.7"/>
<polygon fill="none" stroke="#000000" points="137,-519.7 137,-541.7 309,-541.7 309,-519.7 137,-519.7"/>
<text text-anchor="start" x="157" y="-526.8" font-family="Helvetica,sans-Serif" font-size="11.00" fill="#000000">ccp_name</text>
<polygon fill="#ffffff" stroke="transparent" points="137,-497.7 137,-519.7 309,-519.7 309,-497.7 137,-497.7"/>
<polygon fill="none" stroke="#000000" points="137,-497.7 137,-519.7 309,-519.7 309,-497.7 137,-497.7"/>
<image xlink:href="../../images/foreignKeys.png" width="11px" height="12px" preserveAspectRatio="xMinYMin meet" x="142" y="-514.7"/>
<text text-anchor="start" x="157" y="-504.8" font-family="Helvetica,sans-Serif" font-size="11.00" fill="#000000">original_trade_id</text>
<polygon fill="#ffffff" stroke="transparent" points="137,-475.7 137,-497.7 309,-497.7 309,-475.7 137,-475.7"/>
<polygon fill="none" stroke="#000000" points="137,-475.7 137,-497.7 309,-497.7 309,-475.7 137,-475.7"/>
<text text-anchor="start" x="157" y="-482.8" font-family="Helvetica,sans-Serif" font-size="11.00" fill="#000000">novation_timestamp</text>
<polygon fill="#ffffff" stroke="transparent" points="137,-453.7 137,-475.7 309,-475.7 309,-453.7 137,-453.7"/>
<polygon fill="none" stroke="#000000" points="137,-453.7 137,-475.7 309,-475.7 309,-453.7 137,-453.7"/>
<text text-anchor="start" x="157" y="-460.8" font-family="Helvetica,sans-Serif" font-size="11.00" fill="#000000">novation_reference</text>
<polygon fill="#ffffff" stroke="transparent" points="137,-431.7 137,-453.7 309,-453.7 309,-431.7 137,-431.7"/>
<polygon fill="none" stroke="#000000" points="137,-431.7 137,-453.7 309,-453.7 309,-431.7 137,-431.7"/>
<text text-anchor="start" x="157" y="-438.8" font-family="Helvetica,sans-Serif" font-size="11.00" fill="#000000">uti</text>
<polygon fill="#ffffff" stroke="transparent" points="137,-409.7 137,-431.7 309,-431.7 309,-409.7 137,-409.7"/>
<polygon fill="none" stroke="#000000" points="137,-409.7 137,-431.7 309,-431.7 309,-409.7 137,-409.7"/>
<text text-anchor="start" x="157" y="-416.8" font-family="Helvetica,sans-Serif" font-size="11.00" fill="#000000">usi</text>
<polygon fill="#ffffff" stroke="transparent" points="137,-387.7 137,-409.7 309,-409.7 309,-387.7 137,-387.7"/>
<polygon fill="none" stroke="#000000" points="137,-387.7 137,-409.7 309,-409.7 309,-387.7 137,-387.7"/>
<text text-anchor="start" x="157" y="-394.8" font-family="Helvetica,sans-Serif" font-size="11.00" fill="#000000">is_cleared</text>
<polygon fill="#ffffff" stroke="transparent" points="137,-365.7 137,-387.7 309,-387.7 309,-365.7 137,-365.7"/>
<polygon fill="none" stroke="#000000" points="137,-365.7 137,-387.7 309,-387.7 309,-365.7 137,-365.7"/>
<text text-anchor="start" x="157" y="-372.8" font-family="Helvetica,sans-Serif" font-size="11.00" fill="#000000">mark_to_market_value</text>
<polygon fill="none" stroke="#000000" points="137,-346.7 137,-365.7 309,-365.7 309,-346.7 137,-346.7"/>
<text text-anchor="start" x="140" y="-352.8" font-family="Helvetica,sans-Serif" font-size="11.00" fill="#000000">...</text>
<polygon fill="#ffffff" stroke="transparent" points="137,-327.7 137,-346.7 214,-346.7 214,-327.7 137,-327.7"/>
<polygon fill="none" stroke="#000000" points="137,-327.7 137,-346.7 214,-346.7 214,-327.7 137,-327.7"/>
<text text-anchor="start" x="140" y="-333.8" font-family="Helvetica,sans-Serif" font-size="11.00" fill="#000000">&lt; 2</text>
<polygon fill="#ffffff" stroke="transparent" points="214,-327.7 214,-346.7 254,-346.7 254,-327.7 214,-327.7"/>
<polygon fill="none" stroke="#000000" points="214,-327.7 214,-346.7 254,-346.7 254,-327.7 214,-327.7"/>
<text text-anchor="start" x="244.8862" y="-333.8" font-family="Helvetica,sans-Serif" font-size="11.00" fill="#000000"> &#160;</text>
<polygon fill="#ffffff" stroke="transparent" points="254,-327.7 254,-346.7 309,-346.7 309,-327.7 254,-327.7"/>
<polygon fill="none" stroke="#000000" points="254,-327.7 254,-346.7 309,-346.7 309,-327.7 254,-327.7"/>
<text text-anchor="start" x="284.2904" y="-333.8" font-family="Helvetica,sans-Serif" font-size="11.00" fill="#000000">13 &gt;</text>
</a>
</g>
</g>
<!-- accrual_events&#45;&gt;cds_trades -->
<g id="edge2" class="edge">
<title>accrual_events:w&#45;&gt;cds_trades:e</title>
<path fill="none" stroke="#000000" d="M722.594,-968.098C680.5733,-964.4028 667.9529,-944.6223 620,-934.7 560.7806,-922.4465 394.0729,-942.1086 350,-900.7 278.7867,-833.7917 406.7141,-684.7 309,-684.7"/>
<polygon fill="#000000" stroke="#000000" points="729.007,-968.3659 736.8497,-972.2969 733.0035,-968.533 737,-968.7 737,-968.7 737,-968.7 733.0035,-968.533 737.1503,-965.1031 729.007,-968.3659 729.007,-968.3659"/>
<ellipse fill="none" stroke="#000000" cx="725.8098" cy="-968.2323" rx="3.2" ry="3.2"/>
</g>
<!-- coupon_periods&#45;&gt;cds_trades -->
<g id="edge11" class="edge">
<title>coupon_periods:w&#45;&gt;cds_trades:e</title>
<path fill="none" stroke="#000000" d="M398.4462,-971.6394C375.6158,-967.9262 365.3456,-954.4333 350,-930.7 319.9081,-884.1604 364.4207,-684.7 309,-684.7"/>
<polygon fill="#000000" stroke="#000000" points="405.0212,-972.1185 412.7383,-976.2905 409.0106,-972.4093 413,-972.7 413,-972.7 413,-972.7 409.0106,-972.4093 413.2617,-969.1095 405.0212,-972.1185 405.0212,-972.1185"/>
<ellipse fill="none" stroke="#000000" cx="401.8296" cy="-971.8859" rx="3.2" ry="3.2"/>
</g>
<!-- bonds -->
<g id="node8" class="node">
<title>bonds</title>
<g id="a_node8"><a xlink:href="../../tables/bonds.html" xlink:title="bonds" target="_top">
<polygon fill="#ffffff" stroke="transparent" points="8,-547.2 8,-608.2 88,-608.2 88,-547.2 8,-547.2"/>
<polygon fill="#f5f5f5" stroke="transparent" points="8,-584.7 8,-607.7 88,-607.7 88,-584.7 8,-584.7"/>
<polygon fill="none" stroke="#000000" points="8,-584.7 8,-607.7 88,-607.7 88,-584.7 8,-584.7"/>
<text text-anchor="start" x="13" y="-593.3" font-family="Helvetica,sans-Serif" font-weight="bold" font-size="11.00" fill="#000000">bonds</text>
<text text-anchor="start" x="53.5219" y="-592.8" font-family="Helvetica,sans-Serif" font-size="11.00" fill="#000000">[table]</text>
<polygon fill="none" stroke="#000000" points="8,-565.7 8,-584.7 88,-584.7 88,-565.7 8,-565.7"/>
<text text-anchor="start" x="11" y="-571.8" font-family="Helvetica,sans-Serif" font-size="11.00" fill="#000000">...</text>
<polygon fill="#ffffff" stroke="transparent" points="8,-546.7 8,-565.7 37,-565.7 37,-546.7 8,-546.7"/>
<polygon fill="none" stroke="#000000" points="8,-546.7 8,-565.7 37,-565.7 37,-546.7 8,-546.7"/>
<text text-anchor="start" x="11" y="-552.8" font-family="Helvetica,sans-Serif" font-size="11.00" fill="#000000"> &#160;</text>
<polygon fill="#ffffff" stroke="transparent" points="37,-546.7 37,-565.7 58,-565.7 58,-546.7 37,-546.7"/>
<polygon fill="none" stroke="#000000" points="37,-546.7 37,-565.7 58,-565.7 58,-546.7 37,-546.7"/>
<text text-anchor="start" x="48.8862" y="-552.8" font-family="Helvetica,sans-Serif" font-size="11.00" fill="#000000"> &#160;</text>
<polygon fill="#ffffff" stroke="transparent" points="58,-546.7 58,-565.7 88,-565.7 88,-546.7 58,-546.7"/>
<polygon fill="none" stroke="#000000" points="58,-546.7 58,-565.7 88,-565.7 88,-546.7 58,-546.7"/>
<text text-anchor="start" x="69.4053" y="-552.8" font-family="Helvetica,sans-Serif" font-size="11.00" fill="#000000">2 &gt;</text>
</a>
</g>
</g>
<!-- cds_trades&#45;&gt;bonds -->
<g id="edge9" class="edge">
<title>cds_trades:w&#45;&gt;bonds:e</title>
<path fill="none" stroke="#000000" d="M122.4909,-574.7C111.1774,-574.7 103.9931,-574.7 88,-574.7"/>
<polygon fill="#000000" stroke="#000000" points="129,-574.7001 137,-578.3 133,-574.7 137,-574.7 137,-574.7 137,-574.7 133,-574.7 137,-571.1 129,-574.7001 129,-574.7001"/>
<ellipse fill="none" stroke="#000000" cx="125.8" cy="-574.7001" rx="3.2" ry="3.2"/>
</g>
<!-- cds_cash_settlements -->
<g id="node4" class="node">
<title>cds_cash_settlements</title>
<g id="a_node4"><a xlink:href="../../tables/cds_cash_settlements.html" xlink:title="cds_cash_settlements" target="_top">
<polygon fill="#ffffff" stroke="transparent" points="713.5,-856.2 713.5,-917.2 898.5,-917.2 898.5,-856.2 713.5,-856.2"/>
<polygon fill="#f5f5f5" stroke="transparent" points="714,-893.7 714,-916.7 899,-916.7 899,-893.7 714,-893.7"/>
<polygon fill="none" stroke="#000000" points="714,-893.7 714,-916.7 899,-916.7 899,-893.7 714,-893.7"/>
<text text-anchor="start" x="719" y="-902.3" font-family="Helvetica,sans-Serif" font-weight="bold" font-size="11.00" fill="#000000">cds_cash_settlements</text>
<text text-anchor="start" x="864.5219" y="-901.8" font-family="Helvetica,sans-Serif" font-size="11.00" fill="#000000">[table]</text>
<polygon fill="none" stroke="#000000" points="714,-874.7 714,-893.7 899,-893.7 899,-874.7 714,-874.7"/>
<text text-anchor="start" x="717" y="-880.8" font-family="Helvetica,sans-Serif" font-size="11.00" fill="#000000">...</text>
<polygon fill="#ffffff" stroke="transparent" points="714,-855.7 714,-874.7 805,-874.7 805,-855.7 714,-855.7"/>
<polygon fill="none" stroke="#000000" points="714,-855.7 714,-874.7 805,-874.7 805,-855.7 714,-855.7"/>
<text text-anchor="start" x="717" y="-861.8" font-family="Helvetica,sans-Serif" font-size="11.00" fill="#000000">&lt; 2</text>
<polygon fill="#ffffff" stroke="transparent" points="805,-855.7 805,-874.7 852,-874.7 852,-855.7 805,-855.7"/>
<polygon fill="none" stroke="#000000" points="805,-855.7 805,-874.7 852,-874.7 852,-855.7 805,-855.7"/>
<text text-anchor="start" x="842.8862" y="-861.8" font-family="Helvetica,sans-Serif" font-size="11.00" fill="#000000"> &#160;</text>
<polygon fill="#ffffff" stroke="transparent" points="852,-855.7 852,-874.7 899,-874.7 899,-855.7 852,-855.7"/>
<polygon fill="none" stroke="#000000" points="852,-855.7 852,-874.7 899,-874.7 899,-855.7 852,-855.7"/>
<text text-anchor="start" x="889.8862" y="-861.8" font-family="Helvetica,sans-Serif" font-size="11.00" fill="#000000"> &#160;</text>
</a>
</g>
</g>
<!-- cds_cash_settlements&#45;&gt;cds_trades -->
<g id="edge4" class="edge">
<title>cds_cash_settlements:w&#45;&gt;cds_trades:e</title>
<path fill="none" stroke="#000000" d="M699.5238,-884.1007C609.4533,-888.5808 409.1096,-928.215 350,-879.7 281.5438,-823.5137 397.5616,-684.7 309,-684.7"/>
<polygon fill="#000000" stroke="#000000" points="706.0031,-883.9214 714.0996,-887.2986 710.0015,-883.8107 714,-883.7 714,-883.7 714,-883.7 710.0015,-883.8107 713.9004,-880.1014 706.0031,-883.9214 706.0031,-883.9214"/>
<ellipse fill="none" stroke="#000000" cx="702.8043" cy="-884.01" rx="3.2" ry="3.2"/>
</g>
<!-- cds_credit_events -->
<g id="node5" class="node">
<title>cds_credit_events</title>
<g id="a_node5"><a xlink:href="../../tables/cds_credit_events.html" xlink:title="cds_credit_events" target="_top">
<polygon fill="#ffffff" stroke="transparent" points="406,-808.2 406,-869.2 564,-869.2 564,-808.2 406,-808.2"/>
<polygon fill="#f5f5f5" stroke="transparent" points="406,-845.7 406,-868.7 564,-868.7 564,-845.7 406,-845.7"/>
<polygon fill="none" stroke="#000000" points="406,-845.7 406,-868.7 564,-868.7 564,-845.7 406,-845.7"/>
<text text-anchor="start" x="411" y="-854.3" font-family="Helvetica,sans-Serif" font-weight="bold" font-size="11.00" fill="#000000">cds_credit_events</text>
<text text-anchor="start" x="529.5219" y="-853.8" font-family="Helvetica,sans-Serif" font-size="11.00" fill="#000000">[table]</text>
<polygon fill="none" stroke="#000000" points="406,-826.7 406,-845.7 564,-845.7 564,-826.7 406,-826.7"/>
<text text-anchor="start" x="409" y="-832.8" font-family="Helvetica,sans-Serif" font-size="11.00" fill="#000000">...</text>
<polygon fill="#ffffff" stroke="transparent" points="406,-807.7 406,-826.7 479,-826.7 479,-807.7 406,-807.7"/>
<polygon fill="none" stroke="#000000" points="406,-807.7 406,-826.7 479,-826.7 479,-807.7 406,-807.7"/>
<text text-anchor="start" x="409" y="-813.8" font-family="Helvetica,sans-Serif" font-size="11.00" fill="#000000">&lt; 1</text>
<polygon fill="#ffffff" stroke="transparent" points="479,-807.7 479,-826.7 517,-826.7 517,-807.7 479,-807.7"/>
<polygon fill="none" stroke="#000000" points="479,-807.7 479,-826.7 517,-826.7 517,-807.7 479,-807.7"/>
<text text-anchor="start" x="507.8862" y="-813.8" font-family="Helvetica,sans-Serif" font-size="11.00" fill="#000000"> &#160;</text>
<polygon fill="#ffffff" stroke="transparent" points="517,-807.7 517,-826.7 564,-826.7 564,-807.7 517,-807.7"/>
<polygon fill="none" stroke="#000000" points="517,-807.7 517,-826.7 564,-826.7 564,-807.7 517,-807.7"/>
<text text-anchor="start" x="545.4053" y="-813.8" font-family="Helvetica,sans-Serif" font-size="11.00" fill="#000000">2 &gt;</text>
</a>
</g>
</g>
<!-- cds_cash_settlements&#45;&gt;cds_credit_events -->
<g id="edge3" class="edge">
<title>cds_cash_settlements:w&#45;&gt;cds_credit_events:e</title>
<path fill="none" stroke="#000000" d="M703.4092,-883.3136C642.781,-878.771 630.3056,-835.7 564,-835.7"/>
<polygon fill="#000000" stroke="#000000" points="713.3464,-879.6735 713.0547,-887.6682 711.4557,-887.6098 711.7475,-879.6151 713.3464,-879.6735"/>
<polyline fill="none" stroke="#000000" points="714,-883.7 710.0027,-883.5541 "/>
<ellipse fill="none" stroke="#000000" cx="706.8048" cy="-883.4374" rx="3.2" ry="3.2"/>
</g>
<!-- cds_credit_events&#45;&gt;cds_trades -->
<g id="edge5" class="edge">
<title>cds_credit_events:w&#45;&gt;cds_trades:e</title>
<path fill="none" stroke="#000000" d="M391.4234,-834.0967C372.2512,-829.2994 365.3132,-814.1161 350,-793.7 318.9436,-752.2945 360.7582,-684.7 309,-684.7"/>
<polygon fill="#000000" stroke="#000000" points="398.048,-834.8253 405.6064,-839.2784 402.024,-835.2626 406,-835.7 406,-835.7 406,-835.7 402.024,-835.2626 406.3936,-832.1216 398.048,-834.8253 398.048,-834.8253"/>
<ellipse fill="none" stroke="#000000" cx="394.8671" cy="-834.4754" rx="3.2" ry="3.2"/>
</g>
<!-- cds_physical_settlement_instructions -->
<g id="node6" class="node">
<title>cds_physical_settlement_instructions</title>
<g id="a_node6"><a xlink:href="../../tables/cds_physical_settlement_instructions.html" xlink:title="cds_physical_settlement_instructions" target="_top">
<polygon fill="#ffffff" stroke="transparent" points="661,-768.2 661,-829.2 951,-829.2 951,-768.2 661,-768.2"/>
<polygon fill="#f5f5f5" stroke="transparent" points="661,-805.7 661,-828.7 951,-828.7 951,-805.7 661,-805.7"/>
<polygon fill="none" stroke="#000000" points="661,-805.7 661,-828.7 951,-828.7 951,-805.7 661,-805.7"/>
<text text-anchor="start" x="666" y="-814.3" font-family="Helvetica,sans-Serif" font-weight="bold" font-size="11.00" fill="#000000">cds_physical_settlement_instructions</text>
<text text-anchor="start" x="916.5219" y="-813.8" font-family="Helvetica,sans-Serif" font-size="11.00" fill="#000000">[table]</text>
<polygon fill="none" stroke="#000000" points="661,-786.7 661,-805.7 951,-805.7 951,-786.7 661,-786.7"/>
<text text-anchor="start" x="664" y="-792.8" font-family="Helvetica,sans-Serif" font-size="11.00" fill="#000000">...</text>
<polygon fill="#ffffff" stroke="transparent" points="661,-767.7 661,-786.7 804,-786.7 804,-767.7 661,-767.7"/>
<polygon fill="none" stroke="#000000" points="661,-767.7 661,-786.7 804,-786.7 804,-767.7 661,-767.7"/>
<text text-anchor="start" x="664" y="-773.8" font-family="Helvetica,sans-Serif" font-size="11.00" fill="#000000">&lt; 2</text>
<polygon fill="#ffffff" stroke="transparent" points="804,-767.7 804,-786.7 877,-786.7 877,-767.7 804,-767.7"/>
<polygon fill="none" stroke="#000000" points="804,-767.7 804,-786.7 877,-786.7 877,-767.7 804,-767.7"/>
<text text-anchor="start" x="867.8862" y="-773.8" font-family="Helvetica,sans-Serif" font-size="11.00" fill="#000000"> &#160;</text>
<polygon fill="#ffffff" stroke="transparent" points="877,-767.7 877,-786.7 951,-786.7 951,-767.7 877,-767.7"/>
<polygon fill="none" stroke="#000000" points="877,-767.7 877,-786.7 951,-786.7 951,-767.7 877,-767.7"/>
<text text-anchor="start" x="941.8862" y="-773.8" font-family="Helvetica,sans-Serif" font-size="11.00" fill="#000000"> &#160;</text>
</a>
</g>
</g>
<!-- cds_physical_settlement_instructions&#45;&gt;cds_trades -->
<g id="edge7" class="edge">
<title>cds_physical_settlement_instructions:w&#45;&gt;cds_trades:e</title>
<path fill="none" stroke="#000000" d="M646.3984,-795.534C582.6853,-794.4217 375.9497,-787.5442 350,-769.7 315.4396,-745.9347 350.9429,-684.7 309,-684.7"/>
<polygon fill="#000000" stroke="#000000" points="653.0005,-795.609 660.9591,-799.2998 657.0003,-795.6545 661,-795.7 661,-795.7 661,-795.7 657.0003,-795.6545 661.0409,-792.1002 653.0005,-795.609 653.0005,-795.609"/>
<ellipse fill="none" stroke="#000000" cx="649.8007" cy="-795.5726" rx="3.2" ry="3.2"/>
</g>
<!-- cds_physical_settlement_instructions&#45;&gt;cds_credit_events -->
<g id="edge6" class="edge">
<title>cds_physical_settlement_instructions:w&#45;&gt;cds_credit_events:e</title>
<path fill="none" stroke="#000000" d="M650.3426,-796.4633C613.4659,-801.9933 606.8074,-835.7 564,-835.7"/>
<polygon fill="#000000" stroke="#000000" points="659.9162,-791.7674 660.4878,-799.7469 658.8919,-799.8613 658.3203,-791.8817 659.9162,-791.7674"/>
<polyline fill="none" stroke="#000000" points="661,-795.7 657.0102,-795.9858 "/>
<ellipse fill="none" stroke="#000000" cx="653.8184" cy="-796.2144" rx="3.2" ry="3.2"/>
</g>
<!-- cds_portfolio_constituents -->
<g id="node7" class="node">
<title>cds_portfolio_constituents</title>
<g id="a_node7"><a xlink:href="../../tables/cds_portfolio_constituents.html" xlink:title="cds_portfolio_constituents" target="_top">
<polygon fill="#ffffff" stroke="transparent" points="376.5,-698.2 376.5,-759.2 593.5,-759.2 593.5,-698.2 376.5,-698.2"/>
<polygon fill="#f5f5f5" stroke="transparent" points="377,-735.7 377,-758.7 594,-758.7 594,-735.7 377,-735.7"/>
<polygon fill="none" stroke="#000000" points="377,-735.7 377,-758.7 594,-758.7 594,-735.7 377,-735.7"/>
<text text-anchor="start" x="382" y="-744.3" font-family="Helvetica,sans-Serif" font-weight="bold" font-size="11.00" fill="#000000">cds_portfolio_constituents</text>
<text text-anchor="start" x="559.5219" y="-743.8" font-family="Helvetica,sans-Serif" font-size="11.00" fill="#000000">[table]</text>
<polygon fill="none" stroke="#000000" points="377,-716.7 377,-735.7 594,-735.7 594,-716.7 377,-716.7"/>
<text text-anchor="start" x="380" y="-722.8" font-family="Helvetica,sans-Serif" font-size="11.00" fill="#000000">...</text>
<polygon fill="#ffffff" stroke="transparent" points="377,-697.7 377,-716.7 484,-716.7 484,-697.7 377,-697.7"/>
<polygon fill="none" stroke="#000000" points="377,-697.7 377,-716.7 484,-716.7 484,-697.7 377,-697.7"/>
<text text-anchor="start" x="380" y="-703.8" font-family="Helvetica,sans-Serif" font-size="11.00" fill="#000000">&lt; 2</text>
<polygon fill="#ffffff" stroke="transparent" points="484,-697.7 484,-716.7 539,-716.7 539,-697.7 484,-697.7"/>
<polygon fill="none" stroke="#000000" points="484,-697.7 484,-716.7 539,-716.7 539,-697.7 484,-697.7"/>
<text text-anchor="start" x="529.8862" y="-703.8" font-family="Helvetica,sans-Serif" font-size="11.00" fill="#000000"> &#160;</text>
<polygon fill="#ffffff" stroke="transparent" points="539,-697.7 539,-716.7 594,-716.7 594,-697.7 539,-697.7"/>
<polygon fill="none" stroke="#000000" points="539,-697.7 539,-716.7 594,-716.7 594,-697.7 539,-697.7"/>
<text text-anchor="start" x="584.8862" y="-703.8" font-family="Helvetica,sans-Serif" font-size="11.00" fill="#000000"> &#160;</text>
</a>
</g>
</g>
<!-- cds_portfolio_constituents&#45;&gt;cds_trades -->
<g id="edge8" class="edge">
<title>cds_portfolio_constituents:w&#45;&gt;cds_trades:e</title>
<path fill="none" stroke="#000000" d="M362.647,-722.8819C341.5647,-713.6188 338.6387,-684.7 309,-684.7"/>
<polygon fill="#000000" stroke="#000000" points="369.1499,-724.1586 376.3064,-729.2326 373.0749,-724.9293 377,-725.7 377,-725.7 377,-725.7 373.0749,-724.9293 377.6936,-722.1674 369.1499,-724.1586 369.1499,-724.1586"/>
<ellipse fill="none" stroke="#000000" cx="366.0098" cy="-723.5421" rx="3.2" ry="3.2"/>
</g>
<!-- compression_proposal_items -->
<g id="node9" class="node">
<title>compression_proposal_items</title>
<g id="a_node9"><a xlink:href="../../tables/compression_proposal_items.html" xlink:title="compression_proposal_items" target="_top">
<polygon fill="#ffffff" stroke="transparent" points="368.5,-616.2 368.5,-677.2 601.5,-677.2 601.5,-616.2 368.5,-616.2"/>
<polygon fill="#f5f5f5" stroke="transparent" points="369,-653.7 369,-676.7 602,-676.7 602,-653.7 369,-653.7"/>
<polygon fill="none" stroke="#000000" points="369,-653.7 369,-676.7 602,-676.7 602,-653.7 369,-653.7"/>
<text text-anchor="start" x="374" y="-662.3" font-family="Helvetica,sans-Serif" font-weight="bold" font-size="11.00" fill="#000000">compression_proposal_items</text>
<text text-anchor="start" x="567.5219" y="-661.8" font-family="Helvetica,sans-Serif" font-size="11.00" fill="#000000">[table]</text>
<polygon fill="none" stroke="#000000" points="369,-634.7 369,-653.7 602,-653.7 602,-634.7 369,-634.7"/>
<text text-anchor="start" x="372" y="-640.8" font-family="Helvetica,sans-Serif" font-size="11.00" fill="#000000">...</text>
<polygon fill="#ffffff" stroke="transparent" points="369,-615.7 369,-634.7 484,-634.7 484,-615.7 369,-615.7"/>
<polygon fill="none" stroke="#000000" points="369,-615.7 369,-634.7 484,-634.7 484,-615.7 369,-615.7"/>
<text text-anchor="start" x="372" y="-621.8" font-family="Helvetica,sans-Serif" font-size="11.00" fill="#000000">&lt; 2</text>
<polygon fill="#ffffff" stroke="transparent" points="484,-615.7 484,-634.7 543,-634.7 543,-615.7 484,-615.7"/>
<polygon fill="none" stroke="#000000" points="484,-615.7 484,-634.7 543,-634.7 543,-615.7 484,-615.7"/>
<text text-anchor="start" x="533.8862" y="-621.8" font-family="Helvetica,sans-Serif" font-size="11.00" fill="#000000"> &#160;</text>
<polygon fill="#ffffff" stroke="transparent" points="543,-615.7 543,-634.7 602,-634.7 602,-615.7 543,-615.7"/>
<polygon fill="none" stroke="#000000" points="543,-615.7 543,-634.7 602,-634.7 602,-615.7 543,-615.7"/>
<text text-anchor="start" x="592.8862" y="-621.8" font-family="Helvetica,sans-Serif" font-size="11.00" fill="#000000"> &#160;</text>
</a>
</g>
</g>
<!-- compression_proposal_items&#45;&gt;cds_trades -->
<g id="edge10" class="edge">
<title>compression_proposal_items:w&#45;&gt;cds_trades:e</title>
<path fill="none" stroke="#000000" d="M354.987,-647.0552C337.1778,-656.8472 335.6206,-684.7 309,-684.7"/>
<polygon fill="#000000" stroke="#000000" points="361.2199,-645.5629 369.8383,-647.201 365.11,-644.6314 369,-643.7 369,-643.7 369,-643.7 365.11,-644.6314 368.1617,-640.199 361.2199,-645.5629 361.2199,-645.5629"/>
<ellipse fill="none" stroke="#000000" cx="358.1079" cy="-646.308" rx="3.2" ry="3.2"/>
</g>
<!-- notional_adjustments -->
<g id="node10" class="node">
<title>notional_adjustments</title>
<g id="a_node10"><a xlink:href="../../tables/notional_adjustments.html" xlink:title="notional_adjustments" target="_top">
<polygon fill="#ffffff" stroke="transparent" points="393,-534.2 393,-595.2 577,-595.2 577,-534.2 393,-534.2"/>
<polygon fill="#f5f5f5" stroke="transparent" points="393,-571.7 393,-594.7 577,-594.7 577,-571.7 393,-571.7"/>
<polygon fill="none" stroke="#000000" points="393,-571.7 393,-594.7 577,-594.7 577,-571.7 393,-571.7"/>
<text text-anchor="start" x="398" y="-580.3" font-family="Helvetica,sans-Serif" font-weight="bold" font-size="11.00" fill="#000000">notional_adjustments</text>
<text text-anchor="start" x="542.5219" y="-579.8" font-family="Helvetica,sans-Serif" font-size="11.00" fill="#000000">[table]</text>
<polygon fill="none" stroke="#000000" points="393,-552.7 393,-571.7 577,-571.7 577,-552.7 393,-552.7"/>
<text text-anchor="start" x="396" y="-558.8" font-family="Helvetica,sans-Serif" font-size="11.00" fill="#000000">...</text>
<polygon fill="#ffffff" stroke="transparent" points="393,-533.7 393,-552.7 483,-552.7 483,-533.7 393,-533.7"/>
<polygon fill="none" stroke="#000000" points="393,-533.7 393,-552.7 483,-552.7 483,-533.7 393,-533.7"/>
<text text-anchor="start" x="396" y="-539.8" font-family="Helvetica,sans-Serif" font-size="11.00" fill="#000000">&lt; 1</text>
<polygon fill="#ffffff" stroke="transparent" points="483,-533.7 483,-552.7 530,-552.7 530,-533.7 483,-533.7"/>
<polygon fill="none" stroke="#000000" points="483,-533.7 483,-552.7 530,-552.7 530,-533.7 483,-533.7"/>
<text text-anchor="start" x="520.8862" y="-539.8" font-family="Helvetica,sans-Serif" font-size="11.00" fill="#000000"> &#160;</text>
<polygon fill="#ffffff" stroke="transparent" points="530,-533.7 530,-552.7 577,-552.7 577,-533.7 530,-533.7"/>
<polygon fill="none" stroke="#000000" points="530,-533.7 530,-552.7 577,-552.7 577,-533.7 530,-533.7"/>
<text text-anchor="start" x="567.8862" y="-539.8" font-family="Helvetica,sans-Serif" font-size="11.00" fill="#000000"> &#160;</text>
</a>
</g>
</g>
<!-- notional_adjustments&#45;&gt;cds_trades -->
<g id="edge12" class="edge">
<title>notional_adjustments:w&#45;&gt;cds_trades:e</title>
<path fill="none" stroke="#000000" d="M378.5727,-564.6107C365.0343,-571.2726 362.5215,-588.3927 350,-605.7 326.8126,-637.7497 348.5581,-684.7 309,-684.7"/>
<polygon fill="#000000" stroke="#000000" points="385.158,-563.2822 393.712,-565.2289 389.079,-562.4911 393,-561.7 393,-561.7 393,-561.7 389.079,-562.4911 392.288,-558.1711 385.158,-563.2822 385.158,-563.2822"/>
<ellipse fill="none" stroke="#000000" cx="382.0212" cy="-563.915" rx="3.2" ry="3.2"/>
</g>
<!-- sa_ccr_trade_mappings -->
<g id="node11" class="node">
<title>sa_ccr_trade_mappings</title>
<g id="a_node11"><a xlink:href="../../tables/sa_ccr_trade_mappings.html" xlink:title="sa_ccr_trade_mappings" target="_top">
<polygon fill="#ffffff" stroke="transparent" points="387.5,-452.2 387.5,-513.2 582.5,-513.2 582.5,-452.2 387.5,-452.2"/>
<polygon fill="#f5f5f5" stroke="transparent" points="388,-489.7 388,-512.7 583,-512.7 583,-489.7 388,-489.7"/>
<polygon fill="none" stroke="#000000" points="388,-489.7 388,-512.7 583,-512.7 583,-489.7 388,-489.7"/>
<text text-anchor="start" x="393" y="-498.3" font-family="Helvetica,sans-Serif" font-weight="bold" font-size="11.00" fill="#000000">sa_ccr_trade_mappings</text>
<text text-anchor="start" x="548.5219" y="-497.8" font-family="Helvetica,sans-Serif" font-size="11.00" fill="#000000">[table]</text>
<polygon fill="none" stroke="#000000" points="388,-470.7 388,-489.7 583,-489.7 583,-470.7 388,-470.7"/>
<text text-anchor="start" x="391" y="-476.8" font-family="Helvetica,sans-Serif" font-size="11.00" fill="#000000">...</text>
<polygon fill="#ffffff" stroke="transparent" points="388,-451.7 388,-470.7 484,-470.7 484,-451.7 388,-451.7"/>
<polygon fill="none" stroke="#000000" points="388,-451.7 388,-470.7 484,-470.7 484,-451.7 388,-451.7"/>
<text text-anchor="start" x="391" y="-457.8" font-family="Helvetica,sans-Serif" font-size="11.00" fill="#000000">&lt; 3</text>
<polygon fill="#ffffff" stroke="transparent" points="484,-451.7 484,-470.7 533,-470.7 533,-451.7 484,-451.7"/>
<polygon fill="none" stroke="#000000" points="484,-451.7 484,-470.7 533,-470.7 533,-451.7 484,-451.7"/>
<text text-anchor="start" x="523.8862" y="-457.8" font-family="Helvetica,sans-Serif" font-size="11.00" fill="#000000"> &#160;</text>
<polygon fill="#ffffff" stroke="transparent" points="533,-451.7 533,-470.7 583,-470.7 583,-451.7 533,-451.7"/>
<polygon fill="none" stroke="#000000" points="533,-451.7 533,-470.7 583,-470.7 583,-451.7 533,-451.7"/>
<text text-anchor="start" x="573.8862" y="-457.8" font-family="Helvetica,sans-Serif" font-size="11.00" fill="#000000"> &#160;</text>
</a>
</g>
</g>
<!-- sa_ccr_trade_mappings&#45;&gt;cds_trades -->
<g id="edge13" class="edge">
<title>sa_ccr_trade_mappings:w&#45;&gt;cds_trades:e</title>
<path fill="none" stroke="#000000" d="M373.5744,-482.9276C361.4178,-489.6863 359.1504,-506.1604 350,-523.7 315.8464,-589.1658 382.8393,-684.7 309,-684.7"/>
<polygon fill="#000000" stroke="#000000" points="380.193,-481.4468 388.786,-483.2131 384.0965,-480.5734 388,-479.7 388,-479.7 388,-479.7 384.0965,-480.5734 387.214,-476.1869 380.193,-481.4468 380.193,-481.4468"/>
<ellipse fill="none" stroke="#000000" cx="377.0702" cy="-482.1455" rx="3.2" ry="3.2"/>
</g>
<!-- trade_amendments -->
<g id="node12" class="node">
<title>trade_amendments</title>
<g id="a_node12"><a xlink:href="../../tables/trade_amendments.html" xlink:title="trade_amendments" target="_top">
<polygon fill="#ffffff" stroke="transparent" points="358,-120.7 358,-430.7 612,-430.7 612,-120.7 358,-120.7"/>
<polygon fill="#f5f5f5" stroke="transparent" points="360,-405.7 360,-428.7 610,-428.7 610,-405.7 360,-405.7"/>
<polygon fill="none" stroke="#000000" points="360,-405.7 360,-428.7 610,-428.7 610,-405.7 360,-405.7"/>
<text text-anchor="start" x="365" y="-414.3" font-family="Helvetica,sans-Serif" font-weight="bold" font-size="11.00" fill="#000000">trade_amendments</text>
<text text-anchor="start" x="575.0437" y="-413.8" font-family="Helvetica,sans-Serif" font-size="11.00" fill="#000000">[table]</text>
<polygon fill="none" stroke="#000000" points="360,-383.7 360,-405.7 520,-405.7 520,-383.7 360,-383.7"/>
<image xlink:href="../../images/primaryKeys.png" width="11px" height="12px" preserveAspectRatio="xMinYMin meet" x="365" y="-400.7"/>
<text text-anchor="start" x="380" y="-390.8" font-family="Helvetica,sans-Serif" font-size="11.00" fill="#000000">id</text>
<polygon fill="none" stroke="#000000" points="520,-383.7 520,-405.7 610,-405.7 610,-383.7 520,-383.7"/>
<text text-anchor="start" x="523" y="-391.4" font-family="Helvetica,sans-Serif" font-size="11.00" fill="#000000">bigserial[19]</text>
<polygon fill="#ffffff" stroke="transparent" points="360,-361.7 360,-383.7 520,-383.7 520,-361.7 360,-361.7"/>
<polygon fill="none" stroke="#000000" points="360,-361.7 360,-383.7 520,-383.7 520,-361.7 360,-361.7"/>
<image xlink:href="../../images/foreignKeys.png" width="11px" height="12px" preserveAspectRatio="xMinYMin meet" x="365" y="-378.7"/>
<text text-anchor="start" x="380" y="-368.8" font-family="Helvetica,sans-Serif" font-size="11.00" fill="#000000">trade_id</text>
<polygon fill="none" stroke="#000000" points="520,-361.7 520,-383.7 610,-383.7 610,-361.7 520,-361.7"/>
<text text-anchor="start" x="523" y="-369.4" font-family="Helvetica,sans-Serif" font-size="11.00" fill="#000000">int8[19]</text>
<polygon fill="none" stroke="#000000" points="360,-339.7 360,-361.7 520,-361.7 520,-339.7 360,-339.7"/>
<text text-anchor="start" x="380" y="-346.8" font-family="Helvetica,sans-Serif" font-size="11.00" fill="#000000">amendment_date</text>
<polygon fill="none" stroke="#000000" points="520,-339.7 520,-361.7 610,-361.7 610,-339.7 520,-339.7"/>
<text text-anchor="start" x="523" y="-347.4" font-family="Helvetica,sans-Serif" font-size="11.00" fill="#000000">date[13]</text>
<polygon fill="none" stroke="#000000" points="360,-317.7 360,-339.7 520,-339.7 520,-317.7 360,-317.7"/>
<text text-anchor="start" x="380" y="-324.8" font-family="Helvetica,sans-Serif" font-size="11.00" fill="#000000">previous_version</text>
<polygon fill="none" stroke="#000000" points="520,-317.7 520,-339.7 610,-339.7 610,-317.7 520,-317.7"/>
<text text-anchor="start" x="523" y="-325.4" font-family="Helvetica,sans-Serif" font-size="11.00" fill="#000000">int4[10]</text>
<polygon fill="#ffffff" stroke="transparent" points="360,-295.7 360,-317.7 520,-317.7 520,-295.7 360,-295.7"/>
<polygon fill="none" stroke="#000000" points="360,-295.7 360,-317.7 520,-317.7 520,-295.7 360,-295.7"/>
<text text-anchor="start" x="380" y="-302.8" font-family="Helvetica,sans-Serif" font-size="11.00" fill="#000000">new_version</text>
<polygon fill="none" stroke="#000000" points="520,-295.7 520,-317.7 610,-317.7 610,-295.7 520,-295.7"/>
<text text-anchor="start" x="523" y="-303.4" font-family="Helvetica,sans-Serif" font-size="11.00" fill="#000000">int4[10]</text>
<polygon fill="none" stroke="#000000" points="360,-273.7 360,-295.7 520,-295.7 520,-273.7 360,-273.7"/>
<text text-anchor="start" x="380" y="-280.8" font-family="Helvetica,sans-Serif" font-size="11.00" fill="#000000">field_name</text>
<polygon fill="none" stroke="#000000" points="520,-273.7 520,-295.7 610,-295.7 610,-273.7 520,-273.7"/>
<text text-anchor="start" x="523" y="-281.4" font-family="Helvetica,sans-Serif" font-size="11.00" fill="#000000">varchar[50]</text>
<polygon fill="none" stroke="#000000" points="360,-251.7 360,-273.7 520,-273.7 520,-251.7 360,-251.7"/>
<text text-anchor="start" x="380" y="-258.8" font-family="Helvetica,sans-Serif" font-size="11.00" fill="#000000">previous_value</text>
<polygon fill="none" stroke="#000000" points="520,-251.7 520,-273.7 610,-273.7 610,-251.7 520,-251.7"/>
<text text-anchor="start" x="522.5043" y="-259.4" font-family="Helvetica,sans-Serif" font-size="11.00" fill="#000000">text[2147483647]</text>
<polygon fill="none" stroke="#000000" points="360,-229.7 360,-251.7 520,-251.7 520,-229.7 360,-229.7"/>
<text text-anchor="start" x="380" y="-236.8" font-family="Helvetica,sans-Serif" font-size="11.00" fill="#000000">new_value</text>
<polygon fill="none" stroke="#000000" points="520,-229.7 520,-251.7 610,-251.7 610,-229.7 520,-229.7"/>
<text text-anchor="start" x="522.5043" y="-237.4" font-family="Helvetica,sans-Serif" font-size="11.00" fill="#000000">text[2147483647]</text>
<polygon fill="none" stroke="#000000" points="360,-207.7 360,-229.7 520,-229.7 520,-207.7 360,-207.7"/>
<text text-anchor="start" x="380" y="-214.8" font-family="Helvetica,sans-Serif" font-size="11.00" fill="#000000">amendment_reason</text>
<polygon fill="none" stroke="#000000" points="520,-207.7 520,-229.7 610,-229.7 610,-207.7 520,-207.7"/>
<text text-anchor="start" x="522.5043" y="-215.4" font-family="Helvetica,sans-Serif" font-size="11.00" fill="#000000">text[2147483647]</text>
<polygon fill="none" stroke="#000000" points="360,-185.7 360,-207.7 520,-207.7 520,-185.7 360,-185.7"/>
<text text-anchor="start" x="380" y="-192.8" font-family="Helvetica,sans-Serif" font-size="11.00" fill="#000000">pnl_impact_estimate</text>
<polygon fill="none" stroke="#000000" points="520,-185.7 520,-207.7 610,-207.7 610,-185.7 520,-185.7"/>
<text text-anchor="start" x="523" y="-193.4" font-family="Helvetica,sans-Serif" font-size="11.00" fill="#000000">numeric[15,2]</text>
<polygon fill="none" stroke="#000000" points="360,-163.7 360,-185.7 520,-185.7 520,-163.7 360,-163.7"/>
<text text-anchor="start" x="380" y="-170.8" font-family="Helvetica,sans-Serif" font-size="11.00" fill="#000000">amended_by</text>
<polygon fill="none" stroke="#000000" points="520,-163.7 520,-185.7 610,-185.7 610,-163.7 520,-163.7"/>
<text text-anchor="start" x="523" y="-171.4" font-family="Helvetica,sans-Serif" font-size="11.00" fill="#000000">varchar[50]</text>
<polygon fill="none" stroke="#000000" points="360,-141.7 360,-163.7 520,-163.7 520,-141.7 360,-141.7"/>
<text text-anchor="start" x="380" y="-148.8" font-family="Helvetica,sans-Serif" font-size="11.00" fill="#000000">created_at</text>
<polygon fill="none" stroke="#000000" points="520,-141.7 520,-163.7 610,-163.7 610,-141.7 520,-141.7"/>
<text text-anchor="start" x="523" y="-149.4" font-family="Helvetica,sans-Serif" font-size="11.00" fill="#000000">timestamp[29,6]</text>
<polygon fill="#ffffff" stroke="transparent" points="360,-122.7 360,-141.7 444,-141.7 444,-122.7 360,-122.7"/>
<polygon fill="none" stroke="#000000" points="360,-122.7 360,-141.7 444,-141.7 444,-122.7 360,-122.7"/>
<text text-anchor="start" x="363" y="-128.8" font-family="Helvetica,sans-Serif" font-size="11.00" fill="#000000">&lt; 1</text>
<polygon fill="#ffffff" stroke="transparent" points="444,-122.7 444,-141.7 520,-141.7 520,-122.7 444,-122.7"/>
<polygon fill="none" stroke="#000000" points="444,-122.7 444,-141.7 520,-141.7 520,-122.7 444,-122.7"/>
<text text-anchor="start" x="510.8862" y="-128.8" font-family="Helvetica,sans-Serif" font-size="11.00" fill="#000000"> &#160;</text>
<polygon fill="#ffffff" stroke="transparent" points="520,-122.7 520,-141.7 610,-141.7 610,-122.7 520,-122.7"/>
<polygon fill="none" stroke="#000000" points="520,-122.7 520,-141.7 610,-141.7 610,-122.7 520,-122.7"/>
<text text-anchor="start" x="591.4053" y="-128.8" font-family="Helvetica,sans-Serif" font-size="11.00" fill="#000000">0 &gt;</text>
<polygon fill="none" stroke="#000000" stroke-width="2" points="359,-121.7 359,-429.7 611,-429.7 611,-121.7 359,-121.7"/>
</a>
</g>
</g>
<!-- trade_amendments&#45;&gt;cds_trades -->
<g id="edge14" class="edge">
<title>trade_amendments:w&#45;&gt;cds_trades:e</title>
<path fill="none" stroke="#000000" d="M346.3073,-378.1153C302.7569,-419.5457 373.765,-684.7 309,-684.7"/>
<polygon fill="#000000" stroke="#000000" points="352.5607,-375.6422 361.324,-376.0477 356.2803,-374.1711 360,-372.7 360,-372.7 360,-372.7 356.2803,-374.1711 358.676,-369.3523 352.5607,-375.6422 352.5607,-375.6422"/>
<ellipse fill="none" stroke="#000000" cx="349.5849" cy="-376.8191" rx="3.2" ry="3.2"/>
</g>
<!-- trade_novations -->
<g id="node13" class="node">
<title>trade_novations</title>
<g id="a_node13"><a xlink:href="../../tables/trade_novations.html" xlink:title="trade_novations" target="_top">
<polygon fill="#ffffff" stroke="transparent" points="411.5,-38.2 411.5,-99.2 558.5,-99.2 558.5,-38.2 411.5,-38.2"/>
<polygon fill="#f5f5f5" stroke="transparent" points="412,-75.7 412,-98.7 559,-98.7 559,-75.7 412,-75.7"/>
<polygon fill="none" stroke="#000000" points="412,-75.7 412,-98.7 559,-98.7 559,-75.7 412,-75.7"/>
<text text-anchor="start" x="417" y="-84.3" font-family="Helvetica,sans-Serif" font-weight="bold" font-size="11.00" fill="#000000">trade_novations</text>
<text text-anchor="start" x="524.5219" y="-83.8" font-family="Helvetica,sans-Serif" font-size="11.00" fill="#000000">[table]</text>
<polygon fill="none" stroke="#000000" points="412,-56.7 412,-75.7 559,-75.7 559,-56.7 412,-56.7"/>
<text text-anchor="start" x="415" y="-62.8" font-family="Helvetica,sans-Serif" font-size="11.00" fill="#000000">...</text>
<polygon fill="#ffffff" stroke="transparent" points="412,-37.7 412,-56.7 484,-56.7 484,-37.7 412,-37.7"/>
<polygon fill="none" stroke="#000000" points="412,-37.7 412,-56.7 484,-56.7 484,-37.7 412,-37.7"/>
<text text-anchor="start" x="415" y="-43.8" font-family="Helvetica,sans-Serif" font-size="11.00" fill="#000000">&lt; 2</text>
<polygon fill="#ffffff" stroke="transparent" points="484,-37.7 484,-56.7 521,-56.7 521,-37.7 484,-37.7"/>
<polygon fill="none" stroke="#000000" points="484,-37.7 484,-56.7 521,-56.7 521,-37.7 484,-37.7"/>
<text text-anchor="start" x="511.8862" y="-43.8" font-family="Helvetica,sans-Serif" font-size="11.00" fill="#000000"> &#160;</text>
<polygon fill="#ffffff" stroke="transparent" points="521,-37.7 521,-56.7 559,-56.7 559,-37.7 521,-37.7"/>
<polygon fill="none" stroke="#000000" points="521,-37.7 521,-56.7 559,-56.7 559,-37.7 521,-37.7"/>
<text text-anchor="start" x="549.8862" y="-43.8" font-family="Helvetica,sans-Serif" font-size="11.00" fill="#000000"> &#160;</text>
</a>
</g>
</g>
<!-- trade_novations&#45;&gt;cds_trades -->
<g id="edge15" class="edge">
<title>trade_novations:w&#45;&gt;cds_trades:e</title>
<path fill="none" stroke="#000000" d="M397.3581,-64.3753C374.3544,-64.7427 363.9127,-78.9666 350,-103.7 318.598,-159.5252 373.0511,-678.7 309,-684.7"/>
<polygon fill="#000000" stroke="#000000" points="404.0325,-64.9791 411.6756,-69.2854 408.0163,-65.3396 412,-65.7 412,-65.7 412,-65.7 408.0163,-65.3396 412.3244,-62.1146 404.0325,-64.9791 404.0325,-64.9791"/>
<ellipse fill="none" stroke="#000000" cx="400.8456" cy="-64.6908" rx="3.2" ry="3.2"/>
</g>
<!-- trade_novations&#45;&gt;cds_trades -->
<g id="edge16" class="edge">
<title>trade_novations:w&#45;&gt;cds_trades:e</title>
<path fill="none" stroke="#000000" d="M398.0033,-69.4509C374.5483,-77.479 364.0421,-91.7365 350,-116.7 318.598,-172.5252 373.0511,-691.7 309,-684.7"/>
<polygon fill="#000000" stroke="#000000" points="404.2727,-67.7708 412.9319,-69.1773 408.1363,-66.7354 412,-65.7 412,-65.7 412,-65.7 408.1363,-66.7354 411.0681,-62.2227 404.2727,-67.7708 404.2727,-67.7708"/>
<ellipse fill="none" stroke="#000000" cx="401.1817" cy="-68.5992" rx="3.2" ry="3.2"/>
</g>
</g>
</svg>
