<?xml version="1.0" encoding="UTF-8" standalone="no"?>
<!DOCTYPE svg PUBLIC "-//W3C//DTD SVG 1.1//EN"
 "http://www.w3.org/Graphics/SVG/1.1/DTD/svg11.dtd">
<!-- Generated by graphviz version 2.40.1 (20161225.0304)
 -->
<!-- Title: oneDegreeRelationshipsDiagram Pages: 1 -->
<svg width="506pt" height="476pt"
 viewBox="0.00 0.00 506.00 475.70" xmlns="http://www.w3.org/2000/svg" xmlns:xlink="http://www.w3.org/1999/xlink">
<g id="graph0" class="graph" transform="scale(1 1) rotate(0) translate(4 471.7)">
<title>oneDegreeRelationshipsDiagram</title>
<polygon fill="#ffffff" stroke="transparent" points="-4,4 -4,-471.7 502,-471.7 502,4 -4,4"/>
<text text-anchor="middle" x="72.4936" y="-7.3" font-family="Helvetica,sans-Serif" font-size="11.00" fill="#000000">Generated by SchemaSpy</text>
<!-- trade_novations -->
<g id="node1" class="node">
<title>trade_novations</title>
<g id="a_node1"><a xlink:href="../../tables/trade_novations.html" xlink:title="trade_novations" target="_top">
<polygon fill="#ffffff" stroke="transparent" points="229,-175.7 229,-463.7 490,-463.7 490,-175.7 229,-175.7"/>
<polygon fill="#f5f5f5" stroke="transparent" points="231.5,-438.7 231.5,-461.7 488.5,-461.7 488.5,-438.7 231.5,-438.7"/>
<polygon fill="none" stroke="#000000" points="231.5,-438.7 231.5,-461.7 488.5,-461.7 488.5,-438.7 231.5,-438.7"/>
<text text-anchor="start" x="236.5" y="-447.3" font-family="Helvetica,sans-Serif" font-weight="bold" font-size="11.00" fill="#000000">trade_novations</text>
<text text-anchor="start" x="453.5437" y="-446.8" font-family="Helvetica,sans-Serif" font-size="11.00" fill="#000000">[table]</text>
<polygon fill="none" stroke="#000000" points="231.5,-416.7 231.5,-438.7 398.5,-438.7 398.5,-416.7 231.5,-416.7"/>
<image xlink:href="../../images/primaryKeys.png" width="11px" height="12px" preserveAspectRatio="xMinYMin meet" x="236.5" y="-433.7"/>
<text text-anchor="start" x="251.5" y="-423.8" font-family="Helvetica,sans-Serif" font-size="11.00" fill="#000000">id</text>
<polygon fill="none" stroke="#000000" points="398.5,-416.7 398.5,-438.7 488.5,-438.7 488.5,-416.7 398.5,-416.7"/>
<text text-anchor="start" x="401.5" y="-424.4" font-family="Helvetica,sans-Serif" font-size="11.00" fill="#000000">bigserial[19]</text>
<polygon fill="#ffffff" stroke="transparent" points="231.5,-394.7 231.5,-416.7 398.5,-416.7 398.5,-394.7 231.5,-394.7"/>
<polygon fill="none" stroke="#000000" points="231.5,-394.7 231.5,-416.7 398.5,-416.7 398.5,-394.7 231.5,-394.7"/>
<image xlink:href="../../images/foreignKeys.png" width="11px" height="12px" preserveAspectRatio="xMinYMin meet" x="236.5" y="-411.7"/>
<text text-anchor="start" x="251.5" y="-401.8" font-family="Helvetica,sans-Serif" font-size="11.00" fill="#000000">original_trade_id</text>
<polygon fill="none" stroke="#000000" points="398.5,-394.7 398.5,-416.7 488.5,-416.7 488.5,-394.7 398.5,-394.7"/>
<text text-anchor="start" x="401.5" y="-402.4" font-family="Helvetica,sans-Serif" font-size="11.00" fill="#000000">int8[19]</text>
<polygon fill="#ffffff" stroke="transparent" points="231.5,-372.7 231.5,-394.7 398.5,-394.7 398.5,-372.7 231.5,-372.7"/>
<polygon fill="none" stroke="#000000" points="231.5,-372.7 231.5,-394.7 398.5,-394.7 398.5,-372.7 231.5,-372.7"/>
<image xlink:href="../../images/foreignKeys.png" width="11px" height="12px" preserveAspectRatio="xMinYMin meet" x="236.5" y="-389.7"/>
<text text-anchor="start" x="251.5" y="-379.8" font-family="Helvetica,sans-Serif" font-size="11.00" fill="#000000">new_trade_id</text>
<polygon fill="none" stroke="#000000" points="398.5,-372.7 398.5,-394.7 488.5,-394.7 488.5,-372.7 398.5,-372.7"/>
<text text-anchor="start" x="401.5" y="-380.4" font-family="Helvetica,sans-Serif" font-size="11.00" fill="#000000">int8[19]</text>
<polygon fill="#ffffff" stroke="transparent" points="231.5,-350.7 231.5,-372.7 398.5,-372.7 398.5,-350.7 231.5,-350.7"/>
<polygon fill="none" stroke="#000000" points="231.5,-350.7 231.5,-372.7 398.5,-372.7 398.5,-350.7 231.5,-350.7"/>
<text text-anchor="start" x="251.5" y="-357.8" font-family="Helvetica,sans-Serif" font-size="11.00" fill="#000000">novation_date</text>
<polygon fill="none" stroke="#000000" points="398.5,-350.7 398.5,-372.7 488.5,-372.7 488.5,-350.7 398.5,-350.7"/>
<text text-anchor="start" x="401.5" y="-358.4" font-family="Helvetica,sans-Serif" font-size="11.00" fill="#000000">date[13]</text>
<polygon fill="none" stroke="#000000" points="231.5,-328.7 231.5,-350.7 398.5,-350.7 398.5,-328.7 231.5,-328.7"/>
<text text-anchor="start" x="251.5" y="-335.8" font-family="Helvetica,sans-Serif" font-size="11.00" fill="#000000">original_counterparty</text>
<polygon fill="none" stroke="#000000" points="398.5,-328.7 398.5,-350.7 488.5,-350.7 488.5,-328.7 398.5,-328.7"/>
<text text-anchor="start" x="401.5" y="-336.4" font-family="Helvetica,sans-Serif" font-size="11.00" fill="#000000">varchar[50]</text>
<polygon fill="none" stroke="#000000" points="231.5,-306.7 231.5,-328.7 398.5,-328.7 398.5,-306.7 231.5,-306.7"/>
<text text-anchor="start" x="251.5" y="-313.8" font-family="Helvetica,sans-Serif" font-size="11.00" fill="#000000">new_counterparty</text>
<polygon fill="none" stroke="#000000" points="398.5,-306.7 398.5,-328.7 488.5,-328.7 488.5,-306.7 398.5,-306.7"/>
<text text-anchor="start" x="401.5" y="-314.4" font-family="Helvetica,sans-Serif" font-size="11.00" fill="#000000">varchar[50]</text>
<polygon fill="none" stroke="#000000" points="231.5,-284.7 231.5,-306.7 398.5,-306.7 398.5,-284.7 231.5,-284.7"/>
<text text-anchor="start" x="251.5" y="-291.8" font-family="Helvetica,sans-Serif" font-size="11.00" fill="#000000">novation_reason</text>
<polygon fill="none" stroke="#000000" points="398.5,-284.7 398.5,-306.7 488.5,-306.7 488.5,-284.7 398.5,-284.7"/>
<text text-anchor="start" x="401.0043" y="-292.4" font-family="Helvetica,sans-Serif" font-size="11.00" fill="#000000">text[2147483647]</text>
<polygon fill="none" stroke="#000000" points="231.5,-262.7 231.5,-284.7 398.5,-284.7 398.5,-262.7 231.5,-262.7"/>
<text text-anchor="start" x="251.5" y="-269.8" font-family="Helvetica,sans-Serif" font-size="11.00" fill="#000000">fee_amount</text>
<polygon fill="none" stroke="#000000" points="398.5,-262.7 398.5,-284.7 488.5,-284.7 488.5,-262.7 398.5,-262.7"/>
<text text-anchor="start" x="401.5" y="-270.4" font-family="Helvetica,sans-Serif" font-size="11.00" fill="#000000">numeric[15,2]</text>
<polygon fill="none" stroke="#000000" points="231.5,-240.7 231.5,-262.7 398.5,-262.7 398.5,-240.7 231.5,-240.7"/>
<text text-anchor="start" x="251.5" y="-247.8" font-family="Helvetica,sans-Serif" font-size="11.00" fill="#000000">fee_currency</text>
<polygon fill="none" stroke="#000000" points="398.5,-240.7 398.5,-262.7 488.5,-262.7 488.5,-240.7 398.5,-240.7"/>
<text text-anchor="start" x="401.5" y="-248.4" font-family="Helvetica,sans-Serif" font-size="11.00" fill="#000000">varchar[3]</text>
<polygon fill="none" stroke="#000000" points="231.5,-218.7 231.5,-240.7 398.5,-240.7 398.5,-218.7 231.5,-218.7"/>
<text text-anchor="start" x="251.5" y="-225.8" font-family="Helvetica,sans-Serif" font-size="11.00" fill="#000000">status</text>
<polygon fill="none" stroke="#000000" points="398.5,-218.7 398.5,-240.7 488.5,-240.7 488.5,-218.7 398.5,-218.7"/>
<text text-anchor="start" x="401.5" y="-226.4" font-family="Helvetica,sans-Serif" font-size="11.00" fill="#000000">varchar[20]</text>
<polygon fill="none" stroke="#000000" points="231.5,-196.7 231.5,-218.7 398.5,-218.7 398.5,-196.7 231.5,-196.7"/>
<text text-anchor="start" x="251.5" y="-203.8" font-family="Helvetica,sans-Serif" font-size="11.00" fill="#000000">created_at</text>
<polygon fill="none" stroke="#000000" points="398.5,-196.7 398.5,-218.7 488.5,-218.7 488.5,-196.7 398.5,-196.7"/>
<text text-anchor="start" x="401.5" y="-204.4" font-family="Helvetica,sans-Serif" font-size="11.00" fill="#000000">timestamp[29,6]</text>
<polygon fill="#ffffff" stroke="transparent" points="231.5,-177.7 231.5,-196.7 319.5,-196.7 319.5,-177.7 231.5,-177.7"/>
<polygon fill="none" stroke="#000000" points="231.5,-177.7 231.5,-196.7 319.5,-196.7 319.5,-177.7 231.5,-177.7"/>
<text text-anchor="start" x="234.5" y="-183.8" font-family="Helvetica,sans-Serif" font-size="11.00" fill="#000000">&lt; 2</text>
<polygon fill="#ffffff" stroke="transparent" points="319.5,-177.7 319.5,-196.7 398.5,-196.7 398.5,-177.7 319.5,-177.7"/>
<polygon fill="none" stroke="#000000" points="319.5,-177.7 319.5,-196.7 398.5,-196.7 398.5,-177.7 319.5,-177.7"/>
<text text-anchor="start" x="389.3862" y="-183.8" font-family="Helvetica,sans-Serif" font-size="11.00" fill="#000000"> &#160;</text>
<polygon fill="#ffffff" stroke="transparent" points="398.5,-177.7 398.5,-196.7 488.5,-196.7 488.5,-177.7 398.5,-177.7"/>
<polygon fill="none" stroke="#000000" points="398.5,-177.7 398.5,-196.7 488.5,-196.7 488.5,-177.7 398.5,-177.7"/>
<text text-anchor="start" x="469.9053" y="-183.8" font-family="Helvetica,sans-Serif" font-size="11.00" fill="#000000">0 &gt;</text>
<polygon fill="none" stroke="#000000" stroke-width="2" points="230,-176.7 230,-462.7 489,-462.7 489,-176.7 230,-176.7"/>
</a>
</g>
</g>
<!-- cds_trades -->
<g id="node2" class="node">
<title>cds_trades</title>
<g id="a_node2"><a xlink:href="../../tables/cds_trades.html" xlink:title="cds_trades" target="_top">
<polygon fill="#ffffff" stroke="transparent" points="8,-38.2 8,-429.2 180,-429.2 180,-38.2 8,-38.2"/>
<polygon fill="#f5f5f5" stroke="transparent" points="8,-405.7 8,-428.7 180,-428.7 180,-405.7 8,-405.7"/>
<polygon fill="none" stroke="#000000" points="8,-405.7 8,-428.7 180,-428.7 180,-405.7 8,-405.7"/>
<text text-anchor="start" x="13" y="-414.3" font-family="Helvetica,sans-Serif" font-weight="bold" font-size="11.00" fill="#000000">cds_trades</text>
<text text-anchor="start" x="145.0437" y="-413.8" font-family="Helvetica,sans-Serif" font-size="11.00" fill="#000000">[table]</text>
<polygon fill="none" stroke="#000000" points="8,-383.7 8,-405.7 180,-405.7 180,-383.7 8,-383.7"/>
<image xlink:href="../../images/primaryKeys.png" width="11px" height="12px" preserveAspectRatio="xMinYMin meet" x="13" y="-400.7"/>
<text text-anchor="start" x="28" y="-390.8" font-family="Helvetica,sans-Serif" font-size="11.00" fill="#000000">id</text>
<polygon fill="#ffffff" stroke="transparent" points="8,-361.7 8,-383.7 180,-383.7 180,-361.7 8,-361.7"/>
<polygon fill="none" stroke="#000000" points="8,-361.7 8,-383.7 180,-383.7 180,-361.7 8,-361.7"/>
<text text-anchor="start" x="28" y="-368.8" font-family="Helvetica,sans-Serif" font-size="11.00" fill="#000000">reference_entity</text>
<polygon fill="#ffffff" stroke="transparent" points="8,-339.7 8,-361.7 180,-361.7 180,-339.7 8,-339.7"/>
<polygon fill="none" stroke="#000000" points="8,-339.7 8,-361.7 180,-361.7 180,-339.7 8,-339.7"/>
<text text-anchor="start" x="28" y="-346.8" font-family="Helvetica,sans-Serif" font-size="11.00" fill="#000000">counterparty</text>
<polygon fill="#ffffff" stroke="transparent" points="8,-317.7 8,-339.7 180,-339.7 180,-317.7 8,-317.7"/>
<polygon fill="none" stroke="#000000" points="8,-317.7 8,-339.7 180,-339.7 180,-317.7 8,-317.7"/>
<text text-anchor="start" x="28" y="-324.8" font-family="Helvetica,sans-Serif" font-size="11.00" fill="#000000">trade_date</text>
<polygon fill="#ffffff" stroke="transparent" points="8,-295.7 8,-317.7 180,-317.7 180,-295.7 8,-295.7"/>
<polygon fill="none" stroke="#000000" points="8,-295.7 8,-317.7 180,-317.7 180,-295.7 8,-295.7"/>
<text text-anchor="start" x="28" y="-302.8" font-family="Helvetica,sans-Serif" font-size="11.00" fill="#000000">created_at</text>
<polygon fill="#ffffff" stroke="transparent" points="8,-273.7 8,-295.7 180,-295.7 180,-273.7 8,-273.7"/>
<polygon fill="none" stroke="#000000" points="8,-273.7 8,-295.7 180,-295.7 180,-273.7 8,-273.7"/>
<image xlink:href="../../images/foreignKeys.png" width="11px" height="12px" preserveAspectRatio="xMinYMin meet" x="13" y="-290.7"/>
<text text-anchor="start" x="28" y="-280.8" font-family="Helvetica,sans-Serif" font-size="11.00" fill="#000000">obligation_id</text>
<polygon fill="#ffffff" stroke="transparent" points="8,-251.7 8,-273.7 180,-273.7 180,-251.7 8,-251.7"/>
<polygon fill="none" stroke="#000000" points="8,-251.7 8,-273.7 180,-273.7 180,-251.7 8,-251.7"/>
<text text-anchor="start" x="28" y="-258.8" font-family="Helvetica,sans-Serif" font-size="11.00" fill="#000000">settlement_type</text>
<polygon fill="#ffffff" stroke="transparent" points="8,-229.7 8,-251.7 180,-251.7 180,-229.7 8,-229.7"/>
<polygon fill="none" stroke="#000000" points="8,-229.7 8,-251.7 180,-251.7 180,-229.7 8,-229.7"/>
<text text-anchor="start" x="28" y="-236.8" font-family="Helvetica,sans-Serif" font-size="11.00" fill="#000000">ccp_name</text>
<polygon fill="#ffffff" stroke="transparent" points="8,-207.7 8,-229.7 180,-229.7 180,-207.7 8,-207.7"/>
<polygon fill="none" stroke="#000000" points="8,-207.7 8,-229.7 180,-229.7 180,-207.7 8,-207.7"/>
<image xlink:href="../../images/foreignKeys.png" width="11px" height="12px" preserveAspectRatio="xMinYMin meet" x="13" y="-224.7"/>
<text text-anchor="start" x="28" y="-214.8" font-family="Helvetica,sans-Serif" font-size="11.00" fill="#000000">original_trade_id</text>
<polygon fill="#ffffff" stroke="transparent" points="8,-185.7 8,-207.7 180,-207.7 180,-185.7 8,-185.7"/>
<polygon fill="none" stroke="#000000" points="8,-185.7 8,-207.7 180,-207.7 180,-185.7 8,-185.7"/>
<text text-anchor="start" x="28" y="-192.8" font-family="Helvetica,sans-Serif" font-size="11.00" fill="#000000">novation_timestamp</text>
<polygon fill="#ffffff" stroke="transparent" points="8,-163.7 8,-185.7 180,-185.7 180,-163.7 8,-163.7"/>
<polygon fill="none" stroke="#000000" points="8,-163.7 8,-185.7 180,-185.7 180,-163.7 8,-163.7"/>
<text text-anchor="start" x="28" y="-170.8" font-family="Helvetica,sans-Serif" font-size="11.00" fill="#000000">novation_reference</text>
<polygon fill="#ffffff" stroke="transparent" points="8,-141.7 8,-163.7 180,-163.7 180,-141.7 8,-141.7"/>
<polygon fill="none" stroke="#000000" points="8,-141.7 8,-163.7 180,-163.7 180,-141.7 8,-141.7"/>
<text text-anchor="start" x="28" y="-148.8" font-family="Helvetica,sans-Serif" font-size="11.00" fill="#000000">uti</text>
<polygon fill="#ffffff" stroke="transparent" points="8,-119.7 8,-141.7 180,-141.7 180,-119.7 8,-119.7"/>
<polygon fill="none" stroke="#000000" points="8,-119.7 8,-141.7 180,-141.7 180,-119.7 8,-119.7"/>
<text text-anchor="start" x="28" y="-126.8" font-family="Helvetica,sans-Serif" font-size="11.00" fill="#000000">usi</text>
<polygon fill="#ffffff" stroke="transparent" points="8,-97.7 8,-119.7 180,-119.7 180,-97.7 8,-97.7"/>
<polygon fill="none" stroke="#000000" points="8,-97.7 8,-119.7 180,-119.7 180,-97.7 8,-97.7"/>
<text text-anchor="start" x="28" y="-104.8" font-family="Helvetica,sans-Serif" font-size="11.00" fill="#000000">is_cleared</text>
<polygon fill="#ffffff" stroke="transparent" points="8,-75.7 8,-97.7 180,-97.7 180,-75.7 8,-75.7"/>
<polygon fill="none" stroke="#000000" points="8,-75.7 8,-97.7 180,-97.7 180,-75.7 8,-75.7"/>
<text text-anchor="start" x="28" y="-82.8" font-family="Helvetica,sans-Serif" font-size="11.00" fill="#000000">mark_to_market_value</text>
<polygon fill="none" stroke="#000000" points="8,-56.7 8,-75.7 180,-75.7 180,-56.7 8,-56.7"/>
<text text-anchor="start" x="11" y="-62.8" font-family="Helvetica,sans-Serif" font-size="11.00" fill="#000000">...</text>
<polygon fill="#ffffff" stroke="transparent" points="8,-37.7 8,-56.7 85,-56.7 85,-37.7 8,-37.7"/>
<polygon fill="none" stroke="#000000" points="8,-37.7 8,-56.7 85,-56.7 85,-37.7 8,-37.7"/>
<text text-anchor="start" x="11" y="-43.8" font-family="Helvetica,sans-Serif" font-size="11.00" fill="#000000">&lt; 2</text>
<polygon fill="#ffffff" stroke="transparent" points="85,-37.7 85,-56.7 125,-56.7 125,-37.7 85,-37.7"/>
<polygon fill="none" stroke="#000000" points="85,-37.7 85,-56.7 125,-56.7 125,-37.7 85,-37.7"/>
<text text-anchor="start" x="115.8862" y="-43.8" font-family="Helvetica,sans-Serif" font-size="11.00" fill="#000000"> &#160;</text>
<polygon fill="#ffffff" stroke="transparent" points="125,-37.7 125,-56.7 180,-56.7 180,-37.7 125,-37.7"/>
<polygon fill="none" stroke="#000000" points="125,-37.7 125,-56.7 180,-56.7 180,-37.7 125,-37.7"/>
<text text-anchor="start" x="155.2904" y="-43.8" font-family="Helvetica,sans-Serif" font-size="11.00" fill="#000000">13 &gt;</text>
</a>
</g>
</g>
<!-- trade_novations&#45;&gt;cds_trades -->
<g id="edge1" class="edge">
<title>trade_novations:w&#45;&gt;cds_trades:e</title>
<path fill="none" stroke="#000000" d="M216.8704,-385.4188C204.5803,-388.5125 197.5539,-394.7 180,-394.7"/>
<polygon fill="#000000" stroke="#000000" points="223.5546,-384.6335 231.9201,-387.2754 227.5273,-384.1668 231.5,-383.7 231.5,-383.7 231.5,-383.7 227.5273,-384.1668 231.0799,-380.1246 223.5546,-384.6335 223.5546,-384.6335"/>
<ellipse fill="none" stroke="#000000" cx="220.3765" cy="-385.0069" rx="3.2" ry="3.2"/>
</g>
<!-- trade_novations&#45;&gt;cds_trades -->
<g id="edge2" class="edge">
<title>trade_novations:w&#45;&gt;cds_trades:e</title>
<path fill="none" stroke="#000000" d="M216.8704,-403.9813C204.5803,-400.8875 197.5539,-394.7 180,-394.7"/>
<polygon fill="#000000" stroke="#000000" points="223.5546,-404.7665 231.0799,-409.2754 227.5273,-405.2332 231.5,-405.7 231.5,-405.7 231.5,-405.7 227.5273,-405.2332 231.9201,-402.1246 223.5546,-404.7665 223.5546,-404.7665"/>
<ellipse fill="none" stroke="#000000" cx="220.3765" cy="-404.3931" rx="3.2" ry="3.2"/>
</g>
</g>
</svg>
