<?xml version="1.0" encoding="UTF-8" standalone="no"?>
<!DOCTYPE svg PUBLIC "-//W3C//DTD SVG 1.1//EN"
 "http://www.w3.org/Graphics/SVG/1.1/DTD/svg11.dtd">
<!-- Generated by graphviz version 2.40.1 (20161225.0304)
 -->
<!-- Title: oneDegreeRelationshipsDiagram Pages: 1 -->
<svg width="499pt" height="465pt"
 viewBox="0.00 0.00 499.00 464.70" xmlns="http://www.w3.org/2000/svg" xmlns:xlink="http://www.w3.org/1999/xlink">
<g id="graph0" class="graph" transform="scale(1 1) rotate(0) translate(4 460.7)">
<title>oneDegreeRelationshipsDiagram</title>
<polygon fill="#ffffff" stroke="transparent" points="-4,4 -4,-460.7 495,-460.7 495,4 -4,4"/>
<text text-anchor="middle" x="72.4936" y="-7.3" font-family="Helvetica,sans-Serif" font-size="11.00" fill="#000000">Generated by SchemaSpy</text>
<!-- trade_amendments -->
<g id="node1" class="node">
<title>trade_amendments</title>
<g id="a_node1"><a xlink:href="../../tables/trade_amendments.html" xlink:title="trade_amendments" target="_top">
<polygon fill="#ffffff" stroke="transparent" points="229,-142.7 229,-452.7 483,-452.7 483,-142.7 229,-142.7"/>
<polygon fill="#f5f5f5" stroke="transparent" points="231,-427.7 231,-450.7 481,-450.7 481,-427.7 231,-427.7"/>
<polygon fill="none" stroke="#000000" points="231,-427.7 231,-450.7 481,-450.7 481,-427.7 231,-427.7"/>
<text text-anchor="start" x="236" y="-436.3" font-family="Helvetica,sans-Serif" font-weight="bold" font-size="11.00" fill="#000000">trade_amendments</text>
<text text-anchor="start" x="446.0437" y="-435.8" font-family="Helvetica,sans-Serif" font-size="11.00" fill="#000000">[table]</text>
<polygon fill="none" stroke="#000000" points="231,-405.7 231,-427.7 391,-427.7 391,-405.7 231,-405.7"/>
<image xlink:href="../../images/primaryKeys.png" width="11px" height="12px" preserveAspectRatio="xMinYMin meet" x="236" y="-422.7"/>
<text text-anchor="start" x="251" y="-412.8" font-family="Helvetica,sans-Serif" font-size="11.00" fill="#000000">id</text>
<polygon fill="none" stroke="#000000" points="391,-405.7 391,-427.7 481,-427.7 481,-405.7 391,-405.7"/>
<text text-anchor="start" x="394" y="-413.4" font-family="Helvetica,sans-Serif" font-size="11.00" fill="#000000">bigserial[19]</text>
<polygon fill="#ffffff" stroke="transparent" points="231,-383.7 231,-405.7 391,-405.7 391,-383.7 231,-383.7"/>
<polygon fill="none" stroke="#000000" points="231,-383.7 231,-405.7 391,-405.7 391,-383.7 231,-383.7"/>
<image xlink:href="../../images/foreignKeys.png" width="11px" height="12px" preserveAspectRatio="xMinYMin meet" x="236" y="-400.7"/>
<text text-anchor="start" x="251" y="-390.8" font-family="Helvetica,sans-Serif" font-size="11.00" fill="#000000">trade_id</text>
<polygon fill="none" stroke="#000000" points="391,-383.7 391,-405.7 481,-405.7 481,-383.7 391,-383.7"/>
<text text-anchor="start" x="394" y="-391.4" font-family="Helvetica,sans-Serif" font-size="11.00" fill="#000000">int8[19]</text>
<polygon fill="none" stroke="#000000" points="231,-361.7 231,-383.7 391,-383.7 391,-361.7 231,-361.7"/>
<text text-anchor="start" x="251" y="-368.8" font-family="Helvetica,sans-Serif" font-size="11.00" fill="#000000">amendment_date</text>
<polygon fill="none" stroke="#000000" points="391,-361.7 391,-383.7 481,-383.7 481,-361.7 391,-361.7"/>
<text text-anchor="start" x="394" y="-369.4" font-family="Helvetica,sans-Serif" font-size="11.00" fill="#000000">date[13]</text>
<polygon fill="none" stroke="#000000" points="231,-339.7 231,-361.7 391,-361.7 391,-339.7 231,-339.7"/>
<text text-anchor="start" x="251" y="-346.8" font-family="Helvetica,sans-Serif" font-size="11.00" fill="#000000">previous_version</text>
<polygon fill="none" stroke="#000000" points="391,-339.7 391,-361.7 481,-361.7 481,-339.7 391,-339.7"/>
<text text-anchor="start" x="394" y="-347.4" font-family="Helvetica,sans-Serif" font-size="11.00" fill="#000000">int4[10]</text>
<polygon fill="#ffffff" stroke="transparent" points="231,-317.7 231,-339.7 391,-339.7 391,-317.7 231,-317.7"/>
<polygon fill="none" stroke="#000000" points="231,-317.7 231,-339.7 391,-339.7 391,-317.7 231,-317.7"/>
<text text-anchor="start" x="251" y="-324.8" font-family="Helvetica,sans-Serif" font-size="11.00" fill="#000000">new_version</text>
<polygon fill="none" stroke="#000000" points="391,-317.7 391,-339.7 481,-339.7 481,-317.7 391,-317.7"/>
<text text-anchor="start" x="394" y="-325.4" font-family="Helvetica,sans-Serif" font-size="11.00" fill="#000000">int4[10]</text>
<polygon fill="none" stroke="#000000" points="231,-295.7 231,-317.7 391,-317.7 391,-295.7 231,-295.7"/>
<text text-anchor="start" x="251" y="-302.8" font-family="Helvetica,sans-Serif" font-size="11.00" fill="#000000">field_name</text>
<polygon fill="none" stroke="#000000" points="391,-295.7 391,-317.7 481,-317.7 481,-295.7 391,-295.7"/>
<text text-anchor="start" x="394" y="-303.4" font-family="Helvetica,sans-Serif" font-size="11.00" fill="#000000">varchar[50]</text>
<polygon fill="none" stroke="#000000" points="231,-273.7 231,-295.7 391,-295.7 391,-273.7 231,-273.7"/>
<text text-anchor="start" x="251" y="-280.8" font-family="Helvetica,sans-Serif" font-size="11.00" fill="#000000">previous_value</text>
<polygon fill="none" stroke="#000000" points="391,-273.7 391,-295.7 481,-295.7 481,-273.7 391,-273.7"/>
<text text-anchor="start" x="393.5043" y="-281.4" font-family="Helvetica,sans-Serif" font-size="11.00" fill="#000000">text[2147483647]</text>
<polygon fill="none" stroke="#000000" points="231,-251.7 231,-273.7 391,-273.7 391,-251.7 231,-251.7"/>
<text text-anchor="start" x="251" y="-258.8" font-family="Helvetica,sans-Serif" font-size="11.00" fill="#000000">new_value</text>
<polygon fill="none" stroke="#000000" points="391,-251.7 391,-273.7 481,-273.7 481,-251.7 391,-251.7"/>
<text text-anchor="start" x="393.5043" y="-259.4" font-family="Helvetica,sans-Serif" font-size="11.00" fill="#000000">text[2147483647]</text>
<polygon fill="none" stroke="#000000" points="231,-229.7 231,-251.7 391,-251.7 391,-229.7 231,-229.7"/>
<text text-anchor="start" x="251" y="-236.8" font-family="Helvetica,sans-Serif" font-size="11.00" fill="#000000">amendment_reason</text>
<polygon fill="none" stroke="#000000" points="391,-229.7 391,-251.7 481,-251.7 481,-229.7 391,-229.7"/>
<text text-anchor="start" x="393.5043" y="-237.4" font-family="Helvetica,sans-Serif" font-size="11.00" fill="#000000">text[2147483647]</text>
<polygon fill="none" stroke="#000000" points="231,-207.7 231,-229.7 391,-229.7 391,-207.7 231,-207.7"/>
<text text-anchor="start" x="251" y="-214.8" font-family="Helvetica,sans-Serif" font-size="11.00" fill="#000000">pnl_impact_estimate</text>
<polygon fill="none" stroke="#000000" points="391,-207.7 391,-229.7 481,-229.7 481,-207.7 391,-207.7"/>
<text text-anchor="start" x="394" y="-215.4" font-family="Helvetica,sans-Serif" font-size="11.00" fill="#000000">numeric[15,2]</text>
<polygon fill="none" stroke="#000000" points="231,-185.7 231,-207.7 391,-207.7 391,-185.7 231,-185.7"/>
<text text-anchor="start" x="251" y="-192.8" font-family="Helvetica,sans-Serif" font-size="11.00" fill="#000000">amended_by</text>
<polygon fill="none" stroke="#000000" points="391,-185.7 391,-207.7 481,-207.7 481,-185.7 391,-185.7"/>
<text text-anchor="start" x="394" y="-193.4" font-family="Helvetica,sans-Serif" font-size="11.00" fill="#000000">varchar[50]</text>
<polygon fill="none" stroke="#000000" points="231,-163.7 231,-185.7 391,-185.7 391,-163.7 231,-163.7"/>
<text text-anchor="start" x="251" y="-170.8" font-family="Helvetica,sans-Serif" font-size="11.00" fill="#000000">created_at</text>
<polygon fill="none" stroke="#000000" points="391,-163.7 391,-185.7 481,-185.7 481,-163.7 391,-163.7"/>
<text text-anchor="start" x="394" y="-171.4" font-family="Helvetica,sans-Serif" font-size="11.00" fill="#000000">timestamp[29,6]</text>
<polygon fill="#ffffff" stroke="transparent" points="231,-144.7 231,-163.7 315,-163.7 315,-144.7 231,-144.7"/>
<polygon fill="none" stroke="#000000" points="231,-144.7 231,-163.7 315,-163.7 315,-144.7 231,-144.7"/>
<text text-anchor="start" x="234" y="-150.8" font-family="Helvetica,sans-Serif" font-size="11.00" fill="#000000">&lt; 1</text>
<polygon fill="#ffffff" stroke="transparent" points="315,-144.7 315,-163.7 391,-163.7 391,-144.7 315,-144.7"/>
<polygon fill="none" stroke="#000000" points="315,-144.7 315,-163.7 391,-163.7 391,-144.7 315,-144.7"/>
<text text-anchor="start" x="381.8862" y="-150.8" font-family="Helvetica,sans-Serif" font-size="11.00" fill="#000000"> &#160;</text>
<polygon fill="#ffffff" stroke="transparent" points="391,-144.7 391,-163.7 481,-163.7 481,-144.7 391,-144.7"/>
<polygon fill="none" stroke="#000000" points="391,-144.7 391,-163.7 481,-163.7 481,-144.7 391,-144.7"/>
<text text-anchor="start" x="462.4053" y="-150.8" font-family="Helvetica,sans-Serif" font-size="11.00" fill="#000000">0 &gt;</text>
<polygon fill="none" stroke="#000000" stroke-width="2" points="230,-143.7 230,-451.7 482,-451.7 482,-143.7 230,-143.7"/>
</a>
</g>
</g>
<!-- cds_trades -->
<g id="node2" class="node">
<title>cds_trades</title>
<g id="a_node2"><a xlink:href="../../tables/cds_trades.html" xlink:title="cds_trades" target="_top">
<polygon fill="#ffffff" stroke="transparent" points="8,-38.2 8,-429.2 180,-429.2 180,-38.2 8,-38.2"/>
<polygon fill="#f5f5f5" stroke="transparent" points="8,-405.7 8,-428.7 180,-428.7 180,-405.7 8,-405.7"/>
<polygon fill="none" stroke="#000000" points="8,-405.7 8,-428.7 180,-428.7 180,-405.7 8,-405.7"/>
<text text-anchor="start" x="13" y="-414.3" font-family="Helvetica,sans-Serif" font-weight="bold" font-size="11.00" fill="#000000">cds_trades</text>
<text text-anchor="start" x="145.0437" y="-413.8" font-family="Helvetica,sans-Serif" font-size="11.00" fill="#000000">[table]</text>
<polygon fill="none" stroke="#000000" points="8,-383.7 8,-405.7 180,-405.7 180,-383.7 8,-383.7"/>
<image xlink:href="../../images/primaryKeys.png" width="11px" height="12px" preserveAspectRatio="xMinYMin meet" x="13" y="-400.7"/>
<text text-anchor="start" x="28" y="-390.8" font-family="Helvetica,sans-Serif" font-size="11.00" fill="#000000">id</text>
<polygon fill="#ffffff" stroke="transparent" points="8,-361.7 8,-383.7 180,-383.7 180,-361.7 8,-361.7"/>
<polygon fill="none" stroke="#000000" points="8,-361.7 8,-383.7 180,-383.7 180,-361.7 8,-361.7"/>
<text text-anchor="start" x="28" y="-368.8" font-family="Helvetica,sans-Serif" font-size="11.00" fill="#000000">reference_entity</text>
<polygon fill="#ffffff" stroke="transparent" points="8,-339.7 8,-361.7 180,-361.7 180,-339.7 8,-339.7"/>
<polygon fill="none" stroke="#000000" points="8,-339.7 8,-361.7 180,-361.7 180,-339.7 8,-339.7"/>
<text text-anchor="start" x="28" y="-346.8" font-family="Helvetica,sans-Serif" font-size="11.00" fill="#000000">counterparty</text>
<polygon fill="#ffffff" stroke="transparent" points="8,-317.7 8,-339.7 180,-339.7 180,-317.7 8,-317.7"/>
<polygon fill="none" stroke="#000000" points="8,-317.7 8,-339.7 180,-339.7 180,-317.7 8,-317.7"/>
<text text-anchor="start" x="28" y="-324.8" font-family="Helvetica,sans-Serif" font-size="11.00" fill="#000000">trade_date</text>
<polygon fill="#ffffff" stroke="transparent" points="8,-295.7 8,-317.7 180,-317.7 180,-295.7 8,-295.7"/>
<polygon fill="none" stroke="#000000" points="8,-295.7 8,-317.7 180,-317.7 180,-295.7 8,-295.7"/>
<text text-anchor="start" x="28" y="-302.8" font-family="Helvetica,sans-Serif" font-size="11.00" fill="#000000">created_at</text>
<polygon fill="#ffffff" stroke="transparent" points="8,-273.7 8,-295.7 180,-295.7 180,-273.7 8,-273.7"/>
<polygon fill="none" stroke="#000000" points="8,-273.7 8,-295.7 180,-295.7 180,-273.7 8,-273.7"/>
<image xlink:href="../../images/foreignKeys.png" width="11px" height="12px" preserveAspectRatio="xMinYMin meet" x="13" y="-290.7"/>
<text text-anchor="start" x="28" y="-280.8" font-family="Helvetica,sans-Serif" font-size="11.00" fill="#000000">obligation_id</text>
<polygon fill="#ffffff" stroke="transparent" points="8,-251.7 8,-273.7 180,-273.7 180,-251.7 8,-251.7"/>
<polygon fill="none" stroke="#000000" points="8,-251.7 8,-273.7 180,-273.7 180,-251.7 8,-251.7"/>
<text text-anchor="start" x="28" y="-258.8" font-family="Helvetica,sans-Serif" font-size="11.00" fill="#000000">settlement_type</text>
<polygon fill="#ffffff" stroke="transparent" points="8,-229.7 8,-251.7 180,-251.7 180,-229.7 8,-229.7"/>
<polygon fill="none" stroke="#000000" points="8,-229.7 8,-251.7 180,-251.7 180,-229.7 8,-229.7"/>
<text text-anchor="start" x="28" y="-236.8" font-family="Helvetica,sans-Serif" font-size="11.00" fill="#000000">ccp_name</text>
<polygon fill="#ffffff" stroke="transparent" points="8,-207.7 8,-229.7 180,-229.7 180,-207.7 8,-207.7"/>
<polygon fill="none" stroke="#000000" points="8,-207.7 8,-229.7 180,-229.7 180,-207.7 8,-207.7"/>
<image xlink:href="../../images/foreignKeys.png" width="11px" height="12px" preserveAspectRatio="xMinYMin meet" x="13" y="-224.7"/>
<text text-anchor="start" x="28" y="-214.8" font-family="Helvetica,sans-Serif" font-size="11.00" fill="#000000">original_trade_id</text>
<polygon fill="#ffffff" stroke="transparent" points="8,-185.7 8,-207.7 180,-207.7 180,-185.7 8,-185.7"/>
<polygon fill="none" stroke="#000000" points="8,-185.7 8,-207.7 180,-207.7 180,-185.7 8,-185.7"/>
<text text-anchor="start" x="28" y="-192.8" font-family="Helvetica,sans-Serif" font-size="11.00" fill="#000000">novation_timestamp</text>
<polygon fill="#ffffff" stroke="transparent" points="8,-163.7 8,-185.7 180,-185.7 180,-163.7 8,-163.7"/>
<polygon fill="none" stroke="#000000" points="8,-163.7 8,-185.7 180,-185.7 180,-163.7 8,-163.7"/>
<text text-anchor="start" x="28" y="-170.8" font-family="Helvetica,sans-Serif" font-size="11.00" fill="#000000">novation_reference</text>
<polygon fill="#ffffff" stroke="transparent" points="8,-141.7 8,-163.7 180,-163.7 180,-141.7 8,-141.7"/>
<polygon fill="none" stroke="#000000" points="8,-141.7 8,-163.7 180,-163.7 180,-141.7 8,-141.7"/>
<text text-anchor="start" x="28" y="-148.8" font-family="Helvetica,sans-Serif" font-size="11.00" fill="#000000">uti</text>
<polygon fill="#ffffff" stroke="transparent" points="8,-119.7 8,-141.7 180,-141.7 180,-119.7 8,-119.7"/>
<polygon fill="none" stroke="#000000" points="8,-119.7 8,-141.7 180,-141.7 180,-119.7 8,-119.7"/>
<text text-anchor="start" x="28" y="-126.8" font-family="Helvetica,sans-Serif" font-size="11.00" fill="#000000">usi</text>
<polygon fill="#ffffff" stroke="transparent" points="8,-97.7 8,-119.7 180,-119.7 180,-97.7 8,-97.7"/>
<polygon fill="none" stroke="#000000" points="8,-97.7 8,-119.7 180,-119.7 180,-97.7 8,-97.7"/>
<text text-anchor="start" x="28" y="-104.8" font-family="Helvetica,sans-Serif" font-size="11.00" fill="#000000">is_cleared</text>
<polygon fill="#ffffff" stroke="transparent" points="8,-75.7 8,-97.7 180,-97.7 180,-75.7 8,-75.7"/>
<polygon fill="none" stroke="#000000" points="8,-75.7 8,-97.7 180,-97.7 180,-75.7 8,-75.7"/>
<text text-anchor="start" x="28" y="-82.8" font-family="Helvetica,sans-Serif" font-size="11.00" fill="#000000">mark_to_market_value</text>
<polygon fill="none" stroke="#000000" points="8,-56.7 8,-75.7 180,-75.7 180,-56.7 8,-56.7"/>
<text text-anchor="start" x="11" y="-62.8" font-family="Helvetica,sans-Serif" font-size="11.00" fill="#000000">...</text>
<polygon fill="#ffffff" stroke="transparent" points="8,-37.7 8,-56.7 85,-56.7 85,-37.7 8,-37.7"/>
<polygon fill="none" stroke="#000000" points="8,-37.7 8,-56.7 85,-56.7 85,-37.7 8,-37.7"/>
<text text-anchor="start" x="11" y="-43.8" font-family="Helvetica,sans-Serif" font-size="11.00" fill="#000000">&lt; 2</text>
<polygon fill="#ffffff" stroke="transparent" points="85,-37.7 85,-56.7 125,-56.7 125,-37.7 85,-37.7"/>
<polygon fill="none" stroke="#000000" points="85,-37.7 85,-56.7 125,-56.7 125,-37.7 85,-37.7"/>
<text text-anchor="start" x="115.8862" y="-43.8" font-family="Helvetica,sans-Serif" font-size="11.00" fill="#000000"> &#160;</text>
<polygon fill="#ffffff" stroke="transparent" points="125,-37.7 125,-56.7 180,-56.7 180,-37.7 125,-37.7"/>
<polygon fill="none" stroke="#000000" points="125,-37.7 125,-56.7 180,-56.7 180,-37.7 125,-37.7"/>
<text text-anchor="start" x="155.2904" y="-43.8" font-family="Helvetica,sans-Serif" font-size="11.00" fill="#000000">13 &gt;</text>
</a>
</g>
</g>
<!-- trade_amendments&#45;&gt;cds_trades -->
<g id="edge1" class="edge">
<title>trade_amendments:w&#45;&gt;cds_trades:e</title>
<path fill="none" stroke="#000000" d="M216.276,-394.7C204.2815,-394.7 196.8229,-394.7 180,-394.7"/>
<polygon fill="#000000" stroke="#000000" points="223,-394.7001 231,-398.3 227,-394.7 231,-394.7 231,-394.7 231,-394.7 227,-394.7 231,-391.1 223,-394.7001 223,-394.7001"/>
<ellipse fill="none" stroke="#000000" cx="219.8" cy="-394.7001" rx="3.2" ry="3.2"/>
</g>
</g>
</svg>
