<?xml version="1.0" encoding="UTF-8" standalone="no"?>
<!DOCTYPE svg PUBLIC "-//W3C//DTD SVG 1.1//EN"
 "http://www.w3.org/Graphics/SVG/1.1/DTD/svg11.dtd">
<!-- Generated by graphviz version 2.40.1 (20161225.0304)
 -->
<!-- Title: twoDegreesRelationshipsDiagram Pages: 1 -->
<svg width="974pt" height="996pt"
 viewBox="0.00 0.00 974.00 995.70" xmlns="http://www.w3.org/2000/svg" xmlns:xlink="http://www.w3.org/1999/xlink">
<g id="graph0" class="graph" transform="scale(1 1) rotate(0) translate(4 991.7)">
<title>twoDegreesRelationshipsDiagram</title>
<polygon fill="#ffffff" stroke="transparent" points="-4,4 -4,-991.7 970,-991.7 970,4 -4,4"/>
<text text-anchor="middle" x="72.4936" y="-7.3" font-family="Helvetica,sans-Serif" font-size="11.00" fill="#000000">Generated by SchemaSpy</text>
<!-- accrual_events -->
<g id="node1" class="node">
<title>accrual_events</title>
<g id="a_node1"><a xlink:href="../../tables/accrual_events.html" xlink:title="accrual_events" target="_top">
<polygon fill="#ffffff" stroke="transparent" points="743.5,-918.7 743.5,-979.7 882.5,-979.7 882.5,-918.7 743.5,-918.7"/>
<polygon fill="#f5f5f5" stroke="transparent" points="744,-956.2 744,-979.2 883,-979.2 883,-956.2 744,-956.2"/>
<polygon fill="none" stroke="#000000" points="744,-956.2 744,-979.2 883,-979.2 883,-956.2 744,-956.2"/>
<text text-anchor="start" x="749" y="-964.8" font-family="Helvetica,sans-Serif" font-weight="bold" font-size="11.00" fill="#000000">accrual_events</text>
<text text-anchor="start" x="848.5219" y="-964.3" font-family="Helvetica,sans-Serif" font-size="11.00" fill="#000000">[table]</text>
<polygon fill="none" stroke="#000000" points="744,-937.2 744,-956.2 883,-956.2 883,-937.2 744,-937.2"/>
<text text-anchor="start" x="747" y="-943.3" font-family="Helvetica,sans-Serif" font-size="11.00" fill="#000000">...</text>
<polygon fill="#ffffff" stroke="transparent" points="744,-918.2 744,-937.2 812,-937.2 812,-918.2 744,-918.2"/>
<polygon fill="none" stroke="#000000" points="744,-918.2 744,-937.2 812,-937.2 812,-918.2 744,-918.2"/>
<text text-anchor="start" x="747" y="-924.3" font-family="Helvetica,sans-Serif" font-size="11.00" fill="#000000">&lt; 2</text>
<polygon fill="#ffffff" stroke="transparent" points="812,-918.2 812,-937.2 847,-937.2 847,-918.2 812,-918.2"/>
<polygon fill="none" stroke="#000000" points="812,-918.2 812,-937.2 847,-937.2 847,-918.2 812,-918.2"/>
<text text-anchor="start" x="837.8862" y="-924.3" font-family="Helvetica,sans-Serif" font-size="11.00" fill="#000000"> &#160;</text>
<polygon fill="#ffffff" stroke="transparent" points="847,-918.2 847,-937.2 883,-937.2 883,-918.2 847,-918.2"/>
<polygon fill="none" stroke="#000000" points="847,-918.2 847,-937.2 883,-937.2 883,-918.2 847,-918.2"/>
<text text-anchor="start" x="873.8862" y="-924.3" font-family="Helvetica,sans-Serif" font-size="11.00" fill="#000000"> &#160;</text>
</a>
</g>
</g>
<!-- coupon_periods -->
<g id="node2" class="node">
<title>coupon_periods</title>
<g id="a_node2"><a xlink:href="../../tables/coupon_periods.html" xlink:title="coupon_periods" target="_top">
<polygon fill="#ffffff" stroke="transparent" points="416,-922.7 416,-983.7 561,-983.7 561,-922.7 416,-922.7"/>
<polygon fill="#f5f5f5" stroke="transparent" points="416.5,-960.2 416.5,-983.2 561.5,-983.2 561.5,-960.2 416.5,-960.2"/>
<polygon fill="none" stroke="#000000" points="416.5,-960.2 416.5,-983.2 561.5,-983.2 561.5,-960.2 416.5,-960.2"/>
<text text-anchor="start" x="421.5" y="-968.8" font-family="Helvetica,sans-Serif" font-weight="bold" font-size="11.00" fill="#000000">coupon_periods</text>
<text text-anchor="start" x="527.0219" y="-968.3" font-family="Helvetica,sans-Serif" font-size="11.00" fill="#000000">[table]</text>
<polygon fill="none" stroke="#000000" points="416.5,-941.2 416.5,-960.2 561.5,-960.2 561.5,-941.2 416.5,-941.2"/>
<text text-anchor="start" x="419.5" y="-947.3" font-family="Helvetica,sans-Serif" font-size="11.00" fill="#000000">...</text>
<polygon fill="#ffffff" stroke="transparent" points="416.5,-922.2 416.5,-941.2 482.5,-941.2 482.5,-922.2 416.5,-922.2"/>
<polygon fill="none" stroke="#000000" points="416.5,-922.2 416.5,-941.2 482.5,-941.2 482.5,-922.2 416.5,-922.2"/>
<text text-anchor="start" x="419.5" y="-928.3" font-family="Helvetica,sans-Serif" font-size="11.00" fill="#000000">&lt; 1</text>
<polygon fill="#ffffff" stroke="transparent" points="482.5,-922.2 482.5,-941.2 517.5,-941.2 517.5,-922.2 482.5,-922.2"/>
<polygon fill="none" stroke="#000000" points="482.5,-922.2 482.5,-941.2 517.5,-941.2 517.5,-922.2 482.5,-922.2"/>
<text text-anchor="start" x="508.3862" y="-928.3" font-family="Helvetica,sans-Serif" font-size="11.00" fill="#000000"> &#160;</text>
<polygon fill="#ffffff" stroke="transparent" points="517.5,-922.2 517.5,-941.2 561.5,-941.2 561.5,-922.2 517.5,-922.2"/>
<polygon fill="none" stroke="#000000" points="517.5,-922.2 517.5,-941.2 561.5,-941.2 561.5,-922.2 517.5,-922.2"/>
<text text-anchor="start" x="542.9053" y="-928.3" font-family="Helvetica,sans-Serif" font-size="11.00" fill="#000000">1 &gt;</text>
</a>
</g>
</g>
<!-- accrual_events&#45;&gt;coupon_periods -->
<g id="edge1" class="edge">
<title>accrual_events:w&#45;&gt;coupon_periods:e</title>
<path fill="none" stroke="#000000" d="M729.4719,-946.2449C660.1017,-946.6844 637.5599,-950.2 561.5,-950.2"/>
<polygon fill="#000000" stroke="#000000" points="736,-946.2248 744.0112,-949.8 740,-946.2124 744,-946.2 744,-946.2 744,-946.2 740,-946.2124 743.9888,-942.6 736,-946.2248 736,-946.2248"/>
<ellipse fill="none" stroke="#000000" cx="732.8001" cy="-946.2347" rx="3.2" ry="3.2"/>
</g>
<!-- cds_trades -->
<g id="node3" class="node">
<title>cds_trades</title>
<g id="a_node3"><a xlink:href="../../tables/cds_trades.html" xlink:title="cds_trades" target="_top">
<polygon fill="#ffffff" stroke="transparent" points="137,-305.7 137,-696.7 309,-696.7 309,-305.7 137,-305.7"/>
<polygon fill="#f5f5f5" stroke="transparent" points="137,-673.2 137,-696.2 309,-696.2 309,-673.2 137,-673.2"/>
<polygon fill="none" stroke="#000000" points="137,-673.2 137,-696.2 309,-696.2 309,-673.2 137,-673.2"/>
<text text-anchor="start" x="142" y="-681.8" font-family="Helvetica,sans-Serif" font-weight="bold" font-size="11.00" fill="#000000">cds_trades</text>
<text text-anchor="start" x="274.0437" y="-681.3" font-family="Helvetica,sans-Serif" font-size="11.00" fill="#000000">[table]</text>
<polygon fill="none" stroke="#000000" points="137,-651.2 137,-673.2 309,-673.2 309,-651.2 137,-651.2"/>
<image xlink:href="../../images/primaryKeys.png" width="11px" height="12px" preserveAspectRatio="xMinYMin meet" x="142" y="-668.2"/>
<text text-anchor="start" x="157" y="-658.3" font-family="Helvetica,sans-Serif" font-size="11.00" fill="#000000">id</text>
<polygon fill="#ffffff" stroke="transparent" points="137,-629.2 137,-651.2 309,-651.2 309,-629.2 137,-629.2"/>
<polygon fill="none" stroke="#000000" points="137,-629.2 137,-651.2 309,-651.2 309,-629.2 137,-629.2"/>
<text text-anchor="start" x="157" y="-636.3" font-family="Helvetica,sans-Serif" font-size="11.00" fill="#000000">reference_entity</text>
<polygon fill="#ffffff" stroke="transparent" points="137,-607.2 137,-629.2 309,-629.2 309,-607.2 137,-607.2"/>
<polygon fill="none" stroke="#000000" points="137,-607.2 137,-629.2 309,-629.2 309,-607.2 137,-607.2"/>
<text text-anchor="start" x="157" y="-614.3" font-family="Helvetica,sans-Serif" font-size="11.00" fill="#000000">counterparty</text>
<polygon fill="#ffffff" stroke="transparent" points="137,-585.2 137,-607.2 309,-607.2 309,-585.2 137,-585.2"/>
<polygon fill="none" stroke="#000000" points="137,-585.2 137,-607.2 309,-607.2 309,-585.2 137,-585.2"/>
<text text-anchor="start" x="157" y="-592.3" font-family="Helvetica,sans-Serif" font-size="11.00" fill="#000000">trade_date</text>
<polygon fill="#ffffff" stroke="transparent" points="137,-563.2 137,-585.2 309,-585.2 309,-563.2 137,-563.2"/>
<polygon fill="none" stroke="#000000" points="137,-563.2 137,-585.2 309,-585.2 309,-563.2 137,-563.2"/>
<text text-anchor="start" x="157" y="-570.3" font-family="Helvetica,sans-Serif" font-size="11.00" fill="#000000">created_at</text>
<polygon fill="#ffffff" stroke="transparent" points="137,-541.2 137,-563.2 309,-563.2 309,-541.2 137,-541.2"/>
<polygon fill="none" stroke="#000000" points="137,-541.2 137,-563.2 309,-563.2 309,-541.2 137,-541.2"/>
<image xlink:href="../../images/foreignKeys.png" width="11px" height="12px" preserveAspectRatio="xMinYMin meet" x="142" y="-558.2"/>
<text text-anchor="start" x="157" y="-548.3" font-family="Helvetica,sans-Serif" font-size="11.00" fill="#000000">obligation_id</text>
<polygon fill="#ffffff" stroke="transparent" points="137,-519.2 137,-541.2 309,-541.2 309,-519.2 137,-519.2"/>
<polygon fill="none" stroke="#000000" points="137,-519.2 137,-541.2 309,-541.2 309,-519.2 137,-519.2"/>
<text text-anchor="start" x="157" y="-526.3" font-family="Helvetica,sans-Serif" font-size="11.00" fill="#000000">settlement_type</text>
<polygon fill="#ffffff" stroke="transparent" points="137,-497.2 137,-519.2 309,-519.2 309,-497.2 137,-497.2"/>
<polygon fill="none" stroke="#000000" points="137,-497.2 137,-519.2 309,-519.2 309,-497.2 137,-497.2"/>
<text text-anchor="start" x="157" y="-504.3" font-family="Helvetica,sans-Serif" font-size="11.00" fill="#000000">ccp_name</text>
<polygon fill="#ffffff" stroke="transparent" points="137,-475.2 137,-497.2 309,-497.2 309,-475.2 137,-475.2"/>
<polygon fill="none" stroke="#000000" points="137,-475.2 137,-497.2 309,-497.2 309,-475.2 137,-475.2"/>
<image xlink:href="../../images/foreignKeys.png" width="11px" height="12px" preserveAspectRatio="xMinYMin meet" x="142" y="-492.2"/>
<text text-anchor="start" x="157" y="-482.3" font-family="Helvetica,sans-Serif" font-size="11.00" fill="#000000">original_trade_id</text>
<polygon fill="#ffffff" stroke="transparent" points="137,-453.2 137,-475.2 309,-475.2 309,-453.2 137,-453.2"/>
<polygon fill="none" stroke="#000000" points="137,-453.2 137,-475.2 309,-475.2 309,-453.2 137,-453.2"/>
<text text-anchor="start" x="157" y="-460.3" font-family="Helvetica,sans-Serif" font-size="11.00" fill="#000000">novation_timestamp</text>
<polygon fill="#ffffff" stroke="transparent" points="137,-431.2 137,-453.2 309,-453.2 309,-431.2 137,-431.2"/>
<polygon fill="none" stroke="#000000" points="137,-431.2 137,-453.2 309,-453.2 309,-431.2 137,-431.2"/>
<text text-anchor="start" x="157" y="-438.3" font-family="Helvetica,sans-Serif" font-size="11.00" fill="#000000">novation_reference</text>
<polygon fill="#ffffff" stroke="transparent" points="137,-409.2 137,-431.2 309,-431.2 309,-409.2 137,-409.2"/>
<polygon fill="none" stroke="#000000" points="137,-409.2 137,-431.2 309,-431.2 309,-409.2 137,-409.2"/>
<text text-anchor="start" x="157" y="-416.3" font-family="Helvetica,sans-Serif" font-size="11.00" fill="#000000">uti</text>
<polygon fill="#ffffff" stroke="transparent" points="137,-387.2 137,-409.2 309,-409.2 309,-387.2 137,-387.2"/>
<polygon fill="none" stroke="#000000" points="137,-387.2 137,-409.2 309,-409.2 309,-387.2 137,-387.2"/>
<text text-anchor="start" x="157" y="-394.3" font-family="Helvetica,sans-Serif" font-size="11.00" fill="#000000">usi</text>
<polygon fill="#ffffff" stroke="transparent" points="137,-365.2 137,-387.2 309,-387.2 309,-365.2 137,-365.2"/>
<polygon fill="none" stroke="#000000" points="137,-365.2 137,-387.2 309,-387.2 309,-365.2 137,-365.2"/>
<text text-anchor="start" x="157" y="-372.3" font-family="Helvetica,sans-Serif" font-size="11.00" fill="#000000">is_cleared</text>
<polygon fill="#ffffff" stroke="transparent" points="137,-343.2 137,-365.2 309,-365.2 309,-343.2 137,-343.2"/>
<polygon fill="none" stroke="#000000" points="137,-343.2 137,-365.2 309,-365.2 309,-343.2 137,-343.2"/>
<text text-anchor="start" x="157" y="-350.3" font-family="Helvetica,sans-Serif" font-size="11.00" fill="#000000">mark_to_market_value</text>
<polygon fill="none" stroke="#000000" points="137,-324.2 137,-343.2 309,-343.2 309,-324.2 137,-324.2"/>
<text text-anchor="start" x="140" y="-330.3" font-family="Helvetica,sans-Serif" font-size="11.00" fill="#000000">...</text>
<polygon fill="#ffffff" stroke="transparent" points="137,-305.2 137,-324.2 214,-324.2 214,-305.2 137,-305.2"/>
<polygon fill="none" stroke="#000000" points="137,-305.2 137,-324.2 214,-324.2 214,-305.2 137,-305.2"/>
<text text-anchor="start" x="140" y="-311.3" font-family="Helvetica,sans-Serif" font-size="11.00" fill="#000000">&lt; 2</text>
<polygon fill="#ffffff" stroke="transparent" points="214,-305.2 214,-324.2 254,-324.2 254,-305.2 214,-305.2"/>
<polygon fill="none" stroke="#000000" points="214,-305.2 214,-324.2 254,-324.2 254,-305.2 214,-305.2"/>
<text text-anchor="start" x="244.8862" y="-311.3" font-family="Helvetica,sans-Serif" font-size="11.00" fill="#000000"> &#160;</text>
<polygon fill="#ffffff" stroke="transparent" points="254,-305.2 254,-324.2 309,-324.2 309,-305.2 254,-305.2"/>
<polygon fill="none" stroke="#000000" points="254,-305.2 254,-324.2 309,-324.2 309,-305.2 254,-305.2"/>
<text text-anchor="start" x="284.2904" y="-311.3" font-family="Helvetica,sans-Serif" font-size="11.00" fill="#000000">13 &gt;</text>
</a>
</g>
</g>
<!-- accrual_events&#45;&gt;cds_trades -->
<g id="edge2" class="edge">
<title>accrual_events:w&#45;&gt;cds_trades:e</title>
<path fill="none" stroke="#000000" d="M729.5949,-945.5936C687.5796,-941.8721 674.9858,-921.9618 627,-912.2 566.2534,-899.8423 395.3024,-921.515 350,-879.2 278.2723,-812.2021 407.1508,-662.2 309,-662.2"/>
<polygon fill="#000000" stroke="#000000" points="736.0071,-945.8635 743.8486,-949.7968 740.0035,-946.0317 744,-946.2 744,-946.2 744,-946.2 740.0035,-946.0317 744.1514,-942.6032 736.0071,-945.8635 736.0071,-945.8635"/>
<ellipse fill="none" stroke="#000000" cx="732.8099" cy="-945.7289" rx="3.2" ry="3.2"/>
</g>
<!-- coupon_periods&#45;&gt;cds_trades -->
<g id="edge11" class="edge">
<title>coupon_periods:w&#45;&gt;cds_trades:e</title>
<path fill="none" stroke="#000000" d="M402.0023,-949.2912C377.6598,-945.8983 366.3949,-932.8825 350,-908.2 319.336,-862.0353 364.4207,-662.2 309,-662.2"/>
<polygon fill="#000000" stroke="#000000" points="408.5157,-949.6995 416.2748,-953.7929 412.5078,-949.9497 416.5,-950.2 416.5,-950.2 416.5,-950.2 412.5078,-949.9497 416.7252,-946.6071 408.5157,-949.6995 408.5157,-949.6995"/>
<ellipse fill="none" stroke="#000000" cx="405.3219" cy="-949.4993" rx="3.2" ry="3.2"/>
</g>
<!-- bonds -->
<g id="node8" class="node">
<title>bonds</title>
<g id="a_node8"><a xlink:href="../../tables/bonds.html" xlink:title="bonds" target="_top">
<polygon fill="#ffffff" stroke="transparent" points="8,-524.7 8,-585.7 88,-585.7 88,-524.7 8,-524.7"/>
<polygon fill="#f5f5f5" stroke="transparent" points="8,-562.2 8,-585.2 88,-585.2 88,-562.2 8,-562.2"/>
<polygon fill="none" stroke="#000000" points="8,-562.2 8,-585.2 88,-585.2 88,-562.2 8,-562.2"/>
<text text-anchor="start" x="13" y="-570.8" font-family="Helvetica,sans-Serif" font-weight="bold" font-size="11.00" fill="#000000">bonds</text>
<text text-anchor="start" x="53.5219" y="-570.3" font-family="Helvetica,sans-Serif" font-size="11.00" fill="#000000">[table]</text>
<polygon fill="none" stroke="#000000" points="8,-543.2 8,-562.2 88,-562.2 88,-543.2 8,-543.2"/>
<text text-anchor="start" x="11" y="-549.3" font-family="Helvetica,sans-Serif" font-size="11.00" fill="#000000">...</text>
<polygon fill="#ffffff" stroke="transparent" points="8,-524.2 8,-543.2 37,-543.2 37,-524.2 8,-524.2"/>
<polygon fill="none" stroke="#000000" points="8,-524.2 8,-543.2 37,-543.2 37,-524.2 8,-524.2"/>
<text text-anchor="start" x="11" y="-530.3" font-family="Helvetica,sans-Serif" font-size="11.00" fill="#000000"> &#160;</text>
<polygon fill="#ffffff" stroke="transparent" points="37,-524.2 37,-543.2 58,-543.2 58,-524.2 37,-524.2"/>
<polygon fill="none" stroke="#000000" points="37,-524.2 37,-543.2 58,-543.2 58,-524.2 37,-524.2"/>
<text text-anchor="start" x="48.8862" y="-530.3" font-family="Helvetica,sans-Serif" font-size="11.00" fill="#000000"> &#160;</text>
<polygon fill="#ffffff" stroke="transparent" points="58,-524.2 58,-543.2 88,-543.2 88,-524.2 58,-524.2"/>
<polygon fill="none" stroke="#000000" points="58,-524.2 58,-543.2 88,-543.2 88,-524.2 58,-524.2"/>
<text text-anchor="start" x="69.4053" y="-530.3" font-family="Helvetica,sans-Serif" font-size="11.00" fill="#000000">2 &gt;</text>
</a>
</g>
</g>
<!-- cds_trades&#45;&gt;bonds -->
<g id="edge9" class="edge">
<title>cds_trades:w&#45;&gt;bonds:e</title>
<path fill="none" stroke="#000000" d="M122.4909,-552.2C111.1774,-552.2 103.9931,-552.2 88,-552.2"/>
<polygon fill="#000000" stroke="#000000" points="129,-552.2001 137,-555.8 133,-552.2 137,-552.2 137,-552.2 137,-552.2 133,-552.2 137,-548.6 129,-552.2001 129,-552.2001"/>
<ellipse fill="none" stroke="#000000" cx="125.8" cy="-552.2001" rx="3.2" ry="3.2"/>
</g>
<!-- cds_cash_settlements -->
<g id="node4" class="node">
<title>cds_cash_settlements</title>
<g id="a_node4"><a xlink:href="../../tables/cds_cash_settlements.html" xlink:title="cds_cash_settlements" target="_top">
<polygon fill="#ffffff" stroke="transparent" points="720.5,-833.7 720.5,-894.7 905.5,-894.7 905.5,-833.7 720.5,-833.7"/>
<polygon fill="#f5f5f5" stroke="transparent" points="721,-871.2 721,-894.2 906,-894.2 906,-871.2 721,-871.2"/>
<polygon fill="none" stroke="#000000" points="721,-871.2 721,-894.2 906,-894.2 906,-871.2 721,-871.2"/>
<text text-anchor="start" x="726" y="-879.8" font-family="Helvetica,sans-Serif" font-weight="bold" font-size="11.00" fill="#000000">cds_cash_settlements</text>
<text text-anchor="start" x="871.5219" y="-879.3" font-family="Helvetica,sans-Serif" font-size="11.00" fill="#000000">[table]</text>
<polygon fill="none" stroke="#000000" points="721,-852.2 721,-871.2 906,-871.2 906,-852.2 721,-852.2"/>
<text text-anchor="start" x="724" y="-858.3" font-family="Helvetica,sans-Serif" font-size="11.00" fill="#000000">...</text>
<polygon fill="#ffffff" stroke="transparent" points="721,-833.2 721,-852.2 812,-852.2 812,-833.2 721,-833.2"/>
<polygon fill="none" stroke="#000000" points="721,-833.2 721,-852.2 812,-852.2 812,-833.2 721,-833.2"/>
<text text-anchor="start" x="724" y="-839.3" font-family="Helvetica,sans-Serif" font-size="11.00" fill="#000000">&lt; 2</text>
<polygon fill="#ffffff" stroke="transparent" points="812,-833.2 812,-852.2 859,-852.2 859,-833.2 812,-833.2"/>
<polygon fill="none" stroke="#000000" points="812,-833.2 812,-852.2 859,-852.2 859,-833.2 812,-833.2"/>
<text text-anchor="start" x="849.8862" y="-839.3" font-family="Helvetica,sans-Serif" font-size="11.00" fill="#000000"> &#160;</text>
<polygon fill="#ffffff" stroke="transparent" points="859,-833.2 859,-852.2 906,-852.2 906,-833.2 859,-833.2"/>
<polygon fill="none" stroke="#000000" points="859,-833.2 859,-852.2 906,-852.2 906,-833.2 859,-833.2"/>
<text text-anchor="start" x="896.8862" y="-839.3" font-family="Helvetica,sans-Serif" font-size="11.00" fill="#000000"> &#160;</text>
</a>
</g>
</g>
<!-- cds_cash_settlements&#45;&gt;cds_trades -->
<g id="edge4" class="edge">
<title>cds_cash_settlements:w&#45;&gt;cds_trades:e</title>
<path fill="none" stroke="#000000" d="M706.5296,-861.595C614.8655,-866.0984 410.3135,-906.6927 350,-857.2 281.5379,-801.0208 397.5616,-662.2 309,-662.2"/>
<polygon fill="#000000" stroke="#000000" points="713.003,-861.4183 721.0982,-864.7987 717.0015,-861.3092 721,-861.2 721,-861.2 721,-861.2 717.0015,-861.3092 720.9018,-857.6013 713.003,-861.4183 713.003,-861.4183"/>
<ellipse fill="none" stroke="#000000" cx="709.8042" cy="-861.5057" rx="3.2" ry="3.2"/>
</g>
<!-- cds_credit_events -->
<g id="node5" class="node">
<title>cds_credit_events</title>
<g id="a_node5"><a xlink:href="../../tables/cds_credit_events.html" xlink:title="cds_credit_events" target="_top">
<polygon fill="#ffffff" stroke="transparent" points="409.5,-785.7 409.5,-846.7 567.5,-846.7 567.5,-785.7 409.5,-785.7"/>
<polygon fill="#f5f5f5" stroke="transparent" points="409.5,-823.2 409.5,-846.2 567.5,-846.2 567.5,-823.2 409.5,-823.2"/>
<polygon fill="none" stroke="#000000" points="409.5,-823.2 409.5,-846.2 567.5,-846.2 567.5,-823.2 409.5,-823.2"/>
<text text-anchor="start" x="414.5" y="-831.8" font-family="Helvetica,sans-Serif" font-weight="bold" font-size="11.00" fill="#000000">cds_credit_events</text>
<text text-anchor="start" x="533.0219" y="-831.3" font-family="Helvetica,sans-Serif" font-size="11.00" fill="#000000">[table]</text>
<polygon fill="none" stroke="#000000" points="409.5,-804.2 409.5,-823.2 567.5,-823.2 567.5,-804.2 409.5,-804.2"/>
<text text-anchor="start" x="412.5" y="-810.3" font-family="Helvetica,sans-Serif" font-size="11.00" fill="#000000">...</text>
<polygon fill="#ffffff" stroke="transparent" points="409.5,-785.2 409.5,-804.2 482.5,-804.2 482.5,-785.2 409.5,-785.2"/>
<polygon fill="none" stroke="#000000" points="409.5,-785.2 409.5,-804.2 482.5,-804.2 482.5,-785.2 409.5,-785.2"/>
<text text-anchor="start" x="412.5" y="-791.3" font-family="Helvetica,sans-Serif" font-size="11.00" fill="#000000">&lt; 1</text>
<polygon fill="#ffffff" stroke="transparent" points="482.5,-785.2 482.5,-804.2 520.5,-804.2 520.5,-785.2 482.5,-785.2"/>
<polygon fill="none" stroke="#000000" points="482.5,-785.2 482.5,-804.2 520.5,-804.2 520.5,-785.2 482.5,-785.2"/>
<text text-anchor="start" x="511.3862" y="-791.3" font-family="Helvetica,sans-Serif" font-size="11.00" fill="#000000"> &#160;</text>
<polygon fill="#ffffff" stroke="transparent" points="520.5,-785.2 520.5,-804.2 567.5,-804.2 567.5,-785.2 520.5,-785.2"/>
<polygon fill="none" stroke="#000000" points="520.5,-785.2 520.5,-804.2 567.5,-804.2 567.5,-785.2 520.5,-785.2"/>
<text text-anchor="start" x="548.9053" y="-791.3" font-family="Helvetica,sans-Serif" font-size="11.00" fill="#000000">2 &gt;</text>
</a>
</g>
</g>
<!-- cds_cash_settlements&#45;&gt;cds_credit_events -->
<g id="edge3" class="edge">
<title>cds_cash_settlements:w&#45;&gt;cds_credit_events:e</title>
<path fill="none" stroke="#000000" d="M710.566,-860.8412C648.2924,-856.4488 635.3501,-813.2 567.5,-813.2"/>
<polygon fill="#000000" stroke="#000000" points="720.338,-857.1749 720.063,-865.1701 718.4639,-865.1151 718.7389,-857.1199 720.338,-857.1749"/>
<polyline fill="none" stroke="#000000" points="721,-861.2 717.0024,-861.0625 "/>
<ellipse fill="none" stroke="#000000" cx="713.8043" cy="-860.9525" rx="3.2" ry="3.2"/>
</g>
<!-- cds_credit_events&#45;&gt;cds_trades -->
<g id="edge5" class="edge">
<title>cds_credit_events:w&#45;&gt;cds_trades:e</title>
<path fill="none" stroke="#000000" d="M395.1301,-811.8468C374.3147,-807.4344 366.4689,-792.5098 350,-771.2 318.3499,-730.2466 360.7582,-662.2 309,-662.2"/>
<polygon fill="#000000" stroke="#000000" points="401.5352,-812.4499 409.1625,-816.7841 405.5176,-812.825 409.5,-813.2 409.5,-813.2 409.5,-813.2 405.5176,-812.825 409.8375,-809.6159 401.5352,-812.4499 401.5352,-812.4499"/>
<ellipse fill="none" stroke="#000000" cx="398.3493" cy="-812.1499" rx="3.2" ry="3.2"/>
</g>
<!-- cds_physical_settlement_instructions -->
<g id="node6" class="node">
<title>cds_physical_settlement_instructions</title>
<g id="a_node6"><a xlink:href="../../tables/cds_physical_settlement_instructions.html" xlink:title="cds_physical_settlement_instructions" target="_top">
<polygon fill="#ffffff" stroke="transparent" points="668,-745.7 668,-806.7 958,-806.7 958,-745.7 668,-745.7"/>
<polygon fill="#f5f5f5" stroke="transparent" points="668,-783.2 668,-806.2 958,-806.2 958,-783.2 668,-783.2"/>
<polygon fill="none" stroke="#000000" points="668,-783.2 668,-806.2 958,-806.2 958,-783.2 668,-783.2"/>
<text text-anchor="start" x="673" y="-791.8" font-family="Helvetica,sans-Serif" font-weight="bold" font-size="11.00" fill="#000000">cds_physical_settlement_instructions</text>
<text text-anchor="start" x="923.5219" y="-791.3" font-family="Helvetica,sans-Serif" font-size="11.00" fill="#000000">[table]</text>
<polygon fill="none" stroke="#000000" points="668,-764.2 668,-783.2 958,-783.2 958,-764.2 668,-764.2"/>
<text text-anchor="start" x="671" y="-770.3" font-family="Helvetica,sans-Serif" font-size="11.00" fill="#000000">...</text>
<polygon fill="#ffffff" stroke="transparent" points="668,-745.2 668,-764.2 811,-764.2 811,-745.2 668,-745.2"/>
<polygon fill="none" stroke="#000000" points="668,-745.2 668,-764.2 811,-764.2 811,-745.2 668,-745.2"/>
<text text-anchor="start" x="671" y="-751.3" font-family="Helvetica,sans-Serif" font-size="11.00" fill="#000000">&lt; 2</text>
<polygon fill="#ffffff" stroke="transparent" points="811,-745.2 811,-764.2 884,-764.2 884,-745.2 811,-745.2"/>
<polygon fill="none" stroke="#000000" points="811,-745.2 811,-764.2 884,-764.2 884,-745.2 811,-745.2"/>
<text text-anchor="start" x="874.8862" y="-751.3" font-family="Helvetica,sans-Serif" font-size="11.00" fill="#000000"> &#160;</text>
<polygon fill="#ffffff" stroke="transparent" points="884,-745.2 884,-764.2 958,-764.2 958,-745.2 884,-745.2"/>
<polygon fill="none" stroke="#000000" points="884,-745.2 884,-764.2 958,-764.2 958,-745.2 884,-745.2"/>
<text text-anchor="start" x="948.8862" y="-751.3" font-family="Helvetica,sans-Serif" font-size="11.00" fill="#000000"> &#160;</text>
</a>
</g>
</g>
<!-- cds_physical_settlement_instructions&#45;&gt;cds_trades -->
<g id="edge7" class="edge">
<title>cds_physical_settlement_instructions:w&#45;&gt;cds_trades:e</title>
<path fill="none" stroke="#000000" d="M653.4895,-773.0502C588.8393,-772.0187 376.6036,-765.458 350,-747.2 315.4179,-723.4663 350.9429,-662.2 309,-662.2"/>
<polygon fill="#000000" stroke="#000000" points="660.0004,-773.1174 667.9628,-776.7998 664.0002,-773.1587 668,-773.2 668,-773.2 668,-773.2 664.0002,-773.1587 668.0372,-769.6002 660.0004,-773.1174 660.0004,-773.1174"/>
<ellipse fill="none" stroke="#000000" cx="656.8006" cy="-773.0843" rx="3.2" ry="3.2"/>
</g>
<!-- cds_physical_settlement_instructions&#45;&gt;cds_credit_events -->
<g id="edge6" class="edge">
<title>cds_physical_settlement_instructions:w&#45;&gt;cds_credit_events:e</title>
<path fill="none" stroke="#000000" d="M657.4914,-773.8943C618.9788,-779.2059 611.8187,-813.2 567.5,-813.2"/>
<polygon fill="#000000" stroke="#000000" points="666.938,-769.2614 667.4655,-777.244 665.869,-777.3495 665.3415,-769.3669 666.938,-769.2614"/>
<polyline fill="none" stroke="#000000" points="668,-773.2 664.0087,-773.4637 "/>
<ellipse fill="none" stroke="#000000" cx="660.8157" cy="-773.6747" rx="3.2" ry="3.2"/>
</g>
<!-- cds_portfolio_constituents -->
<g id="node7" class="node">
<title>cds_portfolio_constituents</title>
<g id="a_node7"><a xlink:href="../../tables/cds_portfolio_constituents.html" xlink:title="cds_portfolio_constituents" target="_top">
<polygon fill="#ffffff" stroke="transparent" points="380,-675.7 380,-736.7 597,-736.7 597,-675.7 380,-675.7"/>
<polygon fill="#f5f5f5" stroke="transparent" points="380.5,-713.2 380.5,-736.2 597.5,-736.2 597.5,-713.2 380.5,-713.2"/>
<polygon fill="none" stroke="#000000" points="380.5,-713.2 380.5,-736.2 597.5,-736.2 597.5,-713.2 380.5,-713.2"/>
<text text-anchor="start" x="385.5" y="-721.8" font-family="Helvetica,sans-Serif" font-weight="bold" font-size="11.00" fill="#000000">cds_portfolio_constituents</text>
<text text-anchor="start" x="563.0219" y="-721.3" font-family="Helvetica,sans-Serif" font-size="11.00" fill="#000000">[table]</text>
<polygon fill="none" stroke="#000000" points="380.5,-694.2 380.5,-713.2 597.5,-713.2 597.5,-694.2 380.5,-694.2"/>
<text text-anchor="start" x="383.5" y="-700.3" font-family="Helvetica,sans-Serif" font-size="11.00" fill="#000000">...</text>
<polygon fill="#ffffff" stroke="transparent" points="380.5,-675.2 380.5,-694.2 487.5,-694.2 487.5,-675.2 380.5,-675.2"/>
<polygon fill="none" stroke="#000000" points="380.5,-675.2 380.5,-694.2 487.5,-694.2 487.5,-675.2 380.5,-675.2"/>
<text text-anchor="start" x="383.5" y="-681.3" font-family="Helvetica,sans-Serif" font-size="11.00" fill="#000000">&lt; 2</text>
<polygon fill="#ffffff" stroke="transparent" points="487.5,-675.2 487.5,-694.2 542.5,-694.2 542.5,-675.2 487.5,-675.2"/>
<polygon fill="none" stroke="#000000" points="487.5,-675.2 487.5,-694.2 542.5,-694.2 542.5,-675.2 487.5,-675.2"/>
<text text-anchor="start" x="533.3862" y="-681.3" font-family="Helvetica,sans-Serif" font-size="11.00" fill="#000000"> &#160;</text>
<polygon fill="#ffffff" stroke="transparent" points="542.5,-675.2 542.5,-694.2 597.5,-694.2 597.5,-675.2 542.5,-675.2"/>
<polygon fill="none" stroke="#000000" points="542.5,-675.2 542.5,-694.2 597.5,-694.2 597.5,-675.2 542.5,-675.2"/>
<text text-anchor="start" x="588.3862" y="-681.3" font-family="Helvetica,sans-Serif" font-size="11.00" fill="#000000"> &#160;</text>
</a>
</g>
</g>
<!-- cds_portfolio_constituents&#45;&gt;cds_trades -->
<g id="edge8" class="edge">
<title>cds_portfolio_constituents:w&#45;&gt;cds_trades:e</title>
<path fill="none" stroke="#000000" d="M366.16,-700.6353C343.5145,-691.6594 340.051,-662.2 309,-662.2"/>
<polygon fill="#000000" stroke="#000000" points="372.625,-701.7915 379.8662,-706.7438 376.5625,-702.4957 380.5,-703.2 380.5,-703.2 380.5,-703.2 376.5625,-702.4957 381.1338,-699.6562 372.625,-701.7915 372.625,-701.7915"/>
<ellipse fill="none" stroke="#000000" cx="369.4749" cy="-701.2281" rx="3.2" ry="3.2"/>
</g>
<!-- compression_proposal_items -->
<g id="node9" class="node">
<title>compression_proposal_items</title>
<g id="a_node9"><a xlink:href="../../tables/compression_proposal_items.html" xlink:title="compression_proposal_items" target="_top">
<polygon fill="#ffffff" stroke="transparent" points="372,-593.7 372,-654.7 605,-654.7 605,-593.7 372,-593.7"/>
<polygon fill="#f5f5f5" stroke="transparent" points="372.5,-631.2 372.5,-654.2 605.5,-654.2 605.5,-631.2 372.5,-631.2"/>
<polygon fill="none" stroke="#000000" points="372.5,-631.2 372.5,-654.2 605.5,-654.2 605.5,-631.2 372.5,-631.2"/>
<text text-anchor="start" x="377.5" y="-639.8" font-family="Helvetica,sans-Serif" font-weight="bold" font-size="11.00" fill="#000000">compression_proposal_items</text>
<text text-anchor="start" x="571.0219" y="-639.3" font-family="Helvetica,sans-Serif" font-size="11.00" fill="#000000">[table]</text>
<polygon fill="none" stroke="#000000" points="372.5,-612.2 372.5,-631.2 605.5,-631.2 605.5,-612.2 372.5,-612.2"/>
<text text-anchor="start" x="375.5" y="-618.3" font-family="Helvetica,sans-Serif" font-size="11.00" fill="#000000">...</text>
<polygon fill="#ffffff" stroke="transparent" points="372.5,-593.2 372.5,-612.2 487.5,-612.2 487.5,-593.2 372.5,-593.2"/>
<polygon fill="none" stroke="#000000" points="372.5,-593.2 372.5,-612.2 487.5,-612.2 487.5,-593.2 372.5,-593.2"/>
<text text-anchor="start" x="375.5" y="-599.3" font-family="Helvetica,sans-Serif" font-size="11.00" fill="#000000">&lt; 2</text>
<polygon fill="#ffffff" stroke="transparent" points="487.5,-593.2 487.5,-612.2 546.5,-612.2 546.5,-593.2 487.5,-593.2"/>
<polygon fill="none" stroke="#000000" points="487.5,-593.2 487.5,-612.2 546.5,-612.2 546.5,-593.2 487.5,-593.2"/>
<text text-anchor="start" x="537.3862" y="-599.3" font-family="Helvetica,sans-Serif" font-size="11.00" fill="#000000"> &#160;</text>
<polygon fill="#ffffff" stroke="transparent" points="546.5,-593.2 546.5,-612.2 605.5,-612.2 605.5,-593.2 546.5,-593.2"/>
<polygon fill="none" stroke="#000000" points="546.5,-593.2 546.5,-612.2 605.5,-612.2 605.5,-593.2 546.5,-593.2"/>
<text text-anchor="start" x="596.3862" y="-599.3" font-family="Helvetica,sans-Serif" font-size="11.00" fill="#000000"> &#160;</text>
</a>
</g>
</g>
<!-- compression_proposal_items&#45;&gt;cds_trades -->
<g id="edge10" class="edge">
<title>compression_proposal_items:w&#45;&gt;cds_trades:e</title>
<path fill="none" stroke="#000000" d="M358.374,-624.2817C339.0932,-633.8167 336.9511,-662.2 309,-662.2"/>
<polygon fill="#000000" stroke="#000000" points="364.6838,-622.9052 373.2673,-624.7173 368.5919,-622.0526 372.5,-621.2 372.5,-621.2 372.5,-621.2 368.5919,-622.0526 371.7327,-617.6827 364.6838,-622.9052 364.6838,-622.9052"/>
<ellipse fill="none" stroke="#000000" cx="361.5574" cy="-623.5873" rx="3.2" ry="3.2"/>
</g>
<!-- notional_adjustments -->
<g id="node10" class="node">
<title>notional_adjustments</title>
<g id="a_node10"><a xlink:href="../../tables/notional_adjustments.html" xlink:title="notional_adjustments" target="_top">
<polygon fill="#ffffff" stroke="transparent" points="396.5,-511.7 396.5,-572.7 580.5,-572.7 580.5,-511.7 396.5,-511.7"/>
<polygon fill="#f5f5f5" stroke="transparent" points="396.5,-549.2 396.5,-572.2 580.5,-572.2 580.5,-549.2 396.5,-549.2"/>
<polygon fill="none" stroke="#000000" points="396.5,-549.2 396.5,-572.2 580.5,-572.2 580.5,-549.2 396.5,-549.2"/>
<text text-anchor="start" x="401.5" y="-557.8" font-family="Helvetica,sans-Serif" font-weight="bold" font-size="11.00" fill="#000000">notional_adjustments</text>
<text text-anchor="start" x="546.0219" y="-557.3" font-family="Helvetica,sans-Serif" font-size="11.00" fill="#000000">[table]</text>
<polygon fill="none" stroke="#000000" points="396.5,-530.2 396.5,-549.2 580.5,-549.2 580.5,-530.2 396.5,-530.2"/>
<text text-anchor="start" x="399.5" y="-536.3" font-family="Helvetica,sans-Serif" font-size="11.00" fill="#000000">...</text>
<polygon fill="#ffffff" stroke="transparent" points="396.5,-511.2 396.5,-530.2 486.5,-530.2 486.5,-511.2 396.5,-511.2"/>
<polygon fill="none" stroke="#000000" points="396.5,-511.2 396.5,-530.2 486.5,-530.2 486.5,-511.2 396.5,-511.2"/>
<text text-anchor="start" x="399.5" y="-517.3" font-family="Helvetica,sans-Serif" font-size="11.00" fill="#000000">&lt; 1</text>
<polygon fill="#ffffff" stroke="transparent" points="486.5,-511.2 486.5,-530.2 533.5,-530.2 533.5,-511.2 486.5,-511.2"/>
<polygon fill="none" stroke="#000000" points="486.5,-511.2 486.5,-530.2 533.5,-530.2 533.5,-511.2 486.5,-511.2"/>
<text text-anchor="start" x="524.3862" y="-517.3" font-family="Helvetica,sans-Serif" font-size="11.00" fill="#000000"> &#160;</text>
<polygon fill="#ffffff" stroke="transparent" points="533.5,-511.2 533.5,-530.2 580.5,-530.2 580.5,-511.2 533.5,-511.2"/>
<polygon fill="none" stroke="#000000" points="533.5,-511.2 533.5,-530.2 580.5,-530.2 580.5,-511.2 533.5,-511.2"/>
<text text-anchor="start" x="571.3862" y="-517.3" font-family="Helvetica,sans-Serif" font-size="11.00" fill="#000000"> &#160;</text>
</a>
</g>
</g>
<!-- notional_adjustments&#45;&gt;cds_trades -->
<g id="edge12" class="edge">
<title>notional_adjustments:w&#45;&gt;cds_trades:e</title>
<path fill="none" stroke="#000000" d="M382.203,-541.6676C367.0044,-547.904 363.6466,-565.0939 350,-583.2 326.1903,-614.7902 348.5581,-662.2 309,-662.2"/>
<polygon fill="#000000" stroke="#000000" points="388.6166,-540.5607 397.1123,-542.7475 392.5583,-539.8804 396.5,-539.2 396.5,-539.2 396.5,-539.2 392.5583,-539.8804 395.8877,-535.6525 388.6166,-540.5607 388.6166,-540.5607"/>
<ellipse fill="none" stroke="#000000" cx="385.4632" cy="-541.105" rx="3.2" ry="3.2"/>
</g>
<!-- sa_ccr_trade_mappings -->
<g id="node11" class="node">
<title>sa_ccr_trade_mappings</title>
<g id="a_node11"><a xlink:href="../../tables/sa_ccr_trade_mappings.html" xlink:title="sa_ccr_trade_mappings" target="_top">
<polygon fill="#ffffff" stroke="transparent" points="391,-429.7 391,-490.7 586,-490.7 586,-429.7 391,-429.7"/>
<polygon fill="#f5f5f5" stroke="transparent" points="391.5,-467.2 391.5,-490.2 586.5,-490.2 586.5,-467.2 391.5,-467.2"/>
<polygon fill="none" stroke="#000000" points="391.5,-467.2 391.5,-490.2 586.5,-490.2 586.5,-467.2 391.5,-467.2"/>
<text text-anchor="start" x="396.5" y="-475.8" font-family="Helvetica,sans-Serif" font-weight="bold" font-size="11.00" fill="#000000">sa_ccr_trade_mappings</text>
<text text-anchor="start" x="552.0219" y="-475.3" font-family="Helvetica,sans-Serif" font-size="11.00" fill="#000000">[table]</text>
<polygon fill="none" stroke="#000000" points="391.5,-448.2 391.5,-467.2 586.5,-467.2 586.5,-448.2 391.5,-448.2"/>
<text text-anchor="start" x="394.5" y="-454.3" font-family="Helvetica,sans-Serif" font-size="11.00" fill="#000000">...</text>
<polygon fill="#ffffff" stroke="transparent" points="391.5,-429.2 391.5,-448.2 487.5,-448.2 487.5,-429.2 391.5,-429.2"/>
<polygon fill="none" stroke="#000000" points="391.5,-429.2 391.5,-448.2 487.5,-448.2 487.5,-429.2 391.5,-429.2"/>
<text text-anchor="start" x="394.5" y="-435.3" font-family="Helvetica,sans-Serif" font-size="11.00" fill="#000000">&lt; 3</text>
<polygon fill="#ffffff" stroke="transparent" points="487.5,-429.2 487.5,-448.2 536.5,-448.2 536.5,-429.2 487.5,-429.2"/>
<polygon fill="none" stroke="#000000" points="487.5,-429.2 487.5,-448.2 536.5,-448.2 536.5,-429.2 487.5,-429.2"/>
<text text-anchor="start" x="527.3862" y="-435.3" font-family="Helvetica,sans-Serif" font-size="11.00" fill="#000000"> &#160;</text>
<polygon fill="#ffffff" stroke="transparent" points="536.5,-429.2 536.5,-448.2 586.5,-448.2 586.5,-429.2 536.5,-429.2"/>
<polygon fill="none" stroke="#000000" points="536.5,-429.2 536.5,-448.2 586.5,-448.2 586.5,-429.2 536.5,-429.2"/>
<text text-anchor="start" x="577.3862" y="-435.3" font-family="Helvetica,sans-Serif" font-size="11.00" fill="#000000"> &#160;</text>
</a>
</g>
</g>
<!-- sa_ccr_trade_mappings&#45;&gt;cds_trades -->
<g id="edge13" class="edge">
<title>sa_ccr_trade_mappings:w&#45;&gt;cds_trades:e</title>
<path fill="none" stroke="#000000" d="M377.0968,-459.9535C363.3496,-466.2935 360.1194,-482.7976 350,-501.2 314.4207,-565.9021 382.8393,-662.2 309,-662.2"/>
<polygon fill="#000000" stroke="#000000" points="383.6423,-458.7022 392.176,-460.736 387.5711,-457.9511 391.5,-457.2 391.5,-457.2 391.5,-457.2 387.5711,-457.9511 390.824,-453.664 383.6423,-458.7022 383.6423,-458.7022"/>
<ellipse fill="none" stroke="#000000" cx="380.4992" cy="-459.3031" rx="3.2" ry="3.2"/>
</g>
<!-- trade_amendments -->
<g id="node12" class="node">
<title>trade_amendments</title>
<g id="a_node12"><a xlink:href="../../tables/trade_amendments.html" xlink:title="trade_amendments" target="_top">
<polygon fill="#ffffff" stroke="transparent" points="404,-347.7 404,-408.7 573,-408.7 573,-347.7 404,-347.7"/>
<polygon fill="#f5f5f5" stroke="transparent" points="404.5,-385.2 404.5,-408.2 573.5,-408.2 573.5,-385.2 404.5,-385.2"/>
<polygon fill="none" stroke="#000000" points="404.5,-385.2 404.5,-408.2 573.5,-408.2 573.5,-385.2 404.5,-385.2"/>
<text text-anchor="start" x="409.5" y="-393.8" font-family="Helvetica,sans-Serif" font-weight="bold" font-size="11.00" fill="#000000">trade_amendments</text>
<text text-anchor="start" x="539.0219" y="-393.3" font-family="Helvetica,sans-Serif" font-size="11.00" fill="#000000">[table]</text>
<polygon fill="none" stroke="#000000" points="404.5,-366.2 404.5,-385.2 573.5,-385.2 573.5,-366.2 404.5,-366.2"/>
<text text-anchor="start" x="407.5" y="-372.3" font-family="Helvetica,sans-Serif" font-size="11.00" fill="#000000">...</text>
<polygon fill="#ffffff" stroke="transparent" points="404.5,-347.2 404.5,-366.2 487.5,-366.2 487.5,-347.2 404.5,-347.2"/>
<polygon fill="none" stroke="#000000" points="404.5,-347.2 404.5,-366.2 487.5,-366.2 487.5,-347.2 404.5,-347.2"/>
<text text-anchor="start" x="407.5" y="-353.3" font-family="Helvetica,sans-Serif" font-size="11.00" fill="#000000">&lt; 1</text>
<polygon fill="#ffffff" stroke="transparent" points="487.5,-347.2 487.5,-366.2 530.5,-366.2 530.5,-347.2 487.5,-347.2"/>
<polygon fill="none" stroke="#000000" points="487.5,-347.2 487.5,-366.2 530.5,-366.2 530.5,-347.2 487.5,-347.2"/>
<text text-anchor="start" x="521.3862" y="-353.3" font-family="Helvetica,sans-Serif" font-size="11.00" fill="#000000"> &#160;</text>
<polygon fill="#ffffff" stroke="transparent" points="530.5,-347.2 530.5,-366.2 573.5,-366.2 573.5,-347.2 530.5,-347.2"/>
<polygon fill="none" stroke="#000000" points="530.5,-347.2 530.5,-366.2 573.5,-366.2 573.5,-347.2 530.5,-347.2"/>
<text text-anchor="start" x="564.3862" y="-353.3" font-family="Helvetica,sans-Serif" font-size="11.00" fill="#000000"> &#160;</text>
</a>
</g>
</g>
<!-- trade_amendments&#45;&gt;cds_trades -->
<g id="edge14" class="edge">
<title>trade_amendments:w&#45;&gt;cds_trades:e</title>
<path fill="none" stroke="#000000" d="M390.0887,-376.7478C370.4308,-381.5233 362.9575,-397.0534 350,-419.2 322.345,-466.4675 363.7632,-662.2 309,-662.2"/>
<polygon fill="#000000" stroke="#000000" points="396.5457,-376.0543 404.8845,-378.7794 400.5229,-375.6272 404.5,-375.2 404.5,-375.2 404.5,-375.2 400.5229,-375.6272 404.1155,-371.6206 396.5457,-376.0543 396.5457,-376.0543"/>
<ellipse fill="none" stroke="#000000" cx="393.364" cy="-376.3961" rx="3.2" ry="3.2"/>
</g>
<!-- trade_novations -->
<g id="node13" class="node">
<title>trade_novations</title>
<g id="a_node13"><a xlink:href="../../tables/trade_novations.html" xlink:title="trade_novations" target="_top">
<polygon fill="#ffffff" stroke="transparent" points="358,-38.2 358,-326.2 619,-326.2 619,-38.2 358,-38.2"/>
<polygon fill="#f5f5f5" stroke="transparent" points="360.5,-301.2 360.5,-324.2 617.5,-324.2 617.5,-301.2 360.5,-301.2"/>
<polygon fill="none" stroke="#000000" points="360.5,-301.2 360.5,-324.2 617.5,-324.2 617.5,-301.2 360.5,-301.2"/>
<text text-anchor="start" x="365.5" y="-309.8" font-family="Helvetica,sans-Serif" font-weight="bold" font-size="11.00" fill="#000000">trade_novations</text>
<text text-anchor="start" x="582.5437" y="-309.3" font-family="Helvetica,sans-Serif" font-size="11.00" fill="#000000">[table]</text>
<polygon fill="none" stroke="#000000" points="360.5,-279.2 360.5,-301.2 527.5,-301.2 527.5,-279.2 360.5,-279.2"/>
<image xlink:href="../../images/primaryKeys.png" width="11px" height="12px" preserveAspectRatio="xMinYMin meet" x="365.5" y="-296.2"/>
<text text-anchor="start" x="380.5" y="-286.3" font-family="Helvetica,sans-Serif" font-size="11.00" fill="#000000">id</text>
<polygon fill="none" stroke="#000000" points="527.5,-279.2 527.5,-301.2 617.5,-301.2 617.5,-279.2 527.5,-279.2"/>
<text text-anchor="start" x="530.5" y="-286.9" font-family="Helvetica,sans-Serif" font-size="11.00" fill="#000000">bigserial[19]</text>
<polygon fill="#ffffff" stroke="transparent" points="360.5,-257.2 360.5,-279.2 527.5,-279.2 527.5,-257.2 360.5,-257.2"/>
<polygon fill="none" stroke="#000000" points="360.5,-257.2 360.5,-279.2 527.5,-279.2 527.5,-257.2 360.5,-257.2"/>
<image xlink:href="../../images/foreignKeys.png" width="11px" height="12px" preserveAspectRatio="xMinYMin meet" x="365.5" y="-274.2"/>
<text text-anchor="start" x="380.5" y="-264.3" font-family="Helvetica,sans-Serif" font-size="11.00" fill="#000000">original_trade_id</text>
<polygon fill="none" stroke="#000000" points="527.5,-257.2 527.5,-279.2 617.5,-279.2 617.5,-257.2 527.5,-257.2"/>
<text text-anchor="start" x="530.5" y="-264.9" font-family="Helvetica,sans-Serif" font-size="11.00" fill="#000000">int8[19]</text>
<polygon fill="#ffffff" stroke="transparent" points="360.5,-235.2 360.5,-257.2 527.5,-257.2 527.5,-235.2 360.5,-235.2"/>
<polygon fill="none" stroke="#000000" points="360.5,-235.2 360.5,-257.2 527.5,-257.2 527.5,-235.2 360.5,-235.2"/>
<image xlink:href="../../images/foreignKeys.png" width="11px" height="12px" preserveAspectRatio="xMinYMin meet" x="365.5" y="-252.2"/>
<text text-anchor="start" x="380.5" y="-242.3" font-family="Helvetica,sans-Serif" font-size="11.00" fill="#000000">new_trade_id</text>
<polygon fill="none" stroke="#000000" points="527.5,-235.2 527.5,-257.2 617.5,-257.2 617.5,-235.2 527.5,-235.2"/>
<text text-anchor="start" x="530.5" y="-242.9" font-family="Helvetica,sans-Serif" font-size="11.00" fill="#000000">int8[19]</text>
<polygon fill="#ffffff" stroke="transparent" points="360.5,-213.2 360.5,-235.2 527.5,-235.2 527.5,-213.2 360.5,-213.2"/>
<polygon fill="none" stroke="#000000" points="360.5,-213.2 360.5,-235.2 527.5,-235.2 527.5,-213.2 360.5,-213.2"/>
<text text-anchor="start" x="380.5" y="-220.3" font-family="Helvetica,sans-Serif" font-size="11.00" fill="#000000">novation_date</text>
<polygon fill="none" stroke="#000000" points="527.5,-213.2 527.5,-235.2 617.5,-235.2 617.5,-213.2 527.5,-213.2"/>
<text text-anchor="start" x="530.5" y="-220.9" font-family="Helvetica,sans-Serif" font-size="11.00" fill="#000000">date[13]</text>
<polygon fill="none" stroke="#000000" points="360.5,-191.2 360.5,-213.2 527.5,-213.2 527.5,-191.2 360.5,-191.2"/>
<text text-anchor="start" x="380.5" y="-198.3" font-family="Helvetica,sans-Serif" font-size="11.00" fill="#000000">original_counterparty</text>
<polygon fill="none" stroke="#000000" points="527.5,-191.2 527.5,-213.2 617.5,-213.2 617.5,-191.2 527.5,-191.2"/>
<text text-anchor="start" x="530.5" y="-198.9" font-family="Helvetica,sans-Serif" font-size="11.00" fill="#000000">varchar[50]</text>
<polygon fill="none" stroke="#000000" points="360.5,-169.2 360.5,-191.2 527.5,-191.2 527.5,-169.2 360.5,-169.2"/>
<text text-anchor="start" x="380.5" y="-176.3" font-family="Helvetica,sans-Serif" font-size="11.00" fill="#000000">new_counterparty</text>
<polygon fill="none" stroke="#000000" points="527.5,-169.2 527.5,-191.2 617.5,-191.2 617.5,-169.2 527.5,-169.2"/>
<text text-anchor="start" x="530.5" y="-176.9" font-family="Helvetica,sans-Serif" font-size="11.00" fill="#000000">varchar[50]</text>
<polygon fill="none" stroke="#000000" points="360.5,-147.2 360.5,-169.2 527.5,-169.2 527.5,-147.2 360.5,-147.2"/>
<text text-anchor="start" x="380.5" y="-154.3" font-family="Helvetica,sans-Serif" font-size="11.00" fill="#000000">novation_reason</text>
<polygon fill="none" stroke="#000000" points="527.5,-147.2 527.5,-169.2 617.5,-169.2 617.5,-147.2 527.5,-147.2"/>
<text text-anchor="start" x="530.0043" y="-154.9" font-family="Helvetica,sans-Serif" font-size="11.00" fill="#000000">text[2147483647]</text>
<polygon fill="none" stroke="#000000" points="360.5,-125.2 360.5,-147.2 527.5,-147.2 527.5,-125.2 360.5,-125.2"/>
<text text-anchor="start" x="380.5" y="-132.3" font-family="Helvetica,sans-Serif" font-size="11.00" fill="#000000">fee_amount</text>
<polygon fill="none" stroke="#000000" points="527.5,-125.2 527.5,-147.2 617.5,-147.2 617.5,-125.2 527.5,-125.2"/>
<text text-anchor="start" x="530.5" y="-132.9" font-family="Helvetica,sans-Serif" font-size="11.00" fill="#000000">numeric[15,2]</text>
<polygon fill="none" stroke="#000000" points="360.5,-103.2 360.5,-125.2 527.5,-125.2 527.5,-103.2 360.5,-103.2"/>
<text text-anchor="start" x="380.5" y="-110.3" font-family="Helvetica,sans-Serif" font-size="11.00" fill="#000000">fee_currency</text>
<polygon fill="none" stroke="#000000" points="527.5,-103.2 527.5,-125.2 617.5,-125.2 617.5,-103.2 527.5,-103.2"/>
<text text-anchor="start" x="530.5" y="-110.9" font-family="Helvetica,sans-Serif" font-size="11.00" fill="#000000">varchar[3]</text>
<polygon fill="none" stroke="#000000" points="360.5,-81.2 360.5,-103.2 527.5,-103.2 527.5,-81.2 360.5,-81.2"/>
<text text-anchor="start" x="380.5" y="-88.3" font-family="Helvetica,sans-Serif" font-size="11.00" fill="#000000">status</text>
<polygon fill="none" stroke="#000000" points="527.5,-81.2 527.5,-103.2 617.5,-103.2 617.5,-81.2 527.5,-81.2"/>
<text text-anchor="start" x="530.5" y="-88.9" font-family="Helvetica,sans-Serif" font-size="11.00" fill="#000000">varchar[20]</text>
<polygon fill="none" stroke="#000000" points="360.5,-59.2 360.5,-81.2 527.5,-81.2 527.5,-59.2 360.5,-59.2"/>
<text text-anchor="start" x="380.5" y="-66.3" font-family="Helvetica,sans-Serif" font-size="11.00" fill="#000000">created_at</text>
<polygon fill="none" stroke="#000000" points="527.5,-59.2 527.5,-81.2 617.5,-81.2 617.5,-59.2 527.5,-59.2"/>
<text text-anchor="start" x="530.5" y="-66.9" font-family="Helvetica,sans-Serif" font-size="11.00" fill="#000000">timestamp[29,6]</text>
<polygon fill="#ffffff" stroke="transparent" points="360.5,-40.2 360.5,-59.2 448.5,-59.2 448.5,-40.2 360.5,-40.2"/>
<polygon fill="none" stroke="#000000" points="360.5,-40.2 360.5,-59.2 448.5,-59.2 448.5,-40.2 360.5,-40.2"/>
<text text-anchor="start" x="363.5" y="-46.3" font-family="Helvetica,sans-Serif" font-size="11.00" fill="#000000">&lt; 2</text>
<polygon fill="#ffffff" stroke="transparent" points="448.5,-40.2 448.5,-59.2 527.5,-59.2 527.5,-40.2 448.5,-40.2"/>
<polygon fill="none" stroke="#000000" points="448.5,-40.2 448.5,-59.2 527.5,-59.2 527.5,-40.2 448.5,-40.2"/>
<text text-anchor="start" x="518.3862" y="-46.3" font-family="Helvetica,sans-Serif" font-size="11.00" fill="#000000"> &#160;</text>
<polygon fill="#ffffff" stroke="transparent" points="527.5,-40.2 527.5,-59.2 617.5,-59.2 617.5,-40.2 527.5,-40.2"/>
<polygon fill="none" stroke="#000000" points="527.5,-40.2 527.5,-59.2 617.5,-59.2 617.5,-40.2 527.5,-40.2"/>
<text text-anchor="start" x="598.9053" y="-46.3" font-family="Helvetica,sans-Serif" font-size="11.00" fill="#000000">0 &gt;</text>
<polygon fill="none" stroke="#000000" stroke-width="2" points="359,-39.2 359,-325.2 618,-325.2 618,-39.2 359,-39.2"/>
</a>
</g>
</g>
<!-- trade_novations&#45;&gt;cds_trades -->
<g id="edge15" class="edge">
<title>trade_novations:w&#45;&gt;cds_trades:e</title>
<path fill="none" stroke="#000000" d="M346.3821,-250.3173C282.3642,-293.5218 396.6921,-662.2 309,-662.2"/>
<polygon fill="#000000" stroke="#000000" points="352.8199,-248.4398 361.5079,-249.656 356.66,-247.3199 360.5,-246.2 360.5,-246.2 360.5,-246.2 356.66,-247.3199 359.4921,-242.744 352.8199,-248.4398 352.8199,-248.4398"/>
<ellipse fill="none" stroke="#000000" cx="349.7479" cy="-249.3357" rx="3.2" ry="3.2"/>
</g>
<!-- trade_novations&#45;&gt;cds_trades -->
<g id="edge16" class="edge">
<title>trade_novations:w&#45;&gt;cds_trades:e</title>
<path fill="none" stroke="#000000" d="M346.7133,-272.3582C286.5663,-314.4666 391.954,-662.2 309,-662.2"/>
<polygon fill="#000000" stroke="#000000" points="352.8408,-270.5101 361.5396,-271.6466 356.6704,-269.3551 360.5,-268.2 360.5,-268.2 360.5,-268.2 356.6704,-269.3551 359.4604,-264.7534 352.8408,-270.5101 352.8408,-270.5101"/>
<ellipse fill="none" stroke="#000000" cx="349.7771" cy="-271.4342" rx="3.2" ry="3.2"/>
</g>
</g>
</svg>
