<?xml version="1.0" encoding="UTF-8" standalone="no"?>
<!DOCTYPE svg PUBLIC "-//W3C//DTD SVG 1.1//EN"
 "http://www.w3.org/Graphics/SVG/1.1/DTD/svg11.dtd">
<!-- Generated by graphviz version 2.43.0 (0)
 -->
<!-- Title: SchemaCrawler_Diagram Pages: 1 -->
<svg width="600pt" height="2738pt"
 viewBox="0.00 0.00 600.00 2738.00" xmlns="http://www.w3.org/2000/svg" xmlns:xlink="http://www.w3.org/1999/xlink">
<g id="graph0" class="graph" transform="scale(1 1) rotate(0) translate(4 2734)">
<title>SchemaCrawler_Diagram</title>
<polygon fill="white" stroke="transparent" points="-4,4 -4,-2734 596,-2734 596,4 -4,4"/>
<!-- accrual_events_62e14bf -->
<g id="node1" class="node">
<title>accrual_events_62e14bf</title>
<polygon fill="#e9c2f2" stroke="transparent" points="210,-8 210,-27 332,-27 332,-8 210,-8"/>
<text text-anchor="start" x="212" y="-14.8" font-family="Helvetica,sans-Serif" font-weight="bold" font-style="italic" font-size="14.00">accrual_events</text>
<polygon fill="#e9c2f2" stroke="transparent" points="332,-8 332,-27 382,-27 382,-8 332,-8"/>
<text text-anchor="start" x="334" y="-13.8" font-family="Helvetica,sans-Serif" font-size="14.00">[table]</text>
<polygon fill="none" stroke="#888888" points="209,-7.5 209,-28.5 383,-28.5 383,-7.5 209,-7.5"/>
</g>
<!-- basket_constituents_a7a15cbe -->
<g id="node2" class="node">
<title>basket_constituents_a7a15cbe</title>
<polygon fill="#e9c2f2" stroke="transparent" points="110,-78 110,-97 353,-97 353,-78 110,-78"/>
<text text-anchor="start" x="112" y="-84.8" font-family="Helvetica,sans-Serif" font-weight="bold" font-style="italic" font-size="14.00">basket_constituents</text>
<polygon fill="#e9c2f2" stroke="transparent" points="353,-78 353,-97 483,-97 483,-78 353,-78"/>
<text text-anchor="start" x="435" y="-83.8" font-family="Helvetica,sans-Serif" font-size="14.00">[table]</text>
<text text-anchor="start" x="112" y="-64.8" font-family="Helvetica,sans-Serif" font-size="14.00">Constituent reference entities for basket instruments</text>
<polygon fill="none" stroke="#888888" points="108.5,-58 108.5,-98 483.5,-98 483.5,-58 108.5,-58"/>
</g>
<!-- basket_definitions_5dd4239d -->
<g id="node3" class="node">
<title>basket_definitions_5dd4239d</title>
<polygon fill="#e9c2f2" stroke="transparent" points="25,-144 25,-163 345,-163 345,-144 25,-144"/>
<text text-anchor="start" x="27" y="-150.8" font-family="Helvetica,sans-Serif" font-weight="bold" font-style="italic" font-size="14.00">basket_definitions</text>
<polygon fill="#e9c2f2" stroke="transparent" points="345,-144 345,-163 567,-163 567,-144 345,-144"/>
<text text-anchor="start" x="519" y="-149.8" font-family="Helvetica,sans-Serif" font-size="14.00">[table]</text>
<text text-anchor="start" x="27" y="-130.8" font-family="Helvetica,sans-Serif" font-size="14.00">Basket credit derivative definitions (First&#45;to&#45;Default, N&#45;th&#45;to&#45;Default, Tranche)</text>
<polygon fill="none" stroke="#888888" points="24,-124 24,-164 568,-164 568,-124 24,-124"/>
</g>
<!-- basket_portfolio_constituents_7d92db15 -->
<g id="node4" class="node">
<title>basket_portfolio_constituents_7d92db15</title>
<polygon fill="#e9c2f2" stroke="transparent" points="57,-210 57,-229 390,-229 390,-210 57,-210"/>
<text text-anchor="start" x="59" y="-216.8" font-family="Helvetica,sans-Serif" font-weight="bold" font-style="italic" font-size="14.00">basket_portfolio_constituents</text>
<polygon fill="#e9c2f2" stroke="transparent" points="390,-210 390,-229 536,-229 536,-210 390,-210"/>
<text text-anchor="start" x="488" y="-215.8" font-family="Helvetica,sans-Serif" font-size="14.00">[table]</text>
<text text-anchor="start" x="59" y="-196.8" font-family="Helvetica,sans-Serif" font-size="14.00">Maps basket derivatives to portfolios for multi&#45;asset credit portfolios</text>
<polygon fill="none" stroke="#888888" points="55.5,-190 55.5,-230 536.5,-230 536.5,-190 55.5,-190"/>
</g>
<!-- bond_portfolio_constituents_8c668d78 -->
<g id="node5" class="node">
<title>bond_portfolio_constituents_8c668d78</title>
<polygon fill="#e9c2f2" stroke="transparent" points="99,-276 99,-295 383,-295 383,-276 99,-276"/>
<text text-anchor="start" x="101" y="-282.8" font-family="Helvetica,sans-Serif" font-weight="bold" font-style="italic" font-size="14.00">bond_portfolio_constituents</text>
<polygon fill="#e9c2f2" stroke="transparent" points="383,-276 383,-295 494,-295 494,-276 383,-276"/>
<text text-anchor="start" x="446" y="-281.8" font-family="Helvetica,sans-Serif" font-size="14.00">[table]</text>
<text text-anchor="start" x="101" y="-262.8" font-family="Helvetica,sans-Serif" font-size="14.00">Maps bonds to portfolios for multi&#45;asset credit portfolios</text>
<polygon fill="none" stroke="#888888" points="97.5,-256 97.5,-296 494.5,-296 494.5,-256 97.5,-256"/>
</g>
<!-- bonds_f7922d26 -->
<g id="node6" class="node">
<title>bonds_f7922d26</title>
<polygon fill="#e9c2f2" stroke="transparent" points="245,-326 245,-345 297,-345 297,-326 245,-326"/>
<text text-anchor="start" x="247" y="-332.8" font-family="Helvetica,sans-Serif" font-weight="bold" font-style="italic" font-size="14.00">bonds</text>
<polygon fill="#e9c2f2" stroke="transparent" points="297,-326 297,-345 347,-345 347,-326 297,-326"/>
<text text-anchor="start" x="299" y="-331.8" font-family="Helvetica,sans-Serif" font-size="14.00">[table]</text>
<polygon fill="none" stroke="#888888" points="244,-325.5 244,-346.5 348,-346.5 348,-325.5 244,-325.5"/>
</g>
<!-- ccp_account_product_eligibility_a8e67292 -->
<g id="node7" class="node">
<title>ccp_account_product_eligibility_a8e67292</title>
<polygon fill="#e9c2f2" stroke="transparent" points="148,-380 148,-399 394,-399 394,-380 148,-380"/>
<text text-anchor="start" x="150" y="-386.8" font-family="Helvetica,sans-Serif" font-weight="bold" font-style="italic" font-size="14.00">ccp_account_product_eligibility</text>
<polygon fill="#e9c2f2" stroke="transparent" points="394,-380 394,-399 444,-399 444,-380 394,-380"/>
<text text-anchor="start" x="396" y="-385.8" font-family="Helvetica,sans-Serif" font-size="14.00">[table]</text>
<polygon fill="none" stroke="#888888" points="147,-379.5 147,-400.5 445,-400.5 445,-379.5 147,-379.5"/>
</g>
<!-- ccp_accounts_e6418e4b -->
<g id="node8" class="node">
<title>ccp_accounts_e6418e4b</title>
<polygon fill="#e9c2f2" stroke="transparent" points="217,-434 217,-453 325,-453 325,-434 217,-434"/>
<text text-anchor="start" x="219" y="-440.8" font-family="Helvetica,sans-Serif" font-weight="bold" font-style="italic" font-size="14.00">ccp_accounts</text>
<polygon fill="#e9c2f2" stroke="transparent" points="325,-434 325,-453 375,-453 375,-434 325,-434"/>
<text text-anchor="start" x="327" y="-439.8" font-family="Helvetica,sans-Serif" font-size="14.00">[table]</text>
<polygon fill="none" stroke="#888888" points="216,-433.5 216,-454.5 376,-454.5 376,-433.5 216,-433.5"/>
</g>
<!-- cds_audit_log_c5897c29 -->
<g id="node9" class="node">
<title>cds_audit_log_c5897c29</title>
<polygon fill="#e9c2f2" stroke="transparent" points="216,-488 216,-507 326,-507 326,-488 216,-488"/>
<text text-anchor="start" x="218" y="-494.8" font-family="Helvetica,sans-Serif" font-weight="bold" font-style="italic" font-size="14.00">cds_audit_log</text>
<polygon fill="#e9c2f2" stroke="transparent" points="326,-488 326,-507 376,-507 376,-488 326,-488"/>
<text text-anchor="start" x="328" y="-493.8" font-family="Helvetica,sans-Serif" font-size="14.00">[table]</text>
<polygon fill="none" stroke="#888888" points="215,-487.5 215,-508.5 377,-508.5 377,-487.5 215,-487.5"/>
</g>
<!-- cds_cash_settlements_1f6e5ce1 -->
<g id="node10" class="node">
<title>cds_cash_settlements_1f6e5ce1</title>
<polygon fill="#e9c2f2" stroke="transparent" points="183,-542 183,-561 359,-561 359,-542 183,-542"/>
<text text-anchor="start" x="185" y="-548.8" font-family="Helvetica,sans-Serif" font-weight="bold" font-style="italic" font-size="14.00">cds_cash_settlements</text>
<polygon fill="#e9c2f2" stroke="transparent" points="359,-542 359,-561 409,-561 409,-542 359,-542"/>
<text text-anchor="start" x="361" y="-547.8" font-family="Helvetica,sans-Serif" font-size="14.00">[table]</text>
<polygon fill="none" stroke="#888888" points="182,-541.5 182,-562.5 410,-562.5 410,-541.5 182,-541.5"/>
</g>
<!-- cds_credit_events_7ac6bae8 -->
<g id="node11" class="node">
<title>cds_credit_events_7ac6bae8</title>
<polygon fill="#e9c2f2" stroke="transparent" points="199,-596 199,-615 343,-615 343,-596 199,-596"/>
<text text-anchor="start" x="201" y="-602.8" font-family="Helvetica,sans-Serif" font-weight="bold" font-style="italic" font-size="14.00">cds_credit_events</text>
<polygon fill="#e9c2f2" stroke="transparent" points="343,-596 343,-615 393,-615 393,-596 343,-596"/>
<text text-anchor="start" x="345" y="-601.8" font-family="Helvetica,sans-Serif" font-size="14.00">[table]</text>
<polygon fill="none" stroke="#888888" points="198,-595.5 198,-616.5 394,-616.5 394,-595.5 198,-595.5"/>
</g>
<!-- cds_physical_settlement_instructions_7a84a316 -->
<g id="node12" class="node">
<title>cds_physical_settlement_instructions_7a84a316</title>
<polygon fill="#e9c2f2" stroke="transparent" points="124,-650 124,-669 418,-669 418,-650 124,-650"/>
<text text-anchor="start" x="126" y="-656.8" font-family="Helvetica,sans-Serif" font-weight="bold" font-style="italic" font-size="14.00">cds_physical_settlement_instructions</text>
<polygon fill="#e9c2f2" stroke="transparent" points="418,-650 418,-669 468,-669 468,-650 418,-650"/>
<text text-anchor="start" x="420" y="-655.8" font-family="Helvetica,sans-Serif" font-size="14.00">[table]</text>
<polygon fill="none" stroke="#888888" points="123,-649.5 123,-670.5 469,-670.5 469,-649.5 123,-649.5"/>
</g>
<!-- cds_portfolio_constituents_1f629b29 -->
<g id="node13" class="node">
<title>cds_portfolio_constituents_1f629b29</title>
<polygon fill="#e9c2f2" stroke="transparent" points="166,-704 166,-723 376,-723 376,-704 166,-704"/>
<text text-anchor="start" x="168" y="-710.8" font-family="Helvetica,sans-Serif" font-weight="bold" font-style="italic" font-size="14.00">cds_portfolio_constituents</text>
<polygon fill="#e9c2f2" stroke="transparent" points="376,-704 376,-723 426,-723 426,-704 376,-704"/>
<text text-anchor="start" x="378" y="-709.8" font-family="Helvetica,sans-Serif" font-size="14.00">[table]</text>
<polygon fill="none" stroke="#888888" points="165,-703.5 165,-724.5 427,-724.5 427,-703.5 165,-703.5"/>
</g>
<!-- cds_portfolios_445bd56e -->
<g id="node14" class="node">
<title>cds_portfolios_445bd56e</title>
<polygon fill="#e9c2f2" stroke="transparent" points="214,-758 214,-777 328,-777 328,-758 214,-758"/>
<text text-anchor="start" x="216" y="-764.8" font-family="Helvetica,sans-Serif" font-weight="bold" font-style="italic" font-size="14.00">cds_portfolios</text>
<polygon fill="#e9c2f2" stroke="transparent" points="328,-758 328,-777 378,-777 378,-758 328,-758"/>
<text text-anchor="start" x="330" y="-763.8" font-family="Helvetica,sans-Serif" font-size="14.00">[table]</text>
<polygon fill="none" stroke="#888888" points="213,-757.5 213,-778.5 379,-778.5 379,-757.5 213,-757.5"/>
</g>
<!-- cds_trades_6d188b52 -->
<g id="node15" class="node">
<title>cds_trades_6d188b52</title>
<polygon fill="#e9c2f2" stroke="transparent" points="226,-812 226,-831 316,-831 316,-812 226,-812"/>
<text text-anchor="start" x="228" y="-818.8" font-family="Helvetica,sans-Serif" font-weight="bold" font-style="italic" font-size="14.00">cds_trades</text>
<polygon fill="#e9c2f2" stroke="transparent" points="316,-812 316,-831 366,-831 366,-812 316,-812"/>
<text text-anchor="start" x="318" y="-817.8" font-family="Helvetica,sans-Serif" font-size="14.00">[table]</text>
<polygon fill="none" stroke="#888888" points="225,-811.5 225,-832.5 367,-832.5 367,-811.5 225,-811.5"/>
</g>
<!-- collateral_ledger_e784f387 -->
<g id="node16" class="node">
<title>collateral_ledger_e784f387</title>
<polygon fill="#e9c2f2" stroke="transparent" points="203,-866 203,-885 339,-885 339,-866 203,-866"/>
<text text-anchor="start" x="205" y="-872.8" font-family="Helvetica,sans-Serif" font-weight="bold" font-style="italic" font-size="14.00">collateral_ledger</text>
<polygon fill="#e9c2f2" stroke="transparent" points="339,-866 339,-885 389,-885 389,-866 339,-866"/>
<text text-anchor="start" x="341" y="-871.8" font-family="Helvetica,sans-Serif" font-size="14.00">[table]</text>
<polygon fill="none" stroke="#888888" points="202,-865.5 202,-886.5 390,-886.5 390,-865.5 202,-865.5"/>
</g>
<!-- compression_proposal_items_49a5a342 -->
<g id="node17" class="node">
<title>compression_proposal_items_49a5a342</title>
<polygon fill="#e9c2f2" stroke="transparent" points="156,-920 156,-939 386,-939 386,-920 156,-920"/>
<text text-anchor="start" x="158" y="-926.8" font-family="Helvetica,sans-Serif" font-weight="bold" font-style="italic" font-size="14.00">compression_proposal_items</text>
<polygon fill="#e9c2f2" stroke="transparent" points="386,-920 386,-939 436,-939 436,-920 386,-920"/>
<text text-anchor="start" x="388" y="-925.8" font-family="Helvetica,sans-Serif" font-size="14.00">[table]</text>
<polygon fill="none" stroke="#888888" points="155,-919.5 155,-940.5 437,-940.5 437,-919.5 155,-919.5"/>
</g>
<!-- compression_proposals_30d34f3e -->
<g id="node18" class="node">
<title>compression_proposals_30d34f3e</title>
<polygon fill="#e9c2f2" stroke="transparent" points="177,-974 177,-993 365,-993 365,-974 177,-974"/>
<text text-anchor="start" x="179" y="-980.8" font-family="Helvetica,sans-Serif" font-weight="bold" font-style="italic" font-size="14.00">compression_proposals</text>
<polygon fill="#e9c2f2" stroke="transparent" points="365,-974 365,-993 415,-993 415,-974 365,-974"/>
<text text-anchor="start" x="367" y="-979.8" font-family="Helvetica,sans-Serif" font-size="14.00">[table]</text>
<polygon fill="none" stroke="#888888" points="176,-973.5 176,-994.5 416,-994.5 416,-973.5 176,-973.5"/>
</g>
<!-- coupon_periods_63274acf -->
<g id="node19" class="node">
<title>coupon_periods_63274acf</title>
<polygon fill="#e9c2f2" stroke="transparent" points="207,-1028 207,-1047 335,-1047 335,-1028 207,-1028"/>
<text text-anchor="start" x="209" y="-1034.8" font-family="Helvetica,sans-Serif" font-weight="bold" font-style="italic" font-size="14.00">coupon_periods</text>
<polygon fill="#e9c2f2" stroke="transparent" points="335,-1028 335,-1047 385,-1047 385,-1028 335,-1028"/>
<text text-anchor="start" x="337" y="-1033.8" font-family="Helvetica,sans-Serif" font-size="14.00">[table]</text>
<polygon fill="none" stroke="#888888" points="206,-1027.5 206,-1048.5 386,-1048.5 386,-1027.5 206,-1027.5"/>
</g>
<!-- crif_sensitivities_4ead4960 -->
<g id="node20" class="node">
<title>crif_sensitivities_4ead4960</title>
<polygon fill="#e9c2f2" stroke="transparent" points="11,-1098 11,-1117 337,-1117 337,-1098 11,-1098"/>
<text text-anchor="start" x="13" y="-1104.8" font-family="Helvetica,sans-Serif" font-weight="bold" font-style="italic" font-size="14.00">crif_sensitivities</text>
<polygon fill="#e9c2f2" stroke="transparent" points="337,-1098 337,-1117 582,-1117 582,-1098 337,-1098"/>
<text text-anchor="start" x="534" y="-1103.8" font-family="Helvetica,sans-Serif" font-size="14.00">[table]</text>
<text text-anchor="start" x="13" y="-1084.8" font-family="Helvetica,sans-Serif" font-size="14.00">CRIF (Common Risk Interchange Format) sensitivity records for SIMM calculations</text>
<polygon fill="none" stroke="#888888" points="9.5,-1078 9.5,-1118 582.5,-1118 582.5,-1078 9.5,-1078"/>
</g>
<!-- crif_uploads_fdf49635 -->
<g id="node21" class="node">
<title>crif_uploads_fdf49635</title>
<polygon fill="#e9c2f2" stroke="transparent" points="9,-1164 9,-1183 320,-1183 320,-1164 9,-1164"/>
<text text-anchor="start" x="11" y="-1170.8" font-family="Helvetica,sans-Serif" font-weight="bold" font-style="italic" font-size="14.00">crif_uploads</text>
<polygon fill="#e9c2f2" stroke="transparent" points="320,-1164 320,-1183 583,-1183 583,-1164 320,-1164"/>
<text text-anchor="start" x="535" y="-1169.8" font-family="Helvetica,sans-Serif" font-size="14.00">[table]</text>
<text text-anchor="start" x="11" y="-1150.8" font-family="Helvetica,sans-Serif" font-size="14.00">Tracks CRIF (Common Risk Interchange Format) file uploads for SIMM calculations</text>
<polygon fill="none" stroke="#888888" points="8,-1144 8,-1184 584,-1184 584,-1144 8,-1144"/>
</g>
<!-- flyway_schema_history_51fa9c0f -->
<g id="node22" class="node">
<title>flyway_schema_history_51fa9c0f</title>
<polygon fill="#e9c2f2" stroke="transparent" points="179,-1214 179,-1233 363,-1233 363,-1214 179,-1214"/>
<text text-anchor="start" x="181" y="-1220.8" font-family="Helvetica,sans-Serif" font-weight="bold" font-style="italic" font-size="14.00">flyway_schema_history</text>
<polygon fill="#e9c2f2" stroke="transparent" points="363,-1214 363,-1233 413,-1233 413,-1214 363,-1214"/>
<text text-anchor="start" x="365" y="-1219.8" font-family="Helvetica,sans-Serif" font-size="14.00">[table]</text>
<polygon fill="none" stroke="#888888" points="178,-1213.5 178,-1234.5 414,-1234.5 414,-1213.5 178,-1213.5"/>
</g>
<!-- margin_positions_c3d65a2f -->
<g id="node23" class="node">
<title>margin_positions_c3d65a2f</title>
<polygon fill="#e9c2f2" stroke="transparent" points="202,-1268 202,-1287 340,-1287 340,-1268 202,-1268"/>
<text text-anchor="start" x="204" y="-1274.8" font-family="Helvetica,sans-Serif" font-weight="bold" font-style="italic" font-size="14.00">margin_positions</text>
<polygon fill="#e9c2f2" stroke="transparent" points="340,-1268 340,-1287 390,-1287 390,-1268 340,-1268"/>
<text text-anchor="start" x="342" y="-1273.8" font-family="Helvetica,sans-Serif" font-size="14.00">[table]</text>
<polygon fill="none" stroke="#888888" points="201,-1267.5 201,-1288.5 391,-1288.5 391,-1267.5 201,-1267.5"/>
</g>
<!-- margin_statements_fca22b2b -->
<g id="node24" class="node">
<title>margin_statements_fca22b2b</title>
<polygon fill="#e9c2f2" stroke="transparent" points="193,-1322 193,-1341 349,-1341 349,-1322 193,-1322"/>
<text text-anchor="start" x="195" y="-1328.8" font-family="Helvetica,sans-Serif" font-weight="bold" font-style="italic" font-size="14.00">margin_statements</text>
<polygon fill="#e9c2f2" stroke="transparent" points="349,-1322 349,-1341 399,-1341 399,-1322 349,-1322"/>
<text text-anchor="start" x="351" y="-1327.8" font-family="Helvetica,sans-Serif" font-size="14.00">[table]</text>
<polygon fill="none" stroke="#888888" points="192,-1321.5 192,-1342.5 400,-1342.5 400,-1321.5 192,-1321.5"/>
</g>
<!-- margin_tolerance_config_1265953b -->
<g id="node25" class="node">
<title>margin_tolerance_config_1265953b</title>
<polygon fill="#e9c2f2" stroke="transparent" points="172,-1376 172,-1395 370,-1395 370,-1376 172,-1376"/>
<text text-anchor="start" x="174" y="-1382.8" font-family="Helvetica,sans-Serif" font-weight="bold" font-style="italic" font-size="14.00">margin_tolerance_config</text>
<polygon fill="#e9c2f2" stroke="transparent" points="370,-1376 370,-1395 420,-1395 420,-1376 370,-1376"/>
<text text-anchor="start" x="372" y="-1381.8" font-family="Helvetica,sans-Serif" font-size="14.00">[table]</text>
<polygon fill="none" stroke="#888888" points="171,-1375.5 171,-1396.5 421,-1396.5 421,-1375.5 171,-1375.5"/>
</g>
<!-- netting_sets_ea4ec11b -->
<g id="node26" class="node">
<title>netting_sets_ea4ec11b</title>
<polygon fill="#e9c2f2" stroke="transparent" points="220,-1430 220,-1449 322,-1449 322,-1430 220,-1430"/>
<text text-anchor="start" x="222" y="-1436.8" font-family="Helvetica,sans-Serif" font-weight="bold" font-style="italic" font-size="14.00">netting_sets</text>
<polygon fill="#e9c2f2" stroke="transparent" points="322,-1430 322,-1449 372,-1449 372,-1430 322,-1430"/>
<text text-anchor="start" x="324" y="-1435.8" font-family="Helvetica,sans-Serif" font-size="14.00">[table]</text>
<polygon fill="none" stroke="#888888" points="219,-1429.5 219,-1450.5 373,-1450.5 373,-1429.5 219,-1429.5"/>
</g>
<!-- notional_adjustments_8d13313d -->
<g id="node27" class="node">
<title>notional_adjustments_8d13313d</title>
<polygon fill="#e9c2f2" stroke="transparent" points="184,-1484 184,-1503 358,-1503 358,-1484 184,-1484"/>
<text text-anchor="start" x="186" y="-1490.8" font-family="Helvetica,sans-Serif" font-weight="bold" font-style="italic" font-size="14.00">notional_adjustments</text>
<polygon fill="#e9c2f2" stroke="transparent" points="358,-1484 358,-1503 408,-1503 408,-1484 358,-1484"/>
<text text-anchor="start" x="360" y="-1489.8" font-family="Helvetica,sans-Serif" font-size="14.00">[table]</text>
<polygon fill="none" stroke="#888888" points="183,-1483.5 183,-1504.5 409,-1504.5 409,-1483.5 183,-1483.5"/>
</g>
<!-- portfolio_risk_cache_1cf0a87f -->
<g id="node28" class="node">
<title>portfolio_risk_cache_1cf0a87f</title>
<polygon fill="#e9c2f2" stroke="transparent" points="191,-1538 191,-1557 351,-1557 351,-1538 191,-1538"/>
<text text-anchor="start" x="193" y="-1544.8" font-family="Helvetica,sans-Serif" font-weight="bold" font-style="italic" font-size="14.00">portfolio_risk_cache</text>
<polygon fill="#e9c2f2" stroke="transparent" points="351,-1538 351,-1557 401,-1557 401,-1538 351,-1538"/>
<text text-anchor="start" x="353" y="-1543.8" font-family="Helvetica,sans-Serif" font-size="14.00">[table]</text>
<polygon fill="none" stroke="#888888" points="190,-1537.5 190,-1558.5 402,-1558.5 402,-1537.5 190,-1537.5"/>
</g>
<!-- position_discrepancies_8ff8fca9 -->
<g id="node29" class="node">
<title>position_discrepancies_8ff8fca9</title>
<polygon fill="#e9c2f2" stroke="transparent" points="180,-1592 180,-1611 362,-1611 362,-1592 180,-1592"/>
<text text-anchor="start" x="182" y="-1598.8" font-family="Helvetica,sans-Serif" font-weight="bold" font-style="italic" font-size="14.00">position_discrepancies</text>
<polygon fill="#e9c2f2" stroke="transparent" points="362,-1592 362,-1611 412,-1611 412,-1592 362,-1592"/>
<text text-anchor="start" x="364" y="-1597.8" font-family="Helvetica,sans-Serif" font-size="14.00">[table]</text>
<polygon fill="none" stroke="#888888" points="179,-1591.5 179,-1612.5 413,-1612.5 413,-1591.5 179,-1591.5"/>
</g>
<!-- sa_ccr_audit_trail_e63acb1a -->
<g id="node30" class="node">
<title>sa_ccr_audit_trail_e63acb1a</title>
<polygon fill="#e9c2f2" stroke="transparent" points="201,-1646 201,-1665 341,-1665 341,-1646 201,-1646"/>
<text text-anchor="start" x="203" y="-1652.8" font-family="Helvetica,sans-Serif" font-weight="bold" font-style="italic" font-size="14.00">sa_ccr_audit_trail</text>
<polygon fill="#e9c2f2" stroke="transparent" points="341,-1646 341,-1665 391,-1665 391,-1646 341,-1646"/>
<text text-anchor="start" x="343" y="-1651.8" font-family="Helvetica,sans-Serif" font-size="14.00">[table]</text>
<polygon fill="none" stroke="#888888" points="200,-1645.5 200,-1666.5 392,-1666.5 392,-1645.5 200,-1645.5"/>
</g>
<!-- sa_ccr_calculation_details_c43b8744 -->
<g id="node31" class="node">
<title>sa_ccr_calculation_details_c43b8744</title>
<polygon fill="#e9c2f2" stroke="transparent" points="168,-1700 168,-1719 374,-1719 374,-1700 168,-1700"/>
<text text-anchor="start" x="170" y="-1706.8" font-family="Helvetica,sans-Serif" font-weight="bold" font-style="italic" font-size="14.00">sa_ccr_calculation_details</text>
<polygon fill="#e9c2f2" stroke="transparent" points="374,-1700 374,-1719 424,-1719 424,-1700 374,-1700"/>
<text text-anchor="start" x="376" y="-1705.8" font-family="Helvetica,sans-Serif" font-size="14.00">[table]</text>
<polygon fill="none" stroke="#888888" points="167,-1699.5 167,-1720.5 425,-1720.5 425,-1699.5 167,-1699.5"/>
</g>
<!-- sa_ccr_calculations_136b1abe -->
<g id="node32" class="node">
<title>sa_ccr_calculations_136b1abe</title>
<polygon fill="#e9c2f2" stroke="transparent" points="194,-1754 194,-1773 348,-1773 348,-1754 194,-1754"/>
<text text-anchor="start" x="196" y="-1760.8" font-family="Helvetica,sans-Serif" font-weight="bold" font-style="italic" font-size="14.00">sa_ccr_calculations</text>
<polygon fill="#e9c2f2" stroke="transparent" points="348,-1754 348,-1773 398,-1773 398,-1754 348,-1754"/>
<text text-anchor="start" x="350" y="-1759.8" font-family="Helvetica,sans-Serif" font-size="14.00">[table]</text>
<polygon fill="none" stroke="#888888" points="193,-1753.5 193,-1774.5 399,-1774.5 399,-1753.5 193,-1753.5"/>
</g>
<!-- sa_ccr_supervisory_parameters_551db4c -->
<g id="node33" class="node">
<title>sa_ccr_supervisory_parameters_551db4c</title>
<polygon fill="#e9c2f2" stroke="transparent" points="146,-1808 146,-1827 396,-1827 396,-1808 146,-1808"/>
<text text-anchor="start" x="148" y="-1814.8" font-family="Helvetica,sans-Serif" font-weight="bold" font-style="italic" font-size="14.00">sa_ccr_supervisory_parameters</text>
<polygon fill="#e9c2f2" stroke="transparent" points="396,-1808 396,-1827 446,-1827 446,-1808 396,-1808"/>
<text text-anchor="start" x="398" y="-1813.8" font-family="Helvetica,sans-Serif" font-size="14.00">[table]</text>
<polygon fill="none" stroke="#888888" points="145,-1807.5 145,-1828.5 447,-1828.5 447,-1807.5 145,-1807.5"/>
</g>
<!-- sa_ccr_trade_mappings_c72bf254 -->
<g id="node34" class="node">
<title>sa_ccr_trade_mappings_c72bf254</title>
<polygon fill="#e9c2f2" stroke="transparent" points="178,-1862 178,-1881 364,-1881 364,-1862 178,-1862"/>
<text text-anchor="start" x="180" y="-1868.8" font-family="Helvetica,sans-Serif" font-weight="bold" font-style="italic" font-size="14.00">sa_ccr_trade_mappings</text>
<polygon fill="#e9c2f2" stroke="transparent" points="364,-1862 364,-1881 414,-1881 414,-1862 364,-1862"/>
<text text-anchor="start" x="366" y="-1867.8" font-family="Helvetica,sans-Serif" font-size="14.00">[table]</text>
<polygon fill="none" stroke="#888888" points="177,-1861.5 177,-1882.5 415,-1882.5 415,-1861.5 177,-1861.5"/>
</g>
<!-- simm_bucket_mappings_aee60767 -->
<g id="node35" class="node">
<title>simm_bucket_mappings_aee60767</title>
<polygon fill="#e9c2f2" stroke="transparent" points="150,-1932 150,-1951 365,-1951 365,-1932 150,-1932"/>
<text text-anchor="start" x="152" y="-1938.8" font-family="Helvetica,sans-Serif" font-weight="bold" font-style="italic" font-size="14.00">simm_bucket_mappings</text>
<polygon fill="#e9c2f2" stroke="transparent" points="365,-1932 365,-1951 443,-1951 443,-1932 365,-1932"/>
<text text-anchor="start" x="395" y="-1937.8" font-family="Helvetica,sans-Serif" font-size="14.00">[table]</text>
<text text-anchor="start" x="152" y="-1918.8" font-family="Helvetica,sans-Serif" font-size="14.00">SIMM bucket assignments for risk factors</text>
<polygon fill="none" stroke="#888888" points="148.5,-1912 148.5,-1952 443.5,-1952 443.5,-1912 148.5,-1912"/>
</g>
<!-- simm_calculation_audit_33b94872 -->
<g id="node36" class="node">
<title>simm_calculation_audit_33b94872</title>
<polygon fill="#e9c2f2" stroke="transparent" points="166,-1998 166,-2017 363,-2017 363,-1998 166,-1998"/>
<text text-anchor="start" x="168" y="-2004.8" font-family="Helvetica,sans-Serif" font-weight="bold" font-style="italic" font-size="14.00">simm_calculation_audit</text>
<polygon fill="#e9c2f2" stroke="transparent" points="363,-1998 363,-2017 426,-2017 426,-1998 363,-1998"/>
<text text-anchor="start" x="378" y="-2003.8" font-family="Helvetica,sans-Serif" font-size="14.00">[table]</text>
<text text-anchor="start" x="168" y="-1984.8" font-family="Helvetica,sans-Serif" font-size="14.00">Audit trail for SIMM calculation steps</text>
<polygon fill="none" stroke="#888888" points="165,-1978 165,-2018 427,-2018 427,-1978 165,-1978"/>
</g>
<!-- simm_calculation_results_2d658c4d -->
<g id="node37" class="node">
<title>simm_calculation_results_2d658c4d</title>
<polygon fill="#e9c2f2" stroke="transparent" points="87,-2064 87,-2083 371,-2083 371,-2064 87,-2064"/>
<text text-anchor="start" x="89" y="-2070.8" font-family="Helvetica,sans-Serif" font-weight="bold" font-style="italic" font-size="14.00">simm_calculation_results</text>
<polygon fill="#e9c2f2" stroke="transparent" points="371,-2064 371,-2083 506,-2083 506,-2064 371,-2064"/>
<text text-anchor="start" x="458" y="-2069.8" font-family="Helvetica,sans-Serif" font-size="14.00">[table]</text>
<text text-anchor="start" x="89" y="-2050.8" font-family="Helvetica,sans-Serif" font-size="14.00">Detailed SIMM margin components by risk class and bucket</text>
<polygon fill="none" stroke="#888888" points="85.5,-2044 85.5,-2084 506.5,-2084 506.5,-2044 85.5,-2044"/>
</g>
<!-- simm_calculations_e4884509 -->
<g id="node38" class="node">
<title>simm_calculations_e4884509</title>
<polygon fill="#e9c2f2" stroke="transparent" points="115,-2130 115,-2149 344,-2149 344,-2130 115,-2130"/>
<text text-anchor="start" x="117" y="-2136.8" font-family="Helvetica,sans-Serif" font-weight="bold" font-style="italic" font-size="14.00">simm_calculations</text>
<polygon fill="#e9c2f2" stroke="transparent" points="344,-2130 344,-2149 477,-2149 477,-2130 344,-2130"/>
<text text-anchor="start" x="429" y="-2135.8" font-family="Helvetica,sans-Serif" font-size="14.00">[table]</text>
<text text-anchor="start" x="117" y="-2116.8" font-family="Helvetica,sans-Serif" font-size="14.00">SIMM Initial Margin calculation requests and results</text>
<polygon fill="none" stroke="#888888" points="114,-2110 114,-2150 478,-2150 478,-2110 114,-2110"/>
</g>
<!-- simm_correlations_f4b26570 -->
<g id="node39" class="node">
<title>simm_correlations_f4b26570</title>
<polygon fill="#e9c2f2" stroke="transparent" points="124,-2196 124,-2215 344,-2215 344,-2196 124,-2196"/>
<text text-anchor="start" x="126" y="-2202.8" font-family="Helvetica,sans-Serif" font-weight="bold" font-style="italic" font-size="14.00">simm_correlations</text>
<polygon fill="#e9c2f2" stroke="transparent" points="344,-2196 344,-2215 468,-2215 468,-2196 344,-2196"/>
<text text-anchor="start" x="420" y="-2201.8" font-family="Helvetica,sans-Serif" font-size="14.00">[table]</text>
<text text-anchor="start" x="126" y="-2182.8" font-family="Helvetica,sans-Serif" font-size="14.00">SIMM correlation coefficients for risk aggregation</text>
<polygon fill="none" stroke="#888888" points="123,-2176 123,-2216 469,-2216 469,-2176 123,-2176"/>
</g>
<!-- simm_parameter_sets_f4c0db26 -->
<g id="node40" class="node">
<title>simm_parameter_sets_f4c0db26</title>
<polygon fill="#e9c2f2" stroke="transparent" points="10,-2262 10,-2281 359,-2281 359,-2262 10,-2262"/>
<text text-anchor="start" x="12" y="-2268.8" font-family="Helvetica,sans-Serif" font-weight="bold" font-style="italic" font-size="14.00">simm_parameter_sets</text>
<polygon fill="#e9c2f2" stroke="transparent" points="359,-2262 359,-2281 582,-2281 582,-2262 359,-2262"/>
<text text-anchor="start" x="534" y="-2267.8" font-family="Helvetica,sans-Serif" font-size="14.00">[table]</text>
<text text-anchor="start" x="12" y="-2248.8" font-family="Helvetica,sans-Serif" font-size="14.00">ISDA SIMM parameter set versions for IM calculations &#45; Default SIMM 2.6 inserted</text>
<polygon fill="none" stroke="#888888" points="9,-2242 9,-2282 583,-2282 583,-2242 9,-2242"/>
</g>
<!-- simm_risk_weights_adfe29ca -->
<g id="node41" class="node">
<title>simm_risk_weights_adfe29ca</title>
<polygon fill="#e9c2f2" stroke="transparent" points="145,-2328 145,-2347 345,-2347 345,-2328 145,-2328"/>
<text text-anchor="start" x="147" y="-2334.8" font-family="Helvetica,sans-Serif" font-weight="bold" font-style="italic" font-size="14.00">simm_risk_weights</text>
<polygon fill="#e9c2f2" stroke="transparent" points="345,-2328 345,-2347 447,-2347 447,-2328 345,-2328"/>
<text text-anchor="start" x="399" y="-2333.8" font-family="Helvetica,sans-Serif" font-size="14.00">[table]</text>
<text text-anchor="start" x="147" y="-2314.8" font-family="Helvetica,sans-Serif" font-size="14.00">SIMM risk weights for sensitivity weighting</text>
<polygon fill="none" stroke="#888888" points="144,-2308 144,-2348 448,-2348 448,-2308 144,-2308"/>
</g>
<!-- simulation_audit_e6fb52b9 -->
<g id="node42" class="node">
<title>simulation_audit_e6fb52b9</title>
<polygon fill="#e9c2f2" stroke="transparent" points="204,-2378 204,-2397 338,-2397 338,-2378 204,-2378"/>
<text text-anchor="start" x="206" y="-2384.8" font-family="Helvetica,sans-Serif" font-weight="bold" font-style="italic" font-size="14.00">simulation_audit</text>
<polygon fill="#e9c2f2" stroke="transparent" points="338,-2378 338,-2397 388,-2397 388,-2378 338,-2378"/>
<text text-anchor="start" x="340" y="-2383.8" font-family="Helvetica,sans-Serif" font-size="14.00">[table]</text>
<polygon fill="none" stroke="#888888" points="203,-2377.5 203,-2398.5 389,-2398.5 389,-2377.5 203,-2377.5"/>
</g>
<!-- simulation_contributors_d6395146 -->
<g id="node43" class="node">
<title>simulation_contributors_d6395146</title>
<polygon fill="#e9c2f2" stroke="transparent" points="176,-2432 176,-2451 366,-2451 366,-2432 176,-2432"/>
<text text-anchor="start" x="178" y="-2438.8" font-family="Helvetica,sans-Serif" font-weight="bold" font-style="italic" font-size="14.00">simulation_contributors</text>
<polygon fill="#e9c2f2" stroke="transparent" points="366,-2432 366,-2451 416,-2451 416,-2432 366,-2432"/>
<text text-anchor="start" x="368" y="-2437.8" font-family="Helvetica,sans-Serif" font-size="14.00">[table]</text>
<polygon fill="none" stroke="#888888" points="175,-2431.5 175,-2452.5 417,-2452.5 417,-2431.5 175,-2431.5"/>
</g>
<!-- simulation_horizon_metrics_cdfd42fd -->
<g id="node44" class="node">
<title>simulation_horizon_metrics_cdfd42fd</title>
<polygon fill="#e9c2f2" stroke="transparent" points="162,-2486 162,-2505 380,-2505 380,-2486 162,-2486"/>
<text text-anchor="start" x="164" y="-2492.8" font-family="Helvetica,sans-Serif" font-weight="bold" font-style="italic" font-size="14.00">simulation_horizon_metrics</text>
<polygon fill="#e9c2f2" stroke="transparent" points="380,-2486 380,-2505 430,-2505 430,-2486 380,-2486"/>
<text text-anchor="start" x="382" y="-2491.8" font-family="Helvetica,sans-Serif" font-size="14.00">[table]</text>
<polygon fill="none" stroke="#888888" points="161,-2485.5 161,-2506.5 431,-2506.5 431,-2485.5 161,-2485.5"/>
</g>
<!-- simulation_runs_e121e596 -->
<g id="node45" class="node">
<title>simulation_runs_e121e596</title>
<polygon fill="#e9c2f2" stroke="transparent" points="207,-2540 207,-2559 335,-2559 335,-2540 207,-2540"/>
<text text-anchor="start" x="209" y="-2546.8" font-family="Helvetica,sans-Serif" font-weight="bold" font-style="italic" font-size="14.00">simulation_runs</text>
<polygon fill="#e9c2f2" stroke="transparent" points="335,-2540 335,-2559 385,-2559 385,-2540 335,-2540"/>
<text text-anchor="start" x="337" y="-2545.8" font-family="Helvetica,sans-Serif" font-size="14.00">[table]</text>
<polygon fill="none" stroke="#888888" points="206,-2539.5 206,-2560.5 386,-2560.5 386,-2539.5 206,-2539.5"/>
</g>
<!-- statement_processing_log_3849a7fe -->
<g id="node46" class="node">
<title>statement_processing_log_3849a7fe</title>
<polygon fill="#e9c2f2" stroke="transparent" points="166,-2594 166,-2613 376,-2613 376,-2594 166,-2594"/>
<text text-anchor="start" x="168" y="-2600.8" font-family="Helvetica,sans-Serif" font-weight="bold" font-style="italic" font-size="14.00">statement_processing_log</text>
<polygon fill="#e9c2f2" stroke="transparent" points="376,-2594 376,-2613 426,-2613 426,-2594 376,-2594"/>
<text text-anchor="start" x="378" y="-2599.8" font-family="Helvetica,sans-Serif" font-size="14.00">[table]</text>
<polygon fill="none" stroke="#888888" points="165,-2593.5 165,-2614.5 427,-2614.5 427,-2593.5 165,-2593.5"/>
</g>
<!-- trade_amendments_4e82ebd7 -->
<g id="node47" class="node">
<title>trade_amendments_4e82ebd7</title>
<polygon fill="#e9c2f2" stroke="transparent" points="193,-2648 193,-2667 349,-2667 349,-2648 193,-2648"/>
<text text-anchor="start" x="195" y="-2654.8" font-family="Helvetica,sans-Serif" font-weight="bold" font-style="italic" font-size="14.00">trade_amendments</text>
<polygon fill="#e9c2f2" stroke="transparent" points="349,-2648 349,-2667 399,-2667 399,-2648 349,-2648"/>
<text text-anchor="start" x="351" y="-2653.8" font-family="Helvetica,sans-Serif" font-size="14.00">[table]</text>
<polygon fill="none" stroke="#888888" points="192,-2647.5 192,-2668.5 400,-2668.5 400,-2647.5 192,-2647.5"/>
</g>
<!-- trade_novations_d2f2292e -->
<g id="node48" class="node">
<title>trade_novations_d2f2292e</title>
<polygon fill="#e9c2f2" stroke="transparent" points="205,-2702 205,-2721 337,-2721 337,-2702 205,-2702"/>
<text text-anchor="start" x="207" y="-2708.8" font-family="Helvetica,sans-Serif" font-weight="bold" font-style="italic" font-size="14.00">trade_novations</text>
<polygon fill="#e9c2f2" stroke="transparent" points="337,-2702 337,-2721 387,-2721 387,-2702 337,-2702"/>
<text text-anchor="start" x="339" y="-2707.8" font-family="Helvetica,sans-Serif" font-size="14.00">[table]</text>
<polygon fill="none" stroke="#888888" points="204,-2701.5 204,-2722.5 388,-2722.5 388,-2701.5 204,-2701.5"/>
</g>
</g>
</svg>
