<?xml version="1.0" encoding="UTF-8" standalone="no"?>
<!DOCTYPE svg PUBLIC "-//W3C//DTD SVG 1.1//EN"
 "http://www.w3.org/Graphics/SVG/1.1/DTD/svg11.dtd">
<!-- Generated by graphviz version 2.40.1 (20161225.0304)
 -->
<!-- Title: orphans Pages: 1 -->
<svg width="352pt" height="1077pt"
 viewBox="0.00 0.00 352.00 1077.00" xmlns="http://www.w3.org/2000/svg" xmlns:xlink="http://www.w3.org/1999/xlink">
<g id="graph0" class="graph" transform="scale(1 1) rotate(0) translate(4 1073)">
<title>orphans</title>
<polygon fill="#ffffff" stroke="transparent" points="-4,4 -4,-1073 348,-1073 348,4 -4,4"/>
<!-- cds_audit_log -->
<g id="node1" class="node">
<title>cds_audit_log</title>
<g id="a_node1"><a xlink:href="../../tables/cds_audit_log.html" xlink:title="cds_audit_log" target="_top">
<polygon fill="#ffffff" stroke="transparent" points="66.5,-4 66.5,-226 277.5,-226 277.5,-4 66.5,-4"/>
<polygon fill="#f5f5f5" stroke="transparent" points="69,-201 69,-224 276,-224 276,-201 69,-201"/>
<polygon fill="none" stroke="#000000" points="69,-201 69,-224 276,-224 276,-201 69,-201"/>
<text text-anchor="start" x="74" y="-209.6" font-family="Helvetica,sans-Serif" font-weight="bold" font-size="11.00" fill="#000000">cds_audit_log</text>
<text text-anchor="start" x="241.0437" y="-209.1" font-family="Helvetica,sans-Serif" font-size="11.00" fill="#000000">[table]</text>
<polygon fill="none" stroke="#000000" points="69,-179 69,-201 182,-201 182,-179 69,-179"/>
<image xlink:href="../../images/primaryKeys.png" width="11px" height="12px" preserveAspectRatio="xMinYMin meet" x="74" y="-196"/>
<text text-anchor="start" x="89" y="-186.1" font-family="Helvetica,sans-Serif" font-size="11.00" fill="#000000">id</text>
<polygon fill="none" stroke="#000000" points="182,-179 182,-201 276,-201 276,-179 182,-179"/>
<text text-anchor="start" x="184.9758" y="-186.7" font-family="Helvetica,sans-Serif" font-size="11.00" fill="#000000">uuid[2147483647]</text>
<polygon fill="#ffffff" stroke="transparent" points="69,-157 69,-179 182,-179 182,-157 69,-157"/>
<polygon fill="none" stroke="#000000" points="69,-157 69,-179 182,-179 182,-157 69,-157"/>
<text text-anchor="start" x="89" y="-164.1" font-family="Helvetica,sans-Serif" font-size="11.00" fill="#000000">entity_type</text>
<polygon fill="none" stroke="#000000" points="182,-157 182,-179 276,-179 276,-157 182,-157"/>
<text text-anchor="start" x="185" y="-164.7" font-family="Helvetica,sans-Serif" font-size="11.00" fill="#000000">varchar[50]</text>
<polygon fill="#ffffff" stroke="transparent" points="69,-135 69,-157 182,-157 182,-135 69,-135"/>
<polygon fill="none" stroke="#000000" points="69,-135 69,-157 182,-157 182,-135 69,-135"/>
<text text-anchor="start" x="89" y="-142.1" font-family="Helvetica,sans-Serif" font-size="11.00" fill="#000000">entity_id</text>
<polygon fill="none" stroke="#000000" points="182,-135 182,-157 276,-157 276,-135 182,-135"/>
<text text-anchor="start" x="185" y="-142.7" font-family="Helvetica,sans-Serif" font-size="11.00" fill="#000000">varchar[255]</text>
<polygon fill="#ffffff" stroke="transparent" points="69,-113 69,-135 182,-135 182,-113 69,-113"/>
<polygon fill="none" stroke="#000000" points="69,-113 69,-135 182,-135 182,-113 69,-113"/>
<text text-anchor="start" x="89" y="-120.1" font-family="Helvetica,sans-Serif" font-size="11.00" fill="#000000">action</text>
<polygon fill="none" stroke="#000000" points="182,-113 182,-135 276,-135 276,-113 182,-113"/>
<text text-anchor="start" x="185" y="-120.7" font-family="Helvetica,sans-Serif" font-size="11.00" fill="#000000">varchar[50]</text>
<polygon fill="#ffffff" stroke="transparent" points="69,-91 69,-113 182,-113 182,-91 69,-91"/>
<polygon fill="none" stroke="#000000" points="69,-91 69,-113 182,-113 182,-91 69,-91"/>
<text text-anchor="start" x="89" y="-98.1" font-family="Helvetica,sans-Serif" font-size="11.00" fill="#000000">timestamp</text>
<polygon fill="none" stroke="#000000" points="182,-91 182,-113 276,-113 276,-91 182,-91"/>
<text text-anchor="start" x="185" y="-98.7" font-family="Helvetica,sans-Serif" font-size="11.00" fill="#000000">timestamp[29,6]</text>
<polygon fill="#ffffff" stroke="transparent" points="69,-69 69,-91 182,-91 182,-69 69,-69"/>
<polygon fill="none" stroke="#000000" points="69,-69 69,-91 182,-91 182,-69 69,-69"/>
<text text-anchor="start" x="89" y="-76.1" font-family="Helvetica,sans-Serif" font-size="11.00" fill="#000000">actor</text>
<polygon fill="none" stroke="#000000" points="182,-69 182,-91 276,-91 276,-69 182,-69"/>
<text text-anchor="start" x="185" y="-76.7" font-family="Helvetica,sans-Serif" font-size="11.00" fill="#000000">varchar[100]</text>
<polygon fill="none" stroke="#000000" points="69,-47 69,-69 182,-69 182,-47 69,-47"/>
<text text-anchor="start" x="89" y="-54.1" font-family="Helvetica,sans-Serif" font-size="11.00" fill="#000000">summary</text>
<polygon fill="none" stroke="#000000" points="182,-47 182,-69 276,-69 276,-47 182,-47"/>
<text text-anchor="start" x="185" y="-54.7" font-family="Helvetica,sans-Serif" font-size="11.00" fill="#000000">text[2147483647]</text>
<polygon fill="#ffffff" stroke="transparent" points="69,-25 69,-47 182,-47 182,-25 69,-25"/>
<polygon fill="none" stroke="#000000" points="69,-25 69,-47 182,-47 182,-25 69,-25"/>
<text text-anchor="start" x="89" y="-32.1" font-family="Helvetica,sans-Serif" font-size="11.00" fill="#000000">correlation_id</text>
<polygon fill="none" stroke="#000000" points="182,-25 182,-47 276,-47 276,-25 182,-25"/>
<text text-anchor="start" x="184.9758" y="-32.7" font-family="Helvetica,sans-Serif" font-size="11.00" fill="#000000">uuid[2147483647]</text>
<polygon fill="#ffffff" stroke="transparent" points="69,-6 69,-25 130,-25 130,-6 69,-6"/>
<polygon fill="none" stroke="#000000" points="69,-6 69,-25 130,-25 130,-6 69,-6"/>
<text text-anchor="start" x="72" y="-12.1" font-family="Helvetica,sans-Serif" font-size="11.00" fill="#000000">&lt; 0</text>
<polygon fill="#ffffff" stroke="transparent" points="130,-6 130,-25 182,-25 182,-6 130,-6"/>
<polygon fill="none" stroke="#000000" points="130,-6 130,-25 182,-25 182,-6 130,-6"/>
<text text-anchor="start" x="172.8862" y="-12.1" font-family="Helvetica,sans-Serif" font-size="11.00" fill="#000000"> &#160;</text>
<polygon fill="#ffffff" stroke="transparent" points="182,-6 182,-25 276,-25 276,-6 182,-6"/>
<polygon fill="none" stroke="#000000" points="182,-6 182,-25 276,-25 276,-6 182,-6"/>
<text text-anchor="start" x="257.4053" y="-12.1" font-family="Helvetica,sans-Serif" font-size="11.00" fill="#000000">0 &gt;</text>
<polygon fill="none" stroke="#000000" stroke-width="2" points="67.5,-5 67.5,-225 276.5,-225 276.5,-5 67.5,-5"/>
</a>
</g>
</g>
<!-- flyway_schema_history -->
<g id="node2" class="node">
<title>flyway_schema_history</title>
<g id="a_node2"><a xlink:href="../../tables/flyway_schema_history.html" xlink:title="flyway_schema_history" target="_top">
<polygon fill="#ffffff" stroke="transparent" points="40,-247 40,-513 304,-513 304,-247 40,-247"/>
<polygon fill="#f5f5f5" stroke="transparent" points="42,-488 42,-511 302,-511 302,-488 42,-488"/>
<polygon fill="none" stroke="#000000" points="42,-488 42,-511 302,-511 302,-488 42,-488"/>
<text text-anchor="start" x="47" y="-496.6" font-family="Helvetica,sans-Serif" font-weight="bold" font-size="11.00" fill="#000000">flyway_schema_history</text>
<text text-anchor="start" x="267.0437" y="-496.1" font-family="Helvetica,sans-Serif" font-size="11.00" fill="#000000">[table]</text>
<polygon fill="none" stroke="#000000" points="42,-466 42,-488 218,-488 218,-466 42,-466"/>
<image xlink:href="../../images/primaryKeys.png" width="11px" height="12px" preserveAspectRatio="xMinYMin meet" x="47" y="-483"/>
<text text-anchor="start" x="62" y="-473.1" font-family="Helvetica,sans-Serif" font-size="11.00" fill="#000000">installed_rank</text>
<polygon fill="none" stroke="#000000" points="218,-466 218,-488 302,-488 302,-466 218,-466"/>
<text text-anchor="start" x="221" y="-473.7" font-family="Helvetica,sans-Serif" font-size="11.00" fill="#000000">int4[10]</text>
<polygon fill="none" stroke="#000000" points="42,-444 42,-466 218,-466 218,-444 42,-444"/>
<text text-anchor="start" x="62" y="-451.1" font-family="Helvetica,sans-Serif" font-size="11.00" fill="#000000">version</text>
<polygon fill="none" stroke="#000000" points="218,-444 218,-466 302,-466 302,-444 218,-444"/>
<text text-anchor="start" x="221" y="-451.7" font-family="Helvetica,sans-Serif" font-size="11.00" fill="#000000">varchar[50]</text>
<polygon fill="none" stroke="#000000" points="42,-422 42,-444 218,-444 218,-422 42,-422"/>
<text text-anchor="start" x="62" y="-429.1" font-family="Helvetica,sans-Serif" font-size="11.00" fill="#000000">description</text>
<polygon fill="none" stroke="#000000" points="218,-422 218,-444 302,-444 302,-422 218,-422"/>
<text text-anchor="start" x="221" y="-429.7" font-family="Helvetica,sans-Serif" font-size="11.00" fill="#000000">varchar[200]</text>
<polygon fill="none" stroke="#000000" points="42,-400 42,-422 218,-422 218,-400 42,-400"/>
<text text-anchor="start" x="62" y="-407.1" font-family="Helvetica,sans-Serif" font-size="11.00" fill="#000000">type</text>
<polygon fill="none" stroke="#000000" points="218,-400 218,-422 302,-422 302,-400 218,-400"/>
<text text-anchor="start" x="221" y="-407.7" font-family="Helvetica,sans-Serif" font-size="11.00" fill="#000000">varchar[20]</text>
<polygon fill="none" stroke="#000000" points="42,-378 42,-400 218,-400 218,-378 42,-378"/>
<text text-anchor="start" x="62" y="-385.1" font-family="Helvetica,sans-Serif" font-size="11.00" fill="#000000">script</text>
<polygon fill="none" stroke="#000000" points="218,-378 218,-400 302,-400 302,-378 218,-378"/>
<text text-anchor="start" x="221" y="-385.7" font-family="Helvetica,sans-Serif" font-size="11.00" fill="#000000">varchar[1000]</text>
<polygon fill="none" stroke="#000000" points="42,-356 42,-378 218,-378 218,-356 42,-356"/>
<text text-anchor="start" x="62" y="-363.1" font-family="Helvetica,sans-Serif" font-size="11.00" fill="#000000">checksum</text>
<polygon fill="none" stroke="#000000" points="218,-356 218,-378 302,-378 302,-356 218,-356"/>
<text text-anchor="start" x="221" y="-363.7" font-family="Helvetica,sans-Serif" font-size="11.00" fill="#000000">int4[10]</text>
<polygon fill="none" stroke="#000000" points="42,-334 42,-356 218,-356 218,-334 42,-334"/>
<text text-anchor="start" x="62" y="-341.1" font-family="Helvetica,sans-Serif" font-size="11.00" fill="#000000">installed_by</text>
<polygon fill="none" stroke="#000000" points="218,-334 218,-356 302,-356 302,-334 218,-334"/>
<text text-anchor="start" x="221" y="-341.7" font-family="Helvetica,sans-Serif" font-size="11.00" fill="#000000">varchar[100]</text>
<polygon fill="none" stroke="#000000" points="42,-312 42,-334 218,-334 218,-312 42,-312"/>
<text text-anchor="start" x="62" y="-319.1" font-family="Helvetica,sans-Serif" font-size="11.00" fill="#000000">installed_on</text>
<polygon fill="none" stroke="#000000" points="218,-312 218,-334 302,-334 302,-312 218,-312"/>
<text text-anchor="start" x="220.8807" y="-319.7" font-family="Helvetica,sans-Serif" font-size="11.00" fill="#000000">timestamp[29,6]</text>
<polygon fill="none" stroke="#000000" points="42,-290 42,-312 218,-312 218,-290 42,-290"/>
<text text-anchor="start" x="62" y="-297.1" font-family="Helvetica,sans-Serif" font-size="11.00" fill="#000000">execution_time</text>
<polygon fill="none" stroke="#000000" points="218,-290 218,-312 302,-312 302,-290 218,-290"/>
<text text-anchor="start" x="221" y="-297.7" font-family="Helvetica,sans-Serif" font-size="11.00" fill="#000000">int4[10]</text>
<polygon fill="#ffffff" stroke="transparent" points="42,-268 42,-290 218,-290 218,-268 42,-268"/>
<polygon fill="none" stroke="#000000" points="42,-268 42,-290 218,-290 218,-268 42,-268"/>
<text text-anchor="start" x="62" y="-275.1" font-family="Helvetica,sans-Serif" font-size="11.00" fill="#000000">success</text>
<polygon fill="none" stroke="#000000" points="218,-268 218,-290 302,-290 302,-268 218,-268"/>
<text text-anchor="start" x="221" y="-275.7" font-family="Helvetica,sans-Serif" font-size="11.00" fill="#000000">bool[1]</text>
<polygon fill="#ffffff" stroke="transparent" points="42,-249 42,-268 134,-268 134,-249 42,-249"/>
<polygon fill="none" stroke="#000000" points="42,-249 42,-268 134,-268 134,-249 42,-249"/>
<text text-anchor="start" x="45" y="-255.1" font-family="Helvetica,sans-Serif" font-size="11.00" fill="#000000">&lt; 0</text>
<polygon fill="#ffffff" stroke="transparent" points="134,-249 134,-268 218,-268 218,-249 134,-249"/>
<polygon fill="none" stroke="#000000" points="134,-249 134,-268 218,-268 218,-249 134,-249"/>
<text text-anchor="start" x="208.8862" y="-255.1" font-family="Helvetica,sans-Serif" font-size="11.00" fill="#000000"> &#160;</text>
<polygon fill="#ffffff" stroke="transparent" points="218,-249 218,-268 302,-268 302,-249 218,-249"/>
<polygon fill="none" stroke="#000000" points="218,-249 218,-268 302,-268 302,-249 218,-249"/>
<text text-anchor="start" x="283.4053" y="-255.1" font-family="Helvetica,sans-Serif" font-size="11.00" fill="#000000">0 &gt;</text>
<polygon fill="none" stroke="#000000" stroke-width="2" points="41,-248 41,-512 303,-512 303,-248 41,-248"/>
</a>
</g>
</g>
<!-- margin_tolerance_config -->
<g id="node3" class="node">
<title>margin_tolerance_config</title>
<g id="a_node3"><a xlink:href="../../tables/margin_tolerance_config.html" xlink:title="margin_tolerance_config" target="_top">
<polygon fill="#ffffff" stroke="transparent" points="8,-534 8,-778 336,-778 336,-534 8,-534"/>
<polygon fill="#f5f5f5" stroke="transparent" points="10,-753 10,-776 334,-776 334,-753 10,-753"/>
<polygon fill="none" stroke="#000000" points="10,-753 10,-776 334,-776 334,-753 10,-753"/>
<text text-anchor="start" x="15" y="-761.6" font-family="Helvetica,sans-Serif" font-weight="bold" font-size="11.00" fill="#000000">margin_tolerance_config</text>
<text text-anchor="start" x="299.0437" y="-761.1" font-family="Helvetica,sans-Serif" font-size="11.00" fill="#000000">[table]</text>
<polygon fill="none" stroke="#000000" points="10,-731 10,-753 196,-753 196,-731 10,-731"/>
<image xlink:href="../../images/primaryKeys.png" width="11px" height="12px" preserveAspectRatio="xMinYMin meet" x="15" y="-748"/>
<text text-anchor="start" x="30" y="-738.1" font-family="Helvetica,sans-Serif" font-size="11.00" fill="#000000">id</text>
<polygon fill="none" stroke="#000000" points="196,-731 196,-753 334,-753 334,-731 196,-731"/>
<text text-anchor="start" x="199" y="-738.7" font-family="Helvetica,sans-Serif" font-size="11.00" fill="#000000">bigserial[19]</text>
<polygon fill="#ffffff" stroke="transparent" points="10,-709 10,-731 196,-731 196,-709 10,-709"/>
<polygon fill="none" stroke="#000000" points="10,-709 10,-731 196,-731 196,-709 10,-709"/>
<text text-anchor="start" x="30" y="-716.1" font-family="Helvetica,sans-Serif" font-size="11.00" fill="#000000">ccp_name</text>
<polygon fill="none" stroke="#000000" points="196,-709 196,-731 334,-731 334,-709 196,-709"/>
<text text-anchor="start" x="199" y="-716.7" font-family="Helvetica,sans-Serif" font-size="11.00" fill="#000000">varchar[100]</text>
<polygon fill="#ffffff" stroke="transparent" points="10,-687 10,-709 196,-709 196,-687 10,-687"/>
<polygon fill="none" stroke="#000000" points="10,-687 10,-709 196,-709 196,-687 10,-687"/>
<text text-anchor="start" x="30" y="-694.1" font-family="Helvetica,sans-Serif" font-size="11.00" fill="#000000">position_type</text>
<polygon fill="none" stroke="#000000" points="196,-687 196,-709 334,-709 334,-687 196,-687"/>
<text text-anchor="start" x="198.9687" y="-694.7" font-family="Helvetica,sans-Serif" font-size="11.00" fill="#000000">position_type[2147483647]</text>
<polygon fill="#ffffff" stroke="transparent" points="10,-665 10,-687 196,-687 196,-665 10,-665"/>
<polygon fill="none" stroke="#000000" points="10,-665 10,-687 196,-687 196,-665 10,-665"/>
<text text-anchor="start" x="30" y="-672.1" font-family="Helvetica,sans-Serif" font-size="11.00" fill="#000000">currency</text>
<polygon fill="none" stroke="#000000" points="196,-665 196,-687 334,-687 334,-665 196,-665"/>
<text text-anchor="start" x="199" y="-672.7" font-family="Helvetica,sans-Serif" font-size="11.00" fill="#000000">varchar[3]</text>
<polygon fill="none" stroke="#000000" points="10,-643 10,-665 196,-665 196,-643 10,-643"/>
<text text-anchor="start" x="30" y="-650.1" font-family="Helvetica,sans-Serif" font-size="11.00" fill="#000000">absolute_threshold</text>
<polygon fill="none" stroke="#000000" points="196,-643 196,-665 334,-665 334,-643 196,-643"/>
<text text-anchor="start" x="199" y="-650.7" font-family="Helvetica,sans-Serif" font-size="11.00" fill="#000000">numeric[20,4]</text>
<polygon fill="none" stroke="#000000" points="10,-621 10,-643 196,-643 196,-621 10,-621"/>
<text text-anchor="start" x="30" y="-628.1" font-family="Helvetica,sans-Serif" font-size="11.00" fill="#000000">percentage_threshold</text>
<polygon fill="none" stroke="#000000" points="196,-621 196,-643 334,-643 334,-621 196,-621"/>
<text text-anchor="start" x="199" y="-628.7" font-family="Helvetica,sans-Serif" font-size="11.00" fill="#000000">numeric[8,4]</text>
<polygon fill="none" stroke="#000000" points="10,-599 10,-621 196,-621 196,-599 10,-599"/>
<text text-anchor="start" x="30" y="-606.1" font-family="Helvetica,sans-Serif" font-size="11.00" fill="#000000">is_active</text>
<polygon fill="none" stroke="#000000" points="196,-599 196,-621 334,-621 334,-599 196,-599"/>
<text text-anchor="start" x="199" y="-606.7" font-family="Helvetica,sans-Serif" font-size="11.00" fill="#000000">bool[1]</text>
<polygon fill="none" stroke="#000000" points="10,-577 10,-599 196,-599 196,-577 10,-577"/>
<text text-anchor="start" x="30" y="-584.1" font-family="Helvetica,sans-Serif" font-size="11.00" fill="#000000">created_at</text>
<polygon fill="none" stroke="#000000" points="196,-577 196,-599 334,-599 334,-577 196,-577"/>
<text text-anchor="start" x="199" y="-584.7" font-family="Helvetica,sans-Serif" font-size="11.00" fill="#000000">timestamptz[35,6]</text>
<polygon fill="none" stroke="#000000" points="10,-555 10,-577 196,-577 196,-555 10,-555"/>
<text text-anchor="start" x="30" y="-562.1" font-family="Helvetica,sans-Serif" font-size="11.00" fill="#000000">updated_at</text>
<polygon fill="none" stroke="#000000" points="196,-555 196,-577 334,-577 334,-555 196,-555"/>
<text text-anchor="start" x="199" y="-562.7" font-family="Helvetica,sans-Serif" font-size="11.00" fill="#000000">timestamptz[35,6]</text>
<polygon fill="#ffffff" stroke="transparent" points="10,-536 10,-555 107,-555 107,-536 10,-536"/>
<polygon fill="none" stroke="#000000" points="10,-536 10,-555 107,-555 107,-536 10,-536"/>
<text text-anchor="start" x="13" y="-542.1" font-family="Helvetica,sans-Serif" font-size="11.00" fill="#000000">&lt; 0</text>
<polygon fill="#ffffff" stroke="transparent" points="107,-536 107,-555 196,-555 196,-536 107,-536"/>
<polygon fill="none" stroke="#000000" points="107,-536 107,-555 196,-555 196,-536 107,-536"/>
<text text-anchor="start" x="186.8862" y="-542.1" font-family="Helvetica,sans-Serif" font-size="11.00" fill="#000000"> &#160;</text>
<polygon fill="#ffffff" stroke="transparent" points="196,-536 196,-555 334,-555 334,-536 196,-536"/>
<polygon fill="none" stroke="#000000" points="196,-536 196,-555 334,-555 334,-536 196,-536"/>
<text text-anchor="start" x="315.4053" y="-542.1" font-family="Helvetica,sans-Serif" font-size="11.00" fill="#000000">0 &gt;</text>
<polygon fill="none" stroke="#000000" stroke-width="2" points="9,-535 9,-777 335,-777 335,-535 9,-535"/>
</a>
</g>
</g>
<!-- sa_ccr_supervisory_parameters -->
<g id="node4" class="node">
<title>sa_ccr_supervisory_parameters</title>
<g id="a_node4"><a xlink:href="../../tables/sa_ccr_supervisory_parameters.html" xlink:title="sa_ccr_supervisory_parameters" target="_top">
<polygon fill="#ffffff" stroke="transparent" points="12,-799 12,-1065 332,-1065 332,-799 12,-799"/>
<polygon fill="#f5f5f5" stroke="transparent" points="14,-1040 14,-1063 330,-1063 330,-1040 14,-1040"/>
<polygon fill="none" stroke="#000000" points="14,-1040 14,-1063 330,-1063 330,-1040 14,-1040"/>
<text text-anchor="start" x="19" y="-1048.6" font-family="Helvetica,sans-Serif" font-weight="bold" font-size="11.00" fill="#000000">sa_ccr_supervisory_parameters</text>
<text text-anchor="start" x="295.0437" y="-1048.1" font-family="Helvetica,sans-Serif" font-size="11.00" fill="#000000">[table]</text>
<polygon fill="none" stroke="#000000" points="14,-1018 14,-1040 246,-1040 246,-1018 14,-1018"/>
<image xlink:href="../../images/primaryKeys.png" width="11px" height="12px" preserveAspectRatio="xMinYMin meet" x="19" y="-1035"/>
<text text-anchor="start" x="34" y="-1025.1" font-family="Helvetica,sans-Serif" font-size="11.00" fill="#000000">id</text>
<polygon fill="none" stroke="#000000" points="246,-1018 246,-1040 330,-1040 330,-1018 246,-1018"/>
<text text-anchor="start" x="249" y="-1025.7" font-family="Helvetica,sans-Serif" font-size="11.00" fill="#000000">bigserial[19]</text>
<polygon fill="#ffffff" stroke="transparent" points="14,-996 14,-1018 246,-1018 246,-996 14,-996"/>
<polygon fill="none" stroke="#000000" points="14,-996 14,-1018 246,-1018 246,-996 14,-996"/>
<text text-anchor="start" x="34" y="-1003.1" font-family="Helvetica,sans-Serif" font-size="11.00" fill="#000000">jurisdiction</text>
<polygon fill="none" stroke="#000000" points="246,-996 246,-1018 330,-1018 330,-996 246,-996"/>
<text text-anchor="start" x="249" y="-1003.7" font-family="Helvetica,sans-Serif" font-size="11.00" fill="#000000">varchar[10]</text>
<polygon fill="#ffffff" stroke="transparent" points="14,-974 14,-996 246,-996 246,-974 14,-974"/>
<polygon fill="none" stroke="#000000" points="14,-974 14,-996 246,-996 246,-974 14,-974"/>
<text text-anchor="start" x="34" y="-981.1" font-family="Helvetica,sans-Serif" font-size="11.00" fill="#000000">asset_class</text>
<polygon fill="none" stroke="#000000" points="246,-974 246,-996 330,-996 330,-974 246,-974"/>
<text text-anchor="start" x="249" y="-981.7" font-family="Helvetica,sans-Serif" font-size="11.00" fill="#000000">varchar[50]</text>
<polygon fill="#ffffff" stroke="transparent" points="14,-952 14,-974 246,-974 246,-952 14,-952"/>
<polygon fill="none" stroke="#000000" points="14,-952 14,-974 246,-974 246,-952 14,-952"/>
<text text-anchor="start" x="34" y="-959.1" font-family="Helvetica,sans-Serif" font-size="11.00" fill="#000000">parameter_type</text>
<polygon fill="none" stroke="#000000" points="246,-952 246,-974 330,-974 330,-952 246,-952"/>
<text text-anchor="start" x="249" y="-959.7" font-family="Helvetica,sans-Serif" font-size="11.00" fill="#000000">varchar[50]</text>
<polygon fill="#ffffff" stroke="transparent" points="14,-930 14,-952 246,-952 246,-930 14,-930"/>
<polygon fill="none" stroke="#000000" points="14,-930 14,-952 246,-952 246,-930 14,-930"/>
<text text-anchor="start" x="34" y="-937.1" font-family="Helvetica,sans-Serif" font-size="11.00" fill="#000000">tenor_bucket</text>
<polygon fill="none" stroke="#000000" points="246,-930 246,-952 330,-952 330,-930 246,-930"/>
<text text-anchor="start" x="249" y="-937.7" font-family="Helvetica,sans-Serif" font-size="11.00" fill="#000000">varchar[20]</text>
<polygon fill="#ffffff" stroke="transparent" points="14,-908 14,-930 246,-930 246,-908 14,-908"/>
<polygon fill="none" stroke="#000000" points="14,-908 14,-930 246,-930 246,-908 14,-908"/>
<text text-anchor="start" x="34" y="-915.1" font-family="Helvetica,sans-Serif" font-size="11.00" fill="#000000">credit_quality</text>
<polygon fill="none" stroke="#000000" points="246,-908 246,-930 330,-930 330,-908 246,-908"/>
<text text-anchor="start" x="249" y="-915.7" font-family="Helvetica,sans-Serif" font-size="11.00" fill="#000000">varchar[20]</text>
<polygon fill="none" stroke="#000000" points="14,-886 14,-908 246,-908 246,-886 14,-886"/>
<text text-anchor="start" x="34" y="-893.1" font-family="Helvetica,sans-Serif" font-size="11.00" fill="#000000">parameter_value</text>
<polygon fill="none" stroke="#000000" points="246,-886 246,-908 330,-908 330,-886 246,-886"/>
<text text-anchor="start" x="249" y="-893.7" font-family="Helvetica,sans-Serif" font-size="11.00" fill="#000000">numeric[10,6]</text>
<polygon fill="#ffffff" stroke="transparent" points="14,-864 14,-886 246,-886 246,-864 14,-864"/>
<polygon fill="none" stroke="#000000" points="14,-864 14,-886 246,-886 246,-864 14,-864"/>
<text text-anchor="start" x="34" y="-871.1" font-family="Helvetica,sans-Serif" font-size="11.00" fill="#000000">effective_date</text>
<polygon fill="none" stroke="#000000" points="246,-864 246,-886 330,-886 330,-864 246,-864"/>
<text text-anchor="start" x="249" y="-871.7" font-family="Helvetica,sans-Serif" font-size="11.00" fill="#000000">date[13]</text>
<polygon fill="none" stroke="#000000" points="14,-842 14,-864 246,-864 246,-842 14,-842"/>
<text text-anchor="start" x="34" y="-849.1" font-family="Helvetica,sans-Serif" font-size="11.00" fill="#000000">expiry_date</text>
<polygon fill="none" stroke="#000000" points="246,-842 246,-864 330,-864 330,-842 246,-842"/>
<text text-anchor="start" x="249" y="-849.7" font-family="Helvetica,sans-Serif" font-size="11.00" fill="#000000">date[13]</text>
<polygon fill="none" stroke="#000000" points="14,-820 14,-842 246,-842 246,-820 14,-820"/>
<text text-anchor="start" x="34" y="-827.1" font-family="Helvetica,sans-Serif" font-size="11.00" fill="#000000">created_at</text>
<polygon fill="none" stroke="#000000" points="246,-820 246,-842 330,-842 330,-820 246,-820"/>
<text text-anchor="start" x="248.8807" y="-827.7" font-family="Helvetica,sans-Serif" font-size="11.00" fill="#000000">timestamp[29,6]</text>
<polygon fill="#ffffff" stroke="transparent" points="14,-801 14,-820 134,-820 134,-801 14,-801"/>
<polygon fill="none" stroke="#000000" points="14,-801 14,-820 134,-820 134,-801 14,-801"/>
<text text-anchor="start" x="17" y="-807.1" font-family="Helvetica,sans-Serif" font-size="11.00" fill="#000000">&lt; 0</text>
<polygon fill="#ffffff" stroke="transparent" points="134,-801 134,-820 246,-820 246,-801 134,-801"/>
<polygon fill="none" stroke="#000000" points="134,-801 134,-820 246,-820 246,-801 134,-801"/>
<text text-anchor="start" x="236.8862" y="-807.1" font-family="Helvetica,sans-Serif" font-size="11.00" fill="#000000"> &#160;</text>
<polygon fill="#ffffff" stroke="transparent" points="246,-801 246,-820 330,-820 330,-801 246,-801"/>
<polygon fill="none" stroke="#000000" points="246,-801 246,-820 330,-820 330,-801 246,-801"/>
<text text-anchor="start" x="311.4053" y="-807.1" font-family="Helvetica,sans-Serif" font-size="11.00" fill="#000000">0 &gt;</text>
<polygon fill="none" stroke="#000000" stroke-width="2" points="13,-800 13,-1064 331,-1064 331,-800 13,-800"/>
</a>
</g>
</g>
</g>
</svg>
